<svg xmlns="http://www.w3.org/2000/svg" width="32" height="32" viewBox="0 0 32 32" fill="none">

    <path
        d="M15.0203 4.79395C15.2382 3.72762 16.7618 3.72761 16.9797 4.79394L18.583 12.638C18.6632 13.0305 18.97 13.3373 19.3625 13.4175L27.2065 15.0207C28.2729 15.2387 28.2729 16.7623 27.2065 16.9802L19.3625 18.5835C18.97 18.6637 18.6632 18.9705 18.583 19.363L16.9797 27.207C16.7618 28.2734 15.2382 28.2734 15.0203 27.207L13.417 19.363C13.3368 18.9705 13.03 18.6637 12.6375 18.5835L4.79346 16.9802C3.72713 16.7623 3.72712 15.2387 4.79346 15.0207L12.6375 13.4175C13.03 13.3373 13.3368 13.0305 13.417 12.638L15.0203 4.79395Z"
        fill="white" />

</svg>