<svg xmlns="http://www.w3.org/2000/svg" width="32" height="32" viewBox="0 0 32 32" fill="none">
    <path
        d="M21.7494 8.11142C17.4276 5.13916 9.8308 5.8873 5.46542 6.86181C4.59154 7.05689 3.98936 7.85111 4.05683 8.74396C4.80383 18.6283 12.7449 24.8087 17.7985 25.7611C20.7575 26.3187 23.1298 26.1448 24.6499 25.8818C25.7142 25.6976 26.2408 24.5957 25.7271 23.6455C24.2532 20.9198 21.7358 18.189 19.2616 15.9405C18.4072 15.164 19.0868 14.0245 20.0335 14.6853C23.2121 16.9037 25.385 19.6238 26.6965 21.8673C26.9826 22.3568 27.9824 22.1359 27.9649 21.5692C27.7997 16.202 26.8711 11.6338 21.7494 8.11142Z"
        fill="white" />
</svg>