<svg xmlns="http://www.w3.org/2000/svg" width="32" height="32" viewBox="0 0 32 32" fill="none">
    <path
        d="M24.8955 4.0008C25.8374 4.00111 26.6007 4.76473 26.6007 5.7067L26.6008 17.5006C26.6006 23.189 21.9892 27.8002 16.3009 27.8004C10.6125 27.8003 6.00125 23.1889 6.00118 17.5005L6.00113 5.70654C6.00113 4.76438 6.76487 4.00034 7.70703 4.00034L24.8955 4.0008ZM16.3022 9.60018C15.4738 9.60018 14.8024 10.2719 14.8024 11.1003L14.8016 13.2038L12.7069 13.204C11.8785 13.204 11.2061 13.8758 11.206 14.7041C11.206 15.5325 11.8778 16.2039 12.7061 16.204L14.8018 16.2038L14.802 18.3005C14.8021 19.1288 15.4738 19.8004 16.3022 19.8004C17.1305 19.8003 17.8019 19.1286 17.802 18.3002L17.8018 16.2036L19.9063 16.2044C20.7347 16.2042 21.4062 15.5326 21.4062 14.7042C21.4061 13.8761 20.7351 13.2047 19.9071 13.2044L17.8016 13.2036L17.8024 11.1C17.8022 10.2718 17.1305 9.60026 16.3022 9.60018Z"
        fill="white" />
</svg>