<svg width="599" height="605" viewBox="0 0 599 605" fill="none" xmlns="http://www.w3.org/2000/svg">
<g filter="url(#filter0_ii_2085_19539)">
<path d="M429.652 44.6393C431.709 45.5553 433.68 46.8322 435.304 48.5392C436.531 48.4717 437.792 48.6845 438.991 49.2186L446.095 52.3815C447.529 53.0199 448.968 53.8446 450.282 54.8944C451.289 54.9256 452.307 55.1474 453.285 55.5826L468.194 62.2207C468.419 62.3206 468.635 62.4308 468.846 62.5482C469.074 62.626 469.301 62.7134 469.525 62.8133L473.823 64.7266C474.693 65.1144 475.46 65.6393 476.11 66.2635C477.013 66.3297 477.915 66.5486 478.778 66.9327L484.829 69.6269C488.865 71.4241 490.68 76.153 488.883 80.1892L475.217 110.884C473.42 114.92 468.691 116.735 464.655 114.938L460.314 113.006C459.243 112.529 458.329 111.843 457.597 111.021C456.489 111.027 455.368 110.803 454.306 110.331L449.351 108.125C448.209 107.616 447.244 106.872 446.489 105.975C445.318 106.014 444.12 105.796 442.978 105.287L438.154 103.139C434.408 101.471 432.576 97.2778 433.769 93.4563C431.728 96.8999 427.387 98.3455 423.641 96.6778L418.817 94.5301C417.624 93.9987 416.626 93.2091 415.857 92.2587C413.492 92.1877 411.22 91.5677 409.165 90.6529C406.419 89.4301 403.804 87.5676 401.971 84.8758C398.744 85.3327 395.613 84.619 392.91 83.4154C390.204 82.2108 387.602 80.3739 385.778 77.7077C382.575 78.1445 379.47 77.4317 376.786 76.2368C375.002 75.4423 373.263 74.3723 371.762 72.9715C370.772 72.9276 369.788 72.7009 368.862 72.2887L363.995 70.1215C362.614 69.5067 361.485 68.5408 360.674 67.3701C359.262 67.5509 357.789 67.3588 356.409 66.7441L351.98 64.7724C349.84 63.8196 348.225 61.9761 347.561 59.7296C346.898 57.4831 347.252 55.0587 348.531 53.0962L367.109 24.5872L367.316 24.285C369.518 21.2196 373.587 20.0988 377.065 21.6475L384.125 24.7906C385.967 25.6107 387.361 27.0557 388.148 28.7805C391.379 28.3105 394.525 28.9999 397.273 30.2232C399.971 31.4244 402.569 33.2676 404.373 35.9437C407.569 35.5028 410.678 36.1915 413.396 37.4018C416.114 38.6119 418.73 40.4735 420.536 43.1814C423.756 42.7293 426.893 43.4108 429.652 44.6393ZM419.078 83.6346C418.965 83.6902 418.851 83.7431 418.735 83.7921C418.967 83.694 419.193 83.5825 419.413 83.4579L419.078 83.6346ZM420.664 82.5502C420.566 82.6391 420.466 82.7249 420.365 82.8071L420.665 82.5506C420.763 82.4618 420.86 82.3691 420.955 82.2736L420.664 82.5502ZM407.649 75.0924C407.676 74.9513 407.707 74.8093 407.741 74.666C407.707 74.8093 407.676 74.9513 407.649 75.0924ZM380.594 63.0809C380.61 63.1177 380.63 63.152 380.647 63.1878C380.63 63.1523 380.61 63.1178 380.595 63.0813C380.58 63.0415 380.566 63.0007 380.553 62.959C380.566 63.0005 380.579 63.0413 380.594 63.0809ZM391.523 67.8548C391.514 67.8993 391.507 67.9441 391.499 67.9884C391.515 67.9068 391.531 67.8247 391.549 67.7422L391.523 67.8548ZM407.867 74.1751C407.856 74.2135 407.847 74.2522 407.836 74.2905C407.861 74.1994 407.888 74.108 407.916 74.0159C407.9 74.0693 407.883 74.122 407.867 74.1751ZM408.002 73.7327C407.986 73.7835 407.972 73.8347 407.956 73.8852C407.984 73.794 408.013 73.7022 408.044 73.6102C408.03 73.6512 408.016 73.6919 408.002 73.7327ZM408.181 73.2242C408.154 73.2969 408.128 73.3697 408.103 73.4419C408.128 73.3697 408.154 73.2969 408.181 73.2242ZM408.334 72.8286C408.318 72.8683 408.303 72.9084 408.288 72.9479C408.307 72.8987 408.326 72.8491 408.346 72.7997L408.334 72.8286ZM433.981 73.4516L433.982 73.452L438.609 63.0595L438.608 63.0591L433.981 73.4516ZM399.919 48.3875C399.863 48.4954 399.807 48.6046 399.752 48.7163C399.807 48.6046 399.863 48.4954 399.919 48.3875ZM400.173 47.918C400.101 48.0445 400.03 48.1741 399.96 48.3065C400.03 48.1744 400.101 48.0451 400.173 47.9189L400.173 47.918ZM416.359 54.9981C416.279 55.1339 416.2 55.2733 416.123 55.4161C416.2 55.2733 416.279 55.1339 416.359 54.9981ZM417.17 53.8041C416.994 54.0275 416.824 54.2645 416.659 54.5151C416.824 54.2645 416.994 54.0276 417.17 53.8041ZM390.364 41.757C390.256 41.783 390.149 41.8164 390.044 41.857L390.045 41.8574C390.203 41.7967 390.363 41.7524 390.526 41.7244L390.364 41.757ZM417.302 53.6404C417.28 53.667 417.259 53.6945 417.237 53.7216C417.301 53.6415 417.367 53.5636 417.433 53.4872C417.39 53.5379 417.345 53.5883 417.302 53.6404ZM417.825 53.0618C417.74 53.1469 417.656 53.2347 417.574 53.3253C417.558 53.3424 417.543 53.3603 417.528 53.3776C417.625 53.2687 417.724 53.163 417.825 53.0618ZM430.814 56.0616C430.811 56.0522 430.807 56.0426 430.804 56.0332C430.796 56.0158 430.788 55.9987 430.781 55.9813C430.792 56.008 430.803 56.0347 430.814 56.0616ZM430.679 55.7542C430.663 55.7202 430.647 55.6861 430.63 55.6523C430.647 55.6861 430.663 55.7202 430.679 55.7542ZM407.815 74.3707C407.788 74.4696 407.764 74.568 407.741 74.666C407.764 74.5681 407.788 74.4696 407.815 74.3707ZM418.145 52.7585C418.036 52.8555 417.93 52.9566 417.825 53.0618C417.929 52.9564 418.036 52.8555 418.145 52.7585Z" fill="#FFD900"/>
</g>
<path d="M372.116 64.9802L367.248 62.8131L368.895 56.8732L362.975 54.2376L359.662 59.4356L355.233 57.4637L373.811 28.9552L380.871 32.0985L372.116 64.9802ZM365.444 50.3451L370.092 52.4146L374.679 35.8569L365.444 50.3451ZM392.483 60.3348L390.668 64.4129C389.561 66.8977 388.095 68.5392 386.268 69.3373C384.484 70.1191 382.408 69.9829 380.04 68.9287C377.672 67.8744 376.167 66.4162 375.525 64.554C374.925 62.6757 375.178 60.494 376.285 58.0092L383.391 42.0477C384.498 39.5629 385.943 37.9295 387.727 37.1477C389.554 36.3496 391.651 36.4777 394.019 37.5319C396.387 38.5862 397.871 40.0525 398.47 41.9309C399.113 43.793 398.88 45.9665 397.774 48.4514L396.446 51.4332L391.886 49.4028L393.35 46.114C393.845 45.0031 393.956 44.1243 393.683 43.4776C393.453 42.8146 392.958 42.3139 392.198 41.9755C391.438 41.6371 390.72 41.5977 390.044 41.8571C389.41 42.1004 388.846 42.7775 388.351 43.8883L380.972 60.4637C380.477 61.5746 380.351 62.4469 380.595 63.0806C380.867 63.7274 381.383 64.22 382.143 64.5584C382.904 64.8968 383.6 64.9443 384.234 64.7011C384.897 64.4708 385.476 63.8003 385.97 62.6894L387.923 58.3044L392.483 60.3348ZM408.607 67.5134L406.791 71.5915C405.685 74.0764 404.218 75.7178 402.392 76.5159C400.608 77.2978 398.531 77.1616 396.164 76.1073C393.796 75.053 392.291 73.5948 391.649 71.7327C391.049 69.8543 391.302 67.6727 392.408 65.1878L399.515 49.2264C400.621 46.7415 402.066 45.1082 403.851 44.3263C405.677 43.5282 407.774 43.6563 410.142 44.7106C412.51 45.7648 413.994 47.2312 414.594 49.1095C415.236 50.9717 415.004 53.1452 413.898 55.63L412.57 58.6119L408.01 56.5814L409.474 53.2927C409.968 52.1818 410.079 51.303 409.807 50.6562C409.577 49.9933 409.082 49.4926 408.321 49.1542C407.561 48.8158 406.843 48.7763 406.167 49.0358C405.534 49.2791 404.97 49.9561 404.475 51.067L397.095 67.6424C396.6 68.7532 396.475 69.6255 396.718 70.2593C396.991 70.906 397.507 71.3986 398.267 71.737C399.027 72.0754 399.724 72.123 400.358 71.8797C401.021 71.6495 401.599 70.9789 402.094 69.868L404.046 65.483L408.607 67.5134ZM413.219 74.821C412.724 75.9319 412.592 76.8188 412.822 77.4818C413.095 78.1285 413.611 78.6211 414.371 78.9595C415.131 79.2979 415.828 79.3455 416.462 79.1022C417.138 78.8427 417.723 78.1575 418.218 77.0467L425.597 60.4713C426.092 59.3604 426.203 58.4816 425.93 57.8349C425.7 57.1719 425.205 56.6712 424.445 56.3328C423.685 55.9944 422.967 55.9549 422.291 56.2144C421.657 56.4577 421.093 57.1348 420.598 58.2456L413.219 74.821ZM415.638 56.405C416.745 53.9202 418.219 52.2998 420.062 51.544C421.918 50.7589 424.029 50.8935 426.397 51.9478C428.765 53.0021 430.278 54.4814 430.937 56.3858C431.608 58.261 431.391 60.441 430.284 62.9258L423.178 78.8873C422.071 81.3721 420.59 83.0071 418.735 83.7922C416.892 84.548 414.787 84.3988 412.419 83.3445C410.051 82.2903 408.531 80.8255 407.86 78.9504C407.201 77.046 407.425 74.8513 408.532 72.3665L415.638 56.405ZM442.841 59.6893C445.267 60.7695 446.779 62.2131 447.375 64.02C448.001 65.8399 447.761 67.9923 446.655 70.4772L444.878 74.4675C443.772 76.9524 442.333 78.5711 440.562 79.3238C438.82 80.0894 436.736 79.9321 434.309 78.8518L432.029 77.8366L426.894 89.3692L422.071 87.2216L435.737 56.5265L442.841 59.6893ZM438.608 63.0591L433.981 73.4516L436.261 74.4668C437.022 74.8052 437.697 74.8609 438.289 74.6338C438.88 74.4067 439.423 73.7378 439.918 72.6269L441.968 68.0226C442.462 66.9118 442.596 66.0606 442.369 65.4691C442.142 64.8776 441.649 64.4127 440.888 64.0743L438.608 63.0591ZM450.031 62.8906L464.94 69.5286L462.988 73.9136L457.945 71.6684L446.231 97.9785L441.408 95.8309L453.122 69.5208L448.079 67.2756L450.031 62.8906ZM457.56 103.022L452.605 100.816L466.271 70.1211L470.569 72.0344L462.388 90.4076L475.524 74.2406L481.575 76.9348L467.909 107.63L463.567 105.697L473.466 83.4651L457.56 103.022Z" fill="#1C1456"/>
<defs>
<filter id="filter0_ii_2085_19539" x="343.234" y="16.9548" width="150.343" height="102.677" filterUnits="userSpaceOnUse" color-interpolation-filters="sRGB">
<feFlood flood-opacity="0" result="BackgroundImageFix"/>
<feBlend mode="normal" in="SourceGraphic" in2="BackgroundImageFix" result="shape"/>
<feColorMatrix in="SourceAlpha" type="matrix" values="0 0 0 0 0 0 0 0 0 0 0 0 0 0 0 0 0 0 127 0" result="hardAlpha"/>
<feOffset dx="4" dy="4"/>
<feGaussianBlur stdDeviation="2"/>
<feComposite in2="hardAlpha" operator="arithmetic" k2="-1" k3="1"/>
<feColorMatrix type="matrix" values="0 0 0 0 1 0 0 0 0 0.952314 0 0 0 0 0.68 0 0 0 1 0"/>
<feBlend mode="normal" in2="shape" result="effect1_innerShadow_2085_19539"/>
<feColorMatrix in="SourceAlpha" type="matrix" values="0 0 0 0 0 0 0 0 0 0 0 0 0 0 0 0 0 0 127 0" result="hardAlpha"/>
<feOffset dx="-4" dy="-4"/>
<feGaussianBlur stdDeviation="2"/>
<feComposite in2="hardAlpha" operator="arithmetic" k2="-1" k3="1"/>
<feColorMatrix type="matrix" values="0 0 0 0 0.9 0 0 0 0 0.675 0 0 0 0 0 0 0 0 1 0"/>
<feBlend mode="normal" in2="effect1_innerShadow_2085_19539" result="effect2_innerShadow_2085_19539"/>
</filter>
</defs>
</svg>
