<svg width="600" height="599" viewBox="0 0 600 599" fill="none" xmlns="http://www.w3.org/2000/svg">
<g filter="url(#filter0_ii_2085_22344)">
<path d="M169.739 479C171.512 478.211 173.463 477.64 175.499 477.468C176.183 476.771 177.005 476.187 177.951 475.765L192.86 469.127C193.084 469.028 193.312 468.94 193.54 468.862C193.75 468.745 193.967 468.635 194.191 468.535L198.489 466.621C199.359 466.234 200.263 466.015 201.161 465.95C201.814 465.323 202.581 464.8 203.444 464.415L209.495 461.721C209.942 461.522 210.398 461.37 210.857 461.258C211.248 460.992 211.666 460.754 212.113 460.555L216.937 458.408C218.086 457.896 219.29 457.678 220.467 457.72C221.234 456.807 222.208 456.061 223.339 455.557L228.074 453.449C230.597 452.326 233.521 452.583 235.809 454.129C238.097 455.676 239.425 458.293 239.323 461.053L238.835 474.192L250.6 485.744C252.489 487.599 253.338 490.268 252.868 492.874C252.397 495.479 250.667 497.684 248.248 498.76L243.294 500.967C242.202 501.452 241.043 501.676 239.897 501.656C239.154 502.513 238.216 503.227 237.111 503.719L232.287 505.867C231.84 506.066 231.384 506.218 230.924 506.33C230.534 506.596 230.116 506.834 229.669 507.033L225.328 508.965C224.256 509.442 223.136 509.662 222.035 509.656C221.298 510.484 220.381 511.168 219.32 511.64L214.365 513.846C213.222 514.355 212.024 514.574 210.852 514.535C210.097 515.431 209.134 516.175 207.992 516.684L203.168 518.832C201.292 519.667 199.267 519.721 197.456 519.135C195.633 521.906 192.97 523.792 190.226 525.014C186.504 526.671 182.023 527.384 177.578 525.499C177.521 525.475 177.465 525.451 177.409 525.426C173.242 523.545 170.637 520.038 169.037 516.443L161.93 500.482C160.335 496.899 159.453 492.588 160.904 488.21L160.907 488.203C162.443 483.584 165.97 480.679 169.739 479ZM184.833 518.427L184.834 518.426L184.833 518.427ZM186.637 511.76C186.623 511.798 186.604 511.833 186.588 511.869C186.604 511.832 186.624 511.797 186.638 511.76C186.647 511.74 186.653 511.718 186.66 511.698C186.653 511.718 186.646 511.74 186.637 511.76ZM183.157 487.459L183.158 487.458L181.206 483.073L181.205 483.074L183.157 487.459ZM175.078 490.636C174.888 490.72 174.714 490.815 174.555 490.921L174.805 490.77C174.892 490.722 174.983 490.678 175.078 490.636Z" fill="#FFD900"/>
</g>
<path d="M188.912 502.708L190.728 506.786C191.834 509.271 192.073 511.459 191.444 513.35C190.831 515.199 189.341 516.651 186.973 517.705C184.605 518.76 182.514 518.902 180.701 518.134C178.903 517.322 177.451 515.674 176.345 513.19L169.239 497.228C168.132 494.743 167.886 492.576 168.498 490.727C169.127 488.836 170.626 487.363 172.994 486.309C175.362 485.254 177.444 485.133 179.242 485.944C181.055 486.713 182.515 488.34 183.621 490.824L184.949 493.806L180.389 495.837L178.924 492.548C178.43 491.437 177.851 490.767 177.188 490.536C176.541 490.264 175.838 490.297 175.078 490.635C174.318 490.974 173.808 491.481 173.548 492.157C173.305 492.79 173.431 493.663 173.925 494.774L181.305 511.349C181.8 512.46 182.364 513.137 182.998 513.38C183.661 513.61 184.372 513.556 185.132 513.218C185.892 512.88 186.394 512.394 186.637 511.76C186.91 511.113 186.799 510.234 186.304 509.123L184.352 504.738L188.912 502.708ZM181.205 483.073L196.114 476.435L198.067 480.82L193.024 483.065L204.738 509.376L199.914 511.523L188.2 485.213L183.158 487.458L181.205 483.073ZM216.067 504.332L211.112 506.538L197.445 475.843L201.742 473.929L209.923 492.303L206.698 471.723L212.749 469.029L226.415 499.724L222.074 501.657L212.176 479.425L216.067 504.332ZM229.901 483.513L229.66 486.983L233.857 496.411L229.034 498.558L215.367 467.863L220.191 465.716L226.145 479.09L226.593 462.865L231.329 460.757L230.711 477.425L244.995 491.452L240.04 493.658L229.901 483.513Z" fill="#1C1456"/>
<defs>
<filter id="filter0_ii_2085_22344" x="156.168" y="448.757" width="100.827" height="81.8645" filterUnits="userSpaceOnUse" color-interpolation-filters="sRGB">
<feFlood flood-opacity="0" result="BackgroundImageFix"/>
<feBlend mode="normal" in="SourceGraphic" in2="BackgroundImageFix" result="shape"/>
<feColorMatrix in="SourceAlpha" type="matrix" values="0 0 0 0 0 0 0 0 0 0 0 0 0 0 0 0 0 0 127 0" result="hardAlpha"/>
<feOffset dx="4" dy="4"/>
<feGaussianBlur stdDeviation="2"/>
<feComposite in2="hardAlpha" operator="arithmetic" k2="-1" k3="1"/>
<feColorMatrix type="matrix" values="0 0 0 0 1 0 0 0 0 0.952314 0 0 0 0 0.68 0 0 0 1 0"/>
<feBlend mode="normal" in2="shape" result="effect1_innerShadow_2085_22344"/>
<feColorMatrix in="SourceAlpha" type="matrix" values="0 0 0 0 0 0 0 0 0 0 0 0 0 0 0 0 0 0 127 0" result="hardAlpha"/>
<feOffset dx="-4" dy="-4"/>
<feGaussianBlur stdDeviation="2"/>
<feComposite in2="hardAlpha" operator="arithmetic" k2="-1" k3="1"/>
<feColorMatrix type="matrix" values="0 0 0 0 0.9 0 0 0 0 0.675 0 0 0 0 0 0 0 0 1 0"/>
<feBlend mode="normal" in2="effect1_innerShadow_2085_22344" result="effect2_innerShadow_2085_22344"/>
</filter>
</defs>
</svg>
