<svg width="599" height="599" viewBox="0 0 599 599" fill="none" xmlns="http://www.w3.org/2000/svg">
<g filter="url(#filter0_ii_2086_30081)">
<path d="M419.723 55.7894C420.188 55.8881 420.634 56.0276 421.059 56.1991C421.518 56.2154 421.982 56.2695 422.447 56.3683L427.236 57.3863C431.066 58.2005 433.666 61.6291 433.569 65.4066L436.548 66.0397C438.083 66.366 439.662 66.8735 441.165 67.6272C442.157 67.4483 443.199 67.4536 444.246 67.676L460.21 71.0692C460.45 71.1202 460.685 71.183 460.915 71.2541C461.154 71.2828 461.395 71.3211 461.635 71.3721L466.8 72.4699C469.407 73.0243 471.444 74.7917 472.449 77.0553C474.288 75.396 476.869 74.6103 479.476 75.1645L482.529 75.8134C484.159 72.7325 487.684 70.971 491.262 71.7313L502.625 74.1464C506.946 75.065 509.705 79.3132 508.787 83.6349L508.785 83.6406C509.985 85.3859 510.496 87.6004 510.02 89.8355L503.035 122.701C502.116 127.023 497.868 129.781 493.546 128.863L488.898 127.875C487.751 127.631 486.715 127.15 485.828 126.498C484.745 126.734 483.602 126.749 482.466 126.508L477.16 125.38C476.677 125.277 476.213 125.13 475.771 124.949C475.294 124.935 474.811 124.881 474.328 124.778L469.164 123.68C467.724 123.374 466.458 122.696 465.444 121.771C463.201 122.112 460.965 121.937 458.929 121.505L451.323 119.888C450.099 119.628 449.001 119.1 448.076 118.38C446.938 118.661 445.721 118.697 444.498 118.437L439.334 117.34C435.322 116.487 432.659 112.766 433.031 108.78C431.75 112.572 427.805 114.889 423.794 114.036L418.629 112.939C418.269 112.862 417.92 112.76 417.582 112.639C417.225 112.613 416.866 112.564 416.506 112.487L402.42 109.493C401.196 109.233 400.098 108.705 399.173 107.985C398.036 108.267 396.819 108.303 395.596 108.043L390.431 106.945C386.109 106.026 383.35 101.778 384.269 97.4565L388.675 76.7262C385.759 75.0389 384.119 71.6131 384.858 68.1384L385.856 63.4435C386.774 59.1219 391.023 56.3632 395.344 57.2816L405.886 59.5224C407.334 56.0321 411.105 53.9577 414.935 54.7716L419.723 55.7894ZM441.585 80.1961L441.586 80.1963L442.584 75.5014L442.583 75.5012L441.585 80.1961ZM488.781 83.4069L488.782 83.4071L489.6 79.5566L489.599 79.5564L488.781 83.4069Z" fill="#FFD900"/>
</g>
<path d="M393.681 65.1063L409.644 68.4994L408.646 73.1945L403.247 72.0468L397.259 100.217L392.095 99.1197L398.082 70.9491L392.683 69.8014L393.681 65.1063ZM413.29 83.7506L420.38 85.2576L419.382 89.9527L412.292 88.4458L410.246 98.0707L419.167 99.9669L418.169 104.662L404.084 101.668L411.069 68.8023L425.155 71.7962L424.157 76.4913L415.236 74.5952L413.29 83.7506ZM418.061 63.6145L417.043 68.4035L412.254 67.3856L413.272 62.5966L418.061 63.6145ZM425.573 65.2113L424.555 70.0003L419.766 68.9824L420.784 64.1934L425.573 65.2113ZM434.885 73.8644C437.483 74.4166 439.261 75.5144 440.22 77.1577C441.211 78.8078 441.424 80.963 440.858 83.6236L439.95 87.8962C439.384 90.5567 438.314 92.4392 436.738 93.5437C435.193 94.6548 433.121 94.9342 430.523 94.382L428.082 93.8631L425.457 106.211L420.293 105.113L427.279 72.2477L434.885 73.8644ZM431.445 78.0405L429.08 89.168L431.521 89.6869C432.335 89.8599 433.008 89.7738 433.539 89.4288C434.071 89.0837 434.463 88.3165 434.715 87.127L435.763 82.1972C436.016 81.0077 435.97 80.1474 435.625 79.616C435.28 79.0846 434.7 78.7325 433.887 78.5595L431.445 78.0405ZM442.583 75.5008L458.547 78.8939L457.549 83.5891L452.149 82.4414L446.162 110.612L440.997 109.514L446.985 81.3436L441.585 80.1959L442.583 75.5008ZM461.59 108.984C462.404 109.157 463.076 109.071 463.608 108.726C464.139 108.381 464.531 107.614 464.784 106.424L465.832 101.494C466.085 100.305 466.039 99.4447 465.694 98.9133C465.349 98.382 464.769 98.0298 463.955 97.8568L461.514 97.3379L459.149 108.465L461.59 108.984ZM452.986 112.063L459.972 79.1969L465.136 80.2946L462.512 92.6428L464.953 93.1617C467.551 93.7139 469.33 94.8117 470.289 96.4551C471.28 98.1051 471.492 100.26 470.927 102.921L470.019 107.193C469.453 109.854 468.382 111.737 466.806 112.841C465.261 113.952 463.19 114.232 460.592 113.679L452.986 112.063ZM477.813 82.9892L482.978 84.0869L475.992 116.953L470.827 115.855L477.813 82.9892ZM484.129 118.682L478.824 117.555L485.81 84.6888L490.411 85.6669L486.229 105.339L495.716 86.7946L502.196 88.1718L495.21 121.038L490.562 120.05L495.621 96.2453L484.129 118.682ZM500.962 81.9717L500.143 85.8217L488.781 83.4066L489.599 79.5566L500.962 81.9717Z" fill="#1C1456"/>
<defs>
<filter id="filter0_ii_2086_30081" x="380.093" y="50.5952" width="134.104" height="82.4441" filterUnits="userSpaceOnUse" color-interpolation-filters="sRGB">
<feFlood flood-opacity="0" result="BackgroundImageFix"/>
<feBlend mode="normal" in="SourceGraphic" in2="BackgroundImageFix" result="shape"/>
<feColorMatrix in="SourceAlpha" type="matrix" values="0 0 0 0 0 0 0 0 0 0 0 0 0 0 0 0 0 0 127 0" result="hardAlpha"/>
<feOffset dx="4" dy="4"/>
<feGaussianBlur stdDeviation="2"/>
<feComposite in2="hardAlpha" operator="arithmetic" k2="-1" k3="1"/>
<feColorMatrix type="matrix" values="0 0 0 0 1 0 0 0 0 0.952314 0 0 0 0 0.68 0 0 0 1 0"/>
<feBlend mode="normal" in2="shape" result="effect1_innerShadow_2086_30081"/>
<feColorMatrix in="SourceAlpha" type="matrix" values="0 0 0 0 0 0 0 0 0 0 0 0 0 0 0 0 0 0 127 0" result="hardAlpha"/>
<feOffset dx="-4" dy="-4"/>
<feGaussianBlur stdDeviation="2"/>
<feComposite in2="hardAlpha" operator="arithmetic" k2="-1" k3="1"/>
<feColorMatrix type="matrix" values="0 0 0 0 0.9 0 0 0 0 0.675 0 0 0 0 0 0 0 0 1 0"/>
<feBlend mode="normal" in2="effect1_innerShadow_2086_30081" result="effect2_innerShadow_2086_30081"/>
</filter>
</defs>
</svg>
