<svg width="599" height="600" viewBox="0 0 599 600" fill="none" xmlns="http://www.w3.org/2000/svg">
<g filter="url(#filter0_ii_2087_31499)">
<path d="M408.025 475.5C412.443 475.5 416.025 479.082 416.025 483.5V483.507C417.561 484.965 418.521 487.024 418.521 489.309L418.521 522.908C418.521 527.326 414.939 530.908 410.521 530.908H405.769C404.596 530.908 403.483 530.654 402.479 530.2C401.47 530.656 400.355 530.908 399.193 530.908H393.769C393.279 530.908 392.8 530.862 392.335 530.777C391.87 530.861 391.391 530.908 390.902 530.908H386.15C384.978 530.908 383.865 530.654 382.861 530.2C381.851 530.656 380.737 530.908 379.575 530.908H374.15C373.909 530.908 373.671 530.895 373.436 530.874C373.195 530.896 372.952 530.908 372.708 530.908H367.284C366.089 530.908 364.939 530.641 363.901 530.156C362.873 530.637 361.726 530.908 360.516 530.908H359.317C360.098 531.493 360.777 532.223 361.309 533.076C362.769 535.42 362.918 538.351 361.702 540.83L355.913 552.636L361.962 567.974C362.933 570.437 362.622 573.22 361.133 575.409C359.643 577.598 357.167 578.908 354.52 578.908H349.096C347.901 578.908 346.751 578.641 345.713 578.156C344.685 578.637 343.537 578.908 342.327 578.908H337.047C335.74 578.908 334.508 578.593 333.419 578.037C331.229 578.934 328.901 579.292 326.652 579.292C323.647 579.292 320.5 578.655 317.731 576.941C314.969 578.671 311.819 579.292 308.859 579.292C304.785 579.292 300.401 578.121 297.106 574.591C297.065 574.546 297.024 574.501 296.983 574.455C296.837 574.291 296.696 574.123 296.56 573.955C295.896 574.815 295.11 575.647 294.17 576.374C294.109 576.421 294.046 576.468 293.983 576.514C292.142 577.853 289.977 578.695 287.611 578.882L287.612 578.883C287.608 578.883 287.603 578.882 287.599 578.883C287.595 578.883 287.591 578.884 287.588 578.885L287.587 578.884C286.54 578.967 285.434 579.004 284.286 579.004H282.99C282.168 579.004 281.37 578.936 280.611 578.828C278.306 578.499 276.348 577.206 275.119 575.394C273.68 577.514 271.251 578.908 268.495 578.908H263.216C261.816 578.908 260.5 578.547 259.355 577.915C257.316 578.639 255.193 578.908 253.201 578.908H245.426C241.008 578.908 237.426 575.326 237.426 570.908V537.309C237.426 534.658 238.715 532.308 240.7 530.853C239.532 530.718 238.435 530.332 237.469 529.744C236.252 530.484 234.829 530.908 233.317 530.908H228.469C228.23 530.908 227.993 530.894 227.757 530.873C227.517 530.895 227.273 530.908 227.027 530.908H221.748C219.705 530.908 217.841 530.141 216.427 528.88C215.365 529.501 214.232 529.979 213.049 530.312C213.037 530.315 213.025 530.318 213.013 530.321C213.002 530.324 212.991 530.329 212.979 530.332L212.979 530.331C211.346 530.79 209.683 531.004 208.02 531.004H206.724C206.133 531.004 205.554 530.968 204.993 530.908H200.049C198.854 530.908 197.704 530.641 196.666 530.156C195.638 530.637 194.491 530.908 193.281 530.908H188.001C183.583 530.908 180.001 527.326 180.001 522.908L180.001 489.309C180.001 484.89 183.583 481.309 188.001 481.309H193.281C194.538 481.309 195.728 481.599 196.786 482.116C197.857 481.594 199.051 481.309 200.289 481.309H205.473C206.306 481.309 207.122 481.44 207.896 481.686C208.661 481.442 209.478 481.309 210.324 481.309H227.027C228.247 481.309 229.403 481.582 230.438 482.07C231.476 481.581 232.633 481.309 233.845 481.309H241.573L241.939 481.316C243.814 481.401 245.537 482.138 246.871 483.317C249.632 481.574 252.786 480.924 255.794 480.924C258.747 480.924 261.87 481.551 264.606 483.262C267.346 481.559 270.467 480.924 273.443 480.924C275.647 480.924 277.945 481.274 280.106 482.162C281.187 481.617 282.408 481.309 283.701 481.309H288.404C289.357 481.309 290.272 481.476 291.119 481.782C291.971 481.475 292.885 481.309 293.829 481.309H300.453C300.734 481.309 301.012 481.323 301.285 481.352C301.559 481.323 301.838 481.309 302.119 481.309H307.398C308.359 481.309 309.281 481.478 310.135 481.789C310.988 481.478 311.91 481.309 312.871 481.309H318.151C318.64 481.309 319.118 481.355 319.583 481.439C320.048 481.355 320.527 481.309 321.016 481.309H335.415C336.582 481.309 337.69 481.561 338.689 482.01C340.736 481.237 342.893 480.924 344.979 480.924C347.182 480.924 349.48 481.274 351.642 482.162C352.722 481.617 353.943 481.309 355.235 481.309H360.516C361.773 481.309 362.963 481.599 364.021 482.116C365.093 481.594 366.286 481.309 367.523 481.309H372.708C372.951 481.309 373.192 481.321 373.432 481.343C373.668 481.322 373.908 481.309 374.15 481.309H378.854C379.808 481.309 380.722 481.476 381.569 481.782C382.421 481.476 383.334 481.309 384.278 481.309H388.716C389.669 477.956 392.751 475.5 396.409 475.5H408.025ZM337.047 570.908H337.048V537.309H337.047V570.908ZM302.286 568.238C302.353 568.345 302.422 568.449 302.494 568.551L302.287 568.238C302.22 568.132 302.156 568.023 302.095 567.911L302.286 568.238ZM315.513 568.055C315.547 567.997 315.58 567.939 315.613 567.88C315.58 567.939 315.547 567.997 315.513 568.055ZM315.661 567.793C315.694 567.731 315.727 567.669 315.759 567.605C315.727 567.669 315.694 567.731 315.661 567.793ZM334.273 566.056C334.238 566.183 334.2 566.309 334.16 566.433C334.243 566.178 334.316 565.914 334.379 565.641L334.273 566.056ZM254.729 565.741C254.598 565.82 254.458 565.887 254.306 565.94L254.537 565.846C254.604 565.814 254.667 565.778 254.729 565.741ZM254.775 565.711C254.827 565.678 254.877 565.643 254.925 565.606C254.877 565.644 254.827 565.678 254.775 565.711ZM255.121 565.437C255.068 565.489 255.012 565.537 254.954 565.584C255.012 565.537 255.069 565.489 255.122 565.437C255.15 565.409 255.177 565.379 255.203 565.348C255.177 565.379 255.149 565.408 255.121 565.437ZM286.542 562.557C286.542 562.648 286.541 562.738 286.538 562.826C286.541 562.738 286.543 562.648 286.543 562.557L278.862 537.309L286.542 562.557ZM254.85 555.176C254.947 555.244 255.037 555.32 255.121 555.404C255.149 555.432 255.177 555.462 255.203 555.493C255.177 555.462 255.15 555.432 255.122 555.404C255.038 555.32 254.947 555.244 254.85 555.176ZM253.824 554.78L253.79 554.774C253.773 554.772 253.756 554.771 253.738 554.769C253.767 554.773 253.796 554.776 253.824 554.78ZM253.541 554.747C253.521 554.745 253.501 554.744 253.48 554.742C253.501 554.744 253.521 554.745 253.541 554.747ZM272.326 553.222H272.327C272.394 553.19 272.457 553.154 272.519 553.117C272.457 553.154 272.393 553.19 272.326 553.222ZM272.565 553.087C272.617 553.054 272.667 553.019 272.715 552.982C272.667 553.019 272.617 553.054 272.565 553.087ZM272.911 552.812C272.858 552.865 272.802 552.913 272.744 552.96C272.802 552.913 272.859 552.865 272.912 552.812C272.94 552.784 272.967 552.755 272.993 552.724C272.967 552.755 272.939 552.784 272.911 552.812ZM273.534 551.206C273.54 551.158 273.544 551.11 273.549 551.061C273.544 551.11 273.54 551.158 273.534 551.206ZM273.565 550.853C273.569 550.799 273.572 550.744 273.574 550.688C273.572 550.744 273.569 550.799 273.565 550.853ZM273.583 545.276V550.316C273.583 550.364 273.581 550.411 273.58 550.458C273.581 550.411 273.584 550.364 273.584 550.316V545.276C273.584 545.217 273.58 545.159 273.579 545.102C273.58 545.159 273.583 545.217 273.583 545.276ZM273.57 544.809C273.564 544.686 273.554 544.568 273.542 544.454C273.554 544.568 273.564 544.686 273.57 544.809ZM273.509 544.193C273.5 544.137 273.491 544.083 273.48 544.029C273.491 544.083 273.5 544.137 273.509 544.193ZM273.423 543.771C273.407 543.709 273.39 543.648 273.371 543.589C273.39 543.648 273.407 543.709 273.423 543.771ZM272.64 542.552C272.737 542.62 272.827 542.696 272.911 542.78C272.939 542.808 272.967 542.838 272.993 542.869C272.967 542.838 272.94 542.808 272.912 542.78C272.828 542.696 272.737 542.62 272.64 542.552ZM271.614 542.156L271.58 542.15C271.563 542.148 271.546 542.147 271.528 542.145C271.557 542.148 271.586 542.152 271.614 542.156ZM271.331 542.123C271.311 542.121 271.291 542.119 271.271 542.118C271.291 542.119 271.311 542.121 271.331 542.123ZM309.003 541.725C309.106 541.725 309.206 541.728 309.304 541.736C309.206 541.728 309.107 541.725 309.004 541.725H309.003ZM326.652 541.725C326.755 541.725 326.856 541.728 326.953 541.736C326.856 541.728 326.756 541.725 326.653 541.725H326.652ZM315.516 540.195C315.678 540.465 315.825 540.749 315.955 541.05L315.944 541.021C315.817 540.731 315.673 540.456 315.516 540.195ZM333.693 540.67C333.752 540.785 333.809 540.902 333.862 541.021C333.755 540.782 333.637 540.552 333.508 540.332L333.693 540.67ZM315.471 540.122C315.429 540.055 315.387 539.989 315.344 539.925C315.387 539.99 315.429 540.055 315.471 540.122ZM315.295 539.853C315.257 539.798 315.218 539.745 315.179 539.691C315.218 539.745 315.257 539.798 315.295 539.853ZM302.546 539.633C302.52 539.668 302.494 539.703 302.469 539.739C302.494 539.703 302.52 539.668 302.546 539.633ZM315.103 539.589C315.067 539.543 315.031 539.498 314.994 539.453C315.031 539.498 315.067 539.543 315.103 539.589ZM302.717 539.409C302.697 539.434 302.679 539.459 302.659 539.483C302.69 539.444 302.72 539.405 302.752 539.367C302.74 539.381 302.728 539.395 302.717 539.409ZM313.924 538.393C314.21 538.614 314.474 538.86 314.716 539.132C314.783 539.203 314.848 539.277 314.911 539.352C314.848 539.277 314.783 539.203 314.716 539.132C314.634 539.04 314.55 538.95 314.463 538.864C314.376 538.778 314.286 538.695 314.194 538.614C314.107 538.538 314.016 538.464 313.924 538.393ZM303.35 538.737C303.213 538.862 303.081 538.994 302.955 539.132C302.95 539.137 302.946 539.144 302.94 539.149C302.946 539.144 302.951 539.138 302.956 539.132C303.145 538.925 303.346 538.733 303.56 538.555L303.35 538.737ZM312.268 537.477C312.873 537.705 313.417 538.004 313.899 538.374C313.514 538.078 313.09 537.827 312.626 537.622C312.509 537.57 312.39 537.522 312.268 537.476V537.477ZM310.748 537.073L310.684 537.062C310.639 537.054 310.595 537.049 310.55 537.042C310.616 537.052 310.683 537.062 310.748 537.073ZM310.385 537.02C310.34 537.014 310.295 537.006 310.25 537.001C310.226 536.998 310.202 536.997 310.179 536.994C310.248 537.002 310.317 537.011 310.385 537.02ZM290.021 530.856C289.727 530.89 289.427 530.908 289.125 530.908H288.942C289.116 531.038 289.284 531.176 289.446 531.32C289.631 531.157 289.823 531.002 290.021 530.856ZM318.151 530.908H317.072C317.294 531.032 317.514 531.162 317.731 531.299C317.955 531.159 318.182 531.027 318.41 530.901C318.324 530.904 318.238 530.908 318.151 530.908ZM264.606 528.979C264.421 529.094 264.233 529.203 264.044 529.309H265.172C264.982 529.203 264.793 529.093 264.606 528.979ZM306.661 527.951C306.272 528.43 305.828 528.862 305.34 529.239C306.106 529.096 306.877 529.006 307.643 528.96C307.287 528.653 306.958 528.316 306.661 527.951ZM355.235 522.908H355.236L355.236 489.309H355.235L355.235 522.908ZM374.15 522.908H374.151L374.151 489.309H374.15L374.15 522.908ZM386.15 498.575L386.15 522.908L386.151 498.572L386.15 498.575ZM393.769 522.908H393.77L393.77 489.309H393.769L393.769 522.908ZM405.769 498.575L405.769 522.908L405.77 498.572L405.769 498.575ZM260.668 521.988C260.703 521.964 260.737 521.94 260.771 521.915C260.737 521.94 260.703 521.964 260.668 521.988ZM278.317 521.988C278.352 521.964 278.386 521.94 278.42 521.915C278.386 521.94 278.352 521.964 278.317 521.988ZM261.005 521.735C261.033 521.713 261.062 521.69 261.09 521.667C261.062 521.69 261.033 521.713 261.005 521.735ZM278.654 521.735C278.683 521.713 278.711 521.69 278.739 521.667C278.711 521.69 278.683 521.713 278.654 521.735ZM261.188 521.584C261.252 521.527 261.316 521.469 261.378 521.409C261.316 521.469 261.252 521.527 261.188 521.584ZM278.837 521.584C278.902 521.527 278.965 521.469 279.027 521.409C278.965 521.469 278.902 521.527 278.837 521.584ZM213.801 520.802C213.643 520.99 213.476 521.164 213.3 521.324C213.388 521.244 213.474 521.161 213.558 521.074C213.641 520.987 213.722 520.897 213.801 520.803V520.802ZM249.667 520.866C249.739 520.957 249.813 521.046 249.89 521.132H249.891C249.814 521.046 249.739 520.957 249.667 520.866ZM267.316 520.866C267.389 520.957 267.462 521.046 267.539 521.132H267.54C267.463 521.046 267.389 520.957 267.316 520.866ZM249.444 520.57C249.504 520.654 249.565 520.736 249.628 520.816C249.565 520.736 249.504 520.654 249.444 520.57ZM267.094 520.57C267.153 520.654 267.214 520.736 267.277 520.816C267.214 520.736 267.153 520.654 267.094 520.57ZM262.335 520.238C262.267 520.345 262.196 520.449 262.123 520.551L262.336 520.238C262.404 520.132 262.469 520.023 262.532 519.911L262.335 520.238ZM249.221 520.238C249.285 520.341 249.352 520.44 249.421 520.538C249.281 520.338 249.15 520.13 249.029 519.911L249.221 520.238ZM266.87 520.238C266.934 520.341 267.002 520.44 267.07 520.538C266.93 520.338 266.799 520.13 266.679 519.911L266.87 520.238ZM338.405 520.238C338.463 520.331 338.524 520.421 338.586 520.51C338.453 520.319 338.329 520.119 338.214 519.911L338.405 520.238ZM280.097 520.055C280.131 519.997 280.164 519.939 280.197 519.88C280.164 519.939 280.131 519.997 280.097 520.055ZM280.245 519.793C280.278 519.731 280.311 519.669 280.343 519.605C280.311 519.669 280.278 519.731 280.245 519.793ZM248.69 519.213C248.742 519.334 248.796 519.453 248.853 519.569L248.691 519.213C248.64 519.092 248.591 518.968 248.545 518.842L248.69 519.213ZM266.34 519.213C266.391 519.334 266.446 519.453 266.502 519.569L266.341 519.213C266.29 519.092 266.24 518.968 266.194 518.842L266.34 519.213ZM342.397 515.619C342.405 515.76 342.417 515.894 342.432 516.023L342.398 515.619C342.391 515.479 342.387 515.333 342.387 515.181L342.397 515.619ZM378.855 509.416V509.42L384.279 489.309H384.278L378.855 509.416ZM398.474 509.416V509.42L403.897 489.309H403.896L398.474 509.416ZM345.122 493.725C345.225 493.725 345.325 493.728 345.423 493.736C345.326 493.728 345.226 493.725 345.123 493.725H345.122ZM262.45 492.195C262.613 492.465 262.76 492.749 262.89 493.05L262.879 493.021C262.752 492.731 262.608 492.456 262.45 492.195ZM280.1 492.195C280.262 492.465 280.409 492.749 280.539 493.05L280.528 493.021C280.401 492.731 280.257 492.456 280.1 492.195ZM262.411 492.131C262.368 492.061 262.324 491.992 262.278 491.925C262.324 491.992 262.368 492.061 262.411 492.131ZM280.061 492.131C280.017 492.061 279.973 491.992 279.928 491.925C279.973 491.992 280.017 492.061 280.061 492.131ZM262.229 491.853C262.192 491.798 262.153 491.745 262.113 491.691C262.153 491.745 262.192 491.798 262.229 491.853ZM279.879 491.853C279.841 491.798 279.802 491.745 279.763 491.691C279.802 491.745 279.841 491.798 279.879 491.853ZM249.48 491.633C249.455 491.668 249.429 491.703 249.403 491.739C249.429 491.703 249.454 491.668 249.48 491.633ZM267.13 491.633C267.104 491.668 267.078 491.703 267.053 491.739C267.078 491.703 267.104 491.668 267.13 491.633ZM338.651 491.651C338.631 491.68 338.61 491.708 338.59 491.736C338.61 491.708 338.631 491.68 338.651 491.651ZM262.037 491.589C262.002 491.543 261.965 491.498 261.929 491.453C261.965 491.498 262.002 491.543 262.037 491.589ZM279.687 491.589C279.651 491.543 279.615 491.498 279.578 491.453C279.615 491.498 279.651 491.543 279.687 491.589ZM249.651 491.409C249.632 491.434 249.613 491.459 249.594 491.483C249.624 491.444 249.655 491.405 249.687 491.367C249.675 491.381 249.663 491.395 249.651 491.409ZM267.301 491.409C267.281 491.434 267.262 491.459 267.243 491.483C267.274 491.444 267.304 491.405 267.336 491.367C267.324 491.381 267.312 491.395 267.301 491.409ZM338.836 491.409C338.82 491.428 338.806 491.448 338.791 491.468C338.817 491.435 338.843 491.402 338.869 491.369C338.858 491.383 338.847 491.396 338.836 491.409ZM261.128 490.614C261.312 490.775 261.486 490.948 261.65 491.132C261.717 491.203 261.782 491.277 261.846 491.352C261.782 491.277 261.717 491.203 261.65 491.132C261.568 491.04 261.484 490.95 261.397 490.864C261.31 490.778 261.22 490.695 261.128 490.614ZM278.777 490.614C278.962 490.775 279.136 490.948 279.3 491.132C279.367 491.203 279.432 491.277 279.495 491.352C279.432 491.277 279.367 491.203 279.3 491.132C279.218 491.04 279.134 490.95 279.047 490.864C278.96 490.778 278.87 490.695 278.777 490.614ZM250.009 491.007C249.969 491.048 249.929 491.089 249.89 491.132C249.868 491.155 249.848 491.18 249.827 491.204C249.848 491.18 249.869 491.156 249.891 491.132C249.929 491.089 249.969 491.048 250.009 491.007ZM267.658 491.007C267.618 491.048 267.578 491.089 267.539 491.132C267.518 491.155 267.498 491.18 267.477 491.204C267.498 491.18 267.518 491.156 267.54 491.132C267.579 491.089 267.618 491.048 267.658 491.007ZM250.34 490.688C250.305 490.719 250.271 490.75 250.236 490.782C250.271 490.75 250.305 490.719 250.34 490.688ZM267.989 490.688C267.954 490.719 267.92 490.75 267.886 490.782C267.92 490.75 267.954 490.719 267.989 490.688ZM250.536 490.521C250.505 490.546 250.473 490.572 250.442 490.599C250.473 490.572 250.505 490.546 250.536 490.521ZM268.186 490.521C268.154 490.546 268.123 490.572 268.092 490.599C268.123 490.572 268.154 490.546 268.186 490.521ZM250.724 490.372C250.703 490.388 250.682 490.405 250.661 490.421C250.682 490.405 250.703 490.388 250.724 490.372ZM268.373 490.372C268.352 490.388 268.331 490.405 268.311 490.421C268.331 490.405 268.352 490.388 268.373 490.372ZM250.872 490.265C250.894 490.249 250.915 490.233 250.938 490.218C250.915 490.233 250.894 490.249 250.872 490.265ZM268.521 490.265C268.543 490.249 268.565 490.233 268.587 490.218C268.565 490.233 268.543 490.249 268.521 490.265ZM259.202 489.477C259.568 489.615 259.911 489.778 260.232 489.968L259.904 489.786C259.792 489.729 259.678 489.674 259.561 489.622C259.444 489.57 259.324 489.522 259.202 489.476V489.477ZM276.852 489.477C277.217 489.615 277.561 489.778 277.882 489.968L277.554 489.786C277.442 489.729 277.327 489.674 277.21 489.622C277.093 489.57 276.974 489.522 276.852 489.476V489.477ZM251.51 489.868C251.455 489.898 251.4 489.929 251.347 489.96C251.4 489.929 251.455 489.898 251.51 489.868ZM269.159 489.868C269.104 489.898 269.05 489.929 268.996 489.96C269.05 489.929 269.104 489.898 269.159 489.868ZM251.665 489.786C251.634 489.802 251.604 489.818 251.573 489.834C251.62 489.81 251.667 489.786 251.714 489.763C251.698 489.771 251.681 489.778 251.665 489.786ZM269.314 489.786C269.284 489.802 269.253 489.818 269.223 489.834C269.269 489.81 269.316 489.786 269.363 489.763C269.347 489.771 269.331 489.778 269.314 489.786ZM252.054 489.604C252.034 489.613 252.014 489.621 251.994 489.63C252.014 489.621 252.034 489.613 252.054 489.604ZM269.703 489.604C269.683 489.613 269.663 489.621 269.644 489.63C269.663 489.621 269.683 489.613 269.703 489.604ZM252.374 489.476C252.354 489.483 252.334 489.492 252.313 489.5C252.345 489.488 252.376 489.475 252.407 489.464C252.396 489.468 252.385 489.471 252.374 489.476ZM270.023 489.476C270.003 489.483 269.983 489.492 269.963 489.5C269.994 489.488 270.025 489.475 270.057 489.464C270.046 489.468 270.034 489.471 270.023 489.476ZM252.75 489.347C252.74 489.35 252.73 489.353 252.72 489.356C252.745 489.348 252.77 489.341 252.795 489.333L252.75 489.347ZM270.399 489.347C270.389 489.35 270.379 489.353 270.369 489.356C270.394 489.348 270.419 489.341 270.444 489.333L270.399 489.347ZM315.374 568.277L315.401 568.238C315.431 568.192 315.459 568.144 315.487 568.097C315.45 568.158 315.413 568.218 315.374 568.277ZM273.537 544.413C273.53 544.347 273.522 544.282 273.513 544.219C273.522 544.282 273.53 544.347 273.537 544.413ZM273.468 543.964C273.457 543.913 273.446 543.864 273.434 543.815C273.445 543.864 273.457 543.913 273.468 543.964ZM279.958 520.277L279.985 520.238C280.015 520.192 280.043 520.144 280.071 520.097C280.034 520.158 279.997 520.218 279.958 520.277ZM250.169 490.847C250.132 490.882 250.095 490.918 250.059 490.955C250.095 490.918 250.132 490.882 250.169 490.847ZM267.818 490.847C267.781 490.882 267.744 490.918 267.708 490.955C267.744 490.918 267.781 490.882 267.818 490.847ZM251.293 489.992C251.24 490.023 251.187 490.054 251.136 490.087C251.187 490.054 251.24 490.023 251.293 489.992ZM268.942 489.992C268.89 490.023 268.837 490.054 268.785 490.087C268.837 490.054 268.89 490.023 268.942 489.992Z" fill="#FFD900"/>
</g>
<path d="M194.913 509.516L193.281 512.588V522.908H188.001V489.308H193.281V503.948L200.289 489.308H205.473L198.129 504.284L205.473 522.908H200.049L194.913 509.516ZM221.748 494.108H215.604V514.556C215.604 516.252 215.396 517.644 214.98 518.732C214.564 519.82 214.004 520.684 213.3 521.324C212.596 521.932 211.78 522.364 210.852 522.62C209.956 522.876 209.012 523.004 208.02 523.004C207.54 523.004 207.108 523.004 206.724 523.004C206.34 523.004 205.924 522.972 205.476 522.908V518.108C205.764 518.14 206.068 518.156 206.388 518.156C206.708 518.156 207.012 518.156 207.3 518.156C208.132 518.156 208.836 517.948 209.412 517.532C210.02 517.116 210.324 516.252 210.324 514.94V489.308H227.028V522.908H221.748V494.108ZM246.949 522.908H241.621L240.709 516.812H234.229L233.317 522.908H228.469L233.845 489.308H241.573L246.949 522.908ZM234.901 512.252H239.989L237.445 495.26L234.901 512.252ZM263.666 510.38V514.844C263.666 517.564 262.994 519.66 261.65 521.132C260.338 522.572 258.386 523.292 255.794 523.292C253.202 523.292 251.234 522.572 249.89 521.132C248.578 519.66 247.922 517.564 247.922 514.844V497.372C247.922 494.652 248.578 492.572 249.89 491.132C251.234 489.66 253.202 488.924 255.794 488.924C258.386 488.924 260.338 489.66 261.65 491.132C262.994 492.572 263.666 494.652 263.666 497.372V500.636H258.674V497.036C258.674 495.82 258.418 494.972 257.906 494.492C257.426 493.98 256.77 493.724 255.938 493.724C255.106 493.724 254.434 493.98 253.922 494.492C253.442 494.972 253.202 495.82 253.202 497.036V515.18C253.202 516.396 253.442 517.244 253.922 517.724C254.434 518.204 255.106 518.444 255.938 518.444C256.77 518.444 257.426 518.204 257.906 517.724C258.418 517.244 258.674 516.396 258.674 515.18V510.38H263.666ZM281.316 510.38V514.844C281.316 517.564 280.644 519.66 279.3 521.132C277.988 522.572 276.036 523.292 273.444 523.292C270.852 523.292 268.884 522.572 267.54 521.132C266.228 519.66 265.572 517.564 265.572 514.844V497.372C265.572 494.652 266.228 492.572 267.54 491.132C268.884 489.66 270.852 488.924 273.444 488.924C276.036 488.924 277.988 489.66 279.3 491.132C280.644 492.572 281.316 494.652 281.316 497.372V500.636H276.324V497.036C276.324 495.82 276.068 494.972 275.556 494.492C275.076 493.98 274.42 493.724 273.588 493.724C272.756 493.724 272.084 493.98 271.572 494.492C271.092 494.972 270.852 495.82 270.852 497.036V515.18C270.852 516.396 271.092 517.244 271.572 517.724C272.084 518.204 272.756 518.444 273.588 518.444C274.42 518.444 275.076 518.204 275.556 517.724C276.068 517.244 276.324 516.396 276.324 515.18V510.38H281.316ZM289.125 522.908H283.701V489.308H288.405V509.42L293.829 489.308H300.453V522.908H295.701V498.572L289.125 522.908ZM307.399 489.308V502.268C307.399 503.484 307.639 504.332 308.119 504.812C308.631 505.292 309.303 505.532 310.135 505.532C310.935 505.532 311.575 505.324 312.055 504.908C312.535 504.46 312.807 503.708 312.871 502.652V489.308H318.151V522.908H312.871V509.996C312.423 510.156 311.959 510.268 311.479 510.332C311.031 510.364 310.535 510.38 309.991 510.38C307.399 510.38 305.431 509.66 304.087 508.22C302.775 506.748 302.119 504.652 302.119 501.932V489.308H307.399ZM326.295 503.468H333.543V508.268H326.295V518.108H335.415V522.908H321.015V489.308H335.415V494.108H326.295V503.468ZM352.851 510.38V514.844C352.851 517.564 352.179 519.66 350.835 521.132C349.523 522.572 347.571 523.292 344.979 523.292C342.387 523.292 340.419 522.572 339.075 521.132C337.763 519.66 337.107 517.564 337.107 514.844V497.372C337.107 494.652 337.763 492.572 339.075 491.132C340.419 489.66 342.387 488.924 344.979 488.924C347.571 488.924 349.523 489.66 350.835 491.132C352.179 492.572 352.851 494.652 352.851 497.372V500.636H347.859V497.036C347.859 495.82 347.603 494.972 347.091 494.492C346.611 493.98 345.955 493.724 345.123 493.724C344.291 493.724 343.619 493.98 343.107 494.492C342.627 494.972 342.387 495.82 342.387 497.036V515.18C342.387 516.396 342.627 517.244 343.107 517.724C343.619 518.204 344.291 518.444 345.123 518.444C345.955 518.444 346.611 518.204 347.091 517.724C347.603 517.244 347.859 516.396 347.859 515.18V510.38H352.851ZM362.148 509.516L360.516 512.588V522.908H355.236V489.308H360.516V503.948L367.524 489.308H372.708L365.364 504.284L372.708 522.908H367.284L362.148 509.516ZM379.575 522.908H374.151V489.308H378.855V509.42L384.279 489.308H390.903V522.908H386.151V498.572L379.575 522.908ZM399.193 522.908H393.769V489.308H398.473V509.42L403.897 489.308H410.521V522.908H405.769V498.572L399.193 522.908ZM408.025 483.5V487.436H396.409V483.5H408.025ZM250.706 549.932H253.202C255.858 549.932 257.826 550.636 259.106 552.044C260.418 553.452 261.074 555.516 261.074 558.236V562.604C261.074 565.324 260.418 567.388 259.106 568.796C257.826 570.204 255.858 570.908 253.202 570.908H245.426V537.308H259.394V542.108H250.706V549.932ZM253.202 566.108C254.034 566.108 254.674 565.884 255.122 565.436C255.57 564.988 255.794 564.156 255.794 562.94V557.9C255.794 556.684 255.57 555.852 255.122 555.404C254.674 554.956 254.034 554.732 253.202 554.732H250.706V566.108H253.202ZM270.992 537.308C273.648 537.308 275.616 538.012 276.896 539.42C278.208 540.828 278.864 542.892 278.864 545.612V549.98C278.864 552.7 278.208 554.764 276.896 556.172C275.616 557.58 273.648 558.284 270.992 558.284H268.496V570.908H263.216V537.308H270.992ZM268.496 542.108V553.484H270.992C271.824 553.484 272.464 553.26 272.912 552.812C273.36 552.364 273.584 551.532 273.584 550.316V545.276C273.584 544.06 273.36 543.228 272.912 542.78C272.464 542.332 271.824 542.108 270.992 542.108H268.496ZM281.743 566.108C282.031 566.14 282.335 566.156 282.655 566.156C282.975 566.156 283.279 566.156 283.567 566.156C283.983 566.156 284.367 566.108 284.719 566.012C285.103 565.916 285.423 565.74 285.679 565.484C285.967 565.228 286.175 564.86 286.303 564.38C286.463 563.9 286.543 563.292 286.543 562.556L278.863 537.308H284.143L289.951 556.988L294.751 537.308H300.031L293.119 562.076C292.511 564.38 291.887 566.156 291.247 567.404C290.639 568.62 289.983 569.5 289.279 570.044C288.575 570.556 287.807 570.844 286.975 570.908C286.175 570.972 285.279 571.004 284.287 571.004C283.807 571.004 283.375 571.004 282.991 571.004C282.607 571.004 282.191 570.972 281.743 570.908V566.108ZM316.732 558.38V562.844C316.732 565.564 316.06 567.66 314.716 569.132C313.404 570.572 311.452 571.292 308.86 571.292C306.268 571.292 304.3 570.572 302.956 569.132C301.644 567.66 300.988 565.564 300.988 562.844V545.372C300.988 542.652 301.644 540.572 302.956 539.132C304.3 537.66 306.268 536.924 308.86 536.924C311.452 536.924 313.404 537.66 314.716 539.132C316.06 540.572 316.732 542.652 316.732 545.372V548.636H311.74V545.036C311.74 543.82 311.484 542.972 310.972 542.492C310.492 541.98 309.836 541.724 309.004 541.724C308.172 541.724 307.5 541.98 306.988 542.492C306.508 542.972 306.268 543.82 306.268 545.036V563.18C306.268 564.396 306.508 565.244 306.988 565.724C307.5 566.204 308.172 566.444 309.004 566.444C309.836 566.444 310.492 566.204 310.972 565.724C311.484 565.244 311.74 564.396 311.74 563.18V558.38H316.732ZM323.917 563.18C323.917 564.396 324.157 565.26 324.637 565.772C325.149 566.252 325.821 566.492 326.653 566.492C327.485 566.492 328.141 566.252 328.621 565.772C329.133 565.26 329.389 564.396 329.389 563.18V545.036C329.389 543.82 329.133 542.972 328.621 542.492C328.141 541.98 327.485 541.724 326.653 541.724C325.821 541.724 325.149 541.98 324.637 542.492C324.157 542.972 323.917 543.82 323.917 545.036V563.18ZM318.637 545.372C318.637 542.652 319.325 540.572 320.701 539.132C322.077 537.66 324.061 536.924 326.653 536.924C329.245 536.924 331.229 537.66 332.605 539.132C333.981 540.572 334.669 542.652 334.669 545.372V562.844C334.669 565.564 333.981 567.66 332.605 569.132C331.229 570.572 329.245 571.292 326.653 571.292C324.061 571.292 322.077 570.572 320.701 569.132C319.325 567.66 318.637 565.564 318.637 562.844V545.372ZM343.96 557.516L342.328 560.588V570.908H337.048V537.308H342.328V551.948L349.336 537.308H354.52L347.176 552.284L354.52 570.908H349.096L343.96 557.516Z" fill="#1C1456"/>
<defs>
<filter id="filter0_ii_2087_31499" x="176.001" y="471.5" width="246.52" height="111.792" filterUnits="userSpaceOnUse" color-interpolation-filters="sRGB">
<feFlood flood-opacity="0" result="BackgroundImageFix"/>
<feBlend mode="normal" in="SourceGraphic" in2="BackgroundImageFix" result="shape"/>
<feColorMatrix in="SourceAlpha" type="matrix" values="0 0 0 0 0 0 0 0 0 0 0 0 0 0 0 0 0 0 127 0" result="hardAlpha"/>
<feOffset dx="4" dy="4"/>
<feGaussianBlur stdDeviation="2"/>
<feComposite in2="hardAlpha" operator="arithmetic" k2="-1" k3="1"/>
<feColorMatrix type="matrix" values="0 0 0 0 1 0 0 0 0 0.952314 0 0 0 0 0.68 0 0 0 1 0"/>
<feBlend mode="normal" in2="shape" result="effect1_innerShadow_2087_31499"/>
<feColorMatrix in="SourceAlpha" type="matrix" values="0 0 0 0 0 0 0 0 0 0 0 0 0 0 0 0 0 0 127 0" result="hardAlpha"/>
<feOffset dx="-4" dy="-4"/>
<feGaussianBlur stdDeviation="2"/>
<feComposite in2="hardAlpha" operator="arithmetic" k2="-1" k3="1"/>
<feColorMatrix type="matrix" values="0 0 0 0 0.9 0 0 0 0 0.675 0 0 0 0 0 0 0 0 1 0"/>
<feBlend mode="normal" in2="effect1_innerShadow_2087_31499" result="effect2_innerShadow_2087_31499"/>
</filter>
</defs>
</svg>
