<svg width="560" height="561" viewBox="0 0 560 561" fill="none" xmlns="http://www.w3.org/2000/svg">
    <path
        d="M280 80.2808C293.436 80.2808 305.722 83.5221 315.144 88.8688C316.85 89.8365 318.824 90.2301 320.77 89.9898C331.524 88.6619 344.111 90.3721 356.531 95.519C368.948 100.665 379.065 108.364 385.721 116.913C386.928 118.464 388.606 119.586 390.501 120.109C400.944 122.992 411.92 129.399 421.421 138.908C430.924 148.429 437.327 159.408 440.207 169.861C440.728 171.753 441.846 173.429 443.393 174.637C451.936 181.304 459.631 191.421 464.773 203.851C469.926 216.281 471.636 228.887 470.301 239.643C470.06 241.59 470.453 243.567 471.42 245.274C476.718 254.62 479.946 266.794 479.997 280.124C479.997 280.125 479.998 280.126 479.999 280.126V280.126C479.999 280.126 480 280.127 480 280.128C480 280.181 479.998 280.233 479.998 280.286C479.998 280.339 480 280.392 480 280.445C480 280.446 479.999 280.447 479.999 280.447V280.447C479.998 280.447 479.997 280.447 479.997 280.448C479.946 293.782 476.717 305.959 471.416 315.315C470.45 317.019 470.058 318.991 470.298 320.935C471.626 331.69 469.917 344.289 464.773 356.721C459.632 369.149 451.938 379.275 443.396 385.936C441.848 387.143 440.728 388.82 440.206 390.713C437.325 401.158 430.922 412.144 421.421 421.654C411.909 431.163 400.932 437.571 390.496 440.453C388.604 440.976 386.928 442.096 385.722 443.644C379.059 452.194 368.951 459.895 356.532 465.042C344.116 470.187 331.523 471.908 320.777 470.575C318.827 470.333 316.848 470.727 315.139 471.697C305.724 477.041 293.432 480.281 280 480.281C266.564 480.281 254.278 477.039 244.856 471.693C243.15 470.725 241.176 470.331 239.23 470.572C228.476 471.9 215.889 470.189 203.469 465.042C191.052 459.896 180.935 452.197 174.279 443.649C173.072 442.098 171.394 440.976 169.499 440.453C159.056 437.57 148.08 431.162 138.579 421.654C129.076 412.133 122.673 401.153 119.793 390.7C119.272 388.809 118.154 387.132 116.607 385.925C108.064 379.257 100.369 369.14 95.2266 356.71C90.0739 344.281 88.3639 331.674 89.6986 320.919C89.9403 318.971 89.5475 316.995 88.5797 315.287C83.2812 305.941 80.053 293.766 80.002 280.436C80.002 280.435 80.0015 280.435 80.001 280.435V280.435C80.0004 280.435 80 280.435 80 280.434C80 280.381 80.0009 280.328 80.001 280.275C80.0009 280.222 80 280.169 80 280.116C80 280.115 80.0007 280.115 80.0015 280.115V280.115C80.0023 280.115 80.0029 280.114 80.0029 280.113C80.0542 266.78 83.2832 254.602 88.5841 245.247C89.5495 243.543 89.942 241.57 89.702 239.626C88.3744 228.871 90.0832 216.272 95.2266 203.84C100.368 191.412 108.062 181.287 116.604 174.626C118.152 173.418 119.272 171.741 119.794 169.848C122.674 159.403 129.077 148.417 138.578 138.908C148.09 129.398 159.068 122.991 169.504 120.108C171.396 119.585 173.072 118.466 174.278 116.918C180.941 108.367 191.049 100.666 203.468 95.519C215.884 90.3734 228.477 88.6535 239.223 89.9862C241.173 90.2281 243.152 89.8343 244.861 88.8642C254.276 83.5203 266.568 80.2808 280 80.2808ZM94.4551 251.918C93.0556 261.029 92.3098 270.356 92.2676 279.849C92.2676 279.854 92.2722 279.859 92.2779 279.859V279.859C92.2835 279.859 92.2881 279.863 92.2881 279.869C92.2884 285.604 92.5449 291.279 93.0479 296.883C92.5682 291.414 92.3233 285.877 92.3232 280.284C92.3232 270.642 93.0516 261.169 94.4551 251.918Z"
        fill="#009EE3" />
    <path opacity="0.3"
        d="M280 40.2808C296.123 40.2808 310.866 44.1705 322.173 50.5866C324.22 51.7479 326.589 52.2201 328.925 51.9317C341.829 50.3382 356.934 52.3904 371.838 58.5669C386.738 64.7418 398.878 73.9807 406.865 84.2388C408.314 86.0998 410.327 87.446 412.601 88.0736C425.133 91.5332 438.304 99.223 449.705 110.633C461.109 122.059 468.793 135.234 472.248 147.778C472.874 150.048 474.216 152.059 476.072 153.508C486.324 161.51 495.557 173.65 501.729 188.565C507.912 203.48 509.964 218.608 508.362 231.515C508.072 233.852 508.543 236.223 509.705 238.272C516.062 249.488 519.934 264.097 519.996 280.092C519.996 280.093 519.997 280.094 519.998 280.095V280.095C519.999 280.095 520 280.096 520 280.097C520 280.161 519.998 280.224 519.998 280.288C519.998 280.351 520 280.415 520 280.479C520 280.479 519.999 280.48 519.999 280.48V280.48C519.998 280.48 519.997 280.481 519.997 280.481C519.936 296.482 516.06 311.095 509.699 322.322C508.541 324.367 508.07 326.733 508.358 329.066C509.951 341.972 507.901 357.091 501.729 372.009C495.558 386.923 486.326 399.074 476.076 407.067C474.217 408.516 472.873 410.529 472.247 412.8C468.791 425.334 461.108 438.517 449.706 449.928C438.292 461.339 425.119 469.028 412.596 472.488C410.325 473.115 408.314 474.458 406.866 476.316C398.871 486.577 386.741 495.818 371.838 501.994C356.938 508.168 341.827 510.233 328.933 508.634C326.593 508.344 324.217 508.816 322.166 509.98C310.869 516.393 296.119 520.281 280 520.281C263.877 520.281 249.134 516.391 237.827 509.975C235.78 508.814 233.411 508.341 231.075 508.63C218.171 510.223 203.066 508.17 188.162 501.994C173.262 495.819 161.122 486.58 153.135 476.322C151.686 474.461 149.673 473.115 147.399 472.487C134.867 469.027 121.696 461.338 110.295 449.928C98.8913 438.503 91.2072 425.327 87.7516 412.784C87.1262 410.514 85.7844 408.502 83.9282 407.053C73.6761 399.052 64.4425 386.911 58.2715 371.996C52.0885 357.08 50.0366 341.954 51.6382 329.047C51.9282 326.71 51.4568 324.338 50.2955 322.289C43.9374 311.074 40.0643 296.464 40.0029 280.468C40.0029 280.467 40.0023 280.466 40.0015 280.466V280.466C40.0007 280.466 40 280.466 40 280.465C40 280.401 40.0009 280.337 40.001 280.274C40.0009 280.21 40 280.147 40 280.083C40 280.082 40.0007 280.082 40.0015 280.082V280.082C40.0023 280.082 40.0029 280.081 40.0029 280.08C40.0644 264.08 43.9396 249.467 50.3007 238.24C51.4593 236.195 51.9302 233.828 51.6422 231.496C50.049 218.589 52.0995 203.47 58.2715 188.552C64.4418 173.639 73.6738 161.488 83.9243 153.495C85.7827 152.045 87.1267 150.033 87.7532 147.761C91.2094 135.228 98.8922 122.045 110.294 110.633C121.708 99.2223 134.881 91.5324 147.403 88.073C149.674 87.4458 151.685 86.1023 153.133 84.2444C161.128 73.9839 173.259 64.743 188.162 58.5669C203.062 52.3923 218.173 50.3283 231.067 51.9275C233.407 52.2177 235.783 51.7452 237.834 50.5811C249.131 44.1683 263.881 40.2808 280 40.2808ZM57.3359 246.311C55.6629 257.223 54.7723 268.393 54.7217 279.762C54.7217 279.769 54.7269 279.774 54.7334 279.774V279.774C54.7399 279.774 54.7451 279.779 54.7451 279.786C54.7455 286.651 55.0527 293.446 55.6533 300.155C55.0805 293.607 54.7881 286.98 54.7881 280.284C54.7881 268.736 55.6583 257.391 57.3359 246.311Z"
        fill="#009EE3" />
    <path opacity="0.15"
        d="M280 0.280762C298.811 0.280782 316.01 4.81894 329.202 12.3044C331.59 13.6592 334.354 14.2102 337.079 13.8737C352.134 12.0146 369.756 14.4088 387.145 21.6147C404.528 28.8189 418.691 39.5977 428.009 51.5656C429.699 53.7368 432.049 55.3073 434.701 56.0395C449.322 60.0757 464.688 69.0468 477.989 82.3589C491.293 95.6883 500.258 111.059 504.29 125.693C505.019 128.342 506.585 130.688 508.75 132.379C520.711 141.714 531.483 155.878 538.683 173.28C545.896 190.681 548.291 208.33 546.422 223.387C546.084 226.114 546.634 228.881 547.989 231.271C555.407 244.356 559.926 261.4 559.998 280.062C559.998 280.063 559.998 280.063 559.999 280.063V280.063C560 280.064 560 280.064 560 280.065C560 280.139 559.999 280.214 559.999 280.288C559.999 280.362 560 280.437 560 280.511C560 280.512 560 280.512 559.999 280.512V280.512C559.998 280.512 559.998 280.513 559.998 280.513C559.927 299.181 555.404 316.23 547.983 329.329C546.631 331.714 546.082 334.476 546.418 337.197C548.276 352.254 545.884 369.893 538.684 387.297C531.485 404.697 520.714 418.873 508.755 428.198C506.587 429.889 505.019 432.237 504.288 434.887C500.256 449.509 491.292 464.89 477.99 478.203C464.674 491.515 449.306 500.487 434.696 504.523C432.047 505.254 429.7 506.822 428.011 508.989C418.684 520.96 404.532 531.741 387.145 538.947C369.761 546.151 352.132 548.559 337.088 546.693C334.358 546.354 331.587 546.905 329.194 548.264C316.013 555.745 298.805 560.281 280 560.281C261.189 560.281 243.99 555.743 230.798 548.257C228.41 546.902 225.646 546.351 222.921 546.688C207.866 548.547 190.244 546.153 172.855 538.947C155.472 531.743 141.309 520.964 131.991 508.996C130.301 506.825 127.951 505.254 125.299 504.522C110.678 500.486 95.3109 491.515 82.0098 478.203C68.7058 464.873 59.7416 449.502 55.7102 434.868C54.9806 432.22 53.4152 429.873 51.2496 428.183C39.2888 418.848 28.516 404.683 21.3164 387.282C14.1028 369.88 11.7091 352.232 13.5777 337.174C13.916 334.448 13.3661 331.68 12.0112 329.29C4.59287 316.205 0.0723012 299.16 0.000978435 280.497C0.000977405 280.497 0.000758669 280.497 0.000489213 280.497V280.497C0.000219028 280.497 0 280.496 0 280.496V280.049C0 280.049 0.000438058 280.048 0.00097843 280.048V280.048C0.00151734 280.048 0.0019548 280.048 0.00195687 280.047C0.073501 261.38 4.59569 244.331 12.0173 231.233C13.369 228.847 13.9183 226.086 13.5824 223.365C11.7237 208.307 14.1157 190.669 21.3164 173.264C28.5151 155.865 39.2861 141.689 51.2451 132.363C53.4131 130.672 54.9812 128.325 55.7121 125.674C59.7444 111.052 68.7078 95.6719 82.0098 82.3589C95.3258 69.0461 110.694 60.0747 125.304 56.0389C127.953 55.3072 130.3 53.7397 131.989 51.5721C141.316 39.6015 155.468 28.8202 172.855 21.6147C190.239 14.4109 207.868 12.003 222.912 13.8687C225.642 14.2074 228.413 13.6561 230.806 12.2979C243.987 4.81634 261.195 0.280762 280 0.280762ZM20.2266 240.642C18.274 253.375 17.2339 266.41 17.1749 279.676C17.1748 279.684 17.1812 279.69 17.189 279.69V279.69C17.1968 279.69 17.2031 279.696 17.2031 279.704C17.2035 287.753 17.5659 295.718 18.2734 303.583C17.5985 295.906 17.2529 288.135 17.2529 280.284C17.2529 266.809 18.2686 253.571 20.2266 240.642Z"
        fill="#009EE3" />
</svg>