<svg width="599" height="599" viewBox="0 0 599 599" fill="none" xmlns="http://www.w3.org/2000/svg">
<circle cx="300.136" cy="299.014" r="190.288" fill="#009EE3"/>
<path d="M527.922 299.692C527.922 282.845 523.486 267.59 516.316 256.499C518.706 243.498 516.977 227.695 510.532 212.134C504.099 196.574 494.171 184.184 483.302 176.671C480.543 163.733 472.903 149.815 461.017 137.897C449.131 125.991 435.223 118.338 422.307 115.574C414.82 104.687 402.438 94.742 386.903 88.2987C371.369 81.8554 355.605 80.1236 342.613 82.5048C331.528 75.323 316.299 70.8789 299.493 70.8789C282.687 70.8789 267.445 75.323 256.372 82.5048C243.393 80.1109 227.617 81.8554 212.082 88.2987C196.548 94.742 184.179 104.687 176.678 115.574C163.775 118.338 149.868 125.991 137.969 137.897C126.083 149.803 118.443 163.733 115.684 176.658C104.815 184.158 94.8865 196.561 88.4541 212.122C82.0216 227.682 80.2927 243.472 82.6699 256.473C75.5001 267.577 71.0635 282.832 71.0635 299.679L85.0726 299.985C85.0726 181.37 181.064 85.2171 299.48 85.2171C417.896 85.2171 513.888 181.37 513.888 299.985L527.897 299.692H527.922Z" fill="#009EE3"/>
<path d="M527.922 299.308C527.922 316.155 523.486 331.41 516.316 342.501C518.706 355.502 516.977 371.305 510.532 386.865C504.099 402.426 494.171 414.816 483.302 422.329C480.543 435.266 472.903 449.184 461.017 461.103C449.131 473.009 435.223 480.662 422.307 483.425C414.82 494.313 402.438 504.258 386.903 510.701C371.369 517.144 355.605 518.876 342.613 516.495C331.528 523.677 316.299 528.121 299.493 528.121C282.687 528.121 267.445 523.677 256.372 516.495C243.393 518.889 227.617 517.144 212.082 510.701C196.548 504.258 184.179 494.313 176.678 483.425C163.775 480.662 149.868 473.009 137.969 461.103C126.083 449.197 118.443 435.266 115.684 422.342C104.815 414.841 94.8865 402.439 88.4541 386.878C82.0216 371.317 80.2927 355.528 82.6699 342.526C75.5001 331.423 71.0635 316.167 71.0635 299.321L85.0726 299.015C85.0726 417.63 181.064 513.783 299.48 513.783C417.896 513.783 513.888 417.63 513.888 299.015L527.897 299.308H527.922Z" fill="#009EE3"/>
</svg>
