<svg width="385" height="385" viewBox="0 0 385 385" xmlns="http://www.w3.org/2000/svg">
    <path
        d="M147.254 18.7452C172.248 -6.24837 212.771 -6.2484 237.764 18.7452L257.178 38.1592H283.023C318.369 38.1594 347.023 66.8132 347.023 102.159V128.004L365.772 146.753C390.765 171.746 390.765 212.269 365.772 237.263L347.023 256.012V283.19C347.023 318.537 318.369 347.19 283.023 347.19H255.844L237.764 365.271C212.771 390.264 172.248 390.265 147.254 365.272L129.173 347.19H101.993C66.6464 347.19 37.9927 318.537 37.9926 283.19V256.009L19.2465 237.263C-5.74681 212.269 -5.74695 171.746 19.2465 146.753L37.9926 128.007V102.159C37.9927 66.8131 66.6464 38.1592 101.993 38.1592H127.84L147.254 18.7452Z" />
</svg>