<svg width="384" height="384" viewBox="0 0 384 384" xmlns="http://www.w3.org/2000/svg">

    <path
        d="M51.5614 56.9098C87.3595 21.1119 151.056 15.4556 186.854 51.2536L190.828 55.2276L194.802 51.2536C230.6 15.4556 282.983 21.1119 318.781 56.9098L323.09 61.218C358.888 97.0161 364.545 149.4 328.747 185.198L324.773 189.172L328.747 193.146C364.545 228.944 364.545 286.984 328.747 322.782L324.439 327.09C288.641 362.888 236.257 368.545 200.459 332.747L196.485 328.773L192.511 332.747C156.713 368.545 98.6725 368.545 62.8744 332.747L58.5662 328.439C22.7683 292.641 17.1121 228.944 52.91 193.146L56.8841 189.172L52.91 185.198C17.112 149.4 11.4551 97.0161 47.2532 61.218L51.5614 56.9098Z" />

</svg>