<svg width="384" height="384" viewBox="0 0 384 384" xmlns="http://www.w3.org/2000/svg">
    <path
        d="M187.047 0C237.673 0.000130557 286.713 41.041 286.713 91.667V97.2871H292.333C342.959 97.2871 376 138.327 376 188.953V195.046C376 245.672 342.959 286.713 292.333 286.713H286.713V292.333C286.713 342.959 245.673 384 195.047 384H188.954C138.328 384 97.2871 350.959 97.2871 300.333V294.713H91.667C41.0409 294.713 6.4804e-06 253.672 0 203.046V196.953C0.000143783 146.327 41.041 97.2871 91.667 97.2871H97.2871V91.667C97.2871 41.0409 130.328 2.21294e-06 180.954 0H187.047Z" />
</svg>