<svg width="385" height="385" viewBox="0 0 385 385" xmlns="http://www.w3.org/2000/svg">
    <path
        d="M146.753 18.7452C171.746 -6.2484 212.269 -6.2484 237.263 18.7452L250.676 32.1583H282.522C317.869 32.1583 346.522 60.812 346.522 96.1583V128.005L365.27 146.753C390.264 171.747 390.264 212.269 365.27 237.263L346.522 256.011V277.19C346.522 312.536 317.868 341.19 282.522 341.19H261.344L237.263 365.271C212.269 390.264 171.746 390.264 146.753 365.271L122.672 341.19H101.492C66.1462 341.189 37.4924 312.535 37.4921 277.19V256.01L18.7451 237.263C-6.2483 212.269 -6.24841 171.747 18.7451 146.753L37.4921 128.006V96.1583C37.4921 60.8122 66.1461 32.1585 101.492 32.1583H133.34L146.753 18.7452Z" />
</svg>