<svg width="384" height="384" viewBox="0 0 384 384" xmlns="http://www.w3.org/2000/svg">
    <path
        d="M195.047 0C245.673 0.000128646 286.713 41.041 286.713 91.667V97.2871H292.333C342.959 97.2871 384 138.327 384 188.953V195.046C384 245.672 342.959 286.713 292.333 286.713H286.713V292.333C286.713 342.959 245.673 384 195.047 384H188.954C138.328 384 97.2871 342.959 97.2871 292.333V286.713H91.667C41.0409 286.713 6.4804e-06 245.672 0 195.046V188.953C0.000141872 138.327 41.041 97.2871 91.667 97.2871H97.2871V91.667C97.2871 41.0409 138.328 2.21294e-06 188.954 0H195.047Z" />
</svg>