<svg width="384" height="384" viewBox="0 0 384 384" xmlns="http://www.w3.org/2000/svg">
    <path
        d="M193.504 45.5947C233.39 5.70826 298.06 5.70827 337.946 45.5947C377.832 85.4812 377.831 150.15 337.945 190.036L335.983 191.997L337.946 193.961C377.832 233.847 377.832 298.516 337.946 338.402C298.06 378.289 233.391 378.289 193.505 338.402L191.541 336.439L189.579 338.402C149.692 378.289 85.0239 378.289 45.1375 338.402C5.25106 298.516 5.25101 233.847 45.1375 193.961L47.0994 191.998L45.1375 190.036C5.25098 150.15 5.251 85.4802 45.1375 45.5938C85.0239 5.70736 149.693 5.70731 189.58 45.5938L191.542 47.5557L193.504 45.5947Z" />
</svg>