<svg xmlns="http://www.w3.org/2000/svg" width="8" height="8" viewBox="0 0 8 8">
    <path
        d="M0.622803 0.622559C0.886298 0.359249 1.31333 0.359378 1.5769 0.622559L4.02515 3.0708L6.35034 0.745605C6.61395 0.482086 7.04184 0.481053 7.30542 0.744629C7.569 1.0082 7.56796 1.4361 7.30444 1.69971L4.97925 4.0249L7.30444 6.3501C7.56799 6.61364 7.56885 7.04156 7.30542 7.30518C7.04182 7.56878 6.61395 7.5678 6.35034 7.3042L4.02417 4.979L1.5769 7.42725C1.31329 7.69068 0.886351 7.69079 0.622803 7.42725C0.359254 7.1637 0.359365 6.73676 0.622803 6.47314L3.07007 4.0249L0.622803 1.57764C0.359199 1.31403 0.359199 0.886162 0.622803 0.622559Z" />
</svg>