<svg xmlns="http://www.w3.org/2000/svg" width="32" height="33" viewBox="0 0 32 33">
    <path
        d="M24 18.6929C24 23.2233 20.418 26.896 15.9995 26.896C11.581 26.896 8 23.2233 8 18.6929C8 16.0544 9.21431 13.708 11.1013 12.2072C11.1013 12.2072 11.1068 12.2035 11.1168 12.196C11.1204 12.1932 11.1259 12.1895 11.1314 12.1848C11.1559 12.1643 11.1796 12.1456 11.2042 12.1269C11.2078 12.1241 11.2106 12.1213 11.2142 12.1185C11.6894 11.7219 13.5036 9.942 13.5036 5.896C13.5036 5.896 16.7869 7.02626 18.2488 10.8184C18.6667 11.9039 18.9361 13.2077 18.9361 14.7655C18.9361 14.7655 20.5892 14.3352 20.5892 11.9739C22.6519 13.4569 24 15.9135 24 18.6929Z" />
</svg>