<svg xmlns="http://www.w3.org/2000/svg" width="16" height="16" viewBox="0 0 16 16">
    <path
        d="M8.00006 2.375C5.51476 2.375 3.5 4.35475 3.5 6.79688C3.5 7.88713 3.90338 8.8835 4.56908 9.6545L7.38457 12.9127C7.70901 13.2882 8.29111 13.2882 8.61553 12.9127L11.4309 9.65438C12.0966 8.8835 12.5 7.887 12.5 6.79675C12.5001 4.35475 10.4854 2.375 8.00006 2.375ZM8.00006 8.46313C6.97793 8.46313 6.14941 7.649 6.14941 6.64463C6.14941 5.64025 6.97793 4.82612 8.00006 4.82612C9.0222 4.82612 9.85072 5.64025 9.85072 6.64463C9.85072 7.649 9.0222 8.46313 8.00006 8.46313Z" />
</svg>