<svg xmlns="http://www.w3.org/2000/svg" width="17" height="17" viewBox="0 0 17 17">
    <path
        d="M13.6641 0.891205C14.2473 0.303042 15.1969 0.299274 15.7852 0.882416C16.3734 1.46575 16.3773 2.41528 15.7939 3.00351L10.4814 8.36093L15.7881 13.6676C16.3739 14.2534 16.3739 15.2039 15.7881 15.7896C15.2023 16.375 14.2527 16.3751 13.667 15.7896L8.36816 10.4908L3.12012 15.7848C2.53679 16.373 1.58628 16.3769 0.998047 15.7935C0.410177 15.2103 0.406235 14.2606 0.989258 13.6725L6.24707 8.36972L0.939453 3.06113C0.353667 2.47534 0.353667 1.52582 0.939453 0.940033C1.52525 0.354374 2.4748 0.354289 3.06055 0.940033L8.35938 6.23886L13.6641 0.891205Z" />
</svg>