<svg xmlns="http://www.w3.org/2000/svg" width="16" height="17" viewBox="0 0 16 17">
    <path
        d="M11.7413 9.74645H9.60276C9.1359 9.74645 8.72927 10.0246 8.54855 10.4156C7.38891 9.89683 6.44011 8.94946 5.92053 7.79157C6.31963 7.6036 6.59825 7.2051 6.59825 6.73142V4.6036C6.59825 3.95698 6.07114 3.43066 5.42355 3.43066H4.06812C3.72174 3.43066 3.39794 3.58856 3.17204 3.85172C3.00638 4.05472 2.91602 4.31788 2.91602 4.58104V5.6863C2.91602 6.22766 2.97626 6.77653 3.08921 7.31036C3.72174 10.2878 6.06361 12.6262 9.04553 13.2577C9.58017 13.3705 10.1299 13.4307 10.6796 13.4307H11.7639C12.0275 13.4307 12.2835 13.3404 12.4868 13.175C12.7579 12.957 12.916 12.6262 12.916 12.2803V10.9269C12.916 10.2803 12.3889 9.74645 11.7413 9.74645Z" />
</svg>