<svg width="28" height="28" viewBox="0 0 28 28" xmlns="http://www.w3.org/2000/svg">
    <path
        d="M22.3887 14C23.1682 14 23.559 13.0571 23.0078 12.5059L14.6201 4.11914C14.2784 3.77743 13.7245 3.77743 13.3828 4.11914L4.99512 12.5059C4.44398 13.057 4.83397 13.9997 5.61328 14L12.6875 14L12.6875 20.5635L6.13281 20.5635C5.40794 20.5635 4.82031 21.1511 4.82031 21.876C4.82045 22.6007 5.40802 23.1885 6.13281 23.1885L21.8828 23.1885C22.6075 23.1884 23.1952 22.6007 23.1953 21.876C23.1953 21.1511 22.6076 20.5635 21.8828 20.5635L15.3125 20.5635L15.3125 14L22.3887 14Z" />
</svg>