<svg xmlns="http://www.w3.org/2000/svg" width="1449" height="1449" viewBox="0 0 1449 1449" fill="none">
    <g filter="url(#filter0_f_601_2799)">
        <path
            d="M724.061 1348.14C765.981 1348.14 804.312 1338.03 833.711 1321.35C839.032 1318.33 845.193 1317.1 851.264 1317.85C884.817 1321.99 924.089 1316.66 962.84 1300.6C1001.58 1284.54 1033.14 1260.52 1053.91 1233.85C1057.68 1229.01 1062.91 1225.51 1068.82 1223.88C1101.41 1214.88 1135.65 1194.89 1165.29 1165.22C1194.94 1135.52 1214.92 1101.26 1223.91 1068.65C1225.53 1062.75 1229.02 1057.52 1233.85 1053.75C1260.5 1032.95 1284.51 1001.38 1300.55 962.602C1316.63 923.822 1321.97 884.491 1317.8 850.933C1317.05 844.857 1318.27 838.69 1321.29 833.364C1337.82 804.203 1347.9 766.218 1348.06 724.627C1348.06 724.626 1348.06 724.625 1348.06 724.625V724.625C1348.06 724.624 1348.06 724.623 1348.06 724.622C1348.06 724.456 1348.06 724.29 1348.06 724.125C1348.06 723.959 1348.06 723.793 1348.06 723.627C1348.06 723.626 1348.06 723.625 1348.06 723.625V723.625C1348.06 723.625 1348.06 723.624 1348.06 723.623C1347.9 682.02 1337.82 644.026 1321.28 614.834C1318.27 609.518 1317.04 603.364 1317.79 597.299C1321.93 563.743 1316.6 524.434 1300.55 485.646C1284.51 446.871 1260.51 415.28 1233.86 394.498C1229.03 390.73 1225.53 385.497 1223.9 379.591C1214.92 347.004 1194.94 312.728 1165.29 283.059C1135.62 253.39 1101.37 233.397 1068.81 224.403C1062.91 222.773 1057.68 219.28 1053.91 214.449C1033.13 187.772 1001.59 163.744 962.84 147.687C924.101 131.632 884.811 126.266 851.287 130.424C845.202 131.178 839.026 129.95 833.694 126.923C804.32 110.25 765.97 100.142 724.062 100.142C682.14 100.142 643.809 110.256 614.41 126.938C609.09 129.957 602.929 131.185 596.857 130.435C563.304 126.292 524.033 131.628 485.282 147.687C446.541 163.742 414.978 187.763 394.213 214.434C390.445 219.273 385.21 222.773 379.298 224.405C346.714 233.4 312.47 253.392 282.827 283.059C253.178 312.764 233.2 347.019 224.215 379.632C222.589 385.535 219.1 390.765 214.274 394.531C187.619 415.336 163.612 446.901 147.567 485.682C131.491 524.462 126.156 563.792 130.321 597.35C131.075 603.426 129.849 609.593 126.829 614.919C110.298 644.081 100.225 682.066 100.065 723.657C100.065 723.658 100.065 723.659 100.063 723.659V723.659C100.062 723.659 100.062 723.66 100.062 723.661C100.062 723.827 100.063 723.993 100.063 724.159C100.063 724.325 100.062 724.491 100.062 724.656C100.062 724.657 100.062 724.658 100.063 724.658V724.658C100.065 724.658 100.065 724.659 100.065 724.66C100.225 766.263 110.303 804.258 126.843 833.449C129.855 838.765 131.08 844.919 130.331 850.984C126.189 884.54 131.52 923.85 147.567 962.637C163.61 1001.41 187.613 1033 214.264 1053.79C219.096 1057.55 222.59 1062.79 224.219 1068.69C233.206 1101.28 253.182 1135.56 282.826 1165.22C312.502 1194.89 346.752 1214.89 379.311 1223.88C385.214 1225.51 390.444 1229 394.208 1233.83C414.995 1260.51 446.533 1284.54 485.281 1300.6C524.021 1316.65 563.31 1322.02 596.835 1317.86C602.92 1317.1 609.096 1318.33 614.428 1321.36C643.802 1338.03 682.152 1348.14 724.061 1348.14ZM145.153 812.58C140.792 784.17 138.47 755.088 138.338 725.488C138.338 725.471 138.352 725.457 138.369 725.458V725.458C138.386 725.458 138.399 725.444 138.399 725.427C138.4 707.544 139.202 689.849 140.77 672.374C139.275 689.428 138.511 706.692 138.511 724.134C138.511 754.199 140.78 783.735 145.153 812.58Z"
            fill="url(#paint0_linear_601_2799)" />
    </g>
    <defs>
        <filter id="filter0_f_601_2799" x="0.0615234" y="0.141602" width="1448" height="1448"
            filterUnits="userSpaceOnUse" color-interpolation-filters="sRGB">
            <feFlood flood-opacity="0" result="BackgroundImageFix" />
            <feBlend mode="normal" in="SourceGraphic" in2="BackgroundImageFix" result="shape" />
            <feGaussianBlur stdDeviation="50" result="effect1_foregroundBlur_601_2799" />
        </filter>
        <linearGradient id="paint0_linear_601_2799" x1="724.061" y1="1348.14" x2="724.061" y2="100.142"
            gradientUnits="userSpaceOnUse">
            <stop stop-color="white" />
            <stop offset="0.8" stop-color="#6AA338" />
        </linearGradient>
    </defs>
</svg>