<svg width="1440" height="1039" viewBox="0 0 1440 1039" fill="none" xmlns="http://www.w3.org/2000/svg">
<g clip-path="url(#clip0_601_2795)">
<path d="M107.195 613.537C107.195 613.537 136.046 587.639 158.87 584.429C181.694 581.218 189.216 602.707 171.906 611.182C154.596 619.658 142.201 615.249 111.683 618.031L107.195 613.537Z" fill="#6AA338"/>
<path d="M107.195 613.538C107.195 613.538 133.053 584.644 136.259 561.786C139.465 538.927 118.008 531.393 109.546 548.73C101.126 566.066 105.485 578.48 102.707 609.043L107.195 613.538Z" fill="#6AA338"/>
<path d="M116.086 607.119C116.086 607.119 137.456 679.846 113.521 721.796C89.586 763.703 46.4599 761.606 32.7827 724.793C19.1054 687.979 116.086 607.119 116.086 607.119Z" fill="#6AA338"/>
<path d="M116.086 607.117C116.086 607.117 176.309 657.714 176.309 709.381C176.309 752.144 125.062 747.05 124.762 701.119C124.421 647.526 116.086 607.117 116.086 607.117Z" fill="#6AA338"/>
<path d="M124.377 615.377C124.377 615.377 170.367 608.1 197.721 622.954C225.076 637.807 215.801 659.039 203.491 661.693C191.182 664.304 163.528 649.793 143.311 646.626C123.095 643.501 141.986 645.299 141.986 645.299L124.377 615.377Z" fill="#6AA338"/>
<path d="M172.633 668.632C172.633 668.632 218.751 708.142 219.734 767.942C220.332 804.627 209.519 828.598 203.706 841.654C200.543 848.717 192.123 852.099 186.054 848.803C181.053 846.063 179.471 839.728 182.335 833.992C190.114 818.368 203.877 786.777 204.903 757.326C206.356 716.147 192.208 696.499 172.633 668.675" fill="#6AA338"/>
<path d="M179.342 751.373C179.342 751.373 168.529 784.248 147.714 802.569C141.388 808.134 136.516 812.543 132.754 815.968C126.429 821.746 126.001 831.592 131.814 837.884C138.482 845.119 150.15 844.391 155.835 836.343C167.118 820.377 181.779 791.483 179.342 751.373Z" fill="#283D15"/>
<path d="M113.607 604.634C113.607 604.634 40.989 583.231 -0.897644 607.202C-42.7415 631.174 -40.6472 674.365 -3.88954 688.063C32.8681 701.761 113.607 604.634 113.607 604.634Z" fill="#6AA338"/>
<path d="M35.8599 731.555L82.4908 638.238L-10.6855 684.939C-10.6855 684.939 -22.2257 706.77 -4.10331 724.92C14.0191 743.07 35.8172 731.512 35.8172 731.512" fill="#6AA338"/>
<path d="M124.848 668.715C123.395 638.751 115.402 605.319 115.402 605.319C115.402 605.319 82.0209 597.357 52.1019 595.859C52.1019 595.859 18.6781 630.232 54.6236 666.19C90.5692 702.147 124.848 668.715 124.848 668.715Z" fill="#283D15"/>
<path d="M113.605 604.633C113.605 604.633 63.085 544.319 11.4961 544.319C-31.2026 544.319 -26.1164 595.644 19.7452 595.943C73.2575 596.286 113.605 604.633 113.605 604.633Z" fill="#6AA338"/>
<path d="M105.357 596.332C105.357 596.332 112.623 550.273 97.8341 522.877C83.0028 495.481 61.8031 504.77 59.1531 517.098C56.5031 529.426 71.0352 557.122 74.1981 577.369C77.3182 597.616 75.5231 578.696 75.5231 578.696L105.399 596.332H105.357Z" fill="#6AA338"/>
<path d="M52.1867 548C52.1867 548 12.7364 501.812 -46.9734 500.828C-83.6028 500.228 -107.538 511.058 -120.574 516.88C-127.626 520.048 -131.003 528.48 -127.712 534.559C-124.977 539.567 -118.651 541.151 -112.923 538.283C-97.3228 530.492 -65.7796 516.709 -36.3735 515.639C4.74373 514.183 24.362 528.352 52.144 547.957" fill="#6AA338"/>
<path d="M72.6168 675.522C75.1386 672.997 71.0781 664.863 63.5556 657.287C56.0331 649.753 47.8695 645.686 45.3478 648.212C42.826 650.737 46.8865 658.871 54.409 666.447C61.9315 673.981 70.0951 678.048 72.6168 675.522Z" fill="#16220C"/>
<path d="M292.052 691.103C296.155 681.429 291.71 670.256 282.05 666.147C272.391 662.038 261.235 666.49 257.132 676.164C253.029 685.838 257.517 697.01 267.134 701.12C276.793 705.229 287.949 700.734 292.052 691.103Z" fill="#283D15"/>
<path d="M274.57 657.5C271.279 657.5 267.988 658.142 264.868 659.383C258.414 661.995 253.328 666.96 250.592 673.381C247.857 679.802 247.771 686.908 250.379 693.371C252.986 699.835 257.944 704.929 264.355 707.669C277.562 713.319 292.949 707.155 298.591 693.928C304.233 680.701 298.078 665.334 284.871 659.64C281.58 658.228 278.118 657.543 274.656 657.543M274.656 695.597C273.117 695.597 271.493 695.298 269.997 694.656C267.091 693.414 264.783 691.06 263.629 688.106C262.432 685.153 262.475 681.899 263.714 678.946C266.278 672.91 273.331 670.042 279.357 672.653C285.384 675.222 288.205 682.285 285.64 688.32C283.717 692.858 279.272 695.555 274.656 695.555" fill="#283D15"/>
<path d="M29.7478 428.402C39.4074 424.293 50.5629 428.744 54.666 438.419C58.7692 448.093 54.3241 459.265 44.6646 463.374C35.005 467.484 23.8495 462.989 19.7463 453.358C15.6431 443.684 20.131 432.511 29.7478 428.402Z" fill="#283D15"/>
<path d="M37.1843 419.799C33.765 419.799 30.3029 420.484 26.9691 421.897C13.7193 427.547 7.56451 442.914 13.2064 456.184C15.9418 462.605 21.0281 467.571 27.482 470.182C33.936 472.793 41.031 472.707 47.4423 469.968C53.8535 467.228 58.8115 462.177 61.376 455.671C63.9832 449.207 63.8977 442.101 61.1623 435.68C56.9309 425.792 47.2713 419.842 37.1416 419.842M37.1416 457.897C35.6456 457.897 34.1497 457.597 32.6965 457.04C29.7473 455.842 27.4393 453.573 26.157 450.662C23.5925 444.584 26.4135 437.564 32.44 434.995C38.5093 432.427 45.5189 435.209 48.0834 441.288C49.3229 444.199 49.3656 447.452 48.1689 450.448C46.9721 453.402 44.7068 455.713 41.8004 456.998C40.3044 457.64 38.723 457.982 37.0988 457.982" fill="#283D15"/>
<path d="M904.281 791.18C900.349 781.42 889.321 776.712 879.576 780.607C869.831 784.502 865.13 795.589 869.019 805.349C872.909 815.109 883.979 819.817 893.724 815.922C903.469 812.027 908.17 800.94 904.281 791.18Z" fill="#283D15"/>
<path d="M886.586 772.133C883.338 772.133 880.09 772.732 876.884 774.016C863.549 779.367 857.052 794.606 862.395 807.961C867.737 821.317 882.953 827.823 896.289 822.473C902.743 819.862 907.829 814.896 910.564 808.475C913.3 802.054 913.385 794.948 910.778 788.485C906.675 778.297 896.887 772.09 886.544 772.09M886.586 810.145C881.842 810.145 877.354 807.319 875.516 802.653C874.32 799.7 874.362 796.447 875.602 793.536C876.841 790.582 879.149 788.313 882.141 787.158C888.21 784.718 895.177 787.671 897.656 793.793C898.853 796.746 898.81 800 897.571 802.953C896.331 805.864 894.023 808.133 891.031 809.331C889.578 809.931 888.082 810.187 886.586 810.187" fill="#283D15"/>
<path d="M533.328 791.18C537.217 781.42 548.287 776.712 558.033 780.607C567.778 784.502 572.479 795.589 568.59 805.349C564.7 815.109 553.63 819.817 543.885 815.922C534.14 812.027 529.438 800.94 533.328 791.18Z" fill="#283D15"/>
<path d="M550.98 772.133C547.518 772.133 544.056 772.818 540.722 774.23C534.311 776.97 529.353 782.064 526.788 788.527C521.445 801.883 527.942 817.122 541.278 822.473C554.613 827.823 569.829 821.317 575.172 807.961C580.514 794.606 574.017 779.367 560.682 774.016C557.519 772.775 554.228 772.133 550.98 772.133ZM539.91 793.793C542.346 787.671 549.313 784.718 555.425 787.158C561.537 789.598 564.486 796.575 562.05 802.696C559.614 808.818 552.647 811.771 546.535 809.331C540.423 806.891 537.474 799.914 539.91 793.793Z" fill="#283D15"/>
<path d="M1330.41 613.538C1330.41 613.538 1304.55 584.644 1301.35 561.786C1298.14 538.927 1319.6 531.393 1328.06 548.73C1336.53 566.066 1332.12 578.48 1334.9 609.043L1330.41 613.538Z" fill="#6AA338"/>
<path d="M1330.41 613.537C1330.41 613.537 1301.56 587.639 1278.74 584.429C1255.87 581.218 1248.39 602.707 1265.7 611.182C1283.01 619.658 1295.41 615.249 1325.93 618.031L1330.41 613.537Z" fill="#6AA338"/>
<path d="M1324 604.634C1324 604.634 1396.62 583.231 1438.51 607.202C1480.39 631.174 1478.26 674.365 1441.5 688.063C1404.74 701.761 1324 604.634 1324 604.634Z" fill="#6AA338"/>
<path d="M1324 604.633C1324 604.633 1374.52 544.319 1426.11 544.319C1468.81 544.319 1463.72 595.644 1417.86 595.943C1364.35 596.286 1324 604.633 1324 604.633Z" fill="#6AA338"/>
<path d="M1332.25 596.332C1332.25 596.332 1324.98 550.273 1339.82 522.877C1354.65 495.481 1375.85 504.77 1378.5 517.098C1381.1 529.426 1366.61 557.122 1363.45 577.369C1360.33 597.616 1362.13 578.696 1362.13 578.696L1332.25 596.332Z" fill="#6AA338"/>
<path d="M1385.38 548C1385.38 548 1424.83 501.812 1484.54 500.828C1521.17 500.228 1545.1 511.058 1558.14 516.88C1565.19 520.048 1568.57 528.48 1565.28 534.559C1562.54 539.567 1556.22 541.151 1550.49 538.283C1534.89 530.492 1503.35 516.709 1473.94 515.639C1432.82 514.183 1413.2 528.352 1385.42 547.957" fill="#6AA338"/>
<path d="M1321.48 607.119C1321.48 607.119 1300.11 679.846 1324.05 721.796C1347.98 763.703 1391.11 761.606 1404.78 724.793C1418.46 687.979 1321.48 607.119 1321.48 607.119Z" fill="#6AA338"/>
<path d="M1448.25 684.937L1355.07 638.236L1401.71 731.553C1401.71 731.553 1423.5 743.111 1441.63 724.961C1459.75 706.811 1448.21 684.98 1448.21 684.98" fill="#6AA338"/>
<path d="M1385.51 595.86C1355.59 597.315 1322.21 605.32 1322.21 605.32C1322.21 605.32 1314.26 638.751 1312.76 668.716C1312.76 668.716 1347.04 702.19 1382.99 666.19C1418.93 630.19 1385.51 595.86 1385.51 595.86Z" fill="#283D15"/>
<path d="M1321.48 607.117C1321.48 607.117 1261.26 657.714 1261.26 709.381C1261.26 752.144 1312.5 747.05 1312.8 701.119C1313.15 647.526 1321.48 607.117 1321.48 607.117Z" fill="#6AA338"/>
<path d="M1313.23 615.377C1313.23 615.377 1267.24 608.1 1239.89 622.954C1212.53 637.807 1221.81 659.039 1234.12 661.693C1246.43 664.304 1274.08 649.793 1294.3 646.626C1314.51 643.501 1295.62 645.299 1295.62 645.299L1313.23 615.377Z" fill="#6AA338"/>
<path d="M1264.98 668.583C1264.98 668.583 1218.86 708.093 1217.87 767.893C1217.28 804.578 1228.09 828.55 1233.9 841.605C1237.07 848.668 1245.49 852.05 1251.55 848.754C1256.56 846.014 1258.14 839.679 1255.27 833.943C1247.49 818.319 1233.73 786.728 1232.71 757.278C1231.25 716.098 1245.4 696.45 1264.98 668.626" fill="#6AA338"/>
<path d="M1259.97 750.686C1259.97 750.686 1269.63 783.946 1289.81 802.952C1295.92 808.731 1300.66 813.311 1304.3 816.864C1310.45 822.857 1310.5 832.702 1304.47 838.823C1297.54 845.843 1285.92 844.688 1280.53 836.426C1269.81 820.074 1256.13 790.667 1259.97 750.686Z" fill="#283D15"/>
<path d="M1392.26 648.165C1389.74 645.64 1381.62 649.706 1374.05 657.24C1366.53 664.774 1362.47 672.95 1364.99 675.475C1367.51 678.001 1375.63 673.934 1383.2 666.4C1390.72 658.867 1394.78 650.691 1392.26 648.165Z" fill="#16220C"/>
<path d="M1407.82 428.402C1398.16 424.293 1387 428.744 1382.9 438.419C1378.8 448.093 1383.24 459.265 1392.9 463.374C1402.56 467.484 1413.72 462.989 1417.82 453.358C1421.92 443.684 1417.48 432.511 1407.82 428.402Z" fill="#283D15"/>
<path d="M1400.38 419.754C1397.09 419.754 1393.8 420.396 1390.68 421.637C1384.22 424.249 1379.14 429.214 1376.4 435.635C1373.67 442.056 1373.58 449.162 1376.19 455.625C1378.8 462.089 1383.75 467.183 1390.17 469.923C1403.37 475.573 1418.72 469.409 1424.4 456.182C1430.04 442.955 1423.89 427.545 1410.64 421.894C1407.35 420.482 1403.89 419.797 1400.42 419.797M1400.42 457.851C1398.88 457.851 1397.26 457.552 1395.76 456.91C1392.82 455.668 1390.59 453.314 1389.4 450.36C1388.2 447.407 1388.24 444.153 1389.48 441.2C1390.72 438.289 1393.03 436.02 1395.98 434.822C1398.93 433.623 1402.18 433.666 1405.13 434.907C1411.15 437.476 1414.02 444.539 1411.41 450.574C1409.48 455.112 1405.04 457.808 1400.42 457.808" fill="#283D15"/>
<path d="M1145.56 691.06C1141.45 681.386 1145.9 670.213 1155.56 666.104C1165.22 661.995 1176.37 666.447 1180.48 676.121C1184.58 685.795 1180.09 696.967 1170.47 701.077C1160.81 705.186 1149.66 700.691 1145.56 691.06Z" fill="#283D15"/>
<path d="M1163.04 657.456C1159.58 657.456 1156.07 658.141 1152.78 659.553C1139.57 665.204 1133.37 680.571 1139.02 693.841C1144.66 707.068 1160 713.275 1173.25 707.625C1179.66 704.885 1184.62 699.791 1187.23 693.327C1189.84 686.864 1189.75 679.758 1187.02 673.337C1184.28 666.916 1179.24 661.951 1172.74 659.382C1169.62 658.098 1166.33 657.499 1163.04 657.499M1152.05 688.319C1149.49 682.283 1152.31 675.221 1158.34 672.652C1161.28 671.411 1164.53 671.368 1167.48 672.567C1170.43 673.765 1172.74 676.034 1174.02 678.945C1175.26 681.898 1175.3 685.109 1174.11 688.062C1172.91 691.016 1170.65 693.327 1167.74 694.612C1161.71 697.223 1154.66 694.398 1152.1 688.319" fill="#283D15"/>
<path d="M-6.32605 349.982C-9.95907 362.695 -17.3961 373.996 -26.7992 383.157C-33.8515 390.006 -39.7926 394.115 -43.1692 397.711C-45.9046 400.664 -46.0756 405.159 -43.5966 408.369C-40.5192 412.308 -34.7064 412.65 -31.2016 409.097C-24.3202 402.077 -13.6348 388.336 -7.00991 375.88C-7.00991 375.88 -10.5575 398.866 -29.5774 434.139C-32.3128 439.275 -29.9621 445.653 -25.0041 448.736C-18.9775 452.46 -11.5832 449.763 -8.24942 443.556C10.8987 408.155 14.831 380.802 4.10286 345.701C3.76093 344.631 -3.37689 327.851 -3.84705 329.093C-3.93253 329.307 -5.12929 345.915 -6.28331 349.982" fill="#283D15"/>
<path d="M409.848 763.915C409.848 763.915 445.153 778.426 446.606 817.936C448.059 857.232 416.088 850.811 405.232 819.819C394.376 788.828 409.891 763.915 409.891 763.915" fill="#6AA338"/>
<path d="M403.779 761.434C403.779 761.434 368.517 746.923 339.71 774.062C311.073 801.03 338.427 818.923 367.876 804.497C397.325 790.072 403.779 761.434 403.779 761.434Z" fill="#6AA338"/>
<path d="M407.582 802.484L410.83 764.344L402.795 761.048L378.347 790.498C331.545 844.391 366.508 861.128 366.508 861.128C366.508 861.128 403.094 873.799 407.582 802.527" fill="#6AA338"/>
<path d="M425.491 787.673C425.491 777.1 416.43 766.655 406.856 762.674C397.282 758.693 383.476 759.806 376.082 767.34C368.688 774.831 362.234 796.448 388.605 807.278C414.977 818.108 425.534 798.203 425.534 787.673" fill="#283D15"/>
<path d="M414.848 771.533C415.96 768.794 412.412 764.727 406.899 762.458C401.385 760.19 395.999 760.575 394.888 763.314C393.777 766.054 397.324 770.121 402.838 772.389C408.352 774.658 413.737 774.273 414.848 771.533Z" fill="#16220C"/>
<path d="M452.461 761.261C458.872 772.819 461.608 786.089 461.394 799.23C461.266 809.076 459.941 816.182 460.112 821.104C460.283 825.128 463.317 828.424 467.335 828.938C472.293 829.537 476.653 825.685 476.61 820.676C476.482 810.831 474.387 793.537 470.241 780.053C470.241 780.053 483.961 798.802 495.416 837.242C497.083 842.807 503.281 845.675 508.922 844.348C515.804 842.721 519.138 835.573 517.129 828.809C505.631 790.198 489.133 768.11 456.778 750.86C455.795 750.346 438.869 743.497 439.468 744.738C439.553 744.952 450.409 757.537 452.461 761.261Z" fill="#283D15"/>
<path d="M375.312 729.586C362.661 733.267 351.42 740.844 342.316 750.304C335.52 757.41 331.459 763.403 327.869 766.784C324.92 769.567 320.432 769.738 317.226 767.298C313.251 764.259 312.867 758.437 316.414 754.884C323.381 747.95 337.058 737.12 349.411 730.442C349.411 730.442 326.501 734.166 291.368 753.472C286.282 756.254 279.87 753.942 276.793 749.02C273.032 743.027 275.682 735.621 281.879 732.197C317.098 712.806 344.367 708.654 379.501 719.141C380.569 719.441 397.367 726.504 396.127 726.975C395.913 727.06 379.33 728.387 375.269 729.586" fill="#283D15"/>
<path d="M1039 759.249C1039 759.249 1074.18 744.524 1103.16 771.406C1131.96 798.16 1104.78 816.267 1075.2 802.055C1045.63 787.844 1039.04 759.249 1039.04 759.249" fill="#6AA338"/>
<path d="M1032.93 761.772C1032.93 761.772 997.757 776.497 996.56 816.05C995.363 855.389 1027.33 848.711 1037.98 817.634C1048.62 786.557 1032.98 761.772 1032.98 761.772" fill="#6AA338"/>
<path d="M1064.6 788.143L1039.98 758.864L1031.95 762.246L1035.5 800.386C1040.45 871.658 1076.96 858.73 1076.96 858.73C1076.96 858.73 1111.79 841.779 1064.6 788.186" fill="#6AA338"/>
<path d="M1066.78 764.987C1059.3 757.496 1045.54 756.511 1035.97 760.535C1026.39 764.559 1017.42 775.046 1017.5 785.619C1017.55 796.15 1028.23 816.012 1054.56 804.968C1080.85 793.966 1074.26 772.392 1066.78 764.944" fill="#283D15"/>
<path d="M1047.89 761.091C1046.74 758.351 1041.35 758.009 1035.88 760.32C1030.37 762.632 1026.86 766.698 1028.02 769.438C1029.17 772.177 1034.56 772.52 1040.03 770.208C1045.5 767.897 1049.05 763.83 1047.89 761.091Z" fill="#16220C"/>
<path d="M1067.25 727.189C1079.95 730.785 1091.23 738.276 1100.38 747.693C1107.22 754.756 1111.32 760.706 1114.91 764.088C1117.86 766.827 1122.35 766.999 1125.55 764.516C1129.49 761.434 1129.83 755.612 1126.28 752.102C1119.23 745.21 1105.51 734.509 1093.11 727.874C1093.11 727.874 1116.07 731.427 1151.28 750.475C1156.41 753.215 1162.78 750.861 1165.86 745.895C1169.58 739.86 1166.88 732.454 1160.69 729.115C1125.34 709.938 1098.03 706 1062.98 716.701C1061.91 717.044 1045.16 724.193 1046.4 724.663C1046.61 724.749 1063.19 725.948 1067.25 727.146" fill="#283D15"/>
<path d="M990.319 759.422C983.993 771.022 981.343 784.292 981.642 797.434C981.856 807.279 983.224 814.385 983.095 819.307C982.967 823.331 979.933 826.67 975.915 827.184C970.957 827.826 966.597 823.973 966.597 818.965C966.597 809.12 968.649 791.783 972.666 778.299C972.666 778.299 959.075 797.134 947.876 835.659C946.252 841.224 940.055 844.135 934.413 842.851C927.532 841.267 924.155 834.161 926.121 827.355C937.319 788.701 953.689 766.442 985.916 748.977C986.899 748.463 1003.74 741.486 1003.18 742.727C1003.1 742.941 992.328 755.612 990.276 759.336" fill="#283D15"/>
<path d="M1446.29 344.973C1449.96 357.644 1457.53 368.902 1466.97 378.019C1474.07 384.825 1480.05 388.892 1483.43 392.488C1486.21 395.441 1486.38 399.936 1483.94 403.146C1480.91 407.127 1475.09 407.513 1471.55 403.96C1464.62 396.982 1453.81 383.284 1447.14 370.913C1447.14 370.913 1450.86 393.857 1470.14 429.044C1472.91 434.138 1470.61 440.559 1465.69 443.641C1459.71 447.408 1452.31 444.754 1448.89 438.547C1429.53 403.275 1425.39 375.965 1435.86 340.778C1436.16 339.708 1443.21 322.885 1443.68 324.126C1443.76 324.34 1445.09 340.949 1446.29 345.016" fill="#283D15"/>
<path d="M1486.8 0.984619C1486.8 57.617 1471.89 108.899 1447.78 146.183C1455.82 189.888 1450 243.01 1428.33 295.319C1406.71 347.628 1373.33 389.278 1336.78 414.534C1327.51 458.025 1301.82 504.811 1261.86 544.878C1221.89 584.902 1175.13 610.628 1131.71 619.917C1106.53 656.516 1064.9 689.948 1012.67 711.607C960.443 733.267 907.444 739.089 863.762 731.084C826.492 755.227 775.288 770.166 718.783 770.166C662.279 770.166 611.032 755.227 573.804 731.084C530.165 739.132 477.123 733.267 424.893 711.607C372.663 689.948 331.075 656.516 305.858 619.917C262.475 610.628 215.716 584.902 175.71 544.878C135.747 504.854 110.059 458.024 100.784 414.576C64.2403 389.364 30.8593 347.671 9.23207 295.362C-12.3951 243.053 -18.208 189.973 -10.2153 146.268C-34.3215 108.941 -49.2383 57.6598 -49.2383 1.0274L-2.13717 0.00012207C-2.13717 398.738 320.604 721.966 718.741 721.966C1116.88 721.966 1439.62 398.738 1439.62 0.00012207L1486.72 0.984619H1486.8Z" fill="#6AA338"/>
<path d="M719.979 891.867C719.979 891.867 722.167 851.496 736.678 832.27C751.189 813.044 772.575 823.348 766.012 842.352C759.449 861.355 747.081 867.243 726.587 891.867H719.979Z" fill="#6AA338"/>
<path d="M719.981 891.867C719.981 891.867 717.793 851.496 703.282 832.27C688.771 813.044 667.385 823.348 673.948 842.352C680.511 861.355 692.879 867.243 713.373 891.867H719.981Z" fill="#6AA338"/>
<path d="M721.855 880.585C721.855 880.585 791.283 918.413 804.544 966.947C817.804 1015.53 784.363 1045.77 747.126 1028.73C709.889 1011.69 721.9 880.54 721.9 880.54" fill="#6AA338"/>
<path d="M721.852 880.583C721.852 880.583 803.692 873.446 841.777 911.497C873.344 943.035 831.687 977.071 797.62 943.436C757.883 904.181 721.896 880.583 721.896 880.583" fill="#6AA338"/>
<path d="M734.039 880.582C734.039 880.582 762.659 841.282 793.779 832.004C824.899 822.77 833.739 845.252 826.595 856.271C819.451 867.289 788.332 876.969 771.053 889.593C753.818 902.218 769.133 889.593 769.133 889.593L734.039 880.538V880.582Z" fill="#6AA338"/>
<path d="M808.962 884.152C808.962 884.152 872.139 879.2 917.011 922.56C944.515 949.147 954.203 974.797 959.516 988.714C962.419 996.253 958.623 1005 951.748 1007C946.033 1008.7 940.184 1005.17 938.041 998.841C932.281 981.577 919.154 948.121 898.214 925.682C868.925 894.278 843.966 890.219 809.007 884.152" fill="#6AA338"/>
<path d="M874.906 940.179C874.906 940.179 891.158 972.387 889.327 1001.25C888.747 1009.99 888.39 1016.86 888.122 1022.17C887.72 1031.09 894.641 1038.63 903.615 1038.99C913.884 1039.39 921.921 1030.24 920.18 1020.12C916.742 1000.04 906.249 967.881 874.861 940.135" fill="#283D15"/>
<path d="M718.146 880.585C718.146 880.585 648.717 918.413 635.457 966.947C622.196 1015.53 655.638 1045.77 692.874 1028.73C730.111 1011.69 718.101 880.54 718.101 880.54" fill="#6AA338"/>
<path d="M773.735 919.482C750.563 898.471 719.978 879.736 719.978 879.736C719.978 879.736 689.439 898.516 666.222 919.482C666.222 919.482 666.847 969.488 719.978 969.488C773.11 969.488 773.735 919.482 773.735 919.482Z" fill="#283D15"/>
<path d="M718.15 880.583C718.15 880.583 636.31 873.446 598.225 911.497C566.658 943.035 608.315 977.071 642.382 943.436C682.119 904.181 718.106 880.583 718.106 880.583" fill="#6AA338"/>
<path d="M705.956 880.582C705.956 880.582 677.336 841.282 646.216 832.004C615.097 822.77 606.256 845.252 613.4 856.271C620.544 867.289 651.708 876.969 668.943 889.593C686.177 902.218 670.862 889.593 670.862 889.593L705.956 880.538V880.582Z" fill="#6AA338"/>
<path d="M631.038 884.152C631.038 884.152 567.86 879.2 522.988 922.56C495.485 949.147 485.796 974.797 480.483 988.714C477.581 996.253 481.376 1005 488.297 1007C494.012 1008.7 499.861 1005.17 501.959 998.841C507.719 981.577 520.845 948.121 541.83 925.682C571.119 894.278 596.078 890.219 631.038 884.152Z" fill="#6AA338"/>
<path d="M566.785 940.983C566.785 940.983 549.417 972.61 550.266 1001.52C550.533 1010.3 550.667 1017.17 550.712 1022.48C550.801 1031.45 543.613 1038.72 534.639 1038.76C524.325 1038.81 516.601 1029.4 518.699 1019.36C522.851 999.42 534.415 967.658 566.741 940.983" fill="#283D15"/>
<path d="M740.161 963.064C740.161 959.361 731.142 956.328 720.024 956.328C708.907 956.328 699.888 959.361 699.888 963.064C699.888 966.766 708.907 969.8 720.024 969.8C731.142 969.8 740.161 966.766 740.161 963.064Z" fill="#16220C"/>
</g>
<defs>
<clipPath id="clip0_601_2795">
<rect width="1440" height="1039" fill="white"/>
</clipPath>
</defs>
</svg>
