<svg width="96" height="97" viewBox="0 0 96 97" fill="none" xmlns="http://www.w3.org/2000/svg">
    <g filter="url(#filter0_ii_604_4320)">
        <path
            d="M41.8819 7.64233C45.0575 3.8038 50.9425 3.8038 54.1181 7.64233C56.2718 10.2456 59.8371 11.2009 63.0039 10.0233C67.6734 8.28682 72.7699 11.2293 73.6008 16.1414C74.1643 19.4728 76.7743 22.0827 80.1057 22.6462C85.0178 23.4772 87.9602 28.5737 86.2238 33.2431C85.0461 36.41 86.0014 39.9752 88.6047 42.1289C92.4433 45.3046 92.4433 51.1896 88.6047 54.3652C86.0014 56.5189 85.0461 60.0842 86.2238 63.251C87.9602 67.9204 85.0178 73.017 80.1057 73.8479C76.7743 74.4114 74.1643 77.0214 73.6008 80.3527C72.7699 85.2648 67.6734 88.2073 63.0039 86.4709C59.8371 85.2932 56.2718 86.2485 54.1181 88.8518C50.9425 92.6903 45.0575 92.6903 41.8819 88.8518C39.7282 86.2485 36.1629 85.2932 32.9961 86.4709C28.3266 88.2073 23.2301 85.2648 22.3992 80.3527C21.8357 77.0214 19.2257 74.4114 15.8943 73.8479C10.9822 73.017 8.03975 67.9204 9.7762 63.251C10.9539 60.0842 9.99856 56.5189 7.39526 54.3652C3.55673 51.1896 3.55673 45.3046 7.39526 42.1289C9.99856 39.9752 10.9539 36.41 9.7762 33.2431C8.03975 28.5737 10.9822 23.4772 15.8943 22.6462C19.2257 22.0827 21.8357 19.4728 22.3992 16.1414C23.2301 11.2293 28.3266 8.28682 32.9961 10.0233C36.1629 11.2009 39.7282 10.2456 41.8819 7.64233Z"
            fill="white" />
    </g>
    <g clip-path="url(#clip0_604_4320)">
        <g clip-path="url(#clip1_604_4320)">
            <path fill-rule="evenodd" clip-rule="evenodd"
                d="M31.9938 38.2031L32.39 37.8247L30.1159 35.6488C29.0792 34.6557 28.4971 33.3105 28.4971 31.9081C28.4971 30.5057 29.0792 29.1605 30.1159 28.1674L32.3583 26.0218C33.398 25.0316 34.8063 24.4756 36.2745 24.4756C37.7427 24.4756 39.151 25.0316 40.1907 26.0218L42.4688 28.1939L42.865 27.8155C43.1316 27.5616 43.4928 27.4189 43.8693 27.4189C44.2458 27.4189 44.607 27.5616 44.8736 27.8155L45.666 28.5724C45.9321 28.8277 46.0815 29.1733 46.0815 29.5335C46.0815 29.8938 45.9321 30.2394 45.666 30.4947L44.3427 31.7586L59.7938 46.5359C61.5647 48.2274 61.323 47.9814 61.9609 50.32C62.6463 52.7116 63.0702 54.3729 63.1177 55.5081L63.7952 58.3084C64.0091 59.2015 64.8213 60.4276 65.5701 61.5363C66.5764 63.0387 67.4995 64.4161 67.4995 65.7254C67.5363 66.6898 67.2788 67.6436 66.7583 68.4707C66.2377 69.2978 65.4767 69.9624 64.5677 70.3838C63.8381 70.7317 63.0408 70.9314 62.2263 70.9703C61.4187 71.0102 60.6108 70.897 59.8492 70.6373C58.8982 70.3275 58.0618 69.7607 57.4416 69.0057C56.8213 68.2506 56.4438 67.3399 56.3549 66.3839V66.2893C56.2361 64.4388 57.2859 62.9138 58.3913 61.3017C59.0806 60.2989 59.8056 59.2469 60.0354 58.3047L60.2494 57.4002C59.1163 57.2678 57.6108 56.9499 55.6576 56.5299C52.8249 55.9282 53.2568 56.2044 51.2125 54.2594L36.019 39.7281L34.8027 40.8861C34.5361 41.14 34.1749 41.2826 33.7984 41.2826C33.4218 41.2826 33.0607 41.14 32.7941 40.8861L32.0017 40.1292C31.7358 39.8746 31.5865 39.5296 31.5865 39.1699C31.5865 38.8103 31.7358 38.4653 32.0017 38.2107L31.9938 38.2031ZM47.3854 47.9814L53.031 42.589L44.8102 34.7368L39.1646 40.1292L47.3854 47.9814ZM61.9094 58.7171C61.2319 61.4909 58.1338 63.8788 58.2803 66.1795C58.7518 70.2664 65.5621 70.1113 65.5621 65.7254C65.5621 64.1626 62.4917 61.1277 61.9094 58.7171Z"
                fill="#1C1456" />
        </g>
    </g>
    <path d="M84 12.2471L12 84.2471" stroke="#F2426C" stroke-width="4.5" stroke-linecap="round"
        stroke-linejoin="round" />
    <defs>
        <filter id="filter0_ii_604_4320" x="1.5166" y="1.76367" width="92.9668" height="92.9668"
            filterUnits="userSpaceOnUse" color-interpolation-filters="sRGB">
            <feFlood flood-opacity="0" result="BackgroundImageFix" />
            <feBlend mode="normal" in="SourceGraphic" in2="BackgroundImageFix" result="shape" />
            <feColorMatrix in="SourceAlpha" type="matrix" values="0 0 0 0 0 0 0 0 0 0 0 0 0 0 0 0 0 0 127 0"
                result="hardAlpha" />
            <feOffset dx="3" dy="3" />
            <feGaussianBlur stdDeviation="3" />
            <feComposite in2="hardAlpha" operator="arithmetic" k2="-1" k3="1" />
            <feColorMatrix type="matrix" values="0 0 0 0 0.907565 0 0 0 0 0.907565 0 0 0 0 0.907565 0 0 0 1 0" />
            <feBlend mode="normal" in2="shape" result="effect1_innerShadow_604_4320" />
            <feColorMatrix in="SourceAlpha" type="matrix" values="0 0 0 0 0 0 0 0 0 0 0 0 0 0 0 0 0 0 127 0"
                result="hardAlpha" />
            <feOffset dx="-3" dy="-3" />
            <feGaussianBlur stdDeviation="3" />
            <feComposite in2="hardAlpha" operator="arithmetic" k2="-1" k3="1" />
            <feColorMatrix type="matrix" values="0 0 0 0 0.642334 0 0 0 0 0.642334 0 0 0 0 0.642334 0 0 0 1 0" />
            <feBlend mode="normal" in2="effect1_innerShadow_604_4320" result="effect2_innerShadow_604_4320" />
        </filter>
        <clipPath id="clip0_604_4320">
            <rect width="48" height="48" fill="white" transform="translate(24 24.2461)" />
        </clipPath>
        <clipPath id="clip1_604_4320">
            <rect width="39" height="46.5" fill="white" transform="matrix(-1 0 0 1 67.5 24.4775)" />
        </clipPath>
    </defs>
</svg>