<svg width="96" height="96" viewBox="0 0 96 96" fill="none" xmlns="http://www.w3.org/2000/svg">
    <g filter="url(#filter0_ii_2038_20626)">
        <path
            d="M41.8819 7.39575C45.0575 3.55721 50.9425 3.55721 54.1181 7.39575C56.2718 9.99905 59.8371 10.9544 63.0039 9.77669C67.6734 8.04024 72.7699 10.9827 73.6008 15.8948C74.1643 19.2262 76.7743 21.8361 80.1057 22.3997C85.0178 23.2306 87.9602 28.3271 86.2238 32.9966C85.0461 36.1634 86.0014 39.7286 88.6047 41.8824C92.4433 45.058 92.4433 50.943 88.6047 54.1186C86.0014 56.2723 85.0461 59.8376 86.2238 63.0044C87.9602 67.6739 85.0178 72.7704 80.1057 73.6013C76.7743 74.1648 74.1643 76.7748 73.6008 80.1062C72.7699 85.0182 67.6734 87.9607 63.0039 86.2243C59.8371 85.0466 56.2718 86.0019 54.1181 88.6052C50.9425 92.4438 45.0575 92.4438 41.8819 88.6052C39.7282 86.0019 36.1629 85.0466 32.9961 86.2243C28.3266 87.9607 23.2301 85.0182 22.3992 80.1062C21.8357 76.7748 19.2257 74.1648 15.8943 73.6013C10.9822 72.7704 8.03975 67.6739 9.7762 63.0044C10.9539 59.8376 9.99856 56.2723 7.39526 54.1186C3.55673 50.943 3.55673 45.058 7.39526 41.8824C9.99856 39.7286 10.9539 36.1634 9.7762 32.9966C8.03975 28.3271 10.9822 23.2306 15.8943 22.3997C19.2257 21.8361 21.8357 19.2262 22.3992 15.8948C23.2301 10.9827 28.3266 8.04024 32.9961 9.77669C36.1629 10.9544 39.7282 9.99905 41.8819 7.39575Z"
            fill="white" />
    </g>
    <path
        d="M23.0879 60.001H21.7679V51.601H23.0879V55.201H24.5879V51.601H25.9319V60.001H24.5879V56.401H23.0879V60.001ZM30.909 60.001H29.577L29.349 58.477H27.729L27.501 60.001H26.289L27.633 51.601H29.565L30.909 60.001ZM27.897 57.337H29.169L28.533 53.089L27.897 57.337ZM30.9123 51.601H34.9923V52.801H33.6123V60.001H32.2923V52.801H30.9123V51.601ZM35.7165 58.801C35.7885 58.809 35.8645 58.813 35.9445 58.813C36.0245 58.813 36.1005 58.813 36.1725 58.813C36.2765 58.813 36.3725 58.801 36.4605 58.777C36.5565 58.753 36.6365 58.709 36.7005 58.645C36.7725 58.581 36.8245 58.489 36.8565 58.369C36.8965 58.249 36.9165 58.097 36.9165 57.913L34.9965 51.601H36.3165L37.7685 56.521L38.9685 51.601H40.2885L38.5605 57.793C38.4085 58.369 38.2525 58.813 38.0925 59.125C37.9405 59.429 37.7765 59.649 37.6005 59.785C37.4245 59.913 37.2325 59.985 37.0245 60.001C36.8245 60.017 36.6005 60.025 36.3525 60.025C36.2325 60.025 36.1245 60.025 36.0285 60.025C35.9325 60.025 35.8285 60.017 35.7165 60.001V58.801ZM42.5917 51.601C43.2557 51.601 43.7477 51.777 44.0677 52.129C44.3957 52.481 44.5597 52.997 44.5597 53.677V54.769C44.5597 55.449 44.3957 55.965 44.0677 56.317C43.7477 56.669 43.2557 56.845 42.5917 56.845H41.9677V60.001H40.6477V51.601H42.5917ZM41.9677 52.801V55.645H42.5917C42.7997 55.645 42.9597 55.589 43.0717 55.477C43.1837 55.365 43.2397 55.157 43.2397 54.853V53.593C43.2397 53.289 43.1837 53.081 43.0717 52.969C42.9597 52.857 42.7997 52.801 42.5917 52.801H41.9677ZM49.1795 60.001H47.8475L47.6195 58.477H45.9995L45.7715 60.001H44.5595L45.9035 51.601H47.8355L49.1795 60.001ZM46.1675 57.337H47.4395L46.8035 53.089L46.1675 57.337ZM53.2507 52.801H51.7147V57.913C51.7147 58.337 51.6627 58.685 51.5587 58.957C51.4547 59.229 51.3147 59.445 51.1387 59.605C50.9627 59.757 50.7587 59.865 50.5267 59.929C50.3027 59.993 50.0667 60.025 49.8187 60.025C49.6987 60.025 49.5907 60.025 49.4947 60.025C49.3987 60.025 49.2947 60.017 49.1827 60.001V58.801C49.2547 58.809 49.3307 58.813 49.4107 58.813C49.4907 58.813 49.5667 58.813 49.6387 58.813C49.8467 58.813 50.0227 58.761 50.1667 58.657C50.3187 58.553 50.3947 58.337 50.3947 58.009V51.601H54.5707V60.001H53.2507V52.801ZM57.235 58.801C57.443 58.801 57.603 58.745 57.715 58.633C57.827 58.521 57.883 58.313 57.883 58.009V56.749C57.883 56.445 57.827 56.237 57.715 56.125C57.603 56.013 57.443 55.957 57.235 55.957H56.611V58.801H57.235ZM55.291 60.001V51.601H56.611V54.757H57.235C57.899 54.757 58.391 54.933 58.711 55.285C59.039 55.637 59.203 56.153 59.203 56.833V57.925C59.203 58.605 59.039 59.121 58.711 59.473C58.391 59.825 57.899 60.001 57.235 60.001H55.291ZM60.8827 60.001H59.5627V51.601H60.8827V55.201H62.3827V51.601H63.7267V60.001H62.3827V56.401H60.8827V60.001ZM66.3878 58.801C66.5958 58.801 66.7558 58.745 66.8678 58.633C66.9798 58.521 67.0358 58.313 67.0358 58.009V56.749C67.0358 56.445 66.9798 56.237 66.8678 56.125C66.7558 56.013 66.5958 55.957 66.3878 55.957H65.7638V58.801H66.3878ZM64.4438 60.001V51.601H65.7638V54.757H66.3878C67.0518 54.757 67.5438 54.933 67.8638 55.285C68.1918 55.637 68.3558 56.153 68.3558 56.833V57.925C68.3558 58.605 68.1918 59.121 67.8638 59.473C67.5438 59.825 67.0518 60.001 66.3878 60.001H64.4438ZM69.0038 51.601H70.3238V60.001H69.0038V51.601ZM72.4036 60.001H71.0476V51.601H72.2236V56.629L73.5796 51.601H75.2356V60.001H74.0476V53.917L72.4036 60.001ZM74.6116 50.149V51.133H71.7076V50.149H74.6116ZM39.3569 68.869V69.985C39.3569 70.665 39.1889 71.189 38.8529 71.557C38.5249 71.917 38.0369 72.097 37.3889 72.097C36.7409 72.097 36.2489 71.917 35.9129 71.557C35.5849 71.189 35.4209 70.665 35.4209 69.985V65.617C35.4209 64.937 35.5849 64.417 35.9129 64.057C36.2489 63.689 36.7409 63.505 37.3889 63.505C38.0369 63.505 38.5249 63.689 38.8529 64.057C39.1889 64.417 39.3569 64.937 39.3569 65.617V66.433H38.1089V65.533C38.1089 65.229 38.0449 65.017 37.9169 64.897C37.7969 64.769 37.6329 64.705 37.4249 64.705C37.2169 64.705 37.0489 64.769 36.9209 64.897C36.8009 65.017 36.7409 65.229 36.7409 65.533V70.069C36.7409 70.373 36.8009 70.585 36.9209 70.705C37.0489 70.825 37.2169 70.885 37.4249 70.885C37.6329 70.885 37.7969 70.825 37.9169 70.705C38.0449 70.585 38.1089 70.373 38.1089 70.069V68.869H39.3569ZM41.1533 70.069C41.1533 70.373 41.2133 70.589 41.3333 70.717C41.4613 70.837 41.6293 70.897 41.8373 70.897C42.0453 70.897 42.2093 70.837 42.3293 70.717C42.4573 70.589 42.5213 70.373 42.5213 70.069V65.533C42.5213 65.229 42.4573 65.017 42.3293 64.897C42.2093 64.769 42.0453 64.705 41.8373 64.705C41.6293 64.705 41.4613 64.769 41.3333 64.897C41.2133 65.017 41.1533 65.229 41.1533 65.533V70.069ZM39.8333 65.617C39.8333 64.937 40.0053 64.417 40.3493 64.057C40.6933 63.689 41.1893 63.505 41.8373 63.505C42.4853 63.505 42.9813 63.689 43.3253 64.057C43.6693 64.417 43.8413 64.937 43.8413 65.617V69.985C43.8413 70.665 43.6693 71.189 43.3253 71.557C42.9813 71.917 42.4853 72.097 41.8373 72.097C41.1893 72.097 40.6933 71.917 40.3493 71.557C40.0053 71.189 39.8333 70.665 39.8333 69.985V65.617ZM48.2519 68.869V69.985C48.2519 70.665 48.0839 71.189 47.7479 71.557C47.4199 71.917 46.9319 72.097 46.2839 72.097C45.6359 72.097 45.1439 71.917 44.8079 71.557C44.4799 71.189 44.3159 70.665 44.3159 69.985V65.617C44.3159 64.937 44.4799 64.417 44.8079 64.057C45.1439 63.689 45.6359 63.505 46.2839 63.505C46.9319 63.505 47.4199 63.689 47.7479 64.057C48.0839 64.417 48.2519 64.937 48.2519 65.617V66.433H47.0039V65.533C47.0039 65.229 46.9399 65.017 46.8119 64.897C46.6919 64.769 46.5279 64.705 46.3199 64.705C46.1119 64.705 45.9439 64.769 45.8159 64.897C45.6959 65.017 45.6359 65.229 45.6359 65.533V70.069C45.6359 70.373 45.6959 70.585 45.8159 70.705C45.9439 70.825 46.1119 70.885 46.3199 70.885C46.5279 70.885 46.6919 70.825 46.8119 70.705C46.9399 70.585 47.0039 70.373 47.0039 70.069V68.869H48.2519ZM48.4883 63.601H52.5683V64.801H51.1883V72.001H49.8683V64.801H48.4883V63.601ZM57.1925 72.001H55.8605L55.6325 70.477H54.0125L53.7845 72.001H52.5725L53.9165 63.601H55.8485L57.1925 72.001ZM54.1805 69.337H55.4525L54.8165 65.089L54.1805 69.337ZM59.5478 63.601C60.2358 63.601 60.7318 63.761 61.0358 64.081C61.3478 64.401 61.5038 64.885 61.5038 65.533V65.833C61.5038 66.265 61.4358 66.621 61.2998 66.901C61.1638 67.181 60.9478 67.389 60.6518 67.525C61.0118 67.661 61.2638 67.885 61.4078 68.197C61.5598 68.501 61.6358 68.877 61.6358 69.325V70.009C61.6358 70.657 61.4678 71.153 61.1318 71.497C60.7958 71.833 60.2958 72.001 59.6318 72.001H57.5558V63.601H59.5478ZM58.8758 68.221V70.801H59.6318C59.8558 70.801 60.0238 70.741 60.1358 70.621C60.2558 70.501 60.3158 70.285 60.3158 69.973V69.241C60.3158 68.849 60.2478 68.581 60.1118 68.437C59.9838 68.293 59.7678 68.221 59.4638 68.221H58.8758ZM58.8758 64.801V67.021H59.3918C59.6398 67.021 59.8318 66.957 59.9678 66.829C60.1118 66.701 60.1838 66.469 60.1838 66.133V65.665C60.1838 65.361 60.1278 65.141 60.0158 65.005C59.9118 64.869 59.7438 64.801 59.5118 64.801H58.8758Z"
        fill="#1C1456" />
    <path
        d="M44.39 28.6055C40.3383 25.819 33.2164 26.5204 29.1238 27.434C28.3046 27.6168 27.74 28.3614 27.8033 29.1985C28.5036 38.4651 35.9483 44.2592 40.6861 45.1521C43.4601 45.6748 45.6842 45.5118 47.1093 45.2652C48.1071 45.0925 48.6008 44.0594 48.1191 43.1687C46.7374 40.6133 44.3773 38.0532 42.0577 35.9452C41.2567 35.2173 41.8939 34.149 42.7814 34.7684C45.7614 36.8483 47.7984 39.3983 49.0279 41.5016C49.2962 41.9605 50.2335 41.7534 50.2171 41.2221C50.0622 36.1904 49.1916 31.9077 44.39 28.6055Z"
        fill="#6AA338" />
    <path
        d="M54.188 30.8342C57.4293 28.605 63.1269 29.1661 66.4009 29.897C67.0563 30.0433 67.508 30.6389 67.4574 31.3086C66.8971 38.7219 60.9413 43.3572 57.1511 44.0714C54.9319 44.4897 53.1526 44.3592 52.0126 44.1619C51.2143 44.0238 50.8194 43.1974 51.2047 42.4847C52.3101 40.4404 54.1982 38.3924 56.0538 36.706C56.6946 36.1236 56.1849 35.269 55.4749 35.7646C53.0909 37.4284 51.4613 39.4684 50.4776 41.1511C50.263 41.5182 49.5132 41.3525 49.5263 40.9275C49.6502 36.9021 50.3467 33.4759 54.188 30.8342Z"
        fill="#6AA338" />
    <defs>
        <filter id="filter0_ii_2038_20626" x="1.5166" y="1.51709" width="92.9668" height="92.9668"
            filterUnits="userSpaceOnUse" color-interpolation-filters="sRGB">
            <feFlood flood-opacity="0" result="BackgroundImageFix" />
            <feBlend mode="normal" in="SourceGraphic" in2="BackgroundImageFix" result="shape" />
            <feColorMatrix in="SourceAlpha" type="matrix" values="0 0 0 0 0 0 0 0 0 0 0 0 0 0 0 0 0 0 127 0"
                result="hardAlpha" />
            <feOffset dx="3" dy="3" />
            <feGaussianBlur stdDeviation="3" />
            <feComposite in2="hardAlpha" operator="arithmetic" k2="-1" k3="1" />
            <feColorMatrix type="matrix" values="0 0 0 0 0.907565 0 0 0 0 0.907565 0 0 0 0 0.907565 0 0 0 1 0" />
            <feBlend mode="normal" in2="shape" result="effect1_innerShadow_2038_20626" />
            <feColorMatrix in="SourceAlpha" type="matrix" values="0 0 0 0 0 0 0 0 0 0 0 0 0 0 0 0 0 0 127 0"
                result="hardAlpha" />
            <feOffset dx="-3" dy="-3" />
            <feGaussianBlur stdDeviation="3" />
            <feComposite in2="hardAlpha" operator="arithmetic" k2="-1" k3="1" />
            <feColorMatrix type="matrix" values="0 0 0 0 0.642334 0 0 0 0 0.642334 0 0 0 0 0.642334 0 0 0 1 0" />
            <feBlend mode="normal" in2="effect1_innerShadow_2038_20626" result="effect2_innerShadow_2038_20626" />
        </filter>
    </defs>
</svg>