<svg width="457" height="81" viewBox="0 0 457 81" fill="none" xmlns="http://www.w3.org/2000/svg">
    <path
        d="M373.092 18.5098C375.296 18.5098 377.593 18.8603 379.755 19.748C380.836 19.2034 382.056 18.8946 383.349 18.8945H388.629C389.886 18.8945 391.076 19.1851 392.135 19.7021C393.206 19.1803 394.399 18.8946 395.637 18.8945H400.821C401.751 18.8946 402.659 19.0575 403.51 19.3613C404.354 19.0597 405.26 18.8946 406.2 18.8945H413.928C416.007 18.8945 417.923 19.6947 419.359 21.0225C422.227 19.3629 425.454 18.8946 428.245 18.8945H436.213C440.631 18.8945 444.213 22.4763 444.213 26.8945V60.4941C444.213 64.9124 440.631 68.4941 436.213 68.4941H430.933C429.917 68.4941 428.947 68.3022 428.053 67.957C427.153 68.3045 426.18 68.4941 425.173 68.4941H419.797C419.702 68.4941 419.607 68.4916 419.513 68.4883C419.443 68.4901 419.373 68.4941 419.304 68.4941H413.976C412.464 68.494 411.04 68.0701 409.823 67.3301C408.607 68.0697 407.183 68.4941 405.672 68.4941H400.824L400.822 68.4932L400.821 68.4941H395.396C394.202 68.494 393.052 68.2268 392.015 67.7422C390.986 68.2234 389.839 68.4941 388.629 68.4941H383.349C382.062 68.4941 380.847 68.1875 379.77 67.6475C377.596 68.5337 375.291 68.8779 373.092 68.8779C371.009 68.8779 368.845 68.5709 366.787 67.7998C365.792 68.2445 364.689 68.4941 363.528 68.4941H349.128C348.639 68.4941 348.16 68.4474 347.695 68.3633C347.231 68.4472 346.752 68.4941 346.264 68.4941H340.984C336.566 68.494 332.984 64.9124 332.984 60.4941V55.2783C331.987 54.9922 331.005 54.6083 330.061 54.1074C329.268 54.5136 328.451 54.8376 327.625 55.0908V60.4941C327.625 64.9124 324.043 68.4941 319.625 68.4941H314.345C313.038 68.494 311.806 68.1785 310.717 67.623C308.527 68.5201 306.199 68.8779 303.95 68.8779C300.884 68.8778 297.672 68.2154 294.863 66.4238C292.115 67.9719 289.052 68.4941 286.226 68.4941H277.922C276.671 68.4941 275.487 68.2062 274.433 67.6943C273.378 68.206 272.195 68.4941 270.944 68.4941H265.665C261.247 68.494 257.665 64.9124 257.665 60.4941V53.0312C256.599 53.5569 255.4 53.8544 254.132 53.8545H207.145L208.005 59.2305C208.375 61.5434 207.712 63.9022 206.192 65.6846C204.672 67.4669 202.448 68.4941 200.105 68.4941H194.777C193.266 68.4941 191.842 68.07 190.625 67.3301C189.409 68.0698 187.985 68.4941 186.474 68.4941H181.625C179.711 68.494 177.876 67.8088 176.439 66.5859C175.043 67.7744 173.236 68.494 171.259 68.4941H165.979C165.61 68.4941 165.248 68.4671 164.893 68.4189C164.538 68.4671 164.175 68.4941 163.807 68.4941H149.407C147 68.4941 144.843 67.4295 143.376 65.7471C141.909 67.429 139.753 68.494 137.347 68.4941H132.066C128.797 68.4941 125.987 66.532 124.746 63.7217C124.635 63.8525 124.522 63.9839 124.405 64.1123L124.404 64.1113C121.121 67.7112 116.7 68.8779 112.641 68.8779C109.663 68.8779 106.522 68.2506 103.76 66.5361C100.994 68.2422 97.8548 68.8779 94.8545 68.8779C92.601 68.8779 90.2686 68.519 88.0752 67.6182C86.9838 68.1763 85.7485 68.4941 84.4385 68.4941H79.4463C78.8193 68.4941 78.2095 68.4197 77.624 68.2832C77.0362 68.4207 76.425 68.4941 75.7988 68.4941H70.8066C70.1311 68.4941 69.4731 68.4075 68.8428 68.248C68.212 68.408 67.5515 68.4941 66.8711 68.4941H62.2627C61.0117 68.4941 59.828 68.2063 58.7734 67.6943C57.7193 68.2058 56.5365 68.4941 55.2861 68.4941H50.0059C49.0308 68.4941 48.0964 68.3194 47.2324 68C46.3581 68.3215 45.4255 68.4941 44.4727 68.4941H39.1445C37.633 68.4941 36.2088 68.0709 34.9922 67.3311C33.7758 68.0706 32.3521 68.4941 30.8408 68.4941H25.9932C23.6507 68.4941 21.4252 67.467 19.9053 65.6846C18.3856 63.9022 17.7228 61.5433 18.0928 59.2305L23.4688 25.6299L23.5352 25.2695C24.2997 21.5737 27.5616 18.8946 31.3691 18.8945H39.0967C40.0372 18.8945 40.9436 19.0604 41.7881 19.3623C42.6309 19.0604 43.5387 18.8946 44.4854 18.8945H60.8057C61.0512 18.8945 61.2943 18.9071 61.5342 18.9287C61.7741 18.907 62.0171 18.8945 62.2627 18.8945H69.6064C70.9511 18.8945 72.2279 19.229 73.3506 19.8242C74.4729 19.229 75.7494 18.8946 77.0947 18.8945H84.4385C85.7551 18.8945 86.9964 19.2149 88.0918 19.7783C90.2736 18.8759 92.5981 18.5098 94.8545 18.5098C97.8692 18.5098 101.005 19.1612 103.76 20.877C106.511 19.1531 109.648 18.5098 112.641 18.5098C116.163 18.5098 119.925 19.4024 122.987 21.9609C124.183 21.4987 125.414 21.1978 126.637 21.0205C128.063 19.7013 129.97 18.8946 132.066 18.8945H137.347C139.443 18.8946 141.35 19.7027 142.776 21.0225C143.114 21.0716 143.453 21.1292 143.791 21.1982C145.235 19.774 147.218 18.8946 149.407 18.8945H163.807C164.175 18.8945 164.538 18.9216 164.893 18.9697C165.248 18.9215 165.61 18.8945 165.979 18.8945H173.754C176.398 18.8945 179.272 19.3699 181.877 20.7529C183.274 19.5874 185.066 18.8946 187.001 18.8945H194.729L195.096 18.9023C198.866 19.0734 202.027 21.8703 202.629 25.6299L203.942 33.8389C204.638 33.6413 205.373 33.5342 206.132 33.5342H252.359C252.22 32.9433 252.145 32.3276 252.145 31.6943V26.8945C252.145 22.4763 255.726 18.8947 260.145 18.8945H276.465C276.71 18.8945 276.953 18.9071 277.192 18.9287C277.432 18.907 277.676 18.8945 277.922 18.8945H285.89C288.66 18.8946 291.907 19.3563 294.783 21.042C297.599 19.2015 300.84 18.5099 303.95 18.5098C306.203 18.5098 308.523 18.8746 310.701 19.7734C311.794 19.213 313.032 18.8946 314.345 18.8945H322.121C323.737 18.8945 325.439 19.0721 327.113 19.5254C328.072 19.1192 329.126 18.8946 330.232 18.8945H335.512C336.473 18.8945 337.394 19.0644 338.248 19.375C339.102 19.0643 340.023 18.8946 340.984 18.8945H346.264C346.752 18.8945 347.231 18.9415 347.695 19.0254C348.16 18.9413 348.639 18.8946 349.128 18.8945H363.528C364.695 18.8945 365.803 19.1465 366.803 19.5957C368.85 18.8232 371.006 18.5098 373.092 18.5098ZM97.8525 60.4795C97.6119 60.5513 97.3635 60.6147 97.1064 60.667L97.5146 60.5742C97.6292 60.5453 97.7415 60.5126 97.8525 60.4795ZM79.4463 36.4043V60.4941L79.4473 36.3984L79.4463 36.4043ZM314.345 60.4941H314.346V26.8945H314.345V60.4941ZM349.128 60.4941H349.129V26.8945H349.128V60.4941ZM383.349 60.4941H383.35V26.8945H383.349V60.4941ZM97.9854 60.4375C98.0667 60.4117 98.1472 60.3855 98.2266 60.3574C98.1472 60.3855 98.0667 60.4117 97.9854 60.4375ZM98.3174 60.3252C98.4305 60.2835 98.5422 60.2407 98.6514 60.1943C98.5422 60.2407 98.4306 60.2835 98.3174 60.3252ZM99.874 59.5156C99.9092 59.491 99.9439 59.4657 99.9785 59.4404C99.9439 59.4657 99.9092 59.491 99.874 59.5156ZM100.173 59.293C100.205 59.2674 100.237 59.2411 100.269 59.2148C100.237 59.2411 100.205 59.2674 100.173 59.293ZM100.483 59.0293C100.5 59.0144 100.517 59.0004 100.533 58.9854C100.517 59.0004 100.5 59.0144 100.483 59.0293ZM101.895 57.1553C101.835 57.2715 101.774 57.3857 101.71 57.4971L101.896 57.1553C101.955 57.0389 102.011 56.92 102.064 56.7988L101.895 57.1553ZM374.097 55.9287C374.174 55.9088 374.249 55.8842 374.322 55.8584C374.249 55.8842 374.174 55.9088 374.097 55.9287ZM374.398 55.8301C374.447 55.8111 374.495 55.7903 374.542 55.7686C374.495 55.7903 374.447 55.8111 374.398 55.8301ZM375.203 55.3105C375.167 55.3469 375.127 55.3795 375.089 55.4131C375.127 55.3793 375.168 55.3471 375.204 55.3105C375.249 55.2681 375.291 55.2211 375.332 55.1729C375.291 55.2213 375.249 55.268 375.203 55.3105ZM375.539 54.8818C375.515 54.9233 375.49 54.9633 375.464 55.002C375.427 55.0569 375.387 55.1081 375.346 55.1572C375.416 55.0731 375.482 54.9819 375.54 54.8809L375.539 54.8818ZM288.328 54.8799C288.3 54.9128 288.271 54.9446 288.241 54.9746L288.329 54.8799C288.357 54.847 288.384 54.8123 288.41 54.7764L288.328 54.8799ZM97.4434 54.1602L97.4824 53.9854C97.4872 53.9616 97.4897 53.9373 97.4941 53.9131C97.4785 53.998 97.463 54.0806 97.4434 54.1602ZM115.521 52.7666C115.52 53.0919 115.501 53.3906 115.464 53.6631C115.501 53.3906 115.521 53.0919 115.521 52.7666V47.9658H115.521V52.7666ZM97.5176 53.7734C97.5261 53.7182 97.534 53.6619 97.541 53.6045C97.5341 53.6619 97.5261 53.7182 97.5176 53.7734ZM370.537 53.5225C370.542 53.5687 370.546 53.6143 370.552 53.6592C370.546 53.6143 370.542 53.5687 370.537 53.5225ZM97.5566 53.4658C97.5649 53.3811 97.5721 53.2942 97.5771 53.2051C97.5721 53.2942 97.5648 53.3811 97.5566 53.4658ZM86.8857 33.7637C86.8539 34.147 86.8379 34.5452 86.8379 34.958V52.4297C86.8379 52.5998 86.8411 52.7674 86.8467 52.9326L86.8389 52.4297V34.958C86.8389 34.5452 86.8541 34.147 86.8857 33.7637ZM370.511 53.2051C370.512 53.2367 370.516 53.2678 370.519 53.2988C370.515 53.2453 370.511 53.191 370.509 53.1357L370.511 53.2051ZM97.5898 34.6221V52.7666C97.5898 52.8942 97.5867 53.0179 97.5811 53.1377C97.5868 53.0179 97.5908 52.8942 97.5908 52.7666V34.6221C97.5908 34.4702 97.5863 34.324 97.5781 34.1836L97.5898 34.6221ZM104.769 52.4297H104.77V34.958H104.769V52.4297ZM123.168 51.9199C123.18 51.9373 123.194 51.9535 123.207 51.9707C123.177 51.9291 123.147 51.8873 123.117 51.8447C123.134 51.8697 123.15 51.8953 123.168 51.9199ZM122.94 51.5752C122.962 51.6104 122.985 51.6451 123.007 51.6797C122.984 51.6451 122.962 51.6104 122.94 51.5752ZM421.093 46.7666C421.033 46.9185 420.977 47.0749 420.925 47.2354C420.977 47.0748 421.034 46.9186 421.094 46.7666C421.116 46.7126 421.139 46.6592 421.163 46.6064C421.139 46.6593 421.115 46.7124 421.093 46.7666ZM327.513 46.2529C327.422 46.3297 327.329 46.4042 327.233 46.4756C327.426 46.3327 327.607 46.1785 327.777 46.0137L327.513 46.2529ZM430.933 42.0137H430.934V31.6943H430.933V42.0137ZM324.671 34.0225C324.685 34.1503 324.695 34.2841 324.702 34.4238C324.709 34.564 324.713 34.7101 324.713 34.8623V39.9023C324.713 40.2442 324.696 40.5558 324.66 40.8369C324.696 40.5558 324.714 40.2442 324.714 39.9023V34.8623C324.714 34.4063 324.681 34.0043 324.618 33.6562C324.639 33.7723 324.657 33.8944 324.671 34.0225ZM115.521 34.6221V38.2217L115.521 34.6221C115.521 34.4702 115.517 34.324 115.509 34.1836L115.521 34.6221ZM86.9111 33.4951C86.9056 33.5482 86.9014 33.6016 86.8965 33.6553C86.9099 33.5082 86.9262 33.3634 86.9443 33.2207C86.933 33.3114 86.9208 33.4027 86.9111 33.4951ZM86.9668 33.0381C86.9625 33.0679 86.9591 33.0979 86.9551 33.1279C86.9795 32.9469 87.0078 32.7695 87.04 32.5957L86.9668 33.0381ZM375.203 32.0781H375.204C375.146 32.0163 375.085 31.9595 375.021 31.9053C375.084 31.9594 375.145 32.0165 375.203 32.0781ZM374.998 31.8857C374.945 31.8414 374.89 31.7999 374.834 31.7607C374.89 31.8 374.945 31.8414 374.998 31.8857ZM285.745 31.6943C285.89 31.6943 286.029 31.7007 286.162 31.7139C286.03 31.7007 285.891 31.6943 285.746 31.6943H285.745ZM374.793 31.7324C374.727 31.6888 374.659 31.6473 374.589 31.6104C374.66 31.6473 374.727 31.6886 374.793 31.7324ZM44.4854 31.6943H44.4863V26.8945H44.4854V31.6943ZM123.618 30.9258C123.458 31.1018 123.308 31.2879 123.168 31.4844L123.169 31.4854C123.309 31.2888 123.458 31.1018 123.618 30.9258ZM303.95 31.3105C304.053 31.3105 304.153 31.3144 304.251 31.3223C304.154 31.3144 304.054 31.3106 303.951 31.3105H303.95ZM87.8145 30.2549C87.8068 30.2698 87.7996 30.2849 87.792 30.2998C87.8086 30.267 87.8257 30.2346 87.8428 30.2021C87.8335 30.2198 87.8236 30.2371 87.8145 30.2549ZM88.0166 29.8896C88.003 29.9126 87.9899 29.9358 87.9766 29.959C87.9899 29.9358 88.003 29.9126 88.0166 29.8896ZM106.737 28.7178C106.573 28.8978 106.42 29.0881 106.276 29.2881L106.499 28.9961C106.576 28.901 106.655 28.8078 106.737 28.7178ZM142.131 29.0205L141.706 28.9463C141.702 28.9457 141.699 28.9449 141.695 28.9443C141.843 28.9666 141.988 28.9924 142.131 29.0205ZM99.6885 27.7715C99.8883 27.9043 100.08 28.0464 100.263 28.2002C100.167 28.1198 100.069 28.0425 99.9688 27.9678C99.8775 27.8997 99.7837 27.8348 99.6885 27.7715ZM99.6104 27.7207C99.5393 27.6749 99.4668 27.6311 99.3936 27.5879C99.4668 27.6311 99.5393 27.6749 99.6104 27.7207ZM91.0576 27.208C90.8192 27.3115 90.5906 27.4272 90.3711 27.5537L90.707 27.373C90.8217 27.3155 90.9382 27.2598 91.0576 27.208ZM99.3008 27.5332C99.2028 27.4776 99.1037 27.4231 99.002 27.3721C99.1036 27.4231 99.2028 27.4776 99.3008 27.5332ZM369.311 27.208C369.295 27.2149 369.279 27.2225 369.264 27.2295C369.311 27.2083 369.359 27.1882 369.407 27.168C369.375 27.1815 369.342 27.194 369.311 27.208ZM97.917 26.9355C98.171 27.0153 98.4159 27.1058 98.6514 27.208C98.5323 27.1563 98.4109 27.1075 98.2871 27.0615C98.1661 27.0166 98.0426 26.9749 97.917 26.9355ZM369.672 27.0615C369.637 27.0747 369.602 27.0899 369.567 27.1035C369.621 27.0824 369.675 27.061 369.729 27.041L369.672 27.0615ZM97.5068 26.8184C97.6397 26.8526 97.7702 26.8898 97.8984 26.9297C97.7702 26.8898 97.6398 26.8525 97.5068 26.8184ZM97.0918 26.7227C96.9823 26.7001 96.8712 26.6801 96.7588 26.6611C96.8712 26.6801 96.9823 26.7001 97.0918 26.7227ZM93.4609 26.5879C93.4423 26.5901 93.4238 26.5925 93.4053 26.5947C93.4583 26.5882 93.5118 26.5829 93.5654 26.5771C93.5305 26.5809 93.4956 26.5838 93.4609 26.5879ZM111.249 26.5879C111.231 26.59 111.213 26.5926 111.195 26.5947C111.246 26.5884 111.298 26.5827 111.35 26.5771C111.316 26.5808 111.282 26.584 111.249 26.5879ZM93.9111 26.5439C93.8715 26.5469 93.8322 26.5512 93.793 26.5547C93.8522 26.5496 93.9117 26.5443 93.9717 26.54L93.9111 26.5439ZM111.698 26.5439C111.66 26.5468 111.622 26.5514 111.584 26.5547C111.641 26.5497 111.699 26.5442 111.757 26.54L111.698 26.5439ZM97.5068 26.8184C97.3839 26.7868 97.2588 26.7582 97.1318 26.7314C97.2588 26.7582 97.3839 26.7867 97.5068 26.8184Z"
        fill="#1C1456" />
    <g filter="url(#filter0_iii_611_9307)">
        <path
            d="M367.092 12.5098C369.296 12.5098 371.593 12.8603 373.755 13.748C374.836 13.2034 376.056 12.8946 377.349 12.8945H382.629C383.886 12.8945 385.076 13.1851 386.135 13.7021C387.206 13.1803 388.399 12.8946 389.637 12.8945H394.821C395.751 12.8946 396.659 13.0575 397.51 13.3613C398.354 13.0597 399.26 12.8946 400.2 12.8945H407.928C410.007 12.8945 411.923 13.6947 413.359 15.0225C416.227 13.3629 419.454 12.8946 422.245 12.8945H430.213C434.631 12.8945 438.213 16.4763 438.213 20.8945V54.4941C438.213 58.9124 434.631 62.4941 430.213 62.4941H424.933C423.917 62.4941 422.947 62.3022 422.053 61.957C421.153 62.3045 420.18 62.4941 419.173 62.4941H413.797C413.702 62.4941 413.607 62.4916 413.513 62.4883C413.443 62.4901 413.373 62.4941 413.304 62.4941H407.976C406.464 62.494 405.04 62.0701 403.823 61.3301C402.607 62.0697 401.183 62.4941 399.672 62.4941H394.824L394.822 62.4932L394.821 62.4941H389.396C388.202 62.494 387.052 62.2268 386.015 61.7422C384.986 62.2234 383.839 62.4941 382.629 62.4941H377.349C376.062 62.4941 374.847 62.1875 373.77 61.6475C371.596 62.5337 369.291 62.8779 367.092 62.8779C365.009 62.8779 362.845 62.5709 360.787 61.7998C359.792 62.2445 358.689 62.4941 357.528 62.4941H343.128C342.639 62.4941 342.16 62.4474 341.695 62.3633C341.231 62.4472 340.752 62.4941 340.264 62.4941H334.984C330.566 62.494 326.984 58.9124 326.984 54.4941V49.2783C325.987 48.9922 325.005 48.6083 324.061 48.1074C323.268 48.5136 322.451 48.8376 321.625 49.0908V54.4941C321.625 58.9124 318.043 62.4941 313.625 62.4941H308.345C307.038 62.494 305.806 62.1785 304.717 61.623C302.527 62.5201 300.199 62.8779 297.95 62.8779C294.884 62.8778 291.672 62.2154 288.863 60.4238C286.115 61.9719 283.052 62.4941 280.226 62.4941H271.922C270.671 62.4941 269.487 62.2062 268.433 61.6943C267.378 62.206 266.195 62.4941 264.944 62.4941H259.665C255.247 62.494 251.665 58.9124 251.665 54.4941V47.0312C250.599 47.5569 249.4 47.8544 248.132 47.8545H201.145L202.005 53.2305C202.375 55.5434 201.712 57.9022 200.192 59.6846C198.672 61.4669 196.448 62.4941 194.105 62.4941H188.777C187.266 62.4941 185.842 62.07 184.625 61.3301C183.409 62.0698 181.985 62.4941 180.474 62.4941H175.625C173.711 62.494 171.876 61.8088 170.439 60.5859C169.043 61.7744 167.236 62.494 165.259 62.4941H159.979C159.61 62.4941 159.248 62.4671 158.893 62.4189C158.538 62.4671 158.175 62.4941 157.807 62.4941H143.407C141 62.4941 138.843 61.4295 137.376 59.7471C135.909 61.429 133.753 62.494 131.347 62.4941H126.066C122.797 62.4941 119.987 60.532 118.746 57.7217C118.635 57.8525 118.522 57.9839 118.405 58.1123L118.404 58.1113C115.121 61.7112 110.7 62.8779 106.641 62.8779C103.663 62.8779 100.522 62.2506 97.7598 60.5361C94.9944 62.2422 91.8548 62.8779 88.8545 62.8779C86.601 62.8779 84.2686 62.519 82.0752 61.6182C80.9838 62.1763 79.7485 62.4941 78.4385 62.4941H73.4463C72.8193 62.4941 72.2095 62.4197 71.624 62.2832C71.0362 62.4207 70.425 62.4941 69.7988 62.4941H64.8066C64.1311 62.4941 63.4731 62.4075 62.8428 62.248C62.212 62.408 61.5515 62.4941 60.8711 62.4941H56.2627C55.0117 62.4941 53.828 62.2063 52.7734 61.6943C51.7193 62.2058 50.5365 62.4941 49.2861 62.4941H44.0059C43.0308 62.4941 42.0964 62.3194 41.2324 62C40.3581 62.3215 39.4255 62.4941 38.4727 62.4941H33.1445C31.633 62.4941 30.2088 62.0709 28.9922 61.3311C27.7758 62.0706 26.3521 62.4941 24.8408 62.4941H19.9932C17.6507 62.4941 15.4252 61.467 13.9053 59.6846C12.3856 57.9022 11.7228 55.5433 12.0928 53.2305L17.4688 19.6299L17.5352 19.2695C18.2997 15.5737 21.5616 12.8946 25.3691 12.8945H33.0967C34.0372 12.8945 34.9436 13.0604 35.7881 13.3623C36.6309 13.0604 37.5387 12.8946 38.4854 12.8945H54.8057C55.0512 12.8945 55.2943 12.9071 55.5342 12.9287C55.7741 12.907 56.0171 12.8945 56.2627 12.8945H63.6064C64.9511 12.8945 66.2279 13.229 67.3506 13.8242C68.4729 13.229 69.7494 12.8946 71.0947 12.8945H78.4385C79.7551 12.8945 80.9964 13.2149 82.0918 13.7783C84.2736 12.8759 86.5981 12.5098 88.8545 12.5098C91.8692 12.5098 95.0053 13.1612 97.7598 14.877C100.511 13.1531 103.648 12.5098 106.641 12.5098C110.163 12.5098 113.925 13.4024 116.987 15.9609C118.183 15.4987 119.414 15.1978 120.637 15.0205C122.063 13.7013 123.97 12.8946 126.066 12.8945H131.347C133.443 12.8946 135.35 13.7027 136.776 15.0225C137.114 15.0716 137.453 15.1292 137.791 15.1982C139.235 13.774 141.218 12.8946 143.407 12.8945H157.807C158.175 12.8945 158.538 12.9216 158.893 12.9697C159.248 12.9215 159.61 12.8945 159.979 12.8945H167.754C170.398 12.8945 173.272 13.3699 175.877 14.7529C177.274 13.5874 179.066 12.8946 181.001 12.8945H188.729L189.096 12.9023C192.866 13.0734 196.027 15.8703 196.629 19.6299L197.942 27.8389C198.638 27.6413 199.373 27.5342 200.132 27.5342H246.359C246.22 26.9433 246.145 26.3276 246.145 25.6943V20.8945C246.145 16.4763 249.726 12.8947 254.145 12.8945H270.465C270.71 12.8945 270.953 12.9071 271.192 12.9287C271.432 12.907 271.676 12.8945 271.922 12.8945H279.89C282.66 12.8946 285.907 13.3563 288.783 15.042C291.599 13.2015 294.84 12.5099 297.95 12.5098C300.203 12.5098 302.523 12.8746 304.701 13.7734C305.794 13.213 307.032 12.8946 308.345 12.8945H316.121C317.737 12.8945 319.439 13.0721 321.113 13.5254C322.072 13.1192 323.126 12.8946 324.232 12.8945H329.512C330.473 12.8945 331.394 13.0644 332.248 13.375C333.102 13.0643 334.023 12.8946 334.984 12.8945H340.264C340.752 12.8945 341.231 12.9415 341.695 13.0254C342.16 12.9413 342.639 12.8946 343.128 12.8945H357.528C358.695 12.8945 359.803 13.1465 360.803 13.5957C362.85 12.8232 365.006 12.5098 367.092 12.5098ZM91.8525 54.4795C91.6119 54.5513 91.3635 54.6147 91.1064 54.667L91.5146 54.5742C91.6292 54.5453 91.7415 54.5126 91.8525 54.4795ZM73.4463 30.4043V54.4941L73.4473 30.3984L73.4463 30.4043ZM308.345 54.4941H308.346V20.8945H308.345V54.4941ZM343.128 54.4941H343.129V20.8945H343.128V54.4941ZM377.349 54.4941H377.35V20.8945H377.349V54.4941ZM91.9854 54.4375C92.0667 54.4117 92.1472 54.3855 92.2266 54.3574C92.1472 54.3855 92.0667 54.4117 91.9854 54.4375ZM92.3174 54.3252C92.4305 54.2835 92.5422 54.2407 92.6514 54.1943C92.5422 54.2407 92.4306 54.2835 92.3174 54.3252ZM93.874 53.5156C93.9092 53.491 93.9439 53.4657 93.9785 53.4404C93.9439 53.4657 93.9092 53.491 93.874 53.5156ZM94.1729 53.293C94.2051 53.2674 94.2368 53.2411 94.2686 53.2148C94.2368 53.2411 94.2052 53.2674 94.1729 53.293ZM94.4834 53.0293C94.4998 53.0144 94.5169 53.0004 94.5332 52.9854C94.517 53.0004 94.4998 53.0144 94.4834 53.0293ZM95.8945 51.1553C95.8355 51.2715 95.7744 51.3857 95.71 51.4971L95.8955 51.1553C95.9546 51.0389 96.0107 50.92 96.0645 50.7988L95.8945 51.1553ZM368.097 49.9287C368.174 49.9088 368.249 49.8842 368.322 49.8584C368.249 49.8842 368.174 49.9088 368.097 49.9287ZM368.398 49.8301C368.447 49.8111 368.495 49.7903 368.542 49.7686C368.495 49.7903 368.447 49.8111 368.398 49.8301ZM369.203 49.3105C369.167 49.3469 369.127 49.3795 369.089 49.4131C369.127 49.3793 369.168 49.3471 369.204 49.3105C369.249 49.2681 369.291 49.2211 369.332 49.1729C369.291 49.2213 369.249 49.268 369.203 49.3105ZM369.539 48.8818C369.515 48.9233 369.49 48.9633 369.464 49.002C369.427 49.0569 369.387 49.1081 369.346 49.1572C369.416 49.0731 369.482 48.9819 369.54 48.8809L369.539 48.8818ZM282.328 48.8799C282.3 48.9128 282.271 48.9446 282.241 48.9746L282.329 48.8799C282.357 48.847 282.384 48.8123 282.41 48.7764L282.328 48.8799ZM91.4434 48.1602L91.4824 47.9854C91.4872 47.9616 91.4897 47.9373 91.4941 47.9131C91.4785 47.998 91.463 48.0806 91.4434 48.1602ZM109.521 46.7666C109.52 47.0919 109.501 47.3906 109.464 47.6631C109.501 47.3906 109.521 47.0919 109.521 46.7666V41.9658H109.521V46.7666ZM91.5176 47.7734C91.5261 47.7182 91.534 47.6619 91.541 47.6045C91.5341 47.6619 91.5261 47.7182 91.5176 47.7734ZM364.537 47.5225C364.542 47.5687 364.546 47.6143 364.552 47.6592C364.546 47.6143 364.542 47.5687 364.537 47.5225ZM91.5566 47.4658C91.5649 47.3811 91.5721 47.2942 91.5771 47.2051C91.5721 47.2942 91.5648 47.3811 91.5566 47.4658ZM80.8857 27.7637C80.8539 28.147 80.8379 28.5452 80.8379 28.958V46.4297C80.8379 46.5998 80.8411 46.7674 80.8467 46.9326L80.8389 46.4297V28.958C80.8389 28.5452 80.8541 28.147 80.8857 27.7637ZM364.511 47.2051C364.512 47.2367 364.516 47.2678 364.519 47.2988C364.515 47.2453 364.511 47.191 364.509 47.1357L364.511 47.2051ZM91.5898 28.6221V46.7666C91.5898 46.8942 91.5867 47.0179 91.5811 47.1377C91.5868 47.0179 91.5908 46.8942 91.5908 46.7666V28.6221C91.5908 28.4702 91.5863 28.324 91.5781 28.1836L91.5898 28.6221ZM98.7686 46.4297H98.7695V28.958H98.7686V46.4297ZM117.168 45.9199C117.18 45.9373 117.194 45.9535 117.207 45.9707C117.177 45.9291 117.147 45.8873 117.117 45.8447C117.134 45.8697 117.15 45.8953 117.168 45.9199ZM116.94 45.5752C116.962 45.6104 116.985 45.6451 117.007 45.6797C116.984 45.6451 116.962 45.6104 116.94 45.5752ZM415.093 40.7666C415.033 40.9185 414.977 41.0749 414.925 41.2354C414.977 41.0748 415.034 40.9186 415.094 40.7666C415.116 40.7126 415.139 40.6592 415.163 40.6064C415.139 40.6593 415.115 40.7124 415.093 40.7666ZM321.513 40.2529C321.422 40.3297 321.329 40.4042 321.233 40.4756C321.426 40.3327 321.607 40.1785 321.777 40.0137L321.513 40.2529ZM424.933 36.0137H424.934V25.6943H424.933V36.0137ZM318.671 28.0225C318.685 28.1503 318.695 28.2841 318.702 28.4238C318.709 28.564 318.713 28.7101 318.713 28.8623V33.9023C318.713 34.2442 318.696 34.5558 318.66 34.8369C318.696 34.5558 318.714 34.2442 318.714 33.9023V28.8623C318.714 28.4063 318.681 28.0043 318.618 27.6562C318.639 27.7723 318.657 27.8944 318.671 28.0225ZM109.521 28.6221V32.2217L109.521 28.6221C109.521 28.4702 109.517 28.324 109.509 28.1836L109.521 28.6221ZM80.9111 27.4951C80.9056 27.5482 80.9014 27.6016 80.8965 27.6553C80.9099 27.5082 80.9262 27.3634 80.9443 27.2207C80.933 27.3114 80.9208 27.4027 80.9111 27.4951ZM80.9668 27.0381C80.9625 27.0679 80.9591 27.0979 80.9551 27.1279C80.9795 26.9469 81.0078 26.7695 81.04 26.5957L80.9668 27.0381ZM369.203 26.0781H369.204C369.146 26.0163 369.085 25.9595 369.021 25.9053C369.084 25.9594 369.145 26.0165 369.203 26.0781ZM368.998 25.8857C368.945 25.8414 368.89 25.7999 368.834 25.7607C368.89 25.8 368.945 25.8414 368.998 25.8857ZM279.745 25.6943C279.89 25.6943 280.029 25.7007 280.162 25.7139C280.03 25.7007 279.891 25.6943 279.746 25.6943H279.745ZM368.793 25.7324C368.727 25.6888 368.659 25.6473 368.589 25.6104C368.66 25.6473 368.727 25.6886 368.793 25.7324ZM38.4854 25.6943H38.4863V20.8945H38.4854V25.6943ZM117.618 24.9258C117.458 25.1018 117.308 25.2879 117.168 25.4844L117.169 25.4854C117.309 25.2888 117.458 25.1018 117.618 24.9258ZM297.95 25.3105C298.053 25.3105 298.153 25.3144 298.251 25.3223C298.154 25.3144 298.054 25.3106 297.951 25.3105H297.95ZM81.8145 24.2549C81.8068 24.2698 81.7996 24.2849 81.792 24.2998C81.8086 24.267 81.8257 24.2346 81.8428 24.2021C81.8335 24.2198 81.8236 24.2371 81.8145 24.2549ZM82.0166 23.8896C82.003 23.9126 81.9899 23.9358 81.9766 23.959C81.9899 23.9358 82.003 23.9126 82.0166 23.8896ZM100.737 22.7178C100.573 22.8978 100.42 23.0881 100.276 23.2881L100.499 22.9961C100.576 22.901 100.655 22.8078 100.737 22.7178ZM136.131 23.0205L135.706 22.9463C135.702 22.9457 135.699 22.9449 135.695 22.9443C135.843 22.9666 135.988 22.9924 136.131 23.0205ZM93.6885 21.7715C93.8883 21.9043 94.0802 22.0464 94.2627 22.2002C94.1671 22.1198 94.069 22.0425 93.9688 21.9678C93.8775 21.8997 93.7837 21.8348 93.6885 21.7715ZM93.6104 21.7207C93.5393 21.6749 93.4668 21.6311 93.3936 21.5879C93.4668 21.6311 93.5393 21.6749 93.6104 21.7207ZM85.0576 21.208C84.8192 21.3115 84.5906 21.4272 84.3711 21.5537L84.707 21.373C84.8217 21.3155 84.9382 21.2598 85.0576 21.208ZM93.3008 21.5332C93.2028 21.4776 93.1037 21.4231 93.002 21.3721C93.1036 21.4231 93.2028 21.4776 93.3008 21.5332ZM363.311 21.208C363.295 21.2149 363.279 21.2225 363.264 21.2295C363.311 21.2083 363.359 21.1882 363.407 21.168C363.375 21.1815 363.342 21.194 363.311 21.208ZM91.917 20.9355C92.171 21.0153 92.4159 21.1058 92.6514 21.208C92.5323 21.1563 92.4109 21.1075 92.2871 21.0615C92.1661 21.0166 92.0426 20.9749 91.917 20.9355ZM363.672 21.0615C363.637 21.0747 363.602 21.0899 363.567 21.1035C363.621 21.0824 363.675 21.061 363.729 21.041L363.672 21.0615ZM91.5068 20.8184C91.6397 20.8526 91.7702 20.8898 91.8984 20.9297C91.7702 20.8898 91.6398 20.8525 91.5068 20.8184ZM91.0918 20.7227C90.9823 20.7001 90.8712 20.6801 90.7588 20.6611C90.8712 20.6801 90.9823 20.7001 91.0918 20.7227ZM87.4609 20.5879C87.4423 20.5901 87.4238 20.5925 87.4053 20.5947C87.4583 20.5882 87.5118 20.5829 87.5654 20.5771C87.5305 20.5809 87.4956 20.5838 87.4609 20.5879ZM105.249 20.5879C105.231 20.59 105.213 20.5926 105.195 20.5947C105.246 20.5884 105.298 20.5827 105.35 20.5771C105.316 20.5808 105.282 20.584 105.249 20.5879ZM87.9111 20.5439C87.8715 20.5469 87.8322 20.5512 87.793 20.5547C87.8522 20.5496 87.9117 20.5443 87.9717 20.54L87.9111 20.5439ZM105.698 20.5439C105.66 20.5468 105.622 20.5514 105.584 20.5547C105.641 20.5497 105.699 20.5442 105.757 20.54L105.698 20.5439ZM91.5068 20.8184C91.3839 20.7868 91.2588 20.7582 91.1318 20.7314C91.2588 20.7582 91.3839 20.7867 91.5068 20.8184Z"
            fill="#E54B39" />
    </g>
    <path
        d="M38.4737 54.4941H33.1457L32.2337 48.3981H25.7537L24.8417 54.4941H19.9937L25.3697 20.8941H33.0977L38.4737 54.4941ZM26.4257 43.8381H31.5137L28.9697 26.8461L26.4257 43.8381ZM38.4868 20.8941H54.8068V25.6941H49.2868V54.4941H44.0068V25.6941H38.4868V20.8941ZM67.4957 44.7501L71.0957 20.8941H78.4397V54.4941H73.4477V30.3981L69.7997 54.4941H64.8077L60.8717 30.7341V54.4941H56.2637V20.8941H63.6077L67.4957 44.7501ZM86.1193 46.7661C86.1193 47.9821 86.3593 48.8461 86.8393 49.3581C87.3513 49.8381 88.0233 50.0781 88.8553 50.0781C89.6873 50.0781 90.3433 49.8381 90.8233 49.3581C91.3353 48.8461 91.5913 47.9821 91.5913 46.7661V28.6221C91.5913 27.4061 91.3353 26.5581 90.8233 26.0781C90.3433 25.5661 89.6873 25.3101 88.8553 25.3101C88.0233 25.3101 87.3513 25.5661 86.8393 26.0781C86.3593 26.5581 86.1193 27.4061 86.1193 28.6221V46.7661ZM80.8393 28.9581C80.8393 26.2381 81.5273 24.1581 82.9033 22.7181C84.2793 21.2461 86.2633 20.5101 88.8553 20.5101C91.4473 20.5101 93.4313 21.2461 94.8073 22.7181C96.1833 24.1581 96.8713 26.2381 96.8713 28.9581V46.4301C96.8713 49.1501 96.1833 51.2461 94.8073 52.7181C93.4313 54.1581 91.4473 54.8781 88.8553 54.8781C86.2633 54.8781 84.2793 54.1581 82.9033 52.7181C81.5273 51.2461 80.8393 49.1501 80.8393 46.4301V28.9581ZM114.514 41.9661V46.4301C114.514 49.1501 113.842 51.2461 112.498 52.7181C111.186 54.1581 109.234 54.8781 106.642 54.8781C104.05 54.8781 102.082 54.1581 100.738 52.7181C99.4259 51.2461 98.7699 49.1501 98.7699 46.4301V28.9581C98.7699 26.2381 99.4259 24.1581 100.738 22.7181C102.082 21.2461 104.05 20.5101 106.642 20.5101C109.234 20.5101 111.186 21.2461 112.498 22.7181C113.842 24.1581 114.514 26.2381 114.514 28.9581V32.2221H109.522V28.6221C109.522 27.4061 109.266 26.5581 108.754 26.0781C108.274 25.5661 107.618 25.3101 106.786 25.3101C105.954 25.3101 105.282 25.5661 104.77 26.0781C104.29 26.5581 104.05 27.4061 104.05 28.6221V46.7661C104.05 47.9821 104.29 48.8301 104.77 49.3101C105.282 49.7901 105.954 50.0301 106.786 50.0301C107.618 50.0301 108.274 49.7901 108.754 49.3101C109.266 48.8301 109.522 47.9821 109.522 46.7661V41.9661H114.514ZM126.067 48.5901H123.571C120.915 48.5901 118.931 47.8861 117.619 46.4781C116.339 45.0701 115.699 43.0061 115.699 40.2861V31.1181C115.699 28.3981 116.339 26.3341 117.619 24.9261C118.931 23.5181 120.915 22.8141 123.571 22.8141H126.067V20.8941H131.347V22.8141H133.843C136.499 22.8141 138.467 23.5181 139.747 24.9261C141.059 26.3341 141.715 28.3981 141.715 31.1181V40.2861C141.715 43.0061 141.059 45.0701 139.747 46.4781C138.467 47.8861 136.499 48.5901 133.843 48.5901H131.347V54.4941H126.067V48.5901ZM131.347 27.6141V43.7901H133.843C134.675 43.7901 135.315 43.5661 135.763 43.1181C136.211 42.6701 136.435 41.8381 136.435 40.6221V30.7821C136.435 29.5661 136.211 28.7341 135.763 28.2861C135.315 27.8381 134.675 27.6141 133.843 27.6141H131.347ZM123.571 27.6141C122.739 27.6141 122.099 27.8381 121.651 28.2861C121.203 28.7341 120.979 29.5661 120.979 30.7821V40.6221C120.979 41.8381 121.203 42.6701 121.651 43.1181C122.099 43.5661 122.739 43.7901 123.571 43.7901H126.067V27.6141H123.571ZM148.688 35.0541H155.936V39.8541H148.688V49.6941H157.808V54.4941H143.408V20.8941H157.808V25.6941H148.688V35.0541ZM167.755 20.8941C170.411 20.8941 172.379 21.5981 173.659 23.0061C174.971 24.4141 175.627 26.4781 175.627 29.1981V33.5661C175.627 36.2861 174.971 38.3501 173.659 39.7581C172.379 41.1661 170.411 41.8701 167.755 41.8701H165.259V54.4941H159.979V20.8941H167.755ZM165.259 25.6941V37.0701H167.755C168.587 37.0701 169.227 36.8461 169.675 36.3981C170.123 35.9501 170.347 35.1181 170.347 33.9021V28.8621C170.347 27.6461 170.123 26.8141 169.675 26.3661C169.227 25.9181 168.587 25.6941 167.755 25.6941H165.259ZM194.106 54.4941H188.778L187.866 48.3981H181.386L180.474 54.4941H175.626L181.002 20.8941H188.73L194.106 54.4941ZM182.058 43.8381H187.146L184.602 26.8461L182.058 43.8381ZM200.132 35.5341H248.132V39.8541H200.132V35.5341ZM254.146 20.8941H270.466V25.6941H264.946V54.4941H259.666V25.6941H254.146V20.8941ZM279.89 20.8941C282.642 20.8941 284.626 21.5341 285.842 22.8141C287.09 24.0941 287.714 26.0301 287.714 28.6221V29.8221C287.714 31.5501 287.442 32.9741 286.898 34.0941C286.354 35.2141 285.49 36.0461 284.306 36.5901C285.746 37.1341 286.754 38.0301 287.33 39.2781C287.938 40.4941 288.242 41.9981 288.242 43.7901V46.5261C288.242 49.1181 287.57 51.1021 286.226 52.4781C284.882 53.8221 282.882 54.4941 280.226 54.4941H271.922V20.8941H279.89ZM277.202 39.3741V49.6941H280.226C281.122 49.6941 281.794 49.4541 282.242 48.9741C282.722 48.4941 282.962 47.6301 282.962 46.3821V43.4541C282.962 41.8861 282.69 40.8141 282.146 40.2381C281.634 39.6621 280.77 39.3741 279.554 39.3741H277.202ZM277.202 25.6941V34.5741H279.266C280.258 34.5741 281.026 34.3181 281.57 33.8061C282.146 33.2941 282.434 32.3661 282.434 31.0221V29.1501C282.434 27.9341 282.21 27.0541 281.762 26.5101C281.346 25.9661 280.674 25.6941 279.746 25.6941H277.202ZM295.216 46.7661C295.216 47.9821 295.456 48.8461 295.936 49.3581C296.448 49.8381 297.12 50.0781 297.952 50.0781C298.784 50.0781 299.44 49.8381 299.92 49.3581C300.432 48.8461 300.688 47.9821 300.688 46.7661V28.6221C300.688 27.4061 300.432 26.5581 299.92 26.0781C299.44 25.5661 298.784 25.3101 297.952 25.3101C297.12 25.3101 296.448 25.5661 295.936 26.0781C295.456 26.5581 295.216 27.4061 295.216 28.6221V46.7661ZM289.936 28.9581C289.936 26.2381 290.624 24.1581 292 22.7181C293.376 21.2461 295.36 20.5101 297.952 20.5101C300.544 20.5101 302.528 21.2461 303.904 22.7181C305.28 24.1581 305.968 26.2381 305.968 28.9581V46.4301C305.968 49.1501 305.28 51.2461 303.904 52.7181C302.528 54.1581 300.544 54.8781 297.952 54.8781C295.36 54.8781 293.376 54.1581 292 52.7181C290.624 51.2461 289.936 49.1501 289.936 46.4301V28.9581ZM316.122 20.8941C318.778 20.8941 320.746 21.5981 322.026 23.0061C323.338 24.4141 323.994 26.4781 323.994 29.1981V33.5661C323.994 36.2861 323.338 38.3501 322.026 39.7581C320.746 41.1661 318.778 41.8701 316.122 41.8701H313.626V54.4941H308.346V20.8941H316.122ZM313.626 25.6941V37.0701H316.122C316.954 37.0701 317.594 36.8461 318.042 36.3981C318.49 35.9501 318.714 35.1181 318.714 33.9021V28.8621C318.714 27.6461 318.49 26.8141 318.042 26.3661C317.594 25.9181 316.954 25.6941 316.122 25.6941H313.626ZM329.513 20.8941V33.8541C329.513 35.0701 329.753 35.9181 330.233 36.3981C330.745 36.8781 331.417 37.1181 332.249 37.1181C333.049 37.1181 333.689 36.9101 334.169 36.4941C334.649 36.0461 334.921 35.2941 334.985 34.2381V20.8941H340.265V54.4941H334.985V41.5821C334.537 41.7421 334.073 41.8541 333.593 41.9181C333.145 41.9501 332.649 41.9661 332.105 41.9661C329.513 41.9661 327.545 41.2461 326.201 39.8061C324.889 38.3341 324.233 36.2381 324.233 33.5181V20.8941H329.513ZM348.409 35.0541H355.657V39.8541H348.409V49.6941H357.529V54.4941H343.129V20.8941H357.529V25.6941H348.409V35.0541ZM374.965 41.9661V46.4301C374.965 49.1501 374.293 51.2461 372.949 52.7181C371.637 54.1581 369.685 54.8781 367.093 54.8781C364.501 54.8781 362.533 54.1581 361.189 52.7181C359.877 51.2461 359.221 49.1501 359.221 46.4301V28.9581C359.221 26.2381 359.877 24.1581 361.189 22.7181C362.533 21.2461 364.501 20.5101 367.093 20.5101C369.685 20.5101 371.637 21.2461 372.949 22.7181C374.293 24.1581 374.965 26.2381 374.965 28.9581V32.2221H369.973V28.6221C369.973 27.4061 369.717 26.5581 369.205 26.0781C368.725 25.5661 368.069 25.3101 367.237 25.3101C366.405 25.3101 365.733 25.5661 365.221 26.0781C364.741 26.5581 364.501 27.4061 364.501 28.6221V46.7661C364.501 47.9821 364.741 48.8301 365.221 49.3101C365.733 49.7901 366.405 50.0301 367.237 50.0301C368.069 50.0301 368.725 49.7901 369.205 49.3101C369.717 48.8301 369.973 47.9821 369.973 46.7661V41.9661H374.965ZM384.262 41.1021L382.63 44.1741V54.4941H377.35V20.8941H382.63V35.5341L389.638 20.8941H394.822L387.478 35.8701L394.822 54.4941H389.398L384.262 41.1021ZM413.305 54.4941H407.977L407.065 48.3981H400.585L399.673 54.4941H394.825L400.201 20.8941H407.929L413.305 54.4941ZM401.257 43.8381H406.345L403.801 26.8461L401.257 43.8381ZM422.39 25.6941C421.462 25.6941 420.774 25.9661 420.326 26.5101C419.91 27.0541 419.702 27.9341 419.702 29.1501V32.4621C419.702 33.8061 419.974 34.7341 420.518 35.2461C421.094 35.7581 421.878 36.0141 422.87 36.0141H424.934V25.6941H422.39ZM413.798 54.4941C414.054 53.8541 414.214 53.2301 414.278 52.6221C414.342 51.9821 414.374 51.2461 414.374 50.4141V45.2301C414.374 43.4701 414.614 41.9821 415.094 40.7661C415.606 39.5181 416.534 38.6221 417.878 38.0781C415.574 36.9901 414.422 34.7181 414.422 31.2621V28.6221C414.422 26.0301 415.03 24.0941 416.246 22.8141C417.494 21.5341 419.494 20.8941 422.246 20.8941H430.214V54.4941H424.934V40.8141H423.11C421.894 40.8141 421.014 41.1341 420.47 41.7741C419.926 42.4141 419.654 43.5181 419.654 45.0861V50.3661C419.654 51.0381 419.638 51.5981 419.606 52.0461C419.606 52.4941 419.574 52.8621 419.51 53.1501C419.478 53.4381 419.43 53.6781 419.366 53.8701C419.302 54.0621 419.238 54.2701 419.174 54.4941H413.798Z"
        fill="white" />
    <defs>
        <filter id="filter0_iii_611_9307" x="9.99219" y="10.5098" width="430.221" height="54.3682"
            filterUnits="userSpaceOnUse" color-interpolation-filters="sRGB">
            <feFlood flood-opacity="0" result="BackgroundImageFix" />
            <feBlend mode="normal" in="SourceGraphic" in2="BackgroundImageFix" result="shape" />
            <feColorMatrix in="SourceAlpha" type="matrix" values="0 0 0 0 0 0 0 0 0 0 0 0 0 0 0 0 0 0 127 0"
                result="hardAlpha" />
            <feOffset dx="2" dy="2" />
            <feGaussianBlur stdDeviation="2" />
            <feComposite in2="hardAlpha" operator="arithmetic" k2="-1" k3="1" />
            <feColorMatrix type="matrix" values="0 0 0 0 0.94902 0 0 0 0 0.540941 0 0 0 0 0.638324 0 0 0 1 0" />
            <feBlend mode="normal" in2="shape" result="effect1_innerShadow_611_9307" />
            <feColorMatrix in="SourceAlpha" type="matrix" values="0 0 0 0 0 0 0 0 0 0 0 0 0 0 0 0 0 0 127 0"
                result="hardAlpha" />
            <feOffset dx="-2" dy="-2" />
            <feGaussianBlur stdDeviation="2" />
            <feComposite in2="hardAlpha" operator="arithmetic" k2="-1" k3="1" />
            <feColorMatrix type="matrix" values="0 0 0 0 0.75 0 0 0 0 0.204545 0 0 0 0 0.334711 0 0 0 1 0" />
            <feBlend mode="normal" in2="effect1_innerShadow_611_9307" result="effect2_innerShadow_611_9307" />
            <feColorMatrix in="SourceAlpha" type="matrix" values="0 0 0 0 0 0 0 0 0 0 0 0 0 0 0 0 0 0 127 0"
                result="hardAlpha" />
            <feOffset dx="2" dy="2" />
            <feGaussianBlur stdDeviation="2" />
            <feComposite in2="hardAlpha" operator="arithmetic" k2="-1" k3="1" />
            <feColorMatrix type="matrix" values="0 0 0 0 0.944286 0 0 0 0 0.614286 0 0 0 0 0.575714 0 0 0 1 0" />
            <feBlend mode="normal" in2="effect2_innerShadow_611_9307" result="effect3_innerShadow_611_9307" />
        </filter>
    </defs>
</svg>