<svg width="32" height="33" viewBox="0 0 32 33" fill="none" xmlns="http://www.w3.org/2000/svg">
    <g filter="url(#filter0_ii_2017_19639)">
        <path
            d="M13.9606 3.00122C15.0192 1.72171 16.9808 1.72171 18.0394 3.00122V3.00122C18.7573 3.86899 19.9457 4.18742 21.0013 3.79487V3.79487C22.5578 3.21605 24.2566 4.19688 24.5336 5.83424V5.83424C24.7214 6.9447 25.5914 7.81468 26.7019 8.00253V8.00253C28.3393 8.2795 29.3201 9.97834 28.7413 11.5348V11.5348C28.3487 12.5904 28.6671 13.7789 29.5349 14.4968V14.4968C30.8144 15.5553 30.8144 17.517 29.5349 18.5755V18.5755C28.6671 19.2934 28.3487 20.4818 28.7413 21.5374V21.5374C29.3201 23.0939 28.3393 24.7928 26.7019 25.0697V25.0697C25.5914 25.2576 24.7214 26.1276 24.5336 27.238V27.238C24.2566 28.8754 22.5578 29.8562 21.0013 29.2774V29.2774C19.9457 28.8848 18.7573 29.2033 18.0394 30.071V30.071C16.9808 31.3506 15.0192 31.3506 13.9606 30.071V30.071C13.2427 29.2033 12.0543 28.8848 10.9987 29.2774V29.2774C9.44221 29.8562 7.74336 28.8754 7.46639 27.238V27.238C7.27855 26.1276 6.40857 25.2576 5.29811 25.0697V25.0697C3.66075 24.7928 2.67992 23.0939 3.25873 21.5374V21.5374C3.65129 20.4818 3.33285 19.2934 2.46509 18.5755V18.5755C1.18557 17.517 1.18557 15.5553 2.46509 14.4968V14.4968C3.33285 13.7789 3.65129 12.5904 3.25873 11.5348V11.5348C2.67992 9.97834 3.66075 8.2795 5.29811 8.00253V8.00253C6.40857 7.81468 7.27855 6.9447 7.46639 5.83424V5.83424C7.74336 4.19688 9.44221 3.21605 10.9987 3.79487V3.79487C12.0543 4.18742 13.2427 3.86899 13.9606 3.00122V3.00122Z"
            fill="#009EE3" />
    </g>
    <defs>
        <filter id="filter0_ii_2017_19639" x="0.505859" y="1.04199" width="30.9883" height="30.9883"
            filterUnits="userSpaceOnUse" color-interpolation-filters="sRGB">
            <feFlood flood-opacity="0" result="BackgroundImageFix" />
            <feBlend mode="normal" in="SourceGraphic" in2="BackgroundImageFix" result="shape" />
            <feColorMatrix in="SourceAlpha" type="matrix" values="0 0 0 0 0 0 0 0 0 0 0 0 0 0 0 0 0 0 127 0"
                result="hardAlpha" />
            <feOffset dx="1" dy="1" />
            <feGaussianBlur stdDeviation="1" />
            <feComposite in2="hardAlpha" operator="arithmetic" k2="-1" k3="1" />
            <feColorMatrix type="matrix" values="0 0 0 0 0.3 0 0 0 0 0.790308 0 0 0 0 1 0 0 0 1 0" />
            <feBlend mode="normal" in2="shape" result="effect1_innerShadow_2017_19639" />
            <feColorMatrix in="SourceAlpha" type="matrix" values="0 0 0 0 0 0 0 0 0 0 0 0 0 0 0 0 0 0 127 0"
                result="hardAlpha" />
            <feOffset dx="-1" dy="-1" />
            <feGaussianBlur stdDeviation="1" />
            <feComposite in2="hardAlpha" operator="arithmetic" k2="-1" k3="1" />
            <feColorMatrix type="matrix" values="0 0 0 0 0 0 0 0 0 0.483304 0 0 0 0 0.69 0 0 0 1 0" />
            <feBlend mode="normal" in2="effect1_innerShadow_2017_19639" result="effect2_innerShadow_2017_19639" />
        </filter>
    </defs>
</svg>