<svg width="480" height="242" viewBox="0 0 480 242" fill="none" xmlns="http://www.w3.org/2000/svg">
<g clip-path="url(#clip0_599_2297)">
<path d="M25.0308 37.4322L18.6079 40.2847C14.6974 42.0226 11.2687 42.4099 8.32174 41.4275C5.37476 40.4452 3.07951 38.0933 1.4171 34.3718C-0.245299 30.6409 -0.453099 27.3634 0.793703 24.5203C2.04051 21.6773 4.61912 19.3915 8.52954 17.6441L33.6639 6.46076C37.5744 4.72281 41.0031 4.33555 43.9501 5.31787C46.8971 6.30019 49.1923 8.65209 50.8547 12.3736C52.5171 16.1045 52.7155 19.3915 51.4781 22.2251C50.2313 25.0682 47.6527 27.3634 43.7423 29.1013L39.0479 31.1888L35.8553 24.0103L41.0314 21.7056C42.7788 20.9311 43.8556 20.0243 44.2523 18.9948C44.649 17.9652 44.5829 16.8507 44.0445 15.6511C43.5156 14.4515 42.7316 13.6581 41.702 13.2614C40.6725 12.8647 39.284 13.0536 37.5271 13.8376L11.4293 25.4554C9.68189 26.2299 8.61455 27.1272 8.24618 28.1568C7.87781 29.1769 7.95337 30.282 8.48232 31.4816C9.01126 32.6811 9.78579 33.484 10.7965 33.8807C11.8071 34.2868 13.1862 34.0979 14.9336 33.3234L21.8382 30.2537L25.0308 37.4322Z" fill="#1C1456"/>
<path d="M14.2634 58.8163L56.0973 26.447L61.179 33.021L45.4617 45.1866L47.8703 48.2942C50.4301 51.6001 51.4596 54.7359 50.9496 57.7112C50.4395 60.6865 48.5032 63.4729 45.1123 66.0987L39.6717 70.3019C36.2807 72.9277 33.0882 74.1084 30.0845 73.8439C27.0809 73.5889 24.3039 71.8037 21.7442 68.4978L14.2539 58.8163H14.2634ZM27.7326 63.8696C28.5355 64.9086 29.4328 65.4848 30.4151 65.617C31.4069 65.7398 32.6537 65.2203 34.1744 64.0491L40.4462 59.1941C41.9575 58.0229 42.7792 56.9461 42.902 55.9544C43.0248 54.9626 42.6942 53.952 41.8914 52.913L39.4828 49.8054L25.3146 60.7621L27.7137 63.8696H27.7326ZM73.6754 49.1537L78.7665 55.7277L36.9325 88.097L31.8508 81.523L73.6848 49.1537H73.6754Z" fill="#1C1456"/>
<path d="M90.979 65.5888C94.1526 68.309 95.7867 71.1804 95.8906 74.1935C95.9945 77.2066 94.6533 80.333 91.8668 83.5822L87.3897 88.7961C84.6033 92.0453 81.713 93.8493 78.7187 94.1988C75.7245 94.5483 72.6453 93.3676 69.4716 90.6379L66.4869 88.0782L53.5371 103.153L47.2275 97.7408L81.6846 57.6074L90.9695 65.5793L90.979 65.5888ZM83.0731 68.7624L71.4079 82.3449L74.3927 84.9046C75.3845 85.7546 76.3763 86.1513 77.3775 86.0758C78.3693 86.0002 79.4933 85.2351 80.7401 83.7806L85.9067 77.7639C87.1535 76.3093 87.7392 75.0908 87.6636 74.099C87.588 73.1073 87.0497 72.1816 86.0579 71.3221L83.0731 68.7624Z" fill="#1C1456"/>
<path d="M71.7484 117.661L76.3106 111.078L82.8941 115.64L78.8042 121.534L71.04 126.36L68.2441 124.424L74.3554 119.465L71.7484 117.652V117.661Z" fill="#1C1456"/>
<path d="M115.434 119.456L110.985 122.658L103.787 137.222L96.335 133.539L119.769 86.1135L127.222 89.7972L117.011 110.464L137.111 94.6899L144.431 98.3075L123.623 114.327L120.997 145.733L113.337 141.955L115.424 119.475L115.434 119.456Z" fill="#1C1456"/>
<path d="M140.974 110.407C142.372 106.364 144.479 103.606 147.274 102.152C150.07 100.697 153.395 100.631 157.249 101.972C161.103 103.313 163.681 105.41 164.975 108.291C166.269 111.163 166.222 114.629 164.815 118.672L155.813 144.665C154.415 148.708 152.309 151.466 149.513 152.921C146.717 154.375 143.392 154.441 139.539 153.1C135.685 151.768 133.106 149.662 131.812 146.781C130.518 143.91 130.565 140.443 131.973 136.401L140.974 110.407ZM139.652 139.621C139.029 141.435 138.953 142.833 139.435 143.825C139.916 144.816 140.776 145.525 142.013 145.959C143.251 146.384 144.365 146.365 145.357 145.874C146.349 145.393 147.161 144.25 147.784 142.436L157.135 115.451C157.759 113.637 157.834 112.239 157.353 111.248C156.871 110.256 156.011 109.547 154.774 109.113C153.537 108.688 152.422 108.707 151.43 109.188C150.439 109.67 149.626 110.813 149.003 112.627L139.652 139.612V139.621Z" fill="#1C1456"/>
<path d="M169.679 106.865L194.728 112.589L193.047 119.956L184.574 118.02L174.467 162.215L166.363 160.364L176.47 116.169L167.997 114.232L169.679 106.865Z" fill="#1C1456"/>
<path d="M193.954 125.312C194.473 121.061 195.947 117.935 198.374 115.914C200.802 113.902 204.041 113.137 208.093 113.637C212.146 114.129 215.102 115.649 216.982 118.181C218.852 120.721 219.532 124.112 219.012 128.363L215.688 155.669C215.168 159.92 213.695 163.056 211.267 165.067C208.84 167.079 205.6 167.844 201.548 167.353C197.496 166.862 194.53 165.341 192.66 162.81C190.789 160.269 190.109 156.878 190.629 152.628L193.954 125.321V125.312ZM198.818 154.149C198.582 156.047 198.818 157.436 199.489 158.305C200.169 159.174 201.16 159.684 202.464 159.844C203.767 160.005 204.844 159.74 205.723 159.06C206.592 158.38 207.139 157.086 207.376 155.188L210.833 126.833C211.059 124.934 210.833 123.546 210.162 122.677C209.482 121.808 208.49 121.298 207.187 121.137C205.883 120.976 204.797 121.241 203.928 121.921C203.059 122.601 202.511 123.895 202.275 125.794L198.818 154.149Z" fill="#1C1456"/>
<path d="M235.797 116.131C239.981 116.206 243.07 117.378 245.063 119.635C247.056 121.893 248.019 125.161 247.934 129.439L247.802 136.316C247.717 140.594 246.64 143.825 244.553 145.997C242.465 148.179 239.339 149.228 235.154 149.142L231.225 149.067L230.847 168.94L222.535 168.779L223.555 115.895L235.797 116.131ZM231.726 123.612L231.386 141.52L235.315 141.596C236.628 141.624 237.638 141.284 238.356 140.594C239.074 139.905 239.452 138.601 239.49 136.684L239.641 128.75C239.679 126.833 239.348 125.52 238.659 124.802C237.969 124.084 236.968 123.716 235.655 123.687L231.726 123.612Z" fill="#1C1456"/>
<path d="M255.283 169.223L249.645 116.632L257.909 115.744L260.025 135.503L263.936 135.088C268.092 134.644 271.303 135.409 273.57 137.402C275.837 139.386 277.197 142.512 277.65 146.772L278.387 153.61C278.841 157.87 278.179 161.204 276.385 163.632C274.59 166.05 271.615 167.486 267.459 167.929L255.283 169.233V169.223ZM266.646 160.411C267.95 160.269 268.913 159.816 269.537 159.041C270.16 158.267 270.377 156.926 270.17 155.018L269.329 147.131C269.121 145.232 268.63 143.967 267.855 143.334C267.081 142.71 266.042 142.465 264.738 142.606L260.828 143.022L262.736 160.827L266.646 160.411ZM278.198 113.581L286.463 112.693L292.092 165.285L283.828 166.173L278.198 113.581Z" fill="#1C1456"/>
<path d="M311.163 160.921L302.879 163.008L289.977 111.711L297.155 109.906L304.882 140.613L305.439 107.829L315.555 105.288L328.457 156.586L321.203 158.409L311.862 121.26L311.172 160.94L311.163 160.921ZM309.51 97.363L311.021 103.37L293.282 107.829L291.771 101.821L309.51 97.363Z" fill="#1C1456"/>
<path d="M357.076 146.432L349.397 150.163L347.008 118.738L326.312 102.567L333.652 99.0064L353.506 114.827L343.513 94.227L351.06 90.5622L361.053 111.163L360.921 85.7828L368.26 82.2219L368.147 108.48L391.345 129.817L383.665 133.548L367.193 118.105L366.994 123.413L374.154 138.167L366.607 141.832L359.447 127.078L355.159 123.952L357.086 146.45L357.076 146.432Z" fill="#1C1456"/>
<path d="M407.251 118.247L400.394 123.328L368.884 80.8431L374.834 76.4321L393.697 101.859L381.692 71.341L390.07 65.126L421.58 107.611L415.573 112.07L392.752 81.2965L407.261 118.237L407.251 118.247Z" fill="#1C1456"/>
<path d="M401.404 53.7631C404.408 50.6461 407.317 49.0876 410.113 49.0876C412.909 49.0876 415.78 50.5045 418.718 53.3381L420.078 54.651C422.033 56.54 423.356 58.4008 424.026 60.2426C424.697 62.0845 424.697 63.9736 424.026 65.9099C426.218 64.8709 428.333 64.6914 430.374 65.3715C432.414 66.0515 434.454 67.3644 436.485 69.3196L439.583 72.3138C442.521 75.1474 444.022 78.0661 444.098 81.0791C444.173 84.0922 442.757 87.0958 439.857 90.1089L430.78 99.5165L392.705 62.7929L401.414 53.7631H401.404ZM403.907 62.0561L413.967 71.7566L416.224 69.4141C417.311 68.2901 417.868 67.1283 417.896 65.9382C417.924 64.7481 417.178 63.4163 415.658 61.9428L413.532 59.8932C412.153 58.5614 410.925 57.8435 409.83 57.7396C408.734 57.6357 407.686 58.108 406.675 59.1564L403.898 62.0373L403.907 62.0561ZM419.407 77.0082L431.101 88.286L434.407 84.8573C435.389 83.8466 435.861 82.8076 435.824 81.7592C435.786 80.7108 435.059 79.5018 433.651 78.1416L430.336 74.9396C428.56 73.23 427.058 72.3516 425.821 72.3233C424.593 72.2949 423.308 72.9656 421.986 74.3446L419.417 77.0082H419.407Z" fill="#1C1456"/>
<path d="M408.45 29.0728L414.836 33.3893L410.519 39.7744L404.134 35.4579L408.45 29.0728ZM415.213 19.0513L421.598 23.3678L417.282 29.7529L410.897 25.4363L415.213 19.0513ZM435.011 47.9258L441.396 38.471L447.659 42.7025L441.273 52.1573L454.11 60.8282L462.148 48.927L468.41 53.1585L455.725 71.9454L411.889 42.3436L424.574 23.5567L430.836 27.7882L422.798 39.6894L435.011 47.9352V47.9258Z" fill="#1C1456"/>
<path d="M424.726 23.5473L435.002 0L441.926 3.02252L438.45 10.985L480.01 29.1201L476.685 36.7425L435.125 18.6074L431.649 26.5698L424.726 23.5473Z" fill="#1C1456"/>
<path d="M74.8651 144.429L96.5614 158.191L92.5187 164.576L85.1796 159.92L60.9047 198.211L53.8867 193.762L78.1616 155.471L70.8225 150.814L74.8651 144.429Z" fill="#1C1456"/>
<path d="M109.256 163.811C113.204 165.587 115.651 167.787 116.595 170.423C117.54 173.058 117.171 176.232 115.5 179.953L114.725 181.672C113.61 184.156 112.298 186.027 110.796 187.283C109.294 188.539 107.518 189.181 105.459 189.191C107.178 190.9 108.057 192.827 108.113 194.981C108.17 197.134 107.622 199.496 106.46 202.065L104.694 205.994C103.022 209.716 100.784 212.124 97.9782 213.201C95.1729 214.287 91.8576 213.975 88.051 212.256L76.1309 206.901L97.8082 158.654L109.247 163.792L109.256 163.811ZM93.4727 188.615L86.8137 203.434L91.1586 205.39C92.4432 205.966 93.5766 206.06 94.5495 205.673C95.5224 205.286 96.4197 204.19 97.2226 202.405L99.1117 198.202C100.122 195.954 100.434 194.244 100.047 193.073C99.6595 191.902 98.5922 190.929 96.8448 190.145L93.4633 188.624L93.4727 188.615ZM102.304 168.968L96.5709 181.719L99.5367 183.051C100.963 183.694 102.238 183.826 103.372 183.448C104.505 183.07 105.506 181.918 106.375 179.991L107.584 177.299C108.368 175.552 108.623 174.154 108.359 173.086C108.085 172.028 107.291 171.197 105.96 170.602L102.304 168.959V168.968Z" fill="#1C1456"/>
<path d="M119.174 181.871C120.478 177.79 122.509 174.985 125.267 173.464C128.025 171.934 131.349 171.792 135.241 173.03C139.133 174.267 141.758 176.307 143.128 179.15C144.498 181.993 144.526 185.45 143.232 189.531L134.882 215.742C133.579 219.822 131.548 222.627 128.79 224.148C126.032 225.678 122.707 225.82 118.815 224.583C114.924 223.345 112.298 221.305 110.928 218.462C109.559 215.619 109.53 212.162 110.824 208.082L119.174 181.871ZM118.579 211.104C117.994 212.927 117.956 214.334 118.466 215.307C118.976 216.29 119.845 216.979 121.101 217.376C122.348 217.773 123.463 217.716 124.445 217.215C125.427 216.705 126.211 215.543 126.787 213.721L135.458 186.508C136.044 184.685 136.072 183.278 135.572 182.305C135.062 181.323 134.183 180.633 132.936 180.237C131.69 179.84 130.575 179.897 129.593 180.397C128.61 180.907 127.826 182.069 127.25 183.892L118.579 211.104Z" fill="#1C1456"/>
<path d="M153.357 201.696L164.493 204.181L162.849 211.557L151.713 209.073L148.341 224.195L162.358 227.322L160.715 234.699L138.584 229.768L150.089 178.14L172.219 183.07L170.576 190.447L156.559 187.321L153.357 201.706V201.696Z" fill="#1C1456"/>
<path d="M176.13 237.145L167.667 235.974L174.902 183.58L182.241 184.591L177.915 215.959L190.705 185.762L201.038 187.188L193.803 239.582L186.388 238.562L191.63 200.61L176.14 237.145H176.13ZM198.384 177.592L197.534 183.731L179.417 181.228L180.267 175.089L198.384 177.592Z" fill="#1C1456"/>
<path d="M220.278 241.594L211.739 241.499L223.612 212.304L212.306 188.605L220.467 188.69L231.178 211.699L231.424 188.804L239.811 188.898L239.566 211.794L250.768 189.021L258.929 189.106L247.113 212.559L258.353 242L249.814 241.905L241.955 220.738L239.414 225.395L239.235 241.792L230.847 241.698L231.027 225.301L228.581 220.587L220.269 241.584L220.278 241.594Z" fill="#1C1456"/>
<path d="M273.541 240.527L265.031 241.273L260.431 188.577L267.808 187.935L270.556 219.473L276.309 187.188L286.699 186.282L291.298 238.977L283.846 239.629L280.512 201.46L273.532 240.527H273.541Z" fill="#1C1456"/>
<path d="M308.197 195.963C307.8 193.63 307.158 192.119 306.251 191.429C305.344 190.74 304.239 190.504 302.954 190.721C301.66 190.938 300.697 191.496 300.055 192.393C299.412 193.29 299.252 194.688 299.573 196.577L300.518 202.169L292.763 203.472L291.913 198.4C291.204 194.178 291.686 190.768 293.367 188.152C295.049 185.545 297.901 183.901 301.925 183.231C305.949 182.551 309.179 183.174 311.625 185.082C314.062 187 315.64 190.069 316.358 194.291L316.584 195.633C317.519 201.196 316.206 205.097 312.646 207.326C314.884 207.874 316.594 208.998 317.774 210.717C318.955 212.436 319.777 214.637 320.221 217.319L320.91 221.418C321.619 225.641 321.137 229.06 319.456 231.667C317.774 234.274 314.922 235.917 310.898 236.588C306.874 237.268 303.644 236.644 301.198 234.736C298.751 232.819 297.183 229.759 296.475 225.527L295.37 218.972L303.124 217.669L304.315 224.743C304.636 226.632 305.24 227.898 306.138 228.54C307.035 229.183 308.131 229.39 309.425 229.173C310.719 228.956 311.682 228.389 312.315 227.464C312.948 226.538 313.071 224.913 312.683 222.571L311.994 218.472C311.588 216.035 310.87 214.391 309.859 213.541C308.848 212.691 307.394 212.426 305.514 212.738L304.248 212.955L302.992 205.503L304.702 205.22C306.241 204.965 307.375 204.36 308.112 203.416C308.848 202.471 309.037 200.96 308.688 198.872L308.197 195.963Z" fill="#1C1456"/>
<path d="M338.659 230.269L330.611 232.366L317.265 181.181L325.312 179.084L331.027 201.016L340.17 198.636L334.455 176.704L342.645 174.569L355.991 225.754L347.802 227.888L342.087 205.956L332.944 208.337L338.659 230.269Z" fill="#1C1456"/>
<path d="M364.728 222.939L346.243 173.379L354.026 170.47L360.969 189.087L364.652 187.717C368.572 186.253 371.869 186.206 374.561 187.566C377.243 188.926 379.34 191.618 380.832 195.632L383.232 202.074C384.724 206.088 384.913 209.489 383.77 212.275C382.637 215.062 380.105 217.187 376.185 218.651L364.719 222.93L364.728 222.939ZM373.559 211.576C374.787 211.123 375.609 210.433 376.025 209.527C376.44 208.62 376.308 207.269 375.647 205.475L372.87 198.041C372.199 196.246 371.415 195.141 370.509 194.726C369.602 194.31 368.534 194.329 367.307 194.792L363.623 196.161L369.885 212.936L373.569 211.567L373.559 211.576Z" fill="#1C1456"/>
<path d="M404.163 206.617L396.937 210.726L370.782 164.756L378.008 160.647L389.22 180.35L393.555 177.885L388.625 169.214C386.509 165.492 385.819 162.101 386.575 159.032C387.321 155.971 389.475 153.431 393.017 151.409C396.559 149.388 399.846 148.84 402.859 149.766C405.872 150.691 408.441 153.005 410.557 156.727L424.159 180.633C426.274 184.355 426.964 187.746 426.208 190.815C425.462 193.876 423.309 196.416 419.766 198.438C416.224 200.459 412.937 201.007 409.924 200.081C406.911 199.165 404.342 196.841 402.226 193.12L397.296 184.449L392.96 186.914L404.172 206.617H404.163ZM409.707 189.465C410.652 191.127 411.662 192.109 412.72 192.402C413.787 192.695 414.883 192.515 416.026 191.873C417.169 191.231 417.877 190.371 418.17 189.304C418.463 188.237 418.132 186.877 417.188 185.214L403.067 160.392C402.122 158.729 401.112 157.747 400.054 157.454C398.986 157.161 397.891 157.341 396.748 157.983C395.605 158.635 394.897 159.485 394.604 160.552C394.311 161.62 394.641 162.98 395.586 164.642L409.707 189.465Z" fill="#1C1456"/>
</g>
<defs>
<clipPath id="clip0_599_2297">
<rect width="480" height="242" fill="white"/>
</clipPath>
</defs>
</svg>
