<svg width="522" height="262" viewBox="0 0 522 262" fill="none" xmlns="http://www.w3.org/2000/svg">
<g clip-path="url(#clip0_2052_21583)">
<path d="M32.3205 39.2901L25.4805 42.2101C21.3105 43.9901 17.6705 44.3301 14.5705 43.2501C11.4705 42.1601 9.07045 39.6301 7.38045 35.6601C5.69045 31.6901 5.52045 28.2001 6.89045 25.2201C8.25045 22.2301 11.0205 19.8501 15.1905 18.0701L41.9705 6.65008C46.1404 4.87008 49.7805 4.53008 52.8805 5.61008C55.9804 6.69008 58.3805 9.23008 60.0704 13.2001C61.7604 17.1701 61.9305 20.6501 60.5605 23.6401C59.1905 26.6301 56.4305 29.0101 52.2604 30.7901L47.2604 32.9201L44.0005 25.2701L49.5205 22.9201C51.3805 22.1301 52.5305 21.1901 52.9705 20.1001C53.4104 19.0101 53.3505 17.8301 52.8105 16.5601C52.2705 15.2901 51.4505 14.4301 50.3704 13.9901C49.2804 13.5501 47.8105 13.7301 45.9505 14.5301L18.1305 26.3801C16.2605 27.1701 15.1305 28.1101 14.7105 29.1801C14.3005 30.2501 14.3605 31.4301 14.9105 32.7001C15.4505 33.9801 16.2505 34.8401 17.3205 35.2801C18.3805 35.7301 19.8405 35.5501 21.7105 34.7601L29.0705 31.6201L32.3305 39.2701L32.3205 39.2901Z" fill="#1C1456"/>
<path d="M20.6206 61.8299L65.3706 28.1699L70.6606 35.1999L53.8406 47.8499L56.3406 51.1699C59.0006 54.7099 60.0406 58.0499 59.4606 61.1799C58.8806 64.3199 56.7806 67.2499 53.1606 69.9699L47.3406 74.3499C43.7206 77.0699 40.3206 78.2799 37.1406 77.9599C33.9706 77.6399 31.0506 75.7199 28.3906 72.1799L20.6006 61.8199L20.6206 61.8299ZM34.8006 67.3799C35.6306 68.4899 36.5706 69.1199 37.6206 69.2599C38.6606 69.4099 40.0006 68.8699 41.6206 67.6599L48.3306 62.6099C49.9506 61.3899 50.8306 60.2599 50.9806 59.2099C51.1306 58.1699 50.7806 57.0899 49.9506 55.9799L47.4506 52.6599L32.3006 64.0499L34.8006 67.3799ZM83.6406 52.4699L88.9306 59.4999L44.1706 93.1599L38.8806 86.1299L83.6406 52.4699Z" fill="#1C1456"/>
<path d="M101.751 70.09C105.071 73.01 106.771 76.07 106.851 79.26C106.921 82.45 105.461 85.75 102.471 89.15L97.6608 94.62C94.6708 98.02 91.5808 99.9 88.4108 100.23C85.2408 100.57 81.9908 99.27 78.6708 96.35L75.5508 93.6L61.6608 109.4L55.0508 103.59L92.0308 61.54L101.761 70.1L101.751 70.09ZM93.3408 73.35L80.8208 87.59L83.9408 90.34C84.9808 91.26 86.0308 91.68 87.0808 91.61C88.1308 91.54 89.3308 90.75 90.6708 89.23L96.2208 82.92C97.5608 81.4 98.1908 80.11 98.1308 79.06C98.0608 78.01 97.5108 77.02 96.4708 76.11L93.3508 73.36L93.3408 73.35Z" fill="#1C1456"/>
<path d="M80.7702 124.99L85.6802 118.07L92.5902 122.98L88.1902 129.18L79.9202 134.2L76.9902 132.12L83.5102 126.94L80.7702 124.99Z" fill="#1C1456"/>
<path d="M127.071 127.4L122.331 130.74L114.561 146.09L106.711 142.12L132.001 92.1499L139.851 96.1199L128.831 117.89L150.271 101.39L157.981 105.29L135.791 122.03L132.701 155.25L124.631 151.17L127.071 127.39V127.4Z" fill="#1C1456"/>
<path d="M154.191 118.08C155.711 113.81 157.961 110.92 160.941 109.4C163.911 107.88 167.441 107.85 171.511 109.3C175.581 110.75 178.291 113 179.631 116.06C180.971 119.12 180.891 122.78 179.361 127.05L169.581 154.48C168.061 158.75 165.811 161.64 162.831 163.16C159.851 164.68 156.331 164.71 152.261 163.26C148.191 161.81 145.481 159.56 144.141 156.5C142.791 153.44 142.881 149.78 144.411 145.51L154.191 118.08ZM152.511 148.99C151.831 150.9 151.741 152.38 152.241 153.44C152.741 154.5 153.641 155.26 154.951 155.72C156.261 156.19 157.441 156.17 158.491 155.67C159.551 155.17 160.411 153.96 161.091 152.05L171.241 123.57C171.921 121.66 172.011 120.18 171.511 119.12C171.011 118.06 170.101 117.3 168.801 116.84C167.491 116.38 166.311 116.39 165.261 116.89C164.201 117.39 163.341 118.6 162.651 120.51L152.501 148.99H152.511Z" fill="#1C1456"/>
<path d="M184.64 114.61L211.1 120.89L209.25 128.67L200.3 126.55L189.21 173.25L180.65 171.22L191.74 124.52L182.79 122.4L184.64 114.62V114.61Z" fill="#1C1456"/>
<path d="M210.141 134.34C210.721 129.84 212.311 126.54 214.901 124.43C217.491 122.32 220.921 121.54 225.211 122.1C229.491 122.66 232.621 124.29 234.581 126.99C236.541 129.69 237.231 133.29 236.641 137.79L232.891 166.67C232.311 171.17 230.721 174.47 228.131 176.58C225.541 178.69 222.111 179.47 217.821 178.91C213.531 178.35 210.411 176.72 208.451 174.02C206.491 171.32 205.801 167.72 206.391 163.22L210.141 134.34ZM215.041 164.91C214.781 166.92 215.001 168.39 215.721 169.31C216.431 170.24 217.481 170.79 218.851 170.97C220.231 171.15 221.381 170.88 222.301 170.17C223.231 169.46 223.821 168.1 224.081 166.09L227.981 136.1C228.241 134.09 228.021 132.62 227.301 131.7C226.591 130.77 225.541 130.22 224.171 130.04C222.791 129.86 221.641 130.13 220.721 130.84C219.791 131.55 219.201 132.91 218.941 134.92L215.041 164.91Z" fill="#1C1456"/>
<path d="M254.531 124.97C258.951 125.09 262.221 126.35 264.311 128.76C266.411 131.17 267.391 134.63 267.271 139.16L267.071 146.44C266.951 150.97 265.781 154.38 263.551 156.67C261.331 158.96 258.001 160.04 253.581 159.92L249.421 159.81L248.851 180.84L240.051 180.6L241.561 124.62L254.521 124.97H254.531ZM250.151 132.85L249.641 151.8L253.801 151.91C255.191 151.95 256.261 151.6 257.031 150.88C257.801 150.15 258.211 148.78 258.261 146.75L258.491 138.35C258.541 136.32 258.211 134.93 257.481 134.16C256.751 133.39 255.701 132.99 254.311 132.95L250.151 132.84V132.85Z" fill="#1C1456"/>
<path d="M274.72 181.35L269.2 125.62L277.96 124.75L280.03 145.69L284.17 145.28C288.57 144.84 291.97 145.69 294.35 147.81C296.73 149.93 298.14 153.25 298.59 157.76L299.31 165.01C299.76 169.52 299.02 173.05 297.1 175.6C295.18 178.15 292.02 179.64 287.62 180.08L274.72 181.36V181.35ZM286.83 172.11C288.21 171.97 289.23 171.5 289.9 170.68C290.57 169.86 290.8 168.45 290.6 166.43L289.77 158.07C289.57 156.05 289.06 154.71 288.25 154.04C287.43 153.37 286.33 153.1 284.96 153.24L280.82 153.65L282.69 172.52L286.83 172.11ZM299.45 122.62L308.21 121.75L313.73 177.48L304.97 178.35L299.45 122.62Z" fill="#1C1456"/>
<path d="M333.911 173.04L325.121 175.17L311.921 120.75L319.541 118.9L327.441 151.48L328.321 116.77L339.051 114.17L352.251 168.59L344.551 170.46L334.991 131.04L333.901 173.04H333.911ZM332.731 105.74L334.281 112.12L315.471 116.68L313.921 110.3L332.731 105.74Z" fill="#1C1456"/>
<path d="M383.031 157.56L374.731 161.14L352.551 109.72L359.751 106.61L373.021 137.39L368.051 103.03L378.191 98.6599L400.371 150.08L393.101 153.22L377.041 115.98L383.041 157.56H383.031Z" fill="#1C1456"/>
<path d="M417.58 140.51L410 144.98L381.58 96.7299L401.64 84.9199L405.7 91.8099L393.22 99.1599L417.58 140.52V140.51Z" fill="#1C1456"/>
<path d="M413.121 76.08C416.621 73.37 419.941 72.28 423.081 72.8C426.231 73.33 429.191 75.39 431.971 78.97L436.431 84.72C439.211 88.3 440.461 91.68 440.201 94.86C439.931 98.04 438.051 100.98 434.551 103.7L431.261 106.25L444.161 122.87L437.211 128.26L402.881 84.01L413.121 76.07V76.08ZM414.741 84.95L426.361 99.93L429.651 97.38C430.751 96.53 431.361 95.58 431.491 94.53C431.621 93.48 431.071 92.16 429.821 90.56L424.671 83.92C423.431 82.32 422.281 81.45 421.231 81.32C420.181 81.19 419.111 81.55 418.021 82.4L414.731 84.95H414.741Z" fill="#1C1456"/>
<path d="M484.71 84.7599L478.63 91.2299L470.19 85.3799L462.79 93.2499L469.15 101.32L463.61 107.21L428.95 62.3199L437.77 52.9399L484.71 84.7699V84.7599ZM458.02 87.2199L463.83 81.0399L440.29 64.7299L458.02 87.2199Z" fill="#1C1456"/>
<path d="M469.06 50.7501L475.68 40.6401L482.37 45.0201L475.75 55.1301L489.47 64.1101L497.8 51.3901L504.49 55.7701L491.34 75.8501L444.49 45.1801L457.64 25.1001L464.33 29.4801L456 42.2001L469.05 50.7401L469.06 50.7501Z" fill="#1C1456"/>
<path d="M457.79 25.1L468.27 0L475.65 3.08L472.11 11.57L516.4 30.06L513.01 38.18L468.72 19.69L465.18 28.18L457.8 25.1H457.79Z" fill="#1C1456"/>
<path d="M6.21 153.89L0.25 147.42L41.44 109.48L60.25 129.9L19.06 167.84L12.99 161.25L48.3 128.73L41.53 121.37L6.21 153.89Z" fill="#1C1456"/>
<path d="M53.9103 142.3C56.8203 138.82 59.9303 136.89 63.2403 136.49C66.5503 136.1 69.8703 137.29 73.1903 140.06C76.5103 142.83 78.2603 145.88 78.4703 149.21C78.6703 152.54 77.3203 155.95 74.4202 159.43L55.7503 181.78C52.8403 185.26 49.7303 187.19 46.4203 187.59C43.1003 187.98 39.7903 186.79 36.4703 184.02C33.1503 181.25 31.3903 178.2 31.1903 174.87C30.9903 171.54 32.3403 168.13 35.2403 164.65L53.9103 142.3ZM41.6303 170.72C40.3303 172.28 39.7303 173.64 39.8403 174.8C39.9403 175.97 40.5303 176.99 41.5903 177.88C42.6503 178.77 43.7703 179.16 44.9303 179.06C46.0903 178.96 47.3303 178.13 48.6303 176.57L68.0202 153.36C69.3202 151.81 69.9202 150.44 69.8102 149.28C69.7103 148.12 69.1203 147.09 68.0602 146.2C67.0002 145.31 65.8803 144.92 64.7203 145.02C63.5503 145.13 62.3203 145.96 61.0203 147.51L41.6303 170.72Z" fill="#1C1456"/>
<path d="M92.0603 155.55L115.3 169.68L111.14 176.51L103.28 171.73L78.3403 212.74L70.8203 208.17L95.7603 167.16L87.9003 162.38L92.0603 155.55Z" fill="#1C1456"/>
<path d="M128.72 176.1C132.86 178.07 135.4 180.46 136.34 183.26C137.28 186.07 136.82 189.42 134.97 193.32L134.11 195.13C132.87 197.73 131.45 199.68 129.83 200.98C128.21 202.28 126.31 202.91 124.14 202.88C125.92 204.73 126.81 206.79 126.82 209.07C126.82 211.35 126.19 213.84 124.91 216.53L122.95 220.65C121.1 224.55 118.67 227.05 115.68 228.13C112.68 229.22 109.19 228.81 105.19 226.91L92.6904 220.97L116.72 170.39L128.72 176.09V176.1ZM111.46 202L104.08 217.54L108.63 219.7C109.98 220.34 111.17 220.47 112.22 220.08C113.26 219.69 114.23 218.55 115.12 216.68L117.21 212.27C118.33 209.91 118.7 208.11 118.32 206.86C117.94 205.61 116.83 204.56 115 203.69L111.46 202.01V202ZM121.24 181.41L114.89 194.78L118 196.26C119.49 196.97 120.84 197.14 122.05 196.77C123.26 196.4 124.34 195.2 125.31 193.18L126.65 190.36C127.52 188.53 127.82 187.05 127.56 185.92C127.3 184.79 126.47 183.9 125.07 183.23L121.24 181.41Z" fill="#1C1456"/>
<path d="M138.69 195.46C140.21 191.19 142.45 188.29 145.42 186.77C148.39 185.25 151.91 185.21 155.99 186.66C160.06 188.11 162.77 190.36 164.12 193.41C165.47 196.46 165.39 200.13 163.87 204.4L154.13 231.84C152.61 236.11 150.37 239.01 147.4 240.53C144.43 242.05 140.9 242.09 136.83 240.64C132.76 239.19 130.05 236.95 128.7 233.89C127.35 230.84 127.43 227.17 128.95 222.9L138.69 195.46ZM137.06 226.37C136.38 228.28 136.29 229.76 136.8 230.82C137.3 231.88 138.21 232.63 139.51 233.1C140.82 233.56 142 233.54 143.05 233.04C144.11 232.54 144.97 231.33 145.65 229.42L155.76 200.92C156.44 199.01 156.53 197.53 156.02 196.47C155.52 195.42 154.61 194.66 153.31 194.19C152 193.73 150.82 193.75 149.77 194.25C148.71 194.75 147.85 195.96 147.17 197.87L137.06 226.37Z" fill="#1C1456"/>
<path d="M166.91 249.21L158.13 247.06L171.44 192.66L179.06 194.52L171.09 227.08L187.84 196.67L198.56 199.29L185.25 253.69L177.56 251.81L187.2 212.41L166.91 249.2V249.21Z" fill="#1C1456"/>
<path d="M216.05 242.04L226.93 203.33L239.08 204.85L232.14 260.42L223.88 259.39L228.85 219.54L217.84 258.64L209.58 257.61L207.98 217.5L203.08 256.8L195.46 255.85L202.4 200.28L214.55 201.8L216.06 242.06L216.05 242.04Z" fill="#1C1456"/>
<path d="M263.18 261.07L254.38 261.23L253.34 205.24L281.1 204.72L282.14 260.71L273.18 260.88L272.29 212.89L262.29 213.08L263.18 261.07Z" fill="#1C1456"/>
<path d="M298.07 202.95C302.47 202.46 305.87 203.27 308.28 205.36C310.69 207.46 312.14 210.76 312.64 215.26L313.44 222.5C313.94 227.01 313.24 230.54 311.36 233.11C309.47 235.68 306.33 237.21 301.93 237.7L297.8 238.16L300.11 259.07L291.36 260.04L285.2 204.38L298.08 202.95H298.07ZM294.82 211.36L296.91 230.21L301.04 229.75C302.42 229.6 303.44 229.11 304.1 228.28C304.76 227.46 304.98 226.04 304.76 224.02L303.84 215.67C303.62 213.66 303.09 212.32 302.27 211.66C301.44 211 300.34 210.75 298.97 210.9L294.84 211.36H294.82Z" fill="#1C1456"/>
<path d="M351.77 250.39L343.07 252.17L339.55 242.52L328.97 244.68L329.51 254.94L321.59 256.56L319.17 199.9L331.79 197.32L351.77 250.4V250.39ZM328.54 237.01L336.85 235.31L327.03 208.41L328.54 237.01Z" fill="#1C1456"/>
<path d="M354.81 191.1C359.19 189.75 362.68 189.79 365.27 191.22C367.86 192.65 369.79 195.43 371.07 199.56L371.66 201.47C372.51 204.22 372.78 206.62 372.46 208.67C372.14 210.72 371.18 212.47 369.56 213.92C372.12 214.08 374.17 215 375.72 216.67C377.27 218.34 378.48 220.6 379.36 223.46L380.7 227.82C381.97 231.95 381.87 235.43 380.4 238.25C378.93 241.08 376.08 243.14 371.85 244.45L358.62 248.53L342.11 195.02L354.8 191.1H354.81ZM352.89 200.06L357.25 214.2L360.54 213.19C362.12 212.7 363.23 211.91 363.87 210.82C364.51 209.73 364.5 208.11 363.84 205.97L362.92 202.99C362.32 201.05 361.55 199.76 360.59 199.1C359.63 198.45 358.42 198.35 356.94 198.8L352.89 200.05V200.06ZM359.61 221.85L364.68 238.29L369.5 236.8C370.93 236.36 371.89 235.64 372.4 234.65C372.9 233.66 372.85 232.17 372.23 230.18L370.79 225.52C370.02 223.02 369.07 221.44 367.95 220.79C366.83 220.14 365.3 220.1 363.36 220.7L359.61 221.86V221.85Z" fill="#1C1456"/>
<path d="M401.1 233.95L392.79 237.51L370.75 186.03L377.96 182.94L391.15 213.75L386.27 179.38L396.42 175.04L418.46 226.52L411.18 229.64L395.22 192.35L401.11 233.95H401.1Z" fill="#1C1456"/>
<path d="M425.38 167.88L416.54 173.05L433.74 202.47C435.17 204.91 436.04 207.09 436.35 209C436.67 210.92 436.58 212.62 436.09 214.11C435.6 215.6 434.81 216.91 433.71 218.05C432.61 219.19 431.35 220.17 429.92 221C429.23 221.4 428.61 221.77 428.06 222.09C427.51 222.41 426.88 222.72 426.18 223L422.14 216.09C422.58 215.89 423.03 215.66 423.49 215.39C423.95 215.12 424.39 214.86 424.8 214.62C426 213.92 426.85 213.02 427.35 211.93C427.85 210.83 427.55 209.34 426.45 207.45L404.89 170.57L428.92 156.52L457.18 204.86L449.58 209.3L425.35 167.86L425.38 167.88Z" fill="#1C1456"/>
<path d="M488.79 181.05L481.77 186.49L474.35 179.39L465.81 186.01L470.83 194.97L464.44 199.92L437.23 150.16L447.41 142.27L488.79 181.05ZM462.04 179.31L468.74 174.12L448.04 154.33L462.03 179.31H462.04Z" fill="#1C1456"/>
<path d="M497.41 149.97L472.81 118.17L481.27 109.32L521.76 148L516.01 154.02L486.97 126.28L511.81 158.42L506.06 164.44L472.9 141.83L501.53 169.19L496.22 174.74L455.73 136.06L464.19 127.21L497.41 149.99V149.97Z" fill="#1C1456"/>
</g>
<defs>
<clipPath id="clip0_2052_21583">
<rect width="521.5" height="261.24" fill="white" transform="translate(0.25)"/>
</clipPath>
</defs>
</svg>
