<svg width="769" height="461" viewBox="0 0 769 461" fill="none" xmlns="http://www.w3.org/2000/svg">
    <path
        d="M107.991 0.380859C142.023 0.381123 159.801 73.8474 226.34 73.8477C266.412 73.8477 280.689 38.3059 322.594 38.3057C374.2 38.3057 398.531 172.857 440.182 172.857C481.832 172.857 486.912 81.21 515.61 81.21C553.222 81.2103 534.901 157.89 572.499 158.895C604.882 159.76 600.69 104.059 634.722 104.059C657.324 104.059 673.578 120.306 698.467 120.307C718.378 120.307 753.663 73.2559 768.816 49.7305V460.857H0.816406V41.6064C0.838168 41.6562 5.16403 51.5068 17.0703 51.5068C49.3243 51.5068 82.188 0.380859 107.991 0.380859Z"
        fill="#FFCC66" />
</svg>