<svg width="1440" height="361" viewBox="0 0 1440 361" fill="none" xmlns="http://www.w3.org/2000/svg">
<g clip-path="url(#clip0_4006_24159)">
<g clip-path="url(#clip1_4006_24159)">
<path d="M1308.1 261.716C1345.43 261.716 1411.59 173.496 1440 129.386V0.25H0V114.154C0 114.154 8.09521 132.718 30.4762 132.718C90.9524 132.718 152.571 36.8565 200.952 36.8565C264.762 36.8565 298.095 174.607 422.857 174.607C497.992 174.607 524.762 107.966 603.333 107.966C700.095 107.966 745.714 360.25 823.81 360.25C901.905 360.25 911.429 188.411 965.238 188.411C1035.76 188.411 1001.41 332.185 1071.9 334.07C1132.62 335.692 1124.76 231.252 1188.57 231.252C1230.95 231.252 1261.43 261.716 1308.1 261.716Z" fill="#FFCC66"/>
</g>
</g>
<defs>
<clipPath id="clip0_4006_24159">
<rect width="1440" height="360" fill="white" transform="translate(0 0.25)"/>
</clipPath>
<clipPath id="clip1_4006_24159">
<rect width="1440" height="360" fill="white" transform="matrix(1 0 0 -1 0 360.25)"/>
</clipPath>
</defs>
</svg>
