<svg width="375" height="95" viewBox="0 0 375 95" fill="none" xmlns="http://www.w3.org/2000/svg">
<g clip-path="url(#clip0_609_8187)">
<rect width="375" height="93.75" transform="translate(0 0.844238)" fill="#FFFCF5"/>
<g clip-path="url(#clip1_609_8187)">
<path d="M340.65 68.9345C350.372 68.9345 367.601 45.9605 375 34.4735V0.844238H-3.05176e-05V30.5067C-3.05176e-05 30.5067 2.10809 35.3412 7.93649 35.3412C23.6855 35.3412 39.7321 10.3772 52.3313 10.3772C68.9484 10.3772 77.6289 46.2497 110.119 46.2497C129.685 46.2497 136.657 28.8953 157.118 28.8953C182.316 28.8953 194.196 94.5942 214.534 94.5942C234.871 94.5942 237.351 49.8446 251.364 49.8446C269.729 49.8446 260.783 87.2857 279.142 87.7764C294.954 88.199 292.907 61.001 309.524 61.001C320.561 61.001 328.497 68.9345 340.65 68.9345Z" fill="#FFCC66"/>
</g>
</g>
<defs>
<clipPath id="clip0_609_8187">
<rect width="375" height="93.75" fill="white" transform="translate(0 0.844238)"/>
</clipPath>
<clipPath id="clip1_609_8187">
<rect width="375" height="93.75" fill="white" transform="matrix(1 0 0 -1 0 94.5942)"/>
</clipPath>
</defs>
</svg>
