<svg width="1441" height="685" viewBox="0 0 1441 685" fill="none" xmlns="http://www.w3.org/2000/svg">
<path d="M201.274 0.769531C265.084 0.769531 298.418 138.521 423.18 138.521C498.315 138.52 525.084 71.8791 603.655 71.8789C700.417 71.8789 746.037 324.163 824.132 324.163C902.227 324.163 911.751 152.324 965.561 152.324C1036.08 152.324 1001.73 296.098 1072.23 297.982C1132.94 299.605 1125.08 195.165 1188.89 195.165C1231.27 195.165 1261.75 225.63 1308.42 225.63C1345.75 225.629 1411.91 137.41 1440.32 93.2998V684.163H0.322266V78.0674C0.355192 78.1427 8.46342 96.6318 30.7988 96.6318C91.2748 96.6314 152.894 0.769854 201.274 0.769531Z" fill="#FFD900"/>
</svg>
