<svg width="1441" height="1040" viewBox="0 0 1441 1040" fill="none" xmlns="http://www.w3.org/2000/svg">
<g clip-path="url(#clip0_2097_22089)">
<path d="M107.695 425.963C107.695 425.963 136.546 451.861 159.37 455.071C182.194 458.282 189.716 436.793 172.406 428.317C155.096 419.842 142.701 424.251 112.183 421.469L107.695 425.963Z" fill="#009EE3"/>
<path d="M107.695 425.962C107.695 425.962 133.553 454.856 136.759 477.714C139.965 500.573 118.508 508.107 110.046 490.77C101.626 473.434 105.985 461.02 103.207 430.457L107.695 425.962Z" fill="#009EE3"/>
<path d="M116.585 432.381C116.585 432.381 137.956 359.654 114.021 317.704C90.0855 275.797 46.9594 277.894 33.2822 314.708C19.6049 351.521 116.585 432.381 116.585 432.381Z" fill="#009EE3"/>
<path d="M116.586 432.383C116.586 432.383 176.809 381.786 176.809 330.119C176.809 287.356 125.562 292.45 125.262 338.381C124.921 391.974 116.586 432.383 116.586 432.383Z" fill="#009EE3"/>
<path d="M124.877 424.123C124.877 424.123 170.867 431.4 198.221 416.546C225.576 401.692 216.301 380.461 203.991 377.807C191.682 375.195 164.028 389.707 143.811 392.874C123.595 395.999 142.486 394.201 142.486 394.201L124.877 424.123Z" fill="#009EE3"/>
<path d="M173.132 370.868C173.132 370.868 219.25 331.358 220.233 271.558C220.832 234.873 210.018 210.902 204.205 197.846C201.042 190.783 192.622 187.401 186.553 190.697C181.552 193.437 179.971 199.772 182.835 205.508C190.614 221.132 204.376 252.723 205.402 282.174C206.855 323.353 192.708 343.001 173.132 370.825" fill="#009EE3"/>
<path d="M179.842 288.126C179.842 288.126 169.029 255.251 148.214 236.93C141.888 231.366 137.016 226.957 133.254 223.532C126.929 217.753 126.501 207.908 132.314 201.615C138.982 194.381 150.65 195.109 156.335 203.156C167.618 219.123 182.279 248.017 179.842 288.126Z" fill="#375DA8"/>
<path d="M114.107 434.866C114.107 434.866 41.489 456.269 -0.397645 432.298C-42.2415 408.326 -40.1472 365.135 -3.38954 351.437C33.3681 337.739 114.107 434.866 114.107 434.866Z" fill="#009EE3"/>
<path d="M36.3594 307.945L82.9903 401.263L-10.186 354.561C-10.186 354.561 -21.7262 332.73 -3.6038 314.58C14.5186 296.431 36.3167 307.988 36.3167 307.988" fill="#009EE3"/>
<path d="M125.348 370.785C123.895 400.749 115.902 434.181 115.902 434.181C115.902 434.181 82.5209 442.143 52.6019 443.641C52.6019 443.641 19.1781 409.268 55.1236 373.31C91.0692 337.353 125.348 370.785 125.348 370.785Z" fill="#375DA8"/>
<path d="M114.106 434.867C114.106 434.867 63.5855 495.18 11.9966 495.18C-30.7021 495.18 -25.6159 443.856 20.2457 443.556C73.7579 443.214 114.106 434.867 114.106 434.867Z" fill="#009EE3"/>
<path d="M105.857 443.168C105.857 443.168 113.123 489.227 98.3341 516.623C83.5028 544.019 62.3031 534.73 59.6531 522.402C57.0031 510.074 71.5352 482.378 74.6981 462.131C77.8182 441.884 76.0231 460.804 76.0231 460.804L105.899 443.168H105.857Z" fill="#009EE3"/>
<path d="M52.6867 491.5C52.6867 491.5 13.2364 537.687 -46.4734 538.672C-83.1028 539.271 -107.038 528.441 -120.074 522.62C-127.126 519.452 -130.503 511.019 -127.212 504.941C-124.477 499.933 -118.151 498.349 -112.423 501.217C-96.8228 509.007 -65.2796 522.791 -35.8735 523.861C5.24373 525.317 24.862 511.148 52.644 491.543" fill="#009EE3"/>
<path d="M73.1168 363.978C75.6386 366.503 71.5781 374.637 64.0556 382.213C56.5331 389.747 48.3695 393.814 45.8478 391.288C43.326 388.763 47.3865 380.629 54.909 373.053C62.4315 365.519 70.5951 361.452 73.1168 363.978Z" fill="#1C1456"/>
<path d="M292.552 348.398C296.655 358.072 292.21 369.244 282.55 373.353C272.891 377.463 261.735 373.011 257.632 363.337C253.529 353.663 258.017 342.49 267.634 338.381C277.293 334.272 288.449 338.766 292.552 348.398Z" fill="#375DA8"/>
<path d="M275.07 382C271.779 382 268.488 381.358 265.368 380.116C258.914 377.505 253.828 372.54 251.092 366.119C248.357 359.698 248.271 352.592 250.879 346.128C253.486 339.665 258.444 334.571 264.855 331.831C278.062 326.181 293.449 332.345 299.091 345.572C304.733 358.799 298.578 374.166 285.371 379.859C282.08 381.272 278.618 381.957 275.156 381.957M275.156 343.902C273.617 343.902 271.993 344.202 270.497 344.844C267.591 346.085 265.283 348.44 264.129 351.393C262.932 354.347 262.975 357.6 264.214 360.554C266.778 366.59 273.831 369.458 279.857 366.846C285.884 364.278 288.705 357.215 286.14 351.179C284.217 346.642 279.772 343.945 275.156 343.945" fill="#375DA8"/>
<path d="M30.2478 611.099C39.9074 615.208 51.0629 610.756 55.166 601.082C59.2692 591.408 54.8241 580.235 45.1646 576.126C35.505 572.017 24.3495 576.511 20.2463 586.143C16.1431 595.817 20.631 606.989 30.2478 611.099Z" fill="#375DA8"/>
<path d="M37.6843 619.701C34.265 619.701 30.8029 619.016 27.4691 617.603C14.2193 611.953 8.06451 596.585 13.7064 583.315C16.4418 576.895 21.5281 571.929 27.982 569.318C34.436 566.707 41.531 566.792 47.9423 569.532C54.3535 572.271 59.3115 577.323 61.876 583.829C64.4832 590.293 64.3977 597.399 61.6623 603.819C57.4309 613.708 47.7713 619.658 37.6416 619.658M37.6416 581.603C36.1456 581.603 34.6497 581.903 33.1965 582.459C30.2473 583.658 27.9393 585.927 26.657 588.837C24.0925 594.916 26.9135 601.936 32.94 604.504C39.0093 607.073 46.0189 604.29 48.5834 598.212C49.8229 595.301 49.8656 592.048 48.6689 589.051C47.4721 586.098 45.2068 583.786 42.3004 582.502C40.8044 581.86 39.223 581.518 37.5988 581.518" fill="#375DA8"/>
<path d="M904.781 248.32C900.849 258.08 889.821 262.789 880.076 258.893C870.331 254.998 865.63 243.911 869.519 234.151C873.409 224.392 884.479 219.683 894.224 223.578C903.969 227.474 908.67 238.56 904.781 248.32Z" fill="#375DA8"/>
<path d="M887.086 267.367C883.838 267.367 880.59 266.767 877.384 265.483C864.049 260.133 857.552 244.894 862.895 231.538C868.237 218.183 883.453 211.676 896.789 217.027C903.243 219.638 908.329 224.604 911.064 231.024C913.8 237.445 913.885 244.551 911.278 251.015C907.175 261.203 897.387 267.41 887.044 267.41M887.086 229.355C882.342 229.355 877.854 232.18 876.016 236.846C874.82 239.8 874.862 243.053 876.102 245.964C877.341 248.917 879.649 251.186 882.641 252.342C888.71 254.782 895.677 251.828 898.156 245.707C899.353 242.753 899.31 239.5 898.071 236.546C896.831 233.636 894.523 231.367 891.531 230.168C890.078 229.569 888.582 229.312 887.086 229.312" fill="#375DA8"/>
<path d="M533.828 248.32C537.717 258.08 548.787 262.789 558.533 258.893C568.278 254.998 572.979 243.911 569.09 234.151C565.2 224.392 554.13 219.683 544.385 223.578C534.64 227.474 529.938 238.56 533.828 248.32Z" fill="#375DA8"/>
<path d="M551.48 267.367C548.018 267.367 544.556 266.682 541.222 265.269C534.811 262.53 529.853 257.436 527.288 250.972C521.945 237.617 528.442 222.378 541.778 217.027C555.113 211.676 570.329 218.183 575.672 231.538C581.014 244.894 574.517 260.133 561.182 265.483C558.019 266.725 554.728 267.367 551.48 267.367ZM540.41 245.707C542.846 251.828 549.813 254.782 555.925 252.342C562.037 249.902 564.986 242.924 562.55 236.803C560.114 230.682 553.147 227.728 547.035 230.168C540.923 232.608 537.974 239.586 540.41 245.707Z" fill="#375DA8"/>
<path d="M1330.91 425.962C1330.91 425.962 1305.05 454.856 1301.85 477.714C1298.64 500.573 1320.1 508.107 1328.56 490.77C1337.03 473.434 1332.62 461.02 1335.4 430.457L1330.91 425.962Z" fill="#009EE3"/>
<path d="M1330.91 425.963C1330.91 425.963 1302.06 451.861 1279.24 455.071C1256.37 458.282 1248.89 436.793 1266.2 428.317C1283.51 419.842 1295.91 424.251 1326.43 421.469L1330.91 425.963Z" fill="#009EE3"/>
<path d="M1324.5 434.866C1324.5 434.866 1397.12 456.269 1439.01 432.298C1480.89 408.326 1478.76 365.135 1442 351.437C1405.24 337.739 1324.5 434.866 1324.5 434.866Z" fill="#009EE3"/>
<path d="M1324.5 434.867C1324.5 434.867 1375.02 495.18 1426.61 495.18C1469.31 495.18 1464.22 443.856 1418.36 443.556C1364.85 443.214 1324.5 434.867 1324.5 434.867Z" fill="#009EE3"/>
<path d="M1332.75 443.168C1332.75 443.168 1325.48 489.227 1340.32 516.623C1355.15 544.019 1376.35 534.73 1379 522.402C1381.6 510.074 1367.11 482.378 1363.95 462.131C1360.83 441.884 1362.63 460.804 1362.63 460.804L1332.75 443.168Z" fill="#009EE3"/>
<path d="M1385.88 491.5C1385.88 491.5 1425.33 537.687 1485.04 538.672C1521.67 539.271 1545.6 528.441 1558.64 522.62C1565.69 519.452 1569.07 511.019 1565.78 504.941C1563.04 499.933 1556.72 498.349 1550.99 501.217C1535.39 509.007 1503.85 522.791 1474.44 523.861C1433.32 525.317 1413.7 511.148 1385.92 491.543" fill="#009EE3"/>
<path d="M1321.98 432.381C1321.98 432.381 1300.61 359.654 1324.55 317.704C1348.48 275.797 1391.61 277.894 1405.28 314.708C1418.96 351.521 1321.98 432.381 1321.98 432.381Z" fill="#009EE3"/>
<path d="M1448.75 354.563L1355.57 401.264L1402.21 307.947C1402.21 307.947 1424 296.389 1442.13 314.539C1460.25 332.689 1448.71 354.52 1448.71 354.52" fill="#009EE3"/>
<path d="M1386.01 443.64C1356.09 442.185 1322.71 434.18 1322.71 434.18C1322.71 434.18 1314.76 400.749 1313.26 370.784C1313.26 370.784 1347.54 337.31 1383.49 373.31C1419.43 409.31 1386.01 443.64 1386.01 443.64Z" fill="#375DA8"/>
<path d="M1321.98 432.383C1321.98 432.383 1261.76 381.786 1261.76 330.119C1261.76 287.356 1313 292.45 1313.3 338.381C1313.65 391.974 1321.98 432.383 1321.98 432.383Z" fill="#009EE3"/>
<path d="M1313.73 424.123C1313.73 424.123 1267.74 431.4 1240.39 416.546C1213.03 401.692 1222.31 380.461 1234.62 377.807C1246.93 375.195 1274.58 389.707 1294.8 392.874C1315.01 395.999 1296.12 394.201 1296.12 394.201L1313.73 424.123Z" fill="#009EE3"/>
<path d="M1265.48 370.917C1265.48 370.917 1219.36 331.407 1218.37 271.607C1217.78 234.922 1228.59 210.95 1234.4 197.895C1237.57 190.832 1245.99 187.45 1252.05 190.746C1257.06 193.486 1258.64 199.821 1255.77 205.557C1247.99 221.181 1234.23 252.772 1233.21 282.222C1231.75 323.402 1245.9 343.05 1265.48 370.874" fill="#009EE3"/>
<path d="M1260.47 288.814C1260.47 288.814 1270.13 255.554 1290.31 236.548C1296.42 230.769 1301.16 226.189 1304.8 222.636C1310.95 216.643 1311 206.798 1304.97 200.676C1298.04 193.656 1286.42 194.812 1281.03 203.074C1270.31 219.425 1256.63 248.833 1260.47 288.814Z" fill="#375DA8"/>
<path d="M1392.76 391.335C1390.24 393.86 1382.12 389.794 1374.55 382.26C1367.03 374.726 1362.97 366.55 1365.49 364.025C1368.01 361.499 1376.13 365.566 1383.7 373.1C1391.22 380.633 1395.28 388.809 1392.76 391.335Z" fill="#1C1456"/>
<path d="M1408.32 611.099C1398.66 615.208 1387.5 610.756 1383.4 601.082C1379.3 591.408 1383.74 580.235 1393.4 576.126C1403.06 572.017 1414.22 576.511 1418.32 586.143C1422.42 595.817 1417.98 606.989 1408.32 611.099Z" fill="#375DA8"/>
<path d="M1400.88 619.747C1397.59 619.747 1394.3 619.104 1391.18 617.863C1384.72 615.252 1379.64 610.286 1376.9 603.866C1374.17 597.445 1374.08 590.339 1376.69 583.875C1379.3 577.411 1384.25 572.317 1390.67 569.578C1403.87 563.927 1419.22 570.092 1424.9 583.319C1430.54 596.546 1424.39 611.956 1411.14 617.606C1407.85 619.019 1404.39 619.704 1400.92 619.704M1400.92 581.649C1399.38 581.649 1397.76 581.949 1396.26 582.591C1393.32 583.832 1391.09 586.187 1389.9 589.14C1388.7 592.094 1388.74 595.347 1389.98 598.301C1391.22 601.212 1393.53 603.48 1396.48 604.679C1399.43 605.877 1402.68 605.835 1405.63 604.593C1411.65 602.025 1414.52 594.962 1411.91 588.926C1409.98 584.389 1405.54 581.692 1400.92 581.692" fill="#375DA8"/>
<path d="M1146.06 348.441C1141.95 358.115 1146.4 369.287 1156.06 373.396C1165.72 377.506 1176.87 373.054 1180.98 363.38C1185.08 353.706 1180.59 342.533 1170.97 338.424C1161.31 334.315 1150.16 338.809 1146.06 348.441Z" fill="#375DA8"/>
<path d="M1163.54 382.044C1160.08 382.044 1156.57 381.359 1153.28 379.946C1140.07 374.296 1133.87 358.928 1139.52 345.659C1145.16 332.432 1160.5 326.225 1173.75 331.875C1180.16 334.615 1185.12 339.709 1187.73 346.172C1190.34 352.636 1190.25 359.742 1187.52 366.163C1184.78 372.584 1179.74 377.549 1173.24 380.117C1170.12 381.402 1166.83 382.001 1163.54 382.001M1152.55 351.181C1149.99 357.216 1152.81 364.279 1158.84 366.848C1161.78 368.089 1165.03 368.132 1167.98 366.933C1170.93 365.735 1173.24 363.466 1174.52 360.555C1175.76 357.602 1175.8 354.391 1174.61 351.437C1173.41 348.484 1171.15 346.172 1168.24 344.888C1162.21 342.277 1155.16 345.102 1152.6 351.181" fill="#375DA8"/>
<path d="M-5.82605 689.518C-9.45907 676.805 -16.8961 665.504 -26.2992 656.343C-33.3515 649.494 -39.2926 645.385 -42.6692 641.789C-45.4046 638.836 -45.5756 634.341 -43.0966 631.131C-40.0192 627.192 -34.2064 626.85 -30.7016 630.403C-23.8202 637.423 -13.1348 651.164 -6.50991 663.62C-6.50991 663.62 -10.0575 640.634 -29.0774 605.361C-31.8128 600.225 -29.4621 593.847 -24.5041 590.764C-18.4775 587.04 -11.0832 589.737 -7.74942 595.944C11.3987 631.345 15.331 658.698 4.60286 693.799C4.26093 694.869 -2.87689 711.649 -3.34705 710.407C-3.43253 710.193 -4.62929 693.585 -5.78331 689.518" fill="#375DA8"/>
<path d="M410.348 275.585C410.348 275.585 445.653 261.074 447.106 221.564C448.559 182.268 416.588 188.689 405.732 219.681C394.876 250.672 410.391 275.585 410.391 275.585" fill="#009EE3"/>
<path d="M404.279 278.066C404.279 278.066 369.017 292.577 340.21 265.438C311.573 238.47 338.927 220.577 368.376 235.003C397.825 249.428 404.279 278.066 404.279 278.066Z" fill="#009EE3"/>
<path d="M408.082 237.016L411.33 275.156L403.295 278.452L378.847 249.002C332.045 195.109 367.008 178.372 367.008 178.372C367.008 178.372 403.594 165.701 408.082 236.973" fill="#009EE3"/>
<path d="M425.991 251.827C425.991 262.4 416.93 272.845 407.356 276.826C397.782 280.807 383.976 279.694 376.582 272.16C369.188 264.669 362.734 243.052 389.105 232.222C415.477 221.392 426.034 241.297 426.034 251.827" fill="#375DA8"/>
<path d="M415.348 267.967C416.46 270.706 412.912 274.773 407.399 277.041C401.885 279.31 396.499 278.925 395.388 276.185C394.277 273.446 397.824 269.379 403.338 267.11C408.852 264.842 414.237 265.227 415.348 267.967Z" fill="#1C1456"/>
<path d="M452.961 278.239C459.372 266.681 462.108 253.411 461.894 240.27C461.766 230.424 460.441 223.318 460.612 218.396C460.783 214.372 463.817 211.076 467.835 210.562C472.793 209.963 477.153 213.815 477.11 218.824C476.982 228.669 474.887 245.963 470.741 259.447C470.741 259.447 484.461 240.698 495.916 202.258C497.583 196.693 503.781 193.825 509.422 195.152C516.304 196.779 519.638 203.927 517.629 210.691C506.131 249.302 489.633 271.39 457.278 288.64C456.295 289.154 439.369 296.003 439.968 294.762C440.053 294.548 450.909 281.963 452.961 278.239Z" fill="#375DA8"/>
<path d="M375.812 309.914C363.161 306.233 351.92 298.656 342.816 289.196C336.02 282.09 331.959 276.097 328.369 272.716C325.42 269.933 320.932 269.762 317.726 272.202C313.751 275.241 313.367 281.063 316.914 284.616C323.881 291.55 337.558 302.38 349.911 309.058C349.911 309.058 327.001 305.334 291.868 286.028C286.782 283.246 280.37 285.558 277.293 290.48C273.532 296.473 276.182 303.879 282.379 307.303C317.598 326.694 344.867 330.846 380.001 320.359C381.069 320.059 397.867 312.996 396.627 312.525C396.413 312.44 379.83 311.113 375.769 309.914" fill="#375DA8"/>
<path d="M1039.5 280.25C1039.5 280.25 1074.68 294.976 1103.66 268.093C1132.46 241.34 1105.28 223.233 1075.7 237.444C1046.13 251.656 1039.54 280.25 1039.54 280.25" fill="#009EE3"/>
<path d="M1033.43 277.728C1033.43 277.728 998.257 263.003 997.06 223.45C995.863 184.111 1027.83 190.789 1038.48 221.866C1049.12 252.943 1033.48 277.728 1033.48 277.728" fill="#009EE3"/>
<path d="M1065.1 251.356L1040.48 280.636L1032.45 277.254L1036 239.114C1040.95 167.842 1077.46 180.769 1077.46 180.769C1077.46 180.769 1112.29 197.72 1065.1 251.313" fill="#009EE3"/>
<path d="M1067.28 274.513C1059.8 282.004 1046.04 282.989 1036.47 278.965C1026.89 274.941 1017.92 264.454 1018 253.88C1018.05 243.35 1028.73 223.488 1055.06 234.532C1081.35 245.533 1074.76 267.108 1067.28 274.556" fill="#375DA8"/>
<path d="M1048.39 278.41C1047.24 281.149 1041.85 281.492 1036.38 279.18C1030.87 276.869 1027.36 272.802 1028.52 270.063C1029.67 267.323 1035.06 266.981 1040.53 269.292C1046 271.604 1049.55 275.67 1048.39 278.41Z" fill="#1C1456"/>
<path d="M1067.75 312.312C1080.45 308.716 1091.73 301.225 1100.88 291.807C1107.72 284.744 1111.82 278.794 1115.41 275.413C1118.36 272.673 1122.85 272.502 1126.05 274.985C1129.99 278.067 1130.33 283.888 1126.78 287.398C1119.73 294.29 1106.01 304.992 1093.61 311.627C1093.61 311.627 1116.57 308.074 1151.78 289.025C1156.91 286.285 1163.28 288.64 1166.36 293.605C1170.08 299.641 1167.38 307.046 1161.19 310.385C1125.84 329.562 1098.53 333.501 1063.48 322.799C1062.41 322.457 1045.66 315.308 1046.9 314.837C1047.11 314.751 1063.69 313.553 1067.75 312.354" fill="#375DA8"/>
<path d="M990.819 280.078C984.493 268.478 981.843 255.208 982.142 242.066C982.356 232.221 983.724 225.115 983.595 220.193C983.467 216.169 980.433 212.83 976.415 212.316C971.457 211.674 967.097 215.527 967.097 220.535C967.097 230.38 969.149 247.717 973.166 261.201C973.166 261.201 959.575 242.366 948.376 203.841C946.752 198.276 940.555 195.365 934.913 196.649C928.032 198.233 924.655 205.339 926.621 212.145C937.819 250.799 954.189 273.058 986.416 290.523C987.399 291.037 1004.24 298.014 1003.68 296.773C1003.6 296.559 992.828 283.888 990.776 280.164" fill="#375DA8"/>
<path d="M1446.79 694.527C1450.46 681.856 1458.03 670.598 1467.47 661.481C1474.57 654.675 1480.55 650.608 1483.93 647.012C1486.71 644.059 1486.88 639.564 1484.44 636.354C1481.41 632.373 1475.59 631.987 1472.05 635.54C1465.12 642.518 1454.31 656.216 1447.64 668.587C1447.64 668.587 1451.36 645.643 1470.64 610.456C1473.41 605.362 1471.11 598.941 1466.19 595.859C1460.21 592.092 1452.81 594.746 1449.39 600.953C1430.03 636.225 1425.89 663.535 1436.36 698.722C1436.66 699.792 1443.71 716.615 1444.18 715.374C1444.26 715.159 1445.59 698.551 1446.79 694.484" fill="#375DA8"/>
<path d="M1487.3 1038.52C1487.3 981.883 1472.39 930.602 1448.28 893.318C1456.32 849.613 1450.5 796.49 1428.83 744.181C1407.21 691.872 1373.83 650.222 1337.28 624.967C1328.01 581.476 1302.32 534.689 1262.36 494.622C1222.39 454.599 1175.63 428.872 1132.21 419.583C1107.03 382.984 1065.4 349.553 1013.17 327.893C960.944 306.233 907.944 300.411 864.262 308.416C826.992 284.274 775.788 269.334 719.283 269.334C662.779 269.334 611.532 284.274 574.304 308.416C530.665 300.369 477.623 306.233 425.393 327.893C373.163 349.553 331.575 382.984 306.358 419.583C262.975 428.872 216.216 454.599 176.21 494.622C136.247 534.646 110.559 581.476 101.284 624.924C64.7403 650.137 31.3593 691.83 9.73207 744.139C-11.8951 796.448 -17.708 849.527 -9.71531 893.232C-33.8215 930.559 -48.7383 981.84 -48.7383 1038.47L-1.63717 1039.5C-1.63717 640.762 321.104 317.534 719.241 317.534C1117.38 317.534 1440.12 640.762 1440.12 1039.5L1487.22 1038.52H1487.3Z" fill="#009EE3"/>
<path d="M720.479 147.633C720.479 147.633 722.667 188.004 737.178 207.23C751.689 226.457 773.075 216.152 766.512 197.149C759.949 178.146 747.581 172.257 727.087 147.633H720.479Z" fill="#009EE3"/>
<path d="M720.481 147.633C720.481 147.633 718.293 188.004 703.782 207.23C689.271 226.457 667.885 216.152 674.448 197.149C681.011 178.146 693.379 172.257 713.873 147.633H720.481Z" fill="#009EE3"/>
<path d="M722.355 158.916C722.355 158.916 791.783 121.088 805.044 72.5535C818.304 23.9748 784.863 -6.26982 747.626 10.7707C710.389 27.8111 722.4 158.96 722.4 158.96" fill="#009EE3"/>
<path d="M722.352 158.917C722.352 158.917 804.192 166.055 842.277 128.004C873.844 96.4654 832.187 62.429 798.12 96.0639C758.383 135.319 722.396 158.917 722.396 158.917" fill="#009EE3"/>
<path d="M734.539 158.918C734.539 158.918 763.159 198.218 794.279 207.496C825.399 216.73 834.239 194.248 827.095 183.229C819.951 172.211 788.832 162.531 771.553 149.907C754.318 137.282 769.633 149.907 769.633 149.907L734.539 158.962V158.918Z" fill="#009EE3"/>
<path d="M809.462 155.348C809.462 155.348 872.639 160.3 917.511 116.94C945.015 90.3537 954.703 64.7037 960.016 50.7859C962.919 43.247 959.123 34.5038 952.248 32.4964C946.533 30.8012 940.684 34.3253 938.541 40.6597C932.781 57.9232 919.654 91.3797 898.714 113.818C869.425 145.222 844.466 149.282 809.507 155.348" fill="#009EE3"/>
<path d="M875.406 99.3207C875.406 99.3207 891.658 67.1133 889.827 38.2516C889.247 29.5083 888.89 22.6386 888.622 17.3302C888.22 8.40846 895.141 0.869613 904.115 0.512744C914.384 0.111267 922.421 9.25602 920.68 19.3822C917.242 39.456 906.749 71.6188 875.361 99.3653" fill="#375DA8"/>
<path d="M718.646 158.916C718.646 158.916 649.217 121.088 635.957 72.5535C622.696 23.9748 656.138 -6.26982 693.374 10.7707C730.611 27.8111 718.601 158.96 718.601 158.96" fill="#009EE3"/>
<path d="M774.235 120.018C751.063 141.029 720.478 159.765 720.478 159.765C720.478 159.765 689.939 140.984 666.722 120.018C666.722 120.018 667.347 70.0122 720.478 70.0122C773.61 70.0122 774.235 120.018 774.235 120.018Z" fill="#375DA8"/>
<path d="M718.65 158.917C718.65 158.917 636.81 166.055 598.725 128.004C567.158 96.4654 608.815 62.429 642.882 96.0639C682.619 135.319 718.606 158.917 718.606 158.917" fill="#009EE3"/>
<path d="M706.456 158.918C706.456 158.918 677.836 198.218 646.716 207.496C615.597 216.73 606.756 194.248 613.9 183.229C621.044 172.211 652.208 162.531 669.443 149.907C686.677 137.282 671.362 149.907 671.362 149.907L706.456 158.962V158.918Z" fill="#009EE3"/>
<path d="M631.538 155.348C631.538 155.348 568.36 160.3 523.488 116.94C495.985 90.3537 486.296 64.7037 480.983 50.7859C478.081 43.247 481.876 34.5038 488.797 32.4964C494.512 30.8012 500.361 34.3253 502.459 40.6597C508.219 57.9232 521.345 91.3797 542.33 113.818C571.619 145.222 596.578 149.282 631.538 155.348Z" fill="#009EE3"/>
<path d="M567.285 98.5175C567.285 98.5175 549.917 66.89 550.766 37.9837C551.033 29.1958 551.167 22.3261 551.212 17.0176C551.301 8.05131 544.113 0.780118 535.139 0.735509C524.825 0.690901 517.101 10.1033 519.199 20.1402C523.351 40.0803 534.915 71.8415 567.241 98.5175" fill="#375DA8"/>
<path d="M740.661 76.4366C740.661 80.1391 731.642 83.1725 720.524 83.1725C709.407 83.1725 700.388 80.1391 700.388 76.4366C700.388 72.7341 709.407 69.7007 720.524 69.7007C731.642 69.7007 740.661 72.7341 740.661 76.4366Z" fill="#1C1456"/>
</g>
<defs>
<clipPath id="clip0_2097_22089">
<rect width="1440" height="1039" fill="white" transform="matrix(1 0 0 -1 0.5 1039.5)"/>
</clipPath>
</defs>
</svg>
