<svg width="769" height="78" viewBox="0 0 769 78" fill="none" xmlns="http://www.w3.org/2000/svg">
<path d="M107.63 0.845703C141.661 0.84582 159.439 33.497 225.979 33.4971C266.051 33.4971 280.328 17.7013 322.232 17.7012C373.805 17.7012 398.138 77.4236 439.739 77.501H0.455078V19.168C0.487438 19.2008 4.8174 23.5683 16.709 23.5684C48.963 23.5684 81.8267 0.845703 107.63 0.845703ZM768.455 77.501H439.941C481.481 77.422 486.578 36.7695 515.249 36.7695C552.861 36.7697 534.539 70.8493 572.138 71.2959C604.521 71.6805 600.329 46.9238 634.36 46.9238C656.963 46.9239 673.217 54.1454 698.105 54.1455C718.017 54.1455 753.302 33.2341 768.455 22.7783V77.501Z" fill="#FFCC66"/>
</svg>
