<svg width="1441" height="324" viewBox="0 0 1441 324" fill="none" xmlns="http://www.w3.org/2000/svg">
<path d="M201.228 0.335938C265.037 0.335938 298.371 138.087 423.133 138.087C498.268 138.087 525.037 71.4455 603.608 71.4453C700.37 71.4453 745.99 323.729 824.085 323.729H0.275391V77.6338C0.308317 77.7091 8.41654 96.1982 30.752 96.1982C91.2279 96.1979 152.847 0.33626 201.228 0.335938ZM1440.28 323.729H824.085C902.18 323.729 911.704 151.891 965.514 151.891C1036.04 151.891 1001.68 295.664 1072.18 297.549C1132.9 299.172 1125.04 194.732 1188.85 194.731C1231.23 194.731 1261.7 225.196 1308.37 225.196C1345.7 225.196 1411.86 136.976 1440.28 92.8662V323.729Z" fill="#FFCC66"/>
</svg>
