<svg width="600" height="197" viewBox="0 0 600 197" fill="none" xmlns="http://www.w3.org/2000/svg">
<path d="M448.09 26.7212C451.361 26.7212 454.772 27.2404 457.98 28.5581C459.585 27.7494 461.397 27.2906 463.316 27.2905H471.154C475.112 27.2906 478.616 29.2287 480.773 32.2056C482.931 29.2288 486.435 27.2906 490.393 27.2905H498.23C498.964 27.2905 499.682 27.3614 500.379 27.4888C501.076 27.3613 501.794 27.2906 502.527 27.2905H514.07C519.953 27.2905 526.601 28.8713 531.521 34.2075L531.523 34.2056C531.539 34.2222 531.554 34.2396 531.569 34.2563C531.587 34.2753 531.605 34.2939 531.622 34.313L531.621 34.314C535.598 38.6407 537.177 43.9593 537.543 49.0229H570.308C576.866 49.0231 582.183 54.3404 582.183 60.8989V67.311C582.183 73.8695 576.866 79.1868 570.308 79.187H534.681C532.571 79.1869 530.591 78.6341 528.874 77.6694C526.806 79.2373 524.55 80.3156 522.241 81.0229V89.0435C522.241 95.602 516.924 100.919 510.365 100.919H502.527C501.794 100.919 501.076 100.848 500.379 100.72C499.682 100.848 498.964 100.919 498.23 100.919H490.393C488.206 100.919 486.16 100.325 484.4 99.2944C483.922 99.4747 483.44 99.6389 482.955 99.7856C486.466 100.819 489.822 102.678 492.652 105.669H492.653C492.666 105.682 492.678 105.696 492.69 105.709C492.708 105.728 492.726 105.746 492.743 105.764H492.741C497.498 110.801 499.007 117.217 499.007 123.137V149.073C499.007 155.049 497.473 161.457 492.743 166.517C492.714 166.549 492.683 166.581 492.653 166.612C487.749 171.744 481.297 173.489 475.232 173.489C471.887 173.489 468.424 172.956 465.168 171.619C463.548 172.447 461.713 172.919 459.769 172.919H451.931C448.898 172.919 446.132 171.78 444.033 169.909C442.456 170.831 440.775 171.54 439.018 172.034L439.019 172.035C438.996 172.041 438.973 172.047 438.95 172.053C438.938 172.057 438.926 172.061 438.914 172.064L438.913 172.063C436.49 172.744 434.022 173.061 431.553 173.061H429.629C428.736 173.061 427.862 173.007 427.017 172.915C426.908 172.917 426.799 172.919 426.69 172.919H413.694C411.609 176.337 407.846 178.62 403.55 178.62H395.569C391.362 178.619 387.668 176.428 385.559 173.127C383.449 176.428 379.756 178.62 375.548 178.62H367.567C362.609 178.62 358.362 175.58 356.584 171.263C353.407 172.474 350.075 172.919 346.957 172.919H335.414C333.557 172.919 331.801 172.492 330.235 171.732C328.67 172.491 326.914 172.919 325.058 172.919H317.22C315.774 172.919 314.389 172.66 313.108 172.187C311.809 172.665 310.422 172.919 309.006 172.919H301.097C298.853 172.919 296.739 172.29 294.934 171.192C293.128 172.29 291.014 172.919 288.771 172.919H281.573C281.216 172.919 280.86 172.901 280.507 172.87C280.154 172.901 279.796 172.919 279.435 172.919H271.597C268.564 172.919 265.797 171.78 263.698 169.909C262.122 170.831 260.44 171.54 258.684 172.034L258.685 172.035C258.662 172.041 258.638 172.047 258.615 172.053C258.604 172.056 258.592 172.061 258.58 172.064L258.579 172.063C256.156 172.744 253.687 173.061 251.218 173.061H249.294C248.401 173.061 247.527 173.007 246.682 172.915C246.574 172.917 246.465 172.919 246.356 172.919H233.36C231.275 176.337 227.512 178.62 223.216 178.62H215.235C211.027 178.62 207.333 176.429 205.224 173.127C203.114 176.428 199.421 178.62 195.213 178.62H187.233C182.922 178.62 179.147 176.321 177.066 172.883C176.762 172.907 176.455 172.919 176.145 172.919H168.307C166.799 172.919 165.358 172.635 164.031 172.123C162.696 172.638 161.252 172.919 159.757 172.919H151.776C151.298 172.919 150.824 172.889 150.355 172.833C149.887 172.889 149.41 172.919 148.927 172.919H141.517C140.586 172.919 139.681 172.807 138.812 172.605C137.939 172.809 137.031 172.919 136.101 172.919H128.69C127.688 172.919 126.711 172.791 125.775 172.554C124.839 172.792 123.858 172.919 122.848 172.919H116.008C115.461 172.919 114.923 172.881 114.396 172.809C113.869 172.881 113.331 172.919 112.784 172.919H91.4082C87.9382 172.919 84.8167 171.429 82.6455 169.056C80.4742 171.429 77.3521 172.919 73.8818 172.919H66.0439C63.9467 172.919 61.9776 172.373 60.2676 171.418C57.1743 172.512 53.9546 172.919 50.9189 172.919H38.5928C32.0343 172.919 26.7169 167.602 26.7168 161.043V111.167C26.7168 106.133 29.8501 101.834 34.2715 100.105C29.8501 98.3765 26.7169 94.0771 26.7168 89.0435V39.1665C26.7168 32.6079 32.0342 27.2907 38.5928 27.2905H46.4297C48.0047 27.2905 49.5074 27.6009 50.8828 28.1577C52.2585 27.6006 53.7615 27.2906 55.3369 27.2905H63.3174C64.0443 27.2905 64.7555 27.3598 65.4463 27.4849C66.1371 27.3598 66.8484 27.2905 67.5752 27.2905H88.9512C91.3218 27.2906 93.5281 27.9891 95.3818 29.186C97.2355 27.9891 99.4419 27.2906 101.812 27.2905H122.548C123.15 27.2906 123.742 27.3368 124.32 27.4233C124.899 27.3364 125.489 27.2906 126.083 27.2905H133.921L134.413 27.3013C137.204 27.4161 139.792 28.5052 141.795 30.2788C143.911 28.4051 146.683 27.2906 149.668 27.2905H157.506C158.614 27.2905 159.702 27.4472 160.744 27.7427C161.775 27.4508 162.861 27.2906 163.985 27.2905H188.781C189.773 27.2905 190.737 27.4148 191.658 27.644C192.58 27.4146 193.544 27.2906 194.536 27.2905H215.912C216.459 27.2905 216.997 27.3294 217.523 27.4009C218.051 27.3293 218.589 27.2905 219.136 27.2905H230.037L230.58 27.3032C232.377 27.3846 234.081 27.8688 235.596 28.6724C237.262 27.789 239.156 27.2906 241.152 27.2905H252.055C254.197 27.2906 256.206 27.862 257.941 28.855C259.677 27.8615 261.687 27.2906 263.83 27.2905H288.056C289.833 27.2905 291.518 27.6844 293.032 28.3843C295.86 27.566 298.725 27.2906 301.334 27.2905H313.162C313.896 27.2905 314.614 27.3613 315.312 27.4888C316.009 27.3612 316.728 27.2905 317.462 27.2905H325.3C326.875 27.2905 328.377 27.6008 329.753 28.1577C331.128 27.6008 332.631 27.2906 334.206 27.2905H342.187C342.543 27.2905 342.896 27.3086 343.245 27.3394C343.596 27.3079 343.951 27.2905 344.307 27.2905H352.145L352.637 27.3013C355.428 27.4161 358.016 28.5052 360.019 30.2788C362.134 28.4051 364.907 27.2906 367.892 27.2905H399.951C400.316 27.2905 400.676 27.3092 401.032 27.3413C401.388 27.3091 401.75 27.2905 402.114 27.2905H409.952C416.511 27.2908 421.827 32.608 421.827 39.1665V47.186C422.78 47.4779 423.723 47.833 424.648 48.2593C425.072 43.2746 426.687 38.1127 430.548 33.8755L430.556 33.8667C435.428 28.5305 441.965 26.7213 448.09 26.7212ZM248.847 161.176C248.999 161.183 249.148 161.186 249.294 161.186C249.152 161.186 249.007 161.183 248.858 161.177C248.854 161.177 248.851 161.176 248.847 161.176ZM248.403 161.15C248.413 161.151 248.424 161.15 248.434 161.151C248.405 161.149 248.377 161.146 248.349 161.144C248.367 161.146 248.385 161.148 248.403 161.15ZM247.888 161.1C247.927 161.105 247.966 161.109 248.005 161.113C247.966 161.109 247.927 161.105 247.888 161.1ZM247.441 161.043C247.45 161.045 247.459 161.045 247.468 161.046C247.459 161.045 247.451 161.045 247.442 161.043L247.441 153.918V161.043ZM66.0439 161.043H66.0449V111.167H66.0439V161.043ZM91.4082 161.043H91.4092V111.167H91.4082V161.043ZM122.849 125.779L128.69 161.043L122.849 125.773V125.779ZM281.573 161.043H281.574L289.555 111.167H289.554L281.573 161.043ZM335.414 161.043H335.415V111.167H335.414V161.043ZM405.314 161.043H405.315V111.167H405.314V161.043ZM354.37 159.099C354.21 159.212 354.046 159.321 353.876 159.424C354.031 159.33 354.181 159.232 354.328 159.13C354.342 159.12 354.356 159.109 354.37 159.099ZM466.396 158.407C466.494 158.509 466.595 158.608 466.697 158.706C466.595 158.608 466.495 158.509 466.397 158.407C466.333 158.338 466.27 158.269 466.208 158.199C466.27 158.269 466.333 158.338 466.396 158.407ZM354.916 158.678C354.964 158.638 355.012 158.598 355.06 158.556C355.012 158.598 354.964 158.638 354.916 158.678ZM152.631 154.987C152.631 156.222 152.583 157.314 152.488 158.264C152.476 158.377 152.463 158.49 152.446 158.604C152.463 158.49 152.477 158.377 152.489 158.264C152.584 157.314 152.632 156.222 152.632 154.987V147.292H152.631V154.987ZM355.146 158.479C355.195 158.435 355.244 158.391 355.292 158.345C355.244 158.391 355.195 158.435 355.146 158.479ZM60.5928 157.155C60.356 157.47 60.1008 157.769 59.8262 158.05C59.7639 158.113 59.7008 158.174 59.6367 158.235L59.8262 158.051C60.101 157.77 60.3557 157.47 60.5928 157.155ZM355.631 158.003C355.661 157.972 355.692 157.941 355.722 157.909C355.805 157.819 355.886 157.726 355.967 157.632C355.887 157.726 355.805 157.818 355.722 157.908C355.692 157.94 355.661 157.971 355.631 158.003ZM356.442 157.028C356.303 157.221 356.158 157.407 356.006 157.586C356.029 157.559 356.053 157.533 356.076 157.505C356.19 157.367 356.3 157.224 356.406 157.079C356.418 157.062 356.43 157.045 356.442 157.028ZM61.2725 156.113C61.074 156.466 60.8558 156.801 60.6191 157.12C60.8024 156.873 60.9755 156.617 61.1357 156.35C61.1825 156.272 61.2286 156.193 61.2734 156.114L61.2725 156.113ZM356.534 156.897C356.595 156.809 356.656 156.721 356.715 156.63C356.656 156.721 356.595 156.809 356.534 156.897ZM191.65 153.757C191.52 153.796 191.386 153.83 191.25 153.859L191.453 153.812C191.52 153.795 191.585 153.777 191.65 153.757ZM463.764 153.224C463.806 153.408 463.853 153.589 463.901 153.768C463.798 153.387 463.708 152.993 463.633 152.586L463.764 153.224ZM478.153 153.419C478.064 153.508 477.971 153.592 477.874 153.669H477.875C477.972 153.592 478.065 153.508 478.154 153.419H478.153ZM193.256 152.923C193.268 152.913 193.281 152.902 193.293 152.891C193.281 152.902 193.268 152.913 193.256 152.923ZM253.465 152.923C253.477 152.913 253.49 152.902 253.502 152.891C253.49 152.902 253.477 152.913 253.465 152.923ZM193.443 152.745C193.46 152.727 193.477 152.708 193.493 152.69C193.477 152.708 193.46 152.727 193.443 152.745ZM253.652 152.745C253.669 152.727 253.686 152.708 253.702 152.69C253.686 152.708 253.669 152.727 253.652 152.745ZM193.586 152.579C193.609 152.55 193.633 152.522 193.654 152.492C193.632 152.522 193.609 152.55 193.586 152.579ZM253.795 152.579C253.818 152.55 253.841 152.522 253.863 152.492C253.841 152.522 253.818 152.55 253.795 152.579ZM262.416 150.481C262.387 150.899 262.348 151.303 262.299 151.691L262.3 151.69C262.334 151.425 262.363 151.152 262.387 150.873C262.398 150.744 262.407 150.613 262.416 150.481ZM350.805 149.215C350.805 149.441 350.799 149.658 350.789 149.866C350.784 149.969 350.778 150.071 350.771 150.17C350.794 149.872 350.806 149.554 350.806 149.215V141.734H350.805V149.215ZM132.681 146.575L132.682 146.579L138.025 111.167H138.024L132.681 146.575ZM152.781 144.523C152.748 144.812 152.721 145.107 152.698 145.408L152.736 144.96C152.75 144.813 152.765 144.667 152.781 144.523ZM54.9619 143.817C54.9745 144.085 54.9805 144.364 54.9805 144.655L54.9766 144.227C54.9734 144.087 54.9682 143.951 54.9619 143.817ZM165.267 140.742C165.158 140.745 165.051 140.751 164.946 140.758C165.051 140.751 165.159 140.745 165.268 140.742L165.6 140.736L165.267 140.742ZM53.2871 139.446C53.3467 139.489 53.4044 139.534 53.46 139.581L53.2871 139.445C53.2274 139.401 53.1654 139.36 53.1016 139.32L53.2871 139.446ZM46.4307 138.599H49.9219C50.0328 138.599 50.1421 138.6 50.249 138.603C50.142 138.6 50.0329 138.598 49.9219 138.598H46.4307V138.599ZM157.831 136.674H157.833C157.787 136.653 157.742 136.63 157.697 136.608C157.742 136.63 157.786 136.653 157.831 136.674ZM157.439 136.476C157.483 136.499 157.526 136.522 157.569 136.544C157.526 136.522 157.483 136.499 157.439 136.476ZM157.212 136.352C157.236 136.366 157.262 136.378 157.286 136.392C157.247 136.37 157.208 136.349 157.17 136.327L157.212 136.352ZM356.715 134.319L356.563 134.091C356.55 134.071 356.535 134.052 356.521 134.032C356.586 134.126 356.652 134.221 356.715 134.319ZM355.722 133.041C355.98 133.318 356.221 133.613 356.445 133.925C356.432 133.907 356.42 133.888 356.406 133.87C356.353 133.797 356.299 133.725 356.244 133.654C356.079 133.441 355.904 133.236 355.722 133.041ZM164.196 133.54H164.197H164.196ZM355.463 132.77C355.441 132.748 355.418 132.727 355.396 132.705C355.418 132.727 355.441 132.748 355.463 132.77ZM354.756 132.137C354.909 132.259 355.057 132.386 355.2 132.518C355.187 132.506 355.174 132.492 355.16 132.48C355.03 132.362 354.895 132.247 354.757 132.137H354.756ZM81.4258 122.502C81.4316 122.662 81.4346 122.826 81.4346 122.995V130.476C81.4346 130.814 81.4228 131.133 81.3994 131.431H81.4004C81.4238 131.133 81.4355 130.814 81.4355 130.476V122.994C81.4355 122.825 81.4319 122.661 81.4258 122.501V122.502ZM152.702 126.557C152.702 126.878 152.709 127.192 152.723 127.499L152.708 127.033C152.705 126.876 152.703 126.717 152.703 126.557V122.638H152.702V126.557ZM54.1807 126.807C54.183 126.761 54.1848 126.714 54.1865 126.667C54.1848 126.714 54.1829 126.761 54.1807 126.807ZM54.1885 122.927C54.1941 123.088 54.1963 123.252 54.1963 123.421V126.201C54.1963 126.241 54.1947 126.28 54.1943 126.32C54.1947 126.28 54.1973 126.241 54.1973 126.201V123.421C54.1973 123.252 54.1943 123.088 54.1885 122.927ZM372.23 91.1323C370.979 93.2276 369.306 95.3992 367.03 97.1577C366.939 97.228 366.847 97.2971 366.754 97.3647C364.02 99.3529 360.806 100.604 357.295 100.88C357.283 100.881 357.271 100.883 357.26 100.884L357.259 100.883C355.704 101.006 354.063 101.061 352.358 101.061H350.435C350.106 101.061 349.779 101.053 349.456 101.04C352.858 103.128 355.128 106.882 355.128 111.167V119.186C357.864 120.024 360.526 121.383 362.889 123.461V111.167C362.889 104.608 368.205 99.2907 374.764 99.2905H377.92C374.979 97.5648 372.848 94.6114 372.23 91.1323ZM80.4375 119.29C80.479 119.331 80.5196 119.374 80.5586 119.42C80.5195 119.374 80.4791 119.33 80.4375 119.289V119.29ZM478.153 118.862C478.26 118.962 478.36 119.073 478.452 119.195C478.36 119.073 478.261 118.962 478.154 118.862H478.153ZM471.989 119.154C471.986 119.159 471.983 119.164 471.979 119.168C472.022 119.11 472.065 119.055 472.11 119.001L471.989 119.154ZM465.551 114.897C465.502 114.965 465.454 115.034 465.407 115.103C465.454 115.034 465.502 114.965 465.551 114.897ZM465.814 114.544C465.764 114.609 465.714 114.675 465.665 114.741C465.714 114.675 465.764 114.609 465.814 114.544ZM466.104 114.194C466.055 114.251 466.007 114.31 465.958 114.369C466.007 114.31 466.055 114.251 466.104 114.194ZM466.79 113.476C466.723 113.54 466.656 113.605 466.591 113.671C466.525 113.738 466.46 113.805 466.396 113.874C466.349 113.923 466.304 113.975 466.258 114.026C466.304 113.975 466.35 113.923 466.397 113.874C466.56 113.7 466.728 113.533 466.901 113.374C466.864 113.408 466.827 113.441 466.79 113.476ZM467.167 113.137C467.122 113.176 467.077 113.215 467.032 113.254C467.077 113.215 467.122 113.176 467.167 113.137ZM467.42 112.928C467.444 112.909 467.469 112.891 467.493 112.873C467.469 112.891 467.444 112.909 467.42 112.928ZM467.805 112.639C467.769 112.665 467.734 112.69 467.698 112.716C467.734 112.69 467.769 112.665 467.805 112.639ZM283.969 100.189C284.146 100.262 284.322 100.34 284.495 100.421C284.619 100.363 284.744 100.307 284.87 100.252C284.688 100.189 284.508 100.119 284.329 100.046C284.21 100.095 284.09 100.144 283.969 100.189ZM430.635 94.4995C428.411 96.7554 425.865 98.2895 423.211 99.2905H426.69C428.147 99.2905 429.542 99.554 430.831 100.034C432.121 99.5538 433.516 99.2906 434.973 99.2905H437.288C434.899 98.1988 432.637 96.6453 430.645 94.5103C430.641 94.5069 430.638 94.5029 430.635 94.4995ZM94.9502 99.2905H95.8135C95.6675 99.2049 95.5238 99.1156 95.3818 99.0239C95.2399 99.1155 95.0962 99.2049 94.9502 99.2905ZM123.789 98.936C123.497 99.0606 123.204 99.1793 122.909 99.2905H124.359C124.166 99.1771 123.975 99.0598 123.789 98.936ZM145.234 99.2905H145.817C145.785 99.213 145.755 99.1345 145.725 99.0562C145.562 99.1359 145.399 99.2155 145.234 99.2905ZM262.039 95.4683C261.03 97.0337 259.663 98.346 258.054 99.2905H266.024C264.415 98.346 263.048 97.0338 262.039 95.4683ZM101.812 89.0435H101.813V39.1665H101.812V89.0435ZM194.536 89.0435H194.537V39.1665H194.536V89.0435ZM244.644 53.2798V89.0435H244.645V53.2739L244.644 53.2798ZM502.527 89.0435H502.528V39.1665H502.527V89.0435ZM358.19 88.6274C358.312 88.5804 358.433 88.5307 358.553 88.4761C358.565 88.4703 358.577 88.4634 358.59 88.4575C358.458 88.5187 358.325 88.5755 358.19 88.6274ZM358.62 88.4419C358.74 88.3852 358.859 88.3247 358.978 88.2603C358.859 88.3246 358.74 88.3853 358.62 88.4419ZM140.607 88.3394C140.633 88.3262 140.658 88.3128 140.684 88.2993C140.658 88.3128 140.633 88.3262 140.607 88.3394ZM359.019 88.2378C359.12 88.1815 359.22 88.1222 359.32 88.0601C359.22 88.1221 359.12 88.1816 359.019 88.2378ZM140.979 88.1333C140.955 88.1478 140.931 88.1621 140.906 88.1763C140.931 88.1621 140.955 88.1478 140.979 88.1333ZM360.35 87.2534C360.159 87.4399 359.965 87.6089 359.77 87.7603C359.657 87.8423 359.542 87.9194 359.427 87.9937C359.541 87.9195 359.656 87.843 359.769 87.7612C359.964 87.6099 360.159 87.4408 360.35 87.2544V87.2534ZM141.208 87.9907C141.234 87.9738 141.26 87.9563 141.286 87.939C141.26 87.9563 141.234 87.9738 141.208 87.9907ZM455.441 87.603C455.565 87.5139 455.684 87.4205 455.803 87.3257C455.685 87.4206 455.565 87.5139 455.441 87.603ZM120.769 87.0991C120.608 87.2121 120.444 87.3213 120.274 87.4243C120.429 87.3304 120.58 87.2324 120.727 87.1304C120.741 87.1204 120.754 87.1092 120.769 87.0991ZM455.891 87.2544C455.93 87.222 455.97 87.1908 456.009 87.1577C456.077 87.0994 456.145 87.0404 456.211 86.98H456.21C456.106 87.0745 455.999 87.1651 455.891 87.2544ZM421.456 86.811C421.346 86.8983 421.233 86.9817 421.118 87.064C421.233 86.982 421.346 86.8992 421.456 86.812V86.811ZM482.658 86.811V86.812V86.811ZM121.314 86.6782C121.363 86.6379 121.411 86.5976 121.458 86.5562C121.411 86.5976 121.363 86.6379 121.314 86.6782ZM289.613 84.7319C289.59 85.2783 289.553 85.7891 289.506 86.2642C289.494 86.377 289.48 86.4904 289.464 86.604C289.48 86.4904 289.495 86.377 289.507 86.2642C289.554 85.7893 289.59 85.2789 289.613 84.7329V84.7319ZM121.544 86.479C121.593 86.4347 121.642 86.3907 121.69 86.3452C121.642 86.3907 121.593 86.4347 121.544 86.479ZM422.726 85.564C422.627 85.6816 422.525 85.7958 422.421 85.9077C422.361 85.9732 422.302 86.0384 422.24 86.1021C422.302 86.0387 422.362 85.974 422.421 85.9087C422.525 85.7967 422.627 85.6819 422.726 85.564ZM122.12 85.9077C122.07 85.9626 122.018 86.0154 121.967 86.0688C122.018 86.0155 122.07 85.9634 122.12 85.9087C122.204 85.8187 122.285 85.7258 122.365 85.6323C122.285 85.7257 122.204 85.8179 122.12 85.9077ZM122.832 85.0396C122.696 85.2281 122.553 85.4105 122.404 85.5864C122.427 85.5591 122.452 85.533 122.475 85.5054C122.589 85.3671 122.698 85.2244 122.805 85.0786C122.814 85.0658 122.823 85.0524 122.832 85.0396ZM122.933 84.897C122.994 84.8092 123.055 84.7209 123.113 84.6304C123.055 84.7209 122.994 84.8091 122.933 84.897ZM289.648 82.9868H289.649V75.2915H289.648V82.9868ZM451.225 81.3481C451.136 81.4371 451.042 81.5203 450.945 81.5981H450.946C451.043 81.5203 451.137 81.4371 451.226 81.3481H451.225ZM477.56 81.0591C477.611 81.0143 477.662 80.9687 477.71 80.9204C477.835 80.7958 477.948 80.6514 478.049 80.4868L478.048 80.4858C477.947 80.6506 477.834 80.7957 477.709 80.9204C477.667 80.962 477.625 81.0025 477.581 81.0415C477.574 81.0477 477.567 81.053 477.56 81.0591ZM478.17 80.2622C478.183 80.2365 478.196 80.2106 478.208 80.1841C478.196 80.2106 478.183 80.2365 478.17 80.2622ZM117.203 77.2153C117.203 77.4411 117.198 77.6578 117.188 77.8657C117.182 77.9695 117.177 78.0711 117.169 78.1704C117.192 77.8721 117.204 77.5537 117.204 77.2153V69.7339H117.203V77.2153ZM137.435 77.7935C137.423 77.9123 137.409 78.0282 137.395 78.1411H137.396C137.41 78.0282 137.423 77.9123 137.435 77.7935ZM355.658 77.7935C355.647 77.9123 355.633 78.0282 355.618 78.1411H355.619C355.634 78.0282 355.647 77.9123 355.658 77.7935ZM137.483 76.645C137.483 76.7814 137.482 76.9149 137.479 77.0454L137.484 76.645L126.084 39.1665H126.083L137.483 76.645ZM355.707 76.645C355.707 76.7814 355.706 76.9149 355.702 77.0454L355.708 76.645L344.308 39.1665H344.307L355.707 76.645ZM425.297 68.7642C425.312 69.0013 425.324 69.2421 425.332 69.4868C425.317 68.9973 425.286 68.523 425.24 68.064L425.297 68.7642ZM302.284 68.7417C302.175 68.7454 302.069 68.7509 301.964 68.7583C302.069 68.7509 302.176 68.7454 302.285 68.7417L302.617 68.7358L302.284 68.7417ZM478.132 66.6108C478.12 66.5879 478.106 66.5657 478.094 66.5435C478.106 66.5657 478.12 66.5879 478.132 66.6108ZM478.018 66.4175C478.004 66.3957 477.99 66.374 477.976 66.353C477.99 66.374 478.004 66.3957 478.018 66.4175ZM477.885 66.23C477.872 66.2131 477.859 66.1956 477.846 66.1792C477.859 66.1956 477.872 66.2131 477.885 66.23ZM485.814 64.9067C485.875 65.0983 485.933 65.2935 485.986 65.4927V65.4917C485.933 65.2925 485.875 65.0973 485.814 64.9058V64.9067ZM294.849 64.6743H294.851C294.805 64.6527 294.76 64.6301 294.715 64.6079C294.759 64.6298 294.803 64.653 294.849 64.6743ZM294.457 64.4761C294.5 64.499 294.543 64.5221 294.587 64.5444C294.543 64.5221 294.5 64.499 294.457 64.4761ZM294.229 64.3521C294.254 64.366 294.279 64.3784 294.304 64.3921C294.265 64.3704 294.226 64.3489 294.188 64.3267L294.229 64.3521ZM515.71 62.9292C515.591 62.9708 515.468 63.0064 515.34 63.0376C515.212 63.0688 515.08 63.0949 514.943 63.1157H514.944C515.217 63.0742 515.473 63.0123 515.71 62.9292ZM123.113 62.3188L122.962 62.0913C122.948 62.0711 122.933 62.0518 122.919 62.0317C122.985 62.1262 123.05 62.2213 123.113 62.3188ZM122.12 61.0405C122.379 61.318 122.619 61.6134 122.844 61.9253C122.83 61.9069 122.818 61.8879 122.805 61.8696C122.752 61.7968 122.698 61.7247 122.643 61.6538C122.477 61.4407 122.303 61.2365 122.12 61.0405ZM301.569 61.5796C301.584 61.5809 301.599 61.5823 301.614 61.5835C301.599 61.5822 301.584 61.5809 301.569 61.5796ZM121.861 60.77C121.839 60.7472 121.815 60.7252 121.792 60.7026C121.815 60.7252 121.839 60.7472 121.861 60.77ZM483.062 60.481C483.134 60.5461 483.205 60.6125 483.274 60.6802C483.268 60.6737 483.262 60.667 483.255 60.6606C483.192 60.5995 483.128 60.5391 483.062 60.48V60.481ZM334.206 60.5425H334.207V39.1665H334.206V60.5425ZM121.154 60.1372C121.308 60.2589 121.455 60.3864 121.599 60.5181C121.585 60.5056 121.572 60.4923 121.559 60.48C121.428 60.3618 121.294 60.2473 121.155 60.1372H121.154ZM516.921 47.2896C517.004 47.3728 517.082 47.4648 517.155 47.5659C517.082 47.4647 517.004 47.3719 516.921 47.2886V47.2896ZM451.225 46.8618C451.332 46.9621 451.431 47.073 451.523 47.1948C451.432 47.073 451.332 46.962 451.226 46.8618H451.225ZM445.061 47.1538C445.057 47.1585 445.054 47.1637 445.051 47.1685C445.093 47.1104 445.136 47.0545 445.182 47.0015L445.061 47.1538ZM299.408 46.7524C299.393 46.7607 299.377 46.7684 299.361 46.7769C299.377 46.7684 299.393 46.7607 299.408 46.7524ZM299.665 46.6304C299.638 46.6419 299.611 46.6534 299.585 46.6655C299.611 46.6534 299.638 46.6419 299.665 46.6304ZM299.917 46.5327C299.878 46.5461 299.839 46.5611 299.801 46.5757C299.839 46.5612 299.878 46.5461 299.917 46.5327ZM449.385 45.8325C449.452 45.8474 449.518 45.8635 449.583 45.8813C449.453 45.8458 449.319 45.8162 449.182 45.7925L449.385 45.8325ZM457.675 42.9897C457.613 42.8985 457.55 42.8077 457.485 42.7192C457.463 42.6885 457.439 42.6588 457.416 42.6284C457.505 42.7464 457.591 42.867 457.675 42.9897ZM457.385 42.5874C457.362 42.5582 457.341 42.5284 457.318 42.4995C457.262 42.4272 457.203 42.357 457.145 42.2866C457.226 42.3853 457.307 42.4851 457.385 42.5874ZM456.783 41.8735C456.888 41.9861 456.99 42.1014 457.09 42.2192C456.99 42.1015 456.888 41.9861 456.783 41.8735C456.722 41.8051 456.66 41.7377 456.598 41.6714C456.582 41.6543 456.564 41.6385 456.548 41.6216C456.627 41.7042 456.707 41.7875 456.783 41.8735ZM456.443 41.5161C456.388 41.4603 456.332 41.4044 456.275 41.3501C456.332 41.4043 456.388 41.4603 456.443 41.5161ZM455.963 41.0659C455.884 40.9983 455.804 40.9325 455.724 40.8677C455.804 40.9325 455.884 40.9983 455.963 41.0659ZM455.098 40.4077C455.294 40.5388 455.484 40.6775 455.668 40.8228C455.641 40.8017 455.615 40.7801 455.588 40.7593C455.516 40.7038 455.443 40.6495 455.369 40.5962C455.28 40.5318 455.19 40.4689 455.098 40.4077ZM455.057 40.3813C454.98 40.3307 454.902 40.2814 454.823 40.2329C454.902 40.2814 454.98 40.3307 455.057 40.3813ZM454.723 40.1714C454.629 40.1153 454.534 40.0605 454.438 40.0073C454.534 40.0605 454.629 40.1152 454.723 40.1714ZM354.757 158.812C354.781 158.793 354.803 158.772 354.827 158.752C354.763 158.805 354.699 158.856 354.633 158.907C354.674 158.875 354.716 158.844 354.757 158.812ZM355.375 158.264C355.421 158.219 355.468 158.174 355.513 158.128C355.468 158.174 355.421 158.219 355.375 158.264ZM121.155 86.812C121.179 86.7929 121.202 86.7718 121.226 86.7524C121.162 86.8046 121.097 86.8564 121.031 86.9067C121.073 86.8751 121.115 86.8443 121.155 86.812ZM457.949 43.4126L457.801 43.1763C457.766 43.1229 457.73 43.0706 457.694 43.0181C457.782 43.1471 457.867 43.2783 457.949 43.4126ZM456.152 41.2368C456.104 41.1929 456.058 41.1478 456.009 41.105C456.001 41.098 455.992 41.0914 455.984 41.0845C456.041 41.134 456.097 41.1858 456.152 41.2368Z" fill="#1C1456"/>
<g filter="url(#filter0_ii_616_19601)">
<path d="M439.186 17.8135C442.457 17.8135 445.867 18.3327 449.076 19.6504C450.681 18.8417 452.493 18.3828 454.412 18.3828H462.25C466.208 18.3829 469.711 20.3211 471.869 23.2979C474.027 20.3212 477.531 18.3828 481.488 18.3828H489.326C490.06 18.3828 490.778 18.4536 491.475 18.5811C492.172 18.4536 492.889 18.3828 493.623 18.3828H505.166C511.049 18.3828 517.697 19.9638 522.617 25.2998L522.619 25.2979C522.635 25.3145 522.65 25.332 522.665 25.3486C522.682 25.3676 522.7 25.3862 522.718 25.4053L522.717 25.4062C526.693 29.7329 528.272 35.0517 528.639 40.1152H561.403C567.962 40.1155 573.278 45.4329 573.278 51.9912V58.4033C573.278 64.9618 567.962 70.2791 561.403 70.2793H525.776C523.667 70.2793 521.687 69.7264 519.97 68.7617C517.902 70.3296 515.645 71.4078 513.337 72.1152V80.1357C513.337 86.6944 508.02 92.0117 501.461 92.0117H493.623C492.889 92.0117 492.172 91.94 491.475 91.8125C490.778 91.9399 490.06 92.0117 489.326 92.0117H481.488C479.302 92.0117 477.255 91.4174 475.496 90.3867C475.017 90.567 474.535 90.7312 474.051 90.8779C477.562 91.9116 480.918 93.7703 483.748 96.7617H483.749C483.761 96.7747 483.774 96.7887 483.786 96.8018C483.803 96.8201 483.822 96.838 483.839 96.8564H483.837C488.593 101.894 490.102 108.309 490.103 114.229V140.165C490.103 146.141 488.569 152.549 483.839 157.609C483.809 157.641 483.779 157.673 483.749 157.704C478.844 162.837 472.393 164.581 466.328 164.581C462.982 164.581 459.52 164.049 456.264 162.711C454.643 163.54 452.809 164.012 450.864 164.012H443.026C439.993 164.012 437.228 162.872 435.129 161.001C433.552 161.924 431.87 162.632 430.113 163.126L430.114 163.127C430.092 163.133 430.069 163.139 430.046 163.146C430.034 163.149 430.022 163.153 430.01 163.156L430.009 163.155C427.585 163.837 425.117 164.153 422.648 164.153H420.725C419.832 164.153 418.958 164.099 418.112 164.007C418.004 164.01 417.895 164.012 417.786 164.012H404.79C402.705 167.429 398.942 169.712 394.646 169.712H386.665C382.457 169.712 378.764 167.521 376.654 164.22C374.545 167.521 370.851 169.712 366.644 169.712H358.663C353.705 169.712 349.458 166.672 347.68 162.355C344.503 163.566 341.17 164.012 338.053 164.012H326.51C324.653 164.012 322.896 163.584 321.331 162.824C319.766 163.584 318.01 164.012 316.153 164.012H308.315C306.87 164.012 305.485 163.752 304.204 163.279C302.905 163.758 301.518 164.012 300.102 164.012H292.192C289.949 164.012 287.835 163.382 286.029 162.284C284.223 163.382 282.11 164.012 279.866 164.012H272.669C272.311 164.012 271.956 163.994 271.603 163.962C271.249 163.994 270.892 164.012 270.53 164.012H262.692C259.659 164.012 256.893 162.872 254.794 161.001C253.217 161.924 251.536 162.632 249.779 163.126L249.78 163.127C249.757 163.134 249.734 163.139 249.711 163.146C249.699 163.149 249.687 163.153 249.676 163.156L249.675 163.155C247.251 163.837 244.783 164.153 242.313 164.153H240.39C239.497 164.153 238.623 164.099 237.777 164.007C237.669 164.01 237.561 164.012 237.452 164.012H224.456C222.371 167.429 218.608 169.712 214.312 169.712H206.331C202.123 169.712 198.429 167.521 196.319 164.22C194.21 167.521 190.516 169.712 186.309 169.712H178.329C174.017 169.712 170.243 167.413 168.162 163.976C167.858 163.999 167.55 164.012 167.24 164.012H159.402C157.895 164.012 156.454 163.727 155.127 163.215C153.791 163.731 152.348 164.012 150.853 164.012H142.872C142.394 164.012 141.92 163.981 141.451 163.925C140.983 163.981 140.506 164.012 140.022 164.012H132.612C131.681 164.012 130.776 163.9 129.907 163.697C129.034 163.902 128.126 164.012 127.196 164.012H119.786C118.783 164.012 117.807 163.883 116.871 163.646C115.935 163.884 114.954 164.012 113.943 164.012H107.104C106.557 164.012 106.018 163.973 105.491 163.901C104.964 163.973 104.426 164.012 103.88 164.012H82.5039C79.0338 164.012 75.9124 162.522 73.7412 160.148C71.5699 162.522 68.4478 164.012 64.9775 164.012H57.1396C55.0423 164.012 53.0734 163.465 51.3633 162.511C48.2699 163.605 45.0503 164.012 42.0146 164.012H29.6885C23.1298 164.012 17.8125 158.694 17.8125 152.136V102.259C17.8127 97.2252 20.9458 92.9257 25.3672 91.1973C20.9457 89.4688 17.8125 85.1695 17.8125 80.1357V30.2588C17.8127 23.7003 23.13 18.3828 29.6885 18.3828H37.5254C39.1005 18.3828 40.6031 18.6932 41.9785 19.25C43.3542 18.6929 44.8572 18.3828 46.4326 18.3828H54.4131C55.14 18.3828 55.8511 18.452 56.542 18.5771C57.2328 18.4521 57.944 18.3828 58.6709 18.3828H80.0469C82.4175 18.3829 84.6238 19.0814 86.4775 20.2783C88.3312 19.0815 90.5376 18.3829 92.9082 18.3828H113.644C114.246 18.3828 114.838 18.4291 115.416 18.5156C115.995 18.4287 116.584 18.3828 117.179 18.3828H125.017L125.509 18.3936C128.3 18.5084 130.888 19.5975 132.891 21.3711C135.007 19.4974 137.779 18.3828 140.764 18.3828H148.602C149.709 18.3828 150.798 18.5395 151.84 18.835C152.87 18.5431 153.957 18.3828 155.081 18.3828H179.877C180.869 18.3828 181.833 18.5071 182.754 18.7363C183.675 18.5069 184.639 18.3828 185.632 18.3828H207.008C207.554 18.3828 208.092 18.4217 208.619 18.4932C209.146 18.4216 209.685 18.3828 210.231 18.3828H221.133L221.676 18.3955C223.473 18.4769 225.176 18.9611 226.691 19.7646C228.357 18.8814 230.251 18.3829 232.248 18.3828H243.15C245.293 18.3829 247.302 18.9543 249.037 19.9473C250.773 18.9539 252.782 18.3828 254.926 18.3828H279.151C280.929 18.3828 282.614 18.7767 284.128 19.4766C286.955 18.6583 289.821 18.3828 292.43 18.3828H304.258C304.992 18.3828 305.71 18.4535 306.407 18.5811C307.105 18.4534 307.823 18.3828 308.558 18.3828H316.396C317.971 18.3828 319.473 18.693 320.849 19.25C322.224 18.6931 323.727 18.3828 325.302 18.3828H333.282C333.639 18.3828 333.992 18.4008 334.341 18.4316C334.692 18.4001 335.046 18.3828 335.402 18.3828H343.24L343.732 18.3936C346.523 18.5084 349.111 19.5975 351.114 21.3711C353.23 19.4974 356.003 18.3829 358.987 18.3828H391.047C391.411 18.3828 391.772 18.4015 392.128 18.4336C392.484 18.4014 392.845 18.3828 393.21 18.3828H401.048C407.606 18.3831 412.923 23.7005 412.923 30.2588V38.2783C413.875 38.5702 414.819 38.9252 415.744 39.3516C416.168 34.3669 417.783 29.2049 421.644 24.9678L421.651 24.959C426.524 19.6229 433.061 17.8135 439.186 17.8135ZM49.0068 150.591C49.09 150.544 49.1719 150.495 49.2529 150.446C49.1718 150.495 49.09 150.544 49.0068 150.591ZM49.4189 150.343C49.4367 150.331 49.455 150.321 49.4727 150.31C49.4839 150.302 49.4946 150.294 49.5059 150.287C49.4771 150.306 49.448 150.324 49.4189 150.343ZM49.5625 150.249C49.6074 150.22 49.6531 150.191 49.6973 150.161C49.7182 150.147 49.738 150.131 49.7588 150.116C49.6942 150.161 49.6286 150.205 49.5625 150.249ZM143.584 149.356C143.573 149.464 143.559 149.572 143.544 149.681C143.559 149.573 143.573 149.465 143.584 149.357V149.356ZM50.1025 149.862C50.04 149.911 49.9771 149.959 49.9131 150.006C49.9771 149.959 50.04 149.911 50.1025 149.862ZM346.057 149.735C345.989 149.793 345.921 149.849 345.852 149.904L346.057 149.736C346.124 149.679 346.19 149.621 346.256 149.562L346.057 149.735ZM50.2871 149.716C50.3309 149.68 50.3739 149.643 50.417 149.606C50.3739 149.643 50.3309 149.68 50.2871 149.716ZM50.5498 149.49C50.5922 149.453 50.6351 149.415 50.6768 149.377C50.6351 149.415 50.5922 149.453 50.5498 149.49ZM50.9209 149.144C50.896 149.168 50.8699 149.192 50.8447 149.217C50.8701 149.192 50.8968 149.169 50.9219 149.144C50.9517 149.113 50.9795 149.081 51.0088 149.05C50.9793 149.081 50.9508 149.113 50.9209 149.144ZM51.1719 148.874C51.2021 148.84 51.232 148.807 51.2617 148.772C51.232 148.807 51.2021 148.84 51.1719 148.874ZM51.416 148.59C51.4468 148.553 51.4776 148.515 51.5078 148.478C51.4775 148.515 51.4469 148.553 51.416 148.59ZM51.6406 148.308C51.6763 148.261 51.7123 148.214 51.7471 148.167C51.7122 148.214 51.6763 148.261 51.6406 148.308ZM143.686 147.916L143.691 147.825C143.694 147.775 143.694 147.725 143.696 147.674C143.693 147.755 143.689 147.836 143.686 147.916ZM52.0879 147.674L52.2314 147.442C52.2452 147.42 52.2579 147.396 52.2715 147.373C52.2116 147.475 52.151 147.575 52.0879 147.674ZM52.3418 147.251C52.3955 147.157 52.449 147.062 52.5 146.965C52.449 147.062 52.3955 147.157 52.3418 147.251ZM143.714 147.102C143.715 147.033 143.717 146.965 143.718 146.896C143.717 146.965 143.715 147.033 143.714 147.102ZM465.936 145.566C465.97 145.569 466.005 145.571 466.04 145.572C466.005 145.571 465.97 145.569 465.936 145.566ZM468.337 145.163C468.223 145.219 468.106 145.269 467.984 145.313L468.164 145.243C468.223 145.218 468.28 145.191 468.337 145.163ZM183.229 144.679C183.26 144.666 183.29 144.652 183.32 144.639C183.29 144.652 183.26 144.666 183.229 144.679ZM243.522 144.645C243.608 144.607 243.691 144.566 243.773 144.524C243.691 144.566 243.608 144.607 243.522 144.645ZM183.535 144.539C183.557 144.528 183.579 144.517 183.601 144.506C183.579 144.517 183.557 144.528 183.535 144.539ZM243.838 144.49C243.898 144.458 243.957 144.425 244.016 144.391C243.957 144.425 243.898 144.458 243.838 144.49ZM469.381 144.37L469.388 144.363C469.404 144.344 469.419 144.324 469.435 144.305C469.417 144.327 469.399 144.349 469.381 144.37ZM183.858 144.361C183.884 144.346 183.909 144.33 183.934 144.314C183.909 144.33 183.884 144.346 183.858 144.361ZM244.118 144.329C244.147 144.311 244.176 144.293 244.205 144.274C244.176 144.293 244.147 144.311 244.118 144.329ZM244.841 143.738C244.703 143.901 244.549 144.039 244.38 144.155C244.345 144.18 244.309 144.203 244.273 144.228C244.309 144.204 244.345 144.181 244.38 144.156C244.549 144.04 244.703 143.901 244.841 143.738ZM184.632 143.738C184.494 143.901 184.34 144.039 184.171 144.155C184.156 144.166 184.141 144.175 184.126 144.186C184.141 144.175 184.156 144.167 184.171 144.156C184.34 144.04 184.494 143.901 184.632 143.738ZM364.966 143.738C364.828 143.901 364.675 144.04 364.506 144.155V144.156C364.675 144.04 364.828 143.901 364.966 143.738ZM45.1367 143.801C45.0951 143.85 45.0523 143.897 45.0078 143.941V143.942C45.0525 143.898 45.095 143.85 45.1367 143.801ZM478.215 140.912C478.199 141.402 478.167 141.878 478.119 142.339H478.12C478.168 141.878 478.2 141.402 478.216 140.912H478.215ZM253.572 139.738C253.572 140.053 253.567 140.36 253.558 140.66C253.567 140.36 253.572 140.052 253.572 139.737V139.738ZM152.137 134.347C152.115 134.402 152.095 134.458 152.074 134.516C152.101 134.442 152.129 134.37 152.157 134.3L152.137 134.347ZM52.2412 128.936L52.21 128.879C52.1697 128.811 52.1263 128.744 52.084 128.678C52.1378 128.763 52.1902 128.848 52.2412 128.936ZM68.6826 126.271H64.9775V126.271H68.6826C68.7598 126.271 68.8361 126.269 68.9111 126.267C68.8361 126.269 68.7599 126.271 68.6826 126.271ZM347.994 125.712C347.981 125.69 347.969 125.667 347.955 125.645C347.952 125.639 347.948 125.633 347.944 125.627C347.961 125.655 347.977 125.684 347.994 125.712ZM347.872 125.512C347.851 125.479 347.832 125.445 347.811 125.412C347.799 125.395 347.787 125.378 347.775 125.36C347.808 125.41 347.84 125.461 347.872 125.512ZM347.683 125.222C347.655 125.182 347.628 125.142 347.601 125.103C347.628 125.142 347.655 125.182 347.683 125.222ZM347.472 124.924C347.452 124.897 347.433 124.87 347.413 124.844C347.433 124.87 347.452 124.897 347.472 124.924ZM156.339 124.704H159.402V124.703H156.339V124.704ZM155.381 124.644C155.404 124.647 155.427 124.65 155.45 124.652C155.427 124.65 155.404 124.647 155.381 124.644ZM346.817 124.134C346.88 124.202 346.943 124.27 347.004 124.34C347.002 124.337 346.999 124.335 346.997 124.332C346.938 124.265 346.878 124.198 346.817 124.133V124.134ZM153.45 124.004C153.474 124.018 153.497 124.033 153.521 124.047C153.497 124.033 153.474 124.018 153.45 124.004ZM153.242 123.871C153.262 123.885 153.283 123.898 153.304 123.912C153.283 123.899 153.262 123.885 153.242 123.871ZM153.046 123.728C153.055 123.734 153.063 123.741 153.072 123.748C153.063 123.741 153.055 123.734 153.046 123.728ZM152.7 123.414C152.748 123.466 152.797 123.516 152.848 123.563C152.747 123.469 152.652 123.364 152.563 123.25L152.7 123.414ZM37.5254 122.566H40.5898V122.565H37.5254V122.566ZM334.348 120.999H338.053C338.299 120.999 338.542 121.003 338.78 121.011L338.053 120.998H334.348V120.999ZM363.326 82.2246C362.075 84.3199 360.402 86.4915 358.126 88.25C358.035 88.3203 357.943 88.3894 357.85 88.457C355.116 90.4453 351.902 91.6958 348.391 91.9727C348.379 91.9736 348.367 91.9756 348.355 91.9766L348.354 91.9756C346.8 92.0988 345.159 92.1533 343.454 92.1533H341.53C341.201 92.1533 340.875 92.1457 340.552 92.1318C343.954 94.2204 346.223 97.9744 346.224 102.259V110.278C348.959 111.117 351.622 112.476 353.984 114.554V102.259C353.985 95.7004 359.301 90.3829 365.859 90.3828H369.016C366.074 88.6571 363.944 85.7038 363.326 82.2246ZM72.5146 113.438C72.525 113.645 72.5303 113.862 72.5303 114.087L72.5264 113.755C72.5238 113.647 72.5198 113.54 72.5146 113.437V113.438ZM45.1943 112.968C45.2203 113.155 45.2413 113.349 45.2568 113.552L45.2305 113.254C45.2201 113.157 45.2073 113.061 45.1943 112.968ZM72.418 112.478C72.4127 112.443 72.408 112.409 72.4023 112.376C72.408 112.409 72.4127 112.443 72.418 112.478ZM469.748 110.592C469.784 110.653 469.818 110.717 469.851 110.782C469.785 110.651 469.714 110.528 469.637 110.413L469.748 110.592ZM457.492 104.966C457.38 105.083 457.272 105.203 457.166 105.326C457.272 105.204 457.38 105.084 457.492 104.967C457.556 104.898 457.621 104.831 457.687 104.765L457.492 104.966ZM475.163 104.967C475.241 105.049 475.318 105.132 475.394 105.217C475.318 105.132 475.242 105.048 475.163 104.966C475.099 104.898 475.034 104.831 474.969 104.765L475.163 104.967ZM49.9072 104.682C50.0622 104.819 50.2105 104.961 50.3516 105.109V105.108C50.2106 104.96 50.0621 104.818 49.9072 104.682ZM458.962 103.689C458.933 103.71 458.904 103.731 458.875 103.752C458.979 103.677 459.085 103.603 459.193 103.532L458.962 103.689ZM275.064 91.2812C275.242 91.3547 275.418 91.432 275.591 91.5137C275.715 91.4553 275.84 91.3989 275.966 91.3447C275.784 91.2809 275.604 91.2112 275.425 91.1387C275.305 91.1872 275.186 91.2365 275.064 91.2812ZM421.73 85.5918C419.507 87.8478 416.96 89.3817 414.307 90.3828H417.786C419.242 90.3828 420.637 90.6463 421.927 91.126C423.216 90.6461 424.612 90.3828 426.068 90.3828H428.384C425.995 89.2911 423.733 87.7376 421.74 85.6025C421.737 85.5992 421.734 85.5952 421.73 85.5918ZM86.0459 90.3828H86.9092C86.7632 90.2971 86.6195 90.2079 86.4775 90.1162C86.3356 90.2078 86.1919 90.2972 86.0459 90.3828ZM114.885 90.0283C114.593 90.1529 114.3 90.2716 114.005 90.3828H115.455C115.262 90.2694 115.071 90.152 114.885 90.0283ZM136.33 90.3828H136.913C136.881 90.3054 136.851 90.2267 136.82 90.1484C136.658 90.2282 136.495 90.3078 136.33 90.3828ZM253.135 86.5605C252.125 88.126 250.759 89.4383 249.149 90.3828H257.12C255.51 89.4383 254.144 88.1261 253.135 86.5605ZM472.15 78.9111V78.9121V78.9111ZM133.786 77.7354C133.662 77.8829 133.537 78.0223 133.411 78.1543L133.6 77.9512C133.662 77.8812 133.724 77.8092 133.786 77.7354ZM112.455 77.7354C112.388 77.7926 112.319 77.8491 112.25 77.9043L112.455 77.7363C112.523 77.6791 112.589 77.6208 112.654 77.5615L112.455 77.7354ZM280.703 75.916L280.709 75.8252C280.711 75.7767 280.711 75.7278 280.713 75.6787C280.71 75.7586 280.707 75.8377 280.703 75.916ZM280.731 75.1016C280.733 75.0334 280.734 74.9647 280.735 74.8955C280.734 74.9647 280.733 75.0334 280.731 75.1016ZM439.007 73.4951C439.041 73.4974 439.076 73.4993 439.111 73.501C439.076 73.4993 439.041 73.4974 439.007 73.4951ZM441.408 73.0918C441.295 73.1474 441.177 73.1977 441.056 73.2422L441.235 73.1719C441.294 73.1469 441.351 73.1196 441.408 73.0918ZM401.047 73.0107H401.048V56.124H401.047V73.0107ZM345.521 72.084C345.473 72.1314 345.424 72.1779 345.374 72.2217C345.424 72.178 345.473 72.1323 345.521 72.085C345.574 72.0376 345.625 71.9871 345.675 71.9346C345.625 71.987 345.574 72.0367 345.521 72.084ZM154.188 71.7383C154.05 71.9008 153.897 72.0395 153.728 72.1553V72.1562C153.897 72.0404 154.05 71.9011 154.188 71.7383ZM407.603 72.0127C407.561 72.0542 407.518 72.0949 407.475 72.1338C407.518 72.0949 407.561 72.0551 407.603 72.0137C407.644 71.9721 407.685 71.9279 407.724 71.8818L407.603 72.0127ZM468.805 72.0127C468.763 72.0542 468.72 72.0949 468.677 72.1338L468.805 72.0137C468.819 71.9997 468.831 71.9842 468.845 71.9697C468.831 71.984 468.818 71.9989 468.805 72.0127ZM468.905 71.9033C468.925 71.8801 468.945 71.8564 468.965 71.832C468.945 71.8564 468.925 71.8801 468.905 71.9033ZM469.012 71.7705C469.023 71.7549 469.035 71.7397 469.047 71.7236C469.035 71.7396 469.023 71.7549 469.012 71.7705ZM416.427 60.5762C416.434 60.822 416.438 61.0717 416.438 61.3252V67.8096L416.438 67.8086V61.3252C416.438 61.0717 416.435 60.822 416.427 60.5762ZM289.154 62.3467C289.12 62.4328 289.087 62.5218 289.056 62.6133C289.119 62.43 289.188 62.2574 289.264 62.0957L289.154 62.3467ZM291.14 60.2803C290.595 60.5141 290.146 60.8383 289.793 61.2539C289.692 61.3726 289.598 61.5024 289.51 61.6426L289.647 61.4404C289.695 61.3757 289.744 61.3132 289.794 61.2539C290.147 60.8383 290.596 60.514 291.141 60.2803H291.14ZM507.175 61.2959L507.276 61.2871C507.323 61.282 507.369 61.274 507.415 61.2686C507.335 61.278 507.255 61.2875 507.175 61.2959ZM507.817 61.2158C507.878 61.2071 507.938 61.1988 507.997 61.1895C507.938 61.1988 507.878 61.2071 507.817 61.2158ZM469.038 57.3975C469.111 57.4986 469.179 57.6086 469.241 57.7275L469.145 57.5557C469.111 57.5005 469.075 57.4481 469.038 57.3975ZM505.166 54.2705H501.461V54.2715H505.166C505.243 54.2715 505.319 54.2695 505.394 54.2666L505.166 54.2705ZM506.039 54.209L506.241 54.1738C506.264 54.1694 506.285 54.1629 506.308 54.1582C506.22 54.1769 506.131 54.195 506.039 54.209ZM114.393 53.7119C114.379 53.6896 114.367 53.6667 114.354 53.6445C114.35 53.6387 114.346 53.6328 114.343 53.627C114.36 53.655 114.376 53.6837 114.393 53.7119ZM114.271 53.5117C114.25 53.4786 114.23 53.4449 114.209 53.4121C114.198 53.3946 114.185 53.3778 114.174 53.3604C114.207 53.4104 114.239 53.4609 114.271 53.5117ZM114.081 53.2217C114.054 53.1817 114.027 53.1419 113.999 53.1025C114.027 53.1419 114.054 53.1817 114.081 53.2217ZM113.87 52.9238C113.85 52.8972 113.831 52.8701 113.812 52.8438C113.831 52.8701 113.85 52.8972 113.87 52.9238ZM293.356 52.7041H296.42V52.7031H293.356V52.7041ZM113.216 52.1338C113.279 52.2015 113.341 52.2701 113.402 52.3398C113.4 52.3372 113.398 52.3346 113.396 52.332C113.337 52.2649 113.277 52.1981 113.216 52.1328V52.1338ZM474.719 52.1338C474.779 52.199 474.84 52.265 474.898 52.332C474.839 52.2648 474.78 52.1981 474.719 52.1328C474.686 52.0967 474.652 52.0619 474.618 52.0264C474.652 52.0621 474.686 52.0975 474.719 52.1338ZM401.047 48.999H404.753C404.999 48.999 405.242 49.0026 405.48 49.0107L404.753 48.998H401.048V30.2588H401.047V48.999ZM100.746 48.999H104.451C104.698 48.999 104.94 49.0026 105.179 49.0107L104.451 48.998H100.746V48.999ZM462.25 48.999H465.955V48.998H462.25V48.999ZM443.015 38.9863H443.016C442.988 38.9215 442.959 38.859 442.929 38.7979C442.959 38.8589 442.987 38.9217 443.015 38.9863ZM442.907 38.7559C442.884 38.7099 442.86 38.665 442.835 38.6211C442.86 38.665 442.884 38.7099 442.907 38.7559ZM291.677 37.46H291.678H291.677ZM449.457 35.249C449.411 35.1573 449.363 35.0672 449.314 34.9775C449.363 35.0671 449.411 35.1573 449.457 35.249ZM449.25 34.8604C449.229 34.823 449.21 34.785 449.188 34.748C449.172 34.7185 449.154 34.6894 449.137 34.6602C449.175 34.7261 449.213 34.7932 449.25 34.8604ZM449.089 34.5801C449.074 34.5554 449.06 34.5304 449.045 34.5059C449.032 34.485 449.018 34.4651 449.005 34.4443C449.033 34.4895 449.061 34.5344 449.089 34.5801ZM448.829 34.1709C448.805 34.1347 448.781 34.0983 448.757 34.0625C448.781 34.0982 448.805 34.1347 448.829 34.1709ZM513.931 33.3945C513.991 33.4597 514.052 33.5256 514.11 33.5928C514.051 33.5253 513.992 33.4589 513.931 33.3936V33.3945ZM448.536 33.7549C448.49 33.6933 448.442 33.6336 448.395 33.5732C448.442 33.6335 448.49 33.6933 448.536 33.7549ZM448.277 33.4258C448.231 33.369 448.184 33.3124 448.137 33.2568C448.184 33.3124 448.231 33.369 448.277 33.4258ZM447.502 32.5693C447.631 32.6974 447.756 32.8302 447.878 32.9668C447.916 33.0081 447.953 33.0508 447.991 33.0928C447.953 33.0508 447.917 33.0071 447.879 32.9658C447.757 32.8292 447.631 32.6974 447.502 32.5693ZM433.057 30.9688V30.9697V30.9688Z" fill="#F49425"/>
</g>
<path d="M37.5259 80.1362H29.688V30.2591H37.5259V51.635H46.4325V30.2591H54.4128V80.1362H46.4325V58.7603H37.5259V80.1362ZM66.5086 51.2787H77.2678V58.404H66.5086V73.0109H80.0467V80.1362H58.6708V30.2591H80.0467V37.3844H66.5086V51.2787ZM100.746 48.9986H104.451C108.394 48.9986 111.315 50.0437 113.216 52.1338C115.163 54.2239 116.137 57.2877 116.137 61.3254V67.8094C116.137 71.8471 115.163 74.911 113.216 77.0011C111.315 79.0912 108.394 80.1362 104.451 80.1362H92.9084V30.2591H113.643V37.3844H100.746V48.9986ZM104.451 73.0109C105.686 73.0109 106.637 72.6784 107.302 72.0134C107.967 71.3483 108.299 70.1133 108.299 68.3082V60.8266C108.299 59.0216 107.967 57.7865 107.302 57.1215C106.637 56.4565 105.686 56.1239 104.451 56.1239H100.746V73.0109H104.451ZM121.454 73.0109C121.882 73.0584 122.333 73.0822 122.808 73.0822C123.283 73.0822 123.734 73.0822 124.162 73.0822C124.779 73.0822 125.349 73.0109 125.872 72.8684C126.442 72.7259 126.917 72.4646 127.297 72.0846C127.724 71.7046 128.033 71.1583 128.223 70.4458C128.461 69.7333 128.58 68.8307 128.58 67.7382L117.179 30.2591H125.017L133.638 59.4728L140.764 30.2591H148.602L138.341 67.0257C137.439 70.4458 136.512 73.0822 135.562 74.9348C134.66 76.7398 133.686 78.0461 132.641 78.8537C131.596 79.6137 130.456 80.0412 129.221 80.1362C128.033 80.2312 126.703 80.2787 125.231 80.2787C124.518 80.2787 123.877 80.2787 123.307 80.2787C122.737 80.2787 122.119 80.2312 121.454 80.1362V73.0109ZM147.885 73.0109C148.312 73.0584 148.763 73.0822 149.238 73.0822C149.713 73.0822 150.165 73.0822 150.592 73.0822C151.827 73.0822 152.872 72.7734 153.727 72.1559C154.63 71.5384 155.081 70.2558 155.081 68.3082V30.2591H179.877V73.0109H183.867V85.8365H175.887V80.1362H155.865V85.8365H147.885V73.0109ZM162.919 67.7382C162.919 69.8283 162.705 71.5859 162.278 73.0109H172.039V37.3844H162.919V67.7382ZM193.47 51.2787H204.229V58.404H193.47V73.0109H207.008V80.1362H185.632V30.2591H207.008V37.3844H193.47V51.2787ZM226.904 65.6719L232.248 30.2591H243.15V80.1362H235.74V44.3672L230.324 80.1362H222.914L217.071 44.866V80.1362H210.231V30.2591H221.133L226.904 65.6719ZM254.926 30.2591H279.152V37.3844H270.958V80.1362H263.12V37.3844H254.926V30.2591ZM292.644 37.3844C291.266 37.3844 290.245 37.7881 289.58 38.5957C288.962 39.4032 288.653 40.7095 288.653 42.5146V47.4311C288.653 49.4262 289.057 50.8037 289.865 51.5637C290.72 52.3238 291.884 52.7038 293.356 52.7038H296.42V37.3844H292.644ZM279.889 80.1362C280.269 79.1862 280.507 78.2599 280.602 77.3574C280.697 76.4073 280.744 75.3148 280.744 74.0797V66.3844C280.744 63.7718 281.101 61.5629 281.813 59.7578C282.573 57.9053 283.951 56.5752 285.946 55.7677C282.526 54.1526 280.816 50.78 280.816 45.6497V41.7308C280.816 37.8832 281.718 35.0093 283.523 33.1092C285.376 31.2091 288.345 30.2591 292.43 30.2591H304.258V80.1362H296.42V59.8291H293.712C291.907 59.8291 290.601 60.3041 289.793 61.2542C288.986 62.2042 288.582 63.843 288.582 66.1706V74.0085C288.582 75.006 288.558 75.8373 288.511 76.5023C288.511 77.1674 288.463 77.7136 288.368 78.1411C288.321 78.5687 288.25 78.9249 288.155 79.2099C288.06 79.495 287.965 79.8037 287.87 80.1362H279.889ZM316.395 80.1362H308.558V30.2591H316.395V51.635H325.302V30.2591H333.282V80.1362H325.302V58.7603H316.395V80.1362ZM339.678 73.0109C340.105 73.0584 340.557 73.0822 341.032 73.0822C341.507 73.0822 341.958 73.0822 342.386 73.0822C343.003 73.0822 343.573 73.0109 344.096 72.8684C344.666 72.7259 345.141 72.4646 345.521 72.0846C345.948 71.7046 346.257 71.1583 346.447 70.4458C346.684 69.7333 346.803 68.8307 346.803 67.7382L335.403 30.2591H343.241L351.862 59.4728L358.987 30.2591H366.825L356.565 67.0257C355.662 70.4458 354.736 73.0822 353.786 74.9348C352.883 76.7398 351.91 78.0461 350.865 78.8537C349.82 79.6137 348.68 80.0412 347.444 80.1362C346.257 80.2312 344.927 80.2787 343.454 80.2787C342.742 80.2787 342.101 80.2787 341.53 80.2787C340.96 80.2787 340.343 80.2312 339.678 80.1362V73.0109ZM366.821 30.2591H391.047V37.3844H382.853V80.1362H375.015V37.3844H366.821V30.2591ZM404.753 73.0109C405.988 73.0109 406.938 72.6784 407.603 72.0134C408.268 71.3483 408.6 70.1133 408.6 68.3082V60.8266C408.6 59.0216 408.268 57.7865 407.603 57.1215C406.938 56.4565 405.988 56.1239 404.753 56.1239H401.047V73.0109H404.753ZM393.21 80.1362V30.2591H401.047V48.9986H404.753C408.695 48.9986 411.617 50.0437 413.517 52.1338C415.464 54.2239 416.438 57.2877 416.438 61.3254V67.8094C416.438 71.8471 415.464 74.911 413.517 77.0011C411.617 79.0912 408.695 80.1362 404.753 80.1362H393.21ZM450.871 61.5392V68.1657C450.871 72.2034 449.874 75.3148 447.878 77.4999C445.931 79.6375 443.033 80.7063 439.186 80.7063C435.338 80.7063 432.417 79.6375 430.421 77.4999C428.474 75.3148 427.5 72.2034 427.5 68.1657V42.2296C427.5 38.1919 428.474 35.1043 430.421 32.9667C432.417 30.7816 435.338 29.689 439.186 29.689C443.033 29.689 445.931 30.7816 447.878 32.9667C449.874 35.1043 450.871 38.1919 450.871 42.2296V47.0748H443.461V41.7308C443.461 39.9257 443.081 38.6669 442.321 37.9544C441.608 37.1944 440.634 36.8144 439.399 36.8144C438.164 36.8144 437.167 37.1944 436.407 37.9544C435.694 38.6669 435.338 39.9257 435.338 41.7308V68.6645C435.338 70.4696 435.694 71.7284 436.407 72.4409C437.167 73.1534 438.164 73.5097 439.399 73.5097C440.634 73.5097 441.608 73.1534 442.321 72.4409C443.081 71.7284 443.461 70.4696 443.461 68.6645V61.5392H450.871ZM465.955 73.0109C467.19 73.0109 468.14 72.6784 468.805 72.0134C469.47 71.3483 469.803 70.1133 469.803 68.3082V60.8266C469.803 59.0216 469.47 57.7865 468.805 57.1215C468.14 56.4565 467.19 56.1239 465.955 56.1239H462.25V73.0109H465.955ZM454.412 80.1362V30.2591H462.25V48.9986H465.955C469.898 48.9986 472.819 50.0437 474.719 52.1338C476.667 54.2239 477.641 57.2877 477.641 61.3254V67.8094C477.641 71.8471 476.667 74.911 474.719 77.0011C472.819 79.0912 469.898 80.1362 465.955 80.1362H454.412ZM481.488 30.2591H489.326V80.1362H481.488V30.2591ZM505.166 30.2591C509.109 30.2591 512.031 31.3041 513.931 33.3942C515.878 35.4843 516.852 38.5482 516.852 42.5859V49.0699C516.852 53.1076 515.878 56.1714 513.931 58.2615C512.031 60.3516 509.109 61.3967 505.166 61.3967H501.461V80.1362H493.623V30.2591H505.166ZM501.461 37.3844V54.2714H505.166C506.402 54.2714 507.352 53.9388 508.017 53.2738C508.682 52.6088 509.014 51.3737 509.014 49.5687V42.0871C509.014 40.282 508.682 39.047 508.017 38.3819C507.352 37.7169 506.402 37.3844 505.166 37.3844H501.461ZM525.776 51.9913H561.403V58.404H525.776V51.9913ZM41.516 102.259C45.6012 102.259 48.5463 103.209 50.3514 105.109C52.204 107.009 53.1303 109.883 53.1303 113.731V115.512C53.1303 118.077 52.7265 120.191 51.919 121.854C51.1114 123.516 49.8289 124.751 48.0713 125.559C50.2089 126.366 51.7052 127.696 52.5603 129.549C53.4628 131.354 53.9141 133.587 53.9141 136.247V140.308C53.9141 144.156 52.9165 147.101 50.9214 149.144C48.9263 151.139 45.9575 152.136 42.0148 152.136H29.688V102.259H41.516ZM37.5259 129.692V145.011H42.0148C43.3449 145.011 44.3424 144.655 45.0074 143.942C45.72 143.23 46.0762 141.947 46.0762 140.094V135.748C46.0762 133.42 45.6725 131.829 44.8649 130.974C44.1049 130.119 42.8223 129.692 41.0173 129.692H37.5259ZM37.5259 109.384V122.566H40.5897C42.0623 122.566 43.2023 122.186 44.0099 121.426C44.8649 120.666 45.2924 119.289 45.2924 117.293V114.515C45.2924 112.71 44.9599 111.403 44.2949 110.596C43.6774 109.788 42.6798 109.384 41.3023 109.384H37.5259ZM68.6829 102.259C72.6256 102.259 75.547 103.304 77.4471 105.394C79.3946 107.484 80.3684 110.548 80.3684 114.586V121.07C80.3684 125.108 79.3946 128.171 77.4471 130.262C75.547 132.352 72.6256 133.397 68.6829 133.397H64.9778V152.136H57.1399V102.259H68.6829ZM64.9778 109.384V126.271H68.6829C69.918 126.271 70.868 125.939 71.5331 125.274C72.1981 124.609 72.5306 123.374 72.5306 121.569V114.087C72.5306 112.282 72.1981 111.047 71.5331 110.382C70.868 109.717 69.918 109.384 68.6829 109.384H64.9778ZM90.3422 123.279H101.101V130.404H90.3422V145.011H103.88V152.136H82.5044V102.259H103.88V109.384H90.3422V123.279ZM123.777 137.672L129.121 102.259H140.022V152.136H132.612V116.367L127.197 152.136H119.786L113.944 116.866V152.136H107.103V102.259H118.005L123.777 137.672ZM155.626 109.384C154.249 109.384 153.227 109.788 152.562 110.596C151.945 111.403 151.636 112.71 151.636 114.515V119.431C151.636 121.426 152.04 122.804 152.847 123.564C153.702 124.324 154.866 124.704 156.339 124.704H159.403V109.384H155.626ZM142.872 152.136C143.252 151.186 143.489 150.26 143.584 149.357C143.679 148.407 143.727 147.315 143.727 146.08V138.384C143.727 135.772 144.083 133.563 144.796 131.758C145.556 129.905 146.933 128.575 148.928 127.768C145.508 126.153 143.798 122.78 143.798 117.65V113.731C143.798 109.883 144.701 107.009 146.506 105.109C148.358 103.209 151.327 102.259 155.412 102.259H167.24V152.136H159.403V131.829H156.695C154.89 131.829 153.584 132.304 152.776 133.254C151.969 134.204 151.565 135.843 151.565 138.171V146.008C151.565 147.006 151.541 147.837 151.493 148.502C151.493 149.167 151.446 149.714 151.351 150.141C151.303 150.569 151.232 150.925 151.137 151.21C151.042 151.495 150.947 151.804 150.852 152.136H142.872ZM178.329 145.011C178.756 145.058 179.207 145.082 179.682 145.082C180.157 145.082 180.609 145.082 181.036 145.082C182.271 145.082 183.316 144.773 184.171 144.156C185.074 143.538 185.525 142.256 185.525 140.308V102.259H210.321V145.011H214.311V157.836H206.331V152.136H186.309V157.836H178.329V145.011ZM193.363 139.738C193.363 141.828 193.149 143.586 192.722 145.011H202.483V109.384H193.363V139.738ZM223.914 123.279H234.673V130.404H223.914V145.011H237.452V152.136H216.076V102.259H237.452V109.384H223.914V123.279ZM262.692 109.384H253.572V139.738C253.572 142.256 253.263 144.322 252.646 145.937C252.028 147.552 251.197 148.835 250.152 149.785C249.107 150.687 247.895 151.329 246.518 151.709C245.188 152.089 243.786 152.279 242.314 152.279C241.601 152.279 240.96 152.279 240.39 152.279C239.82 152.279 239.203 152.231 238.537 152.136V145.011C238.965 145.058 239.416 145.082 239.891 145.082C240.366 145.082 240.818 145.082 241.245 145.082C242.48 145.082 243.525 144.773 244.38 144.156C245.283 143.538 245.734 142.256 245.734 140.308V102.259H270.53V152.136H262.692V109.384ZM300.102 152.136H292.193L290.839 143.087H281.22L279.866 152.136H272.669L280.65 102.259H292.121L300.102 152.136ZM282.217 136.318H289.77L285.994 111.094L282.217 136.318ZM300.121 102.259H324.347V109.384H316.153V152.136H308.315V109.384H300.121V102.259ZM338.053 145.011C339.288 145.011 340.238 144.678 340.903 144.013C341.568 143.348 341.901 142.113 341.901 140.308V132.827C341.901 131.022 341.568 129.787 340.903 129.121C340.238 128.456 339.288 128.124 338.053 128.124H334.348V145.011H338.053ZM326.51 152.136V102.259H334.348V120.999H338.053C341.996 120.999 344.917 122.044 346.817 124.134C348.765 126.224 349.738 129.288 349.738 133.325V139.809C349.738 143.847 348.765 146.911 346.817 149.001C344.917 151.091 341.996 152.136 338.053 152.136H326.51ZM358.663 145.011C359.09 145.058 359.542 145.082 360.017 145.082C360.492 145.082 360.943 145.082 361.371 145.082C362.606 145.082 363.651 144.773 364.506 144.156C365.408 143.538 365.859 142.256 365.859 140.308V102.259H390.656V145.011H394.646V157.836H386.665V152.136H366.643V157.836H358.663V145.011ZM373.697 139.738C373.697 141.828 373.484 143.586 373.056 145.011H382.818V109.384H373.697V139.738ZM404.248 123.279H415.007V130.404H404.248V145.011H417.786V152.136H396.41V102.259H417.786V109.384H404.248V123.279ZM443.027 109.384H433.906V139.738C433.906 142.256 433.597 144.322 432.98 145.937C432.362 147.552 431.531 148.835 430.486 149.785C429.441 150.687 428.23 151.329 426.852 151.709C425.522 152.089 424.121 152.279 422.648 152.279C421.936 152.279 421.294 152.279 420.724 152.279C420.154 152.279 419.537 152.231 418.872 152.136V145.011C419.299 145.058 419.751 145.082 420.226 145.082C420.701 145.082 421.152 145.082 421.579 145.082C422.814 145.082 423.86 144.773 424.715 144.156C425.617 143.538 426.068 142.256 426.068 140.308V102.259H450.864V152.136H443.027V109.384ZM462.267 140.664C462.267 142.47 462.623 143.752 463.335 144.512C464.095 145.225 465.093 145.581 466.328 145.581C467.563 145.581 468.537 145.225 469.249 144.512C470.009 143.752 470.389 142.47 470.389 140.664V113.731C470.389 111.926 470.009 110.667 469.249 109.954C468.537 109.194 467.563 108.814 466.328 108.814C465.093 108.814 464.095 109.194 463.335 109.954C462.623 110.667 462.267 111.926 462.267 113.731V140.664ZM454.429 114.23C454.429 110.192 455.45 107.104 457.493 104.967C459.535 102.782 462.48 101.689 466.328 101.689C470.176 101.689 473.121 102.782 475.163 104.967C477.206 107.104 478.227 110.192 478.227 114.23V140.166C478.227 144.203 477.206 147.315 475.163 149.5C473.121 151.637 470.176 152.706 466.328 152.706C462.48 152.706 459.535 151.637 457.493 149.5C455.45 147.315 454.429 144.203 454.429 140.166V114.23Z" fill="white"/>
<defs>
<filter id="filter0_ii_616_19601" x="11.8747" y="11.8757" width="567.34" height="163.774" filterUnits="userSpaceOnUse" color-interpolation-filters="sRGB">
<feFlood flood-opacity="0" result="BackgroundImageFix"/>
<feBlend mode="normal" in="SourceGraphic" in2="BackgroundImageFix" result="shape"/>
<feColorMatrix in="SourceAlpha" type="matrix" values="0 0 0 0 0 0 0 0 0 0 0 0 0 0 0 0 0 0 127 0" result="hardAlpha"/>
<feOffset dx="5.93776" dy="5.93776"/>
<feGaussianBlur stdDeviation="2.96888"/>
<feComposite in2="hardAlpha" operator="arithmetic" k2="-1" k3="1"/>
<feColorMatrix type="matrix" values="0 0 0 0 0.975983 0 0 0 0 0.766376 0 0 0 0 0.524017 0 0 0 1 0"/>
<feBlend mode="normal" in2="shape" result="effect1_innerShadow_616_19601"/>
<feColorMatrix in="SourceAlpha" type="matrix" values="0 0 0 0 0 0 0 0 0 0 0 0 0 0 0 0 0 0 127 0" result="hardAlpha"/>
<feOffset dx="-5.93776" dy="-5.93776"/>
<feGaussianBlur stdDeviation="2.96888"/>
<feComposite in2="hardAlpha" operator="arithmetic" k2="-1" k3="1"/>
<feColorMatrix type="matrix" values="0 0 0 0 0.856769 0 0 0 0 0.479476 0 0 0 0 0.0432314 0 0 0 1 0"/>
<feBlend mode="normal" in2="effect1_innerShadow_616_19601" result="effect2_innerShadow_616_19601"/>
</filter>
</defs>
</svg>
