<svg width="376" height="42" viewBox="0 0 376 42" fill="none" xmlns="http://www.w3.org/2000/svg">
<path d="M52.7334 4.38184C69.3505 4.38184 78.0314 20.3252 110.521 20.3252C130.088 20.3252 137.059 12.6123 157.521 12.6123C182.719 12.6124 194.599 41.8115 214.937 41.8115H0.402344V13.3281C0.406823 13.3327 2.51669 15.4766 8.33887 15.4766C24.0877 15.4766 40.1342 4.38202 52.7334 4.38184ZM375.402 41.8115H214.937C235.273 41.8112 237.754 21.9229 251.767 21.9229C270.131 21.923 261.186 38.563 279.544 38.7812C295.356 38.9691 293.309 26.881 309.926 26.8809C320.962 26.8809 328.899 30.4072 341.052 30.4072C350.774 30.4072 368.003 20.1961 375.402 15.0908V41.8115ZM375.402 0.144531H0.402344V0.141602H375.402V0.144531Z" fill="#FFCC66"/>
</svg>
