<svg width="1441" height="145" viewBox="0 0 1441 145" fill="none" xmlns="http://www.w3.org/2000/svg">
<path d="M201.827 0.320312C265.637 0.320312 298.971 61.543 423.732 61.543C498.867 61.5429 525.637 31.9249 604.208 31.9248C700.97 31.9248 746.589 144.051 824.685 144.051H0.875V34.6748C0.901803 34.7021 9.00767 42.9258 31.3516 42.9258C91.8275 42.9256 153.446 0.320456 201.827 0.320312ZM1440.88 144.051H824.685C902.78 144.051 912.304 67.6777 966.113 67.6777C1036.64 67.6778 1002.28 131.577 1072.78 132.415C1133.5 133.136 1125.64 86.7178 1189.45 86.7178C1231.83 86.7178 1262.3 100.258 1308.97 100.258C1346.3 100.257 1412.46 61.0487 1440.88 41.4443V144.051Z" fill="#FFCC66"/>
</svg>
