<svg width="769" height="173" viewBox="0 0 769 173" fill="none" xmlns="http://www.w3.org/2000/svg">
<path d="M107.831 0.182617C141.863 0.182969 159.64 73.6492 226.18 73.6494C266.252 73.6494 280.529 38.1076 322.434 38.1074C374.04 38.1074 398.371 172.659 440.021 172.659H0.65625V41.4082C0.678558 41.4592 5.00452 51.3086 16.9102 51.3086C49.1641 51.3086 82.0279 0.182617 107.831 0.182617ZM768.656 172.659H440.021C481.672 172.659 486.752 81.0117 515.45 81.0117C553.062 81.0121 534.741 157.691 572.339 158.696C604.722 159.562 600.529 103.861 634.561 103.86C657.164 103.86 673.418 120.108 698.307 120.108C718.218 120.108 753.503 73.0577 768.656 49.5322V172.659Z" fill="#FFCC66"/>
</svg>
