<svg width="182" height="61" viewBox="0 0 182 61" fill="none" xmlns="http://www.w3.org/2000/svg">
<mask id="path-1-outside-1_2067_19454" maskUnits="userSpaceOnUse" x="6.2793" y="5.05957" width="175" height="56" fill="black">
<rect fill="white" x="6.2793" y="5.05957" width="175" height="56"/>
<path d="M24.9951 13.5615H44.0527C44.19 13.5616 44.3261 13.5891 44.4531 13.6416C44.5801 13.6942 44.6957 13.7719 44.793 13.8691C44.8903 13.9663 44.967 14.0821 45.0195 14.209C45.072 14.336 45.0996 14.4719 45.0996 14.6094V40.3555L47.1621 40.3545C47.4397 40.3549 47.7062 40.4658 47.9023 40.6621C48.0986 40.8586 48.2093 41.1248 48.21 41.4023V51.2881C48.2092 51.5656 48.0986 51.8319 47.9023 52.0283C47.7062 52.2246 47.4397 52.3345 47.1621 52.335H40.96C40.6825 52.3345 40.416 52.2245 40.2197 52.0283C40.0235 51.8319 39.9128 51.5656 39.9121 51.2881V47.0293H22.5195V51.2881C22.5194 51.5656 22.409 51.8319 22.2129 52.0283C22.0164 52.2249 21.7495 52.335 21.4717 52.335H15.3271C15.0496 52.3345 14.7832 52.2246 14.5869 52.0283C14.3907 51.8319 14.28 51.5656 14.2793 51.2881V42.0381C14.2793 41.3528 14.4355 40.9056 14.7471 40.6973C15.0052 40.5345 15.2961 40.4306 15.5986 40.3916C15.8952 40.3476 16.1732 40.2201 16.4004 40.0244C16.9562 39.5269 17.437 38.9514 17.8271 38.3154C18.3606 37.4548 18.7944 36.5358 19.1201 35.5771C19.4725 34.5446 19.7461 33.4863 19.9375 32.4121C20.1379 31.2998 20.2889 30.1678 20.3945 29.0381C20.5001 27.9086 20.5667 22.4799 20.5947 21.4014C20.6235 20.3218 20.6377 19.3157 20.6377 18.3828V15.6162C20.6377 15.0258 20.7584 14.5903 20.9932 14.3037C21.2476 14.01 21.5861 13.801 21.9629 13.7061C22.4174 13.5856 22.8875 13.5327 23.3574 13.5488C23.8745 13.5574 24.4206 13.5615 24.9951 13.5615ZM129.802 13.0596C135.043 13.0596 138.703 14.9038 139.703 15.4687C139.904 15.5814 140.07 15.7455 140.187 15.9443C140.302 16.1432 140.363 16.3701 140.362 16.6006V21.7402C140.365 21.9642 140.309 22.185 140.2 22.3809C140.092 22.5769 139.934 22.7417 139.743 22.8584C139.552 22.9749 139.334 23.0399 139.11 23.0469C138.887 23.0538 138.664 23.002 138.466 22.8975C135.649 21.4576 132.884 20.7569 130.014 20.7568C124.085 20.7568 119.941 24.8646 119.941 30.7441C119.942 36.5327 124.123 40.7304 129.882 40.7305C132.941 40.7447 135.96 40.0261 138.686 38.6348C138.884 38.5323 139.105 38.4828 139.328 38.4912C139.495 38.4975 139.659 38.5362 139.811 38.6045L139.96 38.6846C140.15 38.8004 140.307 38.9639 140.416 39.1582C140.525 39.3525 140.581 39.5721 140.58 39.7949L140.58 44.915C140.581 45.1454 140.52 45.3713 140.404 45.5703C140.288 45.7692 140.122 45.9341 139.921 46.0469C139.494 46.2951 135.578 48.4189 129.664 48.4189C119.468 48.4189 111.775 40.8164 111.775 30.7393C111.775 20.6622 119.526 13.0597 129.802 13.0596ZM79.4131 13.1475C79.7559 13.1476 80.0848 13.2838 80.3271 13.5264C80.5696 13.769 80.706 14.0976 80.7061 14.4404V46.5537C80.7061 46.8969 80.5698 47.2261 80.3271 47.4687C80.0848 47.7113 79.7559 47.8476 79.4131 47.8477H73.9795C73.6366 47.8477 73.3078 47.7112 73.0654 47.4687C72.8228 47.2261 72.6865 46.8969 72.6865 46.5537V29.7246L54.8945 47.9463C54.7734 48.0705 54.6286 48.1693 54.4687 48.2363C54.3087 48.3033 54.1373 48.3375 53.9639 48.3369H53.832C53.4894 48.3369 53.1606 48.2005 52.918 47.958C52.6755 47.7156 52.5391 47.386 52.5391 47.043V14.9297C52.5391 14.5868 52.6756 14.258 52.918 14.0156C53.1606 13.773 53.4893 13.6368 53.832 13.6367L59.2588 13.6299C59.6018 13.6299 59.9314 13.7661 60.1738 14.0088C60.4164 14.2514 60.5527 14.5809 60.5527 14.9238L60.5527 31.7168L78.3076 13.5371C78.4289 13.414 78.5731 13.3158 78.7324 13.249C78.8919 13.182 79.0635 13.1479 79.2363 13.1475H79.4131ZM171.949 13.1465C172.292 13.1465 172.621 13.2827 172.863 13.5254C173.106 13.768 173.242 14.0965 173.242 14.4395V46.5527C173.242 46.896 173.106 47.2251 172.863 47.4678C172.621 47.7103 172.292 47.8467 171.949 47.8467L166.505 47.8467C166.162 47.8466 165.833 47.7103 165.591 47.4678C165.348 47.2251 165.212 46.896 165.212 46.5527V29.7236L147.42 47.9453C147.299 48.0695 147.154 48.1683 146.994 48.2354C146.834 48.3023 146.662 48.3366 146.489 48.3359L146.357 48.3359C146.015 48.3358 145.686 48.1996 145.443 47.957C145.201 47.7146 145.064 47.385 145.064 47.042V14.9287C145.065 14.5859 145.201 14.257 145.443 14.0146C145.686 13.7721 146.015 13.6358 146.357 13.6357L151.796 13.6289C152.139 13.629 152.467 13.7653 152.71 14.0078C152.952 14.2505 153.089 14.5798 153.089 14.9229V31.7158L170.846 13.5361C170.967 13.4128 171.112 13.3151 171.271 13.248C171.431 13.1811 171.602 13.1467 171.774 13.1465H171.949ZM112.482 13.6377C112.733 13.6355 112.979 13.706 113.19 13.8408C113.401 13.9757 113.568 14.1693 113.672 14.3975C113.775 14.6259 113.81 14.8801 113.772 15.1279C113.734 15.3756 113.625 15.6072 113.458 15.7939L102.682 28.0244L113.76 45.873C113.884 46.0696 113.953 46.296 113.96 46.5283C113.967 46.7605 113.911 46.9902 113.798 47.1934C113.685 47.3966 113.519 47.5657 113.318 47.6826C113.117 47.7997 112.889 47.8603 112.656 47.8584L106.378 47.8584C106.154 47.8594 105.933 47.8023 105.738 47.6924C105.543 47.5824 105.379 47.4236 105.264 47.2314L97.1211 33.7471L93.4941 37.749L93.4941 46.5586C93.4941 46.9018 93.3578 47.231 93.1152 47.4736C92.8729 47.7161 92.544 47.8525 92.2012 47.8525H86.666C86.3232 47.8525 85.9945 47.7161 85.752 47.4736C85.5096 47.231 85.3731 46.9018 85.373 46.5586V14.9336C85.373 14.5906 85.5095 14.2612 85.752 14.0186C85.9945 13.7761 86.3232 13.6397 86.666 13.6396H92.2051C92.5481 13.6396 92.8775 13.7759 93.1201 14.0186C93.3625 14.2612 93.499 14.5906 93.499 14.9336V27.3281L104.87 14.0908C104.992 13.9486 105.142 13.834 105.312 13.7559C105.482 13.6777 105.667 13.6375 105.854 13.6377H112.482ZM28.25 22.1777C28.25 23.0898 28.2022 28.4753 28.1074 29.7021C28.0097 30.9269 27.8486 32.1817 27.623 33.4668C27.3972 34.7378 27.0819 35.9917 26.6807 37.2188C26.3326 38.3318 25.8251 39.3886 25.1729 40.3555H36.8623L36.8711 20.3242H28.25L28.25 22.1777Z"/>
</mask>
<path d="M24.9951 13.5615H44.0527C44.19 13.5616 44.3261 13.5891 44.4531 13.6416C44.5801 13.6942 44.6957 13.7719 44.793 13.8691C44.8903 13.9663 44.967 14.0821 45.0195 14.209C45.072 14.336 45.0996 14.4719 45.0996 14.6094V40.3555L47.1621 40.3545C47.4397 40.3549 47.7062 40.4658 47.9023 40.6621C48.0986 40.8586 48.2093 41.1248 48.21 41.4023V51.2881C48.2092 51.5656 48.0986 51.8319 47.9023 52.0283C47.7062 52.2246 47.4397 52.3345 47.1621 52.335H40.96C40.6825 52.3345 40.416 52.2245 40.2197 52.0283C40.0235 51.8319 39.9128 51.5656 39.9121 51.2881V47.0293H22.5195V51.2881C22.5194 51.5656 22.409 51.8319 22.2129 52.0283C22.0164 52.2249 21.7495 52.335 21.4717 52.335H15.3271C15.0496 52.3345 14.7832 52.2246 14.5869 52.0283C14.3907 51.8319 14.28 51.5656 14.2793 51.2881V42.0381C14.2793 41.3528 14.4355 40.9056 14.7471 40.6973C15.0052 40.5345 15.2961 40.4306 15.5986 40.3916C15.8952 40.3476 16.1732 40.2201 16.4004 40.0244C16.9562 39.5269 17.437 38.9514 17.8271 38.3154C18.3606 37.4548 18.7944 36.5358 19.1201 35.5771C19.4725 34.5446 19.7461 33.4863 19.9375 32.4121C20.1379 31.2998 20.2889 30.1678 20.3945 29.0381C20.5001 27.9086 20.5667 22.4799 20.5947 21.4014C20.6235 20.3218 20.6377 19.3157 20.6377 18.3828V15.6162C20.6377 15.0258 20.7584 14.5903 20.9932 14.3037C21.2476 14.01 21.5861 13.801 21.9629 13.7061C22.4174 13.5856 22.8875 13.5327 23.3574 13.5488C23.8745 13.5574 24.4206 13.5615 24.9951 13.5615ZM129.802 13.0596C135.043 13.0596 138.703 14.9038 139.703 15.4687C139.904 15.5814 140.07 15.7455 140.187 15.9443C140.302 16.1432 140.363 16.3701 140.362 16.6006V21.7402C140.365 21.9642 140.309 22.185 140.2 22.3809C140.092 22.5769 139.934 22.7417 139.743 22.8584C139.552 22.9749 139.334 23.0399 139.11 23.0469C138.887 23.0538 138.664 23.002 138.466 22.8975C135.649 21.4576 132.884 20.7569 130.014 20.7568C124.085 20.7568 119.941 24.8646 119.941 30.7441C119.942 36.5327 124.123 40.7304 129.882 40.7305C132.941 40.7447 135.96 40.0261 138.686 38.6348C138.884 38.5323 139.105 38.4828 139.328 38.4912C139.495 38.4975 139.659 38.5362 139.811 38.6045L139.96 38.6846C140.15 38.8004 140.307 38.9639 140.416 39.1582C140.525 39.3525 140.581 39.5721 140.58 39.7949L140.58 44.915C140.581 45.1454 140.52 45.3713 140.404 45.5703C140.288 45.7692 140.122 45.9341 139.921 46.0469C139.494 46.2951 135.578 48.4189 129.664 48.4189C119.468 48.4189 111.775 40.8164 111.775 30.7393C111.775 20.6622 119.526 13.0597 129.802 13.0596ZM79.4131 13.1475C79.7559 13.1476 80.0848 13.2838 80.3271 13.5264C80.5696 13.769 80.706 14.0976 80.7061 14.4404V46.5537C80.7061 46.8969 80.5698 47.2261 80.3271 47.4687C80.0848 47.7113 79.7559 47.8476 79.4131 47.8477H73.9795C73.6366 47.8477 73.3078 47.7112 73.0654 47.4687C72.8228 47.2261 72.6865 46.8969 72.6865 46.5537V29.7246L54.8945 47.9463C54.7734 48.0705 54.6286 48.1693 54.4687 48.2363C54.3087 48.3033 54.1373 48.3375 53.9639 48.3369H53.832C53.4894 48.3369 53.1606 48.2005 52.918 47.958C52.6755 47.7156 52.5391 47.386 52.5391 47.043V14.9297C52.5391 14.5868 52.6756 14.258 52.918 14.0156C53.1606 13.773 53.4893 13.6368 53.832 13.6367L59.2588 13.6299C59.6018 13.6299 59.9314 13.7661 60.1738 14.0088C60.4164 14.2514 60.5527 14.5809 60.5527 14.9238L60.5527 31.7168L78.3076 13.5371C78.4289 13.414 78.5731 13.3158 78.7324 13.249C78.8919 13.182 79.0635 13.1479 79.2363 13.1475H79.4131ZM171.949 13.1465C172.292 13.1465 172.621 13.2827 172.863 13.5254C173.106 13.768 173.242 14.0965 173.242 14.4395V46.5527C173.242 46.896 173.106 47.2251 172.863 47.4678C172.621 47.7103 172.292 47.8467 171.949 47.8467L166.505 47.8467C166.162 47.8466 165.833 47.7103 165.591 47.4678C165.348 47.2251 165.212 46.896 165.212 46.5527V29.7236L147.42 47.9453C147.299 48.0695 147.154 48.1683 146.994 48.2354C146.834 48.3023 146.662 48.3366 146.489 48.3359L146.357 48.3359C146.015 48.3358 145.686 48.1996 145.443 47.957C145.201 47.7146 145.064 47.385 145.064 47.042V14.9287C145.065 14.5859 145.201 14.257 145.443 14.0146C145.686 13.7721 146.015 13.6358 146.357 13.6357L151.796 13.6289C152.139 13.629 152.467 13.7653 152.71 14.0078C152.952 14.2505 153.089 14.5798 153.089 14.9229V31.7158L170.846 13.5361C170.967 13.4128 171.112 13.3151 171.271 13.248C171.431 13.1811 171.602 13.1467 171.774 13.1465H171.949ZM112.482 13.6377C112.733 13.6355 112.979 13.706 113.19 13.8408C113.401 13.9757 113.568 14.1693 113.672 14.3975C113.775 14.6259 113.81 14.8801 113.772 15.1279C113.734 15.3756 113.625 15.6072 113.458 15.7939L102.682 28.0244L113.76 45.873C113.884 46.0696 113.953 46.296 113.96 46.5283C113.967 46.7605 113.911 46.9902 113.798 47.1934C113.685 47.3966 113.519 47.5657 113.318 47.6826C113.117 47.7997 112.889 47.8603 112.656 47.8584L106.378 47.8584C106.154 47.8594 105.933 47.8023 105.738 47.6924C105.543 47.5824 105.379 47.4236 105.264 47.2314L97.1211 33.7471L93.4941 37.749L93.4941 46.5586C93.4941 46.9018 93.3578 47.231 93.1152 47.4736C92.8729 47.7161 92.544 47.8525 92.2012 47.8525H86.666C86.3232 47.8525 85.9945 47.7161 85.752 47.4736C85.5096 47.231 85.3731 46.9018 85.373 46.5586V14.9336C85.373 14.5906 85.5095 14.2612 85.752 14.0186C85.9945 13.7761 86.3232 13.6397 86.666 13.6396H92.2051C92.5481 13.6396 92.8775 13.7759 93.1201 14.0186C93.3625 14.2612 93.499 14.5906 93.499 14.9336V27.3281L104.87 14.0908C104.992 13.9486 105.142 13.834 105.312 13.7559C105.482 13.6777 105.667 13.6375 105.854 13.6377H112.482ZM28.25 22.1777C28.25 23.0898 28.2022 28.4753 28.1074 29.7021C28.0097 30.9269 27.8486 32.1817 27.623 33.4668C27.3972 34.7378 27.0819 35.9917 26.6807 37.2188C26.3326 38.3318 25.8251 39.3886 25.1729 40.3555H36.8623L36.8711 20.3242H28.25L28.25 22.1777Z" fill="#6AA338"/>
<path d="M24.9951 13.5615L24.9951 21.5615H24.9951V13.5615ZM44.0527 13.5615L44.0564 5.56152H44.0527V13.5615ZM44.4531 13.6416L47.5146 6.25055L47.5102 6.24876L44.4531 13.6416ZM44.793 13.8691L39.136 19.5259L39.14 19.5298L44.793 13.8691ZM45.0195 14.209L52.4129 11.1531L52.4107 11.1477L45.0195 14.209ZM45.0996 14.6094L53.0996 14.6094L53.0996 14.6066L45.0996 14.6094ZM45.0996 40.3555H37.0996C37.0996 42.4779 37.943 44.5133 39.4441 46.0137C40.9452 47.5141 42.981 48.3565 45.1034 48.3555L45.0996 40.3555ZM47.1621 40.3545L47.1742 32.3545C47.1689 32.3545 47.1636 32.3545 47.1583 32.3545L47.1621 40.3545ZM47.9023 40.6621L53.5634 35.0095L53.5623 35.0084L47.9023 40.6621ZM48.21 41.4023H56.21C56.21 41.3963 56.21 41.3903 56.2099 41.3842L48.21 41.4023ZM48.21 51.2881L56.2099 51.3092C56.21 51.3022 56.21 51.2951 56.21 51.2881L48.21 51.2881ZM47.9023 52.0283L53.5616 57.6827L53.5623 57.6821L47.9023 52.0283ZM47.1621 52.335L47.1621 60.335L47.1742 60.335L47.1621 52.335ZM40.96 52.335L40.9479 60.335H40.96V52.335ZM40.2197 52.0283L34.5598 57.6821L34.5652 57.6875L40.2197 52.0283ZM39.9121 51.2881H31.9121C31.9121 51.2951 31.9121 51.3022 31.9121 51.3092L39.9121 51.2881ZM39.9121 47.0293H47.9121C47.9121 42.611 44.3304 39.0293 39.9121 39.0293V47.0293ZM22.5195 47.0293V39.0293C18.1013 39.0293 14.5195 42.611 14.5195 47.0293H22.5195ZM22.5195 51.2881L30.5195 51.2911V51.2881H22.5195ZM22.2129 52.0283L27.8711 57.6839L27.8741 57.6808L22.2129 52.0283ZM15.3271 52.335L15.3147 60.335H15.3271V52.335ZM14.5869 52.0283L8.9267 57.6818L8.93011 57.6852L14.5869 52.0283ZM14.2793 51.2881H6.2793C6.2793 51.2946 6.2793 51.301 6.27932 51.3075L14.2793 51.2881ZM14.2793 42.0381L6.2793 42.0375V42.0381H14.2793ZM14.7471 40.6973L10.4799 33.9304C10.4198 33.9682 10.3603 34.0069 10.3013 34.0463L14.7471 40.6973ZM15.5986 40.3916L16.6211 48.326C16.6718 48.3195 16.7224 48.3124 16.7729 48.3049L15.5986 40.3916ZM16.4004 40.0244L21.6216 46.0857C21.6601 46.0525 21.6982 46.0191 21.736 45.9852L16.4004 40.0244ZM17.8271 38.3154L11.0274 34.1007C11.0209 34.1112 11.0145 34.1217 11.008 34.1322L17.8271 38.3154ZM19.1201 35.5771L11.5489 32.9932L11.5454 33.0035L19.1201 35.5771ZM19.9375 32.4121L12.0643 30.9935C12.0633 30.9987 12.0624 31.0039 12.0615 31.0091L19.9375 32.4121ZM20.3945 29.0381L28.3598 29.7828L28.3598 29.7827L20.3945 29.0381ZM20.5947 21.4014L12.5976 21.1886L12.5974 21.1936L20.5947 21.4014ZM20.6377 15.6162L12.6377 15.6156V15.6162H20.6377ZM20.9932 14.3037L14.9466 9.06552C14.8986 9.12088 14.8514 9.1769 14.805 9.23356L20.9932 14.3037ZM21.9629 13.7061L23.9177 21.4636C23.9493 21.4556 23.9808 21.4474 24.0123 21.4391L21.9629 13.7061ZM23.3574 13.5488L23.0833 21.5441C23.1304 21.5457 23.1775 21.5469 23.2246 21.5477L23.3574 13.5488ZM129.802 13.0596L129.802 5.05957L129.802 5.05957L129.802 13.0596ZM139.703 15.4687L135.769 22.4343C135.774 22.4375 135.78 22.4407 135.785 22.4438L139.703 15.4687ZM140.187 15.9443L147.099 11.9166L147.096 11.9119L140.187 15.9443ZM140.362 16.6006L132.362 16.5715C132.362 16.5812 132.362 16.5909 132.362 16.6006L140.362 16.6006ZM140.362 21.7402H132.362C132.362 21.7701 132.362 21.8 132.363 21.8298L140.362 21.7402ZM140.2 22.3809L133.202 18.5041L133.201 18.5065L140.2 22.3809ZM139.743 22.8584L143.908 29.6886L143.913 29.6857L139.743 22.8584ZM139.11 23.0469L139.357 31.0431L139.36 31.043L139.11 23.0469ZM138.466 22.8975L142.201 15.8232C142.17 15.8067 142.139 15.7903 142.107 15.7742L138.466 22.8975ZM130.014 20.7568L130.014 12.7568H130.014V20.7568ZM119.941 30.7441L111.941 30.7441L111.941 30.7444L119.941 30.7441ZM129.882 40.7305L129.919 32.7306C129.907 32.7305 129.894 32.7305 129.882 32.7305L129.882 40.7305ZM138.686 38.6348L142.323 45.76C142.336 45.7533 142.349 45.7466 142.362 45.7398L138.686 38.6348ZM139.328 38.4912L139.63 30.4969L139.629 30.4969L139.328 38.4912ZM139.811 38.6045L143.59 31.5533C143.428 31.4666 143.263 31.3854 143.095 31.31L139.811 38.6045ZM139.96 38.6846L144.123 31.8534C143.997 31.7765 143.869 31.7032 143.739 31.6334L139.96 38.6846ZM140.416 39.1582L147.4 35.256L147.398 35.2534L140.416 39.1582ZM140.58 39.7949L132.58 39.7573C132.58 39.7699 132.58 39.7824 132.58 39.7949L140.58 39.7949ZM140.58 44.915L132.58 44.915C132.58 44.9245 132.58 44.9339 132.58 44.9433L140.58 44.915ZM140.404 45.5703L147.313 49.6034L147.319 49.5934L140.404 45.5703ZM139.921 46.0469L136.004 39.0716C135.969 39.0909 135.935 39.1105 135.901 39.1303L139.921 46.0469ZM129.664 48.4189L129.664 56.4189H129.664V48.4189ZM111.775 30.7393L103.775 30.7392V30.7393H111.775ZM79.4131 13.1475L79.4155 5.14746H79.4131V13.1475ZM80.3271 13.5264L74.6678 19.1807L74.6686 19.1815L80.3271 13.5264ZM80.7061 14.4404L88.7061 14.4404L88.7061 14.4398L80.7061 14.4404ZM80.3271 47.4687L74.6702 41.812L74.668 41.8142L80.3271 47.4687ZM79.4131 47.8477L79.4131 55.8477L79.4155 55.8477L79.4131 47.8477ZM73.0654 47.4687L78.7233 41.8129L78.7224 41.812L73.0654 47.4687ZM72.6865 29.7246H80.6865C80.6865 26.4715 78.7167 23.5424 75.7038 22.3154C72.691 21.0885 69.2352 21.8081 66.9626 24.1356L72.6865 29.7246ZM54.8945 47.9463L49.1706 42.3573L49.1659 42.3621L54.8945 47.9463ZM54.4687 48.2363L57.5585 55.6156L57.5629 55.6137L54.4687 48.2363ZM53.9639 48.3369L53.9922 40.337C53.9828 40.3369 53.9733 40.3369 53.9639 40.3369L53.9639 48.3369ZM53.832 48.3369L53.8311 56.3369H53.832V48.3369ZM52.918 47.958L47.261 53.6148L47.2619 53.6157L52.918 47.958ZM52.5391 14.9297L44.5391 14.9277V14.9297H52.5391ZM52.918 14.0156L47.261 8.35887L47.2608 8.35909L52.918 14.0156ZM53.832 13.6367L53.833 21.6367L53.8421 21.6367L53.832 13.6367ZM59.2588 13.6299L59.2588 5.62988L59.2487 5.62989L59.2588 13.6299ZM60.1738 14.0088L54.5144 19.6631L54.5163 19.6649L60.1738 14.0088ZM60.5527 14.9238L52.5527 14.9238L60.5527 14.9238ZM60.5527 31.7168L52.5527 31.7168C52.5527 34.9697 54.5224 37.8987 57.535 39.1258C60.5476 40.3529 64.0033 39.6336 66.2761 37.3064L60.5527 31.7168ZM78.3076 13.5371L72.6087 7.92259C72.6006 7.93088 72.5924 7.93919 72.5843 7.94752L78.3076 13.5371ZM78.7324 13.249L81.8254 20.6269L81.8335 20.6235L78.7324 13.249ZM79.2363 13.1475V5.14746C79.2299 5.14746 79.2234 5.14747 79.2169 5.14748L79.2363 13.1475ZM172.863 13.5254L178.523 7.87131L178.52 7.86864L172.863 13.5254ZM173.242 14.4395L181.242 14.4395L181.242 14.4386L173.242 14.4395ZM172.863 47.4678L178.519 53.126L178.523 53.1221L172.863 47.4678ZM171.949 47.8467V55.8467V47.8467ZM166.505 47.8467L166.503 55.8467H166.505L166.505 47.8467ZM165.591 47.4678L171.25 41.8128L171.248 41.811L165.591 47.4678ZM165.212 29.7236H173.212C173.212 26.4706 171.242 23.5414 168.229 22.3145C165.216 21.0875 161.761 21.8071 159.488 24.1347L165.212 29.7236ZM147.42 47.9453L141.696 42.3563L141.691 42.3611L147.42 47.9453ZM146.994 48.2354L150.083 55.6151L150.088 55.6128L146.994 48.2354ZM146.489 48.3359L146.518 40.336C146.509 40.336 146.499 40.3359 146.489 40.3359L146.489 48.3359ZM146.357 48.3359L146.355 56.3359L146.357 56.3359L146.357 48.3359ZM145.443 47.957L139.786 53.6138L139.786 53.6138L145.443 47.957ZM145.064 14.9287L137.064 14.9265V14.9287H145.064ZM145.443 14.0146L139.786 8.35789L139.785 8.35881L145.443 14.0146ZM146.357 13.6357L146.36 21.6357L146.367 21.6357L146.357 13.6357ZM151.796 13.6289L151.799 5.6289L151.786 5.62891L151.796 13.6289ZM152.71 14.0078L158.369 8.3535L158.366 8.3503L152.71 14.0078ZM153.089 31.7158H145.089C145.089 34.9687 147.058 37.8976 150.071 39.1247C153.083 40.3518 156.539 39.6327 158.812 37.3057L153.089 31.7158ZM170.846 13.5361L165.141 7.92739C165.135 7.93366 165.129 7.93994 165.123 7.94623L170.846 13.5361ZM171.271 13.248L168.173 5.87256L168.17 5.87354L171.271 13.248ZM171.774 13.1465L171.774 5.14648L171.763 5.14649L171.774 13.1465ZM112.482 13.6377V21.6377C112.506 21.6377 112.53 21.6376 112.553 21.6374L112.482 13.6377ZM113.19 13.8408L117.5 7.10087L117.495 7.09738L113.19 13.8408ZM113.672 14.3975L120.959 11.0952L120.958 11.0944L113.672 14.3975ZM113.772 15.1279L121.679 16.3474L121.68 16.3378L113.772 15.1279ZM113.458 15.7939L107.496 10.4601C107.482 10.4751 107.469 10.4901 107.456 10.5052L113.458 15.7939ZM102.682 28.0244L96.6792 22.7356C94.3468 25.3828 94.0239 29.2455 95.8845 32.2432L102.682 28.0244ZM113.76 45.873L106.963 50.0919C106.975 50.1121 106.988 50.1323 107.001 50.1524L113.76 45.873ZM113.96 46.5283L105.963 46.7519L105.963 46.7574L113.96 46.5283ZM113.798 47.1934L120.791 51.079L120.792 51.0774L113.798 47.1934ZM113.318 47.6826L109.291 40.7701L109.29 40.7711L113.318 47.6826ZM112.656 47.8584L112.721 39.8587C112.7 39.8585 112.678 39.8584 112.656 39.8584L112.656 47.8584ZM106.378 47.8584L106.378 39.8584C106.366 39.8584 106.354 39.8584 106.342 39.8585L106.378 47.8584ZM105.738 47.6924L101.812 54.6625L101.813 54.6632L105.738 47.6924ZM105.264 47.2314L112.121 43.1112C112.118 43.1061 112.115 43.1011 112.112 43.0961L105.264 47.2314ZM97.1211 33.7471L103.969 29.6117C102.662 27.4472 100.409 26.028 97.892 25.7843C95.3752 25.5406 92.8914 26.5012 91.1933 28.3748L97.1211 33.7471ZM93.4941 37.749L87.5664 32.3767C86.2328 33.8482 85.4941 35.7631 85.4941 37.749L93.4941 37.749ZM93.4941 46.5586L101.494 46.5595V46.5586L93.4941 46.5586ZM93.1152 47.4736L87.4583 41.8169L87.4574 41.8178L93.1152 47.4736ZM92.2012 47.8525L92.2012 55.8525L92.2022 55.8525L92.2012 47.8525ZM86.666 47.8525L86.664 55.8525H86.666V47.8525ZM85.752 47.4736L80.0926 53.1279L80.0961 53.1314L85.752 47.4736ZM85.373 46.5586L77.373 46.5586L77.373 46.5595L85.373 46.5586ZM85.752 14.0186L80.0957 8.36108L80.0926 8.36424L85.752 14.0186ZM86.666 13.6396L86.666 5.63965L86.664 5.63965L86.666 13.6396ZM93.1201 14.0186L98.7798 8.36452L98.7771 8.3618L93.1201 14.0186ZM93.499 27.3281H85.499C85.499 30.6744 87.5817 33.667 90.7194 34.8297C93.8571 35.9924 97.387 35.0793 99.5674 32.541L93.499 27.3281ZM104.87 14.0908L110.939 19.3037C110.943 19.2981 110.948 19.2925 110.953 19.2869L104.87 14.0908ZM105.312 13.7559L108.652 21.0255L108.655 21.0242L105.312 13.7559ZM105.854 13.6377L105.846 21.6377H105.854V13.6377ZM28.25 22.1777L36.25 22.1777L28.25 22.1777ZM28.1074 29.7021L36.0821 30.3383C36.0826 30.3318 36.0831 30.3252 36.0836 30.3187L28.1074 29.7021ZM27.623 33.4668L35.4997 34.8664C35.5006 34.8609 35.5016 34.8554 35.5026 34.8499L27.623 33.4668ZM26.6807 37.2188L19.0769 34.7322C19.0662 34.765 19.0557 34.7979 19.0454 34.8308L26.6807 37.2188ZM25.1729 40.3555L18.5408 35.8815C16.8865 38.3339 16.7204 41.499 18.1092 44.111C19.4979 46.723 22.2146 48.3555 25.1729 48.3555V40.3555ZM36.8623 40.3555V48.3555C41.2792 48.3555 44.8604 44.7759 44.8623 40.359L36.8623 40.3555ZM36.8711 20.3242L44.8711 20.3277C44.872 18.2054 44.0296 16.1697 42.5292 14.6686C41.0288 13.1676 38.9934 12.3242 36.8711 12.3242V20.3242ZM28.25 20.3242V12.3242C26.1283 12.3242 24.0934 13.1671 22.5931 14.6674C21.0929 16.1677 20.25 18.2025 20.25 20.3242L28.25 20.3242ZM24.9951 13.5615V21.5615H44.0527V13.5615V5.56152H24.9951V13.5615ZM44.0527 13.5615L44.0491 21.5615C43.1213 21.5611 42.2211 21.3756 41.396 21.0344L44.4531 13.6416L47.5102 6.24876C46.4311 5.8025 45.2587 5.56207 44.0564 5.56152L44.0527 13.5615ZM44.4531 13.6416L41.3917 21.0327C40.5343 20.6775 39.7711 20.161 39.136 19.5259L44.793 13.8691L50.4499 8.21239C49.6204 7.38283 48.6259 6.71089 47.5146 6.25055L44.4531 13.6416ZM44.793 13.8691L39.14 19.5298C38.4763 18.8671 37.9697 18.0944 37.6284 17.2702L45.0195 14.209L52.4107 11.1477C51.9642 10.0699 51.3042 9.06551 50.446 8.20844L44.793 13.8691ZM45.0195 14.209L37.6262 17.2649C37.2863 16.4427 37.0999 15.5426 37.0996 14.6122L45.0996 14.6094L53.0996 14.6066C53.0992 13.4012 52.8577 12.2294 52.4129 11.1531L45.0195 14.209ZM45.0996 14.6094H37.0996V40.3555H45.0996H53.0996V14.6094H45.0996ZM45.0996 40.3555L45.1034 48.3555L47.1659 48.3545L47.1621 40.3545L47.1583 32.3545L45.0958 32.3555L45.0996 40.3555ZM47.1621 40.3545L47.15 48.3545C45.306 48.3517 43.542 47.6169 42.2424 46.3158L47.9023 40.6621L53.5623 35.0084C51.8704 33.3146 49.5735 32.3581 47.1742 32.3545L47.1621 40.3545ZM47.9023 40.6621L42.2412 46.3147C40.9485 45.0201 40.2142 43.2624 40.21 41.4205L48.21 41.4023L56.2099 41.3842C56.2045 38.9872 55.2486 36.6972 53.5634 35.0095L47.9023 40.6621ZM48.21 41.4023H40.21V51.2881H48.21H56.21V41.4023H48.21ZM48.21 51.2881L40.21 51.2669C40.2148 49.4304 40.9462 47.6722 42.2424 46.3746L47.9023 52.0283L53.5623 57.6821C55.251 55.9916 56.2036 53.7007 56.2099 51.3092L48.21 51.2881ZM47.9023 52.0283L42.2431 46.3739C43.5554 45.0604 45.3244 44.3377 47.15 44.335L47.1621 52.335L47.1742 60.335C49.555 60.3314 51.8571 59.3888 53.5616 57.6827L47.9023 52.0283ZM47.1621 52.335V44.335H40.96V52.335V60.335H47.1621V52.335ZM40.96 52.335L40.972 44.335C42.802 44.3377 44.5671 45.0631 45.8743 46.3692L40.2197 52.0283L34.5652 57.6875C36.2649 59.3858 38.5629 60.3314 40.9479 60.335L40.96 52.335ZM40.2197 52.0283L45.8797 46.3746C47.1759 47.6722 47.9072 49.4304 47.9121 51.2669L39.9121 51.2881L31.9121 51.3092C31.9185 53.7007 32.8711 55.9916 34.5598 57.6821L40.2197 52.0283ZM39.9121 51.2881H47.9121V47.0293H39.9121H31.9121V51.2881H39.9121ZM39.9121 47.0293V39.0293H22.5195V47.0293V55.0293H39.9121V47.0293ZM22.5195 47.0293H14.5195V51.2881H22.5195H30.5195V47.0293H22.5195ZM22.5195 51.2881L14.5195 51.285C14.5202 49.4403 15.2535 47.676 16.5517 46.3758L22.2129 52.0283L27.8741 57.6808C29.5645 55.9878 30.5186 53.6909 30.5195 51.2911L22.5195 51.2881ZM22.2129 52.0283L16.5547 46.3728C17.8656 45.0613 19.6369 44.335 21.4717 44.335V52.335V60.335C23.8621 60.335 26.1673 59.3884 27.8711 57.6839L22.2129 52.0283ZM21.4717 52.335V44.335H15.3271V52.335V60.335H21.4717V52.335ZM15.3271 52.335L15.3396 44.335C17.1667 44.3378 18.9338 45.0615 20.2437 46.3714L14.5869 52.0283L8.93011 57.6852C10.6326 59.3877 12.9325 60.3312 15.3147 60.335L15.3271 52.335ZM14.5869 52.0283L20.2471 46.3748C21.542 47.6713 22.2748 49.4294 22.2793 51.2686L14.2793 51.2881L6.27932 51.3075C6.28514 53.7017 7.23938 55.9925 8.9267 57.6818L14.5869 52.0283ZM14.2793 51.2881H22.2793V42.0381H14.2793H6.2793V51.2881H14.2793ZM14.2793 42.0381L22.2793 42.0387C22.2793 42.2282 22.2674 42.9138 21.9498 43.8243C21.6079 44.8041 20.824 46.2579 19.1928 47.3482L14.7471 40.6973L10.3013 34.0463C6.44152 36.6263 6.27939 40.8213 6.2793 42.0375L14.2793 42.0381ZM14.7471 40.6973L19.0143 47.4642C18.2779 47.9285 17.4595 48.218 16.6211 48.326L15.5986 40.3916L14.5762 32.4572C13.1326 32.6432 11.7325 33.1404 10.4799 33.9304L14.7471 40.6973ZM15.5986 40.3916L16.7729 48.3049C18.5706 48.0382 20.251 47.2664 21.6216 46.0857L16.4004 40.0244L11.1791 33.9632C12.0954 33.1739 13.2197 32.657 14.4243 32.4783L15.5986 40.3916ZM16.4004 40.0244L21.736 45.9852C22.8679 44.9721 23.849 43.7983 24.6463 42.4987L17.8271 38.3154L11.008 34.1322C11.025 34.1045 11.0446 34.0817 11.0648 34.0636L16.4004 40.0244ZM17.8271 38.3154L24.6269 42.5302C25.4806 41.1528 26.1742 39.6832 26.6948 38.1508L19.1201 35.5771L11.5454 33.0035C11.4146 33.3885 11.2406 33.7567 11.0274 34.1007L17.8271 38.3154ZM19.1201 35.5771L26.6913 38.1611C27.1745 36.7454 27.5503 35.2924 27.8135 33.8152L19.9375 32.4121L12.0615 31.0091C11.9419 31.6802 11.7705 32.3439 11.5489 32.9932L19.1201 35.5771ZM19.9375 32.4121L27.8107 33.8307C28.0544 32.4785 28.2347 31.1208 28.3598 29.7828L20.3945 29.0381L12.4293 28.2934C12.3431 29.2148 12.2215 30.1211 12.0643 30.9935L19.9375 32.4121ZM20.3945 29.0381L28.3598 29.7827C28.4983 28.3009 28.5765 22.2056 28.592 21.6091L20.5947 21.4014L12.5974 21.1936C12.5831 21.7455 12.5565 23.5141 12.5254 25.0373C12.5089 25.8438 12.4905 26.6277 12.4704 27.2685C12.4472 28.0039 12.4285 28.3013 12.4293 28.2934L20.3945 29.0381ZM20.5947 21.4014L28.5919 21.6142C28.6222 20.4738 28.6377 19.396 28.6377 18.3828H20.6377H12.6377C12.6377 19.2353 12.6247 20.1699 12.5976 21.1886L20.5947 21.4014ZM20.6377 18.3828H28.6377V15.6162H20.6377H12.6377V18.3828H20.6377ZM20.6377 15.6162L28.6377 15.6168C28.6377 15.9049 28.6126 17.627 27.1813 19.3739L20.9932 14.3037L14.805 9.23356C12.9041 11.5536 12.6378 14.1467 12.6377 15.6156L20.6377 15.6162ZM20.9932 14.3037L27.0398 19.5419C26.2254 20.4819 25.1378 21.1561 23.9177 21.4636L21.9629 13.7061L20.0081 5.94856C18.0345 6.44589 16.2698 7.53804 14.9466 9.06552L20.9932 14.3037ZM21.9629 13.7061L24.0123 21.4391C23.7074 21.5199 23.3945 21.5548 23.0833 21.5441L23.3574 13.5488L23.6316 5.55353C22.3805 5.51063 21.1275 5.65128 19.9135 5.97302L21.9629 13.7061ZM23.3574 13.5488L23.2246 21.5477C23.7923 21.5572 24.383 21.5615 24.9951 21.5615L24.9951 13.5615L24.9951 5.56152C24.4581 5.56152 23.9568 5.55768 23.4903 5.54993L23.3574 13.5488ZM129.802 13.0596V21.0596C133.194 21.0596 135.479 22.2709 135.769 22.4343L139.703 15.4687L143.638 8.50319C141.927 7.5368 136.892 5.05957 129.802 5.05957V13.0596ZM139.703 15.4687L135.785 22.4438C134.744 21.8587 133.878 21.0064 133.277 19.9767L140.187 15.9443L147.096 11.9119C146.263 10.4845 145.064 9.30414 143.621 8.49366L139.703 15.4687ZM140.187 15.9443L133.274 19.972C132.671 18.9368 132.358 17.7627 132.362 16.5715L140.362 16.6006L148.362 16.6297C148.368 14.9775 147.934 13.3496 147.099 11.9166L140.187 15.9443ZM140.362 16.6006H132.362V21.7402H140.362H148.362V16.6006H140.362ZM140.362 21.7402L132.363 21.8298C132.35 20.659 132.643 19.5139 133.202 18.5041L140.2 22.3809L147.198 26.2576C147.975 24.856 148.38 23.2694 148.362 21.6506L140.362 21.7402ZM140.2 22.3809L133.201 18.5065C133.76 17.4973 134.574 16.6414 135.573 16.0311L139.743 22.8584L143.913 29.6857C145.294 28.842 146.424 27.6566 147.199 26.2552L140.2 22.3809ZM139.743 22.8584L135.578 16.0282C136.568 15.4243 137.699 15.0871 138.861 15.0508L139.11 23.0469L139.36 31.043C140.969 30.9927 142.536 30.5256 143.908 29.6886L139.743 22.8584ZM139.11 23.0469L138.863 15.0507C140.03 15.0147 141.179 15.2831 142.201 15.8232L138.466 22.8975L134.73 29.9717C136.149 30.7209 137.744 31.0929 139.357 31.0431L139.11 23.0469ZM138.466 22.8975L142.107 15.7742C138.281 13.8184 134.276 12.7569 130.014 12.7568L130.014 20.7568L130.013 28.7568C131.492 28.7569 133.017 29.0967 134.825 30.0207L138.466 22.8975ZM130.014 20.7568V12.7568C125.157 12.7568 120.545 14.4705 117.121 17.8648C113.693 21.264 111.941 25.8707 111.941 30.7441H119.941H127.941C127.941 29.7381 128.261 29.3511 128.387 29.2265C128.517 29.0971 128.941 28.7568 130.014 28.7568V20.7568ZM119.941 30.7441L111.941 30.7444C111.942 40.9177 119.672 48.7304 129.882 48.7305L129.882 40.7305L129.882 32.7305C129.002 32.7305 128.597 32.4402 128.421 32.2636C128.244 32.0851 127.941 31.661 127.941 30.7438L119.941 30.7441ZM129.882 40.7305L129.845 48.7304C134.181 48.7506 138.46 47.732 142.323 45.76L138.686 38.6348L135.048 31.5096C133.46 32.3203 131.701 32.7389 129.919 32.7306L129.882 40.7305ZM138.686 38.6348L142.362 45.7398C141.331 46.2735 140.182 46.529 139.027 46.4856L139.328 38.4912L139.629 30.4969C138.029 30.4367 136.436 30.7911 135.009 31.5297L138.686 38.6348ZM139.328 38.4912L139.026 46.4855C138.157 46.4527 137.308 46.2514 136.526 45.899L139.811 38.6045L143.095 31.31C142.01 30.8211 140.834 30.5423 139.63 30.4969L139.328 38.4912ZM139.811 38.6045L136.031 45.6556L136.181 45.7357L139.96 38.6846L143.739 31.6334L143.59 31.5533L139.811 38.6045ZM139.96 38.6846L135.796 45.5157C134.808 44.9135 133.996 44.068 133.434 43.063L140.416 39.1582L147.398 35.2534C146.619 33.8597 145.492 32.6873 144.123 31.8534L139.96 38.6846ZM140.416 39.1582L133.432 43.0604C132.867 42.0481 132.575 40.9101 132.58 39.7573L140.58 39.7949L148.58 39.8325C148.588 38.2342 148.183 36.657 147.4 35.256L140.416 39.1582ZM140.58 39.7949L132.58 39.7949L132.58 44.915L140.58 44.915L148.58 44.915L148.58 39.7949L140.58 39.7949ZM140.58 44.915L132.58 44.9433C132.576 43.7439 132.893 42.5722 133.49 41.5472L140.404 45.5703L147.319 49.5934C148.147 48.1705 148.586 46.5469 148.58 44.8867L140.58 44.915ZM140.404 45.5703L133.495 41.5372C134.087 40.5239 134.946 39.6657 136.004 39.0716L139.921 46.0469L143.838 53.0221C145.297 52.2026 146.49 51.0145 147.313 49.6034L140.404 45.5703ZM139.921 46.0469L135.901 39.1303C136.241 38.9326 133.72 40.4189 129.664 40.4189V48.4189V56.4189C137.435 56.4189 142.747 53.6577 143.941 52.9634L139.921 46.0469ZM129.664 48.4189L129.664 40.4189C123.797 40.4189 119.775 36.3097 119.775 30.7393H111.775H103.775C103.775 45.323 115.138 56.4189 129.664 56.4189L129.664 48.4189ZM111.775 30.7393L119.775 30.7393C119.775 25.2259 123.797 21.0597 129.802 21.0596L129.802 13.0596L129.802 5.05957C115.254 5.05978 103.775 16.0985 103.775 30.7392L111.775 30.7393ZM79.4131 13.1475L79.4107 21.1475C77.6332 21.1469 75.9266 20.4406 74.6678 19.1807L80.3271 13.5264L85.9865 7.87206C84.243 6.12699 81.8787 5.14819 79.4155 5.14746L79.4131 13.1475ZM80.3271 13.5264L74.6686 19.1815C73.4162 17.9284 72.7062 16.2249 72.7061 14.4411L80.7061 14.4404L88.7061 14.4398C88.7058 11.9702 87.723 9.60954 85.9857 7.8712L80.3271 13.5264ZM80.7061 14.4404H72.7061V46.5537H80.7061H88.7061V14.4404H80.7061ZM80.7061 46.5537H72.7061C72.7061 44.7767 73.4116 43.0706 74.6702 41.812L80.3271 47.4687L85.9841 53.1255C87.728 51.3816 88.7061 49.0172 88.7061 46.5537H80.7061ZM80.3271 47.4687L74.668 41.8142C75.9266 40.5546 77.6329 39.8482 79.4107 39.8477L79.4131 47.8477L79.4155 55.8477C81.8789 55.8469 84.2431 54.8679 85.9863 53.1233L80.3271 47.4687ZM79.4131 47.8477V39.8477H73.9795V47.8477V55.8477H79.4131V47.8477ZM73.9795 47.8477V39.8477C75.7619 39.8477 77.4675 40.5567 78.7233 41.8129L73.0654 47.4687L67.4076 53.1246C69.1481 54.8658 71.5113 55.8477 73.9795 55.8477V47.8477ZM73.0654 47.4687L78.7224 41.812C79.981 43.0706 80.6865 44.7767 80.6865 46.5537H72.6865H64.6865C64.6865 49.0172 65.6646 51.3816 67.4085 53.1255L73.0654 47.4687ZM72.6865 46.5537H80.6865V29.7246H72.6865H64.6865V46.5537H72.6865ZM72.6865 29.7246L66.9626 24.1356L49.1706 42.3573L54.8945 47.9463L60.6185 53.5353L78.4105 35.3136L72.6865 29.7246ZM54.8945 47.9463L49.1659 42.3621C49.7902 41.7217 50.5402 41.2089 51.3746 40.8589L54.4687 48.2363L57.5629 55.6137C58.717 55.1297 59.7566 54.4194 60.6232 53.5305L54.8945 47.9463ZM54.4687 48.2363L51.379 40.8571C52.2042 40.5116 53.0928 40.3338 53.9922 40.337L53.9639 48.3369L53.9355 56.3369C55.1817 56.3413 56.4133 56.0951 57.5585 55.6156L54.4687 48.2363ZM53.9639 48.3369V40.3369H53.832V48.3369V56.3369H53.9639V48.3369ZM53.832 48.3369L53.833 40.3369C55.615 40.3371 57.3192 41.0459 58.574 42.3003L52.918 47.958L47.2619 53.6157C49.0019 55.3552 51.3638 56.3366 53.8311 56.3369L53.832 48.3369ZM52.918 47.958L58.5749 42.3013C59.8335 43.5599 60.5391 45.2654 60.5391 47.043H52.5391H44.5391C44.5391 49.5065 45.5176 51.8712 47.261 53.6148L52.918 47.958ZM52.5391 47.043H60.5391V14.9297H52.5391H44.5391V47.043H52.5391ZM52.5391 14.9297L60.5391 14.9317C60.5386 16.7131 59.83 18.4172 58.5751 19.6722L52.918 14.0156L47.2608 8.35909C45.5213 10.0988 44.5397 12.4605 44.5391 14.9277L52.5391 14.9297ZM52.918 14.0156L58.5749 19.6724C57.3191 20.9283 55.614 21.6365 53.833 21.6367L53.832 13.6367L53.8311 5.63672C51.3646 5.63701 49.0021 6.61775 47.261 8.35887L52.918 14.0156ZM53.832 13.6367L53.8421 21.6367L59.2689 21.6299L59.2588 13.6299L59.2487 5.62989L53.822 5.63673L53.832 13.6367ZM59.2588 13.6299V21.6299C57.4844 21.6299 55.7765 20.9263 54.5144 19.6631L60.1738 14.0088L65.8332 8.35448C64.0863 6.60601 61.7191 5.62988 59.2588 5.62988V13.6299ZM60.1738 14.0088L54.5163 19.6649C53.2581 18.4065 52.5527 16.7011 52.5527 14.9238H60.5527H68.5527C68.5527 12.4607 67.5747 10.0963 65.8314 8.35264L60.1738 14.0088ZM60.5527 14.9238L52.5527 14.9238L52.5527 31.7168L60.5527 31.7168L68.5527 31.7168L68.5527 14.9238L60.5527 14.9238ZM60.5527 31.7168L66.2761 37.3064L84.0309 19.1267L78.3076 13.5371L72.5843 7.94752L54.8294 26.1272L60.5527 31.7168ZM78.3076 13.5371L84.0065 19.1516C83.3959 19.7714 82.6579 20.2779 81.8254 20.6269L78.7324 13.249L75.6395 5.87111C74.4883 6.3537 73.4618 7.05668 72.6087 7.92259L78.3076 13.5371ZM78.7324 13.249L81.8335 20.6235C80.9967 20.9754 80.1188 21.1453 79.2557 21.1474L79.2363 13.1475L79.2169 5.14748C78.0081 5.15042 76.7871 5.38852 75.6313 5.87452L78.7324 13.249ZM79.2363 13.1475V21.1475H79.4131V13.1475V5.14746H79.2363V13.1475ZM171.949 13.1465V21.1465C170.166 21.1465 168.461 20.4371 167.206 19.1821L172.863 13.5254L178.52 7.86864C176.78 6.12845 174.418 5.14648 171.949 5.14648V13.1465ZM172.863 13.5254L167.204 19.1795C165.953 17.9278 165.242 16.2253 165.242 14.4403L173.242 14.4395L181.242 14.4386C181.242 11.9677 180.258 9.60819 178.523 7.87131L172.863 13.5254ZM173.242 14.4395H165.242V46.5527H173.242H181.242V14.4395H173.242ZM173.242 46.5527H165.242C165.242 44.7727 165.95 43.069 167.204 41.8135L172.863 47.4678L178.523 53.1221C180.262 51.3813 181.242 49.0192 181.242 46.5527H173.242ZM172.863 47.4678L167.208 41.8096C168.461 40.5569 170.165 39.8467 171.949 39.8467V47.8467V55.8467C174.419 55.8467 176.78 54.8636 178.519 53.126L172.863 47.4678ZM171.949 47.8467L171.949 39.8467L166.505 39.8467L166.505 47.8467L166.505 55.8467L171.949 55.8467L171.949 47.8467ZM166.505 47.8467L166.506 39.8467C168.286 39.847 169.992 40.5544 171.25 41.8128L165.591 47.4678L159.932 53.1227C161.674 54.8662 164.038 55.8462 166.503 55.8467L166.505 47.8467ZM165.591 47.4678L171.248 41.811C172.506 43.0697 173.212 44.7757 173.212 46.5527H165.212H157.212C157.212 49.0162 158.19 51.3806 159.934 53.1245L165.591 47.4678ZM165.212 46.5527H173.212V29.7236H165.212H157.212V46.5527H165.212ZM165.212 29.7236L159.488 24.1347L141.696 42.3563L147.42 47.9453L153.144 53.5343L170.936 35.3126L165.212 29.7236ZM147.42 47.9453L141.691 42.3611C142.316 41.7207 143.066 41.2079 143.9 40.8579L146.994 48.2354L150.088 55.6128C151.242 55.1287 152.282 54.4184 153.148 53.5295L147.42 47.9453ZM146.994 48.2354L143.906 40.8556C144.729 40.5108 145.617 40.3327 146.518 40.336L146.489 48.3359L146.46 56.3359C147.707 56.3404 148.939 56.0938 150.083 55.6151L146.994 48.2354ZM146.489 48.3359L146.489 40.3359L146.357 40.3359L146.357 48.3359L146.357 56.3359L146.489 56.3359L146.489 48.3359ZM146.357 48.3359L146.36 40.3359C148.139 40.3365 149.844 41.0435 151.1 42.3002L145.443 47.957L139.786 53.6138C141.528 55.3556 143.891 56.3352 146.355 56.3359L146.357 48.3359ZM145.443 47.957L151.1 42.3003C152.359 43.5589 153.064 45.2645 153.064 47.042H145.064H137.064C137.064 49.5055 138.043 51.8703 139.786 53.6138L145.443 47.957ZM145.064 47.042H153.064V14.9287H145.064H137.064V47.042H145.064ZM145.064 14.9287L153.064 14.9309C153.064 16.7129 152.355 18.4162 151.101 19.6705L145.443 14.0146L139.785 8.35881C138.047 10.0978 137.065 12.4589 137.064 14.9265L145.064 14.9287ZM145.443 14.0146L151.1 19.6714C149.844 20.9282 148.139 21.6352 146.36 21.6357L146.357 13.6357L146.355 5.63574C143.891 5.63651 141.528 6.61602 139.786 8.35789L145.443 14.0146ZM146.357 13.6357L146.367 21.6357L151.806 21.6289L151.796 13.6289L151.786 5.62891L146.347 5.63575L146.357 13.6357ZM151.796 13.6289L151.793 21.6289C150.013 21.6283 148.309 20.9205 147.054 19.6653L152.71 14.0078L158.366 8.3503C156.626 6.61022 154.264 5.62971 151.799 5.62891L151.796 13.6289ZM152.71 14.0078L147.051 19.6621C145.796 18.4061 145.089 16.7024 145.089 14.9229H153.089H161.089C161.089 12.4573 160.109 10.0948 158.369 8.3535L152.71 14.0078ZM153.089 14.9229H145.089V31.7158H153.089H161.089V14.9229H153.089ZM153.089 31.7158L158.812 37.3057L176.569 19.126L170.846 13.5361L165.123 7.94623L147.366 26.1259L153.089 31.7158ZM170.846 13.5361L176.55 19.1449C175.916 19.7896 175.172 20.2862 174.373 20.6225L171.271 13.248L168.17 5.87354C167.052 6.34391 166.018 7.0359 165.141 7.92739L170.846 13.5361ZM171.271 13.248L174.37 20.6235C173.547 20.9693 172.668 21.1452 171.786 21.1465L171.774 13.1465L171.763 5.14649C170.535 5.14826 169.314 5.39298 168.173 5.87256L171.271 13.248ZM171.774 13.1465V21.1465H171.949V13.1465V5.14648H171.774V13.1465ZM112.482 13.6377L112.553 21.6374C111.259 21.6488 109.985 21.2854 108.886 20.5843L113.19 13.8408L117.495 7.09738C115.974 6.12656 114.207 5.62215 112.412 5.63801L112.482 13.6377ZM113.19 13.8408L108.881 20.5808C107.779 19.8763 106.917 18.872 106.386 17.7005L113.672 14.3975L120.958 11.0944C120.22 9.46649 119.024 8.07512 117.5 7.10087L113.19 13.8408ZM113.672 14.3975L106.385 17.6997C105.849 16.516 105.668 15.2026 105.864 13.918L113.772 15.1279L121.68 16.3378C121.953 14.5575 121.702 12.7357 120.959 11.0952L113.672 14.3975ZM113.772 15.1279L105.866 13.9084C106.063 12.6305 106.627 11.4315 107.496 10.4601L113.458 15.7939L119.42 21.1278C120.624 19.7829 121.405 18.1208 121.679 16.3474L113.772 15.1279ZM113.458 15.7939L107.456 10.5052L96.6792 22.7356L102.682 28.0244L108.684 33.3132L119.46 21.0827L113.458 15.7939ZM102.682 28.0244L95.8845 32.2432L106.963 50.0919L113.76 45.873L120.557 41.6542L109.479 23.8056L102.682 28.0244ZM113.76 45.873L107.001 50.1524C106.358 49.137 105.997 47.963 105.963 46.7519L113.96 46.5283L121.957 46.3048C121.91 44.6289 121.411 43.0021 120.519 41.5937L113.76 45.873ZM113.96 46.5283L105.963 46.7574C105.929 45.5544 106.219 44.3632 106.804 43.3093L113.798 47.1934L120.792 51.0774C121.603 49.6173 122.004 47.9666 121.957 46.2992L113.96 46.5283ZM113.798 47.1934L106.805 43.3077C107.392 42.2519 108.251 41.3761 109.291 40.7701L113.318 47.6826L117.345 54.5952C118.787 53.7553 119.978 52.5413 120.791 51.079L113.798 47.1934ZM113.318 47.6826L109.29 40.7711C110.336 40.1613 111.522 39.8489 112.721 39.8587L112.656 47.8584L112.591 55.8581C114.255 55.8716 115.899 55.4382 117.347 54.5941L113.318 47.6826ZM112.656 47.8584L112.656 39.8584L106.378 39.8584L106.378 47.8584L106.378 55.8584L112.656 55.8584L112.656 47.8584ZM106.378 47.8584L106.342 39.8585C107.501 39.8533 108.646 40.1488 109.664 40.7216L105.738 47.6924L101.813 54.6632C103.22 55.4557 104.806 55.8655 106.413 55.8583L106.378 47.8584ZM105.738 47.6924L109.665 40.7222C110.668 41.2875 111.518 42.1071 112.121 43.1112L105.264 47.2314L98.4063 51.3517C99.2405 52.7401 100.418 53.8773 101.812 54.6625L105.738 47.6924ZM105.264 47.2314L112.112 43.0961L103.969 29.6117L97.1211 33.7471L90.2728 37.8824L98.4154 51.3668L105.264 47.2314ZM97.1211 33.7471L91.1933 28.3748L87.5664 32.3767L93.4941 37.749L99.4219 43.1213L103.049 39.1194L97.1211 33.7471ZM93.4941 37.749L85.4941 37.749L85.4941 46.5586L93.4941 46.5586L101.494 46.5586L101.494 37.749L93.4941 37.749ZM93.4941 46.5586L85.4941 46.5577C85.4943 44.7819 86.1992 43.076 87.4583 41.8169L93.1152 47.4736L98.7722 53.1304C100.517 51.386 101.494 49.0216 101.494 46.5595L93.4941 46.5586ZM93.1152 47.4736L87.4574 41.8178C88.7137 40.561 90.4191 39.8528 92.2001 39.8525L92.2012 47.8525L92.2022 55.8525C94.6689 55.8522 97.032 54.8711 98.7731 53.1295L93.1152 47.4736ZM92.2012 47.8525V39.8525H86.666V47.8525V55.8525H92.2012V47.8525ZM86.666 47.8525L86.668 39.8525C88.4492 39.853 90.1531 40.5615 91.4078 41.8158L85.752 47.4736L80.0961 53.1314C81.8359 54.8707 84.1972 55.8519 86.664 55.8525L86.666 47.8525ZM85.752 47.4736L91.4113 41.8193C92.6663 43.0754 93.3728 44.7789 93.373 46.5577L85.373 46.5586L77.373 46.5595C77.3733 49.0246 78.3529 51.3867 80.0926 53.1279L85.752 47.4736ZM85.373 46.5586H93.373V14.9336H85.373H77.373V46.5586H85.373ZM85.373 14.9336H93.373C93.373 16.7131 92.6662 18.4169 91.4113 19.6729L85.752 14.0186L80.0926 8.36424C78.3528 10.1055 77.373 12.4681 77.373 14.9336H85.373ZM85.752 14.0186L91.4082 19.676C90.153 20.9309 88.4488 21.6392 86.668 21.6396L86.666 13.6396L86.664 5.63965C84.1976 5.64027 81.836 6.62121 80.0957 8.36109L85.752 14.0186ZM86.666 13.6396V21.6396H92.2051V13.6396V5.63965H86.666V13.6396ZM92.2051 13.6396V21.6396C90.4287 21.6396 88.7226 20.9348 87.4632 19.6753L93.1201 14.0186L98.7771 8.3618C97.0324 6.61708 94.6674 5.63965 92.2051 5.63965V13.6396ZM93.1201 14.0186L87.4604 19.6726C86.206 18.4169 85.499 16.7134 85.499 14.9336H93.499H101.499C101.499 12.4678 100.519 10.1055 98.7798 8.36452L93.1201 14.0186ZM93.499 14.9336H85.499V27.3281H93.499H101.499V14.9336H93.499ZM93.499 27.3281L99.5674 32.541L110.939 19.3037L104.87 14.0908L98.8017 8.87793L87.4306 22.1152L93.499 27.3281ZM104.87 14.0908L110.953 19.2869C110.33 20.0158 109.549 20.6137 108.652 21.0255L105.312 13.7559L101.973 6.48621C100.736 7.05436 99.653 7.88129 98.7873 8.89472L104.87 14.0908ZM105.312 13.7559L108.655 21.0242C107.77 21.4312 106.811 21.6388 105.846 21.6377L105.854 13.6377L105.863 5.6377C104.524 5.6362 103.195 5.92423 101.97 6.48747L105.312 13.7559ZM105.854 13.6377V21.6377H112.482V13.6377V5.6377H105.854V13.6377ZM28.25 22.1777H20.25C20.25 22.5779 20.2387 24.1085 20.2151 25.704C20.2035 26.4966 20.1891 27.2809 20.1724 27.9312C20.164 28.2568 20.1554 28.5336 20.1468 28.7526C20.1374 28.9936 20.131 29.0888 20.1312 29.0856L28.1074 29.7021L36.0836 30.3187C36.2079 28.7114 36.25 22.9627 36.25 22.1777H28.25ZM28.1074 29.7021L20.1328 29.066C20.056 30.0277 19.9279 31.0331 19.7435 32.0837L27.623 33.4668L35.5026 34.8499C35.7693 33.3303 35.9634 31.8261 36.0821 30.3383L28.1074 29.7021ZM27.623 33.4668L19.7464 32.0672C19.5864 32.968 19.3625 33.8587 19.0769 34.7322L26.6807 37.2188L34.2844 39.7053C34.8013 38.1247 35.208 36.5076 35.4997 34.8664L27.623 33.4668ZM26.6807 37.2188L19.0454 34.8308C18.9278 35.2067 18.7574 35.5605 18.5408 35.8815L25.1729 40.3555L31.8049 44.8294C32.8927 43.2168 33.7373 41.4569 34.316 39.6067L26.6807 37.2188ZM25.1729 40.3555V48.3555H36.8623V40.3555V32.3555H25.1729V40.3555ZM36.8623 40.3555L44.8623 40.359L44.8711 20.3277L36.8711 20.3242L28.8711 20.3207L28.8623 40.352L36.8623 40.3555ZM36.8711 20.3242V12.3242H28.25V20.3242V28.3242H36.8711V20.3242ZM28.25 20.3242L20.25 20.3242L20.25 22.1777L28.25 22.1777L36.25 22.1777L36.25 20.3242L28.25 20.3242Z" fill="#6AA338" mask="url(#path-1-outside-1_2067_19454)"/>
<g filter="url(#filter0_ii_2067_19454)">
<mask id="path-3-outside-2_2067_19454" maskUnits="userSpaceOnUse" x="0.751953" y="0.433594" width="175" height="56" fill="black">
<rect fill="white" x="0.751953" y="0.433594" width="175" height="56"/>
<path d="M19.4678 8.93262H38.5244C38.6617 8.93267 38.7977 8.96015 38.9248 9.0127C39.0517 9.06528 39.1675 9.14207 39.2646 9.23926C39.362 9.33639 39.4386 9.45226 39.4912 9.5791C39.5438 9.70629 39.5713 9.8428 39.5713 9.98047V35.7256L41.6338 35.7256C41.9113 35.726 42.1779 35.836 42.374 36.0322C42.5702 36.2287 42.6809 36.495 42.6816 36.7725L42.6816 46.6582C42.681 46.9358 42.5703 47.2019 42.374 47.3984C42.1779 47.5948 41.9114 47.7056 41.6338 47.7061H35.4316C35.154 47.7056 34.8877 47.5948 34.6914 47.3984C34.4951 47.2019 34.3844 46.9358 34.3838 46.6582V42.4004L16.9912 42.4004V46.6582C16.9912 46.936 16.8809 47.2029 16.6846 47.3994C16.4881 47.596 16.2212 47.7061 15.9434 47.7061H9.79883C9.52125 47.7056 9.25488 47.5947 9.05859 47.3984C8.86245 47.2019 8.75252 46.9357 8.75195 46.6582L8.75195 37.4092C8.75195 36.7239 8.90725 36.2768 9.21875 36.0684C9.47689 35.9056 9.76775 35.8007 10.0703 35.7617C10.3667 35.7177 10.6449 35.5911 10.8721 35.3955C11.428 34.8979 11.9086 34.3217 12.2988 33.6855C12.8324 32.8248 13.266 31.9061 13.5918 30.9473C13.9442 29.9147 14.2178 28.8565 14.4092 27.7822C14.6096 26.6699 14.7606 25.5379 14.8662 24.4082C14.9718 23.2783 15.0384 17.8495 15.0664 16.7715C15.0951 15.6923 15.1094 14.6865 15.1094 13.7539V10.9873C15.1094 10.3966 15.2299 9.96047 15.4648 9.67383C15.7192 9.38023 16.058 9.17209 16.4346 9.07715C16.8891 8.95669 17.3592 8.90381 17.8291 8.91992C18.3464 8.92851 18.893 8.93262 19.4678 8.93262ZM124.272 8.43359C129.513 8.43367 133.172 10.2767 134.173 10.8418C134.374 10.9545 134.541 11.1193 134.657 11.3184C134.773 11.5171 134.834 11.7433 134.833 11.9736L134.833 17.1133C134.836 17.3372 134.779 17.5581 134.671 17.7539C134.562 17.95 134.404 18.1147 134.213 18.2314C134.022 18.348 133.804 18.413 133.58 18.4199C133.356 18.4268 133.134 18.3759 132.937 18.2715C130.119 16.8314 127.354 16.1299 124.483 16.1299C118.554 16.1299 114.412 20.2377 114.412 26.1172C114.412 31.9057 118.593 36.1033 124.352 36.1035C127.411 36.1178 130.431 35.3993 133.156 34.0078C133.354 33.9054 133.575 33.8559 133.798 33.8643C133.965 33.8705 134.129 33.9093 134.28 33.9775L134.43 34.0576C134.62 34.1735 134.777 34.3368 134.886 34.5312C134.994 34.7257 135.052 34.9451 135.051 35.168L135.051 40.2881C135.052 40.5186 134.991 40.7453 134.875 40.9443C134.759 41.1432 134.591 41.3072 134.391 41.4199C133.963 41.6687 130.047 43.792 124.134 43.792C113.938 43.7918 106.246 36.1893 106.246 26.1123C106.246 16.0353 113.996 8.43359 124.272 8.43359ZM166.42 8.52148C166.763 8.52148 167.091 8.65777 167.334 8.90039C167.576 9.14299 167.713 9.47152 167.713 9.81445V41.9277C167.713 42.271 167.576 42.6001 167.334 42.8428C167.091 43.0853 166.763 43.2217 166.42 43.2217L160.976 43.2217C160.633 43.2216 160.304 43.0853 160.062 42.8428C159.819 42.6001 159.683 42.271 159.683 41.9277V25.0986L141.892 43.3203C141.771 43.4445 141.626 43.5433 141.466 43.6104C141.306 43.6774 141.133 43.7116 140.96 43.7109L140.829 43.7109C140.486 43.7109 140.157 43.5747 139.914 43.332C139.672 43.0896 139.535 42.76 139.535 42.417V10.3037C139.535 9.96093 139.672 9.63197 139.914 9.38965C140.157 9.14701 140.486 9.01074 140.829 9.01074L146.267 9.00391C146.609 9.00399 146.938 9.14037 147.181 9.38281C147.423 9.62545 147.56 9.95484 147.56 10.2979V27.0908L165.316 8.91113C165.438 8.78776 165.583 8.69008 165.742 8.62305C165.901 8.55614 166.072 8.52175 166.245 8.52148L166.42 8.52148ZM73.8838 8.51953C74.2268 8.51953 74.5564 8.6558 74.7988 8.89844C75.0414 9.14107 75.1777 9.47049 75.1777 9.81348L75.1777 41.9268C75.1777 42.2699 75.0414 42.5992 74.7988 42.8418C74.5564 43.0844 74.2268 43.2207 73.8838 43.2207H68.4512C68.1082 43.2207 67.7786 43.0844 67.5361 42.8418C67.2935 42.5992 67.1573 42.2699 67.1572 41.9268V25.0967L49.3662 43.3193C49.2451 43.4436 49.1003 43.5423 48.9404 43.6094C48.7805 43.6764 48.6089 43.7105 48.4355 43.71H48.3037C47.9611 43.71 47.6322 43.5734 47.3896 43.3311C47.1472 43.0886 47.0107 42.759 47.0107 42.416V10.3027C47.0108 9.95976 47.1472 9.63108 47.3896 9.38867C47.6323 9.14603 47.9609 9.00879 48.3037 9.00879L53.7305 9.00293C54.0734 9.00293 54.4021 9.13927 54.6445 9.38184C54.8871 9.62437 55.0233 9.95305 55.0234 10.2959V27.0898L72.7783 8.91016C72.8996 8.78695 73.0447 8.68891 73.2041 8.62207C73.3634 8.55512 73.5344 8.52 73.707 8.51953H73.8838ZM106.952 9.00684C107.203 9.00456 107.449 9.07504 107.66 9.20996C107.871 9.3449 108.039 9.53826 108.143 9.7666C108.246 9.99497 108.281 10.2492 108.243 10.4971C108.205 10.7448 108.095 10.9763 107.928 11.1631L97.1523 23.3936L108.229 41.2422C108.354 41.4387 108.423 41.6651 108.43 41.8975C108.436 42.1297 108.38 42.3593 108.268 42.5625C108.155 42.7657 107.989 42.9348 107.788 43.0518C107.587 43.1688 107.359 43.2294 107.127 43.2275H100.849C100.624 43.2286 100.403 43.1715 100.208 43.0615C100.013 42.9516 99.8498 42.7926 99.7344 42.6006L91.5918 29.1162L87.9639 33.1182L87.9639 41.9277C87.9638 42.2709 87.8276 42.6002 87.585 42.8428C87.3426 43.0852 87.0137 43.2217 86.6709 43.2217L81.1367 43.2217C80.7937 43.2217 80.4643 43.0854 80.2217 42.8428C79.9793 42.6002 79.8438 42.2709 79.8438 41.9277V10.3027C79.8438 9.95975 79.9793 9.63033 80.2217 9.3877C80.4643 9.14505 80.7937 9.00879 81.1367 9.00879H86.6758C87.0186 9.00887 87.3473 9.14521 87.5898 9.3877C87.8323 9.63034 87.9688 9.95973 87.9688 10.3027V22.6973L99.3398 9.45996C99.4613 9.31773 99.6122 9.20315 99.7822 9.125C99.9521 9.04688 100.137 9.00666 100.324 9.00684L106.952 9.00684ZM22.7217 17.5488C22.7217 18.4617 22.6749 23.8467 22.5801 25.0732C22.4824 26.2979 22.3203 27.5529 22.0947 28.8379C21.8689 30.1088 21.5536 31.362 21.1523 32.5889C20.8043 33.702 20.2967 34.7587 19.6445 35.7256L31.334 35.7256L31.3428 15.6943H22.7217L22.7217 17.5488Z"/>
</mask>
<path d="M38.5244 8.93262L38.5275 0.932617H38.5244V8.93262ZM38.9248 9.0127L41.9869 1.62193L41.9819 1.61986L38.9248 9.0127ZM39.2646 9.23926L33.6079 14.8962L33.6138 14.9021L39.2646 9.23926ZM39.4912 9.5791L46.8841 6.52217L46.8812 6.51515L39.4912 9.5791ZM39.5713 35.7256H31.5713C31.5713 40.1439 35.153 43.7256 39.5713 43.7256L39.5713 35.7256ZM41.6338 35.7256L41.6459 27.7256L41.6338 27.7256L41.6338 35.7256ZM42.374 36.0322L48.034 30.3785L48.0328 30.3773L42.374 36.0322ZM42.6816 36.7725L50.6816 36.7725C50.6816 36.7652 50.6816 36.758 50.6816 36.7507L42.6816 36.7725ZM42.6816 46.6582L50.6816 46.6763C50.6816 46.6703 50.6816 46.6642 50.6816 46.6582L42.6816 46.6582ZM42.374 47.3984L48.034 53.0522L48.0351 53.0511L42.374 47.3984ZM41.6338 47.7061L41.6338 55.7061L41.6459 55.706L41.6338 47.7061ZM35.4316 47.7061L35.4196 55.7061H35.4316V47.7061ZM34.6914 47.3984L29.0314 53.0522L29.0345 53.0553L34.6914 47.3984ZM34.3838 46.6582H26.3838C26.3838 46.6642 26.3838 46.6703 26.3838 46.6763L34.3838 46.6582ZM34.3838 42.4004H42.3838C42.3838 37.9821 38.8021 34.4004 34.3838 34.4004L34.3838 42.4004ZM16.9912 42.4004L16.9912 34.4004C14.8695 34.4004 12.8346 35.2432 11.3344 36.7435C9.83407 38.2438 8.99121 40.2787 8.99121 42.4004H16.9912ZM16.6846 47.3994L22.3427 53.055L22.3439 53.0538L16.6846 47.3994ZM9.79883 47.7061L9.78582 55.7061H9.79883V47.7061ZM9.05859 47.3984L3.39641 53.05L3.40143 53.055L9.05859 47.3984ZM8.75195 46.6582L0.751953 46.6582C0.751953 46.6637 0.751959 46.6691 0.75197 46.6746L8.75195 46.6582ZM8.75195 37.4092L0.751953 37.4092L8.75195 37.4092ZM9.21875 36.0684L4.95153 29.3015C4.8906 29.3399 4.83018 29.3791 4.7703 29.4192L9.21875 36.0684ZM10.0703 35.7617L11.0928 43.6961C11.1434 43.6896 11.1941 43.6826 11.2446 43.6751L10.0703 35.7617ZM10.8721 35.3955L16.0922 41.4577C16.131 41.4243 16.1695 41.3905 16.2077 41.3563L10.8721 35.3955ZM12.2988 33.6855L5.49912 29.4708C5.49255 29.4814 5.486 29.492 5.47948 29.5027L12.2988 33.6855ZM13.5918 30.9473L6.02056 28.3634L6.01701 28.3738L13.5918 30.9473ZM14.4092 27.7822L6.53595 26.3637C6.53501 26.3689 6.53408 26.3741 6.53316 26.3793L14.4092 27.7822ZM14.8662 24.4082L22.8315 25.1529L22.8315 25.1526L14.8662 24.4082ZM15.0664 16.7715L7.06924 16.5587L7.06911 16.5637L15.0664 16.7715ZM15.1094 13.7539L23.1094 13.7539V13.7539H15.1094ZM15.4648 9.67383L9.41881 4.43498C9.3709 4.49028 9.32375 4.54623 9.27737 4.60281L15.4648 9.67383ZM16.4346 9.07715L18.3901 16.8345C18.4214 16.8266 18.4527 16.8185 18.484 16.8102L16.4346 9.07715ZM17.8291 8.91992L17.555 16.9152C17.6021 16.9168 17.6492 16.918 17.6963 16.9188L17.8291 8.91992ZM124.272 8.43359L124.273 0.433594H124.272V8.43359ZM134.173 10.8418L130.239 17.8075C130.244 17.8107 130.25 17.8139 130.255 17.8171L134.173 10.8418ZM134.657 11.3184L141.571 7.2933L141.568 7.2884L134.657 11.3184ZM134.833 11.9736L126.833 11.9445C126.833 11.9542 126.833 11.9639 126.833 11.9736L134.833 11.9736ZM134.833 17.1133L126.833 17.1133C126.833 17.1432 126.833 17.1731 126.834 17.2031L134.833 17.1133ZM134.671 17.7539L127.672 13.879L127.671 13.8803L134.671 17.7539ZM134.213 18.2314L138.377 25.0622L138.383 25.0587L134.213 18.2314ZM133.58 18.4199L133.827 26.4161L133.828 26.4161L133.58 18.4199ZM132.937 18.2715L136.67 11.1962C136.64 11.18 136.609 11.1641 136.578 11.1483L132.937 18.2715ZM124.483 16.1299L124.483 8.12988H124.483V16.1299ZM114.412 26.1172L106.412 26.1172L106.412 26.1173L114.412 26.1172ZM124.352 36.1035L124.389 28.1036C124.376 28.1035 124.364 28.1035 124.352 28.1035L124.352 36.1035ZM133.156 34.0078L136.794 41.1329C136.807 41.1264 136.819 41.1199 136.832 41.1133L133.156 34.0078ZM133.798 33.8643L134.099 25.8699L134.097 25.8699L133.798 33.8643ZM134.28 33.9775L138.059 26.9264C137.897 26.8392 137.731 26.7576 137.563 26.6819L134.28 33.9775ZM134.43 34.0576L138.591 27.2251C138.466 27.1487 138.338 27.0758 138.209 27.0065L134.43 34.0576ZM134.886 34.5312L141.868 30.627L141.868 30.6264L134.886 34.5312ZM135.051 35.168L127.051 35.1304C127.051 35.1429 127.051 35.1554 127.051 35.168L135.051 35.168ZM135.051 40.2881L127.051 40.2881C127.051 40.2978 127.051 40.3075 127.051 40.3172L135.051 40.2881ZM134.875 40.9443L141.784 44.9779L141.789 44.9689L134.875 40.9443ZM134.391 41.4199L130.473 34.4447C130.439 34.4639 130.405 34.4834 130.371 34.5031L134.391 41.4199ZM124.134 43.792L124.134 51.792H124.134V43.792ZM106.246 26.1123L98.2461 26.1122V26.1123H106.246ZM166.42 8.52148V16.5215V8.52148ZM167.334 8.90039L172.993 3.24608L172.991 3.2434L167.334 8.90039ZM167.713 9.81445L175.713 9.81445L175.713 9.81324L167.713 9.81445ZM167.334 42.8428L172.989 48.5011L172.993 48.4971L167.334 42.8428ZM166.42 43.2217V51.2217V43.2217ZM160.976 43.2217L160.974 51.2217H160.976L160.976 43.2217ZM160.062 42.8428L165.721 37.1883L165.718 37.186L160.062 42.8428ZM159.683 25.0986H167.683C167.683 21.8455 165.713 18.9163 162.7 17.6894C159.687 16.4625 156.231 17.1822 153.959 19.5098L159.683 25.0986ZM141.892 43.3203L136.168 37.7315L136.163 37.7365L141.892 43.3203ZM141.466 43.6104L144.557 50.9892L144.563 50.9867L141.466 43.6104ZM140.96 43.7109L140.989 35.711C140.979 35.711 140.97 35.7109 140.96 35.7109L140.96 43.7109ZM140.829 43.7109L140.829 51.7109L140.829 43.7109ZM139.914 43.332L134.257 48.9884L134.257 48.9888L139.914 43.332ZM139.535 10.3037L131.535 10.3012V10.3037H139.535ZM139.914 9.38965L134.257 3.73289L134.256 3.73392L139.914 9.38965ZM140.829 9.01074L140.829 17.0107L140.839 17.0107L140.829 9.01074ZM146.267 9.00391L146.269 1.0039L146.257 1.00391L146.267 9.00391ZM147.181 9.38281L152.84 3.7285L152.836 3.72484L147.181 9.38281ZM147.56 27.0908H139.56C139.56 30.3437 141.529 33.2726 144.542 34.4997C147.554 35.7268 151.01 35.0077 153.283 32.6807L147.56 27.0908ZM165.316 8.91113L159.612 3.30249C159.606 3.30873 159.599 3.31497 159.593 3.32123L165.316 8.91113ZM165.742 8.62305L162.643 1.24771L162.641 1.24854L165.742 8.62305ZM166.245 8.52148L166.245 0.521475L166.233 0.521494L166.245 8.52148ZM74.7988 8.89844L69.1394 14.5527L69.1416 14.5549L74.7988 8.89844ZM75.1777 9.81348L67.1777 9.81348L75.1777 9.81348ZM75.1777 41.9268L83.1777 41.9278V41.9268L75.1777 41.9268ZM74.7988 42.8418L69.1419 37.185L69.1394 37.1875L74.7988 42.8418ZM67.5361 42.8418L73.1953 37.1873L73.1931 37.185L67.5361 42.8418ZM67.1572 41.9268L59.1572 41.9268L59.1572 41.9278L67.1572 41.9268ZM67.1572 25.0967L75.1572 25.0967C75.1572 21.8435 73.1873 18.9143 70.1743 17.6874C67.1614 16.4605 63.7056 17.1803 61.433 19.508L67.1572 25.0967ZM49.3662 43.3193L43.642 37.7307L43.6374 37.7354L49.3662 43.3193ZM48.9404 43.6094L52.0312 50.9882L52.0348 50.9867L48.9404 43.6094ZM48.4355 43.71L48.462 35.71C48.4532 35.71 48.4444 35.71 48.4355 35.71L48.4355 43.71ZM47.3896 43.3311L41.7327 48.9878L41.7353 48.9904L47.3896 43.3311ZM47.0107 10.3027L39.0107 10.3022V10.3027L47.0107 10.3027ZM47.3896 9.38867L41.7327 3.7319L41.7327 3.73192L47.3896 9.38867ZM48.3037 9.00879L48.3037 17.0088L48.3123 17.0088L48.3037 9.00879ZM53.7305 9.00293L53.7305 1.00293L53.7218 1.00293L53.7305 9.00293ZM54.6445 9.38184L48.9859 15.0369L48.9876 15.0386L54.6445 9.38184ZM55.0234 10.2959L63.0234 10.2959L63.0234 10.2932L55.0234 10.2959ZM55.0234 27.0898H47.0234C47.0234 30.3428 48.9931 33.2718 52.0057 34.4988C55.0183 35.7259 58.474 35.0066 60.7468 32.6794L55.0234 27.0898ZM72.7783 8.91016L67.0779 3.2972C67.0703 3.30497 67.0626 3.31276 67.055 3.32057L72.7783 8.91016ZM73.2041 8.62207L76.2969 16L76.3042 15.997L73.2041 8.62207ZM73.707 8.51953V0.519531C73.6997 0.519531 73.6924 0.519541 73.6851 0.519561L73.707 8.51953ZM106.952 9.00684L106.952 17.0068C106.976 17.0068 107.001 17.0067 107.025 17.0065L106.952 9.00684ZM107.66 9.20996L111.968 2.46901L111.964 2.46652L107.66 9.20996ZM108.143 9.7666L115.429 6.46492L115.429 6.46433L108.143 9.7666ZM108.243 10.4971L116.15 11.7158L116.151 11.707L108.243 10.4971ZM107.928 11.1631L101.965 5.82922C101.952 5.84429 101.938 5.85941 101.925 5.87458L107.928 11.1631ZM97.1523 23.3936L91.1497 18.1051C88.8175 20.7522 88.4947 24.6145 90.355 27.6121L97.1523 23.3936ZM108.229 41.2422L101.432 45.4607C101.445 45.4813 101.458 45.5017 101.471 45.5222L108.229 41.2422ZM108.43 41.8975L100.433 42.121L100.433 42.1268L108.43 41.8975ZM108.268 42.5625L115.261 46.4482L115.261 46.4474L108.268 42.5625ZM107.788 43.0518L103.761 36.139L103.76 36.1396L107.788 43.0518ZM107.127 43.2275L107.189 35.2278C107.169 35.2276 107.148 35.2275 107.127 35.2275L107.127 43.2275ZM100.849 43.2275V35.2275C100.836 35.2275 100.824 35.2276 100.811 35.2276L100.849 43.2275ZM100.208 43.0615L96.281 50.0314L96.2816 50.0317L100.208 43.0615ZM99.7344 42.6006L106.591 38.4787C106.588 38.4742 106.585 38.4697 106.583 38.4652L99.7344 42.6006ZM91.5918 29.1162L98.4401 24.9809C97.1331 22.8165 94.8799 21.3973 92.3633 21.1535C89.8467 20.9097 87.3629 21.8699 85.6648 23.7431L91.5918 29.1162ZM87.9639 33.1182L82.0368 27.7451C80.7028 29.2167 79.9639 31.1319 79.9639 33.1182L87.9639 33.1182ZM87.9639 41.9277L95.9639 41.9285V41.9277L87.9639 41.9277ZM87.585 42.8428L93.2418 48.4996L93.2419 48.4995L87.585 42.8428ZM86.6709 43.2217V51.2217V43.2217ZM81.1367 43.2217V35.2217V43.2217ZM80.2217 42.8428L74.5622 48.497L74.5647 48.4995L80.2217 42.8428ZM79.8438 41.9277L71.8437 41.9277L71.8438 41.9285L79.8438 41.9277ZM80.2217 9.3877L74.5647 3.73094L74.562 3.73366L80.2217 9.3877ZM86.6758 9.00879L86.6777 1.00879H86.6758V9.00879ZM87.5898 9.3877L93.2492 3.73338L93.2459 3.73009L87.5898 9.3877ZM87.9688 22.6973H79.9688C79.9688 26.0435 82.0514 29.0362 85.1891 30.1988C88.3269 31.3615 91.8567 30.4484 94.0372 27.9102L87.9688 22.6973ZM99.3398 9.45996L105.408 14.6729C105.413 14.6672 105.418 14.6615 105.423 14.6558L99.3398 9.45996ZM99.7822 9.125L103.123 16.3942L103.125 16.3931L99.7822 9.125ZM100.324 9.00684L100.317 17.0068L100.324 17.0068L100.324 9.00684ZM22.7217 17.5488L30.7217 17.5489V17.5488L22.7217 17.5488ZM22.5801 25.0732L30.5547 25.7095C30.5553 25.7029 30.5558 25.6964 30.5563 25.6899L22.5801 25.0732ZM22.0947 28.8379L29.9713 30.2376C29.9723 30.2321 29.9733 30.2266 29.9743 30.221L22.0947 28.8379ZM21.1523 32.5889L13.5486 30.1023C13.5378 30.1352 13.5273 30.1682 13.5169 30.2013L21.1523 32.5889ZM19.6445 35.7256L13.0123 31.2519C11.3581 33.7043 11.1922 36.8693 12.5809 39.4813C13.9696 42.0932 16.6864 43.7256 19.6445 43.7256L19.6445 35.7256ZM31.334 35.7256L31.334 43.7256C35.7509 43.7256 39.332 40.146 39.334 35.7291L31.334 35.7256ZM31.3428 15.6943L39.3428 15.6978C39.3437 13.5755 38.5013 11.5398 37.0009 10.0387C35.5005 8.53767 33.4651 7.69434 31.3428 7.69434V15.6943ZM22.7217 15.6943V7.69434C18.3034 7.69434 14.7217 11.2761 14.7217 15.6943L22.7217 15.6943ZM19.4678 8.93262V16.9326H38.5244V8.93262V0.932617L19.4678 0.932617V8.93262ZM38.5244 8.93262L38.5213 16.9326C37.5928 16.9323 36.6924 16.7466 35.8677 16.4055L38.9248 9.0127L41.9819 1.61986C40.9031 1.17373 39.7306 0.933083 38.5275 0.932618L38.5244 8.93262ZM38.9248 9.0127L35.8627 16.4035C35.0358 16.0609 34.2659 15.5542 33.6079 14.8962L39.2646 9.23926L44.9214 3.58227C44.069 2.72995 43.0677 2.06971 41.9869 1.62194L38.9248 9.0127ZM39.2646 9.23926L33.6138 14.9021C32.9456 14.2354 32.4405 13.4614 32.1012 12.6431L39.4912 9.5791L46.8812 6.51515C46.4367 5.4431 45.7783 4.43742 44.9155 3.57642L39.2646 9.23926ZM39.4912 9.5791L32.0983 12.636C31.7556 11.8073 31.5713 10.9062 31.5713 9.98047H39.5713L47.5713 9.98047C47.5713 8.77944 47.332 7.60525 46.8841 6.52217L39.4912 9.5791ZM39.5713 9.98047H31.5713V35.7256H39.5713H47.5713V9.98047L39.5713 9.98047ZM39.5713 35.7256L39.5713 43.7256L41.6338 43.7256L41.6338 35.7256L41.6338 27.7256L39.5713 27.7256L39.5713 35.7256ZM41.6338 35.7256L41.6217 43.7256C39.7955 43.7228 38.027 42.9998 36.7153 41.6872L42.374 36.0322L48.0328 30.3773C46.3288 28.6722 44.0272 27.7292 41.6459 27.7256L41.6338 35.7256ZM42.374 36.0322L36.7141 41.686C35.4176 40.388 34.6867 38.6299 34.6817 36.7942L42.6816 36.7725L50.6816 36.7507C50.6751 34.3601 49.7229 32.0693 48.034 30.3785L42.374 36.0322ZM42.6816 36.7725L34.6816 36.7725L34.6816 46.6582L42.6816 46.6582L50.6816 46.6582L50.6816 36.7725L42.6816 36.7725ZM42.6816 46.6582L34.6817 46.6401C34.6858 44.7982 35.4202 43.0405 36.7129 41.7458L42.374 47.3984L48.0351 53.0511C49.7203 51.3633 50.6762 49.0733 50.6816 46.6763L42.6816 46.6582ZM42.374 47.3984L36.7141 41.7447C38.0137 40.4436 39.7777 39.7088 41.6217 39.7061L41.6338 47.7061L41.6459 55.706C44.0452 55.7024 46.3421 54.7459 48.034 53.0522L42.374 47.3984ZM41.6338 47.7061V39.7061H35.4316V47.7061V55.7061H41.6338V47.7061ZM35.4316 47.7061L35.4437 39.7061C37.2903 39.7089 39.052 40.4453 40.3483 41.7416L34.6914 47.3984L29.0345 53.0553C30.7235 54.7443 33.0178 55.7024 35.4196 55.706L35.4316 47.7061ZM34.6914 47.3984L40.3514 41.7447C41.6459 43.0406 42.3796 44.7994 42.3838 46.6401L34.3838 46.6582L26.3838 46.6763C26.3892 49.0723 27.3443 51.3631 29.0314 53.0522L34.6914 47.3984ZM34.3838 46.6582H42.3838V42.4004H34.3838H26.3838V46.6582H34.3838ZM34.3838 42.4004L34.3838 34.4004L16.9912 34.4004L16.9912 42.4004L16.9912 50.4004L34.3838 50.4004L34.3838 42.4004ZM16.9912 42.4004H8.99121V46.6582H16.9912H24.9912V42.4004H16.9912ZM16.9912 46.6582H8.99121C8.99121 44.8193 9.72012 43.0513 11.0253 41.745L16.6846 47.3994L22.3439 53.0538C24.0417 51.3545 24.9912 49.0527 24.9912 46.6582H16.9912ZM16.6846 47.3994L11.0264 41.7439C12.3373 40.4324 14.1086 39.7061 15.9434 39.7061V47.7061V55.7061C18.3337 55.7061 20.639 54.7595 22.3427 53.055L16.6846 47.3994ZM15.9434 47.7061V39.7061H9.79883L9.79883 47.7061V55.7061H15.9434V47.7061ZM9.79883 47.7061L9.81183 39.7061C11.6569 39.7091 13.4186 40.4446 14.7158 41.7419L9.05859 47.3984L3.40143 53.055C5.09113 54.7449 7.38562 55.7021 9.78582 55.706L9.79883 47.7061ZM9.05859 47.3984L14.7208 41.7469C16.0243 43.0529 16.7482 44.8154 16.7519 46.6418L8.75195 46.6582L0.75197 46.6746C0.756855 49.056 1.70055 51.3509 3.39641 53.05L9.05859 47.3984ZM8.75195 46.6582L16.752 46.6582L16.752 37.4092L8.75195 37.4092L0.751953 37.4092L0.751953 46.6582L8.75195 46.6582ZM8.75195 37.4092H16.752C16.752 37.5952 16.7407 38.2792 16.4243 39.1888C16.0834 40.1686 15.3002 41.625 13.6672 42.7175L9.21875 36.0684L4.7703 29.4192C0.908128 32.0031 0.751953 36.2036 0.751953 37.4092H8.75195ZM9.21875 36.0684L13.486 42.8353C12.7635 43.2908 11.9476 43.586 11.0928 43.6961L10.0703 35.7617L9.04787 27.8273C7.58787 28.0155 6.19026 28.5203 4.95153 29.3015L9.21875 36.0684ZM10.0703 35.7617L11.2446 43.6751C13.0267 43.4106 14.7104 42.6476 16.0922 41.4577L10.8721 35.3955L5.65195 29.3333C6.57949 28.5346 7.70673 28.0249 8.89602 27.8484L10.0703 35.7617ZM10.8721 35.3955L16.2077 41.3563C17.3429 40.3402 18.323 39.1649 19.1182 37.8684L12.2988 33.6855L5.47948 29.5027C5.49429 29.4785 5.51321 29.4555 5.53648 29.4347L10.8721 35.3955ZM12.2988 33.6855L19.0985 37.9003C19.9523 36.523 20.6458 35.0536 21.1666 33.5207L13.5918 30.9473L6.01701 28.3738C5.88628 28.7586 5.71248 29.1266 5.49912 29.4708L12.2988 33.6855ZM13.5918 30.9473L21.163 33.5312C21.6461 32.1156 22.022 30.6626 22.2852 29.1852L14.4092 27.7822L6.53316 26.3793C6.41362 27.0503 6.24224 27.7138 6.02057 28.3634L13.5918 30.9473ZM14.4092 27.7822L22.2824 29.2008C22.526 27.8486 22.7064 26.491 22.8315 25.1529L14.8662 24.4082L6.90094 23.6636C6.81481 24.5849 6.69316 25.4912 6.53595 26.3637L14.4092 27.7822ZM14.8662 24.4082L22.8315 25.1526C22.97 23.6706 23.0482 17.5753 23.0637 16.9793L15.0664 16.7715L7.06911 16.5637C7.05477 17.1154 7.02817 18.8839 6.99707 20.4071C6.9806 21.2136 6.9622 21.9976 6.94205 22.6385C6.91893 23.3738 6.90021 23.6714 6.90092 23.6638L14.8662 24.4082ZM15.0664 16.7715L23.0636 16.9843C23.0939 15.8443 23.1094 14.7669 23.1094 13.7539L15.1094 13.7539L7.10938 13.7539C7.10937 14.6061 7.09634 15.5402 7.06924 16.5587L15.0664 16.7715ZM15.1094 13.7539H23.1094V10.9873H15.1094H7.10938V13.7539H15.1094ZM15.1094 10.9873H23.1094C23.1094 11.2716 23.0858 12.9957 21.6523 14.7448L15.4648 9.67383L9.27737 4.60281C7.374 6.92524 7.10938 9.52169 7.10938 10.9873H15.1094ZM15.4648 9.67383L21.5109 14.9127C20.6889 15.8613 19.5982 16.5299 18.3901 16.8345L16.4346 9.07715L14.4791 1.31983C12.5177 1.81425 10.7496 2.89911 9.41881 4.43498L15.4648 9.67383ZM16.4346 9.07715L18.484 16.8102C18.179 16.891 17.8662 16.9259 17.555 16.9152L17.8291 8.91992L18.1032 0.924618C16.8522 0.881737 15.5992 1.02236 14.3851 1.34411L16.4346 9.07715ZM17.8291 8.91992L17.6963 16.9188C18.2641 16.9283 18.8556 16.9326 19.4678 16.9326V8.93262V0.932617C18.9305 0.932617 18.4286 0.928775 17.962 0.921025L17.8291 8.91992ZM124.272 8.43359L124.272 16.4336C127.665 16.4336 129.95 17.6444 130.239 17.8075L134.173 10.8418L138.107 3.8761C136.395 2.90893 131.361 0.433694 124.273 0.433594L124.272 8.43359ZM134.173 10.8418L130.255 17.8171C129.215 17.2326 128.349 16.381 127.746 15.3483L134.657 11.3184L141.568 7.2884C140.734 5.85764 139.532 4.67644 138.09 3.86653L134.173 10.8418ZM134.657 11.3184L127.744 15.3434C127.146 14.3167 126.829 13.1441 126.833 11.9445L134.833 11.9736L142.833 12.0027C142.839 10.3425 142.4 8.71752 141.571 7.2933L134.657 11.3184ZM134.833 11.9736L126.833 11.9736L126.833 17.1133L134.833 17.1133L142.833 17.1133L142.833 11.9736L134.833 11.9736ZM134.833 17.1133L126.834 17.2031C126.82 16.0304 127.114 14.8864 127.672 13.879L134.671 17.7539L141.67 21.6288C142.444 20.2297 142.851 18.6439 142.833 17.0235L134.833 17.1133ZM134.671 17.7539L127.671 13.8803C128.239 12.8547 129.059 12.005 130.043 11.4041L134.213 18.2314L138.383 25.0587C139.749 24.2244 140.886 23.0453 141.671 21.6275L134.671 17.7539ZM134.213 18.2314L130.049 11.4007C131.036 10.7985 132.168 10.4598 133.332 10.4238L133.58 18.4199L133.828 26.4161C135.44 26.3662 137.007 25.8975 138.377 25.0622L134.213 18.2314ZM133.58 18.4199L133.333 10.4237C134.483 10.3882 135.634 10.6493 136.67 11.1962L132.937 18.2715L129.203 25.3468C130.635 26.1026 132.23 26.4655 133.827 26.4161L133.58 18.4199ZM132.937 18.2715L136.578 11.1483C132.753 9.19284 128.748 8.1299 124.483 8.12988L124.483 16.1299L124.483 24.1299C125.961 24.1299 127.486 24.4699 129.295 25.3947L132.937 18.2715ZM124.483 16.1299V8.12988C119.627 8.12988 115.014 9.84362 111.591 13.2382C108.163 16.6376 106.412 21.2443 106.412 26.1172H114.412H122.412C122.412 25.1106 122.732 24.7236 122.858 24.5992C122.988 24.47 123.411 24.1299 124.483 24.1299V16.1299ZM114.412 26.1172L106.412 26.1173C106.412 36.2901 114.141 44.1032 124.351 44.1035L124.352 36.1035L124.352 28.1035C123.472 28.1035 123.068 27.8132 122.892 27.6369C122.714 27.4586 122.412 27.0345 122.412 26.117L114.412 26.1172ZM124.352 36.1035L124.314 44.1034C128.651 44.1236 132.93 43.1054 136.794 41.1329L133.156 34.0078L129.519 26.8827C127.931 27.6932 126.172 28.1119 124.389 28.1036L124.352 36.1035ZM133.156 34.0078L136.832 41.1133C135.806 41.6444 134.657 41.9021 133.498 41.8587L133.798 33.8643L134.097 25.8699C132.493 25.8098 130.903 26.1665 129.48 26.9023L133.156 34.0078ZM133.798 33.8643L133.497 41.8586C132.624 41.8258 131.777 41.6235 130.998 41.2732L134.28 33.9775L137.563 26.6819C136.481 26.1951 135.305 25.9153 134.099 25.8699L133.798 33.8643ZM134.28 33.9775L130.501 41.0287L130.651 41.1088L134.43 34.0576L138.209 27.0065L138.059 26.9264L134.28 33.9775ZM134.43 34.0576L130.268 40.8901C129.277 40.2865 128.465 39.4394 127.903 38.4361L134.886 34.5312L141.868 30.6264C141.089 29.2342 139.963 28.0605 138.591 27.2251L134.43 34.0576ZM134.886 34.5312L127.903 38.4355C127.347 37.4413 127.045 36.3049 127.051 35.1304L135.051 35.168L143.051 35.2056C143.058 33.5852 142.642 32.0101 141.868 30.627L134.886 34.5312ZM135.051 35.168L127.051 35.168L127.051 40.2881L135.051 40.2881L143.051 40.2881L143.051 35.168L135.051 35.168ZM135.051 40.2881L127.051 40.3172C127.046 39.124 127.361 37.9514 127.961 36.9198L134.875 40.9443L141.789 44.9689C142.621 43.5392 143.057 41.9131 143.051 40.259L135.051 40.2881ZM134.875 40.9443L127.966 36.9108C128.574 35.8691 129.444 35.0225 130.473 34.4447L134.391 41.4199L138.308 48.3952C139.738 47.5919 140.943 46.4172 141.784 44.9779L134.875 40.9443ZM134.391 41.4199L130.371 34.5031C130.71 34.306 128.189 35.792 124.134 35.792V43.792V51.792C131.904 51.792 137.215 49.0313 138.41 48.3368L134.391 41.4199ZM124.134 43.792L124.134 35.792C118.267 35.7919 114.246 31.6831 114.246 26.1123H106.246H98.2461C98.2461 40.6955 109.608 51.7917 124.134 51.792L124.134 43.792ZM106.246 26.1123L114.246 26.1124C114.246 20.5994 118.267 16.4336 124.272 16.4336V8.43359V0.433594C109.725 0.433594 98.2463 11.4712 98.2461 26.1122L106.246 26.1123ZM166.42 8.52148V16.5215C164.637 16.5215 162.932 15.8119 161.677 14.5574L167.334 8.90039L172.991 3.2434C171.251 1.50363 168.889 0.521484 166.42 0.521484V8.52148ZM167.334 8.90039L161.675 14.5547C160.424 13.3026 159.713 11.5999 159.713 9.81567L167.713 9.81445L175.713 9.81324C175.713 7.34309 174.729 4.9834 172.993 3.24608L167.334 8.90039ZM167.713 9.81445H159.713V41.9277H167.713H175.713V9.81445L167.713 9.81445ZM167.713 41.9277H159.713C159.713 40.1477 160.42 38.444 161.675 37.1885L167.334 42.8428L172.993 48.4971C174.733 46.7563 175.713 44.3942 175.713 41.9277H167.713ZM167.334 42.8428L161.679 37.1845C162.932 35.932 164.635 35.2217 166.42 35.2217V43.2217V51.2217C168.89 51.2217 171.251 50.2385 172.989 48.5011L167.334 42.8428ZM166.42 43.2217L166.42 35.2217L160.976 35.2217L160.976 43.2217L160.976 51.2217L166.42 51.2217L166.42 43.2217ZM160.976 43.2217L160.978 35.2217C162.756 35.2221 164.462 35.9288 165.721 37.1883L160.062 42.8428L154.402 48.4973C156.145 50.2418 158.51 51.2211 160.974 51.2217L160.976 43.2217ZM160.062 42.8428L165.718 37.186C166.977 38.4447 167.683 40.1507 167.683 41.9277H159.683H151.683C151.683 44.3912 152.661 46.7556 154.405 48.4995L160.062 42.8428ZM159.683 41.9277H167.683V25.0986H159.683H151.683V41.9277H159.683ZM159.683 25.0986L153.959 19.5098L136.168 37.7315L141.892 43.3203L147.616 48.9091L165.407 30.6874L159.683 25.0986ZM141.892 43.3203L136.163 37.7365C136.789 37.0941 137.538 36.5827 138.369 36.234L141.466 43.6104L144.563 50.9867C145.713 50.5039 146.752 49.7948 147.621 48.9041L141.892 43.3203ZM141.466 43.6104L138.375 36.2315C139.207 35.883 140.096 35.7078 140.989 35.711L140.96 43.7109L140.931 51.7109C142.171 51.7154 143.404 51.4718 144.557 50.9892L141.466 43.6104ZM140.96 43.7109L140.96 35.7109L140.829 35.7109L140.829 43.7109L140.829 51.7109L140.96 51.7109L140.96 43.7109ZM140.829 43.7109V35.7109C142.605 35.7109 144.311 36.4153 145.571 37.6753L139.914 43.332L134.257 48.9888C136.002 50.734 138.368 51.7109 140.829 51.7109V43.7109ZM139.914 43.332L145.571 37.6757C146.829 38.9339 147.535 40.639 147.535 42.417H139.535L131.535 42.417C131.535 44.8809 132.514 47.2453 134.257 48.9884L139.914 43.332ZM139.535 42.417H147.535V10.3037H139.535H131.535V42.417L139.535 42.417ZM139.535 10.3037L147.535 10.3063C147.535 12.0879 146.826 13.791 145.572 15.0454L139.914 9.38965L134.256 3.73392C132.518 5.47292 131.536 7.834 131.535 10.3012L139.535 10.3037ZM139.914 9.38965L145.571 15.0464C144.311 16.3063 142.605 17.0107 140.829 17.0107V9.01074V1.01074C138.368 1.01074 136.002 1.98768 134.257 3.73289L139.914 9.38965ZM140.829 9.01074L140.839 17.0107L146.277 17.0039L146.267 9.00391L146.257 1.00391L140.819 1.01075L140.829 9.01074ZM146.267 9.00391L146.265 17.0039C144.483 17.0035 142.78 16.2949 141.525 15.0408L147.181 9.38281L152.836 3.72484C151.097 1.98586 148.736 1.00453 146.269 1.00391L146.267 9.00391ZM147.181 9.38281L141.521 15.0371C140.266 13.7811 139.56 12.0774 139.56 10.2979H147.56H155.56C155.56 7.83232 154.58 5.46978 152.84 3.7285L147.181 9.38281ZM147.56 10.2979H139.56V27.0908H147.56H155.56V10.2979H147.56ZM147.56 27.0908L153.283 32.6807L171.039 14.501L165.316 8.91113L159.593 3.32123L141.837 21.5009L147.56 27.0908ZM165.316 8.91113L171.021 14.5198C170.387 15.1647 169.643 15.6613 168.843 15.9975L165.742 8.62305L162.641 1.24854C161.523 1.71888 160.488 2.41085 159.612 3.30249L165.316 8.91113ZM165.742 8.62305L168.841 15.9984C168.017 16.3445 167.139 16.5201 166.257 16.5215L166.245 8.52148L166.233 0.521494C165.006 0.523347 163.785 0.767732 162.643 1.24771L165.742 8.62305ZM166.245 8.52148L166.245 16.5215L166.42 16.5215L166.42 8.52148L166.42 0.521484L166.245 0.521484L166.245 8.52148ZM73.8838 8.51953V16.5195C72.1094 16.5195 70.4015 15.8159 69.1394 14.5527L74.7988 8.89844L80.4582 3.24413C78.7113 1.49566 76.3441 0.519531 73.8838 0.519531V8.51953ZM74.7988 8.89844L69.1416 14.5549C67.8829 13.2961 67.1777 11.5903 67.1777 9.81348H75.1777H83.1777C83.1777 7.35064 82.1999 4.98605 80.456 3.24195L74.7988 8.89844ZM75.1777 9.81348L67.1777 9.81348L67.1777 41.9268L75.1777 41.9268L83.1777 41.9268L83.1777 9.81348L75.1777 9.81348ZM75.1777 41.9268L67.1777 41.9257C67.178 40.1501 67.8827 38.4443 69.1419 37.185L74.7988 42.8418L80.4558 48.4986C82.2002 46.7541 83.1774 44.3897 83.1777 41.9278L75.1777 41.9268ZM74.7988 42.8418L69.1394 37.1875C70.4015 35.9243 72.1094 35.2207 73.8838 35.2207V43.2207V51.2207C76.3441 51.2207 78.7113 50.2446 80.4582 48.4961L74.7988 42.8418ZM73.8838 43.2207V35.2207H68.4512V43.2207V51.2207H73.8838V43.2207ZM68.4512 43.2207V35.2207C70.2257 35.2207 71.9335 35.9244 73.1953 37.1873L67.5361 42.8418L61.8769 48.4963C63.6236 50.2444 65.9906 51.2207 68.4512 51.2207V43.2207ZM67.5361 42.8418L73.1931 37.185C74.4523 38.4443 75.157 40.1501 75.1572 41.9257L67.1572 41.9268L59.1572 41.9278C59.1576 44.3897 60.1348 46.7541 61.8792 48.4986L67.5361 42.8418ZM67.1572 41.9268H75.1572V25.0967L67.1572 25.0967H59.1572V41.9268H67.1572ZM67.1572 25.0967L61.433 19.508L43.642 37.7307L49.3662 43.3193L55.0905 48.908L72.8815 30.6853L67.1572 25.0967ZM49.3662 43.3193L43.6374 37.7354C44.262 37.0945 45.0121 36.5818 45.8461 36.232L48.9404 43.6094L52.0348 50.9867C53.1884 50.5028 54.2282 49.7926 55.0951 48.9033L49.3662 43.3193ZM48.9404 43.6094L45.8497 36.2305C46.6774 35.8838 47.5658 35.707 48.462 35.71L48.4355 43.71L48.4091 51.7099C49.652 51.714 50.8836 51.4689 52.0312 50.9882L48.9404 43.6094ZM48.4355 43.71V35.71H48.3037V43.71V51.71H48.4355V43.71ZM48.3037 43.71V35.71C50.0889 35.71 51.7916 36.4204 53.044 37.6717L47.3896 43.3311L41.7353 48.9904C43.4729 50.7264 45.8334 51.71 48.3037 51.71V43.71ZM47.3896 43.3311L53.0466 37.6743C54.3052 38.933 55.0107 40.6385 55.0107 42.416H47.0107H39.0107C39.0107 44.8796 39.9892 47.2443 41.7327 48.9878L47.3896 43.3311ZM47.0107 42.416H55.0107V10.3027H47.0107L39.0107 10.3027V42.416H47.0107ZM47.0107 10.3027L55.0107 10.3033C55.0106 12.0865 54.301 13.791 53.0466 15.0454L47.3896 9.38867L41.7327 3.73192C39.9935 5.47116 39.0109 7.83304 39.0107 10.3022L47.0107 10.3027ZM47.3896 9.38867L53.0466 15.0454C51.8022 16.2898 50.1014 17.0088 48.3037 17.0088V9.00879V1.00879C45.8204 1.00879 43.4623 2.00223 41.7327 3.7319L47.3896 9.38867ZM48.3037 9.00879L48.3123 17.0088L53.7391 17.0029L53.7305 9.00293L53.7218 1.00293L48.2951 1.00879L48.3037 9.00879ZM53.7305 9.00293V17.0029C51.9489 17.0029 50.2426 16.2944 48.9859 15.0369L54.6445 9.38184L60.3032 3.72681C58.5617 1.98416 56.1979 1.00293 53.7305 1.00293V9.00293ZM54.6445 9.38184L48.9876 15.0386C47.7315 13.7825 47.024 12.0779 47.0234 10.2986L55.0234 10.2959L63.0234 10.2932C63.0226 7.8282 62.0426 5.46625 60.3015 3.72508L54.6445 9.38184ZM55.0234 10.2959H47.0234V27.0898H55.0234H63.0234V10.2959H55.0234ZM55.0234 27.0898L60.7468 32.6794L78.5016 14.4997L72.7783 8.91016L67.055 3.32057L49.3001 21.5003L55.0234 27.0898ZM72.7783 8.91016L78.4787 14.5231C77.8542 15.1574 77.1122 15.6583 76.2969 16L73.2041 8.62207L70.1113 1.24411C68.9771 1.71954 67.9451 2.41654 67.0779 3.2972L72.7783 8.91016ZM73.2041 8.62207L76.3042 15.997C75.5004 16.3349 74.626 16.517 73.7289 16.5195L73.707 8.51953L73.6851 0.519561C72.4427 0.522961 71.2264 0.775348 70.104 1.24715L73.2041 8.62207ZM73.707 8.51953V16.5195H73.8838V8.51953V0.519531H73.707V8.51953ZM106.952 9.00684L107.025 17.0065C105.728 17.0183 104.453 16.6537 103.356 15.9534L107.66 9.20996L111.964 2.46652C110.444 1.49644 108.677 0.990802 106.879 1.00717L106.952 9.00684ZM107.66 9.20996L103.352 15.9509C102.263 15.2547 101.394 14.2553 100.856 13.0689L108.143 9.7666L115.429 6.46433C114.685 4.82121 113.48 3.43513 111.968 2.46901L107.66 9.20996ZM108.143 9.7666L100.856 13.0683C100.32 11.8853 100.139 10.5722 100.335 9.28718L108.243 10.4971L116.151 11.707C116.424 9.92622 116.172 8.10464 115.429 6.46492L108.143 9.7666ZM108.243 10.4971L100.337 9.2783C100.537 7.97982 101.11 6.78542 101.965 5.82922L107.928 11.1631L113.89 16.497C115.08 15.1671 115.873 13.5098 116.15 11.7158L108.243 10.4971ZM107.928 11.1631L101.925 5.87458L91.1497 18.1051L97.1523 23.3936L103.155 28.6821L113.93 16.4516L107.928 11.1631ZM97.1523 23.3936L90.355 27.6121L101.432 45.4607L108.229 41.2422L115.027 37.0236L103.95 19.175L97.1523 23.3936ZM108.229 41.2422L101.471 45.5222C100.827 44.506 100.467 43.3316 100.433 42.121L108.43 41.8975L116.427 41.6739C116.38 39.9985 115.881 38.3714 114.988 36.9622L108.229 41.2422ZM108.43 41.8975L100.433 42.1268C100.398 40.9242 100.688 39.7324 101.274 38.6776L108.268 42.5625L115.261 46.4474C116.073 44.9863 116.474 43.3352 116.426 41.6682L108.43 41.8975ZM108.268 42.5625L101.275 38.6768C101.861 37.6213 102.721 36.7453 103.761 36.139L107.788 43.0518L111.815 49.9645C113.257 49.1244 114.448 47.9102 115.261 46.4482L108.268 42.5625ZM107.788 43.0518L103.76 36.1396C104.802 35.5329 105.986 35.2184 107.189 35.2278L107.127 43.2275L107.064 51.2273C108.732 51.2403 110.373 50.8046 111.816 49.9639L107.788 43.0518ZM107.127 43.2275V35.2275H100.849V43.2275V51.2275H107.127V43.2275ZM100.849 43.2275L100.811 35.2276C101.966 35.2222 103.112 35.5153 104.134 36.0914L100.208 43.0615L96.2816 50.0317C97.6948 50.8278 99.2833 51.2349 100.886 51.2275L100.849 43.2275ZM100.208 43.0615L104.135 36.0917C105.154 36.6656 105.997 37.491 106.591 38.4787L99.7344 42.6006L92.878 46.7225C93.7026 48.0942 94.8721 49.2375 96.281 50.0314L100.208 43.0615ZM99.7344 42.6006L106.583 38.4652L98.4401 24.9809L91.5918 29.1162L84.7435 33.2516L92.8861 46.7359L99.7344 42.6006ZM91.5918 29.1162L85.6648 23.7431L82.0368 27.7451L87.9639 33.1182L93.8909 38.4913L97.5188 34.4893L91.5918 29.1162ZM87.9639 33.1182L79.9639 33.1182L79.9639 41.9277L87.9639 41.9277L95.9639 41.9277L95.9639 33.1182L87.9639 33.1182ZM87.9639 41.9277L79.9639 41.9269C79.964 40.151 80.669 38.4451 81.928 37.186L87.585 42.8428L93.2419 48.4995C94.9862 46.7552 95.9636 44.3908 95.9639 41.9285L87.9639 41.9277ZM87.585 42.8428L81.9281 37.1859C83.1827 35.9313 84.8873 35.2217 86.6709 35.2217V43.2217V51.2217C89.1401 51.2217 91.5024 50.239 93.2418 48.4996L87.585 42.8428ZM86.6709 43.2217L86.6709 35.2217L81.1367 35.2217L81.1367 43.2217L81.1367 51.2217L86.6709 51.2217L86.6709 43.2217ZM81.1367 43.2217V35.2217C82.9131 35.2217 84.6192 35.9266 85.8786 37.186L80.2217 42.8428L74.5647 48.4995C76.3094 50.2443 78.6744 51.2217 81.1367 51.2217V43.2217ZM80.2217 42.8428L85.8811 37.1885C87.1468 38.4554 87.8436 40.1635 87.8437 41.9269L79.8438 41.9277L71.8438 41.9285C71.844 44.3783 72.8118 46.745 74.5622 48.497L80.2217 42.8428ZM79.8438 41.9277H87.8438V10.3027H79.8438H71.8438V41.9277H79.8438ZM79.8438 10.3027H87.8438C87.8438 12.0671 87.1467 13.7751 85.8814 15.0417L80.2217 9.3877L74.562 3.73366C72.8119 5.48555 71.8438 7.85243 71.8438 10.3027H79.8438ZM80.2217 9.3877L85.8786 15.0445C84.6192 16.3039 82.9131 17.0088 81.1367 17.0088V9.00879V1.00879C78.6744 1.00879 76.3094 1.98622 74.5647 3.73094L80.2217 9.3877ZM81.1367 9.00879V17.0088H86.6758V9.00879V1.00879H81.1367V9.00879ZM86.6758 9.00879L86.6739 17.0088C84.8928 17.0084 83.1887 16.2999 81.9337 15.0453L87.5898 9.3877L93.2459 3.73009C91.5059 1.9905 89.1444 1.00938 86.6777 1.00879L86.6758 9.00879ZM87.5898 9.3877L81.9304 15.042C80.6756 13.786 79.9688 12.0823 79.9688 10.3027H87.9688H95.9688C95.9688 7.8372 94.989 5.47466 93.2492 3.73338L87.5898 9.3877ZM87.9688 10.3027H79.9688V22.6973H87.9688H95.9688V10.3027H87.9688ZM87.9688 22.6973L94.0372 27.9102L105.408 14.6729L99.3398 9.45996L93.2714 4.24707L81.9003 17.4844L87.9688 22.6973ZM99.3398 9.45996L105.423 14.6558C104.799 15.3857 104.018 15.9829 103.123 16.3942L99.7822 9.125L96.4417 1.85583C95.2066 2.4234 94.1232 3.24976 93.2569 4.26407L99.3398 9.45996ZM99.7822 9.125L103.125 16.3931C102.238 16.801 101.28 17.0077 100.317 17.0068L100.324 9.00684L100.332 1.00684C98.9948 1.00561 97.666 1.29271 96.4393 1.85692L99.7822 9.125ZM100.324 9.00684L100.324 17.0068L106.952 17.0068L106.952 9.00684L106.952 1.00684L100.324 1.00684L100.324 9.00684ZM22.7217 17.5488L14.7217 17.5488C14.7217 17.9503 14.7106 19.4817 14.6873 21.0767C14.6757 21.8693 14.6615 22.6534 14.6448 23.3036C14.6365 23.6291 14.6279 23.9058 14.6194 24.1246C14.6101 24.3654 14.6036 24.4603 14.6039 24.4566L22.5801 25.0732L30.5563 25.6899C30.6806 24.0823 30.7217 18.3318 30.7217 17.5489L22.7217 17.5488ZM22.5801 25.0732L14.6054 24.437C14.529 25.3948 14.4003 26.4002 14.2152 27.4548L22.0947 28.8379L29.9743 30.221C30.2403 28.7056 30.4357 27.201 30.5547 25.7095L22.5801 25.0732ZM22.0947 28.8379L14.2181 27.4382C14.0582 28.338 13.8345 29.2281 13.5486 30.1023L21.1523 32.5889L28.7561 35.0754C29.2727 33.4958 29.6795 31.8795 29.9713 30.2376L22.0947 28.8379ZM21.1523 32.5889L13.5169 30.2013C13.3996 30.5766 13.2293 30.9303 13.0123 31.2519L19.6445 35.7256L26.2767 40.1993C27.3642 38.5871 28.209 36.8273 28.7878 34.9765L21.1523 32.5889ZM19.6445 35.7256L19.6445 43.7256L31.334 43.7256L31.334 35.7256L31.334 27.7256L19.6445 27.7256L19.6445 35.7256ZM31.334 35.7256L39.334 35.7291L39.3428 15.6978L31.3428 15.6943L23.3428 15.6908L23.334 35.7221L31.334 35.7256ZM31.3428 15.6943V7.69434L22.7217 7.69434V15.6943V23.6943H31.3428V15.6943ZM22.7217 15.6943L14.7217 15.6943L14.7217 17.5488L22.7217 17.5488L30.7217 17.5488L30.7217 15.6943L22.7217 15.6943Z" fill="#283D15" mask="url(#path-3-outside-2_2067_19454)"/>
</g>
<path d="M19.4678 8.93262H38.5244C38.6617 8.93267 38.7977 8.96015 38.9248 9.0127C39.0517 9.06528 39.1675 9.14207 39.2646 9.23926C39.362 9.33639 39.4386 9.45226 39.4912 9.5791C39.5438 9.70629 39.5713 9.8428 39.5713 9.98047V35.7256L41.6338 35.7256C41.9113 35.726 42.1779 35.836 42.374 36.0322C42.5702 36.2287 42.6809 36.495 42.6816 36.7725L42.6816 46.6582C42.681 46.9358 42.5703 47.2019 42.374 47.3984C42.1779 47.5948 41.9114 47.7056 41.6338 47.7061H35.4316C35.154 47.7056 34.8877 47.5948 34.6914 47.3984C34.4951 47.2019 34.3844 46.9358 34.3838 46.6582V42.4004L16.9912 42.4004V46.6582C16.9912 46.936 16.8809 47.2029 16.6846 47.3994C16.4881 47.596 16.2212 47.7061 15.9434 47.7061H9.79883C9.52125 47.7056 9.25488 47.5947 9.05859 47.3984C8.86245 47.2019 8.75252 46.9357 8.75195 46.6582L8.75195 37.4092C8.75195 36.7239 8.90725 36.2768 9.21875 36.0684C9.47689 35.9056 9.76775 35.8007 10.0703 35.7617C10.3667 35.7177 10.6449 35.5911 10.8721 35.3955C11.428 34.8979 11.9086 34.3217 12.2988 33.6855C12.8324 32.8248 13.266 31.9061 13.5918 30.9473C13.9442 29.9147 14.2178 28.8565 14.4092 27.7822C14.6096 26.6699 14.7606 25.5379 14.8662 24.4082C14.9718 23.2783 15.0384 17.8495 15.0664 16.7715C15.0951 15.6923 15.1094 14.6865 15.1094 13.7539V10.9873C15.1094 10.3966 15.2299 9.96047 15.4648 9.67383C15.7192 9.38023 16.058 9.17209 16.4346 9.07715C16.8891 8.95669 17.3592 8.90381 17.8291 8.91992C18.3464 8.92851 18.893 8.93262 19.4678 8.93262ZM124.272 8.43359C129.513 8.43367 133.172 10.2767 134.173 10.8418C134.374 10.9545 134.541 11.1193 134.657 11.3184C134.773 11.5171 134.834 11.7433 134.833 11.9736L134.833 17.1133C134.836 17.3372 134.779 17.5581 134.671 17.7539C134.562 17.95 134.404 18.1147 134.213 18.2314C134.022 18.348 133.804 18.413 133.58 18.4199C133.356 18.4268 133.134 18.3759 132.937 18.2715C130.119 16.8314 127.354 16.1299 124.483 16.1299C118.554 16.1299 114.412 20.2377 114.412 26.1172C114.412 31.9057 118.593 36.1033 124.352 36.1035C127.411 36.1178 130.431 35.3993 133.156 34.0078C133.354 33.9054 133.575 33.8559 133.798 33.8643C133.965 33.8705 134.129 33.9093 134.28 33.9775L134.43 34.0576C134.62 34.1735 134.777 34.3368 134.886 34.5312C134.994 34.7257 135.052 34.9451 135.051 35.168L135.051 40.2881C135.052 40.5186 134.991 40.7453 134.875 40.9443C134.759 41.1432 134.591 41.3072 134.391 41.4199C133.963 41.6687 130.047 43.792 124.134 43.792C113.938 43.7918 106.246 36.1893 106.246 26.1123C106.246 16.0353 113.996 8.43359 124.272 8.43359ZM73.8838 8.51953C74.2268 8.51953 74.5564 8.6558 74.7988 8.89844C75.0414 9.14107 75.1768 9.47053 75.1768 9.81348V41.9268C75.1767 42.2699 75.0414 42.5992 74.7988 42.8418C74.5564 43.0844 74.2268 43.2197 73.8838 43.2197H68.4512C68.1082 43.2197 67.7785 43.0844 67.5361 42.8418C67.2936 42.5992 67.1573 42.2699 67.1572 41.9268V25.0967L49.3662 43.3193C49.2451 43.4436 49.1003 43.5423 48.9404 43.6094C48.7804 43.6764 48.6081 43.7106 48.4346 43.71L48.3037 43.71C47.9609 43.71 47.6313 43.5737 47.3887 43.3311C47.1463 43.0886 47.0107 42.759 47.0107 42.416V10.3027C47.0108 9.95974 47.1463 9.63012 47.3887 9.3877C47.6313 9.14507 47.9609 9.00879 48.3037 9.00879L53.7305 9.00293C54.0734 9.00295 54.4021 9.13923 54.6445 9.38184C54.8871 9.62439 55.0233 9.95303 55.0234 10.2959V27.0898L72.7783 8.91016C72.8996 8.78695 73.0447 8.68891 73.2041 8.62207C73.3634 8.55512 73.5344 8.51999 73.707 8.51953H73.8838ZM166.42 8.51953C166.763 8.5196 167.091 8.65586 167.334 8.89844C167.576 9.14102 167.713 9.46963 167.713 9.8125V41.9258C167.713 42.269 167.576 42.5982 167.334 42.8408C167.091 43.0834 166.763 43.2197 166.42 43.2197L160.976 43.2197C160.633 43.2197 160.304 43.0833 160.062 42.8408C159.819 42.5982 159.683 42.269 159.683 41.9258V25.0967L141.891 43.3184C141.77 43.4426 141.625 43.5413 141.465 43.6084C141.305 43.6754 141.133 43.7096 140.96 43.709L140.828 43.709C140.485 43.709 140.157 43.5726 139.914 43.3301C139.672 43.0876 139.535 42.758 139.535 42.415L139.535 10.3018C139.535 9.95889 139.672 9.63003 139.914 9.3877C140.157 9.14509 140.485 9.00882 140.828 9.00879L146.266 9.00195C146.609 9.00195 146.938 9.13822 147.181 9.38086C147.423 9.6235 147.56 9.95289 147.56 10.2959L147.56 27.0889L165.316 8.90918C165.438 8.78594 165.582 8.6881 165.741 8.62109C165.901 8.55405 166.072 8.51974 166.245 8.51953L166.42 8.51953ZM106.953 9.01074C107.204 9.00844 107.45 9.07893 107.661 9.21387C107.872 9.34881 108.04 9.54213 108.144 9.77051C108.247 9.99877 108.282 10.2523 108.244 10.5C108.206 10.7479 108.097 10.9801 107.93 11.167L97.1533 23.3975L108.231 41.2461C108.356 41.4424 108.425 41.6683 108.432 41.9004C108.438 42.1328 108.381 42.3632 108.269 42.5664C108.156 42.7695 107.991 42.9388 107.79 43.0557C107.589 43.1728 107.36 43.2333 107.128 43.2314H100.85C100.626 43.2325 100.405 43.1752 100.21 43.0654C100.015 42.9555 99.8508 42.7965 99.7354 42.6045L91.5928 29.1201L87.9658 33.1221V41.9316C87.9657 42.2746 87.8293 42.6032 87.5869 42.8457C87.3446 43.0882 87.0157 43.2245 86.6729 43.2246L81.1377 43.2246C80.7947 43.2246 80.4663 43.0883 80.2236 42.8457C79.9813 42.6032 79.8448 42.2747 79.8447 41.9316L79.8447 10.3066C79.8447 9.96363 79.9812 9.63424 80.2236 9.3916C80.4662 9.14906 80.7948 9.0127 81.1377 9.0127H86.6768C87.0197 9.0127 87.3482 9.14907 87.5908 9.3916C87.8332 9.63424 87.9697 9.96363 87.9697 10.3066V22.7012L99.3408 9.46289C99.4623 9.32068 99.6141 9.20704 99.7842 9.12891C99.954 9.05083 100.139 9.01053 100.326 9.01074L106.953 9.01074ZM22.7217 17.5488C22.7217 18.4617 22.6749 23.8467 22.5801 25.0732C22.4824 26.2979 22.3203 27.5529 22.0947 28.8379C21.8689 30.1088 21.5536 31.362 21.1523 32.5889C20.8043 33.702 20.2967 34.7587 19.6445 35.7256L31.334 35.7256L31.3428 15.6943H22.7217L22.7217 17.5488Z" fill="white"/>
<defs>
<filter id="filter0_ii_2067_19454" x="-1.24805" y="-1.56641" width="178.961" height="59.2725" filterUnits="userSpaceOnUse" color-interpolation-filters="sRGB">
<feFlood flood-opacity="0" result="BackgroundImageFix"/>
<feBlend mode="normal" in="SourceGraphic" in2="BackgroundImageFix" result="shape"/>
<feColorMatrix in="SourceAlpha" type="matrix" values="0 0 0 0 0 0 0 0 0 0 0 0 0 0 0 0 0 0 127 0" result="hardAlpha"/>
<feOffset dx="2" dy="2"/>
<feGaussianBlur stdDeviation="1"/>
<feComposite in2="hardAlpha" operator="arithmetic" k2="-1" k3="1"/>
<feColorMatrix type="matrix" values="0 0 0 0 0.288525 0 0 0 0 0.44 0 0 0 0 0.151475 0 0 0 1 0"/>
<feBlend mode="normal" in2="shape" result="effect1_innerShadow_2067_19454"/>
<feColorMatrix in="SourceAlpha" type="matrix" values="0 0 0 0 0 0 0 0 0 0 0 0 0 0 0 0 0 0 127 0" result="hardAlpha"/>
<feOffset dx="-2" dy="-2"/>
<feGaussianBlur stdDeviation="1"/>
<feComposite in2="hardAlpha" operator="arithmetic" k2="-1" k3="1"/>
<feColorMatrix type="matrix" values="0 0 0 0 0.0918033 0 0 0 0 0.14 0 0 0 0 0.0481967 0 0 0 1 0"/>
<feBlend mode="normal" in2="effect1_innerShadow_2067_19454" result="effect2_innerShadow_2067_19454"/>
</filter>
</defs>
</svg>
