<svg width="160" height="80" viewBox="0 0 160 80" fill="none" xmlns="http://www.w3.org/2000/svg">
    <g clip-path="url(#clip0_4019_23417)">
        <path
            d="M105.172 18C107.375 18 109.674 18.3497 111.835 19.2373C112.916 18.6926 114.137 18.3848 115.43 18.3848H120.134C121.087 18.3848 122.001 18.5525 122.849 18.8584C123.7 18.5518 124.613 18.3848 125.558 18.3848H132.182C136.6 18.3849 140.182 21.9666 140.182 26.3848V59.9844C140.182 64.4026 136.6 67.9842 132.182 67.9844H127.43C126.257 67.9844 125.144 67.7296 124.141 67.2764C123.13 67.7322 122.015 67.9843 120.854 67.9844H115.43C114.142 67.9844 112.927 67.6779 111.85 67.1377C109.677 68.0239 107.371 68.3681 105.172 68.3682C103.22 68.3681 101.197 68.0981 99.2568 67.4297C98.339 67.7897 97.3508 67.9843 96.3369 67.9844H90.9131C89.7182 67.9844 88.5684 67.7172 87.5303 67.2324C86.5021 67.7134 85.3556 67.9843 84.1455 67.9844H78.8652C78.3758 67.9844 77.8968 67.9377 77.4316 67.8535C76.9668 67.9376 76.4881 67.9844 75.999 67.9844H71.2471C70.0744 67.9844 68.9615 67.7297 67.958 67.2764C67.0131 67.7027 65.9765 67.9494 64.8955 67.9795C63.4916 70.2846 60.9549 71.824 58.0586 71.8242H52.6826C49.8477 71.8242 47.3594 70.348 45.9385 68.124C44.5176 70.3481 42.0292 71.8241 39.1943 71.8242H33.8184C29.4001 71.8242 25.8184 68.2425 25.8184 63.8242V55.1846C25.8184 52.909 26.7878 50.7412 28.4834 49.2236C29.1374 48.6383 29.876 48.1717 30.666 47.833V26.3848C30.666 21.9666 34.2479 18.385 38.666 18.3848H55.3701C56.0386 18.3848 56.6879 18.4685 57.3086 18.623C57.9293 18.4685 58.5785 18.3848 59.2471 18.3848H63.9512C64.9043 18.3848 65.8183 18.5525 66.666 18.8584C67.5174 18.5517 68.4307 18.3848 69.375 18.3848H75.999C76.4881 18.3848 76.9668 18.4315 77.4316 18.5156C77.8968 18.4314 78.3758 18.3848 78.8652 18.3848H84.1455C85.4027 18.3848 86.5919 18.6756 87.6504 19.1924C88.7217 18.6704 89.9155 18.3848 91.1533 18.3848H96.3369C97.3575 18.3848 98.3512 18.5808 99.2725 18.9443C101.202 18.2748 103.218 18 105.172 18ZM111.5 57.627C111.427 57.7285 111.351 57.8281 111.272 57.9248C111.43 57.7312 111.576 57.5276 111.713 57.3145L111.5 57.627ZM38.1025 54.2764C38.0596 54.3314 38.0158 54.384 37.9678 54.4316L38.0645 54.3271C38.078 54.3111 38.0894 54.2931 38.1025 54.2764ZM38.3076 53.9502C38.3223 53.9211 38.3368 53.8917 38.3506 53.8613C38.3368 53.8917 38.3223 53.9212 38.3076 53.9502ZM107.821 53.9199C107.847 53.846 107.868 53.7685 107.89 53.6885C107.868 53.7685 107.847 53.8459 107.821 53.9199ZM38.4385 53.6416C38.4199 53.6948 38.3998 53.7461 38.3789 53.7959C38.3997 53.746 38.4199 53.6948 38.4385 53.6416ZM38.4668 53.5586C38.4943 53.4717 38.5183 53.3805 38.54 53.2852C38.5182 53.3805 38.4943 53.4717 38.4668 53.5586ZM108.038 52.7031C108.023 52.9621 107.993 53.2011 107.951 53.4209C107.994 53.2012 108.023 52.9621 108.038 52.7031ZM38.5537 53.2227C38.5743 53.1249 38.5935 53.0233 38.6084 52.917C38.5935 53.0233 38.5744 53.1249 38.5537 53.2227ZM102.591 52.6953C102.594 52.7635 102.602 52.83 102.607 52.8955C102.602 52.8301 102.595 52.7635 102.592 52.6953L102.58 52.2568L102.591 52.6953ZM84.1445 41.0244L84.1455 41.0215L84.1445 26.3848V41.0244ZM97.3281 33.5176C97.3208 33.6389 97.3139 33.7616 97.3096 33.8857C97.3139 33.7616 97.3208 33.6389 97.3281 33.5176ZM108.039 33.6738C108.032 33.5435 108.019 33.4183 108.005 33.2979C108.019 33.4183 108.032 33.5435 108.039 33.6738ZM97.3691 32.9854C97.3547 33.1303 97.3429 33.2774 97.333 33.4268C97.3429 33.2778 97.3548 33.131 97.3691 32.9863V32.9854ZM107.995 33.2256C107.982 33.1257 107.967 33.0294 107.949 32.9365C107.967 33.0294 107.982 33.1257 107.995 33.2256ZM107.937 32.8701C107.928 32.83 107.919 32.7907 107.909 32.752C107.919 32.7907 107.928 32.83 107.937 32.8701ZM111.527 28.8174C111.504 28.7852 111.481 28.7533 111.457 28.7217C111.481 28.7533 111.504 28.7853 111.527 28.8174ZM111.313 28.5381C111.299 28.5208 111.287 28.5025 111.272 28.4854C111.263 28.474 111.253 28.4634 111.243 28.4521C111.267 28.4805 111.29 28.5093 111.313 28.5381ZM38.2344 54.0859C38.254 54.0532 38.2718 54.0191 38.29 53.9844C38.2718 54.019 38.254 54.0533 38.2344 54.0859ZM38.1533 54.21L38.1523 54.2129C38.1366 54.235 38.119 54.2553 38.1025 54.2764C38.1196 54.2546 38.137 54.2329 38.1533 54.21Z"
            fill="#6AA338" />
        <g filter="url(#filter0_ii_4019_23417)">
            <path
                d="M99.1719 12C101.375 12 103.674 12.3498 105.835 13.2373C106.916 12.6926 108.137 12.3848 109.43 12.3848H114.134C115.087 12.3848 116.001 12.5526 116.849 12.8584C117.7 12.5517 118.613 12.3848 119.558 12.3848H126.182C130.6 12.3848 134.182 15.9665 134.182 20.3848V53.9844C134.182 58.4026 130.6 61.9844 126.182 61.9844H121.43C120.257 61.9843 119.144 61.7297 118.141 61.2764C117.13 61.7321 116.015 61.9844 114.854 61.9844H109.43C108.142 61.9843 106.927 61.6779 105.85 61.1377C103.677 62.0238 101.371 62.3682 99.1719 62.3682C97.2198 62.3681 95.197 62.0981 93.2568 61.4297C92.339 61.7896 91.3508 61.9844 90.3369 61.9844H84.9131C83.7182 61.9843 82.5683 61.7172 81.5303 61.2324C80.5021 61.7134 79.3556 61.9843 78.1455 61.9844H72.8652C72.3758 61.9844 71.8968 61.9377 71.4316 61.8535C70.9668 61.9376 70.4881 61.9844 69.999 61.9844H65.2471C64.0744 61.9843 62.9615 61.7297 61.958 61.2764C61.0131 61.7027 59.9765 61.9494 58.8955 61.9795C57.4915 64.2846 54.955 65.8241 52.0586 65.8242H46.6826C43.8478 65.8241 41.3594 64.348 39.9385 62.124C38.5175 64.3481 36.0293 65.8242 33.1943 65.8242H27.8184C23.4002 65.8241 19.8184 62.2424 19.8184 57.8242V49.1846C19.8184 46.9091 20.7879 44.7412 22.4834 43.2236C23.1374 42.6383 23.8761 42.1717 24.666 41.833V20.3848C24.666 15.9667 28.248 12.3851 32.666 12.3848H49.3701C50.0386 12.3848 50.6879 12.4686 51.3086 12.623C51.9293 12.4685 52.5785 12.3848 53.2471 12.3848H57.9512C58.9043 12.3848 59.8183 12.5526 60.666 12.8584C61.5174 12.5517 62.4307 12.3848 63.375 12.3848H69.999C70.4881 12.3848 70.9668 12.4316 71.4316 12.5156C71.8968 12.4314 72.3758 12.3848 72.8652 12.3848H78.1455C79.4027 12.3848 80.5919 12.6756 81.6504 13.1924C82.7217 12.6704 83.9155 12.3848 85.1533 12.3848H90.3369C91.3574 12.3848 92.3512 12.5808 93.2725 12.9443C95.2022 12.2748 97.2182 12.0001 99.1719 12ZM96.9248 54.1572H96.9258H96.9248ZM31.7539 48.6084C31.6819 48.6604 31.6082 48.7094 31.5322 48.7549C31.4562 48.8004 31.3779 48.8419 31.2979 48.8809L31.2988 48.8818C31.4588 48.8038 31.6109 48.7124 31.7549 48.6084C31.7926 48.5826 31.8289 48.5547 31.8643 48.5254C31.8287 48.5548 31.7918 48.5825 31.7539 48.6084ZM101.954 47.4053C101.968 47.3316 101.98 47.2558 101.991 47.1777C101.98 47.2558 101.968 47.3316 101.954 47.4053ZM32.5771 47.1152L32.6094 46.916C32.6109 46.9054 32.6109 46.8945 32.6123 46.8838C32.6017 46.9632 32.5909 47.0405 32.5771 47.1152ZM102.007 47.0625C102.018 46.97 102.025 46.8747 102.032 46.7764C102.025 46.8747 102.018 46.97 102.007 47.0625ZM32.6445 46.5732C32.6582 46.3976 32.667 46.2122 32.667 46.0166V20.3848H32.666V46.0166C32.666 46.2121 32.658 46.3976 32.6445 46.5732ZM91.3076 27.9453C91.3025 28.1104 91.2998 28.2781 91.2998 28.4482V45.9199C91.2998 46.1747 91.3058 46.4241 91.3174 46.668L91.3047 46.2979C91.3019 46.1732 91.3008 46.0472 91.3008 45.9199V28.4482C91.3008 28.2478 91.3045 28.0509 91.3115 27.8574C91.3104 27.8867 91.3085 27.9159 91.3076 27.9453ZM102.052 46.2568C102.052 46.3989 102.048 46.5359 102.041 46.668C102.048 46.5359 102.053 46.3989 102.053 46.2568V41.4561H102.052V46.2568ZM91.3438 27.2959C91.3328 27.4403 91.3241 27.5868 91.3174 27.7354C91.324 27.5868 91.3329 27.4403 91.3438 27.2959ZM91.3984 26.7324C91.382 26.87 91.3677 27.0097 91.3555 27.1514C91.3677 27.0097 91.382 26.87 91.3984 26.7324ZM91.4922 26.0859C91.4624 26.2544 91.4369 26.4263 91.4141 26.6016C91.4369 26.4263 91.4624 26.2544 91.4922 26.0859ZM32.6191 46.8291C32.6282 46.7555 32.6362 46.68 32.6426 46.6025C32.6363 46.6801 32.6281 46.7555 32.6191 46.8291Z"
                fill="#283D15" />
        </g>
        <path
            d="M27.8174 49.1844C28.1054 49.2164 28.4094 49.2324 28.7294 49.2324C29.0494 49.2324 29.3534 49.2324 29.6414 49.2324C30.4734 49.2324 31.1774 49.0244 31.7534 48.6084C32.3614 48.1924 32.6654 47.3284 32.6654 46.0164V20.3844H49.3694V49.1844H52.0574V57.8244H46.6814V53.9844H33.1934V57.8244H27.8174V49.1844ZM37.9454 45.6324C37.9454 47.0404 37.8014 48.2244 37.5134 49.1844H44.0894V25.1844H37.9454V45.6324ZM58.6701 53.9844H53.2461V20.3844H57.9501V40.4964L63.3741 20.3844H69.9981V53.9844H65.2461V29.6484L58.6701 53.9844ZM79.7763 40.5924L78.1443 43.6644V53.9844H72.8643V20.3844H78.1443V35.0244L85.1523 20.3844H90.3363L82.9923 35.3604L90.3363 53.9844H84.9123L79.7763 40.5924ZM107.043 41.4564V45.9204C107.043 48.6404 106.371 50.7364 105.027 52.2084C103.715 53.6484 101.763 54.3684 99.1713 54.3684C96.5793 54.3684 94.6113 53.6484 93.2673 52.2084C91.9553 50.7364 91.2993 48.6404 91.2993 45.9204V28.4484C91.2993 25.7284 91.9553 23.6484 93.2673 22.2084C94.6113 20.7364 96.5793 20.0004 99.1713 20.0004C101.763 20.0004 103.715 20.7364 105.027 22.2084C106.371 23.6484 107.043 25.7284 107.043 28.4484V31.7124H102.051V28.1124C102.051 26.8964 101.795 26.0484 101.283 25.5684C100.803 25.0564 100.147 24.8004 99.3153 24.8004C98.4833 24.8004 97.8113 25.0564 97.2993 25.5684C96.8193 26.0484 96.5793 26.8964 96.5793 28.1124V46.2564C96.5793 47.4724 96.8193 48.3204 97.2993 48.8004C97.8113 49.2804 98.4833 49.5204 99.3153 49.5204C100.147 49.5204 100.803 49.2804 101.283 48.8004C101.795 48.3204 102.051 47.4724 102.051 46.2564V41.4564H107.043ZM114.853 53.9844H109.429V20.3844H114.133V40.4964L119.557 20.3844H126.181V53.9844H121.429V29.6484L114.853 53.9844Z"
            fill="white" />
    </g>
    <defs>
        <filter id="filter0_ii_4019_23417" x="17.8184" y="10" width="118.363" height="57.8242"
            filterUnits="userSpaceOnUse" color-interpolation-filters="sRGB">
            <feFlood flood-opacity="0" result="BackgroundImageFix" />
            <feBlend mode="normal" in="SourceGraphic" in2="BackgroundImageFix" result="shape" />
            <feColorMatrix in="SourceAlpha" type="matrix" values="0 0 0 0 0 0 0 0 0 0 0 0 0 0 0 0 0 0 127 0"
                result="hardAlpha" />
            <feOffset dx="-2" dy="-2" />
            <feGaussianBlur stdDeviation="2" />
            <feComposite in2="hardAlpha" operator="arithmetic" k2="-1" k3="1" />
            <feColorMatrix type="matrix" values="0 0 0 0 0.0901961 0 0 0 0 0.141176 0 0 0 0 0.0470588 0 0 0 1 0" />
            <feBlend mode="normal" in2="shape" result="effect1_innerShadow_4019_23417" />
            <feColorMatrix in="SourceAlpha" type="matrix" values="0 0 0 0 0 0 0 0 0 0 0 0 0 0 0 0 0 0 127 0"
                result="hardAlpha" />
            <feOffset dx="2" dy="2" />
            <feGaussianBlur stdDeviation="1" />
            <feComposite in2="hardAlpha" operator="arithmetic" k2="-1" k3="1" />
            <feColorMatrix type="matrix" values="0 0 0 0 0.290196 0 0 0 0 0.439216 0 0 0 0 0.152941 0 0 0 1 0" />
            <feBlend mode="normal" in2="effect1_innerShadow_4019_23417" result="effect2_innerShadow_4019_23417" />
        </filter>
        <clipPath id="clip0_4019_23417">
            <rect width="160" height="80" fill="white" />
        </clipPath>
    </defs>
</svg>