<svg width="145" height="85" viewBox="0 0 145 85" fill="none" xmlns="http://www.w3.org/2000/svg">
<path d="M97.4844 18.6377C99.6879 18.6377 101.986 18.9874 104.147 19.875C105.228 19.3303 106.449 19.0225 107.742 19.0225L112.446 19.0225C113.399 19.0225 114.313 19.1902 115.161 19.4961C116.013 19.1895 116.926 19.0225 117.87 19.0225L124.494 19.0225C128.912 19.0226 132.494 22.6043 132.494 27.0225V60.6221C132.494 65.0402 128.912 68.6219 124.494 68.6221L119.742 68.6221C118.57 68.6221 117.457 68.3673 116.453 67.9141C115.443 68.3699 114.328 68.622 113.166 68.6221L107.742 68.6221C106.455 68.6221 105.239 68.3156 104.162 67.7754C101.989 68.6616 99.6839 69.0058 97.4844 69.0059C95.5323 69.0058 93.5095 68.7358 91.5693 68.0674C90.6515 68.4274 89.6633 68.622 88.6494 68.6221L83.2256 68.6221C82.0307 68.622 80.8809 68.3549 79.8428 67.8701C78.8146 68.3511 77.6681 68.622 76.458 68.6221H71.1777C70.6883 68.6221 70.2093 68.5754 69.7441 68.4912C69.2793 68.5753 68.8006 68.6221 68.3115 68.6221H63.5596C62.3869 68.6221 61.274 68.3674 60.2705 67.9141C59.3256 68.3404 58.289 68.5871 57.208 68.6172C55.8041 70.9223 53.2674 72.4617 50.3711 72.4619L44.9951 72.4619C42.1602 72.4619 39.6719 70.9857 38.251 68.7617C36.8301 70.9858 34.3417 72.4618 31.5068 72.4619H26.1309C21.7126 72.4619 18.1309 68.8802 18.1309 64.4619V55.8223C18.1309 53.5467 19.1003 51.3789 20.7959 49.8613C21.4499 49.276 22.1885 48.8094 22.9785 48.4707L22.9785 27.0225C22.9785 22.6043 26.5604 19.0226 30.9785 19.0225L47.6826 19.0225C48.3511 19.0225 49.0004 19.1062 49.6211 19.2607C50.2418 19.1062 50.891 19.0225 51.5596 19.0225H56.2637C57.2168 19.0225 58.1308 19.1902 58.9785 19.4961C59.8299 19.1894 60.7432 19.0225 61.6875 19.0225L68.3115 19.0225C68.8006 19.0225 69.2793 19.0692 69.7441 19.1533C70.2093 19.0691 70.6883 19.0225 71.1777 19.0225L76.458 19.0225C77.7152 19.0225 78.9044 19.3133 79.9629 19.8301C81.0342 19.3081 82.228 19.0225 83.4658 19.0225H88.6494C89.67 19.0225 90.6637 19.2185 91.585 19.582C93.5147 18.9125 95.5307 18.6377 97.4844 18.6377ZM103.812 58.2646C103.739 58.3662 103.664 58.4658 103.585 58.5625C103.742 58.3689 103.889 58.1653 104.025 57.9521L103.812 58.2646ZM30.415 54.9141C30.3721 54.9691 30.3283 55.0217 30.2803 55.0693L30.377 54.9648C30.3905 54.9488 30.4019 54.9308 30.415 54.9141ZM30.6201 54.5879C30.6348 54.5588 30.6493 54.5294 30.6631 54.499C30.6493 54.5294 30.6348 54.5589 30.6201 54.5879ZM100.134 54.5576C100.159 54.4836 100.181 54.4062 100.202 54.3262C100.181 54.4062 100.159 54.4836 100.134 54.5576ZM30.751 54.2793C30.7324 54.3325 30.7123 54.3838 30.6914 54.4336C30.7122 54.3837 30.7324 54.3325 30.751 54.2793ZM30.7793 54.1963C30.8068 54.1094 30.8308 54.0182 30.8525 53.9229C30.8307 54.0182 30.8068 54.1094 30.7793 54.1963ZM100.351 53.3408C100.336 53.5998 100.306 53.8388 100.264 54.0586C100.306 53.8389 100.335 53.5998 100.351 53.3408ZM30.8662 53.8604C30.8868 53.7626 30.906 53.6609 30.9209 53.5547C30.906 53.661 30.8869 53.7626 30.8662 53.8604ZM94.9033 53.333C94.907 53.4012 94.9145 53.4677 94.9199 53.5332C94.9145 53.4678 94.9079 53.4011 94.9043 53.333L94.8926 52.8945L94.9033 53.333ZM76.457 41.6621L76.458 41.6592L76.457 27.0225V41.6621ZM89.6406 34.1553C89.6333 34.2766 89.6264 34.3993 89.6221 34.5234C89.6264 34.3993 89.6333 34.2766 89.6406 34.1553ZM100.352 34.3115C100.344 34.1812 100.332 34.056 100.317 33.9355C100.332 34.056 100.344 34.1812 100.352 34.3115ZM89.6816 33.623C89.6672 33.768 89.6554 33.9151 89.6455 34.0645C89.6554 33.9155 89.6673 33.7687 89.6816 33.624L89.6816 33.623ZM100.308 33.8633C100.295 33.7634 100.28 33.6671 100.262 33.5742C100.28 33.667 100.294 33.7634 100.308 33.8633ZM100.249 33.5078C100.241 33.4677 100.231 33.4284 100.222 33.3896C100.231 33.4284 100.241 33.4677 100.249 33.5078ZM103.84 29.4551C103.817 29.4229 103.793 29.391 103.77 29.3594C103.793 29.391 103.817 29.4229 103.84 29.4551ZM103.626 29.1758C103.612 29.1585 103.599 29.1402 103.585 29.123C103.576 29.1117 103.565 29.1011 103.556 29.0898C103.579 29.1182 103.603 29.147 103.626 29.1758ZM30.5469 54.7236C30.5665 54.6909 30.5843 54.6567 30.6025 54.6221C30.5843 54.6567 30.5665 54.691 30.5469 54.7236ZM30.4658 54.8477L30.4648 54.8506C30.4491 54.8727 30.4315 54.893 30.415 54.9141C30.4321 54.8923 30.4495 54.8706 30.4658 54.8477Z" fill="#6AA338"/>
<g filter="url(#filter0_ii_4002_23107)">
<path d="M91.4844 12.6377C93.6879 12.6377 95.986 12.9875 98.1475 13.875C99.2283 13.3303 100.449 13.0225 101.742 13.0225L106.446 13.0225C107.399 13.0225 108.313 13.1903 109.161 13.4961C110.013 13.1894 110.926 13.0225 111.87 13.0225L118.494 13.0225C122.912 13.0225 126.494 16.6042 126.494 21.0225V54.6221C126.494 59.0403 122.912 62.6221 118.494 62.6221H113.742C112.57 62.622 111.457 62.3674 110.453 61.9141C109.443 62.3698 108.328 62.6221 107.166 62.6221L101.742 62.6221C100.455 62.622 99.2394 62.3156 98.1621 61.7754C95.989 62.6615 93.6839 63.0059 91.4844 63.0059C89.5323 63.0058 87.5095 62.7358 85.5693 62.0674C84.6515 62.4273 83.6633 62.6221 82.6494 62.6221L77.2256 62.6221C76.0307 62.622 74.8808 62.3549 73.8428 61.8701C72.8146 62.3511 71.6681 62.622 70.458 62.6221H65.1777C64.6883 62.6221 64.2093 62.5754 63.7441 62.4912C63.2793 62.5753 62.8006 62.6221 62.3115 62.6221H57.5596C56.3869 62.622 55.274 62.3674 54.2705 61.9141C53.3256 62.3404 52.289 62.5871 51.208 62.6172C49.804 64.9223 47.2675 66.4618 44.3711 66.4619L38.9951 66.4619C36.1603 66.4618 33.6719 64.9857 32.251 62.7617C30.83 64.9858 28.3418 66.4619 25.5068 66.4619H20.1309C15.7127 66.4617 12.1309 62.8801 12.1309 58.4619V49.8223C12.1309 47.5468 13.1004 45.3789 14.7959 43.8613C15.4499 43.276 16.1886 42.8094 16.9785 42.4707V21.0225C16.9785 16.6044 20.5605 13.0228 24.9785 13.0225L41.6826 13.0225C42.3511 13.0225 43.0004 13.1063 43.6211 13.2607C44.2418 13.1062 44.891 13.0225 45.5596 13.0225H50.2637C51.2168 13.0225 52.1308 13.1903 52.9785 13.4961C53.8299 13.1894 54.7432 13.0225 55.6875 13.0225L62.3115 13.0225C62.8006 13.0225 63.2793 13.0693 63.7441 13.1533C64.2093 13.0691 64.6883 13.0225 65.1777 13.0225L70.458 13.0225C71.7152 13.0225 72.9044 13.3133 73.9629 13.8301C75.0342 13.3081 76.228 13.0225 77.4658 13.0225H82.6494C83.6699 13.0225 84.6637 13.2185 85.585 13.582C87.5147 12.9125 89.5307 12.6378 91.4844 12.6377ZM89.2373 54.7949L89.2383 54.7949L89.2373 54.7949ZM24.0664 49.2461C23.9944 49.2981 23.9207 49.3471 23.8447 49.3926C23.7687 49.4381 23.6904 49.4796 23.6104 49.5186L23.6113 49.5195C23.7713 49.4415 23.9234 49.3501 24.0674 49.2461C24.1051 49.2203 24.1414 49.1924 24.1768 49.1631C24.1412 49.1925 24.1043 49.2202 24.0664 49.2461ZM94.2666 48.043C94.2805 47.9693 94.2928 47.8935 94.3037 47.8154C94.2929 47.8935 94.2805 47.9693 94.2666 48.043ZM24.8896 47.7529L24.9219 47.5537C24.9234 47.5431 24.9234 47.5322 24.9248 47.5215C24.9142 47.6009 24.9034 47.6782 24.8896 47.7529ZM94.3193 47.7002C94.3302 47.6077 94.3379 47.5124 94.3447 47.4141C94.338 47.5123 94.3301 47.6077 94.3193 47.7002ZM24.957 47.2109C24.9707 47.0353 24.9795 46.8499 24.9795 46.6543V21.0225L24.9785 21.0225V46.6543C24.9785 46.8498 24.9705 47.0353 24.957 47.2109ZM83.6201 28.583C83.615 28.7481 83.6123 28.9158 83.6123 29.0859V46.5576C83.6123 46.8124 83.6183 47.0618 83.6299 47.3057L83.6172 46.9355C83.6144 46.8109 83.6133 46.6849 83.6133 46.5576V29.0859C83.6133 28.8855 83.617 28.6886 83.624 28.4951C83.6229 28.5243 83.621 28.5536 83.6201 28.583ZM94.3643 46.8945C94.3643 47.0366 94.3605 47.1736 94.3535 47.3057C94.3606 47.1736 94.3652 47.0366 94.3652 46.8945V42.0938L94.3643 42.0938V46.8945ZM83.6562 27.9336C83.6453 28.078 83.6366 28.2245 83.6299 28.373C83.6365 28.2245 83.6454 28.078 83.6562 27.9336ZM83.7109 27.3701C83.6945 27.5077 83.6802 27.6474 83.668 27.7891C83.6802 27.6474 83.6945 27.5077 83.7109 27.3701ZM83.8047 26.7236C83.7749 26.8921 83.7494 27.064 83.7266 27.2393C83.7494 27.064 83.7749 26.8921 83.8047 26.7236ZM24.9316 47.4668C24.9407 47.3932 24.9487 47.3177 24.9551 47.2402C24.9488 47.3178 24.9406 47.3932 24.9316 47.4668Z" fill="#283D15"/>
</g>
<path d="M20.1309 49.8221C20.4189 49.8541 20.7229 49.8701 21.0429 49.8701C21.3629 49.8701 21.6669 49.8701 21.9549 49.8701C22.7869 49.8701 23.4909 49.6621 24.0669 49.2461C24.6749 48.8301 24.9789 47.9661 24.9789 46.6541V21.0221H41.6829V49.8221H44.3709V58.4621H38.9949V54.6221H25.5069V58.4621H20.1309V49.8221ZM30.2589 46.2701C30.2589 47.6781 30.1149 48.8621 29.8269 49.8221H36.4029V25.8221H30.2589V46.2701ZM50.9836 54.6221H45.5596V21.0221H50.2636V41.1341L55.6876 21.0221H62.3116V54.6221H57.5596V30.2861L50.9836 54.6221ZM72.0897 41.2301L70.4577 44.3021V54.6221H65.1777V21.0221H70.4577V35.6621L77.4657 21.0221H82.6497L75.3057 35.9981L82.6497 54.6221H77.2257L72.0897 41.2301ZM99.3567 42.0941V46.5581C99.3567 49.2781 98.6847 51.3741 97.3407 52.8461C96.0287 54.2861 94.0767 55.0061 91.4847 55.0061C88.8927 55.0061 86.9247 54.2861 85.5807 52.8461C84.2687 51.3741 83.6127 49.2781 83.6127 46.5581V29.0861C83.6127 26.3661 84.2687 24.2861 85.5807 22.8461C86.9247 21.3741 88.8927 20.6381 91.4847 20.6381C94.0767 20.6381 96.0287 21.3741 97.3407 22.8461C98.6847 24.2861 99.3567 26.3661 99.3567 29.0861V32.3501H94.3647V28.7501C94.3647 27.5341 94.1087 26.6861 93.5967 26.2061C93.1167 25.6941 92.4607 25.4381 91.6287 25.4381C90.7967 25.4381 90.1247 25.6941 89.6127 26.2061C89.1327 26.6861 88.8927 27.5341 88.8927 28.7501V46.8941C88.8927 48.1101 89.1327 48.9581 89.6127 49.4381C90.1247 49.9181 90.7967 50.1581 91.6287 50.1581C92.4607 50.1581 93.1167 49.9181 93.5967 49.4381C94.1087 48.9581 94.3647 48.1101 94.3647 46.8941V42.0941H99.3567ZM107.166 54.6221H101.742V21.0221H106.446V41.1341L111.87 21.0221H118.494V54.6221H113.742V30.2861L107.166 54.6221Z" fill="white"/>
<defs>
<filter id="filter0_ii_4002_23107" x="10.1309" y="10.6377" width="118.363" height="57.8242" filterUnits="userSpaceOnUse" color-interpolation-filters="sRGB">
<feFlood flood-opacity="0" result="BackgroundImageFix"/>
<feBlend mode="normal" in="SourceGraphic" in2="BackgroundImageFix" result="shape"/>
<feColorMatrix in="SourceAlpha" type="matrix" values="0 0 0 0 0 0 0 0 0 0 0 0 0 0 0 0 0 0 127 0" result="hardAlpha"/>
<feOffset dx="-2" dy="-2"/>
<feGaussianBlur stdDeviation="2"/>
<feComposite in2="hardAlpha" operator="arithmetic" k2="-1" k3="1"/>
<feColorMatrix type="matrix" values="0 0 0 0 0.0901961 0 0 0 0 0.141176 0 0 0 0 0.0470588 0 0 0 1 0"/>
<feBlend mode="normal" in2="shape" result="effect1_innerShadow_4002_23107"/>
<feColorMatrix in="SourceAlpha" type="matrix" values="0 0 0 0 0 0 0 0 0 0 0 0 0 0 0 0 0 0 127 0" result="hardAlpha"/>
<feOffset dx="2" dy="2"/>
<feGaussianBlur stdDeviation="1"/>
<feComposite in2="hardAlpha" operator="arithmetic" k2="-1" k3="1"/>
<feColorMatrix type="matrix" values="0 0 0 0 0.290196 0 0 0 0 0.439216 0 0 0 0 0.152941 0 0 0 1 0"/>
<feBlend mode="normal" in2="effect1_innerShadow_4002_23107" result="effect2_innerShadow_4002_23107"/>
</filter>
</defs>
</svg>
