<svg width="32" height="32" viewBox="0 0 32 32" fill="none" xmlns="http://www.w3.org/2000/svg">
    <g filter="url(#filter0_ii_4010_23315)">
        <path
            d="M13.9965 2.70511C15.0363 1.44827 16.9632 1.44827 18.003 2.70511V2.70511C18.7082 3.55751 19.8756 3.8703 20.9125 3.4847V3.4847C22.4414 2.91614 24.1102 3.87959 24.3822 5.48795V5.48795C24.5668 6.57875 25.4213 7.43331 26.5121 7.61783V7.61783C28.1205 7.88989 29.0839 9.55865 28.5154 11.0876V11.0876C28.1298 12.1245 28.4426 13.2918 29.295 13.997V13.997C30.5518 15.0368 30.5518 16.9637 29.295 18.0035V18.0035C28.4426 18.7087 28.1298 19.8761 28.5154 20.913V20.913C29.0839 22.4419 28.1205 24.1107 26.5121 24.3827V24.3827C25.4213 24.5672 24.5668 25.4218 24.3822 26.5126V26.5126C24.1102 28.121 22.4414 29.0844 20.9125 28.5159V28.5159C19.8756 28.1303 18.7082 28.443 18.003 29.2954V29.2954C16.9632 30.5523 15.0363 30.5523 13.9965 29.2954V29.2954C13.2913 28.443 12.124 28.1303 11.0871 28.5159V28.5159C9.55816 29.0844 7.88941 28.121 7.61734 26.5126V26.5126C7.43283 25.4218 6.57826 24.5672 5.48746 24.3827V24.3827C3.87911 24.1107 2.91565 22.4419 3.48421 20.913V20.913C3.86982 19.8761 3.55702 18.7087 2.70462 18.0035V18.0035C1.44778 16.9637 1.44778 15.0368 2.70462 13.997V13.997C3.55702 13.2918 3.86982 12.1245 3.48421 11.0876V11.0876C2.91565 9.55865 3.87911 7.88989 5.48746 7.61783V7.61783C6.57826 7.43331 7.43283 6.57875 7.61734 5.48795V5.48795C7.88941 3.87959 9.55816 2.91614 11.0871 3.4847V3.4847C12.124 3.8703 13.2913 3.55751 13.9965 2.70511V2.70511Z"
            fill="#009EE3" />
    </g>
    <defs>
        <filter id="filter0_ii_4010_23315" x="0.975889" y="0.976866" width="30.0472" height="30.0472"
            filterUnits="userSpaceOnUse" color-interpolation-filters="sRGB">
            <feFlood flood-opacity="0" result="BackgroundImageFix" />
            <feBlend mode="normal" in="SourceGraphic" in2="BackgroundImageFix" result="shape" />
            <feColorMatrix in="SourceAlpha" type="matrix" values="0 0 0 0 0 0 0 0 0 0 0 0 0 0 0 0 0 0 127 0"
                result="hardAlpha" />
            <feOffset dx="0.785829" dy="0.785829" />
            <feGaussianBlur stdDeviation="0.785829" />
            <feComposite in2="hardAlpha" operator="arithmetic" k2="-1" k3="1" />
            <feColorMatrix type="matrix" values="0 0 0 0 0.3 0 0 0 0 0.790308 0 0 0 0 1 0 0 0 1 0" />
            <feBlend mode="normal" in2="shape" result="effect1_innerShadow_4010_23315" />
            <feColorMatrix in="SourceAlpha" type="matrix" values="0 0 0 0 0 0 0 0 0 0 0 0 0 0 0 0 0 0 127 0"
                result="hardAlpha" />
            <feOffset dx="-0.785829" dy="-0.785829" />
            <feGaussianBlur stdDeviation="0.785829" />
            <feComposite in2="hardAlpha" operator="arithmetic" k2="-1" k3="1" />
            <feColorMatrix type="matrix" values="0 0 0 0 0 0 0 0 0 0.483304 0 0 0 0 0.69 0 0 0 1 0" />
            <feBlend mode="normal" in2="effect1_innerShadow_4010_23315" result="effect2_innerShadow_4010_23315" />
        </filter>
    </defs>
</svg>