<svg width="363" height="129" viewBox="0 0 363 129" fill="none" xmlns="http://www.w3.org/2000/svg">
<path d="M82.7681 13.5884C84.4074 13.5884 86.0966 13.8541 87.6821 14.5083C88.4777 14.1005 89.379 13.8687 90.3345 13.8687H96.1343C97.6182 13.8687 99.2905 14.0512 100.905 14.6362C101.756 14.1485 102.743 13.8687 103.794 13.8687L107.637 13.8687C108.554 13.8687 109.421 14.0813 110.192 14.4585C110.971 14.0792 111.839 13.8687 112.739 13.8687H116.511C117.187 13.8687 117.847 13.9889 118.465 14.2095C119.08 13.9893 119.741 13.8687 120.426 13.8687H126.051C128.054 13.8688 129.847 14.8877 130.899 16.4673C131.943 14.9009 133.725 13.8687 135.749 13.8687L145.915 13.8687C146.09 13.8687 146.264 13.8779 146.435 13.8931C146.607 13.8778 146.781 13.8687 146.957 13.8687L157.438 13.8687C157.706 13.8687 157.969 13.8884 158.227 13.9233C158.486 13.8882 158.75 13.8687 159.018 13.8687H164.678C166.027 13.8687 167.458 14.0381 168.846 14.4858C169.631 14.0919 170.517 13.8687 171.455 13.8687L176.8 13.8687L177.067 13.8745C177.947 13.9145 178.782 14.1517 179.525 14.5454C180.342 14.1122 181.271 13.8687 182.25 13.8687L187.595 13.8687C187.953 13.8687 188.303 13.9026 188.643 13.9644C188.983 13.9025 189.334 13.8687 189.692 13.8687L200.172 13.8687C200.261 13.8687 200.35 13.8715 200.438 13.8755C200.526 13.8715 200.615 13.8687 200.705 13.8687L212.583 13.8687C212.762 13.8687 212.939 13.8773 213.114 13.8931C213.288 13.8773 213.465 13.8687 213.644 13.8687L217.068 13.8687C217.762 13.8687 218.427 13.9906 219.044 14.2134C219.664 13.9904 220.328 13.8687 221.015 13.8687L225.836 13.8687C226.041 13.8687 226.244 13.8793 226.443 13.8999C226.642 13.8793 226.845 13.8687 227.049 13.8687H230.893C231.592 13.8687 232.263 13.9922 232.884 14.2183C233.505 13.9923 234.176 13.8687 234.875 13.8687L238.718 13.8687C239.074 13.8687 239.422 13.9023 239.76 13.9634C240.099 13.9022 240.447 13.8687 240.803 13.8687H244.646C245.418 13.8687 246.155 14.0204 246.83 14.2935C247.504 14.0204 248.241 13.8687 249.013 13.8687H252.926C253.812 13.8687 254.65 14.0678 255.402 14.4214C256.157 14.0661 256.998 13.8687 257.879 13.8687H263.503C266.364 13.8688 268.801 15.9465 269.253 18.771L273.167 43.2271C273.436 44.9105 272.953 46.628 271.847 47.9253C271.542 48.2835 271.196 48.5985 270.821 48.8687H281.473C281.652 48.8687 281.829 48.8763 282.003 48.8921C282.178 48.8763 282.355 48.8687 282.534 48.8687H288.194C289.543 48.8687 290.974 49.0372 292.362 49.4849C293.146 49.091 294.032 48.8687 294.97 48.8687H298.394C299.088 48.8687 299.754 48.9898 300.371 49.2124C300.99 48.9894 301.655 48.8687 302.342 48.8687H307.164C310.379 48.8689 312.986 51.4755 312.986 54.6909V59.5239H347.515C350.731 59.5242 353.337 62.1316 353.337 65.3472V68.4917C353.337 71.7072 350.731 74.3137 347.515 74.314H312.986V79.147C312.986 82.3627 310.379 84.97 307.164 84.9702H303.705C302.851 84.9702 302.041 84.7847 301.31 84.4546C300.575 84.7861 299.764 84.9701 298.918 84.9702H294.97C293.269 84.9701 291.738 84.2395 290.673 83.0757C289.609 84.2393 288.078 84.9701 286.376 84.9702H282.534C281.623 84.9702 280.762 84.7606 279.995 84.3882C279.227 84.7606 278.366 84.9702 277.456 84.9702H273.613C270.746 84.9702 268.364 82.8981 267.88 80.1704C267.267 81.1977 266.447 82.2632 265.332 83.1255C265.287 83.1599 265.241 83.1939 265.196 83.2271C263.855 84.2021 262.279 84.8151 260.557 84.9507L260.558 84.9517C259.791 85.013 258.979 85.0395 258.137 85.0396H257.195C256.596 85.0396 256.014 84.9905 255.462 84.9116C255.208 84.8753 254.959 84.8219 254.717 84.7544C254.219 84.8935 253.693 84.9702 253.15 84.9702H249.237C248.464 84.9702 247.728 84.8176 247.053 84.5444C246.379 84.8174 245.642 84.9702 244.87 84.9702H241.027C239.997 84.9702 239.03 84.701 238.191 84.2319C237.482 84.4823 236.761 84.6597 236.041 84.7769C237.127 85.3042 238.153 86.0294 239.067 86.9956C239.076 87.0049 239.085 87.0146 239.094 87.0239C239.1 87.0301 239.106 87.0363 239.112 87.0425H239.111C241.443 89.5121 242.183 92.6574 242.183 95.5601V108.278C242.183 111.208 241.431 114.35 239.112 116.831C239.097 116.846 239.082 116.862 239.068 116.877C236.663 119.394 233.5 120.249 230.526 120.25C228.887 120.25 227.191 119.988 225.596 119.333C224.803 119.739 223.905 119.97 222.953 119.97H219.04C218.267 119.97 217.53 119.818 216.856 119.544C216.182 119.817 215.445 119.97 214.672 119.97H210.83C210.562 119.97 210.298 119.95 210.04 119.915C209.781 119.95 209.517 119.97 209.25 119.97H198.768C197.067 119.97 195.536 119.239 194.471 118.076C193.407 119.239 191.876 119.97 190.174 119.97H186.332C186.063 119.97 185.799 119.95 185.541 119.915C185.283 119.95 185.019 119.97 184.751 119.97H174.27C173.24 119.97 172.273 119.701 171.434 119.232C169.918 119.768 168.342 119.97 166.854 119.97H160.81C159.859 119.97 158.961 119.74 158.168 119.335C156.575 119.988 154.881 120.249 153.245 120.25C150.271 120.25 147.108 119.394 144.703 116.877C144.688 116.862 144.673 116.846 144.659 116.831C144.587 116.753 144.516 116.676 144.447 116.597C143.522 118.588 141.506 119.97 139.166 119.97H135.323C134.966 119.97 134.617 119.935 134.278 119.874C133.939 119.935 133.591 119.97 133.235 119.97L129.322 119.97C128.549 119.97 127.813 119.818 127.138 119.544C126.464 119.818 125.727 119.97 124.955 119.97H121.112C119.84 119.97 118.663 119.56 117.706 118.868C116.748 119.56 115.572 119.97 114.299 119.97H110.84C109.987 119.97 109.176 119.785 108.446 119.455C107.711 119.786 106.9 119.97 106.054 119.97H102.106C100.223 119.97 98.5501 119.075 97.4858 117.689C95.2165 119.58 92.4422 120.249 89.8149 120.25C88.1763 120.25 86.4804 119.988 84.8853 119.333C84.0917 119.739 83.1938 119.97 82.2417 119.97H78.3286C77.5562 119.97 76.8195 119.818 76.145 119.544C75.4707 119.817 74.7337 119.97 73.9614 119.97H70.1187C69.2084 119.97 68.347 119.761 67.5796 119.388C66.8123 119.761 65.9507 119.97 65.0405 119.97H61.1978C59.703 119.97 58.3401 119.406 57.3091 118.48C55.2771 119.783 52.9482 120.249 50.7622 120.25C49.2461 120.25 47.6711 120.026 46.1733 119.464C45.4487 119.788 44.6462 119.97 43.8013 119.97H33.3198C32.9641 119.97 32.616 119.936 32.2778 119.875C31.9397 119.936 31.5915 119.97 31.2358 119.97H27.3921C24.1764 119.97 21.5698 117.363 21.5698 114.147V110.348C19.8253 109.848 18.1467 108.935 16.7417 107.429C16.7114 107.397 16.6814 107.364 16.6519 107.331C14.4379 104.846 13.7437 101.744 13.7437 98.8794L13.7437 89.6909C13.7439 87.1738 15.3412 85.0289 17.5776 84.2163C15.8108 83.2165 14.6167 81.322 14.6167 79.147L14.6167 54.6909C14.6169 52.1329 16.2675 49.9608 18.561 49.1792C16.815 48.1627 15.6655 46.2746 15.6655 44.147L15.6655 40.6528C15.6658 38.9969 16.3711 37.4194 17.605 36.3149C17.799 36.1413 18.0045 35.9829 18.2173 35.8384L13.8208 21.3853C13.2843 19.6207 13.6153 17.7059 14.7134 16.2241C15.8116 14.7424 17.5477 13.8687 19.3921 13.8687H23.2349C24.6951 13.8687 26.0567 14.4128 27.0962 15.3335C28.1335 14.4152 29.4925 13.8688 30.9556 13.8687H34.7993C34.9706 13.8687 35.141 13.8792 35.3101 13.894C35.4861 13.878 35.665 13.8687 35.8452 13.8687L47.9683 13.8687C48.8537 13.8687 49.6925 14.0678 50.4438 14.4214C51.1988 14.0662 52.0396 13.8687 52.9204 13.8687L58.5454 13.8687C59.4297 13.8687 60.2736 14.0675 61.0308 14.4253C61.7846 14.069 62.627 13.8687 63.5161 13.8687H67.3589C68.2753 13.8687 69.1423 14.0813 69.9136 14.4585C70.6927 14.0793 71.5595 13.8687 72.4595 13.8687H76.2329C76.9938 13.8687 77.7343 14.0182 78.4185 14.2954C79.8371 13.7976 81.3215 13.5884 82.7681 13.5884ZM37.1626 110.654L37.1636 110.653V103.492H37.1626V110.654ZM164.653 110.654H166.854V110.653H164.653L164.653 110.654ZM178.113 110.654H184.75L184.751 110.653H178.113V110.654ZM202.611 110.654L202.612 110.653V103.492H202.611L202.611 110.654ZM49.2759 110.23C49.3143 110.282 49.3551 110.331 49.3989 110.375C49.4119 110.387 49.4267 110.397 49.4399 110.409C49.4265 110.397 49.4121 110.386 49.3989 110.374C49.3552 110.33 49.3142 110.282 49.2759 110.23ZM172.642 109.295C172.613 109.59 172.57 109.872 172.512 110.141C172.544 109.991 172.574 109.837 172.597 109.679C172.612 109.575 172.626 109.469 172.637 109.362C172.64 109.34 172.64 109.318 172.642 109.295ZM48.8755 108.523C48.8755 108.633 48.878 108.739 48.8833 108.841C48.878 108.739 48.8755 108.633 48.8755 108.522V108.523ZM172.688 108.348C172.688 108.5 172.684 108.649 172.677 108.794C172.679 108.762 172.682 108.729 172.683 108.696C172.687 108.582 172.689 108.465 172.689 108.347V106.356H172.688V108.348ZM228.534 108.523L228.535 108.522V95.3159H228.534L228.534 108.523ZM172.315 103.776C172.377 103.961 172.431 104.154 172.478 104.354L172.403 104.059C172.376 103.962 172.346 103.868 172.315 103.775V103.776ZM145.279 103.421C145.162 103.55 145.038 103.67 144.906 103.782H144.907C145.039 103.67 145.163 103.549 145.28 103.421H145.279ZM42.438 103.492H42.439V99.9976H42.438V103.492ZM183.388 103.492H183.389V99.9976H183.388L183.388 103.492ZM207.886 103.492H207.887L207.887 99.9976H207.886V103.492ZM20.3716 102.568C20.4611 102.73 20.5581 102.886 20.6626 103.034L20.5122 102.806C20.4636 102.728 20.4164 102.649 20.3716 102.568ZM26.7983 101.045C26.711 101.121 26.6161 101.188 26.5142 101.245L26.6616 101.153C26.709 101.12 26.7546 101.084 26.7983 101.046V101.045ZM23.8188 100.841C23.855 100.89 23.8922 100.935 23.9331 100.976H23.9341C23.8931 100.935 23.8552 100.89 23.8188 100.841ZM23.7212 100.691C23.7452 100.733 23.7705 100.773 23.7974 100.811C23.7705 100.773 23.7452 100.733 23.7212 100.691ZM23.6138 100.47C23.6383 100.532 23.6659 100.59 23.6948 100.645C23.6659 100.59 23.6383 100.532 23.6138 100.47ZM37.1626 99.9976H37.1636L37.1636 93.1851H37.1626V99.9976ZM202.611 99.9976H202.612V93.1851H202.611L202.611 99.9976ZM166.156 99.6479H164.653V99.6489H166.155C166.241 99.6489 166.324 99.6458 166.406 99.6401L166.156 99.6479ZM89.3628 92.9448C89.3068 92.9548 89.2522 92.967 89.1987 92.981C89.2522 92.967 89.3068 92.9549 89.3628 92.9448ZM152.792 92.9448C152.737 92.9548 152.682 92.967 152.628 92.981C152.682 92.967 152.737 92.9549 152.792 92.9448ZM89.5923 92.9146C89.5242 92.9201 89.4579 92.9283 89.3931 92.939C89.4579 92.9283 89.5243 92.9201 89.5923 92.9146ZM153.022 92.9146C152.954 92.9201 152.888 92.9283 152.823 92.939C152.888 92.9283 152.954 92.9201 153.022 92.9146ZM146.035 92.3286C145.998 92.254 145.959 92.1814 145.918 92.1099C145.959 92.1813 145.998 92.2541 146.035 92.3286ZM145.885 92.0532C145.852 91.9965 145.818 91.941 145.784 91.8862C145.818 91.941 145.852 91.9965 145.885 92.0532ZM170.941 91.0894C171.054 91.2058 171.162 91.329 171.261 91.4604C171.162 91.329 171.055 91.2049 170.942 91.0884L170.941 91.0894ZM144.978 90.9331C145.083 91.0268 145.184 91.1247 145.279 91.229L145.28 91.228C145.185 91.1238 145.083 91.0268 144.978 90.9331ZM144.766 90.7554C144.745 90.7389 144.724 90.7216 144.703 90.7056C144.676 90.6855 144.647 90.6674 144.62 90.6479C144.669 90.683 144.718 90.7184 144.766 90.7554ZM144.571 90.6128C144.522 90.5792 144.471 90.5469 144.42 90.5151C144.471 90.547 144.522 90.5791 144.571 90.6128ZM86.0913 90.4731C86.0591 90.4971 86.0281 90.5226 85.9966 90.5474C86.0416 90.5119 86.087 90.4769 86.1333 90.4429L86.0913 90.4731ZM149.521 90.4731C149.489 90.4971 149.458 90.5226 149.426 90.5474C149.471 90.5119 149.517 90.4769 149.563 90.4429L149.521 90.4731ZM144.351 90.4731C144.32 90.4548 144.291 90.4352 144.259 90.4175C144.242 90.4079 144.225 90.3995 144.208 90.3901C144.256 90.4169 144.304 90.4449 144.351 90.4731ZM143.769 90.1782C143.909 90.2372 144.044 90.3028 144.173 90.3726C144.043 90.3027 143.909 90.2363 143.769 90.1772V90.1782ZM160.81 89.6919H166.609C166.859 89.6919 167.101 89.6988 167.334 89.7134C167.102 89.6988 166.86 89.6909 166.61 89.6909H160.81V89.6919ZM27.3921 89.6919H31.2349L31.2358 89.6909H27.3921V89.6919ZM102.106 89.6919H105.53V89.6909H102.106V89.6919ZM121.112 89.6919L133.234 89.6919L133.235 89.6909L121.112 89.6909V89.6919ZM135.323 89.6919H140.982V89.6909H135.323V89.6919ZM174.27 89.6919H184.75L184.751 89.6909H174.27V89.6919ZM186.332 89.6919H191.991L191.992 89.6909H186.332V89.6919ZM230.874 89.4185C231.217 89.431 231.545 89.462 231.857 89.5122H231.858C231.546 89.462 231.218 89.431 230.875 89.4185L230.526 89.4116L230.874 89.4185ZM50.7612 89.4116C50.9969 89.4116 51.2257 89.4203 51.4468 89.437H51.4478C51.2265 89.4203 50.998 89.4116 50.7622 89.4116H50.7612ZM95.1509 84.2466C94.9544 84.3163 94.7563 84.3796 94.5581 84.438C95.5844 84.8417 96.5703 85.4055 97.4741 86.1636C97.8215 85.7082 98.2352 85.306 98.6997 84.9702H97.9604C96.9414 84.9702 95.9841 84.7066 95.1509 84.2466ZM148.427 83.4888C147.487 84.0121 146.497 84.3705 145.499 84.604C145.975 84.7749 146.445 84.9803 146.903 85.2241C147.738 84.7222 148.62 84.3541 149.522 84.0942C149.15 83.9164 148.784 83.7153 148.427 83.4888ZM117.673 84.1226C117.439 84.2653 117.193 84.3926 116.939 84.5015C117.207 84.6381 117.463 84.7943 117.706 84.9692C117.939 84.8007 118.185 84.6491 118.443 84.5161C118.176 84.4039 117.919 84.2719 117.673 84.1226ZM222.947 82.689C222.39 83.153 221.803 83.5437 221.195 83.8687H222.953C223.469 83.8687 223.971 83.9357 224.448 84.062C223.87 83.6949 223.362 83.23 222.947 82.689ZM183.951 74.4595C184.005 74.7794 184.036 75.1084 184.036 75.4438V78.7622C184.036 79.557 183.872 80.3442 183.557 81.0737L182.349 83.8687H184.751C185.019 83.8687 185.283 83.8874 185.541 83.9224C185.799 83.8873 186.063 83.8687 186.332 83.8687H188.566C187.102 82.811 186.148 81.0909 186.148 79.147V75.3472C185.398 75.1319 184.66 74.8423 183.951 74.4595ZM208.636 83.4468C208.472 83.5969 208.299 83.7379 208.118 83.8687H209.25C209.286 83.8687 209.323 83.8699 209.359 83.8706C209.114 83.7401 208.873 83.599 208.636 83.4468ZM36.563 83.4419C36.3969 83.594 36.2215 83.7365 36.0386 83.8687H37.0864C36.9034 83.7364 36.7288 83.5938 36.563 83.4419ZM259.155 79.1997C258.833 79.211 258.493 79.2173 258.137 79.2173L258.666 79.2134C258.833 79.2105 258.996 79.2054 259.155 79.1997ZM154.23 75.7524C154.249 75.7595 154.268 75.7664 154.287 75.7729C154.268 75.7663 154.249 75.7596 154.23 75.7524ZM154.087 75.6938C154.1 75.6997 154.113 75.7039 154.125 75.7095C154.105 75.7002 154.084 75.6911 154.064 75.6812L154.087 75.6938ZM40.8159 75.6802C40.9266 75.686 41.0402 75.689 41.1567 75.689H41.8208V75.688H41.1567C40.9241 75.688 40.7031 75.6761 40.4937 75.6528C40.5982 75.6644 40.7056 75.6743 40.8159 75.6802ZM53.4526 75.6538L53.7759 75.6802C53.8863 75.686 53.9995 75.689 54.1157 75.689H54.7798C54.8528 75.689 54.9243 75.6856 54.9946 75.6812C54.9244 75.6855 54.8528 75.688 54.7798 75.688H54.1167C53.8839 75.688 53.6622 75.6761 53.4526 75.6528V75.6538ZM256.286 75.6538C256.495 75.6771 256.717 75.689 256.95 75.689H257.614V75.688H256.95C256.833 75.688 256.72 75.685 256.609 75.6792C256.498 75.6733 256.39 75.6645 256.286 75.6528V75.6538ZM55.0171 75.6792C55.0787 75.6748 55.1392 75.6684 55.1987 75.6606C55.1392 75.6683 55.0787 75.6749 55.0171 75.6792ZM69.1392 75.6538H71.0952L71.0962 75.6528H69.1392V75.6538ZM90.8911 75.646C90.82 75.6511 90.7468 75.6528 90.6714 75.6528H88.855V75.6538H90.6714C90.7496 75.6538 90.8254 75.6506 90.8989 75.645C90.8963 75.6452 90.8937 75.6458 90.8911 75.646ZM139.984 75.6538H142.185L142.185 75.6528H139.984V75.6538ZM166.291 75.6538H172.928V75.6528H166.291V75.6538ZM231.41 75.6538H233.611V75.6528H231.41V75.6538ZM91.0894 75.6235C91.0975 75.6223 91.1057 75.6209 91.1138 75.6196C91.1057 75.6209 91.0975 75.6223 91.0894 75.6235ZM91.2681 75.5884C91.2814 75.5853 91.2949 75.5829 91.3081 75.5796C91.2949 75.5829 91.2814 75.5853 91.2681 75.5884ZM259.151 75.1987C259.011 75.3386 258.844 75.4458 258.652 75.52H258.653C258.845 75.4458 259.011 75.3394 259.151 75.1997V75.1987ZM153.299 74.8677C153.381 75.0742 153.488 75.2434 153.619 75.3745L153.62 75.3735C153.489 75.2425 153.382 75.0741 153.3 74.8677H153.299ZM43.3579 75.1987C43.3115 75.2452 43.2617 75.2884 43.2095 75.3276V75.3286C43.2619 75.2893 43.3113 75.2463 43.3579 75.1997C43.3841 75.1764 43.4089 75.1514 43.4331 75.1255L43.3579 75.1987ZM153.095 73.5229C153.095 73.6332 153.098 73.7393 153.103 73.8413C153.098 73.739 153.095 73.6325 153.095 73.522V73.5229ZM83.2798 60.561V73.2778C83.2798 73.4017 83.2786 73.5237 83.2749 73.644L83.2808 73.2778L83.2808 60.5601C83.2808 60.4365 83.2788 60.3148 83.2749 60.1948L83.2798 60.561ZM60.8237 73.0679C60.8237 73.2239 60.8211 73.3763 60.8159 73.5249L60.8247 73.0679L60.8247 58.1851H60.8237L60.8237 73.0679ZM221.109 60.561V73.2778C221.109 73.4634 221.105 73.6451 221.096 73.8228L221.11 73.2778L221.11 60.5601C221.11 60.4365 221.108 60.3148 221.104 60.1948L221.109 60.561ZM148.019 73.3481L148.02 73.3472V71.356H148.019V73.3481ZM144.146 70.4077C144.143 70.3714 144.139 70.3356 144.135 70.3003C144.139 70.3356 144.143 70.3714 144.146 70.4077ZM144.114 70.1245C144.108 70.08 144.101 70.0364 144.094 69.9937C144.101 70.0364 144.108 70.08 144.114 70.1245ZM190.958 69.9937C190.631 70.0169 190.27 70.0278 189.875 70.0278L189.875 70.0288C190.073 70.0288 190.262 70.0259 190.443 70.02C190.623 70.0142 190.796 70.0053 190.958 69.9937C191.046 69.982 191.132 69.9687 191.218 69.9526H191.217C191.132 69.9686 191.045 69.982 190.958 69.9937ZM178.323 60.3774C177.989 61.1966 177.475 61.9229 176.83 62.5063C177.188 63.2616 177.389 64.1062 177.389 64.9976L177.389 68.4917C177.389 68.8778 177.351 69.2555 177.279 69.6206H178.212C178.67 69.6206 179.115 69.6751 179.542 69.7749C178.644 67.8787 178.323 65.8244 178.323 63.8794V60.3774ZM122.8 49.2759C124.665 50.0134 126.077 51.689 126.411 53.771L128.947 69.6206H129.334C129.67 69.6206 129.999 69.6501 130.319 69.7046V54.6909C130.319 52.434 131.603 50.4775 133.481 49.5112C133.265 49.4199 133.057 49.3145 132.855 49.1987C131.984 49.6969 130.99 49.9702 129.964 49.9702H126.086C124.986 49.9702 123.95 49.6612 123.064 49.1226C122.977 49.1753 122.89 49.2277 122.8 49.2759ZM143.924 69.3442C143.909 69.305 143.892 69.2678 143.875 69.231C143.892 69.2677 143.909 69.305 143.924 69.3442ZM143.841 69.1567C143.826 69.1249 143.81 69.0938 143.793 69.064C143.81 69.0937 143.826 69.1249 143.841 69.1567ZM38.397 54.6919H42.2397L46.4673 69.0151L42.2397 54.6909H38.397V54.6919ZM254.19 54.6919H258.033L262.26 69.0151L258.033 54.6909H254.19V54.6919ZM143.716 68.9399C143.706 68.9242 143.694 68.9091 143.683 68.894C143.694 68.9091 143.706 68.9242 143.716 68.9399ZM91.5503 67.5239C91.6415 67.5606 91.7264 67.6048 91.8062 67.6548L91.7983 67.6489C91.721 67.6011 91.6383 67.5593 91.5503 67.5239ZM91.5034 67.5073C91.4708 67.4953 91.4378 67.4835 91.4038 67.4731C91.4378 67.4836 91.4708 67.4953 91.5034 67.5073ZM91.3394 67.4556C91.3143 67.4488 91.289 67.4419 91.2632 67.436C91.289 67.4419 91.3143 67.4488 91.3394 67.4556ZM91.1812 67.4185C91.1539 67.4133 91.1262 67.409 91.0981 67.4048C91.1262 67.409 91.1539 67.4133 91.1812 67.4185ZM91.019 67.394C90.9788 67.3892 90.9378 67.3854 90.896 67.3823C90.9378 67.3854 90.9788 67.3892 91.019 67.394ZM90.8589 67.3784C90.798 67.3748 90.7354 67.3735 90.6714 67.3735C90.7354 67.3735 90.798 67.3748 90.8589 67.3784ZM94.6675 65.1216C94.7726 65.2152 94.8735 65.3132 94.9683 65.4175L94.9692 65.4165C94.8744 65.3122 94.7727 65.2152 94.6675 65.1216ZM188.021 64.7378C188.036 64.8673 188.057 64.9887 188.083 65.1021C188.057 64.989 188.036 64.8679 188.021 64.7388V64.7378ZM94.4204 64.9185C94.3788 64.8869 94.3375 64.8548 94.2944 64.8247C94.3374 64.8548 94.3788 64.8869 94.4204 64.9185ZM94.0903 64.6909C94.0536 64.6682 94.0157 64.6472 93.978 64.6255C94.0157 64.6472 94.0536 64.6682 94.0903 64.6909ZM141.998 64.6138C141.838 64.637 141.667 64.6479 141.487 64.6479H139.984L139.984 64.6489H141.486C141.666 64.6489 141.837 64.6371 141.998 64.6138ZM233.174 64.6392C233.089 64.645 233.002 64.6479 232.912 64.6479H231.41V64.6489H232.912C233.002 64.6489 233.089 64.645 233.174 64.6392ZM93.8394 64.5483C93.7956 64.5251 93.7515 64.502 93.7065 64.48C93.7515 64.502 93.7956 64.5251 93.8394 64.5483ZM184.145 54.6919H187.988L187.988 64.1245C187.988 64.2351 187.991 64.3416 187.997 64.4438L187.989 64.1245L187.989 54.6909H184.145V54.6919ZM266.991 64.0298L269.594 54.6997V54.6978L266.991 64.0298ZM293.922 60.7358V63.9146H293.923V60.7349L293.922 60.7358ZM114.752 56.4604L115.036 54.6919H120.661V54.6909H115.036L114.752 56.4604ZM237.698 56.0894C237.811 56.2058 237.919 56.329 238.018 56.4604C237.919 56.329 237.812 56.2049 237.699 56.0884L237.698 56.0894ZM292.164 55.9087C292.279 56.0093 292.388 56.1159 292.491 56.229V56.228C292.388 56.1151 292.278 56.0092 292.164 55.9087ZM291.965 55.7466C291.948 55.7332 291.931 55.7187 291.914 55.7056C291.884 55.6836 291.853 55.6634 291.823 55.6421C291.871 55.6761 291.919 55.7108 291.965 55.7466ZM291.782 55.6128C291.733 55.5792 291.682 55.5469 291.631 55.5151C291.682 55.5469 291.733 55.5792 291.782 55.6128ZM291.562 55.4731C291.531 55.4548 291.501 55.4352 291.47 55.4175C291.453 55.4079 291.436 55.3995 291.418 55.3901C291.467 55.4169 291.515 55.4449 291.562 55.4731ZM290.98 55.1782C291.118 55.2365 291.251 55.3009 291.379 55.3696C291.251 55.3008 291.119 55.2355 290.98 55.1772V55.1782ZM136.141 54.6919H141.94C142.19 54.6919 142.433 54.6988 142.666 54.7134C142.433 54.6988 142.191 54.6909 141.941 54.6909H136.141V54.6919ZM227.567 54.6919L233.366 54.6919C233.616 54.6919 233.858 54.6988 234.091 54.7134C233.858 54.6988 233.617 54.6909 233.367 54.6909L227.567 54.6909V54.6919ZM191.971 54.6919H195.814V54.6909H191.971V54.6919ZM265.754 54.6919L281.473 54.6919V54.6909L265.754 54.6909V54.6919ZM282.534 54.6919H288.193L288.194 54.6909H282.534V54.6919ZM178.053 51.9243C178.257 52.3014 178.419 52.7041 178.537 53.1255C178.895 51.839 179.684 50.7326 180.739 49.9702H178.053L178.053 51.9243ZM220.885 49.8228C221.6 50.1786 222.288 50.6217 222.934 51.1636C223.281 50.7082 223.695 50.306 224.16 49.9702H222.378C221.776 49.9702 221.194 49.8785 220.647 49.7085L220.885 49.8228ZM147.529 49.9702C147.812 50.1004 148.093 50.2451 148.369 50.4048C148.609 50.2484 148.854 50.1039 149.102 49.9702H147.529ZM45.647 49.9702C45.804 50.0836 45.956 50.204 46.1011 50.3325C46.2455 50.2047 46.3959 50.0831 46.5522 49.9702H45.647ZM260.216 49.2944C260.832 49.5438 261.4 49.8949 261.894 50.3325C262.081 50.1673 262.278 50.0136 262.484 49.8735C261.777 49.7438 261.112 49.4853 260.516 49.1226C260.418 49.1823 260.318 49.2405 260.216 49.2944ZM142.955 48.8979C143.193 48.912 143.434 48.9329 143.677 48.9585C143.538 48.8637 143.404 48.7629 143.274 48.6567C143.171 48.741 143.063 48.8208 142.955 48.8979ZM31.1548 47.5962C30.9584 47.7787 30.7521 47.9567 30.5337 48.1255C30.4892 48.1599 30.4435 48.1939 30.3979 48.2271C30.0742 48.4625 29.7362 48.677 29.3862 48.8687H32.439C31.9476 48.5136 31.5142 48.0841 31.1548 47.5962ZM230.356 47.8169C230.033 48.2143 229.658 48.5682 229.243 48.8687L231.469 48.8687C231.053 48.5682 230.679 48.2144 230.356 47.8169ZM24.3696 44.1997C24.0437 44.2113 23.7002 44.2173 23.3394 44.2173L23.8677 44.2134C24.0393 44.2104 24.2067 44.2056 24.3696 44.1997ZM174.809 44.147L174.809 26.8599L174.808 26.854L174.809 44.147ZM181.307 44.147L183.961 26.6147L183.961 26.6089L181.307 44.147ZM217.591 44.147L222.377 26.437V26.4341L217.591 44.147ZM263.503 19.6919L267.417 44.147L263.503 19.6909L257.879 19.6909L263.503 19.6919ZM22.1519 40.689H22.8149L22.8159 40.688H22.1519V40.689ZM94.1772 40.6538H96.3784L96.3784 40.6528H94.1772V40.6538ZM150.799 40.6538H157.437L157.438 40.6528H150.799V40.6538ZM176.8 19.6919L179.629 37.0552L179.629 37.0513L176.8 19.6909H171.455L176.8 19.6919ZM230.563 34.728H230.564H230.563ZM213.644 19.6919H217.067V34.3296L217.068 34.3257L217.068 19.6909H213.644V19.6919ZM27.4624 34.0151L30.9556 19.6919H34.7983L34.7993 19.6909H30.9556L27.4624 34.0151ZM232.883 31.5005L232.884 31.4995C232.809 31.4995 232.734 31.4971 232.663 31.4917H232.662C232.734 31.4972 232.808 31.5005 232.883 31.5005ZM67.3589 30.3472L72.4595 19.6919L76.2329 19.6909H72.4595L67.3589 30.3472ZM166.564 29.1587C166.564 29.3802 166.553 29.5845 166.533 29.771C166.523 29.8639 166.51 29.9524 166.495 30.0366L166.496 30.0376C166.541 29.7843 166.564 29.4916 166.564 29.1597V29.1587ZM95.6792 29.6479H94.1772L94.1772 29.6489H95.6792C95.7693 29.6489 95.8569 29.645 95.9419 29.6392C95.8568 29.645 95.7693 29.6479 95.6792 29.6479ZM227.049 19.6919H230.892V29.1245C230.892 29.2352 230.895 29.3416 230.901 29.4438L230.893 29.1245V19.6909H227.049L227.049 19.6919ZM101.234 29.2993L101.235 29.2983C101.28 29.2045 101.322 29.107 101.362 29.0073C101.321 29.1075 101.28 29.2052 101.234 29.2993ZM101.391 28.9331C101.421 28.8567 101.448 28.7785 101.474 28.6987C101.448 28.7784 101.421 28.8567 101.391 28.9331ZM170.407 25.7358L170.407 28.9146H170.408L170.408 25.7349L170.407 25.7358ZM166.373 24.1597C166.449 24.3606 166.502 24.6008 166.533 24.8804L166.534 24.8794C166.503 24.5999 166.45 24.3596 166.374 24.1587L166.373 24.1597ZM83.5806 23.0454C83.5263 23.0242 83.4702 23.0061 83.4126 22.9897C83.4702 23.0061 83.5263 23.0242 83.5806 23.0454ZM83.3579 22.9751C83.3139 22.964 83.269 22.9542 83.2231 22.9458C83.269 22.9542 83.3139 22.964 83.3579 22.9751ZM82.7681 22.9058C82.9149 22.9058 83.0542 22.9171 83.186 22.939C83.1223 22.9284 83.057 22.92 82.9897 22.9146L82.7681 22.9058ZM220.431 21.856L221.015 19.6919L225.836 19.6919V19.6909L221.015 19.6909L220.431 21.856ZM100.465 21.0894C100.579 21.2058 100.686 21.329 100.786 21.4604C100.686 21.329 100.58 21.2049 100.466 21.0884L100.465 21.0894ZM120.143 21.4604L120.426 19.6919H126.051V19.6909H120.426L120.143 21.4604ZM168.692 20.9487C168.791 21.0377 168.886 21.1306 168.975 21.229V21.228C168.886 21.1298 168.79 21.0376 168.692 20.9487ZM78.6392 20.8149C78.5696 20.8807 78.5018 20.9487 78.436 21.019C78.5018 20.9487 78.5696 20.8807 78.6392 20.8149ZM168.637 20.8999C168.625 20.8895 168.614 20.878 168.602 20.8677C168.576 20.8452 168.547 20.825 168.52 20.8032C168.56 20.835 168.599 20.8667 168.637 20.8999ZM168.45 20.7466C168.432 20.7332 168.416 20.7187 168.398 20.7056C168.372 20.6861 168.345 20.6678 168.318 20.6489C168.363 20.6806 168.406 20.7133 168.45 20.7466ZM79.0454 20.4731C78.9796 20.5222 78.9151 20.573 78.8521 20.6255C78.985 20.5146 79.1245 20.4116 79.27 20.3159L79.0454 20.4731ZM168.266 20.6128C168.217 20.5792 168.167 20.5469 168.116 20.5151C168.167 20.5469 168.217 20.5792 168.266 20.6128ZM168.061 20.4819C168.026 20.4606 167.991 20.438 167.955 20.4175C167.938 20.4079 167.92 20.3995 167.903 20.3901C167.957 20.4196 168.009 20.4506 168.061 20.4819ZM167.464 20.1782C167.603 20.2365 167.736 20.3009 167.864 20.3696C167.735 20.3008 167.603 20.2355 167.464 20.1772V20.1782ZM19.3921 19.6919H23.2349V19.6909H19.3921V19.6919ZM35.8452 19.6919L47.9673 19.6919L47.9683 19.6909L35.8452 19.6909V19.6919ZM52.9204 19.6919H58.5454V19.6909H52.9204V19.6919ZM90.3345 19.6919H96.1333L96.1343 19.6909H90.3345V19.6919ZM146.957 19.6919H157.437L157.438 19.6909H146.957V19.6919ZM159.018 19.6919H164.677L164.678 19.6909H159.018V19.6919ZM172.644 109.277C172.657 109.143 172.666 109.007 172.673 108.869C172.666 109.007 172.657 109.143 172.644 109.277ZM144.907 90.8677C144.873 90.8386 144.837 90.8116 144.801 90.7837C144.853 90.8246 144.903 90.8665 144.953 90.9097C144.937 90.896 144.923 90.8811 144.907 90.8677ZM143.992 69.5425C143.982 69.5114 143.971 69.4815 143.961 69.4517C143.971 69.4815 143.982 69.5114 143.992 69.5425ZM144.075 69.8921C144.065 69.8421 144.056 69.7931 144.045 69.7456C144.056 69.7931 144.065 69.8421 144.075 69.8921ZM94.5962 65.0562C94.5704 65.0343 94.5425 65.0149 94.5161 64.9937C94.5587 65.028 94.6011 65.0622 94.6421 65.0981C94.6265 65.0845 94.612 65.0696 94.5962 65.0562ZM292.118 55.8677C292.089 55.8437 292.06 55.8216 292.031 55.7983C292.076 55.8344 292.12 55.8709 292.164 55.9087C292.148 55.8952 292.133 55.881 292.118 55.8677ZM78.8022 20.6685C78.7468 20.716 78.6923 20.7647 78.6392 20.8149C78.6923 20.7647 78.7468 20.716 78.8022 20.6685Z" fill="#1C1456"/>
<g filter="url(#filter0_ii_2060_19298)">
<path d="M78.4009 9.22119C80.0403 9.22119 81.7294 9.48684 83.3149 10.1411C84.1106 9.73316 85.0117 9.50146 85.9673 9.50146L91.7671 9.50146C93.2511 9.50151 94.9232 9.68397 96.5376 10.269C97.3892 9.78113 98.3754 9.50148 99.4272 9.50146L103.27 9.50146C104.187 9.50147 105.053 9.71408 105.825 10.0913C106.604 9.71187 107.471 9.50146 108.372 9.50146H112.144C112.82 9.50147 113.479 9.62168 114.098 9.84229C114.713 9.62203 115.374 9.50151 116.059 9.50146H121.684C123.686 9.50147 125.48 10.5204 126.532 12.1001C127.575 10.5335 129.358 9.50146 131.381 9.50146L141.547 9.50146C141.723 9.50147 141.896 9.5107 142.068 9.52588C142.24 9.51062 142.414 9.50147 142.589 9.50146L153.071 9.50146C153.339 9.50148 153.602 9.52116 153.86 9.55615C154.119 9.521 154.383 9.50146 154.651 9.50146L160.311 9.50146C161.66 9.5015 163.091 9.67086 164.479 10.1187C165.264 9.72457 166.149 9.5015 167.087 9.50146L172.433 9.50146L172.7 9.50732C173.58 9.54728 174.415 9.78452 175.158 10.1782C175.975 9.74493 176.904 9.50146 177.883 9.50146L183.228 9.50146C183.586 9.50147 183.936 9.53541 184.276 9.59717C184.616 9.53528 184.967 9.50146 185.325 9.50146L195.805 9.50146C195.894 9.50147 195.983 9.50436 196.071 9.5083C196.159 9.50431 196.248 9.50147 196.337 9.50146L208.216 9.50146C208.395 9.50147 208.572 9.51011 208.747 9.52588C208.921 9.51012 209.098 9.50146 209.277 9.50146L212.701 9.50146C213.395 9.50149 214.06 9.62342 214.677 9.84619C215.297 9.62314 215.961 9.50151 216.648 9.50146L221.469 9.50146C221.674 9.50147 221.876 9.51211 222.076 9.53271C222.275 9.51208 222.477 9.50147 222.682 9.50146H226.526C227.225 9.50152 227.896 9.62493 228.517 9.85107C229.138 9.625 229.809 9.50146 230.508 9.50146L234.351 9.50146C234.707 9.50147 235.055 9.5351 235.393 9.59619C235.732 9.53496 236.08 9.50146 236.436 9.50146H240.279C241.051 9.50147 241.788 9.65321 242.462 9.92627C243.137 9.65312 243.874 9.50149 244.646 9.50146L248.559 9.50146C249.445 9.50147 250.283 9.70058 251.035 10.0542C251.79 9.69878 252.631 9.50146 253.512 9.50146H259.136C261.997 9.50148 264.434 11.5791 264.886 14.4038L268.799 38.8599C269.069 40.5435 268.586 42.2607 267.48 43.5581C267.174 43.9164 266.828 44.2312 266.454 44.5015L277.106 44.5015C277.285 44.5015 277.462 44.5091 277.636 44.5249C277.811 44.5091 277.988 44.5015 278.167 44.5015L283.827 44.5015C285.175 44.5015 286.607 44.67 287.995 45.1177C288.779 44.7237 289.665 44.5015 290.603 44.5015L294.027 44.5015C294.721 44.5015 295.386 44.6226 296.003 44.8452C296.623 44.6221 297.288 44.5015 297.975 44.5015L302.796 44.5015C306.012 44.5016 308.619 47.108 308.619 50.3237V55.1567L343.148 55.1567C346.364 55.1568 348.97 57.7642 348.97 60.98V64.1245C348.97 67.3401 346.364 69.9467 343.148 69.9468L308.619 69.9468V74.7798C308.619 77.9956 306.012 80.6029 302.796 80.603L299.337 80.603C298.484 80.603 297.673 80.4175 296.943 80.0874C296.208 80.419 295.397 80.603 294.551 80.603L290.603 80.603C288.901 80.603 287.371 79.8723 286.306 78.7085C285.242 79.8722 283.711 80.603 282.009 80.603H278.167C277.256 80.603 276.395 80.3934 275.627 80.021C274.86 80.3934 273.999 80.603 273.088 80.603L269.246 80.603C266.379 80.603 263.997 78.5309 263.513 75.8032C262.9 76.8306 262.08 77.896 260.964 78.7583C260.92 78.7928 260.874 78.8267 260.829 78.8599C259.488 79.8349 257.912 80.4479 256.19 80.5835L256.191 80.5845C255.423 80.6459 254.612 80.6724 253.77 80.6724L252.828 80.6724C252.229 80.6724 251.647 80.6233 251.095 80.5444C250.841 80.5081 250.592 80.4547 250.35 80.3872C249.851 80.5263 249.326 80.603 248.783 80.603H244.87C244.097 80.603 243.361 80.4504 242.686 80.1772C242.012 80.4503 241.275 80.603 240.502 80.603H236.66C235.63 80.603 234.663 80.3339 233.824 79.8647C233.115 80.1152 232.394 80.2925 231.673 80.4097C232.759 80.937 233.786 81.6622 234.7 82.6284C234.709 82.6377 234.718 82.6474 234.727 82.6567C234.733 82.6629 234.739 82.6691 234.745 82.6753L234.744 82.6753C237.076 85.145 237.816 88.2901 237.816 91.1929V103.911C237.816 106.841 237.064 109.982 234.745 112.463C234.73 112.479 234.715 112.495 234.701 112.51C232.296 115.027 229.132 115.882 226.159 115.882C224.52 115.882 222.824 115.621 221.229 114.966C220.435 115.372 219.538 115.603 218.585 115.603L214.672 115.603C213.9 115.603 213.163 115.45 212.489 115.177C211.814 115.45 211.077 115.603 210.305 115.603H206.462C206.194 115.603 205.931 115.582 205.672 115.547C205.414 115.582 205.15 115.603 204.882 115.603L194.401 115.603C192.699 115.603 191.169 114.872 190.104 113.708C189.039 114.872 187.509 115.603 185.807 115.603H181.964C181.696 115.603 181.432 115.583 181.173 115.547C180.915 115.582 180.652 115.603 180.384 115.603L169.903 115.603C168.873 115.603 167.906 115.334 167.067 114.865C165.551 115.4 163.974 115.603 162.487 115.603H156.443C155.492 115.603 154.594 115.373 153.801 114.968C152.208 115.621 150.514 115.882 148.877 115.882C145.904 115.882 142.74 115.027 140.335 112.51C140.321 112.495 140.306 112.479 140.292 112.463C140.219 112.386 140.149 112.308 140.08 112.23C139.154 114.221 137.139 115.603 134.798 115.603H130.956C130.599 115.603 130.25 115.568 129.911 115.506C129.572 115.568 129.224 115.603 128.868 115.603L124.955 115.603C124.182 115.603 123.445 115.45 122.771 115.177C122.096 115.45 121.36 115.603 120.587 115.603H116.745C115.472 115.603 114.296 115.193 113.338 114.5C112.38 115.193 111.204 115.603 109.932 115.603L106.473 115.603C105.619 115.603 104.809 115.418 104.079 115.087C103.344 115.419 102.532 115.603 101.687 115.603H97.7388C95.856 115.603 94.1829 114.708 93.1187 113.322C90.8492 115.213 88.0751 115.882 85.4478 115.882C83.8091 115.882 82.1132 115.621 80.5181 114.966C79.7245 115.372 78.8268 115.603 77.8745 115.603L73.9614 115.603C73.189 115.603 72.4523 115.45 71.7778 115.177C71.1034 115.45 70.3666 115.603 69.5942 115.603L65.7515 115.603C64.8412 115.603 63.9798 115.393 63.2124 115.021C62.445 115.393 61.5836 115.603 60.6733 115.603H56.8306C55.3358 115.603 53.9729 115.039 52.9419 114.113C50.9098 115.416 48.5811 115.882 46.395 115.882C44.8789 115.882 43.3039 115.658 41.8062 115.097C41.0814 115.421 40.2791 115.603 39.4341 115.603L28.9526 115.603C28.5968 115.603 28.2488 115.568 27.9106 115.507C27.5725 115.568 27.2245 115.603 26.8687 115.603L23.0249 115.603C19.8092 115.603 17.2026 112.996 17.2026 109.78V105.981C15.4581 105.48 13.7796 104.567 12.3745 103.062C12.3442 103.03 12.3142 102.997 12.2847 102.963C10.0707 100.479 9.37646 97.3768 9.37646 94.5122L9.37646 85.3237C9.37655 82.8064 10.9739 80.6618 13.2104 79.8491C11.4436 78.8493 10.2495 76.9548 10.2495 74.7798L10.2495 50.3237C10.2496 47.7655 11.9002 45.5937 14.1938 44.812C12.4478 43.7955 11.2983 41.9074 11.2983 39.7798L11.2983 36.2856C11.2985 34.6296 12.0038 33.0522 13.2378 31.9478C13.4319 31.774 13.6372 31.6158 13.8501 31.4712L9.45361 17.0181C8.91701 15.2535 9.24805 13.3388 10.3462 11.8569C11.4444 10.375 13.1804 9.50146 15.0249 9.50146L18.8677 9.50146C20.328 9.50147 21.6894 10.0456 22.729 10.9663C23.7664 10.0478 25.1252 9.50157 26.5884 9.50146L30.4321 9.50146C30.6035 9.50147 30.7737 9.51196 30.9429 9.52686C31.1191 9.51081 31.2977 9.50146 31.478 9.50146L43.6011 9.50146C44.4866 9.5015 45.3252 9.70054 46.0767 10.0542C46.8317 9.69888 47.6722 9.5015 48.5532 9.50146L54.1782 9.50146C55.0626 9.50147 55.9063 9.70024 56.6636 10.0581C57.4175 9.70166 58.2597 9.50146 59.1489 9.50146H62.9917C63.9082 9.50147 64.775 9.71405 65.5464 10.0913C66.3256 9.71197 67.1921 9.50154 68.0923 9.50146H71.8657C72.6267 9.50147 73.367 9.651 74.0513 9.92822C75.47 9.43033 76.9542 9.22123 78.4009 9.22119ZM16.8198 99.2798C16.8844 99.3411 16.9509 99.4003 17.019 99.4575H17.02C16.8835 99.3429 16.7536 99.2204 16.6313 99.0894C16.6925 99.1548 16.7552 99.2184 16.8198 99.2798ZM163.377 99.0308L163.357 99.02C163.335 99.0099 163.312 99.0012 163.29 98.9917C163.32 99.0042 163.349 99.0171 163.377 99.0308ZM163.229 98.9673C163.189 98.9519 163.147 98.9379 163.105 98.9243C163.147 98.9378 163.189 98.9519 163.229 98.9673ZM16.4575 98.8833C16.4651 98.8929 16.4733 98.9021 16.481 98.9116C16.451 98.8745 16.422 98.8365 16.3931 98.7983C16.4146 98.8267 16.4354 98.8555 16.4575 98.8833ZM163.055 98.9087C163.012 98.8959 162.968 98.8845 162.922 98.8735C162.968 98.8845 163.012 98.896 163.055 98.9087ZM16.2778 98.6392C16.3069 98.681 16.3364 98.7224 16.3667 98.7632C16.3364 98.7224 16.3069 98.681 16.2778 98.6392ZM16.1753 98.4858C16.1982 98.5216 16.2209 98.5573 16.2446 98.5923C16.2209 98.5573 16.1982 98.5216 16.1753 98.4858ZM16.062 98.3013C16.0838 98.3387 16.1058 98.3759 16.1284 98.4126C16.1058 98.3759 16.0838 98.3387 16.062 98.3013ZM16.0044 98.2007C16.0117 98.2138 16.0195 98.2267 16.0269 98.2397C16.0096 98.2091 15.9928 98.1781 15.9761 98.147C15.9856 98.1648 15.9946 98.183 16.0044 98.2007ZM167.388 98.2212H167.389C167.356 98.1704 167.321 98.1206 167.285 98.0718L167.284 98.0718C167.32 98.1206 167.355 98.1704 167.388 98.2212ZM15.8589 97.9155C15.8737 97.9468 15.8894 97.9775 15.9048 98.0083C15.8894 97.9775 15.8737 97.9468 15.8589 97.9155ZM189.511 91.1235L189.503 90.8042C189.502 90.7742 189.499 90.7446 189.497 90.7153C189.505 90.8441 189.511 90.9801 189.511 91.1235ZM189.022 89.3071C188.984 89.2689 188.943 89.2335 188.901 89.1997C188.943 89.2335 188.984 89.2689 189.022 89.3071ZM87.0103 89.2407L86.9468 89.1655C86.9251 89.1417 86.9026 89.1189 86.8794 89.0972L87.0103 89.2407ZM188.875 89.1792C188.843 89.1554 188.811 89.1333 188.778 89.1118C188.811 89.1333 188.843 89.1554 188.875 89.1792ZM137.586 89.0093C137.64 89.0348 137.692 89.0626 137.742 89.0933L137.586 89.0083C137.533 88.9829 137.477 88.9603 137.418 88.9399L137.586 89.0093ZM188.596 89.0093C188.643 89.0315 188.688 89.0564 188.732 89.0825C188.64 89.0273 188.54 88.9808 188.433 88.9429C188.489 88.9627 188.544 88.9846 188.596 89.0093ZM188.416 88.937C188.365 88.9198 188.314 88.9046 188.26 88.8911C188.314 88.9045 188.365 88.9199 188.416 88.937ZM148.877 88.5386C149.029 88.5386 149.172 88.5505 149.307 88.5737C149.239 88.5621 149.17 88.5522 149.098 88.5464L148.877 88.5386ZM141.708 88.0513C141.695 88.0223 141.681 87.9939 141.667 87.9653C141.681 87.9938 141.695 88.0223 141.708 88.0513ZM141.463 87.5942C141.428 87.5349 141.391 87.4765 141.353 87.4194C141.391 87.4765 141.428 87.535 141.463 87.5942ZM141.28 87.314C141.269 87.2986 141.26 87.2822 141.249 87.2671C141.234 87.2472 141.218 87.2281 141.204 87.2085C141.23 87.2431 141.255 87.2785 141.28 87.314ZM141.144 87.1333C141.116 87.0976 141.088 87.0615 141.059 87.0269C141.088 87.0616 141.116 87.0976 141.144 87.1333ZM41.9233 86.854C41.8674 86.9231 41.8134 86.9941 41.7612 87.0669H41.7622C41.8666 86.9214 41.9779 86.7828 42.0972 86.6519C42.0374 86.7175 41.9794 86.7848 41.9233 86.854ZM140.732 86.6753C140.792 86.733 140.85 86.7926 140.906 86.854C140.791 86.7285 140.669 86.6105 140.54 86.5005L140.732 86.6753ZM140.12 86.189C140.193 86.2369 140.266 86.2864 140.335 86.3384L140.12 86.188C140.046 86.14 139.97 86.0943 139.892 86.0503L140.12 86.189ZM43.147 85.8042C43.0817 85.8423 43.0185 85.8833 42.9556 85.9243C43.0944 85.8338 43.2384 85.7489 43.3892 85.6724L43.147 85.8042ZM139.169 85.7192L139.139 85.7075C139.118 85.6999 139.096 85.6934 139.075 85.686C139.106 85.6969 139.138 85.7078 139.169 85.7192ZM138.921 85.6362C138.902 85.6304 138.884 85.6234 138.865 85.6177C138.853 85.6143 138.842 85.6112 138.831 85.6079C138.861 85.6169 138.891 85.6269 138.921 85.6362ZM138.387 85.4966C138.483 85.5172 138.578 85.5397 138.67 85.564C138.578 85.5396 138.483 85.5172 138.387 85.4966ZM138.35 85.4878C138.291 85.4754 138.23 85.4646 138.169 85.4536C138.23 85.4646 138.291 85.4754 138.35 85.4878ZM138.073 85.437C138.02 85.4281 137.966 85.4194 137.912 85.4116C137.966 85.4194 138.02 85.4282 138.073 85.437ZM149.225 85.0503C149.34 85.0545 149.453 85.0613 149.564 85.0698L149.226 85.0503L148.877 85.0444L149.225 85.0503ZM90.7837 79.8794C90.5871 79.9492 90.3893 80.0123 90.1909 80.0708C91.2173 80.4745 92.203 81.0383 93.1069 81.7964C93.4544 81.3408 93.8679 80.9389 94.3325 80.603H93.5933C92.5742 80.603 91.6169 80.3394 90.7837 79.8794ZM144.06 79.1216C143.12 79.645 142.13 80.0034 141.131 80.2368C141.608 80.4077 142.077 80.613 142.536 80.8569C143.371 80.3549 144.253 79.987 145.155 79.7271C144.782 79.5492 144.417 79.3481 144.06 79.1216ZM113.306 79.7554C113.071 79.8982 112.826 80.0254 112.572 80.1343C112.84 80.2709 113.096 80.4271 113.338 80.6021C113.572 80.4334 113.818 80.282 114.076 80.1489C113.809 80.0367 113.552 79.9047 113.306 79.7554ZM218.58 78.3218C218.023 78.7859 217.436 79.1765 216.828 79.5015H218.585C219.102 79.5015 219.604 79.5685 220.081 79.6948C219.503 79.3277 218.995 78.8628 218.58 78.3218ZM179.583 70.0923C179.638 70.4123 179.668 70.7411 179.668 71.0767V74.395C179.668 75.1899 179.505 75.9769 179.19 76.7065L177.982 79.5015H180.384C180.652 79.5015 180.915 79.5202 181.173 79.5552C181.432 79.52 181.696 79.5015 181.964 79.5015H184.199C182.735 78.4438 181.781 76.7238 181.781 74.7798V70.98C181.031 70.7647 180.292 70.4751 179.583 70.0923ZM204.269 79.0796C204.105 79.2298 203.931 79.3707 203.75 79.5015H204.882C204.919 79.5015 204.955 79.5027 204.992 79.5034C204.747 79.3729 204.506 79.2318 204.269 79.0796ZM32.1958 79.0747C32.0296 79.2269 31.8544 79.3692 31.6714 79.5015H32.7192C32.5362 79.3692 32.3616 79.2266 32.1958 79.0747ZM88.8286 74.395V74.396V74.395ZM68.394 73.064C68.4086 73.0837 68.4251 73.1021 68.4399 73.1216C68.3693 73.029 68.3002 72.9347 68.2358 72.8364L68.394 73.064ZM36.4487 71.312C36.5594 71.3178 36.673 71.3208 36.7896 71.3208C36.6734 71.3208 36.5601 71.3179 36.4497 71.312L36.1265 71.2856L36.4487 71.312ZM86.5249 71.2778C86.4535 71.2829 86.38 71.2856 86.3042 71.2856L86.5249 71.2788C86.5961 71.2737 86.6651 71.2655 86.7319 71.2554L86.5249 71.2778ZM149.252 71.0063C149.346 71.0936 149.446 71.1704 149.553 71.2358L149.398 71.1294C149.348 71.0911 149.299 71.0501 149.252 71.0063ZM87.9155 70.5005C87.8544 70.6169 87.7831 70.7159 87.7017 70.7974L87.8169 70.6616C87.8524 70.6123 87.8851 70.5585 87.9155 70.5005ZM52.603 69.3228C52.5961 69.432 52.5866 69.5362 52.5728 69.6353L52.604 69.3228C52.6109 69.2137 52.6138 69.0992 52.6138 68.98L52.603 69.3228ZM139.772 65.9565C139.797 66.1967 139.809 66.4594 139.809 66.7446L139.8 66.3335C139.794 66.2018 139.784 66.0759 139.772 65.9556V65.9565ZM184.822 65.6372C184.863 65.6403 184.906 65.6406 184.948 65.6431C184.793 65.634 184.642 65.6229 184.495 65.606L184.822 65.6372ZM183.479 65.4126C183.512 65.4217 183.544 65.4325 183.578 65.4409C183.674 65.4654 183.772 65.4879 183.873 65.5083V65.5073C183.738 65.4798 183.607 65.4479 183.479 65.4126ZM173.956 56.0103C173.622 56.8296 173.108 57.5557 172.462 58.1392C172.821 58.8945 173.022 59.7389 173.022 60.6304L173.022 64.1245C173.022 64.5108 172.983 64.8882 172.912 65.2534H173.845C174.303 65.2534 174.748 65.3078 175.175 65.4077C174.277 63.5114 173.956 61.4573 173.956 59.5122V56.0103ZM118.433 44.9087C120.298 45.6462 121.71 47.3216 122.043 49.4038L124.58 65.2534L124.967 65.2534C125.303 65.2534 125.632 65.2829 125.952 65.3374V50.3237C125.952 48.0666 127.236 46.1103 129.114 45.144C128.898 45.0527 128.689 44.9473 128.488 44.8315C127.617 45.3298 126.623 45.603 125.597 45.603H121.719C120.619 45.603 119.582 45.294 118.697 44.7554C118.61 44.8081 118.523 44.8604 118.433 44.9087ZM182.755 65.1646C182.817 65.1909 182.88 65.2135 182.944 65.2378C182.792 65.1795 182.644 65.1177 182.502 65.0474L182.755 65.1646ZM139.142 64.3276C139.167 64.3523 139.192 64.3775 139.215 64.4038L139.143 64.3276C139.118 64.303 139.091 64.2793 139.064 64.2563L139.142 64.3276ZM138.708 64.0308L138.688 64.02C138.666 64.0099 138.643 64.0012 138.621 63.9917C138.651 64.0042 138.68 64.0171 138.708 64.0308ZM230.134 64.0308L230.114 64.02C230.092 64.0099 230.069 64.0012 230.046 63.9917C230.076 64.0042 230.106 64.0171 230.134 64.0308ZM138.56 63.9673C138.52 63.9519 138.478 63.9379 138.436 63.9243C138.478 63.9378 138.52 63.9519 138.56 63.9673ZM229.986 63.9673C229.946 63.9519 229.904 63.9379 229.862 63.9243C229.904 63.9378 229.946 63.9519 229.986 63.9673ZM138.386 63.9087C138.343 63.8959 138.299 63.8845 138.253 63.8735C138.299 63.8845 138.343 63.896 138.386 63.9087ZM229.812 63.9087C229.769 63.8959 229.725 63.8845 229.679 63.8735C229.725 63.8845 229.769 63.896 229.812 63.9087ZM234.041 63.0718C234.149 63.2181 234.246 63.3733 234.332 63.5376H234.333C234.247 63.3733 234.15 63.218 234.042 63.0718H234.041ZM87.2759 63.1978C87.3298 63.2233 87.3816 63.2511 87.4312 63.2817L87.2759 63.1968C87.2221 63.1713 87.166 63.1488 87.1079 63.1284L87.2759 63.1978ZM91.3989 62.2417C91.3825 62.2068 91.3652 62.1725 91.3481 62.1382C91.3652 62.1725 91.3825 62.2068 91.3989 62.2417ZM91.2847 62.0142C91.2651 61.9773 91.2454 61.9408 91.2251 61.9048C91.2455 61.9408 91.2651 61.9774 91.2847 62.0142ZM91.1089 61.7085C91.0892 61.6772 91.0677 61.6473 91.0474 61.6167C91.0677 61.6473 91.0892 61.6773 91.1089 61.7085ZM90.9702 61.5024C90.9592 61.487 90.9492 61.4709 90.938 61.4556C90.9262 61.4395 90.9128 61.4246 90.9009 61.4087C90.9241 61.4397 90.9477 61.4707 90.9702 61.5024ZM90.8228 61.3071C90.7979 61.276 90.7732 61.2447 90.7476 61.2144C90.7731 61.2448 90.7979 61.2759 90.8228 61.3071ZM90.4214 60.8638C90.4603 60.9014 90.4972 60.9409 90.5347 60.98C90.4375 60.8781 90.3366 60.7802 90.229 60.689L90.4214 60.8638ZM89.8091 60.3774C89.8829 60.4254 89.955 60.4749 90.0249 60.5269L89.8091 60.3765C89.7352 60.3285 89.6593 60.2828 89.5815 60.2388L89.8091 60.3774ZM89.0913 59.9985L88.8286 59.896C88.8144 59.8909 88.8 59.8863 88.7856 59.8813C88.8902 59.9177 88.9921 59.9568 89.0913 59.9985ZM88.6987 59.853C88.6509 59.8373 88.603 59.8208 88.5542 59.8062C88.5146 59.7943 88.4744 59.7831 88.4341 59.772C88.5242 59.7968 88.6122 59.8246 88.6987 59.853ZM87.6606 59.6089C87.9178 59.648 88.1632 59.6993 88.397 59.7622C88.1632 59.6991 87.9178 59.6471 87.6606 59.6079V59.6089ZM285.713 56.1235L285.706 55.8042C285.704 55.7742 285.701 55.7446 285.699 55.7153C285.707 55.8441 285.713 55.9801 285.713 56.1235ZM209.121 54.603C209.039 54.8094 208.981 55.0537 208.949 55.3354H208.95C208.982 55.0536 209.04 54.8095 209.122 54.603H209.121ZM209.44 54.0972C209.396 54.1407 209.356 54.1888 209.318 54.2407L209.441 54.0972C209.488 54.0506 209.536 54.0071 209.586 53.9663C209.536 54.0072 209.487 54.0505 209.44 54.0972ZM204.362 53.8179H204.363V50.3237H204.362V53.8179ZM73.2993 53.5474C73.4427 53.559 73.5782 53.5818 73.7056 53.6167H73.7065C73.5791 53.5817 73.4437 53.5581 73.3003 53.5464L73.2993 53.5474ZM146.143 51.854C146.087 51.9231 146.033 51.9941 145.981 52.0669H145.982C146.086 51.9214 146.198 51.7828 146.317 51.6519C146.257 51.7175 146.199 51.7848 146.143 51.854ZM173.686 47.5571C173.89 47.9342 174.052 48.3369 174.169 48.7583C174.528 47.4716 175.317 46.3655 176.372 45.603H173.686L173.686 47.5571ZM216.518 45.4556C217.233 45.8114 217.921 46.2545 218.567 46.7964C218.914 46.3408 219.328 45.9389 219.792 45.603H218.011C217.408 45.603 216.827 45.5113 216.28 45.3413L216.518 45.4556ZM143.162 45.603C143.445 45.7333 143.726 45.8779 144.001 46.0376C144.242 45.8812 144.487 45.7368 144.735 45.603H143.162ZM41.2798 45.603C41.4368 45.7164 41.5888 45.8368 41.7339 45.9653C41.8784 45.8374 42.0286 45.716 42.1851 45.603H41.2798ZM255.849 44.9272C256.465 45.1766 257.033 45.5277 257.527 45.9653C257.714 45.8 257.91 45.6465 258.117 45.5063C257.41 45.3766 256.745 45.1181 256.149 44.7554C256.051 44.8152 255.951 44.8733 255.849 44.9272ZM138.587 44.5308C138.825 44.5448 139.067 44.5657 139.31 44.5913C139.171 44.4965 139.037 44.3958 138.907 44.2896C138.804 44.374 138.696 44.4535 138.587 44.5308ZM26.7876 43.229C26.5911 43.4116 26.385 43.5894 26.1665 43.7583C26.1218 43.7928 26.0764 43.8267 26.0308 43.8599C25.7069 44.0954 25.3691 44.3098 25.019 44.5015H28.0718C27.5805 44.1464 27.147 43.7169 26.7876 43.229ZM225.989 43.4497C225.666 43.8472 225.291 44.201 224.875 44.5015L227.102 44.5015C226.686 44.201 226.312 43.8472 225.989 43.4497ZM96.8081 28.0718C96.9162 28.2181 97.0132 28.3733 97.0991 28.5376H97.1001C97.0142 28.3733 96.9171 28.218 96.8091 28.0718H96.8081ZM229.63 26.8765C229.528 26.9332 229.42 26.9812 229.303 27.019L229.472 26.9556C229.527 26.9319 229.579 26.9049 229.63 26.8765ZM95.5835 26.4116L95.5835 26.4126L95.5835 26.4116ZM226.525 24.7573C226.525 24.8165 226.528 24.8744 226.53 24.9312C226.528 24.8744 226.526 24.8165 226.526 24.7573V15.3237L226.525 24.7573ZM78.6216 18.5474C78.765 18.559 78.9004 18.5818 79.0278 18.6167L79.0288 18.6167C78.9014 18.5817 78.766 18.558 78.6226 18.5464L78.6216 18.5474ZM94.6157 15.7661C94.8736 15.8644 95.112 15.9788 95.3306 16.1099L95.106 15.9839C94.9517 15.9038 94.7884 15.8316 94.6167 15.7661H94.6157ZM81.6646 15.8042H81.6655H81.6646ZM141.598 87.8315C141.576 87.7904 141.554 87.7496 141.532 87.7095C141.555 87.7496 141.576 87.7905 141.598 87.8315ZM183.087 65.2905C183.211 65.3339 183.338 65.3732 183.468 65.4097C183.338 65.3735 183.211 65.3339 183.087 65.2905Z" fill="#6AA338"/>
</g>
<path d="M17.1214 36.2866C17.331 36.3099 17.5523 36.3215 17.7852 36.3215C18.0181 36.3215 18.2393 36.3215 18.449 36.3215C18.7518 36.3215 19.0313 36.2866 19.2875 36.2167C19.567 36.1468 19.7999 36.0187 19.9862 35.8324C20.1958 35.6461 20.3472 35.3782 20.4404 35.0289C20.5568 34.6795 20.6151 34.2369 20.6151 33.7012L15.0252 15.3244H18.8682L23.0956 29.6486L26.5893 15.3244L30.4323 15.3244L25.4014 33.3519C24.9589 35.0289 24.5047 36.3215 24.0389 37.2299C23.5963 38.1149 23.1189 38.7555 22.6065 39.1514C22.0941 39.5241 21.5351 39.7337 20.9295 39.7803C20.3472 39.8269 19.6951 39.8501 18.973 39.8501C18.6237 39.8501 18.3092 39.8501 18.0297 39.8501C17.7502 39.8501 17.4474 39.8269 17.1214 39.7803V36.2866ZM35.3213 39.7803H31.4783L31.4783 15.3244L43.6014 15.3244V39.7803H39.6884V18.8181H35.3213V39.7803ZM58.0917 39.7803H54.2137L53.5499 35.3433H48.8334L48.1696 39.7803H44.641L48.5539 15.3244H54.1788L58.0917 39.7803ZM49.3226 32.0243H53.0259L51.1742 19.6566L49.3226 32.0243ZM64.1803 30.0329L62.9925 32.2688L62.9925 39.7803H59.1494L59.1494 15.3244L62.9925 15.3244V25.9802L68.0932 15.3244L71.8664 15.3244L66.5211 26.2247L71.8664 39.7803H67.9186L64.1803 30.0329ZM76.4104 34.1554C76.4104 35.0405 76.5851 35.6694 76.9345 36.042C77.3071 36.3914 77.7962 36.5661 78.4018 36.5661C79.0074 36.5661 79.4849 36.3914 79.8342 36.042C80.2069 35.6694 80.3932 35.0405 80.3932 34.1554V20.9493C80.3932 20.0642 80.2069 19.447 79.8342 19.0976C79.4849 18.725 79.0074 18.5386 78.4018 18.5386C77.7962 18.5386 77.3071 18.725 76.9345 19.0976C76.5851 19.447 76.4104 20.0642 76.4104 20.9493V34.1554ZM72.5673 21.1938C72.5673 19.2141 73.0681 17.7001 74.0696 16.652C75.0712 15.5806 76.5152 15.0449 78.4018 15.0449C80.2884 15.0449 81.7325 15.5806 82.734 16.652C83.7355 17.7001 84.2363 19.2141 84.2363 21.1938V33.9109C84.2363 35.8906 83.7355 37.4162 82.734 38.4876C81.7325 39.5357 80.2884 40.0598 78.4018 40.0598C76.5152 40.0598 75.0712 39.5357 74.0696 38.4876C73.0681 37.4162 72.5673 35.8906 72.5673 33.9109V21.1938ZM91.7671 15.3244C93.7701 15.3244 95.2142 15.7903 96.0993 16.7219C97.0076 17.6536 97.4618 19.0627 97.4618 20.9493V21.8227C97.4618 23.0804 97.2638 24.1169 96.8679 24.9321C96.4719 25.7473 95.8431 26.3528 94.9813 26.7488C96.0294 27.1448 96.7631 27.7969 97.1823 28.7053C97.6249 29.5903 97.8461 30.685 97.8461 31.9893V33.9807C97.8461 35.8673 97.357 37.3114 96.3788 38.3129C95.4005 39.2912 93.9448 39.7803 92.0117 39.7803H85.9676V15.3244L91.7671 15.3244ZM89.8106 28.7751V36.2866H92.0117C92.6638 36.2866 93.1529 36.1119 93.479 35.7625C93.8284 35.4132 94.0031 34.7843 94.0031 33.8759V31.7448C94.0031 30.6035 93.8051 29.8233 93.4091 29.404C93.0365 28.9848 92.4076 28.7751 91.5225 28.7751H89.8106ZM89.8106 18.8181V25.2815H91.3129C92.0349 25.2815 92.5939 25.0951 92.9899 24.7225C93.4091 24.3498 93.6188 23.6744 93.6188 22.6961V21.3336C93.6188 20.4485 93.4557 19.808 93.1296 19.412C92.8269 19.0161 92.3377 18.8181 91.6623 18.8181H89.8106ZM104.459 30.0329L103.271 32.2688V39.7803H99.4278V15.3244H103.271V25.9802L108.372 15.3244H112.145L106.8 26.2247L112.145 39.7803H108.197L104.459 30.0329ZM125.598 39.7803L121.72 39.7803L121.056 35.3433H116.339L115.676 39.7803H112.147L116.06 15.3244L121.685 15.3244L125.598 39.7803ZM116.829 32.0243H120.532L118.68 19.6566L116.829 32.0243ZM135.225 39.7803H131.381V15.3244L141.548 15.3244V18.8181H135.225V39.7803ZM146.433 25.6308L151.708 25.6308V29.1245L146.433 29.1245V36.2866H153.071V39.7803L142.59 39.7803V15.3244L153.071 15.3244V18.8181H146.433V25.6308ZM160.311 15.3244C162.244 15.3244 163.677 15.8368 164.608 16.8617C165.563 17.8865 166.041 19.3888 166.041 21.3685V24.5478C166.041 26.5275 165.563 28.0298 164.608 29.0546C163.677 30.0795 162.244 30.5919 160.311 30.5919H158.494V39.7803H154.651V15.3244L160.311 15.3244ZM158.494 18.8181V27.0982H160.311C160.917 27.0982 161.383 26.9351 161.709 26.6091C162.035 26.283 162.198 25.6774 162.198 24.7923V21.124C162.198 20.2389 162.035 19.6333 161.709 19.3072C161.383 18.9812 160.917 18.8181 160.311 18.8181L158.494 18.8181ZM175.263 32.6881L177.884 15.3244H183.229V39.7803H179.596V22.2419L176.94 39.7803H173.307L170.442 22.4865V39.7803H167.088V15.3244H172.433L175.263 32.6881ZM189.168 25.6308H194.443V29.1245H189.168V36.2866H195.806V39.7803H185.325V15.3244L195.806 15.3244V18.8181H189.168V25.6308ZM196.338 15.3244L208.217 15.3244V18.8181H204.199V39.7803L200.356 39.7803V18.8181L196.338 18.8181V15.3244ZM213.225 39.7803H209.277V15.3244H212.701V29.963L216.649 15.3244L221.47 15.3244V39.7803H218.011V22.0673L213.225 39.7803ZM226.526 15.3244V24.7574C226.526 25.6425 226.701 26.2597 227.05 26.6091C227.423 26.9584 227.912 27.1331 228.517 27.1331C229.1 27.1331 229.565 26.9817 229.915 26.6789C230.264 26.3528 230.462 25.8055 230.509 25.0369V15.3244H234.352V39.7803H230.509V30.3822C230.183 30.4987 229.845 30.5802 229.496 30.6268C229.169 30.6501 228.808 30.6617 228.412 30.6617C226.526 30.6617 225.093 30.1377 224.115 29.0896C223.16 28.0182 222.683 26.4926 222.683 24.5128V15.3244L226.526 15.3244ZM240.28 39.7803H236.437V15.3244L240.28 15.3244V25.8055H244.647V15.3244L248.56 15.3244V39.7803H244.647V29.2992H240.28V39.7803ZM263.05 39.7803H259.172L258.508 35.3433H253.792L253.128 39.7803H249.599L253.512 15.3244L259.137 15.3244L263.05 39.7803ZM254.281 32.0243H257.984L256.132 19.6566L254.281 32.0243ZM20.0211 74.7803H16.0733L16.0733 50.3244H19.4971V64.963L23.4449 50.3244H28.2662L28.2662 74.7803H24.8075L24.8075 57.0673L20.0211 74.7803ZM36.1265 71.2866C36.3361 71.3099 36.5574 71.3215 36.7903 71.3215C37.0232 71.3215 37.2445 71.3215 37.4541 71.3215C37.7569 71.3215 38.0364 71.2866 38.2926 71.2167C38.5721 71.1468 38.805 71.0187 38.9913 70.8324C39.201 70.6461 39.3523 70.3782 39.4455 70.0289C39.562 69.6795 39.6202 69.2369 39.6202 68.7012L34.0303 50.3244L37.8734 50.3244L42.1007 64.6486L45.5944 50.3244H49.4375L44.4066 68.3519C43.964 70.0289 43.5098 71.3215 43.044 72.2299C42.6015 73.1149 42.124 73.7555 41.6116 74.1514C41.0992 74.5241 40.5402 74.7337 39.9346 74.7803C39.3523 74.8269 38.7002 74.8501 37.9782 74.8501C37.6288 74.8501 37.3144 74.8501 37.0349 74.8501C36.7554 74.8501 36.4526 74.8269 36.1265 74.7803V71.2866ZM49.0859 71.2866C49.2955 71.3099 49.5168 71.3215 49.7497 71.3215C49.9826 71.3215 50.2039 71.3215 50.4135 71.3215C51.0191 71.3215 51.5315 71.1701 51.9507 70.8673C52.3933 70.5646 52.6145 69.9357 52.6145 68.9807V50.3244H64.7726V71.2866H66.7291L66.7291 77.5752H62.8161V74.7803H52.9989V77.5752H49.0859L49.0859 71.2866ZM56.4576 68.7012C56.4576 69.7261 56.3528 70.5878 56.1432 71.2866H60.9295V53.8181H56.4576V68.7012ZM71.088 69.1554C71.088 70.0405 71.2627 70.6694 71.612 71.042C71.9847 71.3914 72.4738 71.5661 73.0794 71.5661C73.685 71.5661 74.1624 71.3914 74.5118 71.042C74.8845 70.6694 75.0708 70.0405 75.0708 69.1554V55.9493C75.0708 55.0642 74.8845 54.447 74.5118 54.0976C74.1624 53.725 73.685 53.5386 73.0794 53.5386C72.4738 53.5386 71.9847 53.725 71.612 54.0976C71.2627 54.447 71.088 55.0642 71.088 55.9493V69.1554ZM67.2449 56.1938C67.2449 54.2141 67.7457 52.7001 68.7472 51.652C69.7487 50.5806 71.1928 50.0449 73.0794 50.0449C74.966 50.0449 76.41 50.5806 77.4116 51.652C78.4131 52.7001 78.9139 54.2141 78.9139 56.1938V68.9109C78.9139 70.8906 78.4131 72.4162 77.4116 73.4876C76.41 74.5357 74.966 75.0598 73.0794 75.0598C71.1928 75.0598 69.7487 74.5357 68.7472 73.4876C67.7457 72.4162 67.2449 70.8906 67.2449 68.9109V56.1938ZM84.4882 59.5128H86.3049C88.2381 59.5128 89.6705 60.0252 90.6022 61.0501C91.5571 62.0749 92.0346 63.5772 92.0346 65.5569V68.7362C92.0346 70.7159 91.5571 72.2182 90.6022 73.243C89.6705 74.2679 88.2381 74.7803 86.3049 74.7803H80.6451L80.6451 50.3244H90.8118L90.8118 53.8181H84.4882V59.5128ZM86.3049 71.2866C86.9105 71.2866 87.3763 71.1235 87.7024 70.7975C88.0285 70.4714 88.1915 69.8658 88.1915 68.9807V65.3124C88.1915 64.4273 88.0285 63.8217 87.7024 63.4956C87.3763 63.1696 86.9105 63.0065 86.3049 63.0065H84.4882V71.2866H86.3049ZM97.4367 74.7803H93.5936L93.5936 50.3244H97.4367L97.4367 60.8055H101.804L101.804 50.3244H105.717L105.717 74.7803H101.804V64.2992H97.4367V74.7803ZM120.207 74.7803H116.329L115.665 70.3433L110.949 70.3433L110.285 74.7803H106.756L110.669 50.3244L116.294 50.3244L120.207 74.7803ZM111.438 67.0243L115.141 67.0243L113.29 54.6566L111.438 67.0243ZM124.968 71.077V74.7803H121.265V71.077H124.968ZM137.574 50.3244C139.577 50.3244 141.021 50.7903 141.906 51.7219C142.815 52.6536 143.269 54.0627 143.269 55.9493V56.8227C143.269 58.0804 143.071 59.1169 142.675 59.9321C142.279 60.7473 141.65 61.3528 140.788 61.7488C141.836 62.1448 142.57 62.7969 142.989 63.7053C143.432 64.5903 143.653 65.685 143.653 66.9893V68.9807C143.653 70.8673 143.164 72.3114 142.186 73.3129C141.207 74.2912 139.752 74.7803 137.819 74.7803H131.775V50.3244H137.574ZM135.618 63.7751V71.2866H137.819C138.471 71.2866 138.96 71.1119 139.286 70.7625C139.635 70.4132 139.81 69.7843 139.81 68.8759V66.7448C139.81 65.6035 139.612 64.8233 139.216 64.404C138.843 63.9848 138.215 63.7751 137.329 63.7751H135.618ZM135.618 53.8181V60.2815H137.12C137.842 60.2815 138.401 60.0951 138.797 59.7225C139.216 59.3498 139.426 58.6744 139.426 57.6961V56.3336C139.426 55.4485 139.263 54.808 138.937 54.412C138.634 54.0161 138.145 53.8181 137.469 53.8181H135.618ZM156.345 65.6617V68.9109C156.345 70.8906 155.856 72.4162 154.877 73.4876C153.922 74.5357 152.502 75.0598 150.615 75.0598C148.728 75.0598 147.296 74.5357 146.318 73.4876C145.363 72.4162 144.885 70.8906 144.885 68.9109V56.1938C144.885 54.2141 145.363 52.7001 146.318 51.652C147.296 50.5806 148.728 50.0449 150.615 50.0449C152.502 50.0449 153.922 50.5806 154.877 51.652C155.856 52.7001 156.345 54.2141 156.345 56.1938V58.5695H152.711V55.9493C152.711 55.0642 152.525 54.447 152.152 54.0976C151.803 53.725 151.325 53.5386 150.72 53.5386C150.114 53.5386 149.625 53.725 149.253 54.0976C148.903 54.447 148.728 55.0642 148.728 55.9493V69.1554C148.728 70.0405 148.903 70.6577 149.253 71.0071C149.625 71.3565 150.114 71.5311 150.72 71.5311C151.325 71.5311 151.803 71.3565 152.152 71.0071C152.525 70.6577 152.711 70.0405 152.711 69.1554V65.6617H156.345ZM161.924 60.6308H167.199V64.1245H161.924V71.2866H168.562V74.7803H158.081V50.3244H168.562V53.8181H161.924V60.6308ZM162.273 45.573V49.1366H158.71V45.573H162.273ZM167.863 45.573V49.1366H164.3V45.573H167.863ZM170.142 74.7803V71.077H173.846V74.396L172.169 78.274H170.597L171.61 74.7803H170.142ZM183.622 50.3244V59.7574C183.622 60.6425 183.796 61.2597 184.146 61.6091C184.518 61.9584 185.008 62.1331 185.613 62.1331C186.195 62.1331 186.661 61.9817 187.011 61.6789C187.36 61.3528 187.558 60.8055 187.605 60.0369V50.3244H191.448V74.7803H187.605V65.3822C187.278 65.4987 186.941 65.5802 186.591 65.6268C186.265 65.6501 185.904 65.6617 185.508 65.6617C183.622 65.6617 182.189 65.1377 181.211 64.0896C180.256 63.0182 179.779 61.4926 179.779 59.5128V50.3244H183.622ZM192.484 50.3244H204.363V53.8181H200.345V74.7803H196.502V53.8181H192.484V50.3244ZM208.917 69.1554C208.917 70.0405 209.092 70.6694 209.441 71.042C209.814 71.3914 210.303 71.5661 210.908 71.5661C211.514 71.5661 211.991 71.3914 212.341 71.042C212.713 70.6694 212.9 70.0405 212.9 69.1554V55.9493C212.9 55.0642 212.713 54.447 212.341 54.0976C211.991 53.725 211.514 53.5386 210.908 53.5386C210.303 53.5386 209.814 53.725 209.441 54.0976C209.092 54.447 208.917 55.0642 208.917 55.9493V69.1554ZM205.074 56.1938C205.074 54.2141 205.575 52.7001 206.576 51.652C207.578 50.5806 209.022 50.0449 210.908 50.0449C212.795 50.0449 214.239 50.5806 215.24 51.652C216.242 52.7001 216.743 54.2141 216.743 56.1938V68.9109C216.743 70.8906 216.242 72.4162 215.24 73.4876C214.239 74.5357 212.795 75.0598 210.908 75.0598C209.022 75.0598 207.578 74.5357 206.576 73.4876C205.575 72.4162 205.074 70.8906 205.074 68.9109V56.1938ZM229 50.3244C231.003 50.3244 232.447 50.7903 233.332 51.7219C234.24 52.6536 234.694 54.0627 234.694 55.9493V56.8227C234.694 58.0804 234.496 59.1169 234.1 59.9321C233.704 60.7473 233.076 61.3528 232.214 61.7488C233.262 62.1448 233.996 62.7969 234.415 63.7053C234.857 64.5903 235.079 65.685 235.079 66.9893V68.9807C235.079 70.8673 234.589 72.3114 233.611 73.3129C232.633 74.2912 231.177 74.7803 229.244 74.7803H223.2V50.3244H229ZM227.043 63.7751V71.2866H229.244C229.896 71.2866 230.385 71.1119 230.711 70.7625C231.061 70.4132 231.236 69.7843 231.236 68.8759V66.7448C231.236 65.6035 231.038 64.8233 230.642 64.404C230.269 63.9848 229.64 63.7751 228.755 63.7751H227.043ZM227.043 53.8181V60.2815H228.545C229.267 60.2815 229.826 60.0951 230.222 59.7225C230.642 59.3498 230.851 58.6744 230.851 57.6961V56.3336C230.851 55.4485 230.688 54.808 230.362 54.412C230.059 54.0161 229.57 53.8181 228.895 53.8181H227.043ZM240.503 74.7803H236.66V50.3244H240.503V60.8055H244.871V50.3244H248.783V74.7803H244.871V64.2992H240.503V74.7803ZM251.919 71.2866C252.129 71.3099 252.35 71.3215 252.583 71.3215C252.816 71.3215 253.037 71.3215 253.247 71.3215C253.55 71.3215 253.829 71.2866 254.085 71.2167C254.365 71.1468 254.598 71.0187 254.784 70.8324C254.994 70.6461 255.145 70.3782 255.238 70.0289C255.355 69.6795 255.413 69.2369 255.413 68.7012L249.823 50.3244H253.666L257.894 64.6486L261.387 50.3244H265.23L260.199 68.3519C259.757 70.0289 259.303 71.3215 258.837 72.2299C258.394 73.1149 257.917 73.7555 257.404 74.1514C256.892 74.5241 256.333 74.7337 255.727 74.7803C255.145 74.8269 254.493 74.8501 253.771 74.8501C253.422 74.8501 253.107 74.8501 252.828 74.8501C252.548 74.8501 252.245 74.8269 251.919 74.7803V71.2866ZM265.228 50.3244L277.107 50.3244V53.8181H273.089V74.7803L269.246 74.7803V53.8181H265.228V50.3244ZM283.827 50.3244C285.76 50.3244 287.192 50.8368 288.124 51.8617C289.079 52.8865 289.556 54.3888 289.556 56.3685V59.5478C289.556 61.5275 289.079 63.0298 288.124 64.0546C287.192 65.0795 285.76 65.5919 283.827 65.5919H282.01V74.7803H278.167V50.3244H283.827ZM282.01 53.8181V62.0982H283.827C284.432 62.0982 284.898 61.9351 285.224 61.6091C285.55 61.283 285.713 60.6774 285.713 59.7923V56.124C285.713 55.2389 285.55 54.6333 285.224 54.3072C284.898 53.9812 284.432 53.8181 283.827 53.8181H282.01ZM294.552 74.7803H290.604V50.3244H294.028V64.963L297.975 50.3244H302.797V74.7803H299.338V57.0673L294.552 74.7803ZM308.211 60.9802L343.148 60.9802V64.1245H308.211V60.9802ZM19.0429 85.3244V94.7574C19.0429 95.6425 19.2176 96.2597 19.567 96.6091C19.9396 96.9584 20.4287 97.1331 21.0343 97.1331C21.6166 97.1331 22.0824 96.9817 22.4318 96.6789C22.7811 96.3528 22.9791 95.8055 23.0257 95.0369V85.3244H26.8688L26.8688 109.78H23.0257L23.0257 100.382C22.6996 100.499 22.3619 100.58 22.0125 100.627C21.6865 100.65 21.3254 100.662 20.9295 100.662C19.0429 100.662 17.6105 100.138 16.6322 99.0896C15.6773 98.0182 15.1998 96.4926 15.1998 94.5128L15.1998 85.3244H19.0429ZM32.7966 95.6308H38.0721V99.1245H32.7966V106.287H39.4346V109.78H28.9535L28.9535 85.3244H39.4346V88.8181H32.7966V95.6308ZM52.1249 100.662V103.911C52.1249 105.891 51.6358 107.416 50.6575 108.488C49.7026 109.536 48.2818 110.06 46.3952 110.06C44.5086 110.06 43.0762 109.536 42.098 108.488C41.143 107.416 40.6656 105.891 40.6656 103.911V91.1938C40.6656 89.2141 41.143 87.7001 42.098 86.652C43.0762 85.5806 44.5086 85.0449 46.3952 85.0449C48.2818 85.0449 49.7026 85.5806 50.6575 86.652C51.6358 87.7001 52.1249 89.2141 52.1249 91.1938V93.5695H48.4914V90.9493C48.4914 90.0642 48.3051 89.447 47.9325 89.0976C47.5831 88.725 47.1056 88.5386 46.5 88.5386C45.8945 88.5386 45.4054 88.725 45.0327 89.0976C44.6833 89.447 44.5086 90.0642 44.5086 90.9493V104.155C44.5086 105.04 44.6833 105.658 45.0327 106.007C45.4054 106.356 45.8945 106.531 46.5 106.531C47.1056 106.531 47.5831 106.356 47.9325 106.007C48.3051 105.658 48.4914 105.04 48.4914 104.155V100.662H52.1249ZM52.813 85.3244L64.6915 85.3244V88.8181H60.6738V109.78H56.8307V88.8181L52.813 88.8181V85.3244ZM69.595 109.78H65.7519V85.3244H69.595V95.8055H73.9621V85.3244H77.875V109.78H73.9621V99.2992H69.595V109.78ZM83.4565 104.155C83.4565 105.04 83.6312 105.669 83.9805 106.042C84.3532 106.391 84.8423 106.566 85.4479 106.566C86.0535 106.566 86.5309 106.391 86.8803 106.042C87.253 105.669 87.4393 105.04 87.4393 104.155V90.9493C87.4393 90.0642 87.253 89.447 86.8803 89.0976C86.5309 88.725 86.0535 88.5386 85.4479 88.5386C84.8423 88.5386 84.3532 88.725 83.9805 89.0976C83.6312 89.447 83.4565 90.0642 83.4565 90.9493V104.155ZM79.6134 91.1938C79.6134 89.2141 80.1142 87.7001 81.1157 86.652C82.1172 85.5806 83.5613 85.0449 85.4479 85.0449C87.3345 85.0449 88.7785 85.5806 89.7801 86.652C90.7816 87.7001 91.2824 89.2141 91.2824 91.1938V103.911C91.2824 105.891 90.7816 107.416 89.7801 108.488C88.7785 109.536 87.3345 110.06 85.4479 110.06C83.5613 110.06 82.1172 109.536 81.1157 108.488C80.1142 107.416 79.6134 105.891 79.6134 103.911V91.1938ZM101.688 109.78H97.7397V85.3244H101.163V99.963L105.111 85.3244H109.933V109.78H106.474V92.0673L101.688 109.78ZM120.588 109.78H116.745V85.3244H128.868V109.78H124.955V88.8181H120.588V109.78ZM136.615 85.3244C138.549 85.3244 139.981 85.8368 140.913 86.8617C141.868 87.8865 142.345 89.3888 142.345 91.3685V94.5478C142.345 96.5275 141.868 98.0298 140.913 99.0546C139.981 100.079 138.549 100.592 136.615 100.592H134.799V109.78L130.956 109.78V85.3244L136.615 85.3244ZM134.799 88.8181V97.0982H136.615C137.221 97.0982 137.687 96.9351 138.013 96.6091C138.339 96.283 138.502 95.6774 138.502 94.7923V91.124C138.502 90.2389 138.339 89.6333 138.013 89.3072C137.687 88.9812 137.221 88.8181 136.615 88.8181H134.799ZM146.886 104.155C146.886 105.04 147.061 105.669 147.41 106.042C147.783 106.391 148.272 106.566 148.878 106.566C149.483 106.566 149.961 106.391 150.31 106.042C150.683 105.669 150.869 105.04 150.869 104.155L150.869 90.9493C150.869 90.0642 150.683 89.447 150.31 89.0976C149.961 88.725 149.483 88.5386 148.878 88.5386C148.272 88.5386 147.783 88.725 147.41 89.0976C147.061 89.447 146.886 90.0642 146.886 90.9493L146.886 104.155ZM143.043 91.1938C143.043 89.2141 143.544 87.7001 144.545 86.652C145.547 85.5806 146.991 85.0449 148.878 85.0449C150.764 85.0449 152.208 85.5806 153.21 86.652C154.211 87.7001 154.712 89.2141 154.712 91.1938L154.712 103.911C154.712 105.891 154.211 107.416 153.21 108.488C152.208 109.536 150.764 110.06 148.878 110.06C146.991 110.06 145.547 109.536 144.545 108.488C143.544 107.416 143.043 105.891 143.043 103.911L143.043 91.1938ZM162.243 85.3244C164.246 85.3244 165.69 85.7903 166.575 86.7219C167.483 87.6536 167.938 89.0627 167.938 90.9493V91.8227C167.938 93.0804 167.74 94.1169 167.344 94.9321C166.948 95.7473 166.319 96.3528 165.457 96.7488C166.505 97.1448 167.239 97.7969 167.658 98.7053C168.101 99.5903 168.322 100.685 168.322 101.989V103.981C168.322 105.867 167.833 107.311 166.854 108.313C165.876 109.291 164.421 109.78 162.487 109.78H156.443L156.443 85.3244H162.243ZM160.286 98.7751V106.287H162.487C163.139 106.287 163.629 106.112 163.955 105.763C164.304 105.413 164.479 104.784 164.479 103.876V101.745C164.479 100.604 164.281 99.8233 163.885 99.404C163.512 98.9848 162.883 98.7751 161.998 98.7751H160.286ZM160.286 88.8181L160.286 95.2815H161.789C162.511 95.2815 163.07 95.0951 163.466 94.7225C163.885 94.3498 164.094 93.6744 164.094 92.6961L164.094 91.3336C164.094 90.4485 163.931 89.808 163.605 89.412C163.303 89.0161 162.813 88.8181 162.138 88.8181H160.286ZM173.747 95.6308H179.022V99.1245H173.747V106.287H180.385V109.78H169.904L169.904 85.3244H180.385V88.8181H173.747L173.747 95.6308ZM187.625 85.3244C189.558 85.3244 190.99 85.8368 191.922 86.8617C192.877 87.8865 193.354 89.3888 193.354 91.3685L193.354 94.5478C193.354 96.5275 192.877 98.0298 191.922 99.0546C190.99 100.079 189.558 100.592 187.625 100.592H185.808V109.78H181.965L181.965 85.3244H187.625ZM185.808 88.8181L185.808 97.0982H187.625C188.23 97.0982 188.696 96.9351 189.022 96.6091C189.348 96.283 189.511 95.6774 189.511 94.7923L189.511 91.124C189.511 90.2389 189.348 89.6333 189.022 89.3072C188.696 88.9812 188.23 88.8181 187.625 88.8181H185.808ZM198.245 95.6308H203.52V99.1245H198.245V106.287H204.883V109.78H194.402L194.402 85.3244H204.883V88.8181H198.245L198.245 95.6308ZM210.306 109.78H206.463L206.463 85.3244H210.306L210.306 95.8055L214.673 95.8055L214.673 85.3244H218.586L218.586 109.78H214.673V99.2992L210.306 99.2992V109.78ZM224.168 104.155C224.168 105.04 224.342 105.669 224.692 106.042C225.064 106.391 225.553 106.566 226.159 106.566C226.765 106.566 227.242 106.391 227.591 106.042C227.964 105.669 228.15 105.04 228.15 104.155L228.15 90.9493C228.15 90.0642 227.964 89.447 227.591 89.0976C227.242 88.725 226.765 88.5386 226.159 88.5386C225.553 88.5386 225.064 88.725 224.692 89.0976C224.342 89.447 224.168 90.0642 224.168 90.9493L224.168 104.155ZM220.325 91.1938C220.325 89.2141 220.825 87.7001 221.827 86.652C222.828 85.5806 224.272 85.0449 226.159 85.0449C228.046 85.0449 229.49 85.5806 230.491 86.652C231.493 87.7001 231.994 89.2141 231.994 91.1938L231.994 103.911C231.994 105.891 231.493 107.416 230.491 108.488C229.49 109.536 228.046 110.06 226.159 110.06C224.272 110.06 222.828 109.536 221.827 108.488C220.825 107.416 220.325 105.891 220.325 103.911L220.325 91.1938Z" fill="white"/>
<defs>
<filter id="filter0_ii_2060_19298" x="6.29025" y="6.30978" width="345.591" height="112.484" filterUnits="userSpaceOnUse" color-interpolation-filters="sRGB">
<feFlood flood-opacity="0" result="BackgroundImageFix"/>
<feBlend mode="normal" in="SourceGraphic" in2="BackgroundImageFix" result="shape"/>
<feColorMatrix in="SourceAlpha" type="matrix" values="0 0 0 0 0 0 0 0 0 0 0 0 0 0 0 0 0 0 127 0" result="hardAlpha"/>
<feOffset dx="-2.91141" dy="-2.91141"/>
<feGaussianBlur stdDeviation="1.4557"/>
<feComposite in2="hardAlpha" operator="arithmetic" k2="-1" k3="1"/>
<feColorMatrix type="matrix" values="0 0 0 0 0.317647 0 0 0 0 0.490196 0 0 0 0 0.168627 0 0 0 1 0"/>
<feBlend mode="normal" in2="shape" result="effect1_innerShadow_2060_19298"/>
<feColorMatrix in="SourceAlpha" type="matrix" values="0 0 0 0 0 0 0 0 0 0 0 0 0 0 0 0 0 0 127 0" result="hardAlpha"/>
<feOffset dx="2.91141" dy="2.91141"/>
<feGaussianBlur stdDeviation="1.4557"/>
<feComposite in2="hardAlpha" operator="arithmetic" k2="-1" k3="1"/>
<feColorMatrix type="matrix" values="0 0 0 0 0.607843 0 0 0 0 0.803922 0 0 0 0 0.435294 0 0 0 1 0"/>
<feBlend mode="normal" in2="effect1_innerShadow_2060_19298" result="effect2_innerShadow_2060_19298"/>
</filter>
</defs>
</svg>
