<svg width="816" height="236" viewBox="0 0 816 236" fill="none" xmlns="http://www.w3.org/2000/svg">
<path d="M0 104.274L31.3727 88.4226L36.0345 97.6505L25.4232 103.012L53.3943 158.38L43.2444 163.508L15.2732 108.141L4.66186 113.502L0 104.274Z" fill="#1C1456"/>
<path d="M77.0526 135.627C78.6944 134.909 79.764 133.915 80.2614 132.644C80.7588 131.373 80.4828 129.538 79.4333 127.138L75.0838 117.192C74.0343 114.792 72.8743 113.344 71.6036 112.846C70.333 112.349 68.8767 112.459 67.235 113.177L62.3096 115.331L72.1272 137.781L77.0526 135.627ZM65.8507 151.811L36.8535 85.5031L47.2725 80.9461L58.1672 105.859L63.0925 103.705C68.3336 101.412 72.8246 101.103 76.5655 102.777C80.3696 104.423 83.4453 107.93 85.7927 113.298L89.5624 121.918C91.9098 127.286 92.3965 131.925 91.0227 135.836C89.712 139.719 86.4361 142.807 81.195 145.1L65.8507 151.811ZM72.8464 69.7606L83.2654 65.2035L112.263 131.511L101.844 136.068L72.8464 69.7606Z" fill="#1C1456"/>
<path d="M138.102 74.035L143.197 72.3212C148.619 70.4976 153.12 70.5835 156.7 72.5792C160.345 74.5529 163.101 78.3162 164.968 83.8693L167.967 92.7868C169.835 98.3398 169.913 103.004 168.201 106.779C166.555 110.533 163.021 113.321 157.599 115.145L141.725 120.484L118.656 51.8877L147.171 42.297L150.466 52.0965L132.73 58.0618L138.102 74.035ZM154.303 105.345C156.002 104.774 157.154 103.877 157.761 102.655C158.368 101.433 158.254 99.5806 157.419 97.0981L153.959 86.8086C153.124 84.3261 152.096 82.7813 150.874 82.1743C149.652 81.5673 148.191 81.5494 146.493 82.1207L141.398 83.8345L149.208 107.059L154.303 105.345Z" fill="#1C1456"/>
<path d="M176.535 98.0404C177.151 97.9386 177.79 97.7943 178.454 97.6074C179.117 97.4206 179.747 97.2431 180.345 97.0749C181.207 96.832 181.975 96.5083 182.649 96.1037C183.389 95.6805 183.949 95.1287 184.331 94.4485C184.778 93.7496 184.995 92.8652 184.98 91.7953C185.031 90.7067 184.842 89.3994 184.412 87.8735L153.75 40.0116L164.696 36.9287L188.227 74.3396L186.688 30.7348L197.634 27.6519L197.765 83.0387C197.85 88.1705 197.593 92.217 196.995 95.1781C196.444 98.0542 195.598 100.262 194.456 101.801C193.296 103.273 191.872 104.319 190.184 104.937C188.563 105.537 186.724 106.127 184.668 106.706C183.673 106.986 182.777 107.238 181.981 107.462C181.185 107.687 180.304 107.863 179.338 107.992L176.535 98.0404Z" fill="#1C1456"/>
<path d="M211.669 87.8943C212.289 87.8278 212.936 87.7203 213.609 87.5717C214.282 87.4231 214.921 87.2819 215.527 87.1481C217.277 86.7617 218.661 85.9973 219.679 84.8548C220.764 83.6975 221.002 81.7391 220.393 78.9796L208.49 25.0688L243.62 17.3109L256.995 77.8848L262.648 76.6364L266.66 94.8086L255.354 97.3054L253.571 89.2289L225.204 95.4931L226.987 103.57L215.681 106.066L211.669 87.8943ZM231.319 75.7197C231.973 78.6811 232.22 81.2382 232.06 83.3911L245.89 80.337L234.745 29.8588L221.823 32.7122L231.319 75.7197Z" fill="#1C1456"/>
<path d="M280.808 73.7658C282.575 73.4709 283.855 72.7682 284.648 71.6576C285.441 70.547 285.622 68.7 285.191 66.1165L283.405 55.4087C282.974 52.8252 282.204 51.1369 281.093 50.3439C279.983 49.5509 278.544 49.3018 276.776 49.5967L271.474 50.4813L275.505 74.6504L280.808 73.7658ZM265.989 86.7196L254.082 15.3341L265.299 13.4628L269.773 40.2834L275.075 39.3987C280.718 38.4574 285.148 39.2556 288.366 41.7934C291.652 44.3198 293.777 48.4724 294.741 54.2512L296.289 63.5313C297.253 69.3102 296.591 73.9278 294.303 77.3841C292.083 80.8292 288.151 83.0224 282.509 83.9637L265.989 86.7196Z" fill="#1C1456"/>
<path d="M331.116 35.2412L346.659 33.7812L347.625 44.0747L332.083 45.5347L334.065 66.6365L353.621 64.7994L354.588 75.0929L323.71 77.9936L316.942 5.93878L347.821 3.03813L348.787 13.3317L329.231 15.1688L331.116 35.2412Z" fill="#1C1456"/>
<path d="M390.058 46.1585L390.532 55.762C390.82 61.6136 389.597 66.194 386.862 69.5033C384.193 72.7404 380.07 74.4964 374.494 74.7714C368.918 75.0464 364.608 73.7062 361.565 70.7509C358.586 67.7233 356.953 63.2838 356.664 57.4322L354.81 19.8445C354.522 13.9929 355.712 9.44856 358.382 6.21148C361.117 2.90218 365.272 1.11004 370.848 0.835063C376.424 0.560091 380.701 1.93638 383.679 4.96392C386.723 7.91923 388.389 12.3227 388.678 18.1742L389.024 25.1961L378.286 25.7257L377.904 17.981C377.775 15.365 377.134 13.5678 375.982 12.5895C374.895 11.539 373.457 11.0578 371.667 11.1461C369.877 11.2343 368.459 11.8564 367.412 13.0122C366.43 14.0957 366.004 15.9455 366.133 18.5615L368.058 57.5949C368.187 60.2109 368.793 62.0097 369.876 62.9915C371.029 63.9698 372.5 64.4148 374.29 64.3265C376.079 64.2383 377.465 63.6524 378.447 62.5688C379.497 61.4819 379.958 59.6304 379.829 57.0144L379.32 46.6881L390.058 46.1585Z" fill="#1C1456"/>
<path d="M392.591 0.595337L427.74 0.422161L427.791 10.7609L415.902 10.8195L416.208 72.8518L404.836 72.9079L404.53 10.8755L392.642 10.9341L392.591 0.595337Z" fill="#1C1456"/>
<path d="M446.422 31.5031L462.02 32.1183L461.613 42.4491L446.014 41.8339L445.179 63.0121L464.806 63.7862L464.399 74.117L433.409 72.8948L436.261 0.579041L467.251 1.80126L466.843 12.1321L447.216 11.358L446.422 31.5031Z" fill="#1C1456"/>
<path d="M503.389 50.2102L502.584 59.7916C502.094 65.6297 500.274 70.0074 497.124 72.9245C494.048 75.7788 489.729 76.9724 484.166 76.5051C478.603 76.0379 474.509 74.1378 471.885 70.8048C469.334 67.4088 468.304 62.7918 468.794 56.9537L471.944 19.4523C472.434 13.6142 474.217 9.26796 477.293 6.41368C480.442 3.49649 484.799 2.2715 490.362 2.73871C495.925 3.20593 499.981 5.1375 502.532 8.53345C505.157 11.8665 506.224 16.4521 505.734 22.2902L505.145 29.2959L494.432 28.3961L495.08 20.6692C495.3 18.0592 494.903 16.1929 493.891 15.0704C492.953 13.8849 491.591 13.2172 489.805 13.0672C488.02 12.9173 486.531 13.3456 485.34 14.3523C484.224 15.296 483.556 17.0729 483.336 19.6828L480.066 58.6266C479.846 61.2366 480.209 63.0999 481.152 64.2167C482.165 65.3393 483.564 65.9755 485.349 66.1255C487.135 66.2755 488.586 65.8786 489.703 64.9348C490.888 63.9969 491.591 62.2229 491.81 59.6129L492.675 49.3103L503.389 50.2102Z" fill="#1C1456"/>
<path d="M512.031 5.46344L546.892 9.95812L545.57 20.2121L533.779 18.6918L525.848 80.2158L514.569 78.7616L522.501 17.2377L510.709 15.7174L512.031 5.46344Z" fill="#1C1456"/>
<path d="M567.933 13.5109C573.772 14.5296 577.745 16.622 579.851 19.7882C582.025 22.9662 582.632 27.3051 581.673 32.805L581.229 35.3513C580.589 39.0179 579.485 41.9387 577.916 44.1139C576.347 46.289 574.206 47.7346 571.493 48.4506C574.347 50.1379 576.154 52.4123 576.914 55.2736C577.754 58.0789 577.842 61.3827 577.179 65.1851L576.166 70.9906C575.207 76.4905 573.046 80.4516 569.686 82.8737C566.336 85.228 561.844 85.9136 556.209 84.9304L538.59 81.8564L551.027 10.5613L567.933 13.5109ZM555.39 51.7281L551.57 73.6259L557.986 74.7454C559.887 75.077 561.401 74.8166 562.53 73.9639C563.726 73.1231 564.555 71.3786 565.017 68.7305L566.101 62.5176C566.681 59.1905 566.501 56.8152 565.56 55.3916C564.686 53.9799 562.96 53.0489 560.38 52.5988L555.39 51.7281ZM560.453 22.7008L557.166 41.5431L561.546 42.3072C563.65 42.6744 565.375 42.4155 566.718 41.5305C568.13 40.6573 569.084 38.7948 569.582 35.943L570.275 31.9708C570.725 29.3906 570.575 27.4404 569.826 26.1203C569.145 24.812 567.82 23.9861 565.851 23.6426L560.453 22.7008Z" fill="#1C1456"/>
<path d="M599.757 50.8211L614.992 54.2252L612.738 64.3153L597.503 60.9112L592.882 81.5959L612.052 85.8791L609.797 95.9692L579.53 89.2062L595.309 18.5756L625.576 25.3386L623.322 35.4287L604.153 31.1455L599.757 50.8211Z" fill="#1C1456"/>
<path d="M621.273 98.9824L610.297 96.0087L629.219 26.1545L640.195 29.1283L632.085 59.0657L644.558 62.445L652.668 32.5075L663.844 35.5353L644.922 105.389L633.746 102.362L641.855 72.4241L629.382 69.0449L621.273 98.9824Z" fill="#1C1456"/>
<path d="M663.24 111.118L652.435 107.573L674.988 38.8057L685.794 42.3501L676.128 71.8219L688.407 75.8496L698.073 46.3778L709.075 49.9866L686.521 118.754L675.519 115.145L685.185 85.6735L672.906 81.6458L663.24 111.118Z" fill="#1C1456"/>
<path d="M711.41 117.031C713.076 117.69 714.536 117.749 715.788 117.208C717.04 116.666 718.149 115.177 719.113 112.742L723.11 102.649C724.074 100.214 724.285 98.3698 723.743 97.1173C723.202 95.8649 722.098 94.9087 720.432 94.2489L715.433 92.2694L706.412 115.051L711.41 117.031ZM692.033 120.476L718.678 53.1885L729.251 57.3759L719.24 82.6569L724.238 84.6364C729.556 86.7428 732.939 89.7133 734.386 93.5481C735.896 97.4083 735.573 102.062 733.416 107.509L729.952 116.256C727.795 121.704 724.845 125.317 721.101 127.096C717.422 128.9 712.922 128.75 707.604 126.643L692.033 120.476ZM755.203 67.654L765.775 71.8414L739.131 139.129L728.558 134.942L755.203 67.654Z" fill="#1C1456"/>
<path d="M772.697 131.684L801.707 88.5704L816 95.3444L785.01 160.744L775.295 156.14L797.519 109.239L768.194 152.775L758.479 148.17L772.733 98.2926L750.818 144.54L741.85 140.289L772.84 74.8893L787.133 81.6634L772.697 131.684Z" fill="#1C1456"/>
<path d="M789.862 163.54L794.977 153.848L804.668 158.962L800.085 167.649L790.341 175.482L786.226 173.311L793.703 165.567L789.862 163.54Z" fill="#1C1456"/>
<path d="M133.497 221.158L122.849 225.437L116.131 213.986L103.181 219.191L106.254 232.106L96.5656 236L80.3267 164.529L95.7706 158.323L133.497 221.158ZM100.862 209.537L111.03 205.451L92.3008 173.534L100.862 209.537Z" fill="#1C1456"/>
<path d="M180.045 177.199L182.95 186.364C184.72 191.949 184.704 196.69 182.903 200.587C181.146 204.398 177.607 207.146 172.286 208.833C166.964 210.52 162.455 210.323 158.759 208.241C155.107 206.072 152.396 202.195 150.626 196.61L139.256 160.736C137.486 155.151 137.48 150.453 139.236 146.643C141.038 142.746 144.599 139.954 149.921 138.267C155.242 136.58 159.729 136.821 163.381 138.989C167.077 141.071 169.81 144.905 171.58 150.49L173.704 157.192L163.455 160.44L161.113 153.049C160.321 150.552 159.244 148.977 157.88 148.325C156.562 147.586 155.048 147.487 153.34 148.029C151.632 148.57 150.419 149.533 149.701 150.918C149.028 152.216 149.087 154.113 149.878 156.61L161.685 193.864C162.476 196.361 163.521 197.946 164.819 198.619C166.182 199.271 167.718 199.327 169.426 198.785C171.135 198.244 172.325 197.324 172.998 196.026C173.737 194.707 173.711 192.8 172.92 190.303L169.796 180.447L180.045 177.199Z" fill="#1C1456"/>
<path d="M205.825 187.309C207.562 186.867 208.778 186.059 209.475 184.885C210.171 183.712 210.196 181.856 209.549 179.318L206.868 168.799C206.221 166.261 205.311 164.643 204.137 163.947C202.964 163.25 201.509 163.123 199.773 163.566L194.563 164.894L200.616 188.638L205.825 187.309ZM192.151 201.465L174.273 131.337L185.293 128.527L192.01 154.876L197.219 153.547C202.762 152.134 207.244 152.556 210.664 154.814C214.151 157.055 216.619 161.013 218.066 166.691L220.39 175.807C221.837 181.484 221.566 186.141 219.577 189.778C217.655 193.398 213.922 195.915 208.379 197.328L192.151 201.465ZM212.34 121.631L223.36 118.822L241.237 188.95L230.218 191.76L212.34 121.631Z" fill="#1C1456"/>
<path d="M249.809 113.587C255.424 112.492 259.874 113.17 263.161 115.619C266.514 118.055 268.752 122.148 269.873 127.898L271.673 137.133C272.794 142.883 272.257 147.517 270.064 151.035C267.939 154.539 264.068 156.838 258.454 157.933L253.177 158.962L258.38 185.651L247.218 187.827L233.371 116.792L249.809 113.587ZM246.511 124.764L251.199 148.814L256.476 147.785C258.234 147.442 259.495 146.705 260.257 145.573C261.02 144.441 261.151 142.59 260.649 140.019L258.572 129.364C258.071 126.793 257.255 125.127 256.123 124.364C254.991 123.602 253.546 123.392 251.787 123.735L246.511 124.764Z" fill="#1C1456"/>
<path d="M317.714 175.944L306.418 177.259L298.052 105.372L333.684 101.225L342.05 173.112L330.549 174.45L323.378 112.833L310.543 114.327L317.714 175.944Z" fill="#1C1456"/>
<path d="M358.045 155.215C358.219 157.829 358.858 159.651 359.963 160.683C361.132 161.641 362.611 162.061 364.399 161.942C366.187 161.822 367.562 161.213 368.525 160.112C369.552 158.939 369.978 157.045 369.804 154.432L367.206 115.437C367.032 112.824 366.36 111.038 365.191 110.08C364.087 109.048 362.64 108.592 360.852 108.711C359.064 108.83 357.657 109.477 356.63 110.65C355.667 111.751 355.273 113.608 355.447 116.221L358.045 155.215ZM344.148 117.699C343.759 111.853 344.939 107.285 347.69 103.993C350.436 100.632 354.595 98.7663 360.165 98.3952C365.735 98.024 370.104 99.3217 373.272 102.288C376.435 105.186 378.211 109.558 378.601 115.404L381.103 152.954C381.492 158.799 380.314 163.403 377.568 166.763C374.817 170.055 370.656 171.886 365.086 172.258C359.516 172.629 355.149 171.365 351.986 168.468C348.818 165.501 347.04 161.095 346.65 155.249L344.148 117.699Z" fill="#1C1456"/>
<path d="M378.981 159.788C379.603 159.848 380.258 159.873 380.947 159.863C381.636 159.852 382.291 159.843 382.911 159.834C384.703 159.807 386.212 159.337 387.439 158.422C388.735 157.507 389.363 155.637 389.321 152.811L388.505 97.6076L424.477 97.0759L425.394 159.102L431.183 159.017L431.458 177.625L419.88 177.796L419.758 169.526L390.711 169.955L390.834 178.225L379.256 178.396L378.981 159.788ZM400.679 151.816C400.724 154.848 400.452 157.403 399.862 159.48L414.023 159.27L413.259 107.582L400.028 107.777L400.679 151.816Z" fill="#1C1456"/>
<path d="M469.071 143.945L468.692 153.552C468.461 159.406 466.837 163.861 463.82 166.915C460.874 169.903 456.612 171.286 451.034 171.066C445.456 170.846 441.281 169.13 438.511 165.916C435.813 162.637 434.579 158.07 434.81 152.216L436.293 114.612C436.524 108.758 438.112 104.337 441.058 101.349C444.075 98.2948 448.373 96.8778 453.951 97.0978C459.529 97.3178 463.668 99.0675 466.366 102.347C469.136 105.56 470.406 110.094 470.175 115.948L469.898 122.973L459.155 122.549L459.46 114.801C459.564 112.184 459.085 110.337 458.024 109.261C457.034 108.118 455.644 107.511 453.853 107.441C452.063 107.37 450.595 107.864 449.45 108.923C448.376 109.915 447.787 111.72 447.684 114.337L446.144 153.387C446.041 156.004 446.485 157.85 447.478 158.924C448.539 160 449.965 160.574 451.755 160.645C453.546 160.715 454.978 160.254 456.052 159.262C457.194 158.272 457.817 156.469 457.92 153.852L458.328 143.521L469.071 143.945Z" fill="#1C1456"/>
<path d="M475.743 98.862L510.769 101.804L509.904 112.106L498.057 111.111L492.865 172.927L481.533 171.975L486.725 110.16L474.878 109.165L475.743 98.862Z" fill="#1C1456"/>
<path d="M530.27 104.207C535.945 104.925 539.96 106.961 542.315 110.315C544.738 113.678 545.582 118.266 544.847 124.079L543.667 133.413C542.933 139.225 540.973 143.459 537.79 146.113C534.674 148.776 530.279 149.749 524.604 149.031L519.271 148.357L515.861 175.333L504.579 173.907L513.654 102.107L530.27 104.207ZM523.64 113.79L520.567 138.1L525.9 138.774C527.678 138.999 529.106 138.693 530.184 137.857C531.263 137.02 531.966 135.303 532.295 132.704L533.656 121.934C533.984 119.336 533.73 117.497 532.894 116.419C532.058 115.341 530.751 114.689 528.973 114.464L523.64 113.79Z" fill="#1C1456"/>
<path d="M555.884 164.233C555.434 166.813 555.624 168.735 556.453 169.999C557.361 171.207 558.698 171.965 560.463 172.273C562.229 172.581 563.709 172.315 564.906 171.474C566.181 170.577 567.044 168.839 567.494 166.258L574.21 127.759C574.661 125.179 574.431 123.285 573.523 122.077C572.694 120.813 571.397 120.027 569.631 119.719C567.866 119.411 566.346 119.705 565.07 120.602C563.874 121.443 563.05 123.153 562.6 125.734L555.884 164.233ZM551.273 124.492C552.28 118.72 554.51 114.562 557.962 112.015C561.427 109.401 565.909 108.574 571.408 109.534C576.908 110.493 580.845 112.789 583.219 116.422C585.606 119.987 586.295 124.655 585.289 130.427L578.821 167.5C577.815 173.272 575.579 177.464 572.115 180.078C568.662 182.625 564.186 183.418 558.687 182.458C553.187 181.499 549.244 179.237 546.858 175.672C544.483 172.039 543.799 167.337 544.806 161.565L551.273 124.492Z" fill="#1C1456"/>
<path d="M589.091 187.449L577.69 184.902L593.469 114.271L603.356 116.48L593.911 158.758L614.757 119.028L628.68 122.139L612.901 192.769L602.913 190.538L614.341 139.381L589.091 187.449Z" fill="#1C1456"/>
<path d="M635.107 123.669L669.011 132.945L666.283 142.917L654.816 139.78L638.448 199.614L627.479 196.613L643.847 136.779L632.379 133.641L635.107 123.669Z" fill="#1C1456"/>
<path d="M692.809 188.132L689.858 197.283C688.06 202.859 685.297 206.712 681.569 208.841C677.928 210.925 673.451 211.111 668.138 209.398C662.825 207.684 659.267 204.907 657.463 201.067C655.747 197.182 655.788 192.452 657.586 186.876L669.135 151.058C670.933 145.482 673.652 141.652 677.293 139.567C681.021 137.438 685.542 137.23 690.855 138.944C696.168 140.657 699.683 143.456 701.399 147.341C703.202 151.182 703.205 155.89 701.407 161.466L699.25 168.157L689.017 164.857L691.396 157.477C692.2 154.984 692.236 153.077 691.504 151.754C690.858 150.387 689.683 149.429 687.977 148.879C686.272 148.329 684.725 148.409 683.337 149.121C682.036 149.787 680.984 151.367 680.18 153.86L668.187 191.055C667.383 193.547 667.314 195.444 667.981 196.746C668.713 198.068 669.932 199.004 671.638 199.554C673.343 200.104 674.846 200.046 676.148 199.379C677.514 198.734 678.6 197.165 679.403 194.672L682.576 184.832L692.809 188.132Z" fill="#1C1456"/>
<path d="M727.101 163.376C725.23 162.673 723.637 162.7 722.322 163.457C721.071 164.239 719.985 165.855 719.063 168.307L716.554 174.985C715.535 177.695 715.381 179.772 716.09 181.216C716.863 182.685 718.249 183.795 720.249 184.547L724.411 186.111L732.23 165.303L727.101 163.376ZM687.957 214.933C688.958 213.836 689.754 212.699 690.343 211.522C690.957 210.28 691.58 208.82 692.21 207.143L696.138 196.691C697.471 193.142 699.083 190.324 700.972 188.236C702.95 186.108 705.499 185.004 708.621 184.926C704.801 180.986 704.2 175.532 706.818 168.564L708.819 163.241C710.782 158.015 713.475 154.573 716.897 152.913C720.383 151.278 724.9 151.503 730.448 153.589L746.512 159.627L721.053 227.372L710.408 223.371L720.774 195.789L717.096 194.407C714.645 193.485 712.628 193.464 711.046 194.342C709.465 195.22 708.08 197.24 706.892 200.401L702.891 211.047C702.382 212.402 701.925 213.519 701.521 214.398C701.182 215.301 700.839 216.019 700.491 216.551C700.209 217.108 699.93 217.555 699.656 217.894C699.381 218.232 699.094 218.603 698.796 219.006L687.957 214.933Z" fill="#1C1456"/>
</svg>
