<svg width="386" height="385" viewBox="0 0 386 385" fill="none" xmlns="http://www.w3.org/2000/svg">
<path d="M195.258 32.6397C238.771 -10.8728 309.318 -10.8728 352.831 32.6397C396.343 76.1521 396.343 146.699 352.831 190.212L350.689 192.353L352.83 194.493C396.342 238.006 396.342 308.554 352.83 352.066C309.317 395.579 238.769 395.579 195.256 352.066L193.116 349.926L190.976 352.066C147.464 395.579 76.9164 395.579 33.4039 352.066C-10.1086 308.554 -10.1086 238.007 33.4039 194.494L35.5435 192.354L33.4019 190.212C-10.1105 146.699 -10.1105 76.1512 33.4019 32.6387C76.9144 -10.8738 147.463 -10.8738 190.975 32.6387L193.117 34.7803L195.258 32.6397Z" fill="black"/>
</svg>
