<svg width="160" height="80" viewBox="0 0 160 80" fill="none" xmlns="http://www.w3.org/2000/svg">
    <path
        d="M57.5996 18C58.0911 18 58.572 18.0469 59.0391 18.1318C59.5067 18.0467 59.9883 18 60.4805 18H74.8809C75.2489 18 75.611 18.0271 75.9658 18.0752C76.3209 18.027 76.6834 18 77.0518 18H82.332C83.3929 18.0001 84.4047 18.2089 85.3311 18.584C86.2579 18.2086 87.2706 18 88.332 18L93.708 18C93.9486 18 94.1867 18.0124 94.4219 18.0332C94.657 18.0124 94.8952 18 95.1357 18H111.456C112.403 18 113.312 18.1664 114.155 18.4687C115 18.1663 115.907 18 116.849 18H124.577L124.943 18.0078C128.714 18.1789 131.875 20.9758 132.477 24.7354L137.853 58.3359C138.223 60.6489 137.56 63.0077 136.04 64.79C134.52 66.5724 132.296 67.5995 129.953 67.5996H124.625C123.113 67.5996 121.689 67.1754 120.473 66.4355C119.256 67.1752 117.833 67.5995 116.321 67.5996H111.473C110.519 67.5996 109.585 67.4267 108.71 67.1045C107.846 67.424 106.912 67.5995 105.937 67.5996H100.656C99.4111 67.5996 98.2325 67.3141 97.1816 66.8066C96.131 67.314 94.9529 67.5995 93.708 67.5996H88.332C87.2707 67.5996 86.2578 67.391 85.3311 67.0156C84.4047 67.3906 83.3928 67.5995 82.332 67.5996H77.0518C76.6834 67.5996 76.3209 67.5726 75.9658 67.5244C75.611 67.5725 75.2489 67.5996 74.8809 67.5996H60.4805C59.9883 67.5996 59.5067 67.5529 59.0391 67.4678C58.5721 67.5527 58.0911 67.5996 57.5996 67.5996H52.3193C50.2758 67.5996 48.412 66.8321 46.998 65.5713C45.9359 66.1928 44.8035 66.6703 43.6201 67.0029L43.6211 67.0039C43.609 67.0074 43.5961 67.0093 43.584 67.0127C43.5729 67.0158 43.5619 67.0203 43.5508 67.0234L43.5498 67.0225C41.9174 67.4815 40.2549 67.6953 38.5918 67.6953H37.2949C36.4729 67.6953 35.6744 67.6279 34.916 67.5195C30.9748 66.9565 28.0479 63.5808 28.0479 59.5996V54.7998C28.0479 52.5243 29.0165 50.3565 30.7119 48.8389C31.3662 48.2533 32.1052 47.786 32.8955 47.4473V26C32.8955 21.5817 36.4772 18 40.8955 18H57.5996ZM82.3311 59.5996H82.332V45.1992H82.3311V59.5996ZM42.0977 59.0869C41.8798 59.1728 41.6547 59.2476 41.4229 59.3115H41.4238C41.6557 59.2475 41.8807 59.1729 42.0986 59.0869H42.0977ZM45.5508 55.4238C45.4988 55.5597 45.4451 55.6924 45.3887 55.8213L45.5518 55.4238C45.6037 55.288 45.6518 55.1473 45.6973 55.002C45.6518 55.1473 45.6027 55.288 45.5508 55.4238ZM65.7598 54.7998H65.7607V44.96H65.7598V54.7998ZM46.1748 51.248C46.1748 51.407 46.1735 51.5632 46.1699 51.7168L46.1758 51.248V30.7998H46.1748V51.248ZM73.0078 44.96H73.0088V40.1592H73.0078V44.96ZM82.3311 40.3994H82.332V26H82.3311V40.3994ZM65.7598 40.1592H65.7607V30.7998H65.7598V40.1592Z"
        fill="#6AA338" />
    <g filter="url(#filter0_ii_4017_23373)">
        <path
            d="M51.5996 12C52.0911 12 52.572 12.047 53.0391 12.1318C53.5067 12.0467 53.9883 12 54.4805 12H68.8809C69.2489 12 69.611 12.0271 69.9658 12.0752C70.3209 12.027 70.6834 12 71.0518 12H76.332C77.3929 12 78.4047 12.209 79.3311 12.584C80.2578 12.2086 81.2706 12 82.332 12H87.708C87.9486 12 88.1867 12.0124 88.4219 12.0332C88.657 12.0124 88.8952 12 89.1357 12H105.456C106.403 12 107.312 12.1665 108.155 12.4687C109 12.1663 109.907 12.0001 110.849 12L118.577 12L118.943 12.0078C122.714 12.1788 125.875 14.9757 126.477 18.7354L131.853 52.3359C132.223 54.649 131.56 57.0076 130.04 58.79C128.52 60.5724 126.296 61.5996 123.953 61.5996H118.625C117.113 61.5995 115.689 61.1755 114.473 60.4355C113.256 61.1752 111.833 61.5996 110.321 61.5996H105.473C104.519 61.5995 103.585 61.4267 102.71 61.1045C101.846 61.4239 100.912 61.5996 99.9365 61.5996H94.6562C93.4111 61.5996 92.2324 61.3142 91.1816 60.8066C90.131 61.3139 88.9529 61.5996 87.708 61.5996H82.332C81.2707 61.5996 80.2578 61.391 79.3311 61.0156C78.4047 61.3906 77.3928 61.5996 76.332 61.5996H71.0518C70.6834 61.5996 70.3209 61.5726 69.9658 61.5244C69.611 61.5725 69.2488 61.5996 68.8809 61.5996H54.4805C53.9883 61.5996 53.5067 61.5529 53.0391 61.4678C52.5721 61.5527 52.0911 61.5996 51.5996 61.5996H46.3193C44.2758 61.5995 42.412 60.8321 40.998 59.5713C39.9359 60.1928 38.8035 60.6703 37.6201 61.0029L37.6211 61.0039C37.609 61.0073 37.5961 61.0093 37.584 61.0127C37.5729 61.0158 37.5619 61.0204 37.5508 61.0234L37.5498 61.0225C35.9174 61.4814 34.2549 61.6953 32.5918 61.6953H31.2949C30.4729 61.6953 29.6743 61.6279 28.916 61.5195C24.975 60.9564 22.0479 57.5807 22.0479 53.5996V48.7998C22.0479 46.5244 23.0166 44.3565 24.7119 42.8389C25.3662 42.2533 26.1052 41.786 26.8955 41.4473V20C26.8955 15.5818 30.4774 12.0002 34.8955 12H51.5996ZM31.002 53.6895C31.1016 53.6933 31.1993 53.6953 31.2949 53.6953H31.2959C31.2 53.6953 31.102 53.6933 31.002 53.6895ZM105.473 53.5996H105.474L110.85 20H110.849L105.473 53.5996ZM89.1357 24.7998H89.1367V20H89.1357V24.7998Z"
            fill="#283D15" />
    </g>
    <path
        d="M46.3194 24.7996H40.1754V45.2476C40.1754 46.9436 39.9674 48.3356 39.5514 49.4236C39.1354 50.5116 38.5754 51.3756 37.8714 52.0156C37.1674 52.6236 36.3514 53.0556 35.4234 53.3116C34.5274 53.5676 33.5834 53.6956 32.5914 53.6956C32.1114 53.6956 31.6794 53.6956 31.2954 53.6956C30.9114 53.6956 30.4954 53.6636 30.0474 53.5996V48.7996C30.3354 48.8316 30.6394 48.8476 30.9594 48.8476C31.2794 48.8476 31.5834 48.8476 31.8714 48.8476C32.7034 48.8476 33.4074 48.6396 33.9834 48.2236C34.5914 47.8076 34.8954 46.9436 34.8954 45.6316V19.9996H51.5994V53.5996H46.3194V24.7996ZM59.7605 34.1596H67.0085V38.9596H59.7605V48.7996H68.8805V53.5996H54.4805V19.9996H68.8805V24.7996H59.7605V34.1596ZM76.3318 53.5996H71.0518V19.9996H76.3318V34.3996H82.3318V19.9996H87.7078V53.5996H82.3318V39.1996H76.3318V53.5996ZM89.1361 19.9996L105.456 19.9996V24.7996H99.9361V53.5996H94.6561V24.7996H89.1361V19.9996ZM123.953 53.5996H118.625L117.713 47.5036H111.233L110.321 53.5996H105.473L110.849 19.9996H118.577L123.953 53.5996ZM111.905 42.9436H116.993L114.449 25.9516L111.905 42.9436Z"
        fill="white" />
    <defs>
        <filter id="filter0_ii_4017_23373" x="20.0479" y="10" width="113.905" height="53.6953"
            filterUnits="userSpaceOnUse" color-interpolation-filters="sRGB">
            <feFlood flood-opacity="0" result="BackgroundImageFix" />
            <feBlend mode="normal" in="SourceGraphic" in2="BackgroundImageFix" result="shape" />
            <feColorMatrix in="SourceAlpha" type="matrix" values="0 0 0 0 0 0 0 0 0 0 0 0 0 0 0 0 0 0 127 0"
                result="hardAlpha" />
            <feOffset dx="-2" dy="-2" />
            <feGaussianBlur stdDeviation="2" />
            <feComposite in2="hardAlpha" operator="arithmetic" k2="-1" k3="1" />
            <feColorMatrix type="matrix" values="0 0 0 0 0.0901961 0 0 0 0 0.141176 0 0 0 0 0.0470588 0 0 0 1 0" />
            <feBlend mode="normal" in2="shape" result="effect1_innerShadow_4017_23373" />
            <feColorMatrix in="SourceAlpha" type="matrix" values="0 0 0 0 0 0 0 0 0 0 0 0 0 0 0 0 0 0 127 0"
                result="hardAlpha" />
            <feOffset dx="2" dy="2" />
            <feGaussianBlur stdDeviation="1" />
            <feComposite in2="hardAlpha" operator="arithmetic" k2="-1" k3="1" />
            <feColorMatrix type="matrix" values="0 0 0 0 0.290196 0 0 0 0 0.439216 0 0 0 0 0.152941 0 0 0 1 0" />
            <feBlend mode="normal" in2="effect1_innerShadow_4017_23373" result="effect2_innerShadow_4017_23373" />
        </filter>
    </defs>
</svg>