<svg width="232" height="82" viewBox="0 0 232 82" fill="none" xmlns="http://www.w3.org/2000/svg">
<path d="M70.0547 18.6924C74.1659 18.6925 78.5034 19.9017 81.7891 23.375L81.79 23.374C81.7958 23.3801 81.8009 23.3875 81.8066 23.3936C81.8208 23.4086 81.8365 23.4224 81.8506 23.4375L81.8496 23.4385C82.4682 24.0937 83.0048 24.7837 83.4688 25.499C84.8932 24.2405 86.7589 23.4932 88.7666 23.4932H93.5186C94.0291 23.4932 94.5335 23.545 95.0264 23.6396C95.5189 23.5448 96.0256 23.4932 96.542 23.4932H99.3008C100.615 20.8748 103.324 19.0771 106.453 19.0771L123.157 19.0771C123.649 19.0772 124.13 19.1241 124.597 19.209C125.064 19.1239 125.546 19.0771 126.038 19.0771H140.438C140.806 19.0772 141.168 19.1042 141.523 19.1523C141.879 19.1042 142.241 19.0771 142.609 19.0771H147.89C148.95 19.0772 149.962 19.2861 150.889 19.6611C151.815 19.2858 152.828 19.0771 153.89 19.0771H159.266C159.506 19.0772 159.744 19.0895 159.979 19.1104C160.215 19.0896 160.453 19.0772 160.693 19.0771L177.014 19.0771C177.961 19.0772 178.87 19.2436 179.713 19.5459C180.558 19.2435 181.465 19.0772 182.406 19.0771L190.135 19.0771L190.501 19.085C193.443 19.2186 196.014 20.9518 197.287 23.4932L200.563 23.4932C201.079 23.4932 201.586 23.5449 202.078 23.6396C202.571 23.5448 203.077 23.4932 203.588 23.4932H208.34L208.685 23.5C212.234 23.652 215.276 26.1363 216.116 29.6162L219.093 41.9521C219.382 43.15 219.39 44.399 219.117 45.6006L216.141 58.7041C215.313 62.3468 212.075 64.9324 208.34 64.9326H203.588C203.169 64.9326 202.753 64.8972 202.345 64.833C202.125 65.1943 201.876 65.5407 201.598 65.8672C200.078 67.6495 197.853 68.6766 195.511 68.6768L190.183 68.6768C188.671 68.6768 187.247 68.2525 186.03 67.5127C184.814 68.2524 183.39 68.6766 181.879 68.6768H177.03C176.076 68.6767 175.143 68.5038 174.268 68.1816C173.403 68.5012 172.468 68.6767 171.493 68.6768L166.214 68.6768C164.969 68.6768 163.79 68.3912 162.739 67.8838C161.689 68.3911 160.51 68.6766 159.266 68.6768H153.89C152.828 68.6768 151.815 68.4681 150.889 68.0928C149.962 68.4678 148.95 68.6767 147.89 68.6768L142.609 68.6768C142.241 68.6768 141.878 68.6497 141.523 68.6016C141.168 68.6497 140.806 68.6767 140.438 68.6768H126.038C125.546 68.6768 125.064 68.63 124.597 68.5449C124.13 68.6298 123.649 68.6767 123.157 68.6768L117.877 68.6768C115.833 68.6768 113.97 67.9092 112.556 66.6484C111.494 67.2699 110.361 67.7474 109.178 68.0801C109.166 68.0835 109.154 68.0865 109.142 68.0898C109.13 68.0929 109.12 68.0975 109.108 68.1006L109.107 68.0996C107.475 68.5587 105.812 68.7724 104.148 68.7725H102.853C102.031 68.7724 101.232 68.705 100.474 68.5967C98.0305 68.2477 95.9777 66.8169 94.7695 64.832C94.3587 64.8971 93.9407 64.9326 93.5186 64.9326L88.7666 64.9326C86.6308 64.9326 84.6581 64.0864 83.2051 62.6816C82.8043 63.2617 82.3547 63.8249 81.8506 64.3643C81.8307 64.3855 81.8101 64.4067 81.79 64.4277C78.486 67.8852 74.1402 69.0605 70.0547 69.0605C67.0327 69.0605 63.8687 68.4166 61.0889 66.6826C58.3092 68.4163 55.1458 69.0605 52.124 69.0605C49.102 69.0605 45.9381 68.4166 43.1582 66.6826C40.3785 68.4163 37.2151 69.0605 34.1934 69.0605C30.1076 69.0605 25.7612 67.8855 22.457 64.4277C22.437 64.4068 22.4172 64.3854 22.3975 64.3643C19.2111 60.9556 18.1777 56.6382 18.1777 52.6123V35.1406C18.1778 31.1525 19.1944 26.8318 22.3984 23.4385L22.3975 23.4375C22.4037 23.4308 22.4107 23.4246 22.417 23.418C22.4306 23.4036 22.4434 23.3883 22.457 23.374L22.458 23.375C25.7439 19.9014 30.0819 18.6924 34.1934 18.6924C37.2297 18.6924 40.3895 19.353 43.1582 21.0967C45.9271 19.3528 49.0874 18.6924 52.124 18.6924C55.1604 18.6924 58.3202 19.353 61.0889 21.0967C63.8578 19.3528 67.0181 18.6924 70.0547 18.6924ZM147.889 60.6768L147.89 60.6768V46.2764L147.889 46.2764L147.889 60.6768ZM58.3252 58.6172C58.2446 58.714 58.1612 58.8084 58.0752 58.9004L58.0762 58.9004C58.2481 58.7165 58.4092 58.5227 58.5596 58.3193L58.3252 58.6172ZM76.2559 58.6172C76.1752 58.7141 76.0919 58.8084 76.0059 58.9004L76.0068 58.9004C76.1787 58.7165 76.3398 58.5227 76.4902 58.3193L76.2559 58.6172ZM33.3252 56.1582C33.3527 56.1651 33.3802 56.1725 33.4082 56.1787C33.3802 56.1725 33.3527 56.1651 33.3252 56.1582ZM33.1348 56.1025C33.1684 56.1135 33.202 56.1249 33.2363 56.1348C33.202 56.1249 33.1684 56.1135 33.1348 56.1025ZM32.9707 56.0439C32.9987 56.0552 33.027 56.0658 33.0557 56.0762C33.0271 56.0658 32.9987 56.0552 32.9707 56.0439ZM32.8076 55.9727C32.8258 55.9814 32.8448 55.9887 32.8633 55.9971C32.8448 55.9887 32.8258 55.9814 32.8076 55.9727ZM131.317 55.877L131.318 55.877L131.318 46.0371L131.317 46.0371L131.317 55.877ZM32.4473 55.7598C32.462 55.7702 32.4763 55.781 32.4912 55.791C32.4763 55.781 32.4619 55.7702 32.4473 55.7598ZM50.0215 55.4414C50.0493 55.4759 50.0777 55.5093 50.1074 55.541C50.1716 55.6012 50.2384 55.6574 50.3076 55.71C50.2386 55.6575 50.1724 55.601 50.1084 55.541C50.0785 55.5092 50.0496 55.4759 50.0215 55.4414ZM32.1768 55.541C32.2353 55.5959 32.2966 55.6467 32.3594 55.6953C32.2969 55.6468 32.2361 55.5957 32.1777 55.541C32.1289 55.4889 32.083 55.4325 32.0391 55.373C32.0829 55.4324 32.128 55.489 32.1768 55.541ZM138.565 46.0371L138.566 46.0371V41.2363L138.565 41.2363L138.565 46.0371ZM147.889 41.4766L147.89 41.4766V27.0771L147.889 27.0771V41.4766ZM131.317 41.2363L131.318 41.2363L131.318 31.877L131.317 31.877L131.317 41.2363ZM62.1836 33.1152C62.1769 33.159 62.1693 33.2029 62.1631 33.2471C62.1693 33.2029 62.1769 33.159 62.1836 33.1152ZM62.2607 32.6719C62.2507 32.7231 62.2398 32.7743 62.2305 32.8262C62.2398 32.7743 62.2507 32.7231 62.2607 32.6719ZM50.2959 32.0898C50.2308 32.1432 50.168 32.2002 50.1074 32.2607C50.0775 32.2906 50.0494 32.3226 50.0215 32.3555C50.0497 32.3226 50.0784 32.2908 50.1084 32.2607C50.1688 32.2004 50.231 32.1431 50.2959 32.0898ZM62.3516 32.2539C62.3382 32.3092 62.325 32.3648 62.3125 32.4209C62.325 32.3648 62.3382 32.3092 62.3516 32.2539ZM32.3652 32.0898C32.3002 32.1432 32.2373 32.2002 32.1768 32.2607L32.1777 32.2607C32.2381 32.2004 32.3004 32.1431 32.3652 32.0898ZM32.5732 31.9385C32.5128 31.9784 32.4535 32.0201 32.3965 32.0654C32.4535 32.0201 32.5129 31.9784 32.5732 31.9385ZM50.5039 31.9385C50.4435 31.9784 50.3842 32.0201 50.3271 32.0654C50.3842 32.0201 50.4435 31.9784 50.5039 31.9385ZM62.4326 31.9385C62.4233 31.9721 62.4153 32.0061 62.4063 32.04C62.4224 31.9793 62.4388 31.9191 62.4561 31.8594C62.4485 31.8857 62.44 31.9119 62.4326 31.9385ZM33.0391 31.6953C32.8864 31.7553 32.7424 31.8293 32.6064 31.916C32.676 31.8716 32.7474 31.8304 32.8213 31.793C32.8919 31.7572 32.9645 31.7248 33.0391 31.6953ZM50.9697 31.6953C50.817 31.7553 50.6731 31.8293 50.5371 31.916C50.6066 31.8716 50.6781 31.8304 50.752 31.793C50.8226 31.7572 50.8952 31.7248 50.9697 31.6953ZM33.2803 31.6143C33.2216 31.6311 33.1639 31.6495 33.1074 31.6699C33.1639 31.6494 33.2216 31.6312 33.2803 31.6143ZM51.2109 31.6143C51.1522 31.6311 51.0946 31.6495 51.0381 31.6699C51.0946 31.6494 51.1522 31.6312 51.2109 31.6143ZM62.5537 31.54C62.5428 31.5729 62.534 31.6065 62.5234 31.6396C62.5401 31.5873 62.5558 31.5349 62.5732 31.4834C62.5668 31.5023 62.56 31.521 62.5537 31.54ZM33.5986 31.541C33.5159 31.5551 33.4353 31.5735 33.3564 31.5938C33.5251 31.5504 33.7023 31.5199 33.8887 31.5049L33.5986 31.541ZM51.5293 31.541C51.4465 31.5551 51.366 31.5735 51.2871 31.5938C51.4558 31.5504 51.633 31.5199 51.8193 31.5049L51.5293 31.541ZM62.7012 31.1309C62.6816 31.1807 62.6642 31.2316 62.6455 31.2822C62.6642 31.2316 62.6817 31.1807 62.7012 31.1309ZM77.0947 30.4385C77.1537 30.5532 77.21 30.6704 77.2637 30.79C77.1563 30.5502 77.0381 30.3204 76.9092 30.1006L77.0947 30.4385ZM57.8105 28.6338C57.9011 28.7198 57.9894 28.8086 58.0752 28.9004H58.0762C57.9041 28.7164 57.7223 28.5438 57.5312 28.3828L57.8105 28.6338ZM75.7412 28.6338C75.8317 28.7198 75.9201 28.8086 76.0059 28.9004L76.0068 28.9004C75.8348 28.7164 75.653 28.5438 75.4619 28.3828L75.7412 28.6338ZM55.5557 27.2451C55.6796 27.2911 55.8017 27.3389 55.9209 27.3906C55.6824 27.2871 55.4342 27.1957 55.1768 27.1152L55.5557 27.2451ZM73.4863 27.2451C73.6103 27.2911 73.7323 27.3389 73.8516 27.3906C73.6131 27.2871 73.3649 27.1957 73.1074 27.1152L73.4863 27.2451Z" fill="#6AA338"/>
<g filter="url(#filter0_ii_4002_23115)">
<path d="M64.0547 12.6924C68.1659 12.6924 72.5033 13.9017 75.7891 17.375L75.79 17.374C75.7958 17.3801 75.8009 17.3875 75.8066 17.3936C75.8208 17.4086 75.8365 17.4224 75.8506 17.4375L75.8496 17.4385C76.4683 18.0937 77.0048 18.7837 77.4688 19.499C78.8931 18.2405 80.759 17.4932 82.7666 17.4932H87.5186C88.0291 17.4932 88.5335 17.545 89.0264 17.6396C89.5188 17.5448 90.0256 17.4932 90.542 17.4932H93.3008C94.6153 14.8748 97.3237 13.0773 100.453 13.0771H117.157C117.649 13.0772 118.13 13.1241 118.597 13.209C119.064 13.1239 119.546 13.0772 120.038 13.0771H134.438C134.806 13.0771 135.168 13.1042 135.523 13.1523C135.878 13.1042 136.241 13.0772 136.609 13.0771H141.89C142.95 13.0772 143.962 13.2861 144.889 13.6611C145.815 13.2858 146.828 13.0772 147.89 13.0771H153.266C153.506 13.0772 153.744 13.0895 153.979 13.1104C154.215 13.0895 154.453 13.0772 154.693 13.0771H171.014C171.961 13.0772 172.87 13.2436 173.713 13.5459C174.558 13.2435 175.465 13.0772 176.406 13.0771H184.135L184.501 13.085C187.443 13.2185 190.014 14.9517 191.287 17.4932H194.563C195.079 17.4932 195.586 17.5449 196.078 17.6396C196.571 17.5448 197.077 17.4932 197.588 17.4932H202.34L202.685 17.5C206.234 17.6519 209.276 20.1362 210.116 23.6162L213.093 35.9521C213.382 37.15 213.39 38.399 213.117 39.6006L210.141 52.7041C209.313 56.3469 206.075 58.9325 202.34 58.9326H197.588C197.169 58.9326 196.753 58.8972 196.345 58.833C196.125 59.1943 195.876 59.5407 195.598 59.8672C194.078 61.6495 191.853 62.6767 189.511 62.6768H184.183C182.671 62.6767 181.247 62.2526 180.03 61.5127C178.814 62.2524 177.39 62.6767 175.879 62.6768H171.03C170.076 62.6767 169.143 62.5039 168.268 62.1816C167.403 62.5012 166.468 62.6768 165.493 62.6768H160.214C158.969 62.6767 157.79 62.3913 156.739 61.8838C155.689 62.3911 154.51 62.6767 153.266 62.6768H147.89C146.828 62.6767 145.815 62.4681 144.889 62.0928C143.962 62.4678 142.95 62.6767 141.89 62.6768H136.609C136.241 62.6767 135.878 62.6497 135.523 62.6016C135.168 62.6497 134.806 62.6768 134.438 62.6768H120.038C119.546 62.6767 119.064 62.63 118.597 62.5449C118.13 62.6298 117.649 62.6767 117.157 62.6768H111.877C109.833 62.6767 107.97 61.9092 106.556 60.6484C105.494 61.2699 104.361 61.7474 103.178 62.0801C103.166 62.0835 103.154 62.0865 103.142 62.0898C103.131 62.093 103.12 62.0975 103.108 62.1006L103.107 62.0996C101.475 62.5586 99.8117 62.7725 98.1484 62.7725H96.8525C96.0306 62.7724 95.232 62.705 94.4736 62.5967C92.0306 62.2476 89.9776 60.8168 88.7695 58.832C88.3588 58.8971 87.9407 58.9326 87.5186 58.9326H82.7666C80.6308 58.9325 78.6581 58.0864 77.2051 56.6816C76.8043 57.2617 76.3547 57.8249 75.8506 58.3643C75.8308 58.3855 75.8101 58.4067 75.79 58.4277C72.486 61.8852 68.1403 63.0605 64.0547 63.0605C61.0327 63.0605 57.8687 62.4166 55.0889 60.6826C52.3092 62.4163 49.1458 63.0605 46.124 63.0605C43.102 63.0605 39.938 62.4166 37.1582 60.6826C34.3785 62.4163 31.2151 63.0605 28.1934 63.0605C24.1077 63.0605 19.7611 61.8855 16.457 58.4277C16.437 58.4068 16.4172 58.3854 16.3975 58.3643C13.2112 54.9556 12.1777 50.6381 12.1777 46.6123V29.1406C12.1778 25.1525 13.1946 20.8317 16.3984 17.4385L16.3975 17.4375C16.4037 17.4308 16.4107 17.4246 16.417 17.418C16.4306 17.4037 16.4434 17.3883 16.457 17.374L16.458 17.375C19.7438 13.9014 24.082 12.6924 28.1934 12.6924C31.2298 12.6924 34.3895 13.3531 37.1582 15.0967C39.9271 13.3527 43.0874 12.6924 46.124 12.6924C49.1604 12.6924 52.3201 13.3531 55.0889 15.0967C57.8577 13.3527 61.0181 12.6924 64.0547 12.6924ZM95.6045 54.6768C95.8285 54.7088 96.0447 54.7331 96.2529 54.749L95.9355 54.7188C95.8275 54.7068 95.7175 54.6928 95.6055 54.6768V49.877H95.6045L95.6045 54.6768ZM103.93 52.5703C103.772 52.7583 103.605 52.9328 103.429 53.0928C103.517 53.0128 103.603 52.9297 103.687 52.8428C103.77 52.7559 103.851 52.6652 103.93 52.5713L103.93 52.5703ZM79.79 37.8291L82.7666 50.9326L79.791 37.8291L82.7666 25.4932L79.79 37.8291ZM192.739 37.8291L189.812 50.9326L192.74 37.8291L189.812 25.4932L192.739 37.8291ZM56.6914 50.6104C56.7184 50.6808 56.7486 50.7495 56.7773 50.8184C56.7388 50.7258 56.701 50.6322 56.665 50.5371L56.6914 50.6104ZM56.0527 28.4844C56.0435 28.6988 56.0381 28.9176 56.0381 29.1406V46.6123C56.0381 46.7821 56.0415 46.9494 56.0469 47.1143C56.0418 46.9493 56.0391 46.782 56.0391 46.6123L56.0391 29.1406C56.0391 28.9176 56.0435 28.6988 56.0527 28.4844ZM56.1475 27.376C56.1273 27.5316 56.1092 27.6897 56.0947 27.8506C56.1092 27.6897 56.1273 27.5316 56.1475 27.376ZM56.167 27.2207C56.1625 27.2521 56.1586 27.2838 56.1543 27.3154C56.1789 27.1327 56.2077 26.9537 56.2402 26.7783L56.167 27.2207ZM154.693 25.877H154.694L154.694 21.0771H154.693L154.693 25.877ZM28.1934 25.4932C27.9854 25.4932 27.7875 25.509 27.5996 25.541L27.8896 25.5049C27.9884 25.4969 28.0896 25.4932 28.1934 25.4932ZM46.124 25.4932C45.9161 25.4932 45.7182 25.509 45.5303 25.541L45.8203 25.5049C45.9191 25.4969 46.0203 25.4932 46.124 25.4932ZM70.9854 24.2334C71.0881 24.418 71.1833 24.6095 71.2715 24.8076L71.2646 24.79C71.1786 24.598 71.0852 24.4126 70.9854 24.2334ZM35.0742 24.1455C35.0578 24.117 35.0412 24.0887 35.0244 24.0605C35.0412 24.0887 35.0578 24.117 35.0742 24.1455ZM53.0049 24.1455C52.9885 24.117 52.9719 24.0887 52.9551 24.0605C52.9719 24.0887 52.9885 24.117 53.0049 24.1455ZM70.7656 23.8691C70.7316 23.8162 70.6974 23.7636 70.6621 23.7119C70.6974 23.7636 70.7316 23.8162 70.7656 23.8691ZM34.8682 23.8096C34.8478 23.7786 34.8265 23.7483 34.8057 23.7178C34.8265 23.7483 34.8478 23.7786 34.8682 23.8096ZM52.7988 23.8096C52.7785 23.7786 52.7572 23.7483 52.7363 23.7178C52.7572 23.7483 52.7785 23.7786 52.7988 23.8096ZM70.5947 23.6143C70.5534 23.5561 70.5109 23.499 70.4678 23.4424C70.5108 23.499 70.5534 23.5561 70.5947 23.6143ZM34.6553 23.5068C34.6393 23.4853 34.6236 23.4637 34.6074 23.4424C34.6236 23.4637 34.6393 23.4853 34.6553 23.5068ZM52.5859 23.5068C52.57 23.4853 52.5543 23.4637 52.5381 23.4424C52.5543 23.4637 52.57 23.4853 52.5859 23.5068ZM70.4082 23.3643C70.3691 23.3145 70.3285 23.2662 70.2881 23.2178C70.3285 23.2662 70.3691 23.3145 70.4082 23.3643ZM34.4248 23.2148C34.4147 23.2028 34.4057 23.1897 34.3955 23.1777C34.3839 23.164 34.3711 23.1513 34.3594 23.1377C34.3814 23.1632 34.4032 23.189 34.4248 23.2148ZM52.3555 23.2148C52.3454 23.2028 52.3364 23.1897 52.3262 23.1777C52.3145 23.164 52.3018 23.1513 52.29 23.1377C52.3121 23.1632 52.3338 23.189 52.3555 23.2148ZM69.4619 22.3828C69.653 22.5439 69.8347 22.7163 70.0068 22.9004C70.074 22.9707 70.1392 23.0428 70.2031 23.1162C70.1392 23.0428 70.074 22.9707 70.0068 22.9004C69.9209 22.8084 69.8329 22.719 69.7422 22.6328C69.6515 22.5465 69.5583 22.4633 69.4629 22.3828H69.4619ZM56.084 27.9795C56.0707 28.1451 56.0601 28.3133 56.0527 28.4844C56.0601 28.3133 56.0708 28.1451 56.084 27.9795ZM70.9668 24.2012C70.9235 24.1244 70.8788 24.049 70.833 23.9746C70.8788 24.049 70.9235 24.1244 70.9668 24.2012Z" fill="#283D15"/>
</g>
<path d="M25.4573 46.9488C25.4573 48.1648 25.6973 49.0288 26.1773 49.5408C26.6893 50.0208 27.3613 50.2608 28.1933 50.2608C29.0253 50.2608 29.6813 50.0208 30.1613 49.5408C30.6733 49.0288 30.9293 48.1648 30.9293 46.9488V28.8048C30.9293 27.5888 30.6733 26.7408 30.1613 26.2608C29.6813 25.7488 29.0253 25.4928 28.1933 25.4928C27.3613 25.4928 26.6893 25.7488 26.1773 26.2608C25.6973 26.7408 25.4573 27.5888 25.4573 28.8048V46.9488ZM20.1773 29.1408C20.1773 26.4208 20.8653 24.3408 22.2413 22.9008C23.6173 21.4288 25.6013 20.6928 28.1933 20.6928C30.7853 20.6928 32.7693 21.4288 34.1453 22.9008C35.5213 24.3408 36.2093 26.4208 36.2093 29.1408V46.6128C36.2093 49.3328 35.5213 51.4288 34.1453 52.9008C32.7693 54.3408 30.7853 55.0608 28.1933 55.0608C25.6013 55.0608 23.6173 54.3408 22.2413 52.9008C20.8653 51.4288 20.1773 49.3328 20.1773 46.6128V29.1408ZM43.3879 46.9488C43.3879 48.1648 43.6279 49.0288 44.1079 49.5408C44.6199 50.0208 45.2919 50.2608 46.1239 50.2608C46.9559 50.2608 47.6119 50.0208 48.0919 49.5408C48.6039 49.0288 48.8599 48.1648 48.8599 46.9488V28.8048C48.8599 27.5888 48.6039 26.7408 48.0919 26.2608C47.6119 25.7488 46.9559 25.4928 46.1239 25.4928C45.2919 25.4928 44.6199 25.7488 44.1079 26.2608C43.6279 26.7408 43.3879 27.5888 43.3879 28.8048V46.9488ZM38.1079 29.1408C38.1079 26.4208 38.7959 24.3408 40.1719 22.9008C41.5479 21.4288 43.5319 20.6928 46.1239 20.6928C48.7159 20.6928 50.6999 21.4288 52.0759 22.9008C53.4519 24.3408 54.1399 26.4208 54.1399 29.1408V46.6128C54.1399 49.3328 53.4519 51.4288 52.0759 52.9008C50.6999 54.3408 48.7159 55.0608 46.1239 55.0608C43.5319 55.0608 41.5479 54.3408 40.1719 52.9008C38.7959 51.4288 38.1079 49.3328 38.1079 46.6128V29.1408ZM61.3186 46.9488C61.3186 48.1648 61.5586 49.0288 62.0386 49.5408C62.5506 50.0208 63.2226 50.2608 64.0546 50.2608C64.8866 50.2608 65.5426 50.0208 66.0226 49.5408C66.5346 49.0288 66.7906 48.1648 66.7906 46.9488V28.8048C66.7906 27.5888 66.5346 26.7408 66.0226 26.2608C65.5426 25.7488 64.8866 25.4928 64.0546 25.4928C63.2226 25.4928 62.5506 25.7488 62.0386 26.2608C61.5586 26.7408 61.3186 27.5888 61.3186 28.8048V46.9488ZM56.0386 29.1408C56.0386 26.4208 56.7266 24.3408 58.1026 22.9008C59.4786 21.4288 61.4626 20.6928 64.0546 20.6928C66.6466 20.6928 68.6306 21.4288 70.0066 22.9008C71.3826 24.3408 72.0706 26.4208 72.0706 29.1408V46.6128C72.0706 49.3328 71.3826 51.4288 70.0066 52.9008C68.6306 54.3408 66.6466 55.0608 64.0546 55.0608C61.4626 55.0608 59.4786 54.3408 58.1026 52.9008C56.7266 51.4288 56.0386 49.3328 56.0386 46.6128V29.1408ZM87.5183 25.4928L84.5903 37.8288L87.5183 50.9328H82.7663L79.7903 37.8288L82.7663 25.4928H87.5183ZM95.2943 25.4928L92.3663 37.8288L95.2943 50.9328H90.5423L87.5663 37.8288L90.5423 25.4928H95.2943ZM111.877 25.8768H105.733V46.3248C105.733 48.0208 105.525 49.4128 105.109 50.5008C104.693 51.5888 104.133 52.4528 103.429 53.0928C102.725 53.7008 101.909 54.1328 100.981 54.3888C100.085 54.6448 99.1408 54.7728 98.1488 54.7728C97.6688 54.7728 97.2368 54.7728 96.8528 54.7728C96.4688 54.7728 96.0528 54.7408 95.6048 54.6768V49.8768C95.8928 49.9088 96.1968 49.9248 96.5168 49.9248C96.8368 49.9248 97.1408 49.9248 97.4288 49.9248C98.2608 49.9248 98.9648 49.7168 99.5408 49.3008C100.149 48.8848 100.453 48.0208 100.453 46.7088V21.0768H117.157V54.6768H111.877V25.8768ZM125.318 35.2368H132.566V40.0368H125.318V49.8768H134.438V54.6768H120.038V21.0768H134.438V25.8768H125.318V35.2368ZM141.889 54.6768H136.609V21.0768H141.889V35.4768H147.889V21.0768H153.265V54.6768H147.889V40.2768H141.889V54.6768ZM154.694 21.0768H171.014V25.8768H165.494V54.6768H160.214V25.8768H154.694V21.0768ZM189.51 54.6768H184.182L183.27 48.5808H176.79L175.878 54.6768H171.03L176.406 21.0768H184.134L189.51 54.6768ZM177.462 44.0208H182.55L180.006 27.0288L177.462 44.0208ZM202.34 25.4928L205.316 37.8288L202.34 50.9328H197.588L200.516 37.8288L197.588 25.4928H202.34ZM194.564 25.4928L197.54 37.8288L194.564 50.9328H189.812L192.74 37.8288L189.812 25.4928H194.564Z" fill="white"/>
<defs>
<filter id="filter0_ii_4002_23115" x="10.1777" y="10.6924" width="205.138" height="54.3682" filterUnits="userSpaceOnUse" color-interpolation-filters="sRGB">
<feFlood flood-opacity="0" result="BackgroundImageFix"/>
<feBlend mode="normal" in="SourceGraphic" in2="BackgroundImageFix" result="shape"/>
<feColorMatrix in="SourceAlpha" type="matrix" values="0 0 0 0 0 0 0 0 0 0 0 0 0 0 0 0 0 0 127 0" result="hardAlpha"/>
<feOffset dx="-2" dy="-2"/>
<feGaussianBlur stdDeviation="2"/>
<feComposite in2="hardAlpha" operator="arithmetic" k2="-1" k3="1"/>
<feColorMatrix type="matrix" values="0 0 0 0 0.0901961 0 0 0 0 0.141176 0 0 0 0 0.0470588 0 0 0 1 0"/>
<feBlend mode="normal" in2="shape" result="effect1_innerShadow_4002_23115"/>
<feColorMatrix in="SourceAlpha" type="matrix" values="0 0 0 0 0 0 0 0 0 0 0 0 0 0 0 0 0 0 127 0" result="hardAlpha"/>
<feOffset dx="2" dy="2"/>
<feGaussianBlur stdDeviation="1"/>
<feComposite in2="hardAlpha" operator="arithmetic" k2="-1" k3="1"/>
<feColorMatrix type="matrix" values="0 0 0 0 0.290196 0 0 0 0 0.439216 0 0 0 0 0.152941 0 0 0 1 0"/>
<feBlend mode="normal" in2="effect1_innerShadow_4002_23115" result="effect2_innerShadow_4002_23115"/>
</filter>
</defs>
</svg>
