<svg xmlns="http://www.w3.org/2000/svg" width="240" height="106" viewBox="0 0 240 106" fill="none">
    <g filter="url(#filter0_i_2001_3745)">
        <path
            d="M120 -134C125.031 -134 129.793 -133.242 134.037 -131.893C139.867 -130.039 146.045 -128.808 152.141 -128.287C156.578 -127.908 161.268 -126.784 165.919 -124.856C170.562 -122.932 174.669 -120.413 178.071 -117.546C182.761 -113.595 188.012 -110.085 193.455 -107.26C197.404 -105.212 201.3 -102.379 204.853 -98.8232C208.411 -95.2584 211.244 -91.3529 213.292 -87.3961C216.106 -81.9589 219.605 -76.7142 223.548 -72.0312C226.418 -68.6239 228.939 -64.5107 230.864 -59.8574C232.833 -55.1072 233.964 -50.3139 234.319 -45.792C234.784 -39.8651 235.976 -33.8647 237.812 -28.2101C239.193 -23.9538 239.978 -19.1637 239.998 -14.0948C239.998 -14.0942 239.998 -14.0936 239.999 -14.0933C240 -14.093 240 -14.0923 240 -14.0917C240 -14.0601 239.999 -14.0286 239.999 -13.9971C239.999 -13.9652 240 -13.9332 240 -13.9014C240 -13.9008 240 -13.9004 239.999 -13.9004C239.998 -13.9004 239.998 -13.9 239.998 -13.8994C239.975 -7.85705 238.864 -2.21037 236.952 2.61006C235.36 6.62151 234.498 10.9563 234.434 15.2715C234.356 20.5107 233.201 26.2163 230.864 31.8643C228.94 36.5141 226.421 40.6268 223.555 44.0332C219.61 48.7213 216.105 53.969 213.287 59.4097C211.24 63.3629 208.408 67.2653 204.853 70.8232C201.294 74.3811 197.393 77.2155 193.442 79.2646C188.006 82.0844 182.762 85.5881 178.08 89.5363C174.676 92.4072 170.567 94.93 165.919 96.8564C161.277 98.7802 156.594 99.9059 152.163 100.288C146.055 100.814 139.86 102.046 134.016 103.901C129.778 105.245 125.022 106 120 106C114.969 106 110.207 105.242 105.963 103.893C100.133 102.039 93.9547 100.808 87.859 100.287C83.4218 99.908 78.7319 98.7839 74.0811 96.8564C69.4379 94.9323 65.331 92.4131 61.9287 89.5464C57.239 85.595 51.9878 82.0848 46.5446 79.2604C42.5961 77.2116 38.7 74.3787 35.1475 70.8232C31.5894 67.2584 28.7555 63.3529 26.7077 59.3961C23.8937 53.9589 20.3951 48.7142 16.4516 44.0312C13.5824 40.6239 11.061 36.5108 9.13574 31.8574C6.79542 26.2119 5.63904 20.5055 5.56269 15.2661C5.49974 10.946 4.63716 6.60538 3.04407 2.58922C1.13382 -2.2265 0.0241198 -7.86896 0.000978435 -13.9067C0.000977402 -13.907 0.00075867 -13.9072 0.000489215 -13.9072C0.000219029 -13.9072 0 -13.9074 0 -13.9077V-14.0986C0 -14.0992 0.000438058 -14.0996 0.000978431 -14.0996C0.00151734 -14.0996 0.0019548 -14.1 0.00195687 -14.1006C0.0251916 -20.143 1.13578 -25.7896 3.04823 -30.6101C4.63974 -34.6215 5.50228 -38.9563 5.5661 -43.2714C5.6436 -48.5107 6.799 -54.2163 9.13574 -59.8643C11.0595 -64.5141 13.5786 -68.6268 16.4452 -72.0332C20.3903 -76.7213 23.8952 -81.969 26.7129 -87.4097C28.7604 -91.3629 31.5925 -95.2653 35.1475 -98.8232C38.7062 -102.381 42.6069 -105.216 46.5576 -107.265C51.994 -110.084 57.2381 -113.588 61.9195 -117.536C65.3236 -120.407 69.4325 -122.93 74.0811 -124.856C78.7231 -126.78 83.4062 -127.906 87.8366 -128.288C93.9454 -128.814 100.14 -130.046 105.984 -131.901C110.222 -133.245 114.978 -134 120 -134ZM8.66602 -30.9727C7.83067 -25.5201 7.38754 -19.9388 7.36233 -14.2583C7.36232 -14.2553 7.36472 -14.2529 7.36769 -14.2529C7.37065 -14.2529 7.37305 -14.2505 7.37305 -14.2476C7.37322 -10.7859 7.52867 -7.36064 7.83398 -3.97852C7.5427 -7.27953 7.39357 -10.6214 7.39355 -13.998C7.39355 -19.7677 7.82839 -25.4365 8.66602 -30.9727Z"
            fill="#1C1456" />
    </g>
    <defs>
        <filter id="filter0_i_2001_3745" x="-4" y="-138" width="244" height="244" filterUnits="userSpaceOnUse"
            color-interpolation-filters="sRGB">
            <feFlood flood-opacity="0" result="BackgroundImageFix" />
            <feBlend mode="normal" in="SourceGraphic" in2="BackgroundImageFix" result="shape" />
            <feColorMatrix in="SourceAlpha" type="matrix" values="0 0 0 0 0 0 0 0 0 0 0 0 0 0 0 0 0 0 127 0"
                result="hardAlpha" />
            <feOffset dx="-4" dy="-4" />
            <feGaussianBlur stdDeviation="2" />
            <feComposite in2="hardAlpha" operator="arithmetic" k2="-1" k3="1" />
            <feColorMatrix type="matrix" values="0 0 0 0 0.0528302 0 0 0 0 0.0377358 0 0 0 0 0.162264 0 0 0 1 0" />
            <feBlend mode="normal" in2="shape" result="effect1_innerShadow_2001_3745" />
        </filter>
    </defs>
</svg>