<svg width="1152" height="150" viewBox="0 0 1152 150" fill="none" xmlns="http://www.w3.org/2000/svg">
<g clip-path="url(#clip0_2013_1095)">
<path d="M210.858 95.5765V113.932C210.858 119.731 216.428 124.388 223.095 124.388C229.761 124.388 235.651 119.731 235.651 113.932V106.718H252.363V113.932C252.363 127.402 239.258 138.314 223.095 138.314C206.931 138.314 194.101 127.402 194.101 114.16V113.932L194.375 54.7109V35.899C194.375 22.4293 207.479 11.5166 223.643 11.5166C239.806 11.5166 252.637 22.4293 252.637 35.899V73.7511C252.637 87.2208 239.532 97.9052 223.643 97.9052C218.894 97.9052 214.739 97.2203 210.812 95.5765H210.858ZM211.132 73.7511C211.132 79.3216 216.702 83.9789 223.688 83.9789C230.674 83.9789 235.925 79.3216 235.925 73.7511V35.899C235.925 30.1002 230.355 25.4429 223.688 25.4429C217.022 25.4429 211.132 30.1002 211.132 35.899V73.7511Z" fill="#1C1456"/>
<path d="M264.416 113.932V35.899C264.416 22.4293 277.52 11.5166 293.684 11.5166C309.848 11.5166 322.952 22.4293 322.952 35.899V51.469H306.241V35.899C306.241 30.1002 300.67 25.4429 293.684 25.4429C286.698 25.4429 281.128 30.1002 281.128 35.899V113.932C281.128 119.731 286.698 124.388 293.684 124.388C297.017 124.388 300.122 123.201 302.314 121.374C304.825 119.502 306.241 116.717 306.241 113.932V98.3618H322.952V113.932C322.952 127.402 309.848 138.314 293.684 138.314C277.52 138.314 264.416 127.402 264.416 113.932Z" fill="#1C1456"/>
<path d="M370.576 25.8999V138.315H353.864V25.8999L328.203 26.1282V12.2019L396.191 11.9736V25.8999H370.576Z" fill="#1C1456"/>
<path d="M418.794 95.5765V113.932C418.794 119.731 424.365 124.388 431.031 124.388C437.698 124.388 443.588 119.731 443.588 113.932V106.718H460.299V113.932C460.299 127.402 447.195 138.314 431.031 138.314C414.868 138.314 402.037 127.402 402.037 114.16V113.932L402.311 54.7109V35.899C402.311 22.4293 415.415 11.5166 431.579 11.5166C447.743 11.5166 460.573 22.4293 460.573 35.899V73.7511C460.573 87.2208 447.469 97.9052 431.579 97.9052C426.83 97.9052 422.675 97.2203 418.749 95.5765H418.794ZM419.068 73.7511C419.068 79.3216 424.639 83.9789 431.625 83.9789C438.611 83.9789 443.862 79.3216 443.862 73.7511V35.899C443.862 30.1002 438.291 25.4429 431.625 25.4429C424.958 25.4429 419.068 30.1002 419.068 35.899V73.7511Z" fill="#1C1456"/>
<path d="M472.306 113.932V35.899C472.306 22.4293 485.411 11.5166 501.574 11.5166C517.738 11.5166 530.842 22.4293 530.842 35.899V51.469H514.131V35.899C514.131 30.1002 508.56 25.4429 501.574 25.4429C494.588 25.4429 489.018 30.1002 489.018 35.899V113.932C489.018 119.731 494.588 124.388 501.574 124.388C504.908 124.388 507.967 123.201 510.204 121.374C512.715 119.502 514.085 116.717 514.085 113.932V98.3618H530.797V113.932C530.797 127.402 517.692 138.314 501.529 138.314C485.365 138.314 472.261 127.402 472.261 113.932H472.306Z" fill="#1C1456"/>
<path d="M578.511 25.8999V138.315H561.8V25.8999L536.185 26.1282V12.2019L604.172 11.9736V25.8999H578.511Z" fill="#1C1456"/>
<path d="M674.124 76.3085V114.161C674.124 127.402 661.02 138.315 644.856 138.315C640.655 138.315 636.5 137.401 632.619 135.986V138.315H615.908L615.634 11.9736H632.345V14.3023C636.226 12.8868 640.427 11.9736 644.902 11.9736C660.791 11.9736 673.896 22.8864 673.896 36.1277V40.0545C673.896 47.2688 670.289 53.5242 664.125 58.1815C670.243 62.6105 674.17 69.0942 674.17 76.3085H674.124ZM632.619 40.0545C632.619 45.625 638.19 50.2823 644.856 50.2823C651.522 50.2823 657.093 45.625 657.093 40.0545V36.1277C657.093 30.5572 651.522 25.8999 644.856 25.8999C638.19 25.8999 632.619 30.5572 632.619 36.1277V40.0545ZM657.413 76.3085C657.413 70.5097 651.842 65.8524 644.856 65.8524C637.87 65.8524 632.619 70.5097 632.619 76.3085V114.161C632.619 119.731 638.19 124.388 644.856 124.388C651.522 124.388 657.413 119.731 657.413 114.161V76.3085Z" fill="#1C1456"/>
<path d="M702.524 95.5765V113.932C702.524 119.731 708.094 124.388 714.761 124.388C721.427 124.388 727.317 119.731 727.317 113.932V106.718H744.029V113.932C744.029 127.402 730.924 138.314 714.761 138.314C698.597 138.314 685.767 127.402 685.767 114.16V113.932L686.041 54.7109V35.899C686.041 22.4293 699.145 11.5166 715.309 11.5166C731.472 11.5166 744.303 22.4293 744.303 35.899V73.7511C744.303 87.2208 731.198 97.9052 715.309 97.9052C710.56 97.9052 706.405 97.2203 702.478 95.5765H702.524ZM702.798 73.7511C702.798 79.3216 708.368 83.9789 715.354 83.9789C722.34 83.9789 727.637 79.3216 727.637 73.7511V35.899C727.637 30.1002 722.066 25.4429 715.354 25.4429C708.642 25.4429 702.798 30.1002 702.798 35.899V73.7511Z" fill="#1C1456"/>
<path d="M796.767 65.3958L773.07 65.6241L773.344 138.315H756.632L756.358 11.9736H773.07V51.6978L796.767 51.4695L796.494 11.9736H813.205L813.479 138.315H796.767V65.3958Z" fill="#1C1456"/>
<path d="M868.636 65.3958L844.938 65.6241L845.212 138.315H828.501L828.227 11.9736H844.938V51.6978L868.636 51.4695L868.362 11.9736H885.073L885.347 138.315H868.636V65.3958Z" fill="#1C1456"/>
<path d="M899.593 113.932V35.899C899.593 22.4293 912.697 11.5166 928.587 11.5166C944.476 11.5166 957.855 22.4293 957.855 35.899V113.932C957.855 127.402 944.75 138.314 928.587 138.314C912.423 138.314 899.593 127.402 899.593 113.932ZM916.304 35.899V113.932C916.304 119.731 921.875 124.388 928.541 124.388C935.207 124.388 941.098 119.731 941.098 113.932V35.899C941.098 30.1002 935.527 25.4429 928.541 25.4429C921.555 25.4429 916.304 30.1002 916.304 35.899Z" fill="#1C1456"/>
<path d="M999.86 71.24C999.86 71.24 1010.91 57.4507 1019.13 37.2233C1027.35 16.996 1042.69 -8.02568 1058.72 2.7044C1075.15 13.7084 1054.06 67.9981 999.86 71.24Z" fill="#1C1456"/>
<path d="M1042.78 62.4277C1042.78 62.4277 1063.78 59.9164 1070.82 43.6158C1073.78 36.7211 1075.98 25.8997 1083.51 22.3382C1089.22 19.6443 1094.33 23.0231 1094.7 28.8219C1095.52 42.3829 1082.96 54.3002 1071.46 59.0032C1062.42 62.7016 1052.42 63.3865 1042.78 62.4277Z" fill="#1C1456"/>
<path d="M1109.49 68.226C1109.49 68.226 1122.37 74.9837 1132.28 68.9566C1136.43 66.4453 1141.59 61.4683 1147.16 62.4729C1151.36 63.2491 1153.1 66.9932 1151.18 70.235C1146.75 77.8146 1135.29 79.3214 1127.02 77.4036C1120.54 75.8969 1114.56 72.4267 1109.45 68.1803L1109.49 68.226Z" fill="#1C1456"/>
<path d="M994.885 85.3488C994.885 85.3488 1010.27 88.545 1014.29 120.507C1018.31 152.469 1040.68 155.026 1048.44 143.109C1056.25 131.191 1053.06 71.7878 994.885 85.3488Z" fill="#1C1456"/>
<path d="M1028.67 77.907C1028.67 77.907 1044.79 78.5919 1054.61 96.308C1064.47 114.024 1075.11 122.928 1084.88 114.937C1094.65 106.947 1079.04 70.7841 1028.67 77.907Z" fill="#1C1456"/>
<path d="M1090.82 60.966C1090.82 60.966 1099.22 58.683 1102.46 50.8752C1103.83 47.6333 1105.29 43.9349 1107.89 41.4236C1112.05 37.4512 1117.03 39.6429 1117.21 45.259C1117.48 52.9299 1111.82 59.3679 1104.56 61.103C1102.55 61.5596 1100.5 61.7423 1098.44 61.7423C1096.39 61.7423 1092.73 61.4683 1090.82 60.9204V60.966Z" fill="#1C1456"/>
<path d="M1070.45 70.6921C1070.45 70.6921 1084.56 68.9114 1088.08 81.4222C1089.31 85.8056 1090.77 91.8783 1094.88 94.5723C1100.41 98.1794 1107.57 94.481 1108.08 88.1799C1108.4 83.9792 1106.8 79.7328 1104.15 76.4909C1096.16 66.7197 1081.46 67.8612 1070.5 70.7378L1070.45 70.6921Z" fill="#1C1456"/>
<path d="M152.138 71.24C152.138 71.24 141.089 57.4507 132.87 37.2233C124.651 16.996 109.309 -8.02568 93.2826 2.7044C76.845 13.7084 97.9399 67.9981 152.138 71.24Z" fill="#1C1456"/>
<path d="M109.173 62.4277C109.173 62.4277 88.1698 59.9164 81.1382 43.6158C78.1703 36.7211 75.9786 25.8997 68.4447 22.3382C62.7372 19.6443 57.6233 23.0231 57.258 28.8219C56.4361 42.3829 68.9926 54.3002 80.4989 59.0032C89.5396 62.7016 99.5391 63.3865 109.173 62.4277Z" fill="#1C1456"/>
<path d="M42.5095 68.226C42.5095 68.226 29.6334 74.9837 19.7252 68.9566C15.5702 66.4453 10.4106 61.4683 4.8401 62.4729C0.639384 63.2491 -1.09569 66.9932 0.822024 70.235C5.25104 77.8146 16.7117 79.3214 24.9761 77.4036C31.4598 75.8969 37.4413 72.4267 42.5552 68.1803L42.5095 68.226Z" fill="#1C1456"/>
<path d="M157.115 85.3488C157.115 85.3488 141.727 88.545 137.709 120.507C133.691 152.469 111.318 155.026 103.556 143.109C95.7478 131.191 98.944 71.7878 157.115 85.3488Z" fill="#1C1456"/>
<path d="M123.328 77.907C123.328 77.907 107.21 78.5919 97.3931 96.308C87.5305 114.024 76.8918 122.928 67.1205 114.937C57.3493 106.947 72.965 70.7841 123.328 77.907Z" fill="#1C1456"/>
<path d="M61.1861 60.967C61.1861 60.967 52.7847 58.684 49.5429 50.8762C48.1731 47.6343 46.7119 43.9359 44.1093 41.4246C39.9543 37.4522 34.9773 39.6438 34.7947 45.26C34.5207 52.9309 40.1826 59.3689 47.4425 61.104C49.4515 61.5606 51.5062 61.7432 53.5609 61.7432C55.6156 61.7432 59.2684 61.4693 61.1861 60.9214V60.967Z" fill="#1C1456"/>
<path d="M81.549 70.6921C81.549 70.6921 67.4401 68.9114 63.9243 81.4222C62.6915 85.8056 61.2303 91.8783 57.121 94.5723C51.5961 98.1794 44.4275 94.481 43.9252 88.1799C43.6056 83.9792 45.2037 79.7328 47.852 76.4909C55.8425 66.7197 70.545 67.8612 81.5034 70.7378L81.549 70.6921Z" fill="#1C1456"/>
</g>
<defs>
<clipPath id="clip0_2013_1095">
<rect width="1152" height="149.536" fill="white"/>
</clipPath>
</defs>
</svg>
