<svg width="32" height="33" viewBox="0 0 32 33" fill="none" xmlns="http://www.w3.org/2000/svg">
    <path
        d="M27.4583 17.6594L17.4477 27.6436C17.0768 28.0128 16.5741 28.2202 16.0501 28.2202C15.5261 28.2202 15.0234 28.0128 14.6526 27.6436L4.38518 17.4033C3.67277 16.6934 3.11295 15.846 2.73992 14.913C2.36689 13.9801 2.18848 12.981 2.21557 11.977C2.24267 10.9729 2.47472 9.98492 2.89753 9.07331C3.32035 8.1617 3.92506 7.34563 4.67473 6.67494C7.5509 4.08551 12.2416 4.32712 15.1236 7.20438L15.5633 7.64253C15.8324 7.91064 16.2677 7.91052 16.5366 7.64228L17.2334 6.94736C17.9476 6.24203 18.7966 5.68708 19.7301 5.3155C20.6636 4.94393 21.6624 4.7633 22.6672 4.78437C23.675 4.80756 24.6673 5.03707 25.5825 5.45867C26.4976 5.88027 27.3161 6.48495 27.9872 7.23519C30.5796 10.1057 30.3422 14.7821 27.4583 17.6594Z"
        fill="#E54B39" />
</svg>