<svg width="160" height="80" viewBox="0 0 160 80" fill="none" xmlns="http://www.w3.org/2000/svg">
    <path
        d="M34.373 18.4004C35.7181 18.4004 36.9953 18.7354 38.1182 19.3311C39.2404 18.736 40.5162 18.4004 41.8613 18.4004H49.2051C50.4244 18.4004 51.58 18.6742 52.6143 19.1621C53.6526 18.6728 54.8095 18.4004 56.0215 18.4004H63.749L64.1152 18.4082C65.1961 18.4572 66.2264 18.7236 67.1611 19.165C68.1973 18.6748 69.3557 18.4004 70.5781 18.4004L84.5459 18.4004C84.787 18.4004 85.026 18.4127 85.2617 18.4336C85.4975 18.4127 85.7363 18.4004 85.9775 18.4004H91.2578C92.3187 18.4005 93.3305 18.6093 94.2568 18.9844C95.1836 18.609 96.1964 18.4004 97.2578 18.4004H102.634C103.123 18.4004 103.602 18.447 104.067 18.5312C104.533 18.447 105.012 18.4004 105.502 18.4004H110.206C111.159 18.4004 112.073 18.5682 112.921 18.874C113.772 18.5674 114.686 18.4004 115.63 18.4004H122.254C122.494 18.4004 122.732 18.4128 122.967 18.4336C123.202 18.4128 123.439 18.4004 123.68 18.4004H140C144.418 18.4005 148 21.9822 148 26.4004V31.2002C148 34.7522 145.684 37.7615 142.48 38.8057V60C142.48 64.418 138.898 67.9996 134.48 68H129.2C127.956 68 126.777 67.7151 125.727 67.208C124.676 67.715 123.498 68 122.254 68H117.502C116.329 68 115.216 67.7453 114.213 67.292C113.203 67.7478 112.088 68 110.926 68H105.502C105.012 68 104.533 67.9534 104.067 67.8691C103.602 67.9533 103.123 68 102.634 68H97.2578C96.1965 68 95.1836 67.7913 94.2568 67.416C93.3305 67.791 92.3186 67.9999 91.2578 68H85.9775C84.0578 68 82.2967 67.3225 80.918 66.1953C79.5394 67.3226 77.7781 67.9999 75.8584 68H70.5781C70.3296 68 70.0836 67.987 69.8408 67.9648C69.6039 67.9861 69.3651 68 69.125 68H63.7969C62.2853 68 60.8611 67.5767 59.6445 66.8369C58.4281 67.5764 57.0044 67.9999 55.4932 68H50.6445C50.4064 68 50.1696 67.9858 49.9346 67.9648C49.6944 67.9865 49.4509 68 49.2051 68H44.2129C43.5859 68 42.9761 67.9255 42.3906 67.7891C41.8029 67.9265 41.1916 68 40.5654 68H35.5732C34.8978 68 34.2397 67.9133 33.6094 67.7539C32.9787 67.9138 32.3181 68 31.6377 68H27.0293C22.6111 68 19.0293 64.4183 19.0293 60V26.4004C19.0293 21.9821 22.6111 18.4004 27.0293 18.4004H34.373ZM31.6377 60V36.2461L31.6367 36.2402L31.6377 60ZM75.8574 60H75.8584V31.2002H75.8574V60ZM91.2568 60H91.2578V45.5996H91.2568V60ZM91.2568 40.7998H91.2578V26.4004H91.2568V40.7998Z"
        fill="#6AA338" />
    <g filter="url(#filter0_ii_4017_23373)">
        <path
            d="M28.373 12.4004C29.7181 12.4004 30.9953 12.7354 32.1182 13.3311C33.2403 12.736 34.5162 12.4005 35.8613 12.4004H43.2051C44.4244 12.4004 45.58 12.6742 46.6143 13.1621C47.6526 12.6727 48.8095 12.4004 50.0215 12.4004H57.749L58.1152 12.4082C59.1961 12.4572 60.2264 12.7236 61.1611 13.165C62.1973 12.6748 63.3557 12.4004 64.5781 12.4004H78.5459C78.787 12.4004 79.026 12.4127 79.2617 12.4336C79.4975 12.4127 79.7363 12.4004 79.9775 12.4004H85.2578C86.3187 12.4004 87.3305 12.6094 88.2568 12.9844C89.1836 12.609 90.1964 12.4004 91.2578 12.4004H96.6338C97.1232 12.4004 97.6022 12.4471 98.0674 12.5312C98.5328 12.4469 99.0122 12.4004 99.502 12.4004H104.206C105.159 12.4004 106.073 12.5682 106.921 12.874C107.772 12.5674 108.686 12.4004 109.63 12.4004H116.254C116.494 12.4004 116.732 12.4129 116.967 12.4336C117.202 12.4128 117.439 12.4004 117.68 12.4004H134C138.418 12.4004 142 15.9821 142 20.4004V25.2002C142 28.7523 139.684 31.7615 136.48 32.8057V54C136.48 58.4181 132.899 61.9997 128.48 62H123.2C121.956 62 120.777 61.7152 119.727 61.208C118.676 61.7149 117.498 62 116.254 62H111.502C110.329 62 109.216 61.7453 108.213 61.292C107.203 61.7477 106.088 62 104.926 62H99.502C99.0122 62 98.5328 61.9534 98.0674 61.8691C97.6022 61.9533 97.1232 62 96.6338 62H91.2578C90.1965 62 89.1836 61.7914 88.2568 61.416C87.3305 61.791 86.3186 62 85.2578 62H79.9775C78.0578 61.9999 76.2966 61.3226 74.918 60.1953C73.5393 61.3226 71.7781 61.9999 69.8584 62H64.5781C64.3296 62 64.0836 61.987 63.8408 61.9648C63.6039 61.9861 63.365 62 63.125 62H57.7969C56.2854 61.9999 54.8611 61.5767 53.6445 60.8369C52.4281 61.5764 51.0044 62 49.4932 62H44.6445C44.4065 62 44.1696 61.9858 43.9346 61.9648C43.6944 61.9865 43.4509 62 43.2051 62H38.2129C37.5859 61.9999 36.976 61.9255 36.3906 61.7891C35.8029 61.9265 35.1916 62 34.5654 62H29.5732C28.8978 62 28.2397 61.9134 27.6094 61.7539C26.9787 61.9138 26.3181 62 25.6377 62H21.0293C16.6112 61.9998 13.0293 58.4181 13.0293 54L13.0293 20.4004C13.0293 15.9822 16.6112 12.4006 21.0293 12.4004H28.373ZM38.2129 29.9102V54L38.2139 29.9043L38.2129 29.9102ZM117.68 25.2002H117.681V20.4004H117.68V25.2002Z"
            fill="#283D15" />
    </g>
    <path
        d="M32.2614 44.256L35.8614 20.4H43.2054V54H38.2134V29.904L34.5654 54H29.5734L25.6374 30.24V54H21.0294V20.4H28.3734L32.2614 44.256ZM63.125 54H57.797L56.885 47.904H50.405L49.493 54H44.645L50.021 20.4H57.749L63.125 54ZM51.077 43.344H56.165L53.621 26.352L51.077 43.344ZM69.8581 54H64.5781V20.4H78.5461V25.2H69.8581V54ZM85.2575 54H79.9775V20.4H85.2575V34.8H91.2575V20.4H96.6335V54H91.2575V39.6H85.2575V54ZM104.926 54H99.5019V20.4H104.206V40.512L109.63 20.4H116.254V54H111.502V29.664L104.926 54ZM117.68 20.4H134V25.2H128.48V54H123.2V25.2H117.68V20.4Z"
        fill="white" />
    <defs>
        <filter id="filter0_ii_4017_23373" x="11.0293" y="10.4004" width="132.971" height="53.5996"
            filterUnits="userSpaceOnUse" color-interpolation-filters="sRGB">
            <feFlood flood-opacity="0" result="BackgroundImageFix" />
            <feBlend mode="normal" in="SourceGraphic" in2="BackgroundImageFix" result="shape" />
            <feColorMatrix in="SourceAlpha" type="matrix" values="0 0 0 0 0 0 0 0 0 0 0 0 0 0 0 0 0 0 127 0"
                result="hardAlpha" />
            <feOffset dx="-2" dy="-2" />
            <feGaussianBlur stdDeviation="2" />
            <feComposite in2="hardAlpha" operator="arithmetic" k2="-1" k3="1" />
            <feColorMatrix type="matrix" values="0 0 0 0 0.0901961 0 0 0 0 0.141176 0 0 0 0 0.0470588 0 0 0 1 0" />
            <feBlend mode="normal" in2="shape" result="effect1_innerShadow_4017_23373" />
            <feColorMatrix in="SourceAlpha" type="matrix" values="0 0 0 0 0 0 0 0 0 0 0 0 0 0 0 0 0 0 127 0"
                result="hardAlpha" />
            <feOffset dx="2" dy="2" />
            <feGaussianBlur stdDeviation="1" />
            <feComposite in2="hardAlpha" operator="arithmetic" k2="-1" k3="1" />
            <feColorMatrix type="matrix" values="0 0 0 0 0.290196 0 0 0 0 0.439216 0 0 0 0 0.152941 0 0 0 1 0" />
            <feBlend mode="normal" in2="effect1_innerShadow_4017_23373" result="effect2_innerShadow_4017_23373" />
        </filter>
    </defs>
</svg>