<svg width="64" height="64" viewBox="0 0 64 64" fill="none" xmlns="http://www.w3.org/2000/svg">
<g clip-path="url(#clip0_2377_23445)">
<path d="M39.9683 7.28814C41.7061 6.84037 43.7224 6.97684 45.495 8.19932L45.8454 8.45826L45.8481 8.46059C46.9612 9.34 47.4145 9.5529 47.9161 9.63225C48.5446 9.73162 49.5538 9.65875 51.8375 9.10626C53.4572 8.71446 55.1095 8.87164 56.4057 9.81729C57.7188 10.7754 58.2955 12.283 58.1893 13.7534C57.9734 16.7401 55.2527 19.0538 51.434 19.5651L51.433 19.5654C47.4092 20.1031 45.6905 20.7181 44.629 21.807C43.5211 22.9438 42.7067 25.0292 41.9582 29.8637C41.3158 34.0252 42.6022 38.9408 44.2281 43.0365C45.024 45.0414 45.8667 46.7645 46.5094 47.9848C46.8301 48.5936 47.0989 49.0744 47.2856 49.3985C47.3788 49.5604 47.4517 49.6829 47.4994 49.7628C47.5232 49.8026 47.5411 49.8317 47.5521 49.8498C47.5576 49.8588 47.5612 49.8656 47.5633 49.869L47.5647 49.8707L47.645 50.0119C48.0221 50.7282 48.0084 51.5923 47.5999 52.2998L47.5951 52.3082C47.2695 52.8721 46.7261 53.2776 46.0927 53.4286L35.9091 55.856C35.059 56.0586 34.1661 55.7764 33.5864 55.1226C33.0069 54.4687 32.8343 53.549 33.1373 52.7295C35.0461 47.5671 32.3063 42.9024 27.9287 37.6942L27.9275 37.6935C25.9795 35.3739 24.1123 34.1796 22.4163 33.6592C20.7318 33.1424 19.017 33.2282 17.2542 33.8069C15.223 34.4739 12.6365 35.3816 10.4701 35.6965C9.38832 35.8537 8.1192 35.9146 6.94719 35.5435C5.61976 35.1232 4.50401 34.1649 4.02826 32.6263L4.02605 32.6219C3.66151 31.4338 3.94027 30.3209 4.53249 29.4521C5.04868 28.6949 5.78489 28.1379 6.43402 27.7233C7.72724 26.8974 9.61296 26.0728 11.5004 25.2112L11.503 25.2095C11.9948 24.9858 11.9995 24.8415 12.0015 24.8363C12.0848 24.6191 12.0974 24.3651 12.1503 23.4559C12.1936 22.7107 12.2766 21.5029 12.923 20.3139C13.6095 19.0509 14.7554 18.0986 16.3623 17.4158L16.9247 17.1903C19.3972 16.2578 21.276 16.3548 22.5334 16.5023C23.0627 14.8951 24.1439 13.435 25.3042 12.3841C26.5945 11.2153 28.6498 9.96372 30.8356 10.3398C31.9971 10.5397 33.0619 10.7265 34.016 10.6897C34.9515 10.6536 35.3033 10.4184 35.4691 10.2114C36.5536 8.85716 38.1669 7.75231 39.9683 7.28814Z" fill="white" stroke="white" stroke-width="4.7385" stroke-linejoin="round"/>
<g filter="url(#filter0_ii_2377_23445)">
<path d="M45.5483 51.1147C45.5483 51.1147 38.1329 39.1066 39.6166 29.5004C41.1051 19.8859 43.1356 18.2837 51.1192 17.2167C57.3908 16.3772 56.9749 10.3005 52.3943 11.4087C47.8136 12.517 46.7174 12.166 44.3793 10.3186C42.0429 8.4778 38.8835 9.73784 37.3187 11.6919C35.7539 13.646 32.6158 13.0501 30.4338 12.6747C28.2518 12.2993 25.114 15.2354 24.6274 17.8397C24.1492 20.4487 22.2536 17.4806 17.2909 19.5953C12.3264 21.7034 16.4569 25.5583 12.484 27.3657C8.50637 29.1814 5.79463 30.3075 6.29148 31.9263C7.18404 34.8128 12.2252 32.9645 16.5151 31.5557C20.8115 30.1452 25.3989 30.9974 29.742 36.1689C34.0834 41.334 37.7813 47.0008 35.3595 53.5505L45.5435 51.123L45.5483 51.1147Z" fill="#F49425"/>
</g>
</g>
<defs>
<filter id="filter0_ii_2377_23445" x="3.52471" y="6.71416" width="55.015" height="49.5438" filterUnits="userSpaceOnUse" color-interpolation-filters="sRGB">
<feFlood flood-opacity="0" result="BackgroundImageFix"/>
<feBlend mode="normal" in="SourceGraphic" in2="BackgroundImageFix" result="shape"/>
<feColorMatrix in="SourceAlpha" type="matrix" values="0 0 0 0 0 0 0 0 0 0 0 0 0 0 0 0 0 0 127 0" result="hardAlpha"/>
<feOffset dx="2.70771" dy="2.70771"/>
<feGaussianBlur stdDeviation="1.35386"/>
<feComposite in2="hardAlpha" operator="arithmetic" k2="-1" k3="1"/>
<feColorMatrix type="matrix" values="0 0 0 0 0.975983 0 0 0 0 0.766376 0 0 0 0 0.524017 0 0 0 1 0"/>
<feBlend mode="normal" in2="shape" result="effect1_innerShadow_2377_23445"/>
<feColorMatrix in="SourceAlpha" type="matrix" values="0 0 0 0 0 0 0 0 0 0 0 0 0 0 0 0 0 0 127 0" result="hardAlpha"/>
<feOffset dx="-2.70771" dy="-2.70771"/>
<feGaussianBlur stdDeviation="1.35386"/>
<feComposite in2="hardAlpha" operator="arithmetic" k2="-1" k3="1"/>
<feColorMatrix type="matrix" values="0 0 0 0 0.856769 0 0 0 0 0.479476 0 0 0 0 0.0432314 0 0 0 1 0"/>
<feBlend mode="normal" in2="effect1_innerShadow_2377_23445" result="effect2_innerShadow_2377_23445"/>
</filter>
<clipPath id="clip0_2377_23445">
<rect width="64" height="64" fill="white"/>
</clipPath>
</defs>
</svg>
