<svg width="96" height="96" viewBox="0 0 96 96" fill="none" xmlns="http://www.w3.org/2000/svg">
    <g clip-path="url(#clip0_4012_23338)">
        <g filter="url(#filter0_d_4012_23338)">
            <path
                d="M68.7847 76.3084C68.7847 76.3084 57.8302 58.5692 60.022 44.3783C62.2209 30.1753 65.2205 27.8083 77.0144 26.2321C86.2791 24.9919 85.6648 16.015 78.8979 17.6522C72.1311 19.2894 70.5117 18.7708 67.0577 16.0418C63.6063 13.3225 58.939 15.1839 56.6274 18.0705C54.3157 20.9572 49.6799 20.077 46.4566 19.5224C43.2332 18.9678 38.5979 23.3053 37.8791 27.1524C37.1725 31.0066 34.3723 26.6219 27.041 29.7459C19.7072 32.8601 25.809 38.5549 19.9401 41.2249C14.064 43.9071 10.0581 45.5706 10.7921 47.9621C12.1106 52.2261 19.5577 49.4956 25.895 47.4145C32.2419 45.3308 39.0187 46.5897 45.4346 54.2295C51.848 61.8596 57.3108 70.231 53.7331 79.9066L68.7776 76.3206L68.7847 76.3084Z"
                fill="white" />
            <path
                d="M60.5422 11.565C63.1947 10.8816 66.2857 11.1191 68.9657 13.0962L69.2237 13.2929L69.2275 13.2959C70.8719 14.5952 71.5415 14.9099 72.2826 15.0271C73.211 15.1739 74.7015 15.0667 78.0749 14.2505C80.4679 13.6716 82.9097 13.9029 84.8246 15.3001C86.7644 16.7155 87.6155 18.9431 87.4585 21.1153C87.1495 25.3897 83.3682 28.7316 78.0033 29.6229L77.4782 29.7009C71.5336 30.4954 68.9945 31.4042 67.4265 33.013C65.7901 34.6922 64.5856 37.7713 63.48 44.9116L63.4812 44.9122C62.5316 51.0603 64.4325 58.3224 66.8346 64.3735C68.0104 67.3354 69.2543 69.8813 70.2038 71.6842C70.6776 72.5835 71.0759 73.2929 71.3516 73.7717C71.4892 74.0107 71.5962 74.192 71.6667 74.31C71.702 74.3691 71.7278 74.4133 71.744 74.44C71.7519 74.453 71.7582 74.4617 71.7613 74.4667C71.7618 74.4677 71.7626 74.4686 71.763 74.4693L71.8816 74.6781C72.4389 75.7363 72.4193 77.013 71.8158 78.0584L71.8088 78.0703C71.3279 78.9034 70.5251 79.5025 69.5894 79.7256L54.5447 83.3109C53.2891 83.6102 51.9708 83.1942 51.1144 82.2283C50.2581 81.2623 50.0025 79.9036 50.4502 78.6928C53.2702 71.0663 49.2227 64.1753 42.7556 56.4812L42.7544 56.4805C39.8767 53.0538 37.1179 51.2902 34.6124 50.5215C32.1239 49.758 29.5903 49.8841 26.986 50.7391C23.9855 51.7244 20.1651 53.0662 16.9649 53.5314C15.3668 53.7637 13.4917 53.8535 11.7603 53.3053C9.79937 52.6844 8.15112 51.2689 7.44829 48.9962L7.44627 48.9886C6.90776 47.2337 7.31876 45.5899 8.19352 44.3066C8.95613 43.1879 10.0444 42.3656 11.0034 41.7531C12.9138 40.533 15.6989 39.314 18.4871 38.0412L18.4906 38.0393C19.2144 37.71 19.2237 37.4975 19.2266 37.4882C19.3499 37.1671 19.3692 36.7926 19.4474 35.4485C19.5115 34.3478 19.6329 32.5632 20.5876 30.8067C21.539 29.0568 23.0882 27.7109 25.2357 26.7183L25.6731 26.5243C29.7363 24.7939 32.7908 24.9423 34.7861 25.1764C35.5679 22.8021 37.1651 20.6449 38.8792 19.0923C40.7854 17.3659 43.8211 15.5174 47.05 16.0729C48.7659 16.3682 50.3393 16.6436 51.749 16.5892C53.1309 16.5358 53.6502 16.1884 53.8951 15.8827C55.4972 13.8821 57.881 12.2507 60.5422 11.565Z"
                stroke="white" stroke-width="7" stroke-linejoin="round" />
        </g>
        <g filter="url(#filter1_ii_4012_23338)">
            <path
                d="M68.7847 76.3079C68.7847 76.3079 57.8302 58.5687 60.022 44.3778C62.2209 30.1748 65.2205 27.8078 77.0144 26.2316C86.2791 24.9914 85.6648 16.0146 78.8979 17.6517C72.1311 19.2889 70.5117 18.7704 67.0577 16.0413C63.6063 13.322 58.939 15.1834 56.6274 18.07C54.3157 20.9567 49.6799 20.0765 46.4566 19.5219C43.2332 18.9673 38.5979 23.3048 37.8791 27.1519C37.1725 31.0061 34.3723 26.6214 27.041 29.7454C19.7072 32.8596 25.809 38.5544 19.9401 41.2244C14.064 43.9066 10.0581 45.5701 10.7921 47.9616C12.1106 52.2256 19.5577 49.4952 25.895 47.414C32.2419 45.3303 39.0187 46.5893 45.4346 54.229C51.848 61.8591 57.3108 70.2305 53.7331 79.9061L68.7776 76.3201L68.7847 76.3079Z"
                fill="#F49425" />
        </g>
    </g>
    <defs>
        <filter id="filter0_d_4012_23338" x="-28.2969" y="-16.2803" width="151.273" height="143.187"
            filterUnits="userSpaceOnUse" color-interpolation-filters="sRGB">
            <feFlood flood-opacity="0" result="BackgroundImageFix" />
            <feColorMatrix in="SourceAlpha" type="matrix" values="0 0 0 0 0 0 0 0 0 0 0 0 0 0 0 0 0 0 127 0"
                result="hardAlpha" />
            <feOffset dy="8" />
            <feGaussianBlur stdDeviation="16" />
            <feComposite in2="hardAlpha" operator="out" />
            <feColorMatrix type="matrix" values="0 0 0 0 0 0 0 0 0 0.12549 0 0 0 0 0.360784 0 0 0 0.12 0" />
            <feBlend mode="normal" in2="BackgroundImageFix" result="effect1_dropShadow_4012_23338" />
            <feBlend mode="normal" in="SourceGraphic" in2="effect1_dropShadow_4012_23338" result="shape" />
        </filter>
        <filter id="filter1_ii_4012_23338" x="6.70508" y="10.7163" width="81.2725" height="73.1899"
            filterUnits="userSpaceOnUse" color-interpolation-filters="sRGB">
            <feFlood flood-opacity="0" result="BackgroundImageFix" />
            <feBlend mode="normal" in="SourceGraphic" in2="BackgroundImageFix" result="shape" />
            <feColorMatrix in="SourceAlpha" type="matrix" values="0 0 0 0 0 0 0 0 0 0 0 0 0 0 0 0 0 0 127 0"
                result="hardAlpha" />
            <feOffset dx="4" dy="4" />
            <feGaussianBlur stdDeviation="2" />
            <feComposite in2="hardAlpha" operator="arithmetic" k2="-1" k3="1" />
            <feColorMatrix type="matrix" values="0 0 0 0 0.975983 0 0 0 0 0.766376 0 0 0 0 0.524017 0 0 0 1 0" />
            <feBlend mode="normal" in2="shape" result="effect1_innerShadow_4012_23338" />
            <feColorMatrix in="SourceAlpha" type="matrix" values="0 0 0 0 0 0 0 0 0 0 0 0 0 0 0 0 0 0 127 0"
                result="hardAlpha" />
            <feOffset dx="-4" dy="-4" />
            <feGaussianBlur stdDeviation="2" />
            <feComposite in2="hardAlpha" operator="arithmetic" k2="-1" k3="1" />
            <feColorMatrix type="matrix" values="0 0 0 0 0.856769 0 0 0 0 0.479476 0 0 0 0 0.0432314 0 0 0 1 0" />
            <feBlend mode="normal" in2="effect1_innerShadow_4012_23338" result="effect2_innerShadow_4012_23338" />
        </filter>
        <clipPath id="clip0_4012_23338">
            <rect width="96" height="96" fill="white" />
        </clipPath>
    </defs>
</svg>