<svg width="267" height="131" viewBox="0 0 267 131" fill="none" xmlns="http://www.w3.org/2000/svg">
    <g filter="url(#filter0_ii_4015_30451)">
        <path
            d="M105.218 4.22266C114.37 4.05896 125.392 5.31767 133.757 11.0703C143.181 17.5513 148.294 25.4673 150.865 34.3389C151.331 35.9468 151.71 37.5798 152.019 39.2285C153.327 37.798 154.867 36.4582 156.671 35.2256C161.792 31.7265 168.184 31.1325 172.873 31.2158C177.827 31.3039 182.537 32.1917 185.531 33.0312C188.984 33.9995 191.371 37.1481 191.371 40.7344L191.36 41.5664C191.147 50.1089 187.66 57.0938 183.221 62.0996C182.436 62.9847 181.606 63.8224 180.743 64.6094H182.75C183.811 64.6094 184.823 64.8182 185.75 65.1934C186.677 64.818 187.689 64.6094 188.75 64.6094H194.127C194.617 64.6094 195.095 64.656 195.561 64.7402C196.026 64.6559 196.505 64.6094 196.995 64.6094H202.274C204.941 64.6094 207.301 65.9145 208.755 67.9199C210.208 65.9146 212.568 64.6095 215.234 64.6094H218.356C219.31 61.2569 222.392 58.8008 226.05 58.8008H237.666C242.084 58.8009 245.666 62.3827 245.666 66.8008V66.8076C247.202 68.2654 248.162 70.3246 248.162 72.6094V106.209C248.162 110.627 244.58 114.209 240.162 114.209H235.41C234.238 114.209 233.125 113.954 232.121 113.501C231.111 113.957 229.996 114.209 228.834 114.209H223.41C222.916 114.209 222.432 114.162 221.962 114.076C221.492 114.162 221.009 114.209 220.515 114.209H215.234C213.762 114.209 212.384 113.809 211.199 113.115C209.076 113.915 206.852 114.209 204.771 114.209H196.995C196.505 114.209 196.026 114.162 195.561 114.078C195.095 114.162 194.616 114.209 194.127 114.209H188.75C187.689 114.209 186.677 114 185.75 113.625C184.823 114 183.811 114.209 182.75 114.209H177.471C176.182 114.209 174.965 113.902 173.887 113.36C171.979 113.976 170.013 114.209 168.159 114.209H160.384C159.892 114.209 159.41 114.162 158.942 114.077C158.475 114.162 157.995 114.209 157.503 114.209H152.223C150.179 114.209 148.315 113.442 146.901 112.181C145.839 112.802 144.707 113.28 143.523 113.612C143.511 113.616 143.499 113.619 143.487 113.622C143.476 113.625 143.465 113.63 143.454 113.633L143.453 113.632C141.82 114.091 140.158 114.305 138.494 114.305H137.198C136.607 114.305 136.028 114.269 135.468 114.209H130.609C129.098 114.209 127.674 113.785 126.457 113.045C125.24 113.785 123.817 114.209 122.306 114.209H117.457C115.543 114.209 113.709 113.523 112.272 112.301C110.876 113.49 109.068 114.209 107.091 114.209H101.811C99.1664 114.209 96.8227 112.925 95.3662 110.948C95.0962 111.199 94.8129 111.443 94.5127 111.675C94.4514 111.722 94.3898 111.769 94.3271 111.814C92.4853 113.154 90.3197 113.996 87.9541 114.183L87.9551 114.184C87.9506 114.184 87.9459 114.183 87.9414 114.184C87.9379 114.184 87.9341 114.185 87.9307 114.186L87.9297 114.185C86.8827 114.267 85.7779 114.305 84.6299 114.305H83.333C82.5109 114.305 81.7125 114.237 80.9541 114.129C79.8307 113.968 78.7903 113.578 77.876 113.012C76.6535 113.769 75.2129 114.209 73.6689 114.209H68.3887C67.4136 114.209 66.4793 114.034 65.6152 113.715C64.7408 114.036 63.8084 114.209 62.8555 114.209H57.5273C56.0157 114.209 54.5916 113.786 53.375 113.046C52.1585 113.785 50.735 114.209 49.2236 114.209H44.375C44.1385 114.209 43.9034 114.195 43.6699 114.175C43.4318 114.196 43.1909 114.209 42.9473 114.209H37.5713C36.5098 114.209 35.4972 114 34.5703 113.625C33.6439 114 32.6322 114.209 31.5713 114.209H26.291C21.8728 114.209 18.291 110.627 18.291 106.209V72.6094C18.291 68.1911 21.8728 64.6094 26.291 64.6094H31.5713C32.6322 64.6094 33.6439 64.8183 34.5703 65.1934C35.4972 64.8179 36.5098 64.6094 37.5713 64.6094H42.9473C44.1643 64.6094 45.3169 64.8829 46.3496 65.3691C47.3868 64.8811 48.5417 64.6094 49.752 64.6094H57.4795L57.8457 64.6172C58.6556 64.6539 59.4365 64.8146 60.1709 65.0771C61.0138 64.7752 61.9215 64.6094 62.8682 64.6094H79.1885C79.1914 64.6094 79.1944 64.6103 79.1973 64.6104C79.1999 64.6103 79.2025 64.6094 79.2051 64.6094H84.4854C86.4914 64.6094 88.3609 65.3575 89.7891 66.6221C91.2146 65.3595 93.0828 64.6094 95.0938 64.6094H100.373C100.61 64.6094 100.845 64.6239 101.079 64.6445C101.32 64.6227 101.564 64.6094 101.811 64.6094H102.206C97.9182 61.8196 93.7477 58.2651 90.0508 54.0693C81.758 44.6575 75.3712 31.5088 75.3711 15.3828C75.3711 11.8014 77.7515 8.65637 81.1982 7.68359C86.7902 6.10566 95.8009 4.39112 105.218 4.22266ZM144.275 104.103C144.196 104.197 144.115 104.288 144.031 104.375C144.198 104.201 144.357 104.013 144.506 103.811L144.275 104.103ZM90.8848 103.932H90.8857C90.9663 103.811 91.0459 103.685 91.125 103.554H91.124C91.0449 103.685 90.9654 103.811 90.8848 103.932ZM205.649 90.1348C205.812 90.176 205.964 90.2292 206.105 90.2959L205.875 90.2012C205.802 90.1757 205.727 90.1544 205.649 90.1348ZM205.33 90.0713C205.247 90.0594 205.161 90.0502 205.073 90.0439C205.161 90.0502 205.247 90.0594 205.33 90.0713ZM155.914 63.5352C156.125 63.5936 156.382 63.6596 156.682 63.7266C156.529 63.6925 156.388 63.6585 156.259 63.626L155.914 63.5352ZM155.421 63.3867C155.534 63.4245 155.694 63.4729 155.896 63.5293C155.687 63.471 155.524 63.421 155.41 63.3828L155.421 63.3867ZM140.963 62.5518C141.025 62.5315 141.084 62.5148 141.137 62.4971L141.156 62.4902C141.098 62.5098 141.033 62.529 140.963 62.5518ZM140.604 30.0937L140.271 29.4736C140.229 29.3989 140.186 29.3255 140.144 29.251C140.301 29.5307 140.456 29.8109 140.604 30.0937ZM137.936 25.8623C138.521 26.6444 139.06 27.4404 139.557 28.25V28.249C139.06 27.4394 138.521 26.6434 137.936 25.8613V25.8623Z"
            fill="#6AA338" />
    </g>
    <path
        d="M129.144 17.6613C116.591 9.02861 93.3451 12.5445 83.291 15.3815C83.291 43.1944 105.227 60.6726 118.937 63.2563C132.647 65.84 141.483 62.3444 141.483 62.3444C136.364 48.1188 117.515 32.7076 108.731 26.7803C131.398 33.9539 142.549 52.1615 145.291 60.3686C145.291 43.0425 144.834 28.4521 129.144 17.6613Z"
        fill="white" />
    <path
        d="M161.104 41.8298C167.178 37.6795 178.426 39.3698 183.291 40.7337C183.291 54.1053 172.677 62.5083 166.043 63.7504C159.409 64.9926 155.134 63.312 155.134 63.312C157.61 56.4728 166.731 49.0636 170.981 46.2139C160.013 49.6628 154.618 58.4164 153.291 62.3621C153.291 54.0323 153.512 47.0177 161.104 41.8298Z"
        fill="white" />
    <path
        d="M31.491 106.208H26.211V72.608H31.491V87.008H37.491V72.608H42.867V106.208H37.491V91.808H31.491V106.208ZM62.7754 106.208H57.4474L56.5354 100.112H50.0554L49.1434 106.208H44.2954L49.6714 72.608H57.3994L62.7754 106.208ZM50.7274 95.552H55.8154L53.2714 78.56L50.7274 95.552ZM62.7885 72.608H79.1085V77.408H73.5885V106.208H68.3085V77.408H62.7885V72.608ZM82.0054 101.408C82.2934 101.44 82.5974 101.456 82.9174 101.456C83.2374 101.456 83.5414 101.456 83.8294 101.456C84.2454 101.456 84.6294 101.408 84.9814 101.312C85.3654 101.216 85.6854 101.04 85.9414 100.784C86.2294 100.528 86.4374 100.16 86.5654 99.68C86.7254 99.2 86.8054 98.592 86.8054 97.856L79.1254 72.608H84.4054L90.2134 92.288L95.0134 72.608H100.293L93.3814 97.376C92.7734 99.68 92.1494 101.456 91.5094 102.704C90.9014 103.92 90.2454 104.8 89.5414 105.344C88.8374 105.856 88.0694 106.144 87.2374 106.208C86.4374 106.272 85.5414 106.304 84.5494 106.304C84.0694 106.304 83.6374 106.304 83.2534 106.304C82.8694 106.304 82.4534 106.272 82.0054 106.208V101.408ZM109.506 72.608C112.162 72.608 114.13 73.312 115.41 74.72C116.722 76.128 117.378 78.192 117.378 80.912V85.28C117.378 88 116.722 90.064 115.41 91.472C114.13 92.88 112.162 93.584 109.506 93.584H107.01V106.208H101.73V72.608H109.506ZM107.01 77.408V88.784H109.506C110.338 88.784 110.978 88.56 111.426 88.112C111.874 87.664 112.098 86.832 112.098 85.616V80.576C112.098 79.36 111.874 78.528 111.426 78.08C110.978 77.632 110.338 77.408 109.506 77.408H107.01ZM135.857 106.208H130.529L129.617 100.112H123.137L122.225 106.208H117.377L122.753 72.608H130.481L135.857 106.208ZM123.809 95.552H128.897L126.353 78.56L123.809 95.552ZM152.142 77.408H145.998V97.856C145.998 99.552 145.79 100.944 145.374 102.032C144.958 103.12 144.398 103.984 143.694 104.624C142.99 105.232 142.174 105.664 141.246 105.92C140.35 106.176 139.406 106.304 138.414 106.304C137.934 106.304 137.502 106.304 137.118 106.304C136.734 106.304 136.318 106.272 135.87 106.208V101.408C136.158 101.44 136.462 101.456 136.782 101.456C137.102 101.456 137.406 101.456 137.694 101.456C138.526 101.456 139.23 101.248 139.806 100.832C140.414 100.416 140.718 99.552 140.718 98.24V72.608H157.422V106.208H152.142V77.408ZM168.08 101.408C168.912 101.408 169.552 101.184 170 100.736C170.448 100.288 170.672 99.456 170.672 98.24V93.2C170.672 91.984 170.448 91.152 170 90.704C169.552 90.256 168.912 90.032 168.08 90.032H165.584V101.408H168.08ZM160.304 106.208V72.608H165.584V85.232H168.08C170.736 85.232 172.704 85.936 173.984 87.344C175.296 88.752 175.952 90.816 175.952 93.536V97.904C175.952 100.624 175.296 102.688 173.984 104.096C172.704 105.504 170.736 106.208 168.08 106.208H160.304ZM182.67 106.208H177.39V72.608H182.67V87.008H188.67V72.608H194.046V106.208H188.67V91.808H182.67V106.208ZM204.691 101.408C205.523 101.408 206.163 101.184 206.611 100.736C207.059 100.288 207.283 99.456 207.283 98.24V93.2C207.283 91.984 207.059 91.152 206.611 90.704C206.163 90.256 205.523 90.032 204.691 90.032H202.195V101.408H204.691ZM196.915 106.208V72.608H202.195V85.232H204.691C207.347 85.232 209.315 85.936 210.595 87.344C211.907 88.752 212.563 90.816 212.563 93.536V97.904C212.563 100.624 211.907 102.688 210.595 104.096C209.315 105.504 207.347 106.208 204.691 106.208H196.915ZM215.155 72.608H220.435V106.208H215.155V72.608ZM228.754 106.208H223.33V72.608H228.034V92.72L233.458 72.608H240.082V106.208H235.33V81.872L228.754 106.208ZM237.586 66.8V70.736H225.97V66.8H237.586Z"
        fill="#6AA338" />
    <path
        d="M31.491 106.208H26.211V72.608H31.491V87.008H37.491V72.608H42.867V106.208H37.491V91.808H31.491V106.208ZM62.7754 106.208H57.4474L56.5354 100.112H50.0554L49.1434 106.208H44.2954L49.6714 72.608H57.3994L62.7754 106.208ZM50.7274 95.552H55.8154L53.2714 78.56L50.7274 95.552ZM62.7885 72.608H79.1085V77.408H73.5885V106.208H68.3085V77.408H62.7885V72.608ZM82.0054 101.408C82.2934 101.44 82.5974 101.456 82.9174 101.456C83.2374 101.456 83.5414 101.456 83.8294 101.456C84.2454 101.456 84.6294 101.408 84.9814 101.312C85.3654 101.216 85.6854 101.04 85.9414 100.784C86.2294 100.528 86.4374 100.16 86.5654 99.68C86.7254 99.2 86.8054 98.592 86.8054 97.856L79.1254 72.608H84.4054L90.2134 92.288L95.0134 72.608H100.293L93.3814 97.376C92.7734 99.68 92.1494 101.456 91.5094 102.704C90.9014 103.92 90.2454 104.8 89.5414 105.344C88.8374 105.856 88.0694 106.144 87.2374 106.208C86.4374 106.272 85.5414 106.304 84.5494 106.304C84.0694 106.304 83.6374 106.304 83.2534 106.304C82.8694 106.304 82.4534 106.272 82.0054 106.208V101.408ZM109.506 72.608C112.162 72.608 114.13 73.312 115.41 74.72C116.722 76.128 117.378 78.192 117.378 80.912V85.28C117.378 88 116.722 90.064 115.41 91.472C114.13 92.88 112.162 93.584 109.506 93.584H107.01V106.208H101.73V72.608H109.506ZM107.01 77.408V88.784H109.506C110.338 88.784 110.978 88.56 111.426 88.112C111.874 87.664 112.098 86.832 112.098 85.616V80.576C112.098 79.36 111.874 78.528 111.426 78.08C110.978 77.632 110.338 77.408 109.506 77.408H107.01ZM135.857 106.208H130.529L129.617 100.112H123.137L122.225 106.208H117.377L122.753 72.608H130.481L135.857 106.208ZM123.809 95.552H128.897L126.353 78.56L123.809 95.552ZM152.142 77.408H145.998V97.856C145.998 99.552 145.79 100.944 145.374 102.032C144.958 103.12 144.398 103.984 143.694 104.624C142.99 105.232 142.174 105.664 141.246 105.92C140.35 106.176 139.406 106.304 138.414 106.304C137.934 106.304 137.502 106.304 137.118 106.304C136.734 106.304 136.318 106.272 135.87 106.208V101.408C136.158 101.44 136.462 101.456 136.782 101.456C137.102 101.456 137.406 101.456 137.694 101.456C138.526 101.456 139.23 101.248 139.806 100.832C140.414 100.416 140.718 99.552 140.718 98.24V72.608H157.422V106.208H152.142V77.408ZM168.08 101.408C168.912 101.408 169.552 101.184 170 100.736C170.448 100.288 170.672 99.456 170.672 98.24V93.2C170.672 91.984 170.448 91.152 170 90.704C169.552 90.256 168.912 90.032 168.08 90.032H165.584V101.408H168.08ZM160.304 106.208V72.608H165.584V85.232H168.08C170.736 85.232 172.704 85.936 173.984 87.344C175.296 88.752 175.952 90.816 175.952 93.536V97.904C175.952 100.624 175.296 102.688 173.984 104.096C172.704 105.504 170.736 106.208 168.08 106.208H160.304ZM182.67 106.208H177.39V72.608H182.67V87.008H188.67V72.608H194.046V106.208H188.67V91.808H182.67V106.208ZM204.691 101.408C205.523 101.408 206.163 101.184 206.611 100.736C207.059 100.288 207.283 99.456 207.283 98.24V93.2C207.283 91.984 207.059 91.152 206.611 90.704C206.163 90.256 205.523 90.032 204.691 90.032H202.195V101.408H204.691ZM196.915 106.208V72.608H202.195V85.232H204.691C207.347 85.232 209.315 85.936 210.595 87.344C211.907 88.752 212.563 90.816 212.563 93.536V97.904C212.563 100.624 211.907 102.688 210.595 104.096C209.315 105.504 207.347 106.208 204.691 106.208H196.915ZM215.155 72.608H220.435V106.208H215.155V72.608ZM228.754 106.208H223.33V72.608H228.034V92.72L233.458 72.608H240.082V106.208H235.33V81.872L228.754 106.208ZM237.586 66.8V70.736H225.97V66.8H237.586Z"
        fill="white" />
    <defs>
        <filter id="filter0_ii_4015_30451" x="14.291" y="0.208984" width="237.871" height="118.096"
            filterUnits="userSpaceOnUse" color-interpolation-filters="sRGB">
            <feFlood flood-opacity="0" result="BackgroundImageFix" />
            <feBlend mode="normal" in="SourceGraphic" in2="BackgroundImageFix" result="shape" />
            <feColorMatrix in="SourceAlpha" type="matrix" values="0 0 0 0 0 0 0 0 0 0 0 0 0 0 0 0 0 0 127 0"
                result="hardAlpha" />
            <feOffset dx="4" dy="4" />
            <feGaussianBlur stdDeviation="2" />
            <feComposite in2="hardAlpha" operator="arithmetic" k2="-1" k3="1" />
            <feColorMatrix type="matrix" values="0 0 0 0 0.607854 0 0 0 0 0.805662 0 0 0 0 0.434338 0 0 0 1 0" />
            <feBlend mode="normal" in2="shape" result="effect1_innerShadow_4015_30451" />
            <feColorMatrix in="SourceAlpha" type="matrix" values="0 0 0 0 0 0 0 0 0 0 0 0 0 0 0 0 0 0 127 0"
                result="hardAlpha" />
            <feOffset dx="-4" dy="-4" />
            <feGaussianBlur stdDeviation="2" />
            <feComposite in2="hardAlpha" operator="arithmetic" k2="-1" k3="1" />
            <feColorMatrix type="matrix" values="0 0 0 0 0.319452 0 0 0 0 0.491233 0 0 0 0 0.168767 0 0 0 1 0" />
            <feBlend mode="normal" in2="effect1_innerShadow_4015_30451" result="effect2_innerShadow_4015_30451" />
        </filter>
    </defs>
</svg>