<svg width="49" height="33" viewBox="0 0 49 33" fill="none" xmlns="http://www.w3.org/2000/svg">
    <path
        d="M21.2396 8.79736C17.0191 5.89476 9.60039 6.62537 5.33732 7.57704C4.48393 7.76754 3.89586 8.54315 3.96175 9.41507C4.69124 19.0678 12.4462 25.1033 17.3814 26.0334C20.271 26.5779 22.5877 26.4081 24.0722 26.1512C25.1116 25.9714 25.6258 24.8953 25.1241 23.9674C23.6848 21.3055 21.2264 18.6387 18.8101 16.4429C17.9758 15.6847 18.6394 14.5719 19.564 15.2171C22.6681 17.3836 24.79 20.0399 26.0708 22.2308C26.3502 22.7089 27.3265 22.4931 27.3095 21.9397C27.1481 16.6983 26.2413 12.2372 21.2396 8.79736Z"
        fill="#6AA338" />
    <path
        d="M31.4458 11.1184C34.8222 8.79633 40.7572 9.38081 44.1676 10.1421C44.8504 10.2946 45.3208 10.915 45.2681 11.6126C44.6845 19.3347 38.4806 24.1632 34.5324 24.9072C32.2207 25.3429 30.3673 25.207 29.1798 25.0015C28.3482 24.8576 27.9369 23.9967 28.3382 23.2544C29.4897 21.1249 31.4564 18.9915 33.3894 17.2348C34.0569 16.6282 33.526 15.738 32.7863 16.2542C30.303 17.9874 28.6055 20.1124 27.5809 21.8652C27.3573 22.2476 26.5763 22.075 26.5899 21.6323C26.719 17.4392 27.4445 13.8702 31.4458 11.1184Z"
        fill="#6AA338" />
</svg>