<svg width="267" height="131" viewBox="0 0 267 131" fill="none" xmlns="http://www.w3.org/2000/svg">
<g filter="url(#filter0_ii_2099_22321)">
<path d="M105.218 4.22266C114.371 4.05896 125.393 5.31767 133.757 11.0703C143.181 17.5513 148.295 25.4673 150.866 34.3389C151.332 35.9468 151.71 37.5798 152.019 39.2285C153.327 37.798 154.867 36.4582 156.671 35.2256C161.792 31.7265 168.185 31.1325 172.874 31.2158C177.827 31.3039 182.537 32.1917 185.532 33.0312C188.985 33.9995 191.371 37.1481 191.372 40.7344L191.361 41.5664C191.147 50.1089 187.66 57.0938 183.221 62.0996C182.436 62.9847 181.606 63.8224 180.744 64.6094H182.75C183.812 64.6094 184.824 64.8182 185.75 65.1934C186.677 64.818 187.689 64.6094 188.75 64.6094L194.127 64.6094C194.617 64.6094 195.096 64.656 195.561 64.7402C196.027 64.6559 196.506 64.6094 196.996 64.6094L202.275 64.6094C204.941 64.6094 207.302 65.9145 208.755 67.9199C210.209 65.9146 212.569 64.6095 215.235 64.6094L218.357 64.6094C219.31 61.2569 222.392 58.8008 226.05 58.8008H237.667C242.085 58.8009 245.666 62.3827 245.667 66.8008L245.667 66.8076C247.202 68.2654 248.163 70.3246 248.163 72.6094L248.163 106.209C248.163 110.627 244.581 114.209 240.163 114.209L235.411 114.209C234.238 114.209 233.125 113.954 232.122 113.501C231.111 113.957 229.996 114.209 228.834 114.209L223.411 114.209C222.916 114.209 222.432 114.162 221.962 114.076C221.493 114.162 221.009 114.209 220.515 114.209L215.235 114.209C213.763 114.209 212.385 113.809 211.2 113.115C209.077 113.915 206.853 114.209 204.771 114.209L196.996 114.209C196.506 114.209 196.027 114.162 195.561 114.078C195.096 114.162 194.617 114.209 194.127 114.209L188.75 114.209C187.689 114.209 186.677 114 185.75 113.625C184.824 114 183.812 114.209 182.75 114.209L177.471 114.209C176.182 114.209 174.966 113.902 173.887 113.36C171.98 113.976 170.013 114.209 168.16 114.209L160.384 114.209C159.892 114.209 159.411 114.162 158.943 114.077C158.476 114.162 157.995 114.209 157.503 114.209L152.223 114.209C150.18 114.209 148.316 113.442 146.902 112.181C145.84 112.802 144.707 113.28 143.524 113.612C143.512 113.616 143.5 113.619 143.488 113.622C143.477 113.625 143.466 113.63 143.455 113.633L143.454 113.632C141.821 114.091 140.158 114.305 138.495 114.305L137.199 114.305C136.608 114.305 136.029 114.269 135.468 114.209H130.61C129.098 114.209 127.674 113.785 126.458 113.045C125.241 113.785 123.818 114.209 122.306 114.209H117.458C115.544 114.209 113.709 113.523 112.273 112.301C110.877 113.49 109.069 114.209 107.091 114.209L101.811 114.209C99.1669 114.209 96.8232 112.925 95.3667 110.948C95.0967 111.199 94.8133 111.443 94.5132 111.675C94.4519 111.722 94.3902 111.769 94.3276 111.814C92.4858 113.154 90.3202 113.996 87.9546 114.183L87.9556 114.184C87.951 114.184 87.9464 114.183 87.9419 114.184C87.9384 114.184 87.9346 114.185 87.9312 114.186L87.9302 114.185C86.8832 114.267 85.7784 114.305 84.6304 114.305H83.3335C82.5114 114.305 81.713 114.237 80.9546 114.129C79.8312 113.968 78.7908 113.578 77.8765 113.012C76.654 113.769 75.2134 114.209 73.6694 114.209L68.3892 114.209C67.4141 114.209 66.4798 114.034 65.6157 113.715C64.7413 114.036 63.8089 114.209 62.856 114.209L57.5278 114.209C56.0162 114.209 54.5921 113.786 53.3755 113.046C52.159 113.785 50.7354 114.209 49.2241 114.209L44.3755 114.209C44.139 114.209 43.9039 114.195 43.6704 114.175C43.4323 114.196 43.1914 114.209 42.9478 114.209L37.5718 114.209C36.5103 114.209 35.4976 114 34.5708 113.625C33.6444 114 32.6327 114.209 31.5718 114.209L26.2915 114.209C21.8733 114.209 18.2915 110.627 18.2915 106.209V72.6094C18.2915 68.1911 21.8733 64.6094 26.2915 64.6094L31.5718 64.6094C32.6327 64.6094 33.6443 64.8183 34.5708 65.1934C35.4977 64.8179 36.5102 64.6094 37.5718 64.6094L42.9478 64.6094C44.1648 64.6094 45.3174 64.8829 46.3501 65.3691C47.3873 64.8811 48.5422 64.6094 49.7524 64.6094H57.48L57.8462 64.6172C58.6561 64.6539 59.437 64.8146 60.1714 65.0771C61.0143 64.7752 61.9219 64.6094 62.8687 64.6094H79.189C79.1919 64.6094 79.1949 64.6103 79.1978 64.6104C79.2004 64.6103 79.203 64.6094 79.2056 64.6094L84.4858 64.6094C86.4919 64.6094 88.3614 65.3575 89.7896 66.6221C91.2151 65.3595 93.0833 64.6094 95.0942 64.6094H100.374C100.61 64.6094 100.846 64.6239 101.08 64.6445C101.321 64.6227 101.564 64.6094 101.811 64.6094L102.207 64.6094C97.9187 61.8196 93.7481 58.2651 90.0513 54.0693C81.7585 44.6575 75.3717 31.5088 75.3716 15.3828C75.3716 11.8014 77.752 8.65637 81.1987 7.68359C86.7907 6.10566 95.8014 4.39112 105.218 4.22266ZM144.276 104.103C144.197 104.197 144.115 104.288 144.032 104.375C144.199 104.201 144.357 104.013 144.506 103.811L144.276 104.103ZM90.8853 103.932H90.8862C90.9668 103.811 91.0464 103.685 91.1255 103.554H91.1245C91.0454 103.685 90.9659 103.811 90.8853 103.932ZM205.65 90.1348C205.813 90.176 205.965 90.2292 206.106 90.2959L205.875 90.2012C205.803 90.1757 205.727 90.1544 205.65 90.1348ZM205.331 90.0713C205.247 90.0594 205.162 90.0502 205.074 90.0439C205.162 90.0502 205.247 90.0594 205.331 90.0713ZM155.915 63.5352C156.126 63.5936 156.382 63.6596 156.682 63.7266C156.53 63.6925 156.389 63.6585 156.259 63.626L155.915 63.5352ZM155.421 63.3867C155.535 63.4245 155.694 63.4729 155.897 63.5293C155.688 63.471 155.525 63.421 155.411 63.3828L155.421 63.3867ZM140.963 62.5518C141.026 62.5315 141.084 62.5148 141.137 62.4971L141.157 62.4902C141.099 62.5098 141.034 62.529 140.963 62.5518ZM140.605 30.0937L140.271 29.4736C140.23 29.3989 140.186 29.3255 140.144 29.251C140.302 29.5307 140.457 29.8109 140.605 30.0937ZM137.936 25.8623C138.521 26.6444 139.06 27.4404 139.557 28.25V28.249C139.06 27.4394 138.521 26.6434 137.936 25.8613V25.8623Z" fill="#6AA338"/>
</g>
<path d="M129.144 17.6613C116.592 9.02861 93.3456 12.5445 83.2915 15.3815C83.2915 43.1944 105.228 60.6726 118.938 63.2563C132.648 65.84 141.483 62.3444 141.483 62.3444C136.365 48.1188 117.516 32.7076 108.731 26.7803C131.399 33.9539 142.549 52.1615 145.292 60.3686C145.292 43.0425 144.835 28.4521 129.144 17.6613Z" fill="white"/>
<path d="M161.105 41.8298C167.178 37.6795 178.427 39.3698 183.292 40.7337C183.292 54.1053 172.677 62.5083 166.043 63.7504C159.409 64.9926 155.134 63.312 155.134 63.312C157.611 56.4728 166.731 49.0636 170.982 46.2139C160.014 49.6628 154.618 58.4164 153.292 62.3621C153.292 54.0323 153.513 47.0177 161.105 41.8298Z" fill="white"/>
<path d="M31.4915 106.208H26.2115V72.608H31.4915V87.008H37.4915V72.608H42.8675V106.208H37.4915V91.808H31.4915V106.208ZM62.7759 106.208H57.4479L56.5359 100.112H50.0559L49.1439 106.208H44.2959L49.6719 72.608H57.3999L62.7759 106.208ZM50.7279 95.552H55.8159L53.2719 78.56L50.7279 95.552ZM62.789 72.608H79.109V77.408H73.589V106.208H68.309V77.408H62.789V72.608ZM82.0059 101.408C82.2939 101.44 82.5979 101.456 82.9179 101.456C83.2379 101.456 83.5419 101.456 83.8299 101.456C84.2459 101.456 84.6299 101.408 84.9819 101.312C85.3659 101.216 85.6859 101.04 85.9419 100.784C86.2299 100.528 86.4379 100.16 86.5659 99.68C86.7259 99.2 86.8059 98.592 86.8059 97.856L79.1259 72.608H84.4059L90.2139 92.288L95.0139 72.608H100.294L93.3819 97.376C92.7739 99.68 92.1499 101.456 91.5099 102.704C90.9019 103.92 90.2459 104.8 89.5419 105.344C88.8379 105.856 88.0699 106.144 87.2379 106.208C86.4379 106.272 85.5419 106.304 84.5499 106.304C84.0699 106.304 83.6379 106.304 83.2539 106.304C82.8699 106.304 82.4539 106.272 82.0059 106.208V101.408ZM109.507 72.608C112.163 72.608 114.131 73.312 115.411 74.72C116.723 76.128 117.379 78.192 117.379 80.912V85.28C117.379 88 116.723 90.064 115.411 91.472C114.131 92.88 112.163 93.584 109.507 93.584H107.011V106.208H101.731V72.608H109.507ZM107.011 77.408V88.784H109.507C110.339 88.784 110.979 88.56 111.427 88.112C111.875 87.664 112.099 86.832 112.099 85.616V80.576C112.099 79.36 111.875 78.528 111.427 78.08C110.979 77.632 110.339 77.408 109.507 77.408H107.011ZM135.858 106.208H130.53L129.618 100.112H123.138L122.226 106.208H117.378L122.754 72.608H130.482L135.858 106.208ZM123.81 95.552H128.898L126.354 78.56L123.81 95.552ZM152.143 77.408H145.999V97.856C145.999 99.552 145.791 100.944 145.375 102.032C144.959 103.12 144.399 103.984 143.695 104.624C142.991 105.232 142.175 105.664 141.247 105.92C140.351 106.176 139.407 106.304 138.415 106.304C137.935 106.304 137.503 106.304 137.119 106.304C136.735 106.304 136.319 106.272 135.871 106.208V101.408C136.159 101.44 136.463 101.456 136.783 101.456C137.103 101.456 137.407 101.456 137.695 101.456C138.527 101.456 139.231 101.248 139.807 100.832C140.415 100.416 140.719 99.552 140.719 98.24V72.608H157.423V106.208H152.143V77.408ZM168.08 101.408C168.912 101.408 169.552 101.184 170 100.736C170.448 100.288 170.672 99.456 170.672 98.24V93.2C170.672 91.984 170.448 91.152 170 90.704C169.552 90.256 168.912 90.032 168.08 90.032H165.584V101.408H168.08ZM160.304 106.208V72.608H165.584V85.232H168.08C170.736 85.232 172.704 85.936 173.984 87.344C175.296 88.752 175.952 90.816 175.952 93.536V97.904C175.952 100.624 175.296 102.688 173.984 104.096C172.704 105.504 170.736 106.208 168.08 106.208H160.304ZM182.671 106.208H177.391V72.608H182.671V87.008H188.671V72.608H194.047V106.208H188.671V91.808H182.671V106.208ZM204.691 101.408C205.523 101.408 206.163 101.184 206.611 100.736C207.059 100.288 207.283 99.456 207.283 98.24V93.2C207.283 91.984 207.059 91.152 206.611 90.704C206.163 90.256 205.523 90.032 204.691 90.032H202.195V101.408H204.691ZM196.915 106.208V72.608H202.195V85.232H204.691C207.347 85.232 209.315 85.936 210.595 87.344C211.907 88.752 212.563 90.816 212.563 93.536V97.904C212.563 100.624 211.907 102.688 210.595 104.096C209.315 105.504 207.347 106.208 204.691 106.208H196.915ZM215.155 72.608H220.435V106.208H215.155V72.608ZM228.754 106.208H223.33V72.608H228.034V92.72L233.458 72.608H240.082V106.208H235.33V81.872L228.754 106.208ZM237.586 66.8V70.736H225.97V66.8H237.586Z" fill="#6AA338"/>
<path d="M31.4915 106.208H26.2115V72.608H31.4915V87.008H37.4915V72.608H42.8675V106.208H37.4915V91.808H31.4915V106.208ZM62.7759 106.208H57.4479L56.5359 100.112H50.0559L49.1439 106.208H44.2959L49.6719 72.608H57.3999L62.7759 106.208ZM50.7279 95.552H55.8159L53.2719 78.56L50.7279 95.552ZM62.789 72.608H79.109V77.408H73.589V106.208H68.309V77.408H62.789V72.608ZM82.0059 101.408C82.2939 101.44 82.5979 101.456 82.9179 101.456C83.2379 101.456 83.5419 101.456 83.8299 101.456C84.2459 101.456 84.6299 101.408 84.9819 101.312C85.3659 101.216 85.6859 101.04 85.9419 100.784C86.2299 100.528 86.4379 100.16 86.5659 99.68C86.7259 99.2 86.8059 98.592 86.8059 97.856L79.1259 72.608H84.4059L90.2139 92.288L95.0139 72.608H100.294L93.3819 97.376C92.7739 99.68 92.1499 101.456 91.5099 102.704C90.9019 103.92 90.2459 104.8 89.5419 105.344C88.8379 105.856 88.0699 106.144 87.2379 106.208C86.4379 106.272 85.5419 106.304 84.5499 106.304C84.0699 106.304 83.6379 106.304 83.2539 106.304C82.8699 106.304 82.4539 106.272 82.0059 106.208V101.408ZM109.507 72.608C112.163 72.608 114.131 73.312 115.411 74.72C116.723 76.128 117.379 78.192 117.379 80.912V85.28C117.379 88 116.723 90.064 115.411 91.472C114.131 92.88 112.163 93.584 109.507 93.584H107.011V106.208H101.731V72.608H109.507ZM107.011 77.408V88.784H109.507C110.339 88.784 110.979 88.56 111.427 88.112C111.875 87.664 112.099 86.832 112.099 85.616V80.576C112.099 79.36 111.875 78.528 111.427 78.08C110.979 77.632 110.339 77.408 109.507 77.408H107.011ZM135.858 106.208H130.53L129.618 100.112H123.138L122.226 106.208H117.378L122.754 72.608H130.482L135.858 106.208ZM123.81 95.552H128.898L126.354 78.56L123.81 95.552ZM152.143 77.408H145.999V97.856C145.999 99.552 145.791 100.944 145.375 102.032C144.959 103.12 144.399 103.984 143.695 104.624C142.991 105.232 142.175 105.664 141.247 105.92C140.351 106.176 139.407 106.304 138.415 106.304C137.935 106.304 137.503 106.304 137.119 106.304C136.735 106.304 136.319 106.272 135.871 106.208V101.408C136.159 101.44 136.463 101.456 136.783 101.456C137.103 101.456 137.407 101.456 137.695 101.456C138.527 101.456 139.231 101.248 139.807 100.832C140.415 100.416 140.719 99.552 140.719 98.24V72.608H157.423V106.208H152.143V77.408ZM168.08 101.408C168.912 101.408 169.552 101.184 170 100.736C170.448 100.288 170.672 99.456 170.672 98.24V93.2C170.672 91.984 170.448 91.152 170 90.704C169.552 90.256 168.912 90.032 168.08 90.032H165.584V101.408H168.08ZM160.304 106.208V72.608H165.584V85.232H168.08C170.736 85.232 172.704 85.936 173.984 87.344C175.296 88.752 175.952 90.816 175.952 93.536V97.904C175.952 100.624 175.296 102.688 173.984 104.096C172.704 105.504 170.736 106.208 168.08 106.208H160.304ZM182.671 106.208H177.391V72.608H182.671V87.008H188.671V72.608H194.047V106.208H188.671V91.808H182.671V106.208ZM204.691 101.408C205.523 101.408 206.163 101.184 206.611 100.736C207.059 100.288 207.283 99.456 207.283 98.24V93.2C207.283 91.984 207.059 91.152 206.611 90.704C206.163 90.256 205.523 90.032 204.691 90.032H202.195V101.408H204.691ZM196.915 106.208V72.608H202.195V85.232H204.691C207.347 85.232 209.315 85.936 210.595 87.344C211.907 88.752 212.563 90.816 212.563 93.536V97.904C212.563 100.624 211.907 102.688 210.595 104.096C209.315 105.504 207.347 106.208 204.691 106.208H196.915ZM215.155 72.608H220.435V106.208H215.155V72.608ZM228.754 106.208H223.33V72.608H228.034V92.72L233.458 72.608H240.082V106.208H235.33V81.872L228.754 106.208ZM237.586 66.8V70.736H225.97V66.8H237.586Z" fill="white"/>
<defs>
<filter id="filter0_ii_2099_22321" x="14.2915" y="0.208984" width="237.871" height="118.096" filterUnits="userSpaceOnUse" color-interpolation-filters="sRGB">
<feFlood flood-opacity="0" result="BackgroundImageFix"/>
<feBlend mode="normal" in="SourceGraphic" in2="BackgroundImageFix" result="shape"/>
<feColorMatrix in="SourceAlpha" type="matrix" values="0 0 0 0 0 0 0 0 0 0 0 0 0 0 0 0 0 0 127 0" result="hardAlpha"/>
<feOffset dx="4" dy="4"/>
<feGaussianBlur stdDeviation="2"/>
<feComposite in2="hardAlpha" operator="arithmetic" k2="-1" k3="1"/>
<feColorMatrix type="matrix" values="0 0 0 0 0.607854 0 0 0 0 0.805662 0 0 0 0 0.434338 0 0 0 1 0"/>
<feBlend mode="normal" in2="shape" result="effect1_innerShadow_2099_22321"/>
<feColorMatrix in="SourceAlpha" type="matrix" values="0 0 0 0 0 0 0 0 0 0 0 0 0 0 0 0 0 0 127 0" result="hardAlpha"/>
<feOffset dx="-4" dy="-4"/>
<feGaussianBlur stdDeviation="2"/>
<feComposite in2="hardAlpha" operator="arithmetic" k2="-1" k3="1"/>
<feColorMatrix type="matrix" values="0 0 0 0 0.319452 0 0 0 0 0.491233 0 0 0 0 0.168767 0 0 0 1 0"/>
<feBlend mode="normal" in2="effect1_innerShadow_2099_22321" result="effect2_innerShadow_2099_22321"/>
</filter>
</defs>
</svg>
