<svg width="642" height="285" viewBox="0 0 642 285" fill="none" xmlns="http://www.w3.org/2000/svg">
<path d="M135.12 124.236L124.771 128.91L95 63.022L127.636 48.251L157.406 114.139L146.876 118.904L121.364 62.4281L109.608 67.7477L135.12 124.223V124.236Z" fill="#1C1456"/>
<path d="M197.656 101.254L186.726 104.701L180.906 92.7835L167.614 96.9798L169.692 110.085L159.742 113.223L149.006 40.7881L164.853 35.7783L197.643 101.241L197.656 101.254ZM166.04 87.1927L176.48 83.9002L160.259 50.6784L166.04 87.1927Z" fill="#1C1456"/>
<path d="M201.154 26.6368C206.728 25.4231 211.206 25.9913 214.574 28.367C217.942 30.7299 220.252 34.7841 221.491 40.4911L223.491 49.6713C224.73 55.3912 224.317 60.0265 222.24 63.5772C220.162 67.1279 216.329 69.5166 210.755 70.7303L205.515 71.8665L211.296 98.413L200.199 100.827L184.816 30.1747L201.154 26.611V26.6368ZM198.108 37.87L203.321 61.7954L208.574 60.6463C210.316 60.2718 211.567 59.4971 212.303 58.348C213.039 57.1988 213.129 55.3525 212.574 52.796L210.264 42.1955C209.709 39.6389 208.858 37.9991 207.709 37.2503C206.561 36.5143 205.115 36.3335 203.36 36.7209L198.121 37.87H198.108Z" fill="#1C1456"/>
<path d="M222.561 22.2081L257.325 17.3404L258.758 27.5665L247.002 29.2062L255.583 90.5885L244.33 92.1637L235.749 30.7815L223.993 32.4213L222.561 22.1952V22.2081Z" fill="#1C1456"/>
<path d="M281.226 87.9674L269.896 88.7034L265.25 16.5528L276.58 15.8168L278.567 46.7403L291.446 45.914L289.459 14.9905L300.996 14.2416L305.641 86.3922L294.105 87.141L292.117 56.2175L279.238 57.0439L281.226 87.9674Z" fill="#1C1456"/>
<path d="M322.983 44.597L338.572 44.7261L338.495 55.0555L322.906 54.9264L322.738 76.1016L342.353 76.2565L342.276 86.5859L311.305 86.3406L311.885 14.035L342.856 14.2933L342.779 24.6226L323.164 24.4677L322.996 44.6099L322.983 44.597ZM324.377 0.0903819L324.287 10.6263L313.757 10.5359L313.847 0L324.377 0.0903819ZM340.895 0.219499L340.804 10.7554L330.274 10.6651L330.365 0.129117L340.895 0.219499Z" fill="#1C1456"/>
<path d="M368.37 15.8685C374.061 16.2816 378.19 18.1151 380.758 21.3301C383.313 24.558 384.384 29.09 383.958 34.9261L383.274 44.3C382.849 50.1361 381.132 54.4615 378.126 57.2763C375.119 60.091 370.77 61.2918 365.079 60.8787L359.724 60.4913L357.736 87.5801L346.406 86.7537L351.697 14.6418L368.383 15.8685H368.37ZM362.266 25.7717L360.472 50.1878L365.828 50.5751C367.608 50.7042 369.015 50.3298 370.047 49.4389C371.08 48.548 371.686 46.8049 371.88 44.1838L372.667 33.3638C372.861 30.7556 372.512 28.9351 371.622 27.9022C370.731 26.8692 369.389 26.2882 367.608 26.1591L362.253 25.7717H362.266Z" fill="#1C1456"/>
<path d="M418.954 67.6831L417.56 77.1861C416.709 82.9835 414.644 87.2185 411.366 89.9042C408.088 92.5898 403.688 93.5194 398.165 92.706C392.655 91.8926 388.706 89.7363 386.331 86.2114C383.957 82.6865 383.209 78.0383 384.06 72.2539L389.532 35.0553C390.383 29.2708 392.448 25.0229 395.726 22.3372C399.004 19.6516 403.404 18.722 408.927 19.5354C414.437 20.3488 418.386 22.5051 420.761 26.03C423.122 29.542 423.884 34.2031 423.032 39.9875L422.012 46.934L411.392 45.3717L412.515 37.7022C412.889 35.1198 412.631 33.2089 411.74 31.9952C410.837 30.7815 409.508 30.0455 407.74 29.7873C405.972 29.529 404.475 29.8518 403.275 30.7427C402.062 31.6466 401.275 33.3896 400.888 35.972L395.21 74.6038C394.823 77.1991 395.094 79.0712 395.997 80.2591C396.9 81.4341 398.242 82.1571 400.01 82.4154C401.778 82.6736 403.262 82.3766 404.475 81.5116C405.675 80.6465 406.475 78.9163 406.85 76.334L408.359 66.1079L418.98 67.6702L418.954 67.6831Z" fill="#1C1456"/>
<path d="M432.597 24.0932L466.82 31.8919L464.523 41.963L452.947 39.329L439.191 99.7558L428.119 97.238L441.875 36.8112L430.3 34.1772L432.597 24.1061V24.0932Z" fill="#1C1456"/>
<path d="M491.904 39.6131C497.53 41.4466 501.182 44.0806 502.847 47.5151C504.512 50.9496 504.486 55.3266 502.757 60.6334L501.957 63.0866C500.808 66.6244 499.298 69.3617 497.44 71.2855C495.582 73.2223 493.259 74.3456 490.472 74.6684C493.053 76.7472 494.537 79.2391 494.937 82.1443C495.324 85.0623 494.937 88.3548 493.737 92.0217L491.917 97.6254C490.188 102.932 487.504 106.522 483.852 108.407C480.2 110.292 475.657 110.356 470.225 108.587L453.242 103.061L475.606 34.3064L491.904 39.6131ZM474.109 75.6368L467.244 96.7603L473.425 98.7745C475.257 99.3685 476.806 99.3297 478.07 98.6583C479.335 97.9869 480.393 96.373 481.219 93.8164L483.168 87.8254C484.213 84.6233 484.381 82.2475 483.684 80.724C482.987 79.1875 481.4 78.0254 478.909 77.212L474.096 75.6497L474.109 75.6368ZM483.219 47.6442L477.309 65.811L481.529 67.1796C483.555 67.8381 485.31 67.8381 486.807 67.1538C488.291 66.4824 489.478 64.7651 490.381 62.0149L491.62 58.1801C492.433 55.6882 492.575 53.7514 492.046 52.344C491.53 50.9496 490.317 49.9296 488.42 49.3098L483.219 47.6184V47.6442Z" fill="#1C1456"/>
<path d="M512.333 65.0621C514.772 59.7424 517.985 56.2692 521.985 54.6552C525.986 53.0413 530.515 53.4028 535.574 55.7269C540.632 58.051 543.871 61.2531 545.252 65.3332C546.633 69.4133 546.117 74.1132 543.678 79.4328L528.012 113.61C525.573 118.93 522.36 122.403 518.359 124.017C514.359 125.631 509.829 125.269 504.771 122.945C499.699 120.621 496.473 117.419 495.092 113.339C493.712 109.259 494.228 104.559 496.667 99.2393L512.333 65.0621ZM506.694 104.636C505.61 107.012 505.326 108.91 505.842 110.33C506.371 111.751 507.442 112.822 509.068 113.571C510.694 114.32 512.217 114.424 513.623 113.907C515.03 113.378 516.295 111.932 517.378 109.556L533.638 74.0615C534.722 71.6858 535.006 69.7878 534.49 68.3675C533.961 66.9472 532.89 65.8755 531.264 65.1266C529.638 64.3777 528.115 64.2745 526.708 64.7909C525.289 65.3203 524.037 66.7664 522.953 69.1422L506.694 104.636Z" fill="#1C1456"/>
<path d="M28.0673 238.591L31.5257 234.485C35.2164 230.121 39.1136 227.848 43.2172 227.668C47.3338 227.487 51.6181 229.294 56.096 233.065L63.2709 239.133C67.7358 242.903 70.2393 246.841 70.7555 250.921C71.2717 255.015 69.6844 259.237 66.0066 263.601L55.2185 276.383L0 229.759L19.3826 206.789L27.2673 213.452L15.2144 227.732L28.0673 238.591ZM58.1091 256.938C59.2576 255.57 59.7867 254.214 59.6705 252.845C59.5544 251.49 58.4962 249.966 56.496 248.275L48.2113 241.276C46.2111 239.585 44.5335 238.797 43.1785 238.914C41.8236 239.03 40.5589 239.766 39.4104 241.134L35.952 245.24L54.6507 261.031L58.1091 256.925V256.938Z" fill="#1C1456"/>
<path d="M64.4068 208.132L76.8983 198.797L83.0796 207.073L70.588 216.408L83.2603 233.374L98.978 221.625L105.159 229.901L80.3438 248.442L37.0879 190.521L61.9033 171.979L68.0846 180.256L52.3668 192.005L64.4197 208.145L64.4068 208.132Z" fill="#1C1456"/>
<path d="M102.541 169.642C101.044 166.776 99.5598 165.084 98.0887 164.568C96.6176 164.052 95.0819 164.206 93.5076 165.033C91.9203 165.859 90.9008 166.995 90.4492 168.429C89.9975 169.875 90.3718 171.747 91.5848 174.071L95.1593 180.94L85.6358 185.911L82.3968 179.688C79.6997 174.497 78.8867 169.849 79.9707 165.756C81.0547 161.663 84.0744 158.319 89.0168 155.736C93.9592 153.154 98.4242 152.599 102.399 154.058C106.373 155.517 109.716 158.835 112.426 164.026L113.29 165.678C116.852 172.522 116.8 178.138 113.11 182.541C116.245 182.309 118.942 183.058 121.201 184.788C123.459 186.518 125.446 189.036 127.163 192.328L129.782 197.364C132.492 202.554 133.292 207.202 132.208 211.295C131.124 215.401 128.105 218.733 123.162 221.315C118.22 223.897 113.755 224.452 109.78 222.993C105.806 221.534 102.463 218.216 99.7534 213.026L95.5594 204.969L105.083 199.998L109.612 208.7C110.825 211.024 112.142 212.406 113.587 212.858C115.032 213.31 116.542 213.129 118.129 212.29C119.717 211.463 120.723 210.314 121.162 208.842C121.601 207.37 121.072 205.201 119.575 202.335L116.955 197.299C115.394 194.304 113.781 192.47 112.103 191.786C110.425 191.102 108.438 191.373 106.115 192.586L104.554 193.4L99.7792 184.245L101.883 183.148C103.78 182.167 105.005 180.901 105.56 179.365C106.115 177.828 105.728 175.775 104.399 173.219L102.541 169.642Z" fill="#1C1456"/>
<path d="M157.782 147.473C156.762 144.4 155.575 142.489 154.194 141.753C152.814 141.017 151.291 140.927 149.588 141.482C147.884 142.05 146.697 143.005 146.026 144.348C145.355 145.704 145.419 147.615 146.245 150.094L148.684 157.454L138.49 160.837L136.283 154.174C134.438 148.622 134.386 143.909 136.115 140.036C137.844 136.162 141.354 133.348 146.645 131.592C151.936 129.836 156.427 130.003 160.131 132.069C163.821 134.148 166.596 137.957 168.441 143.522L169.022 145.291C171.448 152.612 170.493 158.151 166.157 161.908C169.293 162.179 171.835 163.341 173.796 165.42C175.745 167.499 177.319 170.288 178.481 173.826L180.262 179.223C182.107 184.775 182.159 189.5 180.429 193.374C178.7 197.248 175.19 200.062 169.899 201.818C164.608 203.574 160.118 203.419 156.414 201.341C152.71 199.262 149.949 195.453 148.104 189.888L145.252 181.263L155.446 177.88L158.53 187.189C159.356 189.668 160.44 191.256 161.782 191.928C163.124 192.612 164.647 192.664 166.351 192.096C168.054 191.528 169.228 190.559 169.899 189.178C170.57 187.796 170.39 185.575 169.37 182.502L167.589 177.105C166.531 173.903 165.228 171.837 163.679 170.895C162.131 169.952 160.118 169.901 157.64 170.727L155.975 171.282L152.723 161.482L154.982 160.733C157.008 160.062 158.414 159.016 159.214 157.583C160.014 156.162 159.95 154.071 159.047 151.334L157.782 147.512V147.473Z" fill="#1C1456"/>
<path d="M225.907 186.285L214.732 188.842L209.893 176.498L196.304 179.61L197.324 192.832L187.155 195.156L182.303 122.089L198.498 118.37L225.894 186.273L225.907 186.285ZM195.53 169.72L206.202 167.279L192.717 132.857L195.543 169.72H195.53Z" fill="#1C1456"/>
<path d="M239.688 184.413L228.449 186.079L217.828 114.561L247.547 110.145L249.057 120.358L230.578 123.109L239.675 184.413H239.688Z" fill="#1C1456"/>
<path d="M263.097 170.766C263.716 170.791 264.374 170.766 265.058 170.727C265.742 170.675 266.4 170.636 267.02 170.585C267.91 170.52 268.749 170.365 269.523 170.094C270.298 169.836 270.956 169.41 271.498 168.816C272.04 168.222 272.427 167.409 272.672 166.35C272.904 165.291 272.969 163.987 272.853 162.399L252.541 109.37L263.871 108.57L279.331 149.926L286.635 106.956L297.965 106.155L286.906 160.372C285.951 165.407 284.906 169.307 283.744 172.044C282.596 174.781 281.305 176.77 279.873 178.009C278.44 179.249 276.853 179.997 275.111 180.269C273.369 180.527 271.433 180.733 269.304 180.888C268.272 180.966 267.343 181.03 266.517 181.082C265.691 181.134 264.8 181.134 263.82 181.069L263.084 170.766H263.097Z" fill="#1C1456"/>
<path d="M338.679 151.747L338.602 161.353C338.55 167.202 337.092 171.682 334.201 174.794C331.324 177.906 327.091 179.442 321.516 179.391C315.941 179.339 311.735 177.751 308.908 174.588C306.082 171.437 304.689 166.931 304.727 161.069L305.037 123.47C305.089 117.621 306.547 113.141 309.425 110.029C312.302 106.917 316.535 105.381 322.11 105.432C327.684 105.484 331.891 107.085 334.717 110.236C337.544 113.399 338.937 117.892 338.886 123.754L338.834 130.778L328.097 130.688L328.162 122.941C328.188 120.32 327.659 118.473 326.601 117.402C325.542 116.33 324.123 115.788 322.329 115.762C320.535 115.749 319.103 116.265 318.032 117.324C316.961 118.383 316.406 120.216 316.393 122.837L316.07 161.882C316.045 164.503 316.561 166.324 317.632 167.37C318.69 168.416 320.11 168.945 321.903 168.958C323.697 168.971 325.129 168.467 326.2 167.447C327.272 166.427 327.826 164.607 327.839 161.986L327.917 151.656L338.653 151.747H338.679Z" fill="#1C1456"/>
<path d="M345.274 106.594L380.284 109.164L379.535 119.467L367.689 118.602L363.172 180.411L351.842 179.584L356.359 117.776L344.525 116.911L345.274 106.607V106.594Z" fill="#1C1456"/>
<path d="M389.109 183.238L377.572 181.508L388.27 110.003L398.271 111.501L391.87 154.303L409.808 113.231L423.899 115.336L413.202 186.841L403.097 185.33L410.84 133.541L389.109 183.238Z" fill="#1C1456"/>
<path d="M432.326 116.95L466.485 125.007L464.123 135.065L452.574 132.34L438.366 192.664L427.307 190.056L441.515 129.732L429.965 127.008L432.326 116.95Z" fill="#1C1456"/>
<path d="M476.202 159.971L491.004 164.852L487.778 174.665L472.976 169.784L466.356 189.901L484.99 196.034L481.764 205.847L452.342 196.163L474.938 127.486L504.36 137.169L501.134 146.982L482.5 140.849L476.202 159.984V159.971Z" fill="#1C1456"/>
<path d="M541.177 164.762L529.253 159.068L510.297 198.771C508.722 202.064 507.032 204.581 505.212 206.299C503.393 208.029 501.509 209.165 499.573 209.733C497.624 210.288 495.65 210.392 493.65 210.043C491.637 209.694 489.675 209.062 487.753 208.145C486.823 207.706 485.985 207.293 485.236 206.944C484.488 206.583 483.713 206.144 482.9 205.601L487.352 196.279C487.882 196.602 488.462 196.925 489.082 197.222C489.701 197.519 490.295 197.803 490.85 198.061C492.463 198.836 494.037 199.094 495.573 198.836C497.108 198.577 498.476 197.17 499.702 194.626L523.459 144.852L555.875 160.346L524.737 225.589L514.491 220.695L541.19 164.775L541.177 164.762Z" fill="#1C1456"/>
<path d="M562.935 201.315L575.607 210.405L569.594 218.797L556.922 209.72L544.598 226.932L560.548 238.358L554.534 246.751L529.357 228.7L571.439 169.913L596.616 187.964L590.602 196.357L574.652 184.93L562.935 201.302V201.315Z" fill="#1C1456"/>
<path d="M565.592 257.778L557.939 248.972L612.461 201.508L619.107 209.139L586.471 237.545L626.759 217.945L636.115 228.7L581.593 276.164L574.883 268.456L614.371 234.085L565.605 257.791L565.592 257.778ZM642 216.447L635.612 222.012L619.21 203.148L625.598 197.583L642 216.447Z" fill="#1C1456"/>
</svg>
