<svg width="357" height="192" viewBox="0 0 357 192" fill="none" xmlns="http://www.w3.org/2000/svg">
<path d="M40.251 11.623C44.2879 11.6231 48.4971 12.2641 52.457 13.8896C54.4382 12.8908 56.6767 12.3272 59.0469 12.3271L68.7227 12.3271C71.0272 12.3272 73.2073 12.86 75.1475 13.8076C77.1103 12.8516 79.2968 12.3271 81.5645 12.3271L91.0635 12.3271C92.7683 12.3272 94.4324 12.6255 95.9922 13.1826C97.5385 12.6302 99.1989 12.3271 100.921 12.3271L115.082 12.3271L115.419 12.3311C117.024 12.3676 118.571 12.6674 120.019 13.1855C121.581 12.6263 123.249 12.3271 124.957 12.3271L134.456 12.3271C136.706 12.3272 138.877 12.8439 140.828 13.7861C142.757 12.8517 144.923 12.3272 147.21 12.3271L156.974 12.3271C159.261 12.3272 161.425 12.8519 163.354 13.7861C165.306 12.8437 167.477 12.3271 169.728 12.3271L179.227 12.3271C179.664 12.3272 180.099 12.3483 180.53 12.3867C180.962 12.3485 181.399 12.3271 181.841 12.3271L190.46 12.3271C192.207 12.3272 193.883 12.6337 195.437 13.1943C196.996 12.6327 198.669 12.3272 200.399 12.3271L212.538 12.3271C212.978 12.3272 213.414 12.3478 213.844 12.3857C214.274 12.3477 214.711 12.3271 215.151 12.3271L245.057 12.3271C245.507 12.3272 245.952 12.349 246.392 12.3887C246.831 12.349 247.277 12.3271 247.727 12.3271L274.113 12.3271C282.209 12.3273 288.773 18.8904 288.773 26.9863V35.7822C288.773 40.0991 286.906 43.9794 283.937 46.6621C284.838 48.5634 285.343 50.6896 285.343 52.9336V61.7295C285.343 64.2165 284.722 66.5585 283.629 68.6104C286.777 71.2991 288.773 75.2966 288.773 79.7607L288.773 88.5566C288.773 93.7363 286.086 98.2879 282.03 100.896C283.318 100.525 284.68 100.327 286.087 100.327L295.763 100.327C296.668 100.327 297.555 100.409 298.415 100.566C299.275 100.409 300.162 100.327 301.067 100.327H315.316C318.711 100.327 322.312 100.754 325.806 101.88C327.782 100.887 330.015 100.327 332.378 100.327H342.054C350.15 100.327 356.713 106.89 356.713 114.986L356.713 140.67C356.713 140.94 356.705 141.211 356.69 141.48L355.557 161.954C356.189 163.592 356.537 165.372 356.537 167.233V176.557C356.537 184.653 349.974 191.216 341.878 191.216H332.555C328.224 191.216 324.332 189.338 321.648 186.352C318.965 189.337 315.074 191.216 310.743 191.216L301.067 191.216C300.162 191.216 299.275 191.133 298.415 190.976C297.555 191.133 296.668 191.216 295.763 191.216H286.087C283.387 191.216 280.859 190.486 278.687 189.213C274.798 190.676 270.725 191.216 266.912 191.216H252.663C251.757 191.216 250.871 191.133 250.011 190.976C249.151 191.133 248.264 191.216 247.358 191.216L237.684 191.216C234.984 191.216 232.455 190.486 230.283 189.213C226.395 190.676 222.322 191.216 218.509 191.216H204.26C203.354 191.216 202.467 191.133 201.606 190.976C200.746 191.133 199.86 191.216 198.954 191.216L189.279 191.216C186.58 191.216 184.051 190.486 181.879 189.213C177.99 190.676 173.917 191.216 170.104 191.216H155.855C154.95 191.216 154.063 191.133 153.203 190.976C152.343 191.133 151.456 191.216 150.551 191.216H140.875C138.176 191.216 135.647 190.486 133.475 189.213C129.586 190.676 125.513 191.216 121.7 191.216L107.451 191.216C106.546 191.216 105.659 191.133 104.799 190.976C103.939 191.133 103.052 191.216 102.146 191.216L92.4707 191.216C89.7713 191.216 87.2424 190.486 85.0703 189.213C81.1821 190.676 77.1094 191.216 73.2969 191.216H59.0469C56.6877 191.216 54.4587 190.658 52.4844 189.668C48.5033 191.291 44.2803 191.92 40.251 191.92C32.785 191.92 24.7528 189.773 18.7158 183.305C18.6395 183.223 18.5637 183.14 18.4893 183.057C12.9151 176.803 11.1671 168.992 11.167 161.78L11.167 129.764C11.167 122.577 12.9044 114.703 18.5957 108.456L18.6064 108.444C21.4588 105.32 24.7741 103.176 28.2773 101.784C24.8269 100.427 21.5513 98.3427 18.7158 95.3047C18.6395 95.2229 18.5637 95.1402 18.4893 95.0566C12.9151 88.8027 11.1671 80.9922 11.167 73.7803L11.167 41.7637C11.167 34.5774 12.9044 26.7029 18.5957 20.4561L18.6064 20.4443C24.6208 13.8573 32.6907 11.6231 40.251 11.623ZM38.5234 177.199C38.6629 177.21 38.8036 177.219 38.9453 177.227C38.9765 177.228 39.0078 177.229 39.0391 177.23C38.8132 177.219 38.5903 177.203 38.3701 177.186C38.4211 177.19 38.4721 177.195 38.5234 177.199ZM37.6416 177.114C37.8426 177.138 38.046 177.158 38.252 177.176C38.046 177.158 37.8426 177.138 37.6416 177.114ZM36.9033 177.014C37.1037 177.045 37.307 177.072 37.5127 177.098C37.307 177.072 37.1037 177.045 36.9033 177.014ZM129.95 174.728H129.951C130.049 174.672 130.146 174.616 130.241 174.558H130.24C130.145 174.616 130.048 174.672 129.95 174.728ZM51.6416 172.514C51.5022 172.696 51.358 172.873 51.209 173.046L51.4297 172.783C51.5017 172.695 51.572 172.604 51.6416 172.514ZM133.163 171.93C132.959 172.193 132.744 172.445 132.519 172.687H132.52C132.745 172.445 132.96 172.193 133.164 171.93H133.163ZM117.126 167.761H117.127V146.915H117.126V167.761ZM171.431 167.641C171.268 167.673 171.099 167.699 170.925 167.718L171.182 167.685C171.266 167.672 171.349 167.657 171.431 167.641ZM220.307 167.525C220.231 167.548 220.154 167.569 220.075 167.588L220.308 167.525C220.384 167.503 220.458 167.479 220.531 167.453L220.307 167.525ZM269.15 167.371C269.009 167.429 268.863 167.481 268.711 167.525L268.936 167.453C269.009 167.428 269.08 167.4 269.15 167.371ZM36.8203 167.058C36.8478 167.083 36.8763 167.108 36.9043 167.133C36.8765 167.108 36.8486 167.083 36.8213 167.058C36.7958 167.032 36.7718 167.005 36.7471 166.979C36.7717 167.005 36.795 167.032 36.8203 167.058ZM45.2402 164.997C45.193 165.178 45.142 165.351 45.083 165.516L45.1768 165.232C45.1999 165.156 45.2194 165.077 45.2402 164.997ZM223.196 163.331C223.168 163.626 223.131 163.904 223.084 164.166C223.046 164.379 223.001 164.58 222.949 164.771L222.95 164.771C223.065 164.345 223.146 163.866 223.196 163.331ZM35.5215 128.344C35.5077 128.601 35.501 128.869 35.501 129.147L35.501 162.396C35.501 162.666 35.5075 162.927 35.5205 163.178C35.5142 163.056 35.5101 162.932 35.5068 162.806L35.502 162.396L35.502 129.147C35.502 129.008 35.5034 128.871 35.5068 128.737C35.5137 128.47 35.5273 128.212 35.5479 127.966L35.5215 128.344ZM87.7207 161.34H87.7217V153.336H87.7207L87.7207 161.34ZM281.337 161.34H281.338L281.338 153.336H281.337V161.34ZM323.566 151.595H323.567C323.665 151.539 323.762 151.483 323.857 151.425H323.856C323.761 151.483 323.664 151.539 323.566 151.595ZM77.9912 151.425C77.987 151.377 77.9822 151.331 77.9775 151.284C77.9822 151.331 77.987 151.377 77.9912 151.425ZM223.203 151.425C223.199 151.377 223.194 151.331 223.189 151.284C223.194 151.331 223.199 151.377 223.203 151.425ZM326.779 148.797C326.575 149.06 326.36 149.312 326.135 149.554H326.136C326.361 149.312 326.576 149.06 326.78 148.797H326.779ZM222.175 148.309C222.223 148.365 222.27 148.425 222.314 148.487H222.315C222.271 148.425 222.224 148.365 222.176 148.309H222.175ZM221.153 147.497C221.284 147.568 221.408 147.645 221.527 147.729L221.345 147.607C221.282 147.569 221.218 147.532 221.153 147.497ZM268.866 147.2C268.836 147.19 268.805 147.18 268.774 147.171C268.805 147.18 268.836 147.19 268.866 147.2ZM122.255 146.935C122.435 146.947 122.609 146.967 122.777 146.992L122.521 146.958C122.433 146.948 122.345 146.941 122.255 146.935ZM267.467 146.935C267.646 146.947 267.821 146.967 267.989 146.992L267.732 146.958C267.645 146.948 267.557 146.941 267.467 146.935ZM310.742 144.628H310.743L310.743 123.782H310.742V144.628ZM132.295 141.752C132.371 141.83 132.445 141.909 132.519 141.989H132.52C132.446 141.909 132.372 141.829 132.296 141.751L132.295 141.752ZM131.58 141.082C131.459 140.979 131.335 140.88 131.209 140.783C131.335 140.88 131.459 140.979 131.58 141.082ZM131.158 140.745C131.055 140.667 130.95 140.59 130.844 140.515C130.95 140.59 131.055 140.667 131.158 140.745ZM130.719 140.428C130.636 140.371 130.552 140.316 130.467 140.262C130.552 140.316 130.636 140.371 130.719 140.428ZM130.328 140.173C130.299 140.155 130.271 140.136 130.241 140.118C130.146 140.06 130.049 140.004 129.951 139.948H129.95C130.078 140.021 130.204 140.096 130.328 140.173ZM45.1035 126.091C45.0882 126.047 45.0718 126.003 45.0557 125.96C45.0718 126.003 45.0882 126.047 45.1035 126.091ZM35.9687 125.891C35.9566 125.924 35.9434 125.957 35.9316 125.991C35.9434 125.957 35.9566 125.924 35.9687 125.891ZM45.0166 125.857C45.0036 125.825 44.9901 125.793 44.9766 125.761C44.9901 125.793 45.0036 125.825 45.0166 125.857ZM36.0977 125.571C36.0796 125.612 36.0621 125.653 36.0449 125.694C36.0621 125.653 36.0797 125.612 36.0977 125.571ZM44.9199 125.632C44.9081 125.606 44.8959 125.581 44.8838 125.556C44.8959 125.581 44.9081 125.606 44.9199 125.632ZM44.8311 125.449C44.8154 125.419 44.7994 125.389 44.7832 125.359C44.7994 125.389 44.8154 125.419 44.8311 125.449ZM36.2236 125.31C36.2098 125.336 36.1971 125.363 36.1836 125.39C36.197 125.363 36.2098 125.336 36.2236 125.31ZM37.3789 124.008C37.1824 124.151 36.9962 124.31 36.8203 124.486C36.7654 124.541 36.7126 124.599 36.6611 124.659L36.8213 124.486C36.997 124.311 37.1827 124.151 37.3789 124.008ZM44.1211 124.486L43.9521 124.315C43.9436 124.307 43.9343 124.3 43.9258 124.292C43.9924 124.355 44.0579 124.419 44.1211 124.486ZM43.8359 124.212C43.7915 124.172 43.7471 124.133 43.7012 124.096C43.7471 124.133 43.7915 124.172 43.8359 124.212ZM43.6152 124.029C43.5655 123.991 43.5162 123.952 43.4648 123.916C43.5162 123.952 43.5655 123.991 43.6152 124.029ZM43.3789 123.859C43.3263 123.824 43.274 123.789 43.2197 123.756C43.274 123.789 43.3263 123.824 43.3789 123.859ZM325.911 118.619C325.987 118.697 326.062 118.776 326.135 118.856H326.136C326.062 118.776 325.988 118.696 325.912 118.618L325.911 118.619ZM50.9814 118.329C51.0586 118.412 51.1351 118.495 51.21 118.58C51.1354 118.495 51.0594 118.412 50.9824 118.329C50.9072 118.245 50.8305 118.162 50.7529 118.08L50.9814 118.329ZM325.196 117.949C325.075 117.847 324.951 117.748 324.825 117.65C324.951 117.748 325.075 117.847 325.196 117.949ZM324.767 117.606C324.666 117.53 324.563 117.454 324.459 117.381C324.563 117.454 324.666 117.53 324.767 117.606ZM324.335 117.295C324.252 117.238 324.168 117.183 324.083 117.129C324.168 117.183 324.252 117.238 324.335 117.295ZM323.944 117.04C323.915 117.022 323.887 117.003 323.857 116.985C323.762 116.927 323.665 116.871 323.567 116.815H323.566C323.695 116.888 323.82 116.963 323.944 117.04ZM76.1455 102.344C77.894 103.373 79.4102 104.754 80.5967 106.39C81.4746 105.179 82.5329 104.108 83.7324 103.216L81.125 103.216C79.3937 103.216 77.7134 102.91 76.1455 102.344ZM180.529 103.157C180.098 103.196 179.664 103.216 179.227 103.216L174.27 103.216C175.469 104.108 176.526 105.179 177.404 106.39C178.299 105.156 179.381 104.066 180.609 103.164C180.583 103.162 180.556 103.16 180.529 103.157ZM222.232 102.9C223.614 103.851 224.825 105.033 225.809 106.39C226.686 105.179 227.745 104.108 228.944 103.216H225.267C224.227 103.216 223.211 103.106 222.232 102.9ZM278.168 102.647C276.88 103.017 275.52 103.216 274.113 103.216H271.077C272.277 104.108 273.335 105.179 274.213 106.39C275.286 104.91 276.628 103.638 278.168 102.647ZM125.865 103.216C127.065 104.108 128.123 105.178 129.001 106.389C129.879 105.178 130.937 104.108 132.137 103.216L125.865 103.216ZM52.1973 101.784C52.2838 101.819 52.3707 101.853 52.457 101.889C52.5354 101.849 52.6142 101.81 52.6934 101.771C52.6234 101.738 52.5538 101.703 52.4844 101.668C52.3888 101.707 52.2931 101.746 52.1973 101.784ZM38.5234 89.1992C38.6629 89.2095 38.8036 89.2188 38.9453 89.2266C38.9765 89.2283 39.0078 89.2289 39.0391 89.2305C38.8132 89.2191 38.5903 89.2034 38.3701 89.1855C38.4211 89.1897 38.4721 89.1954 38.5234 89.1992ZM37.6416 89.1143C37.8426 89.1379 38.046 89.1579 38.252 89.1758C38.046 89.1579 37.8426 89.1379 37.6416 89.1143ZM36.9033 89.0137C37.1037 89.0453 37.307 89.0721 37.5127 89.0977C37.307 89.0721 37.1037 89.0453 36.9033 89.0137ZM51.6416 84.5137C51.5022 84.6955 51.358 84.873 51.209 85.0459L51.4297 84.7832C51.5017 84.6946 51.572 84.6045 51.6416 84.5137ZM36.8203 79.0576C36.8478 79.0834 36.8763 79.1078 36.9043 79.1328C36.8765 79.108 36.8486 79.0832 36.8213 79.0576C36.7804 79.0167 36.7412 78.9735 36.7021 78.9297C36.741 78.9734 36.7795 79.0168 36.8203 79.0576ZM45.2402 76.9971C45.193 77.1782 45.142 77.3514 45.083 77.5156L45.1768 77.2324C45.1999 77.1558 45.2194 77.0769 45.2402 76.9971ZM35.5215 40.3437C35.5077 40.6011 35.501 40.869 35.501 41.1475L35.501 74.3955C35.501 74.6661 35.5075 74.927 35.5205 75.1777C35.5142 75.0561 35.5101 74.932 35.5068 74.8057L35.502 74.3955L35.502 41.1475C35.502 41.0081 35.5034 40.8714 35.5068 40.7373C35.5137 40.4696 35.5273 40.2125 35.5479 39.9658L35.5215 40.3437ZM156.973 53.6377L156.974 53.6348V26.9863H156.973L156.973 53.6377ZM45.1035 38.0908C45.0882 38.0465 45.0718 38.0031 45.0557 37.96C45.0718 38.0031 45.0882 38.0465 45.1035 38.0908ZM35.9687 37.8906C35.9566 37.9239 35.9434 37.9572 35.9316 37.9912C35.9434 37.9572 35.9566 37.9239 35.9687 37.8906ZM45.0166 37.8574C45.0036 37.8248 44.9901 37.7927 44.9766 37.7607C44.9901 37.7927 45.0036 37.8248 45.0166 37.8574ZM36.0977 37.5713C36.0796 37.6117 36.0621 37.6527 36.0449 37.6943C36.0621 37.6527 36.0797 37.6117 36.0977 37.5713ZM44.9199 37.6318C44.9081 37.6061 44.8959 37.5809 44.8838 37.5557C44.8959 37.5809 44.9081 37.6061 44.9199 37.6318ZM44.8311 37.4492C44.8154 37.4189 44.7994 37.389 44.7832 37.3594C44.7994 37.389 44.8154 37.4189 44.8311 37.4492ZM36.2236 37.3096C36.2098 37.3358 36.1971 37.3628 36.1836 37.3896C36.197 37.3628 36.2098 37.3358 36.2236 37.3096ZM37.3789 36.0078C37.1824 36.1508 36.9962 36.3105 36.8203 36.4863C36.7654 36.5412 36.7126 36.599 36.6611 36.6592L36.8213 36.4863C36.997 36.3106 37.1827 36.1509 37.3789 36.0078ZM44.1211 36.4863L43.9521 36.3154C43.9436 36.3073 43.9343 36.3 43.9258 36.292C43.9924 36.3546 44.0579 36.4189 44.1211 36.4863ZM43.8359 36.2119C43.7915 36.1724 43.7471 36.1331 43.7012 36.0957C43.7471 36.1331 43.7915 36.1724 43.8359 36.2119ZM43.6152 36.0293C43.5655 35.9909 43.5162 35.9521 43.4648 35.916C43.5162 35.9521 43.5655 35.9909 43.6152 36.0293ZM43.3789 35.8594C43.3263 35.8243 43.274 35.7886 43.2197 35.7559C43.274 35.7886 43.3263 35.8243 43.3789 35.8594ZM50.9814 30.3291C51.0586 30.4118 51.1351 30.4952 51.21 30.5801C51.1354 30.4952 51.0594 30.4116 50.9824 30.3291C50.9072 30.2447 50.8305 30.1618 50.7529 30.0801L50.9814 30.3291ZM223.198 163.31C223.211 163.173 223.222 163.033 223.23 162.89C223.222 163.033 223.211 163.173 223.198 163.31Z" fill="#1C1456"/>
<g filter="url(#filter0_ii_2068_19483)">
<path d="M29.2549 0.629883C33.2918 0.629923 37.501 1.27092 41.4609 2.89648C43.4421 1.89768 45.6807 1.33405 48.0508 1.33398L57.7266 1.33398C60.0311 1.33405 62.2112 1.86685 64.1514 2.81445C66.1142 1.85844 68.3007 1.33398 70.5684 1.33398L80.0674 1.33398C81.7722 1.33403 83.4363 1.63237 84.9961 2.18945C86.5424 1.63709 88.2028 1.33398 89.9248 1.33398L104.086 1.33398L104.423 1.33789C106.028 1.3744 107.575 1.67423 109.022 2.19238C110.585 1.63309 112.253 1.33398 113.961 1.33398L123.46 1.33398C125.71 1.33404 127.881 1.85076 129.832 2.79297C131.761 1.85857 133.926 1.33401 136.214 1.33398L145.978 1.33398C148.265 1.33407 150.429 1.85874 152.358 2.79297C154.31 1.85058 156.481 1.33398 158.731 1.33398L168.23 1.33398C168.668 1.334 169.103 1.35512 169.534 1.39355C169.966 1.35533 170.403 1.33398 170.845 1.33398L179.464 1.33398C181.211 1.33403 182.887 1.64053 184.44 2.20117C186 1.63957 187.673 1.33401 189.403 1.33398L201.542 1.33398C201.982 1.33401 202.418 1.35461 202.848 1.39258C203.278 1.35453 203.715 1.33398 204.155 1.33398L234.061 1.33398C234.51 1.334 234.956 1.35582 235.396 1.39551C235.835 1.35585 236.281 1.33398 236.73 1.33398L263.117 1.33398C271.213 1.33419 277.777 7.89719 277.777 15.9932L277.777 24.7891C277.777 29.1059 275.91 32.9862 272.94 35.6689C273.842 37.5703 274.347 39.6965 274.347 41.9404V50.7363C274.347 53.2233 273.726 55.5653 272.633 57.6172C275.78 60.3059 277.777 64.3034 277.777 68.7676V77.5635C277.777 82.7431 275.09 87.2947 271.034 89.9023C272.322 89.5322 273.684 89.334 275.091 89.334L284.767 89.334C285.672 89.334 286.559 89.416 287.419 89.5732C288.279 89.4161 289.166 89.334 290.071 89.334H304.32C307.715 89.334 311.316 89.7605 314.81 90.8867C316.786 89.8936 319.019 89.334 321.382 89.334L331.058 89.334C339.154 89.3342 345.717 95.8972 345.717 103.993V129.677C345.717 129.947 345.709 130.218 345.694 130.487L344.561 150.961C345.193 152.599 345.541 154.379 345.541 156.24V165.563C345.541 173.66 338.978 180.222 330.882 180.223H321.559C317.228 180.223 313.336 178.344 310.652 175.358C307.969 178.344 304.078 180.222 299.747 180.223H290.071C289.166 180.223 288.279 180.14 287.419 179.982C286.559 180.14 285.672 180.223 284.767 180.223L275.091 180.223C272.391 180.223 269.863 179.493 267.69 178.22C263.802 179.683 259.729 180.223 255.916 180.223H241.667C240.761 180.223 239.875 180.14 239.015 179.982C238.155 180.14 237.268 180.223 236.362 180.223H226.687C223.988 180.223 221.459 179.492 219.287 178.22C215.399 179.683 211.326 180.223 207.513 180.223H193.264C192.358 180.223 191.471 180.14 190.61 179.982C189.75 180.14 188.863 180.223 187.958 180.223H178.283C175.584 180.223 173.055 179.493 170.883 178.22C166.994 179.683 162.921 180.223 159.108 180.223H144.859C143.954 180.223 143.067 180.14 142.207 179.982C141.347 180.14 140.46 180.223 139.555 180.223L129.879 180.223C127.179 180.223 124.651 179.493 122.479 178.22C118.59 179.683 114.517 180.223 110.704 180.223L96.4551 180.223C95.5495 180.223 94.6629 180.14 93.8027 179.982C92.9425 180.14 92.056 180.223 91.1504 180.223L81.4746 180.223C78.7752 180.223 76.2463 179.493 74.0742 178.22C70.186 179.683 66.1133 180.223 62.3008 180.223H48.0508C45.6916 180.223 43.4627 179.665 41.4883 178.675C37.5072 180.298 33.2842 180.927 29.2549 180.927C21.789 180.927 13.7567 178.78 7.71973 172.312C7.64338 172.23 7.56762 172.147 7.49316 172.063C1.91899 165.81 0.170975 157.999 0.170898 150.787L0.170898 118.771C0.170931 111.584 1.90831 103.71 7.59961 97.4629L7.61035 97.4512C10.4627 94.3273 13.778 92.1828 17.2812 90.791C13.8308 89.4343 10.5552 87.3495 7.71973 84.3115C7.64338 84.2297 7.56762 84.147 7.49316 84.0635C1.91899 77.8095 0.170975 69.999 0.170898 62.7871L0.170898 30.7705C0.170931 23.5842 1.90831 15.7097 7.59961 9.46289L7.61035 9.45117C13.6248 2.86418 21.6946 0.629933 29.2549 0.629883ZM27.5273 166.206C27.6669 166.216 27.8075 166.226 27.9492 166.233C27.9804 166.235 28.0117 166.236 28.043 166.237C27.8171 166.226 27.5942 166.21 27.374 166.192C27.425 166.197 27.476 166.202 27.5273 166.206ZM26.6455 166.121C26.8465 166.145 27.0499 166.165 27.2559 166.183C27.0499 166.165 26.8465 166.145 26.6455 166.121ZM25.9072 166.021C26.1076 166.052 26.3109 166.079 26.5166 166.104C26.3109 166.079 26.1076 166.052 25.9072 166.021ZM118.954 163.734H118.955C119.053 163.679 119.15 163.622 119.245 163.564H119.244C119.149 163.622 119.052 163.679 118.954 163.734ZM40.6455 161.521C40.5061 161.702 40.3619 161.88 40.2129 162.053L40.4336 161.79C40.5056 161.701 40.5759 161.611 40.6455 161.521ZM122.167 160.937C121.963 161.199 121.748 161.452 121.522 161.693H121.523C121.749 161.452 121.964 161.199 122.168 160.937H122.167ZM106.13 156.768H106.131L106.131 135.922H106.13L106.13 156.768ZM112.03 156.647C111.867 156.68 111.699 156.705 111.524 156.725L111.781 156.691C111.866 156.679 111.949 156.664 112.03 156.647ZM209.311 156.532C209.235 156.555 209.158 156.576 209.079 156.595L209.312 156.532C209.387 156.51 209.462 156.486 209.535 156.46L209.311 156.532ZM258.154 156.378C258.013 156.436 257.867 156.487 257.715 156.532L257.939 156.46C258.013 156.434 258.084 156.407 258.154 156.378ZM25.8242 156.064C25.8517 156.09 25.8802 156.115 25.9082 156.14C25.8804 156.115 25.8525 156.09 25.8252 156.064C25.7998 156.039 25.7757 156.012 25.751 155.985C25.7756 156.012 25.7989 156.039 25.8242 156.064ZM34.2441 154.004C34.1969 154.185 34.1459 154.358 34.0869 154.522L34.1807 154.239C34.2038 154.163 34.2233 154.084 34.2441 154.004ZM212.2 152.338C212.172 152.633 212.135 152.911 212.088 153.173C212.049 153.385 212.004 153.587 211.953 153.777H211.954C212.069 153.352 212.15 152.872 212.2 152.338ZM24.5254 117.351C24.5117 117.608 24.5049 117.876 24.5049 118.154L24.5049 151.402C24.5049 151.673 24.5114 151.934 24.5244 152.185C24.5181 152.063 24.514 151.939 24.5107 151.812L24.5059 151.402L24.5059 118.154C24.5059 118.015 24.5073 117.878 24.5107 117.744C24.5176 117.476 24.5312 117.219 24.5518 116.973L24.5254 117.351ZM76.7246 150.347H76.7256L76.7256 142.343H76.7246V150.347ZM270.341 150.347H270.342L270.342 142.343H270.341V150.347ZM312.57 140.602H312.571C312.669 140.546 312.766 140.49 312.861 140.432H312.86C312.765 140.49 312.668 140.546 312.57 140.602ZM66.9951 140.432C66.9909 140.384 66.9861 140.337 66.9814 140.291C66.9861 140.337 66.9909 140.384 66.9951 140.432ZM212.207 140.432C212.203 140.384 212.198 140.337 212.193 140.291C212.198 140.337 212.203 140.384 212.207 140.432ZM315.783 137.804C315.579 138.067 315.364 138.319 315.139 138.561H315.14C315.365 138.319 315.58 138.067 315.784 137.804H315.783ZM211.179 137.315C211.227 137.372 211.273 137.432 211.318 137.494L211.319 137.494C211.275 137.432 211.228 137.372 211.18 137.315H211.179ZM210.157 136.504C210.287 136.575 210.412 136.652 210.531 136.735L210.349 136.614C210.286 136.576 210.222 136.539 210.157 136.504ZM257.87 136.207C257.84 136.197 257.809 136.187 257.778 136.178C257.809 136.187 257.84 136.197 257.87 136.207ZM111.259 135.941C111.438 135.954 111.613 135.973 111.781 135.999L111.524 135.965C111.437 135.955 111.349 135.948 111.259 135.941ZM256.471 135.941C256.65 135.954 256.825 135.973 256.993 135.999L256.736 135.965C256.649 135.955 256.561 135.948 256.471 135.941ZM299.746 133.635H299.747V112.789H299.746L299.746 133.635ZM305.646 133.515C305.483 133.547 305.315 133.573 305.141 133.592L305.397 133.559C305.482 133.546 305.565 133.531 305.646 133.515ZM121.299 130.759C121.374 130.837 121.449 130.916 121.522 130.996H121.523C121.45 130.915 121.376 130.836 121.3 130.758L121.299 130.759ZM120.584 130.089C120.463 129.986 120.339 129.887 120.213 129.79C120.339 129.887 120.463 129.986 120.584 130.089ZM120.162 129.752C120.059 129.673 119.954 129.597 119.848 129.521C119.954 129.596 120.059 129.673 120.162 129.752ZM119.723 129.435C119.64 129.378 119.556 129.323 119.471 129.269C119.556 129.323 119.64 129.378 119.723 129.435ZM119.332 129.18C119.303 129.162 119.274 129.143 119.245 129.125C119.15 129.067 119.053 129.01 118.955 128.955H118.954C119.082 129.028 119.208 129.103 119.332 129.18ZM34.1074 115.098C34.0921 115.053 34.0757 115.01 34.0596 114.967C34.0757 115.01 34.0921 115.053 34.1074 115.098ZM24.9727 114.899C24.9607 114.932 24.9471 114.965 24.9355 114.998C24.9471 114.965 24.9607 114.932 24.9727 114.899ZM34.0205 114.864C34.0075 114.832 33.994 114.799 33.9805 114.768C33.994 114.799 34.0075 114.832 34.0205 114.864ZM25.0977 114.587C25.0821 114.622 25.0667 114.657 25.0518 114.693C25.0667 114.657 25.0821 114.622 25.0977 114.587ZM33.9248 114.64C33.9129 114.614 33.9 114.588 33.8877 114.563C33.9 114.588 33.9129 114.614 33.9248 114.64ZM33.835 114.456C33.8193 114.426 33.8033 114.396 33.7871 114.366C33.8033 114.396 33.8193 114.426 33.835 114.456ZM25.2275 114.316C25.2142 114.342 25.2024 114.368 25.1895 114.394C25.2024 114.368 25.2142 114.342 25.2275 114.316ZM26.3828 113.015C26.1863 113.158 26.0001 113.317 25.8242 113.493C25.7693 113.548 25.7165 113.606 25.665 113.666L25.8252 113.493C26.0009 113.317 26.1866 113.158 26.3828 113.015ZM33.125 113.493L32.9561 113.322C32.9476 113.314 32.9382 113.307 32.9297 113.299C32.9963 113.361 33.0618 113.426 33.125 113.493ZM32.8398 113.219C32.7954 113.179 32.751 113.14 32.7051 113.103C32.751 113.14 32.7954 113.179 32.8398 113.219ZM32.6191 113.036C32.5694 112.998 32.5201 112.959 32.4687 112.923C32.5201 112.959 32.5694 112.998 32.6191 113.036ZM32.3828 112.866C32.3302 112.831 32.2779 112.795 32.2236 112.763C32.2779 112.795 32.3302 112.831 32.3828 112.866ZM314.915 107.626C314.991 107.704 315.065 107.783 315.139 107.863H315.14C315.066 107.783 314.992 107.703 314.916 107.625L314.915 107.626ZM39.9854 107.336C40.0625 107.419 40.139 107.502 40.2139 107.587C40.1393 107.502 40.0634 107.418 39.9863 107.336C39.9111 107.252 39.8344 107.169 39.7568 107.087L39.9854 107.336ZM314.2 106.956C314.079 106.854 313.955 106.755 313.829 106.657C313.955 106.754 314.079 106.854 314.2 106.956ZM313.771 106.613C313.67 106.536 313.567 106.461 313.463 106.388C313.567 106.461 313.669 106.537 313.771 106.613ZM313.339 106.302C313.256 106.245 313.172 106.19 313.087 106.136C313.172 106.19 313.256 106.245 313.339 106.302ZM312.948 106.047C312.919 106.029 312.891 106.01 312.861 105.992C312.766 105.934 312.669 105.878 312.571 105.822H312.57C312.698 105.895 312.824 105.97 312.948 106.047ZM65.1494 91.3506C66.8979 92.3794 68.4141 93.7605 69.6006 95.3965C70.4785 94.186 71.5368 93.1146 72.7363 92.2227H70.1289C68.3976 92.2227 66.7173 91.9171 65.1494 91.3506ZM169.533 92.1641C169.102 92.2025 168.668 92.2226 168.23 92.2227H163.273C164.473 93.1146 165.53 94.1861 166.408 95.3965C167.303 94.1627 168.385 93.073 169.613 92.1709C169.587 92.1687 169.56 92.1664 169.533 92.1641ZM211.236 91.9072C212.618 92.8579 213.829 94.0398 214.812 95.3965C215.69 94.186 216.749 93.1146 217.948 92.2227H214.271C213.23 92.2227 212.215 92.1132 211.236 91.9072ZM267.172 91.6543C265.884 92.0241 264.524 92.2226 263.117 92.2227L260.081 92.2227C261.281 93.1147 262.339 94.1859 263.217 95.3965C264.29 93.9171 265.632 92.6449 267.172 91.6543ZM114.869 92.2227C116.068 93.1145 117.127 94.1852 118.005 95.3955C118.883 94.1853 119.941 93.1145 121.141 92.2227H114.869ZM41.2012 90.791C41.2877 90.8255 41.3746 90.8601 41.4609 90.8955C41.5393 90.856 41.6181 90.8164 41.6973 90.7783C41.6273 90.7446 41.5577 90.7096 41.4883 90.6748C41.3927 90.7138 41.297 90.7532 41.2012 90.791ZM27.5273 78.2061C27.6669 78.2164 27.8075 78.2257 27.9492 78.2334C27.9804 78.2351 28.0117 78.2357 28.043 78.2373C27.8171 78.226 27.5942 78.2102 27.374 78.1924C27.425 78.1965 27.476 78.2023 27.5273 78.2061ZM26.6455 78.1211C26.8465 78.1447 27.0499 78.1647 27.2559 78.1826C27.0499 78.1648 26.8465 78.1447 26.6455 78.1211ZM25.9072 78.0205C26.1076 78.0522 26.3109 78.0789 26.5166 78.1045C26.3109 78.0789 26.1076 78.0521 25.9072 78.0205ZM40.6455 73.5205C40.5061 73.7024 40.3619 73.8798 40.2129 74.0527L40.4336 73.79C40.5056 73.7014 40.5759 73.6113 40.6455 73.5205ZM25.8242 68.0645C25.8517 68.0902 25.8802 68.1147 25.9082 68.1396C25.8804 68.1148 25.8525 68.09 25.8252 68.0645C25.7843 68.0235 25.7451 67.9804 25.7061 67.9365C25.7449 67.9802 25.7834 68.0237 25.8242 68.0645ZM34.2441 66.0039C34.1969 66.185 34.1459 66.3582 34.0869 66.5225L34.1807 66.2393C34.2038 66.1627 34.2233 66.0838 34.2441 66.0039ZM24.5254 29.3506C24.5117 29.608 24.5049 29.8759 24.5049 30.1543L24.5049 63.4023C24.5049 63.673 24.5114 63.9338 24.5244 64.1846C24.5181 64.063 24.514 63.9388 24.5107 63.8125L24.5059 63.4023L24.5059 30.1543C24.5059 30.0149 24.5073 29.8782 24.5107 29.7441C24.5176 29.4765 24.5312 29.2193 24.5518 28.9727L24.5254 29.3506ZM145.977 42.6445L145.978 42.6416L145.978 15.9932H145.977V42.6445ZM34.1074 27.0977C34.0921 27.0533 34.0757 27.0099 34.0596 26.9668C34.0757 27.0099 34.0921 27.0533 34.1074 27.0977ZM24.9727 26.8994C24.9607 26.9322 24.9471 26.9646 24.9355 26.998C24.9471 26.9646 24.9607 26.9322 24.9727 26.8994ZM34.0205 26.8643C34.0075 26.8316 33.994 26.7995 33.9805 26.7676C33.994 26.7995 34.0075 26.8316 34.0205 26.8643ZM25.0977 26.5869C25.0821 26.6219 25.0667 26.6574 25.0518 26.6934C25.0667 26.6574 25.0821 26.622 25.0977 26.5869ZM33.9248 26.6396C33.9129 26.6136 33.9 26.5881 33.8877 26.5625C33.9 26.5881 33.9129 26.6136 33.9248 26.6396ZM33.835 26.4561C33.8193 26.4257 33.8033 26.3958 33.7871 26.3662C33.8033 26.3958 33.8193 26.4257 33.835 26.4561ZM25.2275 26.3164C25.2156 26.3391 25.2051 26.3626 25.1934 26.3857C25.205 26.3626 25.2156 26.3391 25.2275 26.3164ZM26.3828 25.0146C26.1863 25.1577 26.0001 25.3173 25.8242 25.4932C25.7693 25.5481 25.7165 25.6059 25.665 25.666L25.8252 25.4932C26.0009 25.3174 26.1866 25.1577 26.3828 25.0146ZM33.125 25.4932L32.9561 25.3223C32.9476 25.3141 32.9382 25.3069 32.9297 25.2988C32.9963 25.3614 33.0618 25.4257 33.125 25.4932ZM32.8398 25.2188C32.7954 25.1792 32.751 25.14 32.7051 25.1025C32.751 25.14 32.7954 25.1793 32.8398 25.2188ZM32.6191 25.0361C32.5694 24.9977 32.5201 24.9589 32.4687 24.9229C32.5201 24.959 32.5694 24.9977 32.6191 25.0361ZM32.3828 24.8662C32.3302 24.8311 32.2779 24.7954 32.2236 24.7627C32.2779 24.7955 32.3302 24.8311 32.3828 24.8662ZM39.9854 19.3359C40.0625 19.4186 40.139 19.502 40.2139 19.5869C40.1393 19.502 40.0634 19.4185 39.9863 19.3359C39.9111 19.2515 39.8344 19.1687 39.7568 19.0869L39.9854 19.3359ZM212.202 152.316C212.215 152.18 212.226 152.04 212.234 151.896C212.226 152.04 212.215 152.18 212.202 152.316Z" fill="#F49425"/>
</g>
<path d="M43.6801 54.6056V62.7857C43.6801 67.7699 42.4487 71.6107 39.9859 74.3081C37.5818 76.9468 34.0048 78.2662 29.2551 78.2662C24.5054 78.2662 20.8992 76.9468 18.4364 74.3081C16.0322 71.6107 14.8301 67.7699 14.8301 62.7857L14.8301 30.7692C14.8301 25.7849 16.0322 21.9734 18.4364 19.3347C20.8992 16.6374 24.5054 15.2887 29.2551 15.2887C34.0048 15.2887 37.5818 16.6374 39.9859 19.3347C42.4487 21.9734 43.6801 25.7849 43.6801 30.7692V36.7503H34.5326V30.1535C34.5326 27.9252 34.0635 26.3713 33.1253 25.4917C32.2457 24.5535 31.0436 24.0844 29.519 24.0844C27.9944 24.0844 26.763 24.5535 25.8248 25.4917C24.9452 26.3713 24.5054 27.9252 24.5054 30.1535L24.5054 63.4014C24.5054 65.6296 24.9452 67.1835 25.8248 68.0631C26.763 68.9427 27.9944 69.3825 29.519 69.3825C31.0436 69.3825 32.2457 68.9427 33.1253 68.0631C34.0635 67.1835 34.5326 65.6296 34.5326 63.4014V54.6056L43.6801 54.6056ZM60.7171 53.0224L57.7265 58.6517V77.5625H48.0512L48.0512 15.9923L57.7265 15.9923L57.7265 42.8193L70.5683 15.9923L80.0677 15.9923L66.6102 43.435L80.0677 77.5625H70.1285L60.7171 53.0224ZM113.937 77.5625H104.174L102.502 66.3919H90.6281L88.9569 77.5625H80.0732L89.9244 15.9923L104.086 15.9923L113.937 77.5625ZM91.8595 58.036H101.183L96.5212 26.899L91.8595 58.036ZM123.9 77.5625H113.961L127.418 43.435L113.961 15.9923H123.46L136.214 42.6434V15.9923H145.977V42.6434L158.731 15.9923H168.231L154.773 43.435L168.231 77.5625L158.291 77.5625L148.88 53.0224L145.977 58.4757V77.5625H136.214V58.4757L133.311 53.0224L123.9 77.5625ZM180.784 77.5625H170.845V15.9923L179.464 15.9923V52.8465L189.404 15.9923L201.542 15.9923V77.5625H192.834V32.9681L180.784 77.5625ZM204.155 15.9923L234.06 15.9923V24.7881H223.945V77.5625H214.27V24.7881H204.155V15.9923ZM246.405 41.9398L259.687 41.9398V50.7355H246.405V68.7668H263.117V77.5625H236.73V15.9923L263.117 15.9923V24.7881L246.405 24.7881V41.9398ZM43.6801 142.606V150.786C43.6801 155.77 42.4487 159.611 39.9859 162.308C37.5818 164.947 34.0048 166.266 29.2551 166.266C24.5054 166.266 20.8992 164.947 18.4364 162.308C16.0322 159.611 14.8301 155.77 14.8301 150.786L14.8301 118.769C14.8301 113.785 16.0322 109.973 18.4364 107.335C20.8992 104.637 24.5054 103.289 29.2551 103.289C34.0048 103.289 37.5818 104.637 39.9859 107.335C42.4487 109.973 43.6801 113.785 43.6801 118.769V124.75H34.5326V118.153C34.5326 115.925 34.0635 114.371 33.1253 113.492C32.2457 112.554 31.0436 112.084 29.519 112.084C27.9944 112.084 26.763 112.554 25.8248 113.492C24.9452 114.371 24.5054 115.925 24.5054 118.153L24.5054 151.401C24.5054 153.63 24.9452 155.184 25.8248 156.063C26.763 156.943 27.9944 157.382 29.519 157.382C31.0436 157.382 32.2457 156.943 33.1253 156.063C34.0635 155.184 34.5326 153.63 34.5326 151.401V142.606H43.6801ZM62.3003 156.767C63.8249 156.767 64.9977 156.356 65.8186 155.535C66.6395 154.714 67.05 153.19 67.05 150.962V141.726C67.05 139.498 66.6395 137.973 65.8186 137.152C64.9977 136.331 63.8249 135.921 62.3003 135.921H57.7265L57.7265 156.767H62.3003ZM48.0512 165.562L48.0512 103.992H57.7265V127.125H62.3003C67.1673 127.125 70.7735 128.415 73.1191 130.995C75.5232 133.575 76.7253 137.357 76.7253 142.342V150.346C76.7253 155.33 75.5232 159.112 73.1191 161.692C70.7735 164.272 67.1673 165.562 62.3003 165.562H48.0512ZM81.475 103.992H91.1503L91.1503 165.562H81.475L81.475 103.992ZM110.704 156.767C112.229 156.767 113.402 156.356 114.223 155.535C115.044 154.714 115.454 153.19 115.454 150.962V141.726C115.454 139.498 115.044 137.973 114.223 137.152C113.402 136.331 112.229 135.921 110.704 135.921H106.131V156.767H110.704ZM96.4553 165.562L96.4553 103.992H106.131V127.125H110.704C115.571 127.125 119.178 128.415 121.523 130.995C123.927 133.575 125.129 137.357 125.129 142.342V150.346C125.129 155.33 123.927 159.112 121.523 161.692C119.178 164.272 115.571 165.563 110.704 165.562H96.4553ZM129.879 103.992H139.554L139.554 165.563H129.879L129.879 103.992ZM159.108 156.767C160.633 156.767 161.806 156.356 162.627 155.535C163.448 154.714 163.858 153.19 163.858 150.962V141.726C163.858 139.498 163.448 137.973 162.627 137.152C161.806 136.331 160.633 135.921 159.108 135.921H154.535V156.767H159.108ZM144.859 165.563L144.859 103.992H154.535L154.535 127.125H159.108C163.975 127.125 167.582 128.415 169.927 130.995C172.331 133.575 173.533 137.357 173.533 142.342V150.346C173.533 155.33 172.331 159.112 169.927 161.692C167.582 164.272 163.975 165.563 159.108 165.563H144.859ZM178.283 103.992H187.958L187.958 165.563H178.283L178.283 103.992ZM207.512 156.767C209.037 156.767 210.21 156.356 211.031 155.535C211.852 154.714 212.262 153.19 212.262 150.962V141.726C212.262 139.498 211.852 137.973 211.031 137.152C210.21 136.331 209.037 135.921 207.512 135.921H202.939V156.767H207.512ZM193.263 165.563L193.263 103.992H202.939L202.939 127.125H207.512C212.379 127.125 215.986 128.415 218.331 130.995C220.735 133.575 221.937 137.357 221.937 142.342V150.346C221.937 155.33 220.735 159.112 218.331 161.692C215.986 164.272 212.379 165.563 207.512 165.563H193.263ZM226.687 103.992H236.362L236.362 165.563H226.687L226.687 103.992ZM255.917 156.767C257.441 156.767 258.614 156.356 259.435 155.535C260.256 154.714 260.666 153.19 260.666 150.962V141.726C260.666 139.498 260.256 137.973 259.435 137.152C258.614 136.331 257.441 135.921 255.917 135.921H251.343V156.767H255.917ZM241.667 165.563L241.667 103.992H251.343L251.343 127.125H255.917C260.783 127.125 264.39 128.415 266.735 130.995C269.139 133.575 270.342 137.357 270.342 142.342V150.346C270.342 155.33 269.139 159.112 266.735 161.692C264.39 164.272 260.783 165.563 255.917 165.563H241.667ZM275.091 103.992H284.767V165.563H275.091V103.992ZM304.321 103.992C309.188 103.992 312.794 105.282 315.139 107.862C317.543 110.443 318.746 114.225 318.746 119.209V127.213C318.746 132.197 317.543 135.979 315.139 138.56C312.794 141.14 309.188 142.43 304.321 142.43H299.747V165.563H290.071V103.992H304.321ZM299.747 112.788V133.634H304.321C305.845 133.634 307.018 133.224 307.839 132.403C308.66 131.582 309.07 130.057 309.07 127.829V118.593C309.07 116.365 308.66 114.84 307.839 114.019C307.018 113.199 305.845 112.788 304.321 112.788H299.747ZM322.614 151.929L321.382 129.676V103.992H331.058V129.676L329.826 151.929H322.614ZM330.882 156.239V165.563H321.558V156.239H330.882Z" fill="white"/>
<defs>
<filter id="filter0_ii_2068_19483" x="-7.15888" y="-6.6999" width="360.205" height="194.956" filterUnits="userSpaceOnUse" color-interpolation-filters="sRGB">
<feFlood flood-opacity="0" result="BackgroundImageFix"/>
<feBlend mode="normal" in="SourceGraphic" in2="BackgroundImageFix" result="shape"/>
<feColorMatrix in="SourceAlpha" type="matrix" values="0 0 0 0 0 0 0 0 0 0 0 0 0 0 0 0 0 0 127 0" result="hardAlpha"/>
<feOffset dx="7.32978" dy="7.32978"/>
<feGaussianBlur stdDeviation="3.66489"/>
<feComposite in2="hardAlpha" operator="arithmetic" k2="-1" k3="1"/>
<feColorMatrix type="matrix" values="0 0 0 0 0.975983 0 0 0 0 0.766376 0 0 0 0 0.524017 0 0 0 1 0"/>
<feBlend mode="normal" in2="shape" result="effect1_innerShadow_2068_19483"/>
<feColorMatrix in="SourceAlpha" type="matrix" values="0 0 0 0 0 0 0 0 0 0 0 0 0 0 0 0 0 0 127 0" result="hardAlpha"/>
<feOffset dx="-7.32978" dy="-7.32978"/>
<feGaussianBlur stdDeviation="3.66489"/>
<feComposite in2="hardAlpha" operator="arithmetic" k2="-1" k3="1"/>
<feColorMatrix type="matrix" values="0 0 0 0 0.856769 0 0 0 0 0.479476 0 0 0 0 0.0432314 0 0 0 1 0"/>
<feBlend mode="normal" in2="effect1_innerShadow_2068_19483" result="effect2_innerShadow_2068_19483"/>
</filter>
</defs>
</svg>
