<svg width="358" height="193" viewBox="0 0 358 193" fill="none" xmlns="http://www.w3.org/2000/svg">
<path d="M40.7598 11.874C44.7966 11.874 49.0059 12.5151 52.9658 14.1406C54.947 13.1417 57.1855 12.5782 59.5557 12.5781L69.2314 12.5781C71.536 12.5781 73.7161 13.1111 75.6562 14.0586C77.6191 13.1025 79.8055 12.5782 82.0732 12.5781H91.5723C93.2771 12.5781 94.9412 12.8766 96.501 13.4336C98.0473 12.8812 99.7076 12.5782 101.43 12.5781L115.591 12.5781L115.928 12.582C117.533 12.6185 119.08 12.9184 120.527 13.4365C122.09 12.8772 123.757 12.5782 125.466 12.5781H134.965C137.215 12.5781 139.386 13.095 141.337 14.0371C143.266 13.1026 145.431 12.5782 147.719 12.5781L157.482 12.5781C159.77 12.5782 161.934 13.1029 163.863 14.0371C165.815 13.0946 167.986 12.5782 170.236 12.5781H179.735C180.173 12.5781 180.608 12.5993 181.039 12.6377C181.471 12.5995 181.908 12.5781 182.35 12.5781L190.969 12.5781C192.716 12.5781 194.392 12.8847 195.945 13.4453C197.505 12.8837 199.178 12.5782 200.908 12.5781L213.047 12.5781C213.487 12.5781 213.922 12.5988 214.353 12.6367C214.783 12.5987 215.22 12.5781 215.66 12.5781L245.565 12.5781C246.015 12.5781 246.461 12.6 246.9 12.6396C247.34 12.6 247.786 12.5781 248.235 12.5781L274.622 12.5781C282.718 12.5781 289.282 19.1413 289.282 27.2373L289.282 36.0332C289.282 40.3502 287.415 44.2304 284.445 46.9131C285.347 48.8144 285.851 50.9406 285.852 53.1846V61.9805C285.852 64.4675 285.231 66.8094 284.138 68.8613C287.285 71.55 289.282 75.5476 289.282 80.0117V88.8076C289.282 93.9874 286.595 98.5389 282.539 101.146C283.827 100.776 285.188 100.578 286.596 100.578L296.271 100.578C297.177 100.578 298.064 100.66 298.924 100.817C299.784 100.66 300.671 100.578 301.576 100.578H315.825C319.22 100.578 322.821 101.005 326.314 102.131C328.291 101.138 330.524 100.578 332.887 100.578L342.562 100.578C350.659 100.578 357.221 107.141 357.222 115.237L357.222 140.921C357.222 141.191 357.214 141.462 357.199 141.731L356.065 162.205C356.698 163.843 357.046 165.623 357.046 167.484V176.808C357.046 184.904 350.483 191.467 342.387 191.467H333.063C328.733 191.467 324.841 189.588 322.157 186.603C319.474 189.588 315.583 191.467 311.252 191.467L301.576 191.467C300.671 191.467 299.784 191.384 298.924 191.227C298.064 191.384 297.177 191.467 296.271 191.467L286.596 191.467C283.896 191.467 281.367 190.737 279.195 189.464C275.307 190.927 271.234 191.467 267.421 191.467H253.172C252.266 191.467 251.38 191.384 250.52 191.227C249.659 191.384 248.773 191.467 247.867 191.467H238.192C235.493 191.467 232.964 190.737 230.792 189.464C226.903 190.927 222.83 191.467 219.018 191.467H204.769C203.863 191.467 202.976 191.384 202.115 191.227C201.255 191.384 200.368 191.467 199.463 191.467L189.788 191.467C187.089 191.467 184.56 190.737 182.388 189.464C178.499 190.927 174.426 191.467 170.613 191.467H156.364C155.459 191.467 154.572 191.384 153.712 191.227C152.852 191.384 151.965 191.467 151.06 191.467L141.384 191.467C138.684 191.467 136.156 190.737 133.983 189.464C130.095 190.927 126.022 191.467 122.209 191.467H107.96C107.054 191.467 106.168 191.384 105.308 191.227C104.447 191.384 103.561 191.467 102.655 191.467H92.9795C90.2801 191.467 87.7512 190.737 85.5791 189.464C81.6908 190.927 77.6183 191.467 73.8057 191.467H59.5557C57.1965 191.467 54.9675 190.909 52.9932 189.919C49.012 191.542 44.7891 192.171 40.7598 192.171C33.2939 192.171 25.2616 190.024 19.2246 183.556C19.1483 183.474 19.0724 183.391 18.998 183.308C13.4241 177.054 11.6759 169.243 11.6758 162.031V130.015C11.6758 122.828 13.4132 114.954 19.1045 108.707L19.1152 108.695C21.9676 105.571 25.2828 103.427 28.7861 102.035C25.3358 100.678 22.06 98.5936 19.2246 95.5557C19.1483 95.4739 19.0724 95.3911 18.998 95.3076C13.4241 89.0537 11.6759 81.243 11.6758 74.0312V42.0146C11.6758 34.8284 13.4132 26.9538 19.1045 20.707L19.1152 20.6953C25.1296 14.1082 33.1995 11.8741 40.7598 11.874ZM59.5557 176.808H59.5566L59.5566 115.237H59.5557V176.808ZM92.9795 176.808H92.9805V115.237H92.9795L92.9795 176.808ZM107.96 176.808L107.961 176.808V115.237H107.96L107.96 176.808ZM141.384 176.808H141.385L141.385 115.237H141.384V176.808ZM253.172 176.808L253.173 176.808L253.173 115.237H253.172V176.808ZM286.596 176.808H286.597V115.237H286.596L286.596 176.808ZM301.576 176.808H301.577L301.577 115.237H301.576L301.576 176.808ZM49.1846 175.467L49.4687 175.285C49.4877 175.273 49.5056 175.259 49.5244 175.246C49.4125 175.321 49.2998 175.395 49.1846 175.467ZM49.5684 175.216C49.6566 175.156 49.744 175.095 49.8301 175.033C49.7439 175.095 49.6566 175.156 49.5684 175.216ZM49.9375 174.954C50.0121 174.899 50.0862 174.843 50.1592 174.786C50.0862 174.843 50.0121 174.899 49.9375 174.954ZM50.2324 174.729C50.3348 174.648 50.4359 174.565 50.5352 174.48C50.4359 174.565 50.3348 174.648 50.2324 174.729ZM41.3184 168.622C41.2214 168.626 41.1231 168.627 41.0234 168.627L41.0244 168.628C41.1238 168.628 41.2218 168.626 41.3184 168.622ZM268.747 167.892C268.584 167.924 268.416 167.95 268.242 167.969L268.499 167.936C268.583 167.923 268.666 167.908 268.747 167.892ZM221.256 167.622C221.115 167.68 220.968 167.731 220.816 167.776L221.041 167.704C221.114 167.679 221.186 167.651 221.256 167.622ZM172.996 167.559C172.88 167.611 172.761 167.661 172.637 167.704L172.853 167.623C172.901 167.603 172.949 167.58 172.996 167.559ZM44.6299 167.309C44.5884 167.35 44.5459 167.39 44.5029 167.43C44.546 167.39 44.5893 167.35 44.6309 167.309C44.6894 167.254 44.7459 167.196 44.8008 167.136L44.6299 167.309ZM76.6416 167.319C76.5795 167.358 76.516 167.395 76.4512 167.43C76.5813 167.359 76.7061 167.283 76.8252 167.199L76.6416 167.319ZM221.663 167.43L221.854 167.319C221.866 167.312 221.876 167.304 221.887 167.297C221.814 167.343 221.74 167.388 221.663 167.43ZM270.282 167.303C270.307 167.287 270.332 167.27 270.356 167.254C270.332 167.27 270.307 167.287 270.282 167.303ZM221.927 167.271C221.989 167.231 222.049 167.189 222.108 167.146C222.049 167.189 221.989 167.231 221.927 167.271ZM270.483 167.167C270.513 167.145 270.543 167.123 270.572 167.101C270.543 167.123 270.513 167.145 270.483 167.167ZM222.685 166.618C222.636 166.675 222.586 166.729 222.535 166.78C222.411 166.904 222.278 167.018 222.138 167.123C222.278 167.018 222.412 166.905 222.536 166.781C222.639 166.679 222.735 166.565 222.824 166.44V166.439C222.779 166.502 222.733 166.561 222.685 166.618ZM270.679 167.016C270.709 166.99 270.74 166.965 270.77 166.938C270.74 166.965 270.709 166.99 270.679 167.016ZM271.089 166.618C271.041 166.675 270.991 166.729 270.939 166.78C270.905 166.814 270.869 166.846 270.834 166.879C270.869 166.846 270.906 166.815 270.94 166.781C271.043 166.679 271.139 166.565 271.229 166.44V166.439C271.184 166.502 271.137 166.561 271.089 166.618ZM77.4727 166.618C77.4245 166.675 77.3746 166.729 77.3232 166.78L77.3242 166.781C77.4267 166.679 77.5226 166.565 77.6123 166.44V166.439C77.5674 166.502 77.5208 166.561 77.4727 166.618ZM87.9785 165.28C87.9872 165.221 87.9977 165.163 88.0059 165.104C88.0246 164.967 88.0422 164.829 88.0586 164.689H88.0576C88.0341 164.889 88.0068 165.086 87.9785 165.28ZM281.595 165.28C281.603 165.221 281.614 165.163 281.622 165.104C281.641 164.967 281.658 164.829 281.675 164.689H281.674C281.65 164.889 281.623 165.086 281.595 165.28ZM223.689 163.746C223.664 163.981 223.632 164.204 223.594 164.417L223.647 164.09C223.663 163.978 223.677 163.863 223.689 163.746ZM36.0527 163.779C36.0617 163.89 36.0725 163.998 36.084 164.104C36.0725 163.998 36.0616 163.89 36.0527 163.779ZM332.887 140.921L334.118 163.174L332.888 140.921V115.237H332.887V140.921ZM46.0371 162.646H46.0381L46.0381 153.851H46.0371V162.646ZM78.5508 152.562C78.5538 152.696 78.5547 152.832 78.5547 152.971L78.5547 162.207C78.5547 162.346 78.554 162.483 78.5508 162.616C78.554 162.483 78.5557 162.346 78.5557 162.207V152.972C78.5557 152.833 78.5541 152.696 78.5508 152.562ZM223.762 152.562C223.765 152.695 223.767 152.832 223.767 152.971V162.207C223.767 162.346 223.766 162.483 223.763 162.616C223.766 162.483 223.768 162.346 223.768 162.207L223.768 152.972C223.768 152.832 223.765 152.696 223.762 152.562ZM272.167 152.563C272.17 152.696 272.171 152.832 272.171 152.971L272.171 162.207C272.171 162.346 272.17 162.483 272.167 162.616C272.17 162.483 272.172 162.346 272.172 162.207L272.172 152.972C272.172 152.833 272.17 152.696 272.167 152.563ZM223.185 149.373C223.255 149.531 223.319 149.699 223.377 149.879C223.406 149.969 223.433 150.061 223.459 150.156L223.46 150.157C223.383 149.871 223.291 149.61 223.185 149.373ZM222.685 148.56H222.686C222.637 148.503 222.587 148.449 222.536 148.397L222.535 148.397C222.586 148.449 222.637 148.503 222.685 148.56ZM132.722 141.919C132.682 141.879 132.642 141.84 132.602 141.801C132.642 141.84 132.682 141.879 132.722 141.919ZM132.384 141.595C132.368 141.58 132.352 141.564 132.336 141.549C132.3 141.517 132.264 141.486 132.228 141.454C132.28 141.5 132.332 141.547 132.384 141.595ZM132.112 141.354C132.022 141.276 131.93 141.2 131.837 141.126C131.93 141.2 132.022 141.276 132.112 141.354ZM44.6299 124.737C44.6885 124.792 44.7458 124.85 44.8008 124.91L44.6309 124.737C44.611 124.716 44.5895 124.697 44.5693 124.676C44.5894 124.696 44.6102 124.716 44.6299 124.737ZM44.4434 124.55C44.4138 124.522 44.3828 124.496 44.3525 124.469C44.3828 124.496 44.4138 124.522 44.4434 124.55ZM37.6484 124.447C37.6176 124.473 37.5879 124.5 37.5576 124.526C37.5878 124.5 37.6177 124.473 37.6484 124.447ZM44.2422 124.373C44.2106 124.347 44.1787 124.321 44.1465 124.296C44.1787 124.321 44.2107 124.347 44.2422 124.373ZM38.1914 124.058C38.0717 124.131 37.9556 124.21 37.8428 124.294C37.8581 124.283 37.8733 124.271 37.8887 124.26C37.987 124.188 38.0879 124.121 38.1914 124.058ZM44.0195 124.2C43.9906 124.179 43.9621 124.158 43.9326 124.138C43.962 124.158 43.9906 124.179 44.0195 124.2ZM42.3281 123.461C42.2868 123.452 42.245 123.445 42.2031 123.437C42.2451 123.444 42.2868 123.452 42.3281 123.461ZM42.0625 123.411C41.9718 123.396 41.8797 123.384 41.7861 123.373C41.8796 123.384 41.9718 123.396 42.0625 123.411ZM41.6846 123.361C41.5591 123.349 41.4312 123.339 41.3008 123.334C41.4312 123.339 41.5591 123.349 41.6846 123.361ZM326.645 119.107C326.571 119.027 326.497 118.947 326.421 118.869C326.408 118.856 326.394 118.843 326.381 118.829C326.47 118.92 326.558 119.013 326.645 119.107ZM326.322 118.771C326.254 118.703 326.186 118.635 326.116 118.569C326.186 118.635 326.254 118.703 326.322 118.771ZM326.021 118.48C325.998 118.459 325.976 118.437 325.952 118.416C325.917 118.384 325.88 118.353 325.844 118.321C325.904 118.374 325.963 118.427 326.021 118.48ZM325.729 118.221C325.638 118.144 325.547 118.067 325.453 117.993C325.547 118.067 325.638 118.144 325.729 118.221ZM76.6543 102.595C78.4028 103.624 79.9189 105.005 81.1055 106.641C81.9834 105.43 83.0417 104.359 84.2412 103.467H81.6338C79.9025 103.467 78.2222 103.161 76.6543 102.595ZM181.038 103.408C180.607 103.447 180.172 103.467 179.735 103.467H174.778C175.978 104.359 177.035 105.43 177.913 106.641C178.808 105.407 179.89 104.317 181.118 103.415C181.092 103.413 181.065 103.411 181.038 103.408ZM222.741 103.151C224.123 104.102 225.333 105.284 226.317 106.641C227.195 105.43 228.254 104.359 229.453 103.467H225.775C224.735 103.467 223.72 103.357 222.741 103.151ZM278.677 102.898C277.389 103.268 276.029 103.467 274.622 103.467H271.586C272.785 104.359 273.844 105.43 274.722 106.641C275.795 105.161 277.137 103.889 278.677 102.898ZM126.374 103.467C127.573 104.359 128.632 105.429 129.51 106.64C130.388 105.429 131.446 104.359 132.646 103.467H126.374ZM52.7061 102.035C52.7926 102.07 52.8795 102.104 52.9658 102.14C53.0442 102.1 53.1229 102.061 53.2021 102.022C53.1322 101.989 53.0625 101.954 52.9932 101.919C52.8975 101.958 52.802 101.997 52.7061 102.035ZM59.5557 88.8076H59.5566V27.2373H59.5557V88.8076ZM49.1846 87.4668L49.4687 87.2852C49.4877 87.2726 49.5056 87.2587 49.5244 87.2461C49.4125 87.3212 49.2998 87.3955 49.1846 87.4668ZM49.5684 87.2158C49.6566 87.156 49.744 87.0954 49.8301 87.0332C49.7439 87.0954 49.6566 87.156 49.5684 87.2158ZM49.9375 86.9541C50.0121 86.8988 50.0862 86.8432 50.1592 86.7861C50.0862 86.8432 50.0121 86.8989 49.9375 86.9541ZM50.2324 86.7295C50.3348 86.6481 50.4359 86.5654 50.5352 86.4805C50.4359 86.5654 50.3348 86.6481 50.2324 86.7295ZM41.3184 80.6221C41.2214 80.6258 41.1231 80.627 41.0234 80.627L41.0244 80.6279C41.1238 80.6279 41.2218 80.6261 41.3184 80.6221ZM44.6299 79.3086C44.575 79.3635 44.5193 79.4173 44.4619 79.4688C44.5195 79.4172 44.5758 79.3636 44.6309 79.3086C44.6894 79.2537 44.7459 79.1959 44.8008 79.1357L44.6299 79.3086ZM36.0527 75.7793C36.0617 75.8898 36.0725 75.9982 36.084 76.1045C36.0725 75.9982 36.0616 75.8898 36.0527 75.7793ZM46.0371 74.6465H46.0381L46.0381 65.8506H46.0371V74.6465ZM190.97 64.0879V64.0918L200.909 27.2373L200.908 27.2373L190.97 64.0879ZM147.719 53.8857L147.72 53.8887L147.72 27.2373H147.719V53.8857ZM44.6299 36.7373C44.6885 36.7923 44.7458 36.8499 44.8008 36.9102L44.6309 36.7373C44.611 36.7161 44.5895 36.6965 44.5693 36.6758C44.5894 36.6964 44.6102 36.7163 44.6299 36.7373ZM44.4434 36.5498C44.4138 36.5219 44.3828 36.4957 44.3525 36.4687C44.3828 36.4956 44.4138 36.5219 44.4434 36.5498ZM37.6484 36.4473C37.6176 36.4729 37.5879 36.4998 37.5576 36.5264C37.5878 36.4998 37.6177 36.4729 37.6484 36.4473ZM44.2422 36.373C44.2106 36.3468 44.1787 36.3211 44.1465 36.2959C44.1787 36.3212 44.2107 36.3468 44.2422 36.373ZM38.1914 36.0576C38.0717 36.1308 37.9556 36.2097 37.8428 36.2939C37.8581 36.2825 37.8733 36.271 37.8887 36.2598C37.987 36.1882 38.0879 36.1209 38.1914 36.0576ZM44.0195 36.2002C43.9906 36.1793 43.9621 36.1579 43.9326 36.1377C43.962 36.1579 43.9906 36.1792 44.0195 36.2002ZM42.3281 35.4609C42.2868 35.452 42.245 35.4445 42.2031 35.4365C42.2451 35.4445 42.2868 35.4521 42.3281 35.4609ZM42.0625 35.4111C41.9718 35.3962 41.8797 35.3839 41.7861 35.373C41.8796 35.384 41.9718 35.3962 42.0625 35.4111ZM41.6846 35.3613C41.5591 35.349 41.4312 35.339 41.3008 35.334C41.4312 35.3391 41.5591 35.3487 41.6846 35.3613ZM87.8779 165.912C87.9126 165.717 87.9438 165.519 87.9736 165.318C87.9441 165.519 87.9126 165.717 87.8779 165.912ZM281.494 165.912C281.529 165.717 281.56 165.519 281.59 165.318C281.56 165.519 281.529 165.717 281.494 165.912ZM36.0303 163.427L36.0312 163.451C36.0357 163.534 36.0419 163.616 36.0479 163.697C36.0413 163.608 36.035 163.518 36.0303 163.427ZM36.0303 75.4268L36.0312 75.4512C36.0357 75.5343 36.0419 75.6163 36.0479 75.6973C36.0413 75.6084 36.035 75.5183 36.0303 75.4268Z" fill="#1C1456"/>
<g filter="url(#filter0_ii_2315_23099)">
<path d="M29.7646 0.880859C33.8015 0.880899 38.0108 1.5219 41.9707 3.14746C43.9519 2.14866 46.1904 1.58503 48.5605 1.58496L58.2363 1.58496C60.5409 1.58502 62.721 2.11783 64.6611 3.06543C66.624 2.10941 68.8105 1.58496 71.0781 1.58496L80.5771 1.58496C82.282 1.585 83.946 1.88334 85.5059 2.44043C87.0522 1.88806 88.7125 1.58496 90.4346 1.58496L104.596 1.58496L104.933 1.58887C106.537 1.62538 108.085 1.92521 109.532 2.44336C111.095 1.88406 112.762 1.58496 114.471 1.58496L123.97 1.58496C126.22 1.58502 128.391 2.10173 130.342 3.04395C132.271 2.10955 134.436 1.58499 136.724 1.58496L146.487 1.58496C148.774 1.58505 150.939 2.10972 152.868 3.04395C154.82 2.10156 156.991 1.58496 159.241 1.58496L168.74 1.58496C169.178 1.58497 169.613 1.6061 170.044 1.64453C170.476 1.6063 170.913 1.58496 171.354 1.58496L179.974 1.58496C181.721 1.585 183.397 1.89151 184.95 2.45215C186.51 1.89054 188.183 1.58499 189.913 1.58496L202.052 1.58496C202.492 1.58498 202.927 1.60558 203.357 1.64355C203.788 1.60551 204.225 1.58496 204.665 1.58496L234.57 1.58496C235.02 1.58498 235.466 1.60679 235.905 1.64648C236.345 1.60683 236.79 1.58496 237.24 1.58496L263.627 1.58496C271.723 1.58516 278.287 8.14817 278.287 16.2441V25.04C278.287 29.3569 276.42 33.2372 273.45 35.9199C274.352 37.8213 274.856 39.9474 274.856 42.1914L274.856 50.9873C274.856 53.4743 274.235 55.8163 273.143 57.8682C276.29 60.5569 278.287 64.5544 278.287 69.0186V77.8145C278.287 82.9941 275.599 87.5457 271.544 90.1533C272.832 89.7832 274.193 89.585 275.601 89.585L285.276 89.585C286.182 89.585 287.069 89.667 287.929 89.8242C288.789 89.667 289.676 89.585 290.581 89.585H304.83C308.225 89.585 311.826 90.0115 315.319 91.1377C317.296 90.1445 319.529 89.585 321.892 89.585L331.567 89.585C339.663 89.5852 346.226 96.1482 346.227 104.244V129.928C346.227 130.198 346.219 130.469 346.204 130.738L345.07 151.212C345.703 152.85 346.051 154.63 346.051 156.491V165.814C346.051 173.911 339.488 180.473 331.392 180.474H322.068C317.738 180.474 313.846 178.595 311.162 175.609C308.479 178.595 304.587 180.473 300.257 180.474L290.581 180.474C289.675 180.474 288.789 180.391 287.929 180.233C287.069 180.391 286.182 180.474 285.276 180.474L275.601 180.474C272.901 180.474 270.372 179.744 268.2 178.471C264.312 179.934 260.238 180.474 256.426 180.474H242.177C241.271 180.474 240.385 180.391 239.524 180.233C238.664 180.391 237.778 180.474 236.872 180.474H227.197C224.498 180.474 221.969 179.743 219.797 178.471C215.908 179.934 211.835 180.474 208.022 180.474H193.773C192.868 180.474 191.981 180.391 191.12 180.233C190.26 180.391 189.373 180.474 188.468 180.474L178.793 180.474C176.094 180.474 173.565 179.743 171.393 178.471C167.504 179.934 163.431 180.474 159.618 180.474H145.369C144.464 180.474 143.577 180.391 142.717 180.233C141.857 180.391 140.97 180.474 140.064 180.474L130.389 180.474C127.689 180.474 125.16 179.744 122.988 178.471C119.1 179.934 115.027 180.474 111.214 180.474H96.9648C96.0592 180.474 95.1727 180.391 94.3125 180.233C93.4523 180.391 92.5657 180.474 91.6602 180.474H81.9844C79.285 180.474 76.7561 179.744 74.584 178.471C70.6957 179.934 66.6231 180.474 62.8105 180.474H48.5605C46.2014 180.474 43.9724 179.916 41.998 178.926C38.017 180.549 33.794 181.178 29.7646 181.178C22.2987 181.178 14.2665 179.031 8.22949 172.562C8.15315 172.481 8.07738 172.398 8.00293 172.314C2.42876 166.061 0.680741 158.25 0.680664 151.038L0.680664 119.021C0.680696 111.835 2.41807 103.961 8.10938 97.7139L8.12012 97.7021C10.9725 94.5782 14.2877 92.4338 17.791 91.042C14.3406 89.6853 11.065 87.6005 8.22949 84.5625C8.15315 84.4807 8.07738 84.398 8.00293 84.3145C2.42876 78.0605 0.680741 70.25 0.680664 63.0381L0.680664 31.0215C0.680696 23.8352 2.41807 15.9607 8.10937 9.71387L8.12012 9.70215C14.1345 3.11515 22.2044 0.88091 29.7646 0.880859ZM28.0371 166.457C28.1766 166.467 28.3172 166.477 28.459 166.484C28.4902 166.486 28.5214 166.487 28.5527 166.488C28.3269 166.477 28.104 166.461 27.8838 166.443C27.9348 166.448 27.9858 166.453 28.0371 166.457ZM27.1553 166.372C27.3562 166.396 27.5597 166.416 27.7656 166.434C27.5597 166.416 27.3562 166.396 27.1553 166.372ZM26.417 166.271C26.6174 166.303 26.8207 166.33 27.0264 166.355C26.8207 166.33 26.6174 166.303 26.417 166.271ZM119.464 163.985H119.465C119.563 163.93 119.659 163.873 119.755 163.815H119.754C119.658 163.873 119.562 163.93 119.464 163.985ZM41.1553 161.771C41.0159 161.953 40.8717 162.131 40.7227 162.304L40.9434 162.041C41.0154 161.952 41.0857 161.862 41.1553 161.771ZM122.677 161.188C122.473 161.45 122.258 161.703 122.032 161.944H122.033C122.258 161.703 122.474 161.45 122.678 161.188H122.677ZM106.64 157.019L106.641 157.019V136.173H106.64L106.64 157.019ZM112.54 156.898C112.377 156.931 112.208 156.956 112.034 156.976L112.291 156.942C112.375 156.93 112.458 156.914 112.54 156.898ZM209.82 156.783C209.745 156.806 209.667 156.827 209.589 156.846L209.821 156.783C209.897 156.761 209.972 156.737 210.045 156.711L209.82 156.783ZM258.664 156.629C258.523 156.687 258.377 156.738 258.225 156.783L258.449 156.711C258.522 156.685 258.594 156.658 258.664 156.629ZM26.334 156.315C26.3614 156.341 26.39 156.366 26.418 156.391C26.3902 156.366 26.3623 156.341 26.335 156.315C26.3095 156.29 26.2854 156.263 26.2607 156.236C26.2853 156.263 26.3087 156.29 26.334 156.315ZM34.7539 154.255C34.7067 154.436 34.6556 154.609 34.5967 154.773L34.6904 154.49C34.7136 154.414 34.7331 154.335 34.7539 154.255ZM212.71 152.589C212.682 152.884 212.645 153.162 212.598 153.424C212.559 153.636 212.514 153.838 212.463 154.028H212.464C212.578 153.603 212.659 153.123 212.71 152.589ZM25.0352 117.602C25.0214 117.859 25.0147 118.127 25.0146 118.405L25.0146 151.653C25.0146 151.924 25.0212 152.185 25.0342 152.436C25.0279 152.314 25.0237 152.19 25.0205 152.063L25.0156 151.653L25.0156 118.405C25.0156 118.266 25.0171 118.129 25.0205 117.995C25.0274 117.727 25.0409 117.47 25.0615 117.224L25.0352 117.602ZM77.2344 150.598H77.2354L77.2354 142.594H77.2344V150.598ZM270.851 150.598H270.852L270.852 142.594H270.851V150.598ZM313.08 140.853H313.081C313.179 140.797 313.276 140.741 313.371 140.683H313.37C313.275 140.741 313.178 140.797 313.08 140.853ZM67.5049 140.683C67.5007 140.635 67.4959 140.588 67.4912 140.542C67.4959 140.588 67.5007 140.635 67.5049 140.683ZM212.717 140.683C212.713 140.635 212.708 140.588 212.703 140.542C212.708 140.588 212.713 140.635 212.717 140.683ZM316.293 138.055C316.089 138.318 315.874 138.57 315.648 138.812H315.649C315.875 138.57 316.09 138.318 316.294 138.055H316.293ZM211.688 137.566C211.737 137.623 211.783 137.683 211.828 137.745H211.829C211.784 137.683 211.737 137.623 211.689 137.566H211.688ZM210.667 136.755C210.797 136.826 210.922 136.903 211.041 136.986L210.858 136.865C210.796 136.827 210.732 136.79 210.667 136.755ZM258.38 136.458C258.35 136.448 258.319 136.438 258.288 136.429C258.319 136.438 258.35 136.448 258.38 136.458ZM111.769 136.192C111.948 136.205 112.122 136.224 112.291 136.25L112.034 136.216C111.947 136.206 111.858 136.199 111.769 136.192ZM256.98 136.192C257.16 136.205 257.334 136.224 257.503 136.25L257.246 136.216C257.159 136.206 257.07 136.199 256.98 136.192ZM300.256 133.886H300.257V113.04H300.256V133.886ZM306.156 133.766C305.993 133.798 305.825 133.824 305.65 133.843L305.907 133.81C305.992 133.797 306.075 133.782 306.156 133.766ZM121.809 131.01C121.884 131.088 121.959 131.167 122.032 131.247H122.033C121.96 131.166 121.885 131.087 121.81 131.009L121.809 131.01ZM121.094 130.34C120.973 130.237 120.849 130.138 120.723 130.041C120.849 130.138 120.973 130.237 121.094 130.34ZM120.672 130.003C120.569 129.924 120.464 129.848 120.357 129.772C120.464 129.847 120.569 129.924 120.672 130.003ZM120.232 129.686C120.15 129.629 120.065 129.574 119.98 129.52C120.065 129.574 120.15 129.629 120.232 129.686ZM119.842 129.431C119.813 129.413 119.784 129.394 119.755 129.376C119.659 129.318 119.563 129.261 119.465 129.206H119.464C119.592 129.279 119.718 129.354 119.842 129.431ZM34.6172 115.349C34.6019 115.304 34.5855 115.261 34.5693 115.218C34.5855 115.261 34.6019 115.304 34.6172 115.349ZM25.4824 115.15C25.4704 115.183 25.4568 115.216 25.4453 115.249C25.4568 115.216 25.4704 115.183 25.4824 115.15ZM34.5303 115.115C34.5173 115.083 34.5037 115.05 34.4902 115.019C34.5037 115.05 34.5173 115.083 34.5303 115.115ZM25.6074 114.838C25.5918 114.873 25.5765 114.908 25.5615 114.944C25.5765 114.908 25.5919 114.873 25.6074 114.838ZM34.4346 114.891C34.4226 114.865 34.4098 114.839 34.3975 114.813C34.4098 114.839 34.4226 114.865 34.4346 114.891ZM34.3447 114.707C34.3291 114.677 34.313 114.647 34.2969 114.617C34.313 114.647 34.3291 114.677 34.3447 114.707ZM25.7373 114.567C25.724 114.593 25.7122 114.619 25.6992 114.645C25.7122 114.619 25.724 114.593 25.7373 114.567ZM26.8926 113.266C26.6961 113.409 26.5099 113.568 26.334 113.744C26.2791 113.799 26.2263 113.857 26.1748 113.917L26.335 113.744C26.5107 113.568 26.6964 113.409 26.8926 113.266ZM33.6348 113.744L33.4658 113.573C33.4573 113.565 33.448 113.558 33.4395 113.55C33.506 113.612 33.5716 113.677 33.6348 113.744ZM33.3496 113.47C33.3051 113.43 33.2608 113.391 33.2148 113.354C33.2608 113.391 33.3051 113.43 33.3496 113.47ZM33.1289 113.287C33.0792 113.249 33.0299 113.21 32.9785 113.174C33.0298 113.21 33.0792 113.249 33.1289 113.287ZM32.8926 113.117C32.8399 113.082 32.7877 113.046 32.7334 113.014C32.7877 113.046 32.8399 113.082 32.8926 113.117ZM315.425 107.877C315.5 107.955 315.575 108.034 315.648 108.114H315.649C315.576 108.034 315.502 107.954 315.426 107.876L315.425 107.877ZM40.4951 107.587C40.5723 107.67 40.6488 107.753 40.7236 107.838C40.6491 107.753 40.5731 107.669 40.4961 107.587C40.4209 107.503 40.3441 107.42 40.2666 107.338L40.4951 107.587ZM314.71 107.207C314.589 107.104 314.465 107.005 314.339 106.908C314.465 107.005 314.589 107.104 314.71 107.207ZM314.28 106.864C314.179 106.787 314.077 106.712 313.973 106.639C314.077 106.712 314.179 106.788 314.28 106.864ZM313.849 106.553C313.766 106.496 313.682 106.441 313.597 106.387C313.682 106.441 313.766 106.496 313.849 106.553ZM313.458 106.298C313.429 106.28 313.4 106.261 313.371 106.243C313.276 106.185 313.179 106.129 313.081 106.073H313.08C313.208 106.146 313.334 106.221 313.458 106.298ZM65.6592 91.6016C67.4077 92.6304 68.9238 94.0115 70.1104 95.6475C70.9883 94.437 72.0466 93.3656 73.2461 92.4736H70.6387C68.9074 92.4736 67.2271 92.1681 65.6592 91.6016ZM170.043 92.415C169.612 92.4534 169.177 92.4736 168.74 92.4736H163.783C164.983 93.3656 166.04 94.4371 166.918 95.6475C167.813 94.4136 168.895 93.324 170.123 92.4219C170.096 92.4197 170.07 92.4174 170.043 92.415ZM211.746 92.1582C213.128 93.1088 214.338 94.2907 215.322 95.6475C216.2 94.437 217.259 93.3656 218.458 92.4736H214.78C213.74 92.4736 212.725 92.3642 211.746 92.1582ZM267.682 91.9053C266.394 92.2751 265.033 92.4736 263.627 92.4736H260.591C261.79 93.3657 262.849 94.4369 263.727 95.6475C264.8 94.1681 266.141 92.8958 267.682 91.9053ZM115.379 92.4736C116.578 93.3655 117.637 94.4362 118.515 95.6465C119.393 94.4363 120.451 93.3655 121.65 92.4736L115.379 92.4736ZM41.7109 91.042C41.7975 91.0765 41.8844 91.111 41.9707 91.1465C42.049 91.107 42.1279 91.0674 42.207 91.0293C42.137 90.9956 42.0674 90.9606 41.998 90.9258C41.9025 90.9647 41.8068 91.0042 41.7109 91.042ZM28.0371 78.457C28.1766 78.4673 28.3172 78.4766 28.459 78.4844C28.4902 78.4861 28.5214 78.4867 28.5527 78.4883C28.3269 78.4769 28.104 78.4612 27.8838 78.4434C27.9348 78.4475 27.9858 78.4532 28.0371 78.457ZM27.1553 78.3721C27.3562 78.3957 27.5597 78.4157 27.7656 78.4336C27.5597 78.4157 27.3562 78.3957 27.1553 78.3721ZM26.417 78.2715C26.6174 78.3031 26.8207 78.3299 27.0264 78.3555C26.8207 78.3299 26.6174 78.3031 26.417 78.2715ZM41.1553 73.7715C41.0159 73.9534 40.8717 74.1308 40.7227 74.3037L40.9434 74.041C41.0154 73.9524 41.0857 73.8623 41.1553 73.7715ZM26.334 68.3154C26.3614 68.3412 26.39 68.3656 26.418 68.3906C26.3902 68.3658 26.3623 68.341 26.335 68.3154C26.294 68.2745 26.2548 68.2313 26.2158 68.1875C26.2547 68.2312 26.2932 68.2746 26.334 68.3154ZM34.7539 66.2549C34.7067 66.436 34.6556 66.6092 34.5967 66.7734L34.6904 66.4902C34.7136 66.4136 34.7331 66.3348 34.7539 66.2549ZM25.0352 29.6016C25.0214 29.8589 25.0147 30.1268 25.0146 30.4053L25.0146 63.6533C25.0146 63.9239 25.0212 64.1848 25.0342 64.4355C25.0279 64.3139 25.0237 64.1898 25.0205 64.0635L25.0156 63.6533L25.0156 30.4053C25.0156 30.2659 25.0171 30.1292 25.0205 29.9951C25.0274 29.7274 25.0409 29.4703 25.0615 29.2236L25.0352 29.6016ZM146.486 42.8955L146.487 42.8926L146.487 16.2441H146.486L146.486 42.8955ZM34.6172 27.3486C34.6019 27.3043 34.5855 27.2609 34.5693 27.2178C34.5855 27.2609 34.6019 27.3043 34.6172 27.3486ZM25.4824 27.1504C25.4704 27.1831 25.4568 27.2156 25.4453 27.249C25.4568 27.2156 25.4704 27.1831 25.4824 27.1504ZM34.5303 27.1152C34.5173 27.0826 34.5037 27.0505 34.4902 27.0186C34.5037 27.0505 34.5173 27.0826 34.5303 27.1152ZM25.6074 26.8379C25.5918 26.8729 25.5765 26.9084 25.5615 26.9443C25.5765 26.9084 25.5919 26.8729 25.6074 26.8379ZM34.4346 26.8906C34.4226 26.8645 34.4098 26.8391 34.3975 26.8135C34.4098 26.8391 34.4226 26.8645 34.4346 26.8906ZM34.3447 26.707C34.3291 26.6767 34.313 26.6468 34.2969 26.6172C34.313 26.6468 34.3291 26.6767 34.3447 26.707ZM25.7373 26.5674C25.7253 26.59 25.7148 26.6136 25.7031 26.6367C25.7148 26.6136 25.7253 26.59 25.7373 26.5674ZM26.8926 25.2656C26.6961 25.4087 26.5099 25.5683 26.334 25.7441C26.2791 25.799 26.2263 25.8568 26.1748 25.917L26.335 25.7441C26.5107 25.5684 26.6964 25.4087 26.8926 25.2656ZM33.6348 25.7441L33.4658 25.5732C33.4573 25.5651 33.448 25.5579 33.4395 25.5498C33.506 25.6124 33.5716 25.6767 33.6348 25.7441ZM33.3496 25.4697C33.3051 25.4302 33.2608 25.3909 33.2148 25.3535C33.2608 25.3909 33.3051 25.4302 33.3496 25.4697ZM33.1289 25.2871C33.0792 25.2487 33.0299 25.2099 32.9785 25.1738C33.0298 25.2099 33.0792 25.2487 33.1289 25.2871ZM32.8926 25.1172C32.8399 25.0821 32.7877 25.0464 32.7334 25.0137C32.7877 25.0464 32.8399 25.0821 32.8926 25.1172ZM40.4951 19.5869C40.5723 19.6696 40.6488 19.753 40.7236 19.8379C40.6491 19.753 40.5731 19.6694 40.4961 19.5869C40.4209 19.5025 40.3441 19.4196 40.2666 19.3379L40.4951 19.5869ZM212.712 152.567C212.725 152.431 212.736 152.291 212.744 152.147C212.736 152.291 212.725 152.431 212.712 152.567Z" fill="#F49425"/>
</g>
<path d="M44.1899 54.8566V63.0366C44.1899 68.0209 42.9585 71.8617 40.4957 74.5591C38.0915 77.1978 34.5146 78.5171 29.7649 78.5171C25.0152 78.5171 21.409 77.1978 18.9461 74.5591C16.542 71.8617 15.3399 68.0209 15.3399 63.0366L15.3399 31.0201C15.3399 26.0359 16.542 22.2244 18.9461 19.5857C21.409 16.8883 25.0152 15.5396 29.7649 15.5396C34.5146 15.5396 38.0915 16.8883 40.4957 19.5857C42.9585 22.2244 44.1899 26.0359 44.1899 31.0201V37.0012H35.0423V30.4044C35.0423 28.1762 34.5732 26.6223 33.635 25.7427C32.7555 24.8045 31.5534 24.3354 30.0288 24.3354C28.5042 24.3354 27.2728 24.8045 26.3346 25.7427C25.455 26.6223 25.0152 28.1762 25.0152 30.4044L25.0152 63.6523C25.0152 65.8806 25.455 67.4345 26.3346 68.3141C27.2728 69.1937 28.5042 69.6334 30.0288 69.6334C31.5534 69.6334 32.7555 69.1937 33.635 68.3141C34.5732 67.4345 35.0423 65.8806 35.0423 63.6523V54.8566H44.1899ZM61.2268 53.2734L58.2363 58.9026V77.8135H48.561L48.561 16.2433H58.2363V43.0703L71.0781 16.2433L80.5775 16.2433L67.12 43.686L80.5775 77.8135H70.6383L61.2268 53.2734ZM114.447 77.8135H104.683L103.012 66.6429H91.1379L89.4667 77.8135H80.583L90.4342 16.2433H104.595L114.447 77.8135ZM92.3693 58.2869H101.693L97.031 27.15L92.3693 58.2869ZM124.41 77.8135H114.471L127.928 43.686L114.471 16.2433H123.97L136.724 42.8944V16.2433H146.487V42.8944L159.241 16.2433H168.74L155.283 43.686L168.74 77.8135H158.801L149.39 53.2734L146.487 58.7267V77.8135H136.724V58.7267L133.821 53.2734L124.41 77.8135ZM181.293 77.8135H171.354V16.2433H179.974V53.0975L189.913 16.2433H202.051V77.8135H193.344V33.2191L181.293 77.8135ZM204.665 16.2433L234.57 16.2433V25.039H224.455V77.8135H214.78V25.039H204.665V16.2433ZM246.915 42.1907L260.197 42.1907V50.9865H246.915V69.0177H263.627V77.8135H237.24V16.2433L263.627 16.2433V25.039H246.915V42.1907ZM44.1899 142.857V151.037C44.1899 156.021 42.9585 159.862 40.4957 162.559C38.0915 165.198 34.5146 166.517 29.7649 166.517C25.0152 166.517 21.409 165.198 18.9461 162.559C16.542 159.862 15.3399 156.021 15.3399 151.037L15.3399 119.02C15.3399 114.036 16.542 110.224 18.9461 107.586C21.409 104.888 25.0152 103.54 29.7649 103.54C34.5146 103.54 38.0915 104.888 40.4957 107.586C42.9585 110.224 44.1899 114.036 44.1899 119.02V125.001H35.0423L35.0423 118.404C35.0423 116.176 34.5732 114.622 33.635 113.743C32.7555 112.804 31.5534 112.335 30.0288 112.335C28.5042 112.335 27.2728 112.804 26.3346 113.743C25.455 114.622 25.0152 116.176 25.0152 118.404L25.0152 151.652C25.0152 153.881 25.455 155.435 26.3346 156.314C27.2728 157.194 28.5042 157.633 30.0288 157.633C31.5534 157.633 32.7555 157.194 33.635 156.314C34.5732 155.435 35.0423 153.881 35.0423 151.652V142.857H44.1899ZM62.8101 157.018C64.3347 157.018 65.5074 156.607 66.3284 155.786C67.1493 154.965 67.5598 153.441 67.5598 151.213V141.977C67.5598 139.749 67.1493 138.224 66.3284 137.403C65.5074 136.582 64.3347 136.172 62.8101 136.172H58.2363L58.2363 157.018H62.8101ZM48.561 165.813L48.561 104.243H58.2363V127.376H62.8101C67.6771 127.376 71.2833 128.666 73.6288 131.246C76.033 133.826 77.2351 137.608 77.2351 142.593V150.597C77.2351 155.581 76.033 159.363 73.6288 161.943C71.2833 164.523 67.6771 165.813 62.8101 165.813H48.561ZM81.9848 104.243H91.6601V165.813H81.9848V104.243ZM111.214 157.018C112.739 157.018 113.911 156.607 114.732 155.786C115.553 154.965 115.964 153.441 115.964 151.213V141.977C115.964 139.749 115.553 138.224 114.732 137.403C113.911 136.582 112.739 136.172 111.214 136.172H106.64V157.018H111.214ZM96.965 165.813V104.243L106.64 104.243V127.376H111.214C116.081 127.376 119.687 128.666 122.033 131.246C124.437 133.826 125.639 137.608 125.639 142.593V150.597C125.639 155.581 124.437 159.363 122.033 161.943C119.687 164.523 116.081 165.813 111.214 165.813H96.965ZM130.389 104.243H140.064V165.813H130.389V104.243ZM159.618 157.018C161.143 157.018 162.316 156.607 163.136 155.786C163.957 154.965 164.368 153.441 164.368 151.213V141.977C164.368 139.749 163.957 138.224 163.136 137.403C162.316 136.582 161.143 136.172 159.618 136.172H155.044V157.018H159.618ZM145.369 165.813V104.243H155.044V127.376H159.618C164.485 127.376 168.091 128.666 170.437 131.246C172.841 133.826 174.043 137.608 174.043 142.593V150.597C174.043 155.581 172.841 159.363 170.437 161.943C168.091 164.523 164.485 165.813 159.618 165.813H145.369ZM178.793 104.243H188.468V165.813L178.793 165.813V104.243ZM208.022 157.018C209.547 157.018 210.72 156.607 211.541 155.786C212.361 154.965 212.772 153.441 212.772 151.213V141.977C212.772 139.749 212.361 138.224 211.541 137.403C210.72 136.582 209.547 136.172 208.022 136.172H203.448V157.018H208.022ZM193.773 165.813V104.243H203.448V127.376H208.022C212.889 127.376 216.495 128.666 218.841 131.246C221.245 133.826 222.447 137.608 222.447 142.593V150.597C222.447 155.581 221.245 159.363 218.841 161.943C216.495 164.523 212.889 165.813 208.022 165.813H193.773ZM227.197 104.243H236.872V165.813H227.197V104.243ZM256.426 157.018C257.951 157.018 259.124 156.607 259.945 155.786C260.765 154.965 261.176 153.441 261.176 151.213V141.977C261.176 139.749 260.765 138.224 259.945 137.403C259.124 136.582 257.951 136.172 256.426 136.172H251.852V157.018H256.426ZM242.177 165.813V104.243H251.852V127.376H256.426C261.293 127.376 264.899 128.666 267.245 131.246C269.649 133.826 270.851 137.608 270.851 142.593V150.597C270.851 155.581 269.649 159.363 267.245 161.943C264.899 164.523 261.293 165.813 256.426 165.813H242.177ZM275.601 104.243H285.276V165.813H275.601V104.243ZM304.83 104.243C309.697 104.243 313.304 105.533 315.649 108.113C318.053 110.694 319.255 114.476 319.255 119.46V127.464C319.255 132.448 318.053 136.23 315.649 138.811C313.304 141.391 309.697 142.681 304.83 142.681H300.257V165.813H290.581V104.243H304.83ZM300.257 113.039V133.885H304.83C306.355 133.885 307.528 133.474 308.349 132.654C309.17 131.833 309.58 130.308 309.58 128.08V118.844C309.58 116.616 309.17 115.091 308.349 114.27C307.528 113.45 306.355 113.039 304.83 113.039H300.257ZM323.123 152.18L321.892 129.927V104.243H331.567V129.927L330.336 152.18H323.123ZM331.391 156.49V165.813H322.068V156.49H331.391Z" fill="white"/>
<defs>
<filter id="filter0_ii_2315_23099" x="-6.64912" y="-6.44892" width="360.205" height="194.956" filterUnits="userSpaceOnUse" color-interpolation-filters="sRGB">
<feFlood flood-opacity="0" result="BackgroundImageFix"/>
<feBlend mode="normal" in="SourceGraphic" in2="BackgroundImageFix" result="shape"/>
<feColorMatrix in="SourceAlpha" type="matrix" values="0 0 0 0 0 0 0 0 0 0 0 0 0 0 0 0 0 0 127 0" result="hardAlpha"/>
<feOffset dx="7.32978" dy="7.32978"/>
<feGaussianBlur stdDeviation="3.66489"/>
<feComposite in2="hardAlpha" operator="arithmetic" k2="-1" k3="1"/>
<feColorMatrix type="matrix" values="0 0 0 0 0.975983 0 0 0 0 0.766376 0 0 0 0 0.524017 0 0 0 1 0"/>
<feBlend mode="normal" in2="shape" result="effect1_innerShadow_2315_23099"/>
<feColorMatrix in="SourceAlpha" type="matrix" values="0 0 0 0 0 0 0 0 0 0 0 0 0 0 0 0 0 0 127 0" result="hardAlpha"/>
<feOffset dx="-7.32978" dy="-7.32978"/>
<feGaussianBlur stdDeviation="3.66489"/>
<feComposite in2="hardAlpha" operator="arithmetic" k2="-1" k3="1"/>
<feColorMatrix type="matrix" values="0 0 0 0 0.856769 0 0 0 0 0.479476 0 0 0 0 0.0432314 0 0 0 1 0"/>
<feBlend mode="normal" in2="effect1_innerShadow_2315_23099" result="effect2_innerShadow_2315_23099"/>
</filter>
</defs>
</svg>
