<svg width="357" height="192" viewBox="0 0 357 192" fill="none" xmlns="http://www.w3.org/2000/svg">
<path d="M40.4873 11.4463C44.5242 11.4463 48.7334 12.0874 52.6934 13.7129C54.6745 12.714 56.913 12.1505 59.2832 12.1504L68.959 12.1504C71.2635 12.1504 73.4437 12.6833 75.3838 13.6309C77.3466 12.6748 79.5331 12.1504 81.8008 12.1504L91.2998 12.1504C93.0046 12.1504 94.6687 12.4488 96.2285 13.0059C97.7749 12.4534 99.4352 12.1504 101.157 12.1504L115.318 12.1504L115.655 12.1543C117.26 12.1908 118.807 12.4907 120.255 13.0088C121.818 12.4494 123.485 12.1504 125.193 12.1504L134.692 12.1504C136.943 12.1504 139.113 12.6672 141.064 13.6094C142.994 12.6749 145.159 12.1505 147.446 12.1504L157.21 12.1504C159.497 12.1504 161.662 12.6752 163.591 13.6094C165.542 12.6669 167.713 12.1504 169.964 12.1504L179.463 12.1504C179.9 12.1504 180.336 12.1715 180.767 12.21C181.198 12.1717 181.636 12.1504 182.077 12.1504L190.696 12.1504C192.443 12.1504 194.119 12.457 195.673 13.0176C197.233 12.4559 198.906 12.1505 200.636 12.1504L212.774 12.1504C213.214 12.1504 213.65 12.171 214.08 12.209C214.511 12.1709 214.947 12.1504 215.388 12.1504L245.293 12.1504C245.743 12.1504 246.188 12.1722 246.628 12.2119C247.067 12.1722 247.513 12.1504 247.963 12.1504L274.35 12.1504C282.446 12.1504 289.01 18.7135 289.01 26.8096V35.6055C289.01 39.9225 287.142 43.8026 284.173 46.4854C285.074 48.3867 285.579 50.5129 285.579 52.7568V61.5527C285.579 64.0398 284.958 66.3817 283.865 68.4336C287.013 71.1223 289.01 75.1198 289.01 79.584V88.3799C289.01 93.5597 286.322 98.1112 282.267 100.719C283.555 100.349 284.916 100.15 286.323 100.15H295.999C296.905 100.15 297.791 100.232 298.651 100.39C299.512 100.232 300.398 100.15 301.304 100.15H315.553C318.947 100.15 322.549 100.577 326.042 101.703C328.019 100.71 330.251 100.151 332.614 100.15L342.29 100.15C350.386 100.15 356.949 106.714 356.949 114.81L356.949 140.493C356.949 140.763 356.942 141.034 356.927 141.304L355.793 161.777C356.426 163.415 356.773 165.196 356.773 167.057V176.38C356.773 184.476 350.21 191.039 342.114 191.039H332.791C328.46 191.039 324.568 189.161 321.885 186.175C319.201 189.161 315.31 191.039 310.979 191.039H301.304C300.398 191.039 299.512 190.956 298.651 190.799C297.791 190.956 296.905 191.039 295.999 191.039L286.323 191.039C283.624 191.039 281.095 190.309 278.923 189.036C275.034 190.5 270.961 191.039 267.148 191.039H252.899C251.994 191.039 251.107 190.956 250.247 190.799C249.387 190.956 248.5 191.039 247.595 191.039L237.92 191.039C235.221 191.039 232.692 190.309 230.52 189.036C226.631 190.5 222.558 191.039 218.745 191.039H204.496C203.59 191.039 202.703 190.956 201.843 190.799C200.983 190.956 200.096 191.039 199.19 191.039H189.516C186.816 191.039 184.287 190.309 182.115 189.036C178.227 190.5 174.154 191.039 170.341 191.039H156.092C155.186 191.039 154.3 190.956 153.439 190.799C152.579 190.956 151.693 191.039 150.787 191.039L141.111 191.039C138.412 191.039 135.883 190.309 133.711 189.036C129.822 190.5 125.749 191.039 121.937 191.039H107.687C106.782 191.039 105.895 190.956 105.035 190.799C104.175 190.956 103.288 191.039 102.383 191.039L92.707 191.039C90.0077 191.039 87.4787 190.309 85.3066 189.036C81.4183 190.5 77.3458 191.039 73.5332 191.039H59.2832C56.9241 191.039 54.695 190.481 52.7207 189.491C48.7395 191.114 44.5167 191.743 40.4873 191.743C33.0214 191.743 24.9891 189.596 18.9521 183.128C18.8759 183.046 18.8 182.963 18.7256 182.88C13.1516 176.626 11.4034 168.815 11.4033 161.604V129.587C11.4034 122.401 13.1408 114.526 18.832 108.279L18.8428 108.268C21.6952 105.144 25.0104 102.999 28.5137 101.607C25.0634 100.251 21.7876 98.1658 18.9521 95.1279C18.8759 95.0462 18.8 94.9633 18.7256 94.8799C13.1516 88.626 11.4034 80.8153 11.4033 73.6035V41.5869C11.4034 34.4006 13.1408 26.5261 18.832 20.2793L18.8428 20.2676C24.8571 13.6804 32.927 11.4464 40.4873 11.4463ZM59.2832 176.38H59.2842L59.2842 114.81H59.2832V176.38ZM92.707 176.38H92.708V114.81H92.707L92.707 176.38ZM107.688 176.38H107.688V114.81H107.688V176.38ZM141.111 176.38H141.112L141.112 114.81L141.111 114.81V176.38ZM252.899 176.38H252.9L252.9 114.81L252.899 114.81V176.38ZM286.323 176.38H286.324V114.81H286.323L286.323 176.38ZM301.304 176.38H301.305V114.81H301.304L301.304 176.38ZM48.9121 175.039L49.1963 174.857C49.2152 174.845 49.2331 174.831 49.252 174.818C49.1401 174.893 49.0273 174.968 48.9121 175.039ZM49.2959 174.788C49.3841 174.728 49.4715 174.668 49.5576 174.605C49.4715 174.668 49.3841 174.728 49.2959 174.788ZM49.665 174.526C49.7396 174.471 49.8137 174.415 49.8867 174.358C49.8137 174.415 49.7396 174.471 49.665 174.526ZM49.96 174.302C50.0623 174.22 50.1635 174.138 50.2627 174.053C50.1635 174.138 50.0623 174.22 49.96 174.302ZM41.0459 168.194C40.949 168.198 40.8506 168.199 40.751 168.199L40.752 168.2C40.8513 168.2 40.9493 168.198 41.0459 168.194ZM268.475 167.464C268.312 167.496 268.144 167.522 267.97 167.541L268.227 167.508C268.311 167.495 268.393 167.48 268.475 167.464ZM220.983 167.194C220.842 167.252 220.696 167.304 220.544 167.349L220.769 167.276C220.842 167.251 220.913 167.223 220.983 167.194ZM172.724 167.131C172.608 167.183 172.488 167.233 172.364 167.276L172.58 167.195C172.629 167.175 172.676 167.152 172.724 167.131ZM44.3574 166.881C44.3159 166.922 44.2734 166.962 44.2305 167.002C44.2735 166.962 44.3168 166.922 44.3584 166.881C44.417 166.826 44.4734 166.768 44.5283 166.708L44.3574 166.881ZM76.3691 166.892C76.307 166.93 76.2436 166.967 76.1787 167.002C76.3088 166.931 76.4336 166.855 76.5527 166.771L76.3691 166.892ZM221.391 167.002L221.582 166.892C221.593 166.885 221.603 166.876 221.614 166.869C221.541 166.915 221.467 166.96 221.391 167.002ZM270.01 166.875C270.035 166.859 270.059 166.842 270.084 166.826C270.059 166.842 270.035 166.859 270.01 166.875ZM221.654 166.844C221.716 166.803 221.777 166.761 221.836 166.718C221.777 166.761 221.716 166.803 221.654 166.844ZM270.211 166.739C270.241 166.718 270.27 166.695 270.3 166.673C270.27 166.695 270.241 166.718 270.211 166.739ZM222.412 166.19C222.364 166.247 222.314 166.301 222.263 166.353C222.139 166.477 222.005 166.59 221.865 166.695C222.006 166.59 222.14 166.478 222.264 166.354C222.366 166.251 222.462 166.137 222.552 166.013V166.012C222.507 166.074 222.46 166.134 222.412 166.19ZM270.406 166.588C270.437 166.563 270.467 166.537 270.497 166.511C270.467 166.537 270.437 166.563 270.406 166.588ZM270.816 166.19C270.768 166.247 270.718 166.301 270.667 166.353C270.633 166.387 270.597 166.418 270.562 166.451C270.597 166.419 270.634 166.388 270.668 166.354C270.77 166.251 270.866 166.137 270.956 166.013V166.012C270.911 166.074 270.865 166.134 270.816 166.19ZM77.2002 166.19C77.1521 166.247 77.1021 166.301 77.0508 166.353L77.0518 166.354C77.1543 166.251 77.2501 166.137 77.3398 166.013V166.012C77.2949 166.074 77.2483 166.134 77.2002 166.19ZM87.7061 164.853C87.7147 164.794 87.7253 164.735 87.7334 164.676C87.7522 164.539 87.7697 164.401 87.7861 164.262H87.7852C87.7616 164.461 87.7344 164.658 87.7061 164.853ZM281.322 164.853C281.331 164.794 281.341 164.735 281.35 164.676C281.368 164.539 281.386 164.401 281.402 164.262H281.401C281.378 164.461 281.351 164.658 281.322 164.853ZM223.417 163.318C223.391 163.553 223.36 163.777 223.321 163.989L223.375 163.662C223.391 163.55 223.404 163.436 223.417 163.318ZM35.7803 163.352C35.7892 163.462 35.8 163.57 35.8115 163.677C35.8 163.57 35.7891 163.462 35.7803 163.352ZM332.614 140.493L333.846 162.746L332.615 140.493L332.615 114.81H332.614V140.493ZM45.7646 162.219L45.7656 162.219V153.423H45.7646L45.7646 162.219ZM78.2783 152.135C78.2813 152.268 78.2822 152.404 78.2822 152.543L78.2822 161.779C78.2822 161.918 78.2815 162.055 78.2783 162.188C78.2815 162.055 78.2832 161.918 78.2832 161.779V152.544C78.2832 152.405 78.2816 152.268 78.2783 152.135ZM223.489 152.134C223.492 152.267 223.494 152.404 223.494 152.543V161.779C223.494 161.918 223.493 162.055 223.49 162.188C223.493 162.055 223.495 161.918 223.495 161.779L223.495 152.544C223.495 152.404 223.493 152.268 223.489 152.134ZM271.895 152.135C271.898 152.268 271.898 152.404 271.898 152.543L271.898 161.779C271.898 161.918 271.898 162.055 271.895 162.188C271.898 162.055 271.899 161.918 271.899 161.779V152.544C271.899 152.405 271.898 152.268 271.895 152.135ZM222.912 148.945C222.983 149.103 223.047 149.272 223.104 149.451C223.133 149.541 223.161 149.633 223.187 149.729L223.188 149.729C223.11 149.443 223.018 149.182 222.912 148.945ZM222.412 148.132H222.413C222.365 148.075 222.315 148.021 222.264 147.97H222.263C222.314 148.021 222.364 148.075 222.412 148.132ZM132.449 141.491C132.41 141.451 132.369 141.412 132.329 141.373C132.369 141.412 132.41 141.451 132.449 141.491ZM132.111 141.167C132.095 141.152 132.08 141.136 132.063 141.121C132.028 141.089 131.991 141.058 131.955 141.026C132.008 141.073 132.06 141.12 132.111 141.167ZM131.84 140.926C131.749 140.849 131.658 140.772 131.564 140.698C131.658 140.772 131.749 140.849 131.84 140.926ZM44.3574 124.31C44.416 124.365 44.4734 124.422 44.5283 124.482L44.3584 124.31C44.3385 124.288 44.3171 124.269 44.2969 124.248C44.3169 124.269 44.3377 124.289 44.3574 124.31ZM44.1709 124.122C44.1413 124.094 44.1103 124.068 44.0801 124.041C44.1104 124.068 44.1413 124.094 44.1709 124.122ZM37.376 124.02C37.3452 124.045 37.3154 124.072 37.2852 124.099C37.3154 124.072 37.3452 124.045 37.376 124.02ZM43.9697 123.945C43.9382 123.919 43.9063 123.893 43.874 123.868C43.9062 123.893 43.9382 123.919 43.9697 123.945ZM37.9189 123.63C37.7992 123.703 37.6832 123.782 37.5703 123.866C37.5856 123.855 37.6008 123.843 37.6162 123.832C37.7145 123.76 37.8155 123.693 37.9189 123.63ZM43.7471 123.772C43.7181 123.752 43.6896 123.73 43.6602 123.71C43.6896 123.73 43.7182 123.751 43.7471 123.772ZM42.0557 123.033C42.0144 123.024 41.9726 123.017 41.9307 123.009C41.9726 123.017 42.0144 123.024 42.0557 123.033ZM41.79 122.983C41.6993 122.968 41.6072 122.956 41.5137 122.945C41.6072 122.956 41.6993 122.968 41.79 122.983ZM41.4121 122.934C41.2866 122.921 41.1588 122.911 41.0283 122.906C41.1588 122.911 41.2867 122.921 41.4121 122.934ZM326.372 118.68C326.299 118.599 326.224 118.52 326.148 118.441C326.135 118.428 326.122 118.415 326.108 118.401C326.198 118.493 326.286 118.585 326.372 118.68ZM326.05 118.343C325.982 118.275 325.913 118.208 325.844 118.142C325.913 118.208 325.982 118.275 326.05 118.343ZM325.749 118.053C325.726 118.031 325.703 118.009 325.68 117.988C325.644 117.956 325.607 117.925 325.571 117.894C325.631 117.946 325.691 117.999 325.749 118.053ZM325.456 117.793C325.366 117.716 325.274 117.64 325.181 117.565C325.274 117.64 325.366 117.716 325.456 117.793ZM76.3818 102.167C78.1303 103.196 79.6465 104.577 80.833 106.213C81.711 105.002 82.7692 103.931 83.9688 103.039L81.3613 103.039C79.6301 103.039 77.9497 102.734 76.3818 102.167ZM180.766 102.98C180.335 103.019 179.9 103.039 179.463 103.039L174.506 103.039C175.705 103.931 176.763 105.003 177.641 106.213C178.535 104.979 179.618 103.89 180.846 102.987C180.819 102.985 180.792 102.983 180.766 102.98ZM222.469 102.724C223.851 103.674 225.061 104.856 226.045 106.213C226.923 105.002 227.981 103.931 229.181 103.039H225.503C224.463 103.039 223.448 102.93 222.469 102.724ZM278.404 102.471C277.117 102.841 275.756 103.039 274.35 103.039H271.313C272.513 103.931 273.571 105.002 274.449 106.213C275.522 104.733 276.864 103.461 278.404 102.471ZM126.102 103.039C127.301 103.931 128.359 105.002 129.237 106.212C130.115 105.002 131.174 103.931 132.373 103.039L126.102 103.039ZM52.4336 101.607C52.5201 101.642 52.6071 101.677 52.6934 101.712C52.7718 101.672 52.8505 101.633 52.9297 101.595C52.8597 101.561 52.79 101.526 52.7207 101.491C52.6251 101.53 52.5295 101.57 52.4336 101.607ZM59.2832 88.3799H59.2842L59.2842 26.8096H59.2832V88.3799ZM48.9121 87.0391L49.1963 86.8574C49.2152 86.8449 49.2331 86.831 49.252 86.8184C49.1401 86.8934 49.0273 86.9677 48.9121 87.0391ZM49.2959 86.7881C49.3841 86.7283 49.4715 86.6677 49.5576 86.6055C49.4715 86.6676 49.3841 86.7283 49.2959 86.7881ZM49.665 86.5264C49.7396 86.4711 49.8137 86.4155 49.8867 86.3584C49.8137 86.4154 49.7396 86.4711 49.665 86.5264ZM49.96 86.3018C50.0623 86.2203 50.1635 86.1377 50.2627 86.0527C50.1635 86.1377 50.0623 86.2204 49.96 86.3018ZM41.0459 80.1943C40.949 80.1981 40.8506 80.1992 40.751 80.1992L40.752 80.2002C40.8513 80.2002 40.9493 80.1983 41.0459 80.1943ZM44.3574 78.8809C44.3025 78.9358 44.2469 78.9895 44.1895 79.041C44.247 78.9894 44.3034 78.9359 44.3584 78.8809C44.417 78.826 44.4734 78.7682 44.5283 78.708L44.3574 78.8809ZM35.7803 75.3516C35.7892 75.4621 35.8 75.5704 35.8115 75.6768C35.8 75.5704 35.7891 75.4621 35.7803 75.3516ZM45.7646 74.2188H45.7656V65.4229H45.7646V74.2188ZM190.697 63.6602L190.697 63.6641L200.637 26.8096H200.636L190.697 63.6602ZM147.446 53.458L147.447 53.4609L147.447 26.8096H147.446V53.458ZM44.3574 36.3096C44.416 36.3645 44.4734 36.4222 44.5283 36.4824L44.3584 36.3096C44.3385 36.2884 44.3171 36.2688 44.2969 36.248C44.3169 36.2686 44.3377 36.2885 44.3574 36.3096ZM44.1709 36.1221C44.1413 36.0941 44.1103 36.068 44.0801 36.041C44.1104 36.0679 44.1413 36.0942 44.1709 36.1221ZM37.376 36.0195C37.3452 36.0452 37.3154 36.0721 37.2852 36.0986C37.3154 36.0721 37.3452 36.0452 37.376 36.0195ZM43.9697 35.9453C43.9382 35.9191 43.9063 35.8934 43.874 35.8682C43.9062 35.8935 43.9382 35.919 43.9697 35.9453ZM37.9189 35.6299C37.7992 35.703 37.6832 35.782 37.5703 35.8662C37.5856 35.8548 37.6008 35.8432 37.6162 35.832C37.7145 35.7605 37.8155 35.6932 37.9189 35.6299ZM43.7471 35.7725C43.7181 35.7515 43.6896 35.7301 43.6602 35.71C43.6896 35.7302 43.7182 35.7515 43.7471 35.7725ZM42.0557 35.0332C42.0144 35.0243 41.9726 35.0168 41.9307 35.0088C41.9726 35.0167 42.0144 35.0244 42.0557 35.0332ZM41.79 34.9834C41.6993 34.9685 41.6072 34.9561 41.5137 34.9453C41.6072 34.9563 41.6993 34.9685 41.79 34.9834ZM41.4121 34.9336C41.2866 34.9212 41.1588 34.9113 41.0283 34.9062C41.1588 34.9113 41.2867 34.921 41.4121 34.9336ZM87.6055 165.484C87.6401 165.289 87.6713 165.091 87.7012 164.891C87.6716 165.091 87.6401 165.289 87.6055 165.484ZM281.222 165.484C281.256 165.289 281.288 165.091 281.317 164.891C281.288 165.091 281.256 165.289 281.222 165.484ZM35.7578 162.999L35.7588 163.023C35.7632 163.107 35.7694 163.189 35.7754 163.27C35.7689 163.181 35.7625 163.091 35.7578 162.999ZM35.7578 74.999L35.7588 75.0234C35.7632 75.1066 35.7694 75.1886 35.7754 75.2695C35.7689 75.1807 35.7625 75.0905 35.7578 74.999Z" fill="#1C1456"/>
<g filter="url(#filter0_ii_4001_23309)">
<path d="M29.4922 0.453125C33.5291 0.453165 37.7383 1.09416 41.6982 2.71973C43.6794 1.72092 45.918 1.1573 48.2881 1.15723L57.9639 1.15723C60.2684 1.15729 62.4486 1.69009 64.3887 2.6377C66.3515 1.68168 68.538 1.15723 70.8057 1.15723L80.3047 1.15723C82.0095 1.15727 83.6736 1.45561 85.2334 2.0127C86.7797 1.46033 88.4401 1.15723 90.1621 1.15723L104.323 1.15723L104.66 1.16113C106.265 1.19765 107.812 1.49748 109.26 2.01563C110.822 1.45633 112.49 1.15723 114.198 1.15723L123.697 1.15723C125.948 1.15728 128.118 1.674 130.069 2.61621C131.999 1.68181 134.164 1.15726 136.451 1.15723L146.215 1.15723C148.502 1.15732 150.667 1.68199 152.596 2.61621C154.547 1.67382 156.718 1.15723 158.969 1.15723L168.468 1.15723C168.905 1.15724 169.34 1.17837 169.771 1.2168C170.203 1.17857 170.64 1.15723 171.082 1.15723L179.701 1.15723C181.448 1.15727 183.124 1.46378 184.678 2.02441C186.237 1.46281 187.911 1.15725 189.641 1.15723L201.779 1.15723C202.219 1.15725 202.655 1.17785 203.085 1.21582C203.516 1.17777 203.952 1.15723 204.393 1.15723L234.298 1.15723C234.748 1.15724 235.193 1.17906 235.633 1.21875C236.072 1.17909 236.518 1.15723 236.968 1.15723L263.354 1.15723C271.45 1.15743 278.014 7.72044 278.015 15.8164L278.015 24.6123C278.015 28.9292 276.147 32.8095 273.178 35.4922C274.079 37.3935 274.584 39.5197 274.584 41.7637V50.5596C274.584 53.0465 273.963 55.3885 272.87 57.4404C276.018 60.1291 278.015 64.1267 278.015 68.5908V77.3867C278.015 82.5664 275.327 87.118 271.271 89.7256C272.56 89.3554 273.921 89.1573 275.328 89.1572H285.004C285.909 89.1573 286.796 89.2393 287.656 89.3965C288.516 89.2393 289.403 89.1572 290.309 89.1572H304.558C307.952 89.1573 311.554 89.5838 315.047 90.71C317.024 89.7168 319.256 89.1573 321.619 89.1572L331.295 89.1572C339.391 89.1575 345.954 95.7205 345.954 103.816V129.5C345.954 129.77 345.947 130.041 345.932 130.311L344.798 150.784C345.43 152.422 345.778 154.202 345.778 156.063V165.387C345.778 173.483 339.215 180.046 331.119 180.046H321.796C317.465 180.046 313.573 178.168 310.89 175.182C308.206 178.167 304.315 180.046 299.984 180.046H290.309C289.403 180.046 288.516 179.963 287.656 179.806C286.796 179.963 285.909 180.046 285.004 180.046L275.328 180.046C272.629 180.046 270.1 179.316 267.928 178.043C264.039 179.506 259.966 180.046 256.153 180.046H241.904C240.999 180.046 240.112 179.963 239.252 179.806C238.392 179.963 237.505 180.046 236.6 180.046L226.925 180.046C224.225 180.046 221.697 179.316 219.524 178.043C215.636 179.507 211.563 180.046 207.75 180.046H193.501C192.595 180.046 191.708 179.963 190.848 179.806C189.988 179.963 189.101 180.046 188.195 180.046H178.521C175.821 180.046 173.292 179.316 171.12 178.043C167.232 179.507 163.159 180.046 159.346 180.046H145.097C144.191 180.046 143.305 179.963 142.444 179.806C141.584 179.963 140.698 180.046 139.792 180.046L130.116 180.046C127.417 180.046 124.888 179.316 122.716 178.043C118.827 179.506 114.754 180.046 110.941 180.046H96.6924C95.7868 180.046 94.9002 179.963 94.04 179.806C93.1798 179.963 92.2933 180.046 91.3877 180.046L81.7119 180.046C79.0125 180.046 76.4836 179.316 74.3115 178.043C70.4233 179.506 66.3506 180.046 62.5381 180.046H48.2881C45.9289 180.046 43.7 179.488 41.7256 178.498C37.7445 180.121 33.5215 180.75 29.4922 180.75C22.0263 180.75 13.9941 178.603 7.95703 172.135C7.88069 172.053 7.80492 171.97 7.73047 171.887C2.1563 165.633 0.40828 157.822 0.408203 150.61L0.408203 118.594C0.408236 111.407 2.14561 103.533 7.83691 97.2861L7.84766 97.2744C10.7 94.1505 14.0153 92.006 17.5186 90.6143C14.0681 89.2576 10.7925 87.1727 7.95703 84.1348C7.88069 84.053 7.80492 83.9702 7.73047 83.8867C2.1563 77.6328 0.40828 69.8222 0.408203 62.6104L0.408203 30.5938C0.408236 23.4074 2.14561 15.5329 7.83691 9.28613L7.84766 9.27441C13.8621 2.68742 21.9319 0.453175 29.4922 0.453125ZM27.7646 166.029C27.9042 166.04 28.0448 166.049 28.1865 166.057C28.2177 166.058 28.249 166.059 28.2803 166.061C28.0544 166.049 27.8315 166.033 27.6113 166.016C27.6623 166.02 27.7133 166.026 27.7646 166.029ZM26.8828 165.944C27.0838 165.968 27.2872 165.988 27.4932 166.006C27.2872 165.988 27.0838 165.968 26.8828 165.944ZM26.1445 165.844C26.3449 165.875 26.5482 165.902 26.7539 165.928C26.5482 165.902 26.3449 165.875 26.1445 165.844ZM119.191 163.558H119.192C119.29 163.502 119.387 163.446 119.482 163.388H119.481C119.386 163.446 119.289 163.502 119.191 163.558ZM40.8828 161.344C40.7434 161.526 40.5992 161.703 40.4502 161.876L40.6709 161.613C40.7429 161.525 40.8132 161.435 40.8828 161.344ZM122.404 160.76C122.2 161.023 121.985 161.275 121.76 161.517H121.761C121.986 161.275 122.201 161.023 122.405 160.76H122.404ZM106.367 156.591H106.368L106.368 135.745H106.367V156.591ZM112.268 156.471C112.104 156.503 111.936 156.529 111.762 156.548L112.019 156.515C112.103 156.502 112.186 156.487 112.268 156.471ZM209.548 156.355C209.472 156.378 209.395 156.399 209.316 156.418L209.549 156.355C209.625 156.333 209.699 156.309 209.772 156.283L209.548 156.355ZM258.392 156.201C258.251 156.259 258.104 156.311 257.952 156.355L258.177 156.283C258.25 156.258 258.321 156.23 258.392 156.201ZM26.0615 155.888C26.089 155.913 26.1175 155.938 26.1455 155.963C26.1177 155.938 26.0898 155.913 26.0625 155.888C26.0371 155.862 26.013 155.835 25.9883 155.809C26.0129 155.835 26.0362 155.862 26.0615 155.888ZM34.4814 153.827C34.4342 154.008 34.3832 154.181 34.3242 154.346L34.418 154.062C34.4411 153.986 34.4606 153.907 34.4814 153.827ZM212.437 152.161C212.409 152.456 212.373 152.734 212.325 152.996C212.287 153.209 212.242 153.41 212.19 153.601H212.191C212.306 153.176 212.387 152.696 212.437 152.161ZM24.7627 117.174C24.749 117.431 24.7422 117.699 24.7422 117.978L24.7422 151.226C24.7422 151.496 24.7487 151.757 24.7617 152.008C24.7554 151.886 24.7513 151.762 24.748 151.636L24.7432 151.226L24.7432 117.978C24.7432 117.838 24.7446 117.701 24.748 117.567C24.7549 117.3 24.7685 117.043 24.7891 116.796L24.7627 117.174ZM76.9619 150.17H76.9629V142.166H76.9619L76.9619 150.17ZM270.578 150.17L270.579 150.17V142.166H270.578V150.17ZM312.808 140.425H312.809C312.906 140.369 313.003 140.313 313.099 140.255H313.098C313.002 140.313 312.906 140.369 312.808 140.425ZM67.2324 140.255C67.2282 140.208 67.2234 140.161 67.2187 140.114C67.2234 140.161 67.2282 140.208 67.2324 140.255ZM212.444 140.255C212.44 140.208 212.435 140.161 212.431 140.114C212.435 140.161 212.44 140.208 212.444 140.255ZM316.021 137.627C315.816 137.89 315.601 138.142 315.376 138.384H315.377C315.602 138.142 315.817 137.89 316.021 137.627H316.021ZM211.416 137.139C211.464 137.196 211.511 137.255 211.556 137.317H211.557C211.512 137.255 211.465 137.195 211.417 137.139H211.416ZM210.395 136.327C210.525 136.398 210.649 136.475 210.769 136.559L210.586 136.438C210.524 136.399 210.46 136.362 210.395 136.327ZM258.107 136.03C258.077 136.02 258.046 136.01 258.016 136.001C258.046 136.01 258.077 136.02 258.107 136.03ZM111.496 135.765C111.676 135.777 111.85 135.797 112.019 135.822L111.762 135.788C111.675 135.778 111.586 135.771 111.496 135.765ZM256.708 135.765C256.888 135.777 257.062 135.797 257.23 135.822L256.974 135.788C256.886 135.778 256.798 135.771 256.708 135.765ZM299.983 133.458H299.984L299.984 112.612H299.983V133.458ZM305.884 133.338C305.721 133.37 305.552 133.396 305.378 133.415L305.635 133.382C305.719 133.369 305.802 133.354 305.884 133.338ZM121.536 130.582C121.612 130.66 121.687 130.739 121.76 130.819H121.761C121.687 130.739 121.613 130.659 121.537 130.581L121.536 130.582ZM120.821 129.912C120.7 129.81 120.576 129.711 120.45 129.613C120.576 129.711 120.7 129.81 120.821 129.912ZM120.399 129.575C120.296 129.497 120.192 129.42 120.085 129.345C120.192 129.42 120.296 129.497 120.399 129.575ZM119.96 129.258C119.877 129.201 119.793 129.146 119.708 129.092C119.793 129.146 119.877 129.201 119.96 129.258ZM119.569 129.003C119.54 128.985 119.512 128.966 119.482 128.948C119.387 128.89 119.29 128.834 119.192 128.778H119.191C119.32 128.851 119.445 128.926 119.569 129.003ZM34.3447 114.921C34.3294 114.877 34.313 114.833 34.2969 114.79C34.313 114.833 34.3294 114.877 34.3447 114.921ZM25.21 114.723C25.198 114.755 25.1844 114.788 25.1729 114.821C25.1844 114.788 25.198 114.755 25.21 114.723ZM34.2578 114.688C34.2448 114.655 34.2313 114.623 34.2178 114.591C34.2313 114.623 34.2448 114.655 34.2578 114.688ZM25.335 114.41C25.3194 114.445 25.304 114.481 25.2891 114.517C25.304 114.481 25.3194 114.445 25.335 114.41ZM34.1621 114.463C34.1502 114.437 34.1373 114.411 34.125 114.386C34.1373 114.411 34.1502 114.437 34.1621 114.463ZM34.0723 114.279C34.0566 114.249 34.0406 114.219 34.0244 114.189C34.0406 114.219 34.0566 114.249 34.0723 114.279ZM25.4648 114.14C25.4515 114.165 25.4397 114.191 25.4268 114.217C25.4397 114.191 25.4515 114.165 25.4648 114.14ZM26.6201 112.838C26.4236 112.981 26.2374 113.141 26.0615 113.316C26.0066 113.371 25.9538 113.429 25.9023 113.489L26.0625 113.316C26.2382 113.141 26.4239 112.981 26.6201 112.838ZM33.3623 113.316L33.1934 113.146C33.1849 113.137 33.1755 113.13 33.167 113.122C33.2336 113.185 33.2991 113.249 33.3623 113.316ZM33.0771 113.042C33.0327 113.002 32.9883 112.963 32.9424 112.926C32.9883 112.963 33.0327 113.003 33.0771 113.042ZM32.8564 112.859C32.8067 112.821 32.7574 112.782 32.7061 112.746C32.7574 112.782 32.8067 112.821 32.8564 112.859ZM32.6201 112.689C32.5675 112.654 32.5152 112.619 32.4609 112.586C32.5152 112.619 32.5675 112.654 32.6201 112.689ZM315.152 107.449C315.228 107.527 315.303 107.606 315.376 107.687H315.377C315.304 107.606 315.229 107.526 315.153 107.448L315.152 107.449ZM40.2227 107.159C40.2998 107.242 40.3763 107.325 40.4512 107.41C40.3766 107.325 40.3007 107.242 40.2236 107.159C40.1484 107.075 40.0717 106.992 39.9941 106.91L40.2227 107.159ZM314.438 106.779C314.317 106.677 314.192 106.578 314.066 106.48C314.192 106.578 314.317 106.677 314.438 106.779ZM314.008 106.437C313.907 106.36 313.804 106.284 313.7 106.211C313.805 106.284 313.907 106.36 314.008 106.437ZM313.576 106.125C313.493 106.068 313.409 106.013 313.324 105.959C313.409 106.013 313.493 106.068 313.576 106.125ZM313.186 105.87C313.156 105.852 313.128 105.833 313.099 105.815C313.003 105.757 312.906 105.701 312.809 105.646H312.808C312.936 105.718 313.062 105.793 313.186 105.87ZM65.3867 91.1738C67.1353 92.2027 68.6514 93.5837 69.8379 95.2197C70.7158 94.0093 71.7741 92.9379 72.9736 92.0459L70.3662 92.0459C68.6349 92.0459 66.9546 91.7404 65.3867 91.1738ZM169.771 91.9873C169.34 92.0257 168.905 92.0459 168.468 92.0459L163.511 92.0459C164.71 92.9378 165.768 94.0094 166.646 95.2197C167.54 93.9859 168.622 92.8963 169.851 91.9941C169.824 91.9919 169.797 91.9897 169.771 91.9873ZM211.474 91.7305C212.856 92.6811 214.066 93.863 215.05 95.2197C215.928 94.0093 216.986 92.9379 218.186 92.0459H214.508C213.468 92.0459 212.452 91.9364 211.474 91.7305ZM267.409 91.4775C266.122 91.8474 264.761 92.0459 263.354 92.0459H260.318C261.518 92.9379 262.576 94.0092 263.454 95.2197C264.527 93.7403 265.869 92.4681 267.409 91.4775ZM115.106 92.0459C116.306 92.9378 117.364 94.0085 118.242 95.2188C119.12 94.0085 120.179 92.9377 121.378 92.0459L115.106 92.0459ZM41.4385 90.6143C41.525 90.6488 41.6119 90.6833 41.6982 90.7188C41.7766 90.6793 41.8554 90.6397 41.9346 90.6016C41.8646 90.5678 41.795 90.5328 41.7256 90.498C41.63 90.537 41.5343 90.5764 41.4385 90.6143ZM27.7646 78.0293C27.9042 78.0396 28.0448 78.0489 28.1865 78.0566C28.2177 78.0583 28.249 78.059 28.2803 78.0605C28.0544 78.0492 27.8315 78.0335 27.6113 78.0156C27.6623 78.0198 27.7133 78.0255 27.7646 78.0293ZM26.8828 77.9443C27.0838 77.968 27.2872 77.988 27.4932 78.0059C27.2872 77.988 27.0838 77.9679 26.8828 77.9443ZM26.1445 77.8438C26.3449 77.8754 26.5482 77.9022 26.7539 77.9277C26.5482 77.9022 26.3449 77.8754 26.1445 77.8438ZM40.8828 73.3438C40.7434 73.5256 40.5992 73.703 40.4502 73.876L40.6709 73.6133C40.7429 73.5247 40.8132 73.4346 40.8828 73.3438ZM26.0615 67.8877C26.089 67.9134 26.1175 67.9379 26.1455 67.9629C26.1177 67.9381 26.0898 67.9133 26.0625 67.8877C26.0216 67.8468 25.9824 67.8036 25.9434 67.7598C25.9823 67.8035 26.0207 67.8469 26.0615 67.8877ZM34.4814 65.8271C34.4342 66.0082 34.3832 66.1815 34.3242 66.3457L34.418 66.0625C34.4411 65.9859 34.4606 65.907 34.4814 65.8271ZM24.7627 29.1738C24.749 29.4312 24.7422 29.6991 24.7422 29.9775L24.7422 63.2256C24.7422 63.4962 24.7487 63.7571 24.7617 64.0078C24.7554 63.8862 24.7513 63.762 24.748 63.6357L24.7432 63.2256L24.7432 29.9775C24.7432 29.8382 24.7446 29.7015 24.748 29.5674C24.7549 29.2997 24.7685 29.0425 24.7891 28.7959L24.7627 29.1738ZM146.214 42.4678L146.215 42.4648L146.215 15.8164H146.214L146.214 42.4678ZM34.3447 26.9209C34.3294 26.8766 34.313 26.8332 34.2969 26.79C34.313 26.8332 34.3294 26.8766 34.3447 26.9209ZM25.21 26.7227C25.198 26.7554 25.1844 26.7878 25.1729 26.8213C25.1844 26.7878 25.198 26.7554 25.21 26.7227ZM34.2578 26.6875C34.2448 26.6549 34.2313 26.6227 34.2178 26.5908C34.2313 26.6227 34.2448 26.6549 34.2578 26.6875ZM25.335 26.4102C25.3194 26.4452 25.304 26.4806 25.2891 26.5166C25.304 26.4806 25.3194 26.4452 25.335 26.4102ZM34.1621 26.4629C34.1502 26.4368 34.1373 26.4113 34.125 26.3857C34.1373 26.4113 34.1502 26.4368 34.1621 26.4629ZM34.0723 26.2793C34.0566 26.2489 34.0406 26.2191 34.0244 26.1895C34.0406 26.2191 34.0566 26.2489 34.0723 26.2793ZM25.4648 26.1396C25.4529 26.1623 25.4424 26.1859 25.4307 26.209C25.4423 26.1859 25.4529 26.1623 25.4648 26.1396ZM26.6201 24.8379C26.4236 24.9809 26.2374 25.1405 26.0615 25.3164C26.0066 25.3713 25.9538 25.4291 25.9023 25.4893L26.0625 25.3164C26.2382 25.1407 26.4239 24.9809 26.6201 24.8379ZM33.3623 25.3164L33.1934 25.1455C33.1849 25.1374 33.1755 25.1301 33.167 25.1221C33.2336 25.1846 33.2991 25.249 33.3623 25.3164ZM33.0771 25.042C33.0327 25.0025 32.9883 24.9632 32.9424 24.9258C32.9883 24.9632 33.0327 25.0025 33.0771 25.042ZM32.8564 24.8594C32.8067 24.8209 32.7574 24.7822 32.7061 24.7461C32.7574 24.7822 32.8067 24.8209 32.8564 24.8594ZM32.6201 24.6895C32.5675 24.6544 32.5152 24.6187 32.4609 24.5859C32.5152 24.6187 32.5675 24.6543 32.6201 24.6895ZM40.2227 19.1592C40.2998 19.2419 40.3763 19.3252 40.4512 19.4102C40.3766 19.3253 40.3007 19.2417 40.2236 19.1592C40.1484 19.0748 40.0717 18.9919 39.9941 18.9102L40.2227 19.1592ZM212.439 152.14C212.452 152.003 212.463 151.863 212.472 151.72C212.463 151.863 212.452 152.003 212.439 152.14Z" fill="#F49425"/>
</g>
<path d="M43.9175 54.4289V62.6089C43.9175 67.5932 42.6861 71.434 40.2232 74.1313C37.8191 76.77 34.2421 78.0894 29.4924 78.0894C24.7427 78.0894 21.1365 76.77 18.6737 74.1313C16.2695 71.434 15.0674 67.5932 15.0674 62.6089L15.0674 30.5924C15.0674 25.6082 16.2695 21.7967 18.6737 19.1579C21.1365 16.4606 24.7427 15.1119 29.4924 15.1119C34.2421 15.1119 37.8191 16.4606 40.2232 19.1579C42.6861 21.7967 43.9175 25.6082 43.9175 30.5924V36.5735H34.7699V29.9767C34.7699 27.7485 34.3008 26.1945 33.3626 25.315C32.483 24.3768 31.2809 23.9077 29.7563 23.9077C28.2317 23.9077 27.0003 24.3768 26.0621 25.315C25.1825 26.1945 24.7427 27.7485 24.7427 29.9767L24.7427 63.2246C24.7427 65.4529 25.1825 67.0068 26.0621 67.8863C27.0003 68.7659 28.2317 69.2057 29.7563 69.2057C31.2809 69.2057 32.483 68.7659 33.3626 67.8863C34.3008 67.0068 34.7699 65.4529 34.7699 63.2246V54.4289H43.9175ZM60.9544 52.8456L57.9638 58.4749V77.3857H48.2885L48.2885 15.8156H57.9638V42.6426L70.8056 15.8156L80.305 15.8156L66.8475 43.2583L80.305 77.3857H70.3658L60.9544 52.8456ZM114.174 77.3857H104.411L102.74 66.2152H90.8654L89.1942 77.3857H80.3105L90.1617 15.8156H104.323L114.174 77.3857ZM92.0968 57.8592H101.42L96.7585 26.7223L92.0968 57.8592ZM124.137 77.3857H114.198L127.656 43.2583L114.198 15.8156H123.698L136.451 42.4667V15.8156H146.215V42.4667L158.968 15.8156L168.468 15.8156L155.01 43.2583L168.468 77.3857H158.529L149.117 52.8456L146.215 58.299V77.3857H136.451V58.299L133.549 52.8456L124.137 77.3857ZM181.021 77.3857H171.082V15.8156H179.702V52.6697L189.641 15.8156L201.779 15.8156V77.3857H193.071V32.7913L181.021 77.3857ZM204.392 15.8156L234.298 15.8156V24.6113H224.183V77.3857H214.507V24.6113H204.392V15.8156ZM246.643 41.763L259.924 41.763V50.5587H246.643V68.59H263.355V77.3857H236.967V15.8156L263.355 15.8156V24.6113H246.643V41.763ZM43.9175 142.429V150.609C43.9175 155.593 42.6861 159.434 40.2232 162.131C37.8191 164.77 34.2421 166.089 29.4924 166.089C24.7427 166.089 21.1365 164.77 18.6737 162.131C16.2695 159.434 15.0674 155.593 15.0674 150.609L15.0674 118.592C15.0674 113.608 16.2695 109.797 18.6737 107.158C21.1365 104.461 24.7427 103.112 29.4924 103.112C34.2421 103.112 37.8191 104.461 40.2232 107.158C42.6861 109.797 43.9175 113.608 43.9175 118.592V124.574H34.7699L34.7699 117.977C34.7699 115.748 34.3008 114.195 33.3626 113.315C32.483 112.377 31.2809 111.908 29.7563 111.908C28.2317 111.908 27.0003 112.377 26.0621 113.315C25.1825 114.195 24.7427 115.748 24.7427 117.977L24.7427 151.225C24.7427 153.453 25.1825 155.007 26.0621 155.886C27.0003 156.766 28.2317 157.206 29.7563 157.206C31.2809 157.206 32.483 156.766 33.3626 155.886C34.3008 155.007 34.7699 153.453 34.7699 151.225V142.429H43.9175ZM62.5376 156.59C64.0622 156.59 65.235 156.18 66.0559 155.359C66.8769 154.538 67.2873 153.013 67.2873 150.785V141.549C67.2873 139.321 66.8769 137.796 66.0559 136.976C65.235 136.155 64.0622 135.744 62.5376 135.744H57.9638L57.9638 156.59H62.5376ZM48.2885 165.386L48.2885 103.816H57.9638V126.948H62.5376C67.4046 126.948 71.0109 128.238 73.3564 130.818C75.7605 133.399 76.9626 137.181 76.9626 142.165V150.169C76.9626 155.153 75.7605 158.936 73.3564 161.516C71.0109 164.096 67.4046 165.386 62.5376 165.386H48.2885ZM81.7123 103.816H91.3876V165.386H81.7123V103.816ZM110.942 156.59C112.466 156.59 113.639 156.18 114.46 155.359C115.281 154.538 115.691 153.013 115.691 150.785V141.549C115.691 139.321 115.281 137.796 114.46 136.976C113.639 136.155 112.466 135.744 110.942 135.744H106.368V156.59H110.942ZM96.6926 165.386V103.816L106.368 103.816V126.948H110.942C115.809 126.948 119.415 128.238 121.76 130.818C124.165 133.399 125.367 137.181 125.367 142.165V150.169C125.367 155.153 124.165 158.936 121.76 161.516C119.415 164.096 115.809 165.386 110.942 165.386H96.6926ZM130.116 103.816H139.792V165.386H130.116V103.816ZM159.346 156.59C160.87 156.59 162.043 156.18 162.864 155.359C163.685 154.538 164.095 153.013 164.095 150.785V141.549C164.095 139.321 163.685 137.796 162.864 136.976C162.043 136.155 160.87 135.744 159.346 135.744H154.772V156.59H159.346ZM145.097 165.386V103.816H154.772V126.948H159.346C164.213 126.948 167.819 128.238 170.164 130.818C172.569 133.399 173.771 137.181 173.771 142.165V150.169C173.771 155.153 172.569 158.936 170.164 161.516C167.819 164.096 164.213 165.386 159.346 165.386H145.097ZM178.52 103.816H188.196V165.386L178.52 165.386V103.816ZM207.75 156.59C209.274 156.59 210.447 156.18 211.268 155.359C212.089 154.538 212.499 153.013 212.499 150.785V141.549C212.499 139.321 212.089 137.796 211.268 136.976C210.447 136.155 209.274 135.744 207.75 135.744H203.176V156.59H207.75ZM193.501 165.386V103.816H203.176V126.948H207.75C212.617 126.948 216.223 128.238 218.569 130.818C220.973 133.399 222.175 137.181 222.175 142.165V150.169C222.175 155.153 220.973 158.936 218.569 161.516C216.223 164.096 212.617 165.386 207.75 165.386H193.501ZM226.924 103.816H236.6V165.386H226.924V103.816ZM256.154 156.59C257.678 156.59 258.851 156.18 259.672 155.359C260.493 154.538 260.904 153.013 260.904 150.785V141.549C260.904 139.321 260.493 137.796 259.672 136.976C258.851 136.155 257.678 135.744 256.154 135.744H251.58V156.59H256.154ZM241.905 165.386V103.816H251.58V126.948H256.154C261.021 126.948 264.627 128.238 266.973 130.818C269.377 133.399 270.579 137.181 270.579 142.165V150.169C270.579 155.153 269.377 158.936 266.973 161.516C264.627 164.096 261.021 165.386 256.154 165.386H241.905ZM275.329 103.816H285.004V165.386H275.329V103.816ZM304.558 103.816C309.425 103.816 313.031 105.106 315.377 107.686C317.781 110.266 318.983 114.048 318.983 119.032V127.036C318.983 132.021 317.781 135.803 315.377 138.383C313.031 140.963 309.425 142.253 304.558 142.253H299.984V165.386H290.309V103.816H304.558ZM299.984 112.611V133.457H304.558C306.082 133.457 307.255 133.047 308.076 132.226C308.897 131.405 309.308 129.88 309.308 127.652V118.416C309.308 116.188 308.897 114.664 308.076 113.843C307.255 113.022 306.082 112.611 304.558 112.611H299.984ZM322.851 151.752L321.62 129.499V103.816H331.295V129.499L330.063 151.752H322.851ZM331.119 156.062V165.386H321.795V156.062H331.119Z" fill="white"/>
<defs>
<filter id="filter0_ii_4001_23309" x="-6.92158" y="-6.87666" width="360.205" height="194.956" filterUnits="userSpaceOnUse" color-interpolation-filters="sRGB">
<feFlood flood-opacity="0" result="BackgroundImageFix"/>
<feBlend mode="normal" in="SourceGraphic" in2="BackgroundImageFix" result="shape"/>
<feColorMatrix in="SourceAlpha" type="matrix" values="0 0 0 0 0 0 0 0 0 0 0 0 0 0 0 0 0 0 127 0" result="hardAlpha"/>
<feOffset dx="7.32978" dy="7.32978"/>
<feGaussianBlur stdDeviation="3.66489"/>
<feComposite in2="hardAlpha" operator="arithmetic" k2="-1" k3="1"/>
<feColorMatrix type="matrix" values="0 0 0 0 0.975983 0 0 0 0 0.766376 0 0 0 0 0.524017 0 0 0 1 0"/>
<feBlend mode="normal" in2="shape" result="effect1_innerShadow_4001_23309"/>
<feColorMatrix in="SourceAlpha" type="matrix" values="0 0 0 0 0 0 0 0 0 0 0 0 0 0 0 0 0 0 127 0" result="hardAlpha"/>
<feOffset dx="-7.32978" dy="-7.32978"/>
<feGaussianBlur stdDeviation="3.66489"/>
<feComposite in2="hardAlpha" operator="arithmetic" k2="-1" k3="1"/>
<feColorMatrix type="matrix" values="0 0 0 0 0.856769 0 0 0 0 0.479476 0 0 0 0 0.0432314 0 0 0 1 0"/>
<feBlend mode="normal" in2="effect1_innerShadow_4001_23309" result="effect2_innerShadow_4001_23309"/>
</filter>
</defs>
</svg>
