<svg width="385" height="385" viewBox="0 0 385 385" fill="none" xmlns="http://www.w3.org/2000/svg">
<path d="M146.753 19.6426C171.746 -5.351 212.269 -5.351 237.263 19.6426L250.676 33.0557H282.522C317.869 33.0557 346.522 61.7095 346.522 97.0557V128.902L365.271 147.65C390.264 172.644 390.264 213.167 365.271 238.16L346.522 256.908V278.087C346.522 313.433 317.869 342.087 282.522 342.087H261.344L237.263 366.168C212.269 391.162 171.746 391.162 146.753 366.168L122.672 342.087H101.492C66.1461 342.087 37.4924 313.433 37.4922 278.087V256.907L18.7451 238.16C-6.24825 213.167 -6.24836 172.644 18.7451 147.65L37.4922 128.903V97.0557C37.4922 61.7094 66.146 33.0557 101.492 33.0557H133.34L146.753 19.6426Z" fill="#1C1456"/>
</svg>
