<svg width="96" height="96" viewBox="0 0 96 96" fill="none" xmlns="http://www.w3.org/2000/svg">
    <g clip-path="url(#clip0_4012_23340)">
        <g filter="url(#filter0_d_4012_23340)">
            <mask id="path-1-outside-1_4012_23340" maskUnits="userSpaceOnUse" x="10.5684" y="8.66748" width="76"
                height="78" fill="black">
                <rect fill="white" x="10.5684" y="8.66748" width="76" height="78" />
                <path
                    d="M65.0225 17.5024C67.465 14.0309 70.4377 15.8976 68.7686 19.6792C67.9551 21.5069 68.3547 24.2176 70.1377 25.5796C70.159 25.5919 70.1654 25.6079 70.166 25.6099C72.763 27.5777 76.2396 29.8278 77.9922 32.5776C79.9896 35.741 79.303 39.4705 76.4443 40.8882C75.9917 41.1126 75.5112 41.2664 75.0156 41.354C78.7023 48.91 78.9286 57.4786 74.8232 64.5894C67.7288 76.8773 52.3109 84.9945 34.4912 74.7065C15.4925 63.7376 16.0094 47.0025 23.0859 34.7192L23.4492 34.1626C27.623 27.4017 34.9775 23.5155 43.1357 22.9448C42.994 22.5603 42.8946 22.1628 42.8447 21.7563L42.8125 21.4409C42.6107 18.2562 45.497 15.7964 49.2402 15.9624C52.386 16.116 55.7667 17.932 58.7002 19.0815C58.7216 19.0937 58.7387 19.0897 58.7402 19.0894C61.1356 20.0189 63.7201 19.3651 65.0225 17.5024ZM64.8936 29.4272C65.0011 29.5056 65.1075 29.5852 65.2139 29.6646C65.1207 29.2057 65.0302 28.747 64.9434 28.2935C64.9292 28.6651 64.9109 29.0438 64.8936 29.4272ZM58.1348 25.5776C58.2571 25.6303 58.3798 25.6826 58.502 25.7368C58.8307 25.5277 59.1546 25.3203 59.4746 25.1206C59.0328 25.2741 58.5846 25.4271 58.1348 25.5776Z" />
            </mask>
            <path
                d="M65.0225 17.5024C67.465 14.0309 70.4377 15.8976 68.7686 19.6792C67.9551 21.5069 68.3547 24.2176 70.1377 25.5796C70.159 25.5919 70.1654 25.6079 70.166 25.6099C72.763 27.5777 76.2396 29.8278 77.9922 32.5776C79.9896 35.741 79.303 39.4705 76.4443 40.8882C75.9917 41.1126 75.5112 41.2664 75.0156 41.354C78.7023 48.91 78.9286 57.4786 74.8232 64.5894C67.7288 76.8773 52.3109 84.9945 34.4912 74.7065C15.4925 63.7376 16.0094 47.0025 23.0859 34.7192L23.4492 34.1626C27.623 27.4017 34.9775 23.5155 43.1357 22.9448C42.994 22.5603 42.8946 22.1628 42.8447 21.7563L42.8125 21.4409C42.6107 18.2562 45.497 15.7964 49.2402 15.9624C52.386 16.116 55.7667 17.932 58.7002 19.0815C58.7216 19.0937 58.7387 19.0897 58.7402 19.0894C61.1356 20.0189 63.7201 19.3651 65.0225 17.5024ZM64.8936 29.4272C65.0011 29.5056 65.1075 29.5852 65.2139 29.6646C65.1207 29.2057 65.0302 28.747 64.9434 28.2935C64.9292 28.6651 64.9109 29.0438 64.8936 29.4272ZM58.1348 25.5776C58.2571 25.6303 58.3798 25.6826 58.502 25.7368C58.8307 25.5277 59.1546 25.3203 59.4746 25.1206C59.0328 25.2741 58.5846 25.4271 58.1348 25.5776Z"
                fill="white" />
            <path
                d="M65.0225 17.5024L59.2976 13.4744C59.2936 13.48 59.2896 13.4857 59.2857 13.4913L65.0225 17.5024ZM68.7686 19.6792L75.1638 22.5254C75.1667 22.5188 75.1696 22.5123 75.1725 22.5058L68.7686 19.6792ZM70.1377 25.5796L65.8884 31.1423C66.1272 31.3247 66.3775 31.4916 66.6378 31.6418L70.1377 25.5796ZM70.166 25.6099L63.4658 27.6364C63.894 29.0521 64.7596 30.2958 65.9384 31.189L70.166 25.6099ZM77.9922 32.5776L83.911 28.8403C83.9058 28.832 83.9005 28.8237 83.8952 28.8154L77.9922 32.5776ZM76.4443 40.8882L79.5541 47.1595L79.5544 47.1593L76.4443 40.8882ZM75.0156 41.354L73.7969 34.4609C71.6331 34.8435 69.7746 36.2198 68.7776 38.178C67.7807 40.1361 67.761 42.4487 68.7245 44.4235L75.0156 41.354ZM74.8232 64.5894L80.8854 68.0894L80.8855 68.0893L74.8232 64.5894ZM34.4912 74.7065L30.9912 80.7687L30.9913 80.7688L34.4912 74.7065ZM23.0859 34.7192L17.2239 30.8935C17.153 31.002 17.0852 31.1125 17.0205 31.2249L23.0859 34.7192ZM23.4492 34.1626L29.3113 37.9884C29.3433 37.9392 29.3748 37.8897 29.4056 37.8397L23.4492 34.1626ZM43.1357 22.9448L43.6242 29.9278C45.8216 29.7741 47.8184 28.595 49.0143 26.7451C50.2102 24.8953 50.4656 22.5904 49.7037 20.5237L43.1357 22.9448ZM42.8447 21.7563L35.881 22.4678C35.8858 22.515 35.8911 22.5621 35.8969 22.6092L42.8447 21.7563ZM42.8125 21.4409L35.8265 21.8835C35.8322 21.9733 35.8396 22.0629 35.8487 22.1524L42.8125 21.4409ZM49.2402 15.9624L49.5817 8.97074C49.5713 8.97023 49.5609 8.96974 49.5504 8.96928L49.2402 15.9624ZM58.7002 19.0815L62.1594 12.996C61.8683 12.8305 61.5658 12.6862 61.2542 12.5641L58.7002 19.0815ZM58.7402 19.0894L61.2727 12.5635C59.9379 12.0455 58.4764 11.9493 57.0853 12.2878L58.7402 19.0894ZM64.8936 29.4272L57.9007 29.1102C57.7943 31.4586 58.8737 33.7037 60.7745 35.087L64.8936 29.4272ZM65.2139 29.6646L61.0297 35.2764C63.3565 37.0112 66.5124 37.1303 68.9633 35.5757C71.4141 34.0212 72.6515 31.1155 72.0738 28.2713L65.2139 29.6646ZM64.9434 28.2935L71.8186 26.9775C71.1495 23.4821 67.9642 21.045 64.4154 21.3134C60.8665 21.5818 58.084 24.4704 57.9484 28.0268L64.9434 28.2935ZM58.1348 25.5776L55.9125 18.9397C53.1597 19.8613 51.2614 22.3865 51.1408 25.287C51.0203 28.1875 52.7025 30.8614 55.3694 32.0082L58.1348 25.5776ZM58.502 25.7368L55.662 32.1348C57.8046 33.0859 60.2809 32.9013 62.2589 31.6432L58.502 25.7368ZM59.4746 25.1206L63.1813 31.0587C66.2045 29.1715 67.3272 25.3143 65.7891 22.0994C64.2509 18.8846 60.543 17.3386 57.1766 18.5085L59.4746 25.1206ZM65.0225 17.5024L70.7474 21.5305C70.8495 21.3853 70.5546 21.8863 69.6179 22.2856C68.6047 22.7175 66.7221 23.0084 64.828 21.8686C62.9879 20.7612 62.4034 19.0647 62.2857 18.1296C62.1704 17.2137 62.4113 16.7468 62.3646 16.8526L68.7686 19.6792L75.1725 22.5058C76.4304 19.6559 77.6327 13.2349 72.0468 9.87323C69.3129 8.22792 66.3334 8.46677 64.1281 9.40685C61.9992 10.3143 60.4167 11.8838 59.2976 13.4744L65.0225 17.5024ZM68.7686 19.6792L62.3733 16.833C61.3095 19.2233 61.1402 21.8636 61.6226 24.2124C62.1116 26.5932 63.3964 29.2387 65.8884 31.1423L70.1377 25.5796L74.387 20.0169C75.096 20.5585 75.2895 21.1676 75.3363 21.3957C75.3766 21.5917 75.4142 21.9628 75.1638 22.5254L68.7686 19.6792ZM70.1377 25.5796L66.6378 31.6418C65.7521 31.1305 65.0676 30.4746 64.5633 29.8035C64.3161 29.4746 64.1138 29.1444 63.9488 28.8258C63.8163 28.57 63.625 28.1629 63.4658 27.6364L70.166 25.6099L76.8662 23.5833C76.4288 22.137 75.419 20.5458 73.6376 19.5174L70.1377 25.5796ZM70.166 25.6099L65.9384 31.189C67.5848 32.4366 68.6571 33.1532 69.9717 34.2252C71.1905 35.2192 71.8141 35.9083 72.0892 36.3399L77.9922 32.5776L83.8952 28.8154C82.4177 26.4972 80.4267 24.6862 78.8198 23.3758C77.3087 22.1434 75.3442 20.751 74.3937 20.0307L70.166 25.6099ZM77.9922 32.5776L72.0734 36.3149C72.227 36.5582 72.0831 36.5077 72.1568 36.1102C72.1947 35.9065 72.2931 35.6201 72.5117 35.3196C72.7377 35.0088 73.0325 34.7667 73.3342 34.617L76.4443 40.8882L79.5544 47.1593C87.2086 43.3633 87.4277 34.4097 83.911 28.8403L77.9922 32.5776ZM76.4443 40.8882L73.3346 34.6169C73.5117 34.529 73.6721 34.483 73.7969 34.4609L75.0156 41.354L76.2343 48.2471C77.3503 48.0498 78.4718 47.6962 79.5541 47.1595L76.4443 40.8882ZM75.0156 41.354L68.7245 44.4235C71.5626 50.2403 71.5194 56.3117 68.761 61.0894L74.8232 64.5894L80.8855 68.0893C86.3377 58.6454 85.842 47.5798 81.3067 38.2845L75.0156 41.354ZM74.8232 64.5894L68.7611 61.0894C65.942 65.9721 61.5935 69.7958 56.5031 71.4607C51.5885 73.0682 45.3342 72.8837 37.9911 68.6443L34.4912 74.7065L30.9913 80.7688C41.468 86.8173 51.8325 87.7182 60.8553 84.7671C69.7024 81.8734 76.6101 75.4945 80.8854 68.0894L74.8232 64.5894ZM34.4912 74.7065L37.9912 68.6444C29.9588 64.0069 26.8033 58.6709 25.8848 53.8861C24.9208 48.864 26.2112 43.317 29.1514 38.2136L23.0859 34.7192L17.0205 31.2249C12.8841 38.4046 10.3778 47.3668 12.1358 56.5254C13.9395 65.9212 20.0248 74.4373 30.9912 80.7687L34.4912 74.7065ZM23.0859 34.7192L28.948 38.545L29.3113 37.9884L23.4492 34.1626L17.5872 30.3368L17.2239 30.8935L23.0859 34.7192ZM23.4492 34.1626L29.4056 37.8397C32.2122 33.2935 37.3427 30.3672 43.6242 29.9278L43.1357 22.9448L42.6473 15.9619C32.6123 16.6639 23.0338 21.51 17.4928 30.4854L23.4492 34.1626ZM43.1357 22.9448L49.7037 20.5237C49.7364 20.6124 49.7726 20.7404 49.7926 20.9035L42.8447 21.7563L35.8969 22.6092C36.0167 23.5852 36.2516 24.5082 36.5678 25.366L43.1357 22.9448ZM42.8447 21.7563L49.8085 21.0449L49.7763 20.7295L42.8125 21.4409L35.8487 22.1524L35.881 22.4678L42.8447 21.7563ZM42.8125 21.4409L49.7985 20.9984C49.8198 21.3341 49.7577 21.711 49.6009 22.0635C49.4491 22.4046 49.2487 22.6354 49.0877 22.7727C48.7724 23.0414 48.6473 22.943 48.93 22.9555L49.2402 15.9624L49.5504 8.96928C42.9385 8.676 35.2861 13.3534 35.8265 21.8835L42.8125 21.4409ZM49.2402 15.9624L48.8988 22.9541C49.3497 22.9761 50.1519 23.1496 51.5386 23.6825C52.1992 23.9365 52.8805 24.2261 53.6652 24.563C54.406 24.8811 55.2848 25.2614 56.1462 25.599L58.7002 19.0815L61.2542 12.5641C60.6488 12.3269 60.005 12.0492 59.1886 11.6986C58.4161 11.3669 57.5055 10.9774 56.5611 10.6145C54.7375 9.91363 52.2765 9.10235 49.5817 8.97074L49.2402 15.9624ZM58.7002 19.0815L55.241 25.1671C57.3884 26.3877 59.4317 26.1254 60.3952 25.8909L58.7402 19.0894L57.0853 12.2878C58.0458 12.0541 60.0549 11.7997 62.1594 12.996L58.7002 19.0815ZM58.7402 19.0894L56.2078 25.6152C61.0664 27.5007 67.2946 26.4688 70.7593 21.5136L65.0225 17.5024L59.2857 13.4913C59.6868 12.9176 60.2106 12.6487 60.5762 12.5563C60.9313 12.4666 61.1696 12.5235 61.2727 12.5635L58.7402 19.0894ZM64.8936 29.4272L60.7745 35.087C60.8404 35.135 60.9036 35.1823 61.0297 35.2764L65.2139 29.6646L69.398 24.0527C69.3114 23.9881 69.1619 23.8761 69.0126 23.7675L64.8936 29.4272ZM65.2139 29.6646L72.0738 28.2713C71.9857 27.8377 71.9003 27.4048 71.8186 26.9775L64.9434 28.2935L58.0682 29.6094C58.16 30.0891 58.2556 30.5736 58.3539 31.0578L65.2139 29.6646ZM64.9434 28.2935L57.9484 28.0268C57.9355 28.365 57.9194 28.6994 57.9007 29.1102L64.8936 29.4272L71.8864 29.7443C71.9025 29.3882 71.9228 28.9652 71.9383 28.5602L64.9434 28.2935ZM58.1348 25.5776L55.3694 32.0082C55.5178 32.072 55.5879 32.1019 55.662 32.1348L58.502 25.7368L61.3419 19.3388C61.1718 19.2633 60.9965 19.1885 60.9002 19.147L58.1348 25.5776ZM58.502 25.7368L62.2589 31.6432C62.6114 31.419 62.8945 31.2377 63.1813 31.0587L59.4746 25.1206L55.7679 19.1825C55.4148 19.403 55.0499 19.6365 54.745 19.8304L58.502 25.7368ZM59.4746 25.1206L57.1766 18.5085C56.7604 18.6532 56.3373 18.7975 55.9125 18.9397L58.1348 25.5776L60.357 32.2155C60.8318 32.0566 61.3053 31.8951 61.7726 31.7327L59.4746 25.1206Z"
                fill="white" mask="url(#path-1-outside-1_4012_23340)" />
        </g>
        <g filter="url(#filter1_ii_4012_23340)">
            <path
                d="M23.1093 34.7322C30.2037 22.4442 47.5352 19.18 61.7957 27.4133C76.0788 35.6597 81.9177 52.3012 74.8232 64.5892C67.7287 76.8773 52.3109 84.9946 34.491 74.7063C15.4922 63.7373 16.01 47.0023 23.0866 34.7191"
                fill="#F4436C" />
        </g>
        <path
            d="M29.4892 62.4764C30.4054 60.8894 35.2098 61.9401 40.2023 64.8377C45.2127 67.7305 48.5201 71.3479 47.6038 72.9349C46.6875 74.5219 41.8832 73.4712 36.8907 70.5736C31.8802 67.6808 28.5729 64.0634 29.4892 62.4764Z"
            fill="#00205C" />
        <path
            d="M42.8176 21.4586C43.0193 24.6433 46.2219 27.3689 49.9651 27.5349C51.8253 27.6114 55.8637 26.376 59.4753 25.1208C55.3871 27.6727 50.3974 31.0795 49.2717 33.0292C47.3083 36.43 48.8352 40.9844 52.6715 43.2144C56.5257 45.4396 61.2334 44.4848 63.1968 41.084C64.3225 39.1343 64.7601 33.1144 64.9439 28.2933C65.6627 32.0485 66.612 36.1636 67.6084 37.7364C69.6285 40.913 73.5855 42.3058 76.4444 40.8881C79.3033 39.4705 79.9904 35.741 77.9929 32.5775C76.2403 29.8275 72.7629 27.578 70.1659 25.61C70.1659 25.61 70.1611 25.5922 70.1384 25.5791C68.3553 24.2171 67.955 21.5072 68.7684 19.6794C70.4381 15.8975 67.4655 14.0301 65.0228 17.5018C63.7205 19.3647 61.1362 20.0189 58.7407 19.0893C58.7407 19.0893 58.7228 19.0941 58.7001 19.081C55.7666 17.9314 52.3863 16.1158 49.2405 15.9622C45.4973 15.7962 42.611 18.256 42.8128 21.4407"
            fill="#6AA338" />
    </g>
    <defs>
        <filter id="filter0_d_4012_23340" x="-20.4336" y="-15.3315" width="138.535" height="141.728"
            filterUnits="userSpaceOnUse" color-interpolation-filters="sRGB">
            <feFlood flood-opacity="0" result="BackgroundImageFix" />
            <feColorMatrix in="SourceAlpha" type="matrix" values="0 0 0 0 0 0 0 0 0 0 0 0 0 0 0 0 0 0 127 0"
                result="hardAlpha" />
            <feOffset dy="8" />
            <feGaussianBlur stdDeviation="16" />
            <feComposite in2="hardAlpha" operator="out" />
            <feColorMatrix type="matrix" values="0 0 0 0 0 0 0 0 0 0.12549 0 0 0 0 0.360784 0 0 0 0.12 0" />
            <feBlend mode="normal" in2="BackgroundImageFix" result="effect1_dropShadow_4012_23340" />
            <feBlend mode="normal" in="SourceGraphic" in2="effect1_dropShadow_4012_23340" result="shape" />
        </filter>
        <filter id="filter1_ii_4012_23340" x="14.5684" y="18.8706" width="63.2734" height="64.5249"
            filterUnits="userSpaceOnUse" color-interpolation-filters="sRGB">
            <feFlood flood-opacity="0" result="BackgroundImageFix" />
            <feBlend mode="normal" in="SourceGraphic" in2="BackgroundImageFix" result="shape" />
            <feColorMatrix in="SourceAlpha" type="matrix" values="0 0 0 0 0 0 0 0 0 0 0 0 0 0 0 0 0 0 127 0"
                result="hardAlpha" />
            <feOffset dy="4" />
            <feGaussianBlur stdDeviation="2" />
            <feComposite in2="hardAlpha" operator="arithmetic" k2="-1" k3="1" />
            <feColorMatrix type="matrix" values="0 0 0 0 0.96794 0 0 0 0 0.45206 0 0 0 0 0.571558 0 0 0 1 0" />
            <feBlend mode="normal" in2="shape" result="effect1_innerShadow_4012_23340" />
            <feColorMatrix in="SourceAlpha" type="matrix" values="0 0 0 0 0 0 0 0 0 0 0 0 0 0 0 0 0 0 127 0"
                result="hardAlpha" />
            <feOffset dx="-4" dy="-4" />
            <feGaussianBlur stdDeviation="4" />
            <feComposite in2="hardAlpha" operator="arithmetic" k2="-1" k3="1" />
            <feColorMatrix type="matrix" values="0 0 0 0 0.869146 0 0 0 0 0.0508543 0 0 0 0 0.240402 0 0 0 1 0" />
            <feBlend mode="normal" in2="effect1_innerShadow_4012_23340" result="effect2_innerShadow_4012_23340" />
        </filter>
        <clipPath id="clip0_4012_23340">
            <rect width="96" height="96" fill="white" />
        </clipPath>
    </defs>
</svg>