<svg width="64" height="64" viewBox="0 0 64 64" fill="none" xmlns="http://www.w3.org/2000/svg">
<mask id="path-1-outside-1_2380_26483" maskUnits="userSpaceOnUse" x="6.20312" y="5.20801" width="51" height="53" fill="black">
<rect fill="white" x="6.20312" y="5.20801" width="51" height="53"/>
<path d="M42.6484 11.4492C44.3019 9.09933 46.3147 10.3638 45.1846 12.9238C44.634 14.161 44.9046 15.9949 46.1113 16.917C46.1267 16.9259 46.1299 16.9385 46.1299 16.9385C47.8878 18.2706 50.2423 19.7928 51.4287 21.6543C52.7809 23.7957 52.3152 26.3206 50.3799 27.2803C50.0738 27.432 49.7492 27.5354 49.4141 27.5947C51.9101 32.7098 52.0624 38.5104 49.2832 43.3242C44.4807 51.6423 34.0442 57.1373 21.9814 50.1729C9.12088 42.7476 9.4714 31.4193 14.2617 23.1045L14.5068 22.7285C17.332 18.1516 22.3104 15.5203 27.833 15.1338C27.737 14.8734 27.6695 14.6043 27.6357 14.3291L27.6143 14.1162C27.4777 11.9605 29.4311 10.295 31.9648 10.4072C34.0943 10.5112 36.3834 11.7404 38.3691 12.5186C38.3843 12.5272 38.3965 12.5244 38.3965 12.5244C40.0179 13.1535 41.767 12.7102 42.6484 11.4492ZM42.5615 19.5215C42.6343 19.5744 42.7064 19.628 42.7783 19.6816C42.7153 19.3715 42.6544 19.0614 42.5957 18.7549C42.5861 19.0062 42.5733 19.2622 42.5615 19.5215ZM37.9854 16.917C38.0683 16.9527 38.1516 16.9877 38.2344 17.0244C38.4571 16.8828 38.6768 16.7427 38.8936 16.6074C38.5941 16.7115 38.2902 16.8149 37.9854 16.917Z"/>
</mask>
<path d="M42.6484 11.4492C44.3019 9.09933 46.3147 10.3638 45.1846 12.9238C44.634 14.161 44.9046 15.9949 46.1113 16.917C46.1267 16.9259 46.1299 16.9385 46.1299 16.9385C47.8878 18.2706 50.2423 19.7928 51.4287 21.6543C52.7809 23.7957 52.3152 26.3206 50.3799 27.2803C50.0738 27.432 49.7492 27.5354 49.4141 27.5947C51.9101 32.7098 52.0624 38.5104 49.2832 43.3242C44.4807 51.6423 34.0442 57.1373 21.9814 50.1729C9.12088 42.7476 9.4714 31.4193 14.2617 23.1045L14.5068 22.7285C17.332 18.1516 22.3104 15.5203 27.833 15.1338C27.737 14.8734 27.6695 14.6043 27.6357 14.3291L27.6143 14.1162C27.4777 11.9605 29.4311 10.295 31.9648 10.4072C34.0943 10.5112 36.3834 11.7404 38.3691 12.5186C38.3843 12.5272 38.3965 12.5244 38.3965 12.5244C40.0179 13.1535 41.767 12.7102 42.6484 11.4492ZM42.5615 19.5215C42.6343 19.5744 42.7064 19.628 42.7783 19.6816C42.7153 19.3715 42.6544 19.0614 42.5957 18.7549C42.5861 19.0062 42.5733 19.2622 42.5615 19.5215ZM37.9854 16.917C38.0683 16.9527 38.1516 16.9877 38.2344 17.0244C38.4571 16.8828 38.6768 16.7427 38.8936 16.6074C38.5941 16.7115 38.2902 16.8149 37.9854 16.917Z" fill="white"/>
<path d="M42.6484 11.4492L38.7732 8.72238C38.7704 8.72637 38.7676 8.73036 38.7648 8.73435L42.6484 11.4492ZM45.1846 12.9238L49.5137 14.8505C49.5156 14.8462 49.5175 14.8418 49.5194 14.8375L45.1846 12.9238ZM46.1113 16.917L43.2344 20.6822C43.3962 20.8058 43.5658 20.9189 43.7421 21.0207L46.1113 16.917ZM46.1299 16.9385L41.5373 18.1054C41.8018 19.1463 42.4121 20.0665 43.2681 20.7152L46.1299 16.9385ZM51.4287 21.6543L55.4353 19.1244C55.4318 19.1188 55.4282 19.1131 55.4246 19.1075L51.4287 21.6543ZM50.3799 27.2803L52.4846 31.5257L52.4849 31.5255L50.3799 27.2803ZM49.4141 27.5947L48.5879 22.9288C47.1235 23.1881 45.8657 24.1199 45.1911 25.4454C44.5165 26.7709 44.5033 28.3362 45.1555 29.6728L49.4141 27.5947ZM49.2832 43.3242L53.3869 45.6935L53.3869 45.6934L49.2832 43.3242ZM21.9814 50.1729L19.6122 54.2765L19.6122 54.2765L21.9814 50.1729ZM14.2617 23.1045L10.2923 20.5166C10.2448 20.5895 10.1993 20.6637 10.1559 20.739L14.2617 23.1045ZM14.5068 22.7285L18.4763 25.3164C18.4976 25.2837 18.5185 25.2507 18.539 25.2175L14.5068 22.7285ZM27.833 15.1338L28.1638 19.8607C29.6512 19.7566 31.0029 18.9585 31.8124 17.7064C32.6219 16.4542 32.7948 14.8941 32.2791 13.495L27.833 15.1338ZM27.6357 14.3291L22.9212 14.8049C22.9246 14.8386 22.9284 14.8722 22.9325 14.9059L27.6357 14.3291ZM27.6143 14.1162L22.8852 14.4158C22.889 14.4746 22.8938 14.5334 22.8997 14.592L27.6143 14.1162ZM31.9648 10.4072L32.196 5.67437C32.1888 5.67402 32.1817 5.67369 32.1745 5.67337L31.9648 10.4072ZM38.3691 12.5186L40.7076 8.3973C40.5116 8.28606 40.3079 8.18895 40.098 8.10671L38.3691 12.5186ZM38.3965 12.5244L40.1103 8.10672C39.2307 7.76546 38.2692 7.69457 37.349 7.90314L38.3965 12.5244ZM42.5615 19.5215L37.8279 19.3069C37.7558 20.8967 38.4866 22.4165 39.7734 23.3529L42.5615 19.5215ZM42.7783 19.6816L39.9462 23.4806C41.5212 24.6548 43.6575 24.7353 45.3165 23.683C46.9755 22.6307 47.813 20.6638 47.422 18.7386L42.7783 19.6816ZM42.5957 18.7549L47.2497 17.8641C46.7968 15.4979 44.6406 13.8482 42.2383 14.0299C39.836 14.2116 37.9524 16.1669 37.8606 18.5743L42.5957 18.7549ZM37.9854 16.917L36.4811 12.4236C34.6176 13.0474 33.3325 14.7568 33.2509 16.7203C33.1694 18.6838 34.3082 20.4939 36.1136 21.2701L37.9854 16.917ZM38.2344 17.0244L36.3121 21.3555C37.7624 21.9992 39.4387 21.8742 40.7776 21.0226L38.2344 17.0244ZM38.8936 16.6074L41.4027 20.6271C43.4492 19.3496 44.2092 16.7385 43.168 14.5623C42.1268 12.3861 39.6168 11.3396 37.338 12.1315L38.8936 16.6074ZM42.6484 11.4492L46.5237 14.1761C46.5927 14.078 46.3928 14.4174 45.7582 14.6877C45.0718 14.9801 43.7976 15.1763 42.5161 14.4047C41.2714 13.6552 40.8758 12.5075 40.7962 11.8746C40.7182 11.2547 40.8812 10.9387 40.8497 11.0101L45.1846 12.9238L49.5194 14.8375C50.3716 12.9071 51.1844 8.56176 47.4047 6.28588C45.5546 5.17189 43.5377 5.33258 42.0442 5.96881C40.6025 6.58293 39.5309 7.64549 38.7732 8.72238L42.6484 11.4492ZM45.1846 12.9238L40.8554 10.9972C40.1354 12.6151 40.0207 14.4023 40.3474 15.9923C40.6786 17.604 41.5484 19.394 43.2344 20.6822L46.1113 16.917L48.9882 13.1518C49.4675 13.518 49.5986 13.9299 49.6305 14.0849C49.6578 14.2181 49.6832 14.4697 49.5137 14.8505L45.1846 12.9238ZM46.1113 16.917L43.7421 21.0207C43.0031 20.594 42.4798 20.0253 42.1317 19.4798C41.9621 19.214 41.8366 18.9583 41.7431 18.7297C41.6962 18.6149 41.6565 18.5049 41.6228 18.4011C41.6059 18.3491 41.5905 18.2985 41.5763 18.2492C41.5692 18.2246 41.5624 18.2003 41.5559 18.1763C41.5527 18.1643 41.5495 18.1524 41.5464 18.1406C41.5449 18.1347 41.5433 18.1288 41.5418 18.123C41.5411 18.12 41.5403 18.1171 41.5396 18.1142C41.5392 18.1127 41.5386 18.1105 41.5384 18.1098C41.5379 18.1076 41.5373 18.1054 46.1299 16.9385C50.7224 15.7715 50.7219 15.7693 50.7213 15.7672C50.7211 15.7664 50.7206 15.7642 50.7202 15.7628C50.7195 15.7598 50.7187 15.7569 50.7179 15.754C50.7164 15.7481 50.7149 15.7422 50.7133 15.7363C50.7102 15.7245 50.7071 15.7126 50.7038 15.7005C50.6973 15.6765 50.6905 15.6522 50.6834 15.6274C50.6692 15.578 50.6536 15.527 50.6366 15.4747C50.6027 15.3702 50.5627 15.2591 50.5152 15.143C50.4206 14.9118 50.2934 14.6524 50.121 14.3823C49.7675 13.8283 49.2349 13.2489 48.4806 12.8133L46.1113 16.917ZM46.1299 16.9385L43.2681 20.7152C44.3848 21.5614 45.1082 22.0441 45.9998 22.7708C46.8253 23.4437 47.247 23.9096 47.4328 24.2011L51.4287 21.6543L55.4246 19.1075C54.424 17.5375 53.0753 16.3116 51.9874 15.4249C50.9657 14.5922 49.6329 13.6477 48.9917 13.1618L46.1299 16.9385ZM51.4287 21.6543L47.4221 24.1842C47.5257 24.3483 47.4284 24.3137 47.4783 24.0448C47.504 23.907 47.5706 23.7134 47.7184 23.5101C47.8712 23.3 48.0707 23.1363 48.2748 23.035L50.3799 27.2803L52.4849 31.5255C57.6652 28.9568 57.817 22.8962 55.4353 19.1244L51.4287 21.6543ZM50.3799 27.2803L48.2751 23.0349C48.3991 22.9734 48.5085 22.9429 48.5879 22.9288L49.4141 27.5947L50.2402 32.2607C50.9899 32.1279 51.7486 31.8906 52.4846 31.5257L50.3799 27.2803ZM49.4141 27.5947L45.1555 29.6728C47.0767 33.6099 47.0472 37.72 45.1795 40.955L49.2832 43.3242L53.3869 45.6934C57.0776 39.3008 56.7435 31.8098 53.6726 25.5167L49.4141 27.5947ZM49.2832 43.3242L45.1795 40.955C43.2712 44.2604 40.3276 46.8487 36.8819 47.9758C33.5551 49.0639 29.3214 48.9391 24.3507 46.0692L21.9814 50.1729L19.6122 54.2765C26.7042 58.3711 33.7202 58.981 39.828 56.9832C45.8169 55.0243 50.4928 50.7062 53.3869 45.6935L49.2832 43.3242ZM21.9814 50.1729L24.3507 46.0692C18.9135 42.93 16.7777 39.318 16.1561 36.0791C15.5036 32.6796 16.3772 28.9247 18.3676 25.47L14.2617 23.1045L10.1559 20.739C7.35589 25.5991 5.65908 31.6658 6.84893 37.8654C8.06962 44.2257 12.1888 49.9905 19.6122 54.2765L21.9814 50.1729ZM14.2617 23.1045L18.2311 25.6924L18.4763 25.3164L14.5068 22.7285L10.5374 20.1407L10.2923 20.5166L14.2617 23.1045ZM14.5068 22.7285L18.539 25.2175C20.4389 22.1396 23.912 20.1583 28.1638 19.8607L27.833 15.1338L27.5022 10.4069C20.7089 10.8823 14.2251 14.1637 10.4747 20.2396L14.5068 22.7285ZM27.833 15.1338L32.2791 13.495C32.3001 13.5519 32.3251 13.6387 32.339 13.7523L27.6357 14.3291L22.9325 14.9059C23.0139 15.57 23.174 16.1949 23.3869 16.7725L27.833 15.1338ZM27.6357 14.3291L32.3503 13.8533L32.3288 13.6404L27.6143 14.1162L22.8997 14.592L22.9212 14.8049L27.6357 14.3291ZM27.6143 14.1162L32.3433 13.8166C32.3577 14.0438 32.3157 14.2989 32.2096 14.5373C32.107 14.7681 31.9714 14.9243 31.8624 15.0172C31.649 15.1991 31.5642 15.1326 31.7552 15.1411L31.9648 10.4072L32.1745 5.67337C27.6979 5.4751 22.5195 8.64272 22.8852 14.4158L27.6143 14.1162ZM31.9648 10.4072L31.7337 15.1401C32.0391 15.155 32.5824 15.2725 33.5212 15.6333C33.9685 15.8051 34.4297 16.0012 34.9609 16.2292C35.4624 16.4445 36.0573 16.7019 36.6403 16.9304L38.3691 12.5186L40.098 8.10671C39.6881 7.94609 39.2522 7.75807 38.6994 7.52076C38.1764 7.29623 37.5599 7.03258 36.9205 6.78689C35.686 6.31253 34.02 5.76345 32.196 5.67437L31.9648 10.4072ZM38.3691 12.5186L36.0306 16.6398C36.7186 17.0302 37.414 17.2013 38.0174 17.2487C38.3132 17.2719 38.5828 17.2654 38.8185 17.2442C38.9368 17.2336 39.0482 17.2191 39.152 17.2023C39.204 17.1939 39.2544 17.1849 39.303 17.1754C39.3273 17.1707 39.3512 17.1658 39.3747 17.1608C39.3864 17.1584 39.3981 17.1559 39.4096 17.1533C39.4154 17.1521 39.4211 17.1508 39.4269 17.1495C39.4297 17.1489 39.4326 17.1483 39.4354 17.1476C39.4368 17.1473 39.439 17.1468 39.4397 17.1467C39.4418 17.1462 39.444 17.1457 38.3965 12.5244C37.349 7.90314 37.3511 7.90266 37.3533 7.90218C37.354 7.90202 37.3561 7.90154 37.3575 7.90122C37.3604 7.90058 37.3632 7.89994 37.3661 7.8993C37.3718 7.89803 37.3776 7.89676 37.3833 7.89549C37.3949 7.89297 37.4065 7.89047 37.4182 7.888C37.4417 7.88305 37.4655 7.87821 37.4897 7.87349C37.5381 7.86405 37.5882 7.85508 37.6398 7.84673C37.7429 7.83006 37.8533 7.81574 37.9702 7.80523C38.2032 7.7843 38.4688 7.77793 38.7596 7.80077C39.3531 7.8474 40.0349 8.01556 40.7076 8.3973L38.3691 12.5186ZM38.3965 12.5244L36.6826 16.9421C39.9733 18.2187 44.188 17.5173 46.5321 14.1641L42.6484 11.4492L38.7648 8.73435C39.0358 8.34661 39.3899 8.16453 39.6376 8.10186C39.8783 8.04096 40.0401 8.07948 40.1103 8.10672L38.3965 12.5244ZM42.5615 19.5215L39.7734 23.3529C39.8226 23.3887 39.8762 23.4285 39.9462 23.4806L42.7783 19.6816L45.6105 15.8827C45.5366 15.8276 45.446 15.7602 45.3497 15.6901L42.5615 19.5215ZM42.7783 19.6816L47.422 18.7386C47.3629 18.4476 47.3054 18.155 47.2497 17.8641L42.5957 18.7549L37.9417 19.6457C38.0033 19.9678 38.0677 20.2954 38.1346 20.6247L42.7783 19.6816ZM42.5957 18.7549L37.8606 18.5743C37.8519 18.8033 37.8411 19.0163 37.8279 19.3069L42.5615 19.5215L47.2952 19.7361C47.3055 19.5081 47.3203 19.209 47.3308 18.9354L42.5957 18.7549ZM37.9854 16.917L36.1136 21.2701C36.2442 21.3263 36.2623 21.3334 36.3121 21.3555L38.2344 17.0244L40.1566 12.6933C40.0409 12.642 39.8924 12.579 39.8571 12.5638L37.9854 16.917ZM38.2344 17.0244L40.7776 21.0226C41.007 20.8766 41.207 20.7492 41.4027 20.6271L38.8936 16.6074L36.3844 12.5878C36.1466 12.7362 35.9071 12.8889 35.6912 13.0262L38.2344 17.0244ZM38.8936 16.6074L37.338 12.1315C37.0577 12.2289 36.771 12.3265 36.4811 12.4236L37.9854 16.917L39.4896 21.4104C39.8094 21.3033 40.1305 21.194 40.4491 21.0833L38.8936 16.6074Z" fill="white" mask="url(#path-1-outside-1_2380_26483)"/>
<g filter="url(#filter0_ii_2380_26483)">
<path d="M14.2754 23.113C19.0778 14.7949 30.81 12.5853 40.4633 18.1586C50.1319 23.7408 54.0845 35.006 49.282 43.3241C44.4795 51.6422 34.0428 57.137 21.98 50.1726C9.1192 42.7474 9.46968 31.419 14.26 23.1041" fill="#F4436C"/>
</g>
<path d="M18.5955 41.8939C19.2157 40.8196 22.4679 41.5308 25.8475 43.4923C29.2392 45.4505 31.478 47.8992 30.8578 48.9735C30.2375 50.0478 26.9854 49.3365 23.6058 47.3751C20.2141 45.4169 17.9752 42.9682 18.5955 41.8939Z" fill="#00205C"/>
<path d="M27.6177 14.128C27.7543 16.2838 29.9221 18.1289 32.456 18.2412C33.7153 18.293 36.449 17.4567 38.8937 16.6071C36.1264 18.3345 32.7487 20.6406 31.9866 21.9605C30.6576 24.2625 31.6912 27.3456 34.2881 28.8551C36.8971 30.3614 40.0839 29.7151 41.413 27.413C42.175 26.0932 42.4712 22.0182 42.5956 18.7546C43.0822 21.2966 43.7248 24.0822 44.3993 25.1469C45.7668 27.2972 48.4453 28.24 50.3806 27.2804C52.3159 26.3208 52.781 23.7962 51.4289 21.6547C50.2425 19.7932 47.8885 18.2704 46.1305 16.9382C46.1305 16.9382 46.1273 16.9261 46.1119 16.9173C44.9049 15.9953 44.6339 14.1609 45.1845 12.9236C46.3148 10.3635 44.3026 9.09946 42.649 11.4495C41.7675 12.7106 40.0181 13.1534 38.3965 12.5241C38.3965 12.5241 38.3844 12.5274 38.369 12.5185C36.3832 11.7403 34.095 10.5113 31.9656 10.4073C29.4317 10.2949 27.4779 11.9601 27.6144 14.1159" fill="#6AA338"/>
<defs>
<filter id="filter0_ii_2380_26483" x="8.49346" y="12.3758" width="42.8327" height="43.6786" filterUnits="userSpaceOnUse" color-interpolation-filters="sRGB">
<feFlood flood-opacity="0" result="BackgroundImageFix"/>
<feBlend mode="normal" in="SourceGraphic" in2="BackgroundImageFix" result="shape"/>
<feColorMatrix in="SourceAlpha" type="matrix" values="0 0 0 0 0 0 0 0 0 0 0 0 0 0 0 0 0 0 127 0" result="hardAlpha"/>
<feOffset dy="2.70771"/>
<feGaussianBlur stdDeviation="1.35386"/>
<feComposite in2="hardAlpha" operator="arithmetic" k2="-1" k3="1"/>
<feColorMatrix type="matrix" values="0 0 0 0 0.96794 0 0 0 0 0.45206 0 0 0 0 0.571558 0 0 0 1 0"/>
<feBlend mode="normal" in2="shape" result="effect1_innerShadow_2380_26483"/>
<feColorMatrix in="SourceAlpha" type="matrix" values="0 0 0 0 0 0 0 0 0 0 0 0 0 0 0 0 0 0 127 0" result="hardAlpha"/>
<feOffset dx="-2.70771" dy="-2.70771"/>
<feGaussianBlur stdDeviation="2.70771"/>
<feComposite in2="hardAlpha" operator="arithmetic" k2="-1" k3="1"/>
<feColorMatrix type="matrix" values="0 0 0 0 0.869146 0 0 0 0 0.0508543 0 0 0 0 0.240402 0 0 0 1 0"/>
<feBlend mode="normal" in2="effect1_innerShadow_2380_26483" result="effect2_innerShadow_2380_26483"/>
</filter>
</defs>
</svg>
