<svg width="96" height="97" viewBox="0 0 96 97" fill="none" xmlns="http://www.w3.org/2000/svg">
    <g filter="url(#filter0_ii_604_4294)">
        <path
            d="M41.8819 7.64233C45.0575 3.8038 50.9425 3.8038 54.1181 7.64233C56.2718 10.2456 59.8371 11.2009 63.0039 10.0233C67.6734 8.28682 72.7699 11.2293 73.6008 16.1414C74.1643 19.4728 76.7743 22.0827 80.1057 22.6462C85.0178 23.4772 87.9602 28.5737 86.2238 33.2431C85.0461 36.41 86.0014 39.9752 88.6047 42.1289C92.4433 45.3046 92.4433 51.1896 88.6047 54.3652C86.0014 56.5189 85.0461 60.0842 86.2238 63.251C87.9602 67.9204 85.0178 73.017 80.1057 73.8479C76.7743 74.4114 74.1643 77.0214 73.6008 80.3527C72.7699 85.2648 67.6734 88.2073 63.0039 86.4709C59.8371 85.2932 56.2718 86.2485 54.1181 88.8518C50.9425 92.6903 45.0575 92.6903 41.8819 88.8518C39.7282 86.2485 36.1629 85.2932 32.9961 86.4709C28.3266 88.2073 23.2301 85.2648 22.3992 80.3527C21.8357 77.0214 19.2257 74.4114 15.8943 73.8479C10.9822 73.017 8.03975 67.9204 9.7762 63.251C10.9539 60.0842 9.99856 56.5189 7.39526 54.3652C3.55673 51.1896 3.55673 45.3046 7.39526 42.1289C9.99856 39.9752 10.9539 36.41 9.7762 33.2431C8.03975 28.5737 10.9822 23.4772 15.8943 22.6462C19.2257 22.0827 21.8357 19.4728 22.3992 16.1414C23.2301 11.2293 28.3266 8.28682 32.9961 10.0233C36.1629 11.2009 39.7282 10.2456 41.8819 7.64233Z"
            fill="white" />
    </g>
    <path fill-rule="evenodd" clip-rule="evenodd"
        d="M49.44 51.9088C50.7583 52.3311 52.0502 52.8531 53.3129 53.4836C52.557 51.9352 51.9272 50.2812 51.476 48.5978C51.2973 48.4014 51.1157 48.2049 50.9341 48.0054C50.4243 48.5714 49.8823 49.1462 49.3287 49.7181C48.8131 50.2489 48.2887 50.7651 47.7731 51.2519C47.8697 51.3399 47.9664 51.4279 48.0602 51.5158C48.523 51.6302 48.983 51.7622 49.44 51.9088ZM31.1039 31.3509C32.8206 29.6324 36.1925 29.9872 40.2587 31.9521C43.575 33.5563 47.4127 36.2426 51.186 39.7266C51.9741 36.6971 53.8812 34.0548 57.3644 32.348C58.6447 31.7204 60.3028 31.2453 61.876 31.0048C58.7472 32.8759 56.5383 35.0138 55.7766 37.3716C53.1371 45.5684 65.4588 49.9938 63.9354 57.7946C63.994 58.0175 64.0468 58.2345 64.0936 58.4486C65.4266 59.7683 66.9968 61.3197 65.1717 63.1028L62.6201 65.6571C61.0791 67.1264 59.4005 65.5251 58.2697 64.3931C58.0793 64.355 57.8888 64.311 57.6926 64.2612C47.9371 65.9533 41.8641 45.5449 30.7553 62.3403C30.9896 60.9971 31.3119 59.6686 31.8509 58.3636C33.4241 54.5658 36.2072 52.3868 39.4766 51.4601C35.9933 47.6799 33.3069 43.8352 31.7044 40.5125C29.7416 36.4449 29.3842 33.0694 31.1039 31.3509ZM39.5205 33.046C37.1534 31.9228 35.1144 31.389 33.6584 31.565C34.76 32.0225 36.1398 32.8612 37.71 34.0196C37.9415 34.1897 38.1758 34.3657 38.4161 34.5504C38.7998 34.0607 39.1689 33.5592 39.5205 33.046ZM31.3177 33.9316C31.1478 35.4068 31.6986 37.4713 32.844 39.8673C33.3596 39.5242 33.8635 39.1547 34.3528 38.7559C34.1477 38.489 33.9543 38.228 33.7668 37.9728C32.6126 36.4097 31.7747 35.0343 31.3177 33.9316ZM33.4417 41.0492C34.0452 42.1695 34.7629 43.3455 35.589 44.5478C36.2658 44.0992 36.9952 43.5273 37.7423 42.8762C36.7989 41.7999 35.9318 40.7677 35.1584 39.794C34.6018 40.2456 34.0305 40.665 33.4417 41.0492ZM36.3507 45.6212C37.1534 46.7209 38.0411 47.8412 39.002 48.9644C39.7461 48.4893 40.6162 47.8002 41.5331 46.9907C40.5048 45.9262 39.5293 44.8763 38.6153 43.8587C37.836 44.539 37.0685 45.1432 36.3507 45.6212ZM39.8779 49.9645C40.2295 50.3545 40.5869 50.7445 40.956 51.1346C42.4647 50.8853 44.0467 50.8736 45.6433 51.0671C44.8289 50.2929 43.9998 49.4864 43.1678 48.6536C42.9276 48.4131 42.6903 48.1726 42.453 47.9351C41.5331 48.7474 40.6513 49.4512 39.8779 49.9645ZM50.8872 41.2369C50.4712 40.841 50.0552 40.4568 49.6363 40.0843C49.0826 40.8615 48.3824 41.7442 47.5973 42.6621C47.858 42.9173 48.1158 43.1754 48.3766 43.4364C49.2701 44.3308 50.1314 45.2165 50.9546 46.0904C50.7114 44.4423 50.6704 42.8029 50.8872 41.2369ZM48.6431 39.2104C47.4977 38.228 46.3522 37.3247 45.2302 36.5094C44.741 37.2221 44.1492 37.9992 43.493 38.7969C44.5183 39.7178 45.5759 40.7031 46.651 41.7413C47.4303 40.8322 48.1158 39.9641 48.6431 39.2104ZM44.158 35.7528C42.9686 34.9405 41.8114 34.2337 40.704 33.6442C40.3085 34.2278 39.8896 34.8026 39.456 35.3628C40.4199 36.1311 41.4452 36.9904 42.5145 37.9259C43.1356 37.1664 43.6951 36.4303 44.158 35.7528ZM36.9249 35.0871C34.2707 33.131 32.469 32.0811 32.1439 32.4037C31.8216 32.7263 32.8675 34.5328 34.8244 37.1898C34.9943 37.4186 35.1701 37.6532 35.3517 37.8937C35.6447 37.6238 35.9347 37.3482 36.2189 37.0608C36.6905 36.5857 37.1446 36.0901 37.5811 35.5769C37.3585 35.4068 37.1417 35.2425 36.9249 35.0871ZM36.1632 38.9318C36.9278 39.8937 37.7862 40.9172 38.7237 41.9847C39.1016 41.6299 39.4795 41.2603 39.8515 40.8791C40.4755 40.2456 41.0849 39.5858 41.6591 38.9318C40.5956 37.9992 39.5791 37.1458 38.6211 36.3863C38.1495 36.9405 37.6573 37.4772 37.1505 37.9904C36.8282 38.313 36.5001 38.6297 36.1632 38.9318ZM39.5967 42.9701C40.5078 43.9848 41.4833 45.0317 42.5116 46.0963C42.9832 45.6535 43.4578 45.1872 43.9295 44.7091C44.5652 44.064 45.1921 43.3982 45.7839 42.7384C44.7117 41.7032 43.66 40.7237 42.6405 39.8057C42.0516 40.4803 41.4247 41.1548 40.789 41.8058C40.3935 42.2047 39.9951 42.5947 39.5967 42.9701ZM43.4285 47.0377C43.6512 47.2635 43.8738 47.4893 44.0994 47.7151C45.0134 48.6301 45.9187 49.5099 46.8092 50.3516C47.3366 49.853 47.8668 49.331 48.3883 48.7973C48.9449 48.2283 49.4986 47.6359 50.0318 47.0377C49.2056 46.1608 48.3385 45.2693 47.4391 44.369C47.1989 44.1285 46.9586 43.8909 46.7184 43.6534C46.1208 44.3162 45.4939 44.9848 44.8552 45.6329C44.3865 46.1168 43.906 46.589 43.4285 47.0377Z"
        fill="#1C1456" stroke="#1C1456" stroke-width="0.380769" stroke-miterlimit="2.6131" />
    <path d="M84 12.2471L12 84.2471" stroke="#F2426C" stroke-width="4.5" stroke-linecap="round"
        stroke-linejoin="round" />
    <defs>
        <filter id="filter0_ii_604_4294" x="1.5166" y="1.76367" width="92.9668" height="92.9668"
            filterUnits="userSpaceOnUse" color-interpolation-filters="sRGB">
            <feFlood flood-opacity="0" result="BackgroundImageFix" />
            <feBlend mode="normal" in="SourceGraphic" in2="BackgroundImageFix" result="shape" />
            <feColorMatrix in="SourceAlpha" type="matrix" values="0 0 0 0 0 0 0 0 0 0 0 0 0 0 0 0 0 0 127 0"
                result="hardAlpha" />
            <feOffset dx="3" dy="3" />
            <feGaussianBlur stdDeviation="3" />
            <feComposite in2="hardAlpha" operator="arithmetic" k2="-1" k3="1" />
            <feColorMatrix type="matrix" values="0 0 0 0 0.907565 0 0 0 0 0.907565 0 0 0 0 0.907565 0 0 0 1 0" />
            <feBlend mode="normal" in2="shape" result="effect1_innerShadow_604_4294" />
            <feColorMatrix in="SourceAlpha" type="matrix" values="0 0 0 0 0 0 0 0 0 0 0 0 0 0 0 0 0 0 127 0"
                result="hardAlpha" />
            <feOffset dx="-3" dy="-3" />
            <feGaussianBlur stdDeviation="3" />
            <feComposite in2="hardAlpha" operator="arithmetic" k2="-1" k3="1" />
            <feColorMatrix type="matrix" values="0 0 0 0 0.642334 0 0 0 0 0.642334 0 0 0 0 0.642334 0 0 0 1 0" />
            <feBlend mode="normal" in2="effect1_innerShadow_604_4294" result="effect2_innerShadow_604_4294" />
        </filter>
    </defs>
</svg>