<svg width="270" height="225" viewBox="0 0 270 225" fill="none" xmlns="http://www.w3.org/2000/svg">
<path d="M47.9561 18.9811C48.6245 18.9811 49.2739 19.0649 49.8945 19.2194C50.5152 19.0648 51.1645 18.9811 51.833 18.9811H66.2334C67.2144 18.9811 68.154 19.1589 69.0225 19.4821C69.8911 19.1587 70.8312 18.9811 71.8125 18.9811L88.5166 18.9811C89.736 18.9811 90.8915 19.2548 91.9258 19.7428C92.9642 19.2533 94.1209 18.9812 95.333 18.9811L103.062 18.9811L103.428 18.9889C104.509 19.0379 105.539 19.3043 106.474 19.7457C107.51 19.2555 108.668 18.9811 109.891 18.9811L124.291 18.9811C124.659 18.9811 125.021 19.0081 125.376 19.0563C125.731 19.0081 126.094 18.9811 126.462 18.9811H131.693C132.442 18.9811 133.166 19.0867 133.854 19.2789C134.541 19.0866 135.265 18.9811 136.014 18.9811H141.294C142.034 18.9811 142.75 19.0841 143.43 19.2721C144.11 19.0841 144.826 18.9811 145.565 18.9811L150.894 18.9811C151.384 18.9811 151.864 19.0275 152.33 19.1119C152.796 19.0273 153.277 18.9811 153.768 18.9811H159.048C163.466 18.9813 167.048 22.5629 167.048 26.9811L167.048 32.3834C169.298 33.0729 171.474 34.2849 173.299 36.2633L173.3 36.2633C173.305 36.2693 173.311 36.2758 173.316 36.2819C173.333 36.2998 173.351 36.3175 173.367 36.3356H173.365C176.485 39.7294 177.415 44.0292 177.415 47.9088L177.415 52.277C177.415 56.1562 176.484 60.4546 173.365 63.8483L173.367 63.8502C173.35 63.8687 173.332 63.8865 173.315 63.9049C173.31 63.9105 173.305 63.9169 173.3 63.9225L173.299 63.9215C171.705 65.6503 169.842 66.7932 167.896 67.5143C168.998 67.8896 170.072 68.3937 171.092 69.0446C173.877 67.2674 177.066 66.5964 180.128 66.5963C184.239 66.5964 188.577 67.8051 191.862 71.278L191.863 71.278C191.869 71.2839 191.874 71.2906 191.88 71.2965C191.894 71.3117 191.91 71.3262 191.924 71.3414L191.923 71.3414C193.587 73.1042 194.661 75.1176 195.309 77.2047H195.703C196.223 77.2047 196.732 77.2554 197.225 77.3502L199.545 71.8649L199.667 71.5905C200.978 68.7862 203.799 66.9813 206.913 66.9811L212.673 66.9811C214.248 66.9811 215.716 67.4382 216.954 68.2242C219.362 67.0518 221.986 66.5964 224.505 66.5963C227.349 66.5964 230.35 67.1774 233.012 68.7477C235.674 67.177 238.676 66.5964 241.52 66.5963C245.57 66.5963 249.993 67.7792 253.24 71.4166H253.241C256.347 74.8256 257.296 79.1228 257.296 83.0446C257.296 85.0151 257.089 87.0347 256.533 88.9889C256.114 90.5267 255.534 92.0243 254.766 93.4469C254.136 94.6619 253.419 95.8237 252.609 96.9196C252.576 96.9653 252.541 97.0112 252.506 97.0563C252.09 97.5943 251.703 98.1261 251.342 98.65C251.243 98.8113 251.148 98.9844 251.06 99.1725C251.059 99.1993 251.056 99.2317 251.056 99.2692C251.056 99.3237 251.057 99.3658 251.059 99.3961C251.059 99.4108 251.06 99.4228 251.061 99.4313C251.234 100.224 251.282 101.028 251.215 101.82C251.33 102.36 251.392 102.919 251.392 103.493L251.392 108.581C251.392 112.999 247.81 116.581 243.392 116.581H238.304C237.164 116.581 236.081 116.34 235.1 115.911C234.119 116.34 233.036 116.581 231.896 116.581H219.343C220.584 117.266 221.759 118.153 222.823 119.278H222.824C222.844 119.299 222.865 119.32 222.885 119.341H222.884C226.088 122.735 227.104 127.056 227.104 131.045V143.512C231.274 143.787 234.571 147.254 234.571 151.493L234.571 156.052C234.571 157.145 234.348 158.226 233.914 159.228L231.61 164.556C230.344 167.485 227.457 169.38 224.267 169.38L222.107 169.38C219.592 169.38 217.222 168.197 215.711 166.185C215.342 165.694 215.035 165.167 214.792 164.617C213.558 164.857 212.312 164.964 211.089 164.964C208.838 164.964 206.507 164.607 204.315 163.708C203.785 163.978 203.222 164.193 202.632 164.34C202.66 164.614 202.675 164.892 202.675 165.172V165.178C204.211 166.636 205.171 168.696 205.171 170.981V204.581C205.171 208.999 201.589 212.581 197.171 212.581L192.419 212.581C191.246 212.581 190.133 212.326 189.13 211.873C188.12 212.328 187.005 212.581 185.843 212.581H180.419C179.112 212.581 177.879 212.265 176.79 211.71C174.601 212.606 172.273 212.964 170.024 212.964C166.966 212.964 163.762 212.305 160.958 210.524C158.26 212.061 155.241 212.581 152.474 212.581L144.698 212.581C143.392 212.581 142.159 212.265 141.07 211.71C138.881 212.607 136.553 212.964 134.304 212.964C131.225 212.964 127.999 212.297 125.183 210.489C123.76 211.787 121.869 212.581 119.791 212.581L114.511 212.581C110.768 212.581 107.626 210.01 106.753 206.539C106.365 207.11 105.931 207.666 105.444 208.199L105.443 208.198C102.16 211.798 97.7395 212.964 93.6797 212.964C90.1173 212.964 86.3182 212.069 83.2178 209.484C81.7542 211.367 79.4699 212.581 76.9004 212.581H71.6201C70.1478 212.581 68.7689 212.181 67.584 211.487C65.4614 212.286 63.2376 212.581 61.1562 212.581H53.3799C52.8881 212.581 52.4067 212.534 51.9395 212.449C51.4726 212.534 50.9914 212.581 50.5 212.581H45.5078C44.8809 212.581 44.2709 212.506 43.6855 212.37C43.0978 212.507 42.4865 212.581 41.8604 212.581L36.8682 212.581C36.1927 212.581 35.5346 212.494 34.9043 212.335C34.2736 212.494 33.613 212.581 32.9326 212.581L28.3242 212.581C23.9061 212.58 20.3242 208.999 20.3242 204.581V170.981C20.3242 167.814 22.1652 165.076 24.835 163.78C22.1655 162.484 20.3242 159.748 20.3242 156.581L20.3242 122.981C20.3242 118.792 23.5452 115.356 27.6455 115.011C25.6793 113.554 24.4043 111.216 24.4043 108.581L24.4043 87.3873C21.2005 86.3433 18.8849 83.3331 18.8848 79.7809L18.8848 74.9811C18.8848 73.085 19.5452 71.3433 20.6475 69.9723C19.2597 68.5335 18.4043 66.5774 18.4043 64.4205V55.7809C18.4043 53.5054 19.3739 51.3375 21.0693 49.8199C21.7233 49.2346 22.462 48.7681 23.252 48.4293V26.9811C23.252 22.563 26.834 18.9815 31.252 18.9811L47.9561 18.9811ZM91.4326 204.754H91.4336H91.4326ZM136.908 204.672L136.964 204.661C136.981 204.656 136.998 204.651 137.015 204.646C136.979 204.655 136.944 204.664 136.908 204.672ZM45.5078 180.491V204.581L45.5088 180.485L45.5078 180.491ZM137.368 204.547C137.397 204.538 137.425 204.527 137.454 204.518C137.425 204.527 137.397 204.538 137.368 204.547ZM137.756 204.414C137.781 204.404 137.807 204.396 137.832 204.386C137.807 204.396 137.781 204.404 137.756 204.414ZM138.155 204.254C138.189 204.239 138.222 204.224 138.255 204.209C138.222 204.224 138.189 204.239 138.155 204.254ZM139.308 203.612C139.328 203.598 139.347 203.583 139.367 203.569C139.347 203.583 139.328 203.598 139.308 203.612ZM139.623 203.377C139.643 203.361 139.662 203.346 139.682 203.331C139.662 203.346 139.643 203.361 139.623 203.377ZM139.921 203.127C139.939 203.11 139.958 203.094 139.976 203.078C139.958 203.094 139.939 203.11 139.921 203.127ZM140.739 202.223C140.664 202.325 140.586 202.424 140.506 202.521L140.74 202.223C140.815 202.122 140.887 202.017 140.957 201.911L140.739 202.223ZM141.344 201.242C141.285 201.358 141.224 201.472 141.159 201.584L141.345 201.242C141.404 201.125 141.46 201.007 141.514 200.885L141.344 201.242ZM86.1689 199.657C85.9993 198.995 85.8885 198.276 85.8389 197.5C85.8492 197.662 85.8613 197.822 85.877 197.98C85.9077 198.291 85.9487 198.592 86 198.883C86.0469 199.15 86.1043 199.407 86.1689 199.657ZM136.893 198.247L136.932 198.072C136.936 198.048 136.939 198.024 136.943 198C136.928 198.085 136.912 198.167 136.893 198.247ZM136.967 197.86C136.975 197.805 136.983 197.748 136.99 197.691C136.983 197.748 136.975 197.805 136.967 197.86ZM137.006 197.552C137.015 197.459 137.023 197.363 137.028 197.264C137.023 197.363 137.015 197.459 137.006 197.552ZM126.287 196.516C126.287 196.686 126.29 196.854 126.296 197.019L126.288 196.516V179.045H126.287V196.516ZM162.008 196.516C162.008 196.686 162.011 196.854 162.017 197.019L162.009 196.516L162.009 179.045H162.008V196.516ZM172.76 196.853C172.76 197.061 172.752 197.259 172.736 197.446L172.755 197.157C172.759 197.058 172.761 196.957 172.761 196.853L172.761 178.709H172.76V196.853ZM85.9014 177.358C85.8569 177.737 85.8282 178.132 85.8154 178.542C85.8103 178.707 85.8076 178.874 85.8076 179.045L85.8076 196.516C85.8076 196.835 85.8179 197.145 85.8359 197.446C85.8178 197.145 85.8086 196.835 85.8086 196.516V179.045C85.8086 178.452 85.8393 177.89 85.9014 177.358ZM137.039 196.853C137.039 196.981 137.036 197.104 137.03 197.224C137.036 197.104 137.04 196.981 137.04 196.853V178.709L137.039 178.709V196.853ZM96.5596 196.853L96.5508 197.185C96.5561 197.078 96.5605 196.967 96.5605 196.853L96.5605 192.052H96.5596L96.5596 196.853ZM86.0029 176.671C85.9906 176.74 85.9789 176.81 85.9678 176.88C85.9789 176.81 85.9906 176.74 86.0029 176.671ZM86.0986 176.191C86.0733 176.303 86.0494 176.417 86.0273 176.532C86.0494 176.417 86.0733 176.303 86.0986 176.191ZM108.99 175.781L108.991 175.781L108.991 170.981H108.99L108.99 175.781ZM137.366 171.022C138.392 171.344 139.267 171.849 139.991 172.537C139.901 172.451 139.807 172.367 139.712 172.287C139.33 171.965 138.91 171.689 138.452 171.459C138.223 171.344 137.984 171.24 137.736 171.148C137.615 171.103 137.492 171.061 137.366 171.022ZM136.956 170.905C137.089 170.939 137.219 170.976 137.348 171.016C137.219 170.976 137.089 170.939 136.956 170.905ZM136.541 170.809C136.432 170.787 136.32 170.767 136.208 170.748C136.32 170.767 136.432 170.787 136.541 170.809ZM133.015 170.664C132.962 170.669 132.91 170.675 132.858 170.681C132.91 170.675 132.962 170.669 133.015 170.664ZM168.735 170.664C168.683 170.669 168.631 170.675 168.579 170.681C168.631 170.675 168.683 170.669 168.735 170.664ZM133.36 170.63C133.321 170.633 133.281 170.638 133.242 170.641C133.301 170.636 133.361 170.631 133.421 170.627L133.36 170.63ZM169.081 170.63C169.041 170.633 169.002 170.638 168.963 170.641C169.022 170.636 169.082 170.631 169.142 170.627L169.081 170.63ZM61.2832 162.535C60.9435 162.753 60.5978 162.954 60.2471 163.138C62.2507 163.542 63.9822 164.694 65.1396 166.291C65.6111 165.64 66.1775 165.063 66.8193 164.581H66.625C64.5718 164.581 62.6995 163.806 61.2832 162.535ZM81.7002 164.581C82.278 165.015 82.7939 165.526 83.2354 166.098C83.939 165.508 84.6802 165.006 85.4463 164.581L81.7002 164.581ZM103.744 164.943C103.443 164.956 103.143 164.964 102.845 164.964C102.741 164.964 102.636 164.96 102.532 164.959C102.768 165.107 103.002 165.264 103.231 165.429C103.395 165.26 103.566 165.098 103.744 164.943ZM111.841 162.535C111.595 162.692 111.347 162.841 111.096 162.981H112.382C112.195 162.841 112.015 162.691 111.841 162.535ZM50.04 156.754H50.041H50.04ZM100.598 156.754H100.599H100.598ZM144.972 152.76H144.973H144.972ZM95.3359 151.669C95.0949 150.732 94.9736 149.682 94.9736 148.516L94.9736 131.045C94.9736 130.431 95.0066 129.85 95.0732 129.301C95.0249 129.698 94.9939 130.111 94.9805 130.542C94.9753 130.707 94.9727 130.874 94.9727 131.045L94.9727 148.516C94.9727 149.026 94.9958 149.514 95.042 149.98C95.0727 150.291 95.1138 150.592 95.165 150.883C95.2126 151.154 95.2701 151.415 95.3359 151.669ZM54.3994 151.397C54.3826 151.414 54.3639 151.429 54.3467 151.445C54.3641 151.429 54.3834 151.414 54.4004 151.397C54.4183 151.38 54.4349 151.362 54.4521 151.344C54.4348 151.362 54.4174 151.38 54.3994 151.397ZM203.072 148.516C203.072 148.686 203.075 148.854 203.081 149.019L203.073 148.516V131.045L203.072 131.045V148.516ZM213.824 148.853L213.812 149.292C213.82 149.151 213.825 149.005 213.825 148.853L213.825 130.709H213.824L213.824 148.853ZM105.725 148.853L105.715 149.216C105.721 149.099 105.726 148.978 105.726 148.853L105.726 144.052H105.725L105.725 148.853ZM145.425 142.939C145.433 142.97 145.44 143.001 145.447 143.032C145.44 143.001 145.433 142.97 145.425 142.939ZM139.511 142.171C139.565 142.219 139.615 142.271 139.663 142.325C139.697 142.361 139.731 142.399 139.763 142.439C139.826 142.519 139.885 142.606 139.94 142.701C139.968 142.748 139.995 142.798 140.021 142.849C139.919 142.644 139.8 142.469 139.664 142.325C139.616 142.271 139.565 142.219 139.511 142.171ZM145.301 142.5C145.256 142.356 145.208 142.216 145.157 142.079C145.208 142.216 145.256 142.356 145.301 142.5ZM175.783 137.38H175.784L175.784 122.981H175.783V137.38ZM195.308 137.38H195.309V122.981H195.308V137.38ZM138.557 136.273C138.58 136.261 138.602 136.247 138.624 136.234C138.602 136.247 138.58 136.261 138.557 136.273ZM138.728 136.172C138.751 136.157 138.773 136.141 138.796 136.126C138.773 136.141 138.751 136.157 138.728 136.172ZM138.886 136.06C138.912 136.041 138.937 136.02 138.962 136C138.937 136.02 138.912 136.041 138.886 136.06ZM139.241 135.737C139.192 135.792 139.141 135.844 139.087 135.892C139.075 135.903 139.062 135.913 139.05 135.924C139.062 135.913 139.076 135.904 139.088 135.892C139.142 135.844 139.192 135.792 139.241 135.737ZM139.941 130.797C139.948 130.938 139.951 131.085 139.951 131.237L139.951 133.109C139.951 133.277 139.947 133.438 139.938 133.593L139.952 133.109V131.237C139.952 131.085 139.949 130.938 139.941 130.797ZM95.168 128.671C95.1556 128.74 95.144 128.81 95.1328 128.88C95.144 128.81 95.1556 128.74 95.168 128.671ZM50.2471 128.362C50.1946 128.433 50.1456 128.51 50.1006 128.593H50.1016C50.1466 128.51 50.1955 128.433 50.248 128.362H50.2471ZM95.2637 128.191C95.2383 128.303 95.2144 128.417 95.1924 128.532C95.2144 128.417 95.2383 128.303 95.2637 128.191ZM61.1045 127.781L61.1055 127.781L61.1055 122.981H61.1045L61.1045 127.781ZM111.662 127.781H111.663V122.981H111.662L111.662 127.781ZM52.4316 127.397C52.2237 127.397 52.0258 127.413 51.8379 127.445L52.1279 127.409C52.2267 127.401 52.3279 127.397 52.4316 127.397ZM211.089 127.397C210.881 127.397 210.683 127.413 210.495 127.445L210.785 127.409C210.884 127.401 210.985 127.397 211.089 127.397ZM207.339 123.276C207.253 123.313 207.168 123.352 207.084 123.392C207.168 123.352 207.253 123.313 207.339 123.276ZM207.657 123.148C207.557 123.185 207.458 123.225 207.361 123.266C207.464 123.222 207.569 123.181 207.676 123.141L207.657 123.148ZM209.706 122.673C209.585 122.688 209.466 122.704 209.348 122.722C209.466 122.704 209.585 122.688 209.706 122.673ZM210.146 122.63C210.012 122.641 209.879 122.653 209.749 122.668C210.028 122.636 210.315 122.616 210.61 122.605L210.146 122.63ZM149.513 112.155C149.491 112.177 149.469 112.199 149.447 112.221C147.628 114.041 145.507 115.168 143.323 115.819C143.537 115.886 143.75 115.958 143.963 116.035C145.133 115.365 146.488 114.981 147.933 114.981L153.763 114.981C152.538 114.306 151.375 113.436 150.32 112.332C150.3 112.311 150.28 112.289 150.26 112.268C150.117 112.115 149.979 111.958 149.845 111.801C149.737 111.92 149.626 112.039 149.513 112.155ZM171.092 114.543C170.836 114.704 170.576 114.856 170.314 115C171.183 115.057 172.013 115.252 172.783 115.564C172.824 115.548 172.865 115.531 172.906 115.515C172.287 115.238 171.681 114.915 171.092 114.543ZM201.548 114.04C201.227 114.383 200.879 114.699 200.503 114.981L200.684 114.981C201.554 114.981 202.392 115.121 203.177 115.379C202.576 115.005 202.028 114.554 201.548 114.04ZM43.0762 114.489C42.8868 114.662 42.6897 114.827 42.4844 114.981L42.7246 114.981C43.2068 114.981 43.679 115.025 44.1377 115.107C43.7785 114.918 43.424 114.712 43.0762 114.489ZM78.9795 114.535C78.7148 114.704 78.4463 114.864 78.1748 115.013C78.4077 114.993 78.6437 114.981 78.8818 114.981L79.5205 114.981C79.3334 114.841 79.1533 114.691 78.9795 114.535ZM61.1025 114.623C60.8825 114.758 60.6601 114.888 60.4355 115.01C60.656 114.992 60.8793 114.981 61.1045 114.981H61.7119C61.5068 114.868 61.3038 114.748 61.1025 114.623ZM67.7363 108.754L67.7373 108.754L67.7363 108.754ZM165.109 108.551C164.852 108.63 164.585 108.697 164.309 108.754L164.717 108.661C164.85 108.627 164.981 108.591 165.109 108.551ZM182.732 108.672L182.788 108.661C182.805 108.656 182.822 108.651 182.839 108.646C182.804 108.655 182.768 108.664 182.732 108.672ZM183.192 108.547C183.221 108.538 183.25 108.527 183.278 108.518C183.25 108.527 183.221 108.538 183.192 108.547ZM183.58 108.414C183.605 108.404 183.631 108.396 183.656 108.386C183.631 108.396 183.605 108.404 183.58 108.414ZM183.979 108.254C184.013 108.239 184.046 108.224 184.079 108.209C184.046 108.224 184.013 108.239 183.979 108.254ZM185.147 107.602C185.183 107.578 185.217 107.552 185.252 107.527C185.217 107.552 185.183 107.578 185.147 107.602ZM185.446 107.38C185.479 107.354 185.51 107.328 185.542 107.301C185.51 107.328 185.479 107.354 185.446 107.38ZM185.757 107.116C185.773 107.101 185.79 107.087 185.807 107.072C185.79 107.087 185.773 107.101 185.757 107.116ZM168.71 105.911C168.57 106.124 168.42 106.327 168.259 106.521L168.493 106.223C168.644 106.02 168.783 105.807 168.912 105.584L168.71 105.911ZM186.781 105.911C186.642 106.124 186.491 106.327 186.33 106.521L186.564 106.223C186.715 106.02 186.854 105.807 186.983 105.584L186.781 105.911ZM58.4404 106.468C58.5057 106.388 58.569 106.306 58.6309 106.223C58.5689 106.306 58.5057 106.388 58.4404 106.468ZM58.6973 106.13C58.7374 106.074 58.7768 106.017 58.8154 105.96C58.7769 106.017 58.7375 106.074 58.6973 106.13ZM145.019 104.76H145.02H145.019ZM154.693 104.514C154.706 104.546 154.72 104.577 154.732 104.608C154.705 104.54 154.679 104.471 154.653 104.401L154.693 104.514ZM62.4746 103.669C62.2335 102.732 62.1123 101.682 62.1123 100.516V83.0446C62.1123 82.431 62.1453 81.8499 62.2119 81.3014C62.1636 81.6978 62.1325 82.1112 62.1191 82.5416C62.114 82.7068 62.1113 82.8744 62.1113 83.0446L62.1113 100.516C62.1113 101.026 62.1345 101.514 62.1807 101.98C62.2114 102.291 62.2525 102.592 62.3037 102.883C62.3513 103.154 62.4088 103.415 62.4746 103.669ZM54.165 103.445C54.1051 103.505 54.0429 103.561 53.9775 103.614C54.0431 103.561 54.106 103.505 54.166 103.445C54.1981 103.413 54.2288 103.379 54.2588 103.344C54.2287 103.379 54.1972 103.413 54.165 103.445ZM164.646 102.247L164.685 102.072C164.689 102.048 164.692 102.024 164.696 102C164.681 102.085 164.665 102.167 164.646 102.247ZM164.72 101.86C164.728 101.805 164.736 101.748 164.743 101.691C164.736 101.748 164.728 101.805 164.72 101.86ZM164.759 101.552C164.768 101.459 164.776 101.363 164.781 101.264C164.776 101.363 164.768 101.459 164.759 101.552ZM154.113 81.5817C154.065 82.0468 154.04 82.5344 154.04 83.0446V100.516C154.04 100.686 154.043 100.854 154.049 101.019C154.044 100.854 154.041 100.686 154.041 100.516V83.0446C154.041 82.5348 154.065 82.0475 154.113 81.5826V81.5817ZM172.117 82.6656C172.114 82.7906 172.111 82.9168 172.111 83.0446V100.516C172.111 100.686 172.115 100.854 172.12 101.019C172.115 100.854 172.112 100.686 172.112 100.516V83.0446C172.112 82.9168 172.114 82.7905 172.117 82.6656ZM182.863 100.853L182.854 101.224C182.859 101.104 182.864 100.981 182.864 100.853V82.7086H182.863L182.863 100.853ZM164.792 100.853C164.792 100.981 164.789 101.104 164.783 101.224C164.789 101.104 164.793 100.981 164.793 100.853V82.7086H164.792V100.853ZM238.687 95.9088C238.665 95.9776 238.646 96.0481 238.626 96.1188C238.646 96.048 238.666 95.9777 238.688 95.9088C238.724 95.7969 238.761 95.6862 238.799 95.5768C238.761 95.6862 238.723 95.7969 238.687 95.9088ZM145.472 94.9391C145.48 94.9698 145.487 95.0009 145.494 95.0319C145.487 95.0009 145.48 94.9698 145.472 94.9391ZM140.067 94.8502V94.8492C140.031 94.775 139.99 94.7055 139.949 94.6393C139.991 94.7057 140.03 94.7757 140.067 94.8502ZM139.558 94.1705C139.612 94.2194 139.662 94.271 139.71 94.3248C139.744 94.361 139.778 94.399 139.81 94.4391C139.855 94.4962 139.898 94.5576 139.939 94.6227C139.869 94.5121 139.794 94.4125 139.711 94.3248C139.663 94.2709 139.612 94.2194 139.558 94.1705ZM145.348 94.4996C145.303 94.3563 145.255 94.2159 145.204 94.0787C145.255 94.2159 145.303 94.3563 145.348 94.4996ZM225.692 88.8356C225.615 88.9787 225.534 89.1202 225.452 89.2604L225.453 89.2604C225.535 89.1203 225.615 88.9787 225.692 88.8356ZM138.604 88.2731C138.626 88.2607 138.648 88.247 138.671 88.234C138.649 88.247 138.626 88.2607 138.604 88.2731ZM138.774 88.1715C138.798 88.1566 138.82 88.1412 138.843 88.1256C138.82 88.1412 138.798 88.1566 138.774 88.1715ZM138.933 88.0602C138.959 88.0405 138.984 88.0202 139.009 87.9996C138.984 88.0202 138.958 88.0405 138.933 88.0602ZM231.715 87.4283C231.652 87.6178 231.585 87.8049 231.513 87.9889C231.549 87.8968 231.584 87.8041 231.618 87.7106C231.652 87.6172 231.684 87.5231 231.716 87.4283H231.715ZM139.288 87.7369C139.239 87.7923 139.188 87.8442 139.134 87.8922C139.122 87.9034 139.109 87.9135 139.097 87.9244C139.109 87.9133 139.123 87.9036 139.135 87.8922C139.189 87.8443 139.239 87.7922 139.288 87.7369ZM139.988 82.7965C139.995 82.9381 139.998 83.0849 139.998 83.2369L139.998 85.109C139.998 85.277 139.994 85.4384 139.985 85.5934L139.999 85.109L139.999 83.2369C139.999 83.0849 139.996 82.9381 139.988 82.7965ZM249.268 82.1022C249.286 82.4073 249.296 82.7214 249.296 83.0446C249.296 83.4126 249.286 83.7688 249.266 84.1129H249.267C249.277 83.9408 249.284 83.7657 249.289 83.5875C249.294 83.4095 249.296 83.2285 249.296 83.0446C249.296 82.7214 249.286 82.4073 249.268 82.1022ZM172.144 82.0543C172.141 82.0942 172.14 82.1343 172.138 82.1744C172.142 82.1027 172.146 82.0314 172.151 81.9606C172.149 81.9918 172.146 82.0229 172.144 82.0543ZM249.261 81.9967C249.256 81.9269 249.251 81.8576 249.245 81.7887C249.251 81.8576 249.256 81.9269 249.261 81.9967ZM249.233 81.6608C249.231 81.6344 249.23 81.6079 249.228 81.5817C249.224 81.543 249.218 81.5047 249.214 81.4664C249.221 81.5308 249.227 81.5955 249.233 81.6608ZM249.147 80.9567C249.163 81.0609 249.177 81.1664 249.19 81.2731C249.177 81.1664 249.163 81.0609 249.147 80.9567ZM62.3066 80.6705C62.2943 80.7399 62.2827 80.8099 62.2715 80.8805C62.2826 80.8099 62.2943 80.7399 62.3066 80.6705ZM249.112 80.733C249.103 80.6796 249.093 80.6266 249.083 80.5739C249.093 80.6266 249.103 80.6796 249.112 80.733ZM50.0127 80.3619C49.9602 80.4334 49.9112 80.5104 49.8662 80.5934L49.8672 80.5934C49.9122 80.5104 49.9612 80.4334 50.0137 80.3619H50.0127ZM222.176 80.3619C222.123 80.4334 222.074 80.5104 222.029 80.5934H222.03C222.075 80.5104 222.124 80.4334 222.177 80.3619H222.176ZM62.4023 80.191C62.377 80.303 62.3531 80.4166 62.3311 80.5319C62.3531 80.4166 62.377 80.303 62.4023 80.191ZM249.034 80.3287C249.026 80.2924 249.019 80.2563 249.011 80.2203C249.019 80.2563 249.026 80.2924 249.034 80.3287ZM248.929 79.8805C248.925 79.8679 248.923 79.855 248.92 79.8424C248.912 79.8116 248.902 79.7812 248.894 79.7506C248.905 79.7937 248.917 79.8369 248.929 79.8805ZM225.477 79.6012C225.6 79.6522 225.716 79.7127 225.827 79.7828L225.715 79.7155C225.562 79.6304 225.398 79.5623 225.223 79.5114C225.31 79.5368 225.395 79.5672 225.477 79.6012ZM78.8008 79.7809H78.8018L78.8018 74.9811L78.8008 74.9811V79.7809ZM248.824 79.5114C248.817 79.4892 248.812 79.4669 248.805 79.4449C248.8 79.4288 248.793 79.4131 248.788 79.3971C248.8 79.435 248.812 79.473 248.824 79.5114ZM52.1973 79.3971C51.9893 79.3971 51.7915 79.413 51.6035 79.4449L51.8936 79.4088C51.9923 79.4009 52.0935 79.3971 52.1973 79.3971ZM248.556 78.7653C248.538 78.7217 248.52 78.6783 248.501 78.6354C248.52 78.6783 248.538 78.7217 248.556 78.7653ZM168.987 78.1373C169.087 78.3168 169.18 78.5026 169.267 78.6949L169.267 78.694C169.181 78.5019 169.087 78.3166 168.987 78.1373ZM187.059 78.1373C187.159 78.3168 187.252 78.5026 187.338 78.6949V78.694C187.252 78.5019 187.158 78.3166 187.059 78.1373ZM59.0781 78.0494C59.0617 78.0209 59.0451 77.9926 59.0283 77.9645C59.0451 77.9926 59.0617 78.0209 59.0781 78.0494ZM168.768 77.7731C168.734 77.7201 168.699 77.6675 168.664 77.6158C168.699 77.6675 168.734 77.7201 168.768 77.7731ZM186.839 77.7731C186.805 77.7201 186.771 77.6675 186.735 77.6158C186.771 77.6675 186.805 77.7201 186.839 77.7731ZM58.8721 77.7135C58.8517 77.6825 58.8304 77.6522 58.8096 77.6217C58.8304 77.6522 58.8517 77.6825 58.8721 77.7135ZM168.597 77.5182C168.556 77.4613 168.515 77.4055 168.473 77.3502C168.515 77.4055 168.556 77.4613 168.597 77.5182ZM186.668 77.5182C186.628 77.4613 186.586 77.4055 186.544 77.3502C186.586 77.4055 186.628 77.4613 186.668 77.5182ZM247.814 77.4117L247.79 77.3746C247.775 77.3533 247.758 77.3332 247.742 77.3121C247.766 77.3451 247.791 77.3782 247.814 77.4117ZM58.6592 77.4108C58.6442 77.3906 58.6295 77.3702 58.6143 77.3502C58.6295 77.3702 58.6442 77.3906 58.6592 77.4108ZM168.41 77.2682C168.371 77.2185 168.33 77.1701 168.29 77.1217C168.33 77.1701 168.371 77.2185 168.41 77.2682ZM186.481 77.2682C186.442 77.2185 186.402 77.1701 186.361 77.1217C186.402 77.1701 186.442 77.2185 186.481 77.2682ZM247.606 77.1334C247.585 77.1069 247.564 77.0804 247.543 77.0543C247.564 77.0805 247.585 77.1069 247.606 77.1334ZM58.4287 77.1188C58.4186 77.1067 58.4096 77.0937 58.3994 77.0817C58.3878 77.068 58.375 77.0552 58.3633 77.0416C58.3853 77.0671 58.4071 77.0929 58.4287 77.1188ZM168.205 77.0201C168.141 76.9468 168.076 76.8746 168.009 76.8043C168.076 76.8746 168.141 76.9468 168.205 77.0201ZM186.276 77.0201C186.212 76.9468 186.147 76.8746 186.08 76.8043C186.147 76.8746 186.212 76.9468 186.276 77.0201ZM167.764 76.5563C167.717 76.5114 167.668 76.4688 167.62 76.4254C167.668 76.4687 167.717 76.5114 167.764 76.5563ZM182.38 74.8121C183.762 75.0997 184.908 75.6742 185.815 76.5367C185.725 76.4505 185.632 76.3672 185.536 76.2867C185.154 75.9648 184.734 75.6886 184.276 75.4586C184.047 75.3436 183.809 75.2401 183.561 75.1481C183.437 75.1021 183.31 75.0584 183.182 75.0182C183.053 74.9779 182.922 74.9414 182.788 74.9069C182.521 74.8378 182.244 74.78 181.958 74.734L182.38 74.8121ZM167.514 76.3307C167.497 76.3164 167.482 76.3009 167.465 76.2867C167.433 76.2602 167.4 76.2355 167.368 76.2096C167.417 76.2493 167.466 76.2895 167.514 76.3307ZM167.221 76.0934C167.183 76.0647 167.145 76.0372 167.106 76.0094C167.145 76.0372 167.183 76.0648 167.221 76.0934ZM166.936 75.8893C166.887 75.8565 166.838 75.8241 166.789 75.7926C166.838 75.8241 166.887 75.8565 166.936 75.8893ZM166.659 75.7125C166.6 75.6767 166.541 75.6402 166.48 75.6061C166.541 75.6402 166.6 75.6767 166.659 75.7125ZM245.975 75.6647L245.937 75.6403C245.921 75.6307 245.905 75.6213 245.889 75.6119C245.918 75.629 245.946 75.6472 245.975 75.6647ZM245.812 75.568C245.765 75.5416 245.718 75.5162 245.67 75.4908C245.718 75.5162 245.765 75.5416 245.812 75.568ZM165.655 75.2145C165.904 75.3137 166.143 75.4252 166.372 75.5485C166.317 75.5186 166.262 75.4871 166.205 75.4586C166.028 75.3696 165.844 75.2897 165.655 75.2145ZM245.608 75.4586C245.569 75.438 245.529 75.417 245.488 75.3971C245.529 75.417 245.569 75.438 245.608 75.4586ZM245.37 75.3405C245.335 75.324 245.299 75.3085 245.264 75.2926C245.299 75.3085 245.335 75.3241 245.37 75.3405ZM220.724 75.2946C220.699 75.3052 220.675 75.3169 220.651 75.3278C220.705 75.3036 220.76 75.2804 220.814 75.2574C220.784 75.2701 220.754 75.2815 220.724 75.2946ZM245.182 75.2565C245.134 75.2358 245.085 75.2156 245.036 75.1959C245.085 75.2156 245.134 75.2358 245.182 75.2565ZM221.103 75.1432C221.046 75.164 220.99 75.1865 220.934 75.2086C220.989 75.1864 221.046 75.1642 221.103 75.1432ZM244.951 75.1627C244.9 75.1428 244.848 75.123 244.795 75.1041C244.848 75.123 244.9 75.1428 244.951 75.1627ZM165.519 75.1598C165.509 75.1561 165.499 75.1517 165.489 75.1481C165.422 75.1231 165.353 75.1011 165.284 75.0778C165.363 75.1045 165.442 75.1308 165.519 75.1598ZM55.25 75.0192C55.3789 75.0595 55.5057 75.102 55.6299 75.1481C55.3819 75.0561 55.1244 74.9759 54.8574 74.9069L55.25 75.0192ZM244.757 75.0905C244.695 75.0686 244.633 75.0474 244.569 75.027C244.632 75.0474 244.695 75.0686 244.757 75.0905ZM165.19 75.0455C165.114 75.0207 165.036 74.998 164.958 74.9752C165.036 74.998 165.114 75.0207 165.19 75.0455ZM164.8 74.9303C164.727 74.9107 164.653 74.8925 164.579 74.8746C164.653 74.8925 164.727 74.9107 164.8 74.9303ZM164.462 74.8463C164.368 74.8251 164.274 74.8052 164.178 74.7867C164.274 74.8052 164.368 74.8251 164.462 74.8463ZM164.095 74.7721C164.026 74.7595 163.957 74.7453 163.887 74.734C163.859 74.7295 163.83 74.7266 163.802 74.7223C163.901 74.7373 163.998 74.7544 164.095 74.7721ZM240.578 74.6305C240.274 74.6535 239.98 74.688 239.696 74.734V74.735C240.122 74.666 240.57 74.6226 241.041 74.6051C240.884 74.6108 240.73 74.619 240.578 74.6305ZM163 74.6315C163.239 74.6495 163.473 74.6755 163.7 74.7076C163.473 74.6754 163.239 74.6485 163 74.6305V74.6315ZM178.839 74.6637C178.787 74.6694 178.734 74.6749 178.683 74.6813C178.734 74.6749 178.786 74.6693 178.839 74.6637ZM223.562 74.6305C223.424 74.641 223.287 74.6553 223.152 74.6705C223.435 74.6386 223.726 74.6161 224.026 74.6051L223.562 74.6305ZM179.185 74.6305C179.145 74.6335 179.106 74.6378 179.066 74.6412C179.126 74.6361 179.185 74.6308 179.245 74.6266L179.185 74.6305ZM152.33 68.4498C151.864 68.5343 151.384 68.5807 150.894 68.5807H145.317C146.674 69.2276 147.973 70.115 149.133 71.316H149.134C149.14 71.3225 149.146 71.33 149.152 71.3365C149.17 71.3547 149.189 71.372 149.206 71.3903L149.204 71.3912C149.381 71.5753 149.552 71.7611 149.715 71.9508C149.889 71.7445 150.071 71.5415 150.26 71.3414C151.34 70.186 152.537 69.2792 153.802 68.5807H153.768C153.277 68.5807 152.796 68.5344 152.33 68.4498ZM109.153 68.5455C108.916 68.5668 108.678 68.5807 108.438 68.5807L106.658 68.5807C107.3 69.0629 107.866 69.6403 108.338 70.2906C108.809 69.6403 109.376 69.063 110.018 68.5807H109.891C109.642 68.5807 109.396 68.5677 109.153 68.5455ZM60.4512 68.5807C60.6703 68.7017 60.8878 68.8288 61.1025 68.9625C61.316 68.8288 61.5321 68.7016 61.75 68.5807H60.4512ZM77.915 66.5524C77.3261 66.8969 76.7159 67.1982 76.0869 67.4537C76.8286 67.1862 77.6213 67.0249 78.4463 66.9889C78.2627 66.8514 78.086 66.7048 77.915 66.5524ZM66.9639 60.5807C67.1879 60.6127 67.4041 60.637 67.6123 60.653L67.2949 60.6227C67.1869 60.6107 67.0769 60.5967 66.9648 60.5807L66.9648 55.7809H66.9639V60.5807ZM89.957 60.5807L89.958 60.5807L95.334 26.9811H95.333L89.957 60.5807ZM136.014 55.7809H136.015V26.9811H136.014V55.7809ZM145.565 55.7809H145.566V26.9811H145.565V55.7809ZM30.3398 55.2047C30.2679 55.2567 30.1941 55.3057 30.1182 55.3512C30.0424 55.3965 29.9645 55.4383 29.8848 55.4772V55.4781C30.0448 55.4001 30.1968 55.3087 30.3408 55.2047C30.3785 55.1789 30.4148 55.151 30.4502 55.1217C30.4147 55.1511 30.3777 55.1788 30.3398 55.2047ZM31.1904 53.5397C31.1721 53.6658 31.1507 53.7861 31.124 53.9L31.1641 53.7115C31.1744 53.6557 31.1819 53.5982 31.1904 53.5397ZM31.252 52.6129C31.2519 52.7768 31.2478 52.9337 31.2383 53.0836L31.2529 52.6129L31.2529 26.9811H31.252V52.6129ZM85.9482 177.006C85.9338 177.104 85.9204 177.203 85.9082 177.303C85.9203 177.203 85.9339 177.104 85.9482 177.006ZM86.1846 175.842C86.1542 175.957 86.1254 176.073 86.0986 176.191C86.1253 176.073 86.1542 175.957 86.1846 175.842ZM136.956 170.905C136.833 170.873 136.708 170.845 136.581 170.818C136.708 170.845 136.833 170.873 136.956 170.905ZM95.1113 129.02C95.0978 129.113 95.0848 129.207 95.0732 129.301C95.0847 129.207 95.0978 129.113 95.1113 129.02ZM145.632 143.982C145.608 143.817 145.579 143.656 145.549 143.498C145.579 143.656 145.608 143.817 145.632 143.982ZM145.54 143.449C145.537 143.434 145.535 143.419 145.532 143.405C145.507 143.278 145.477 143.154 145.447 143.032C145.481 143.168 145.512 143.307 145.54 143.449ZM145.329 142.589C145.324 142.572 145.318 142.554 145.312 142.537C145.353 142.668 145.39 142.802 145.425 142.939C145.395 142.821 145.363 142.704 145.329 142.589ZM95.3496 127.842C95.3192 127.957 95.2904 128.073 95.2637 128.191C95.2904 128.073 95.3192 127.957 95.3496 127.842ZM62.25 81.0201C62.2365 81.1129 62.2235 81.2066 62.2119 81.3014C62.2234 81.2066 62.2365 81.1129 62.25 81.0201ZM172.128 82.358C172.123 82.4596 172.12 82.5621 172.117 82.6656C172.12 82.5621 172.123 82.4596 172.128 82.358ZM145.679 95.9821C145.655 95.8174 145.626 95.6561 145.596 95.4977C145.626 95.6561 145.655 95.8174 145.679 95.9821ZM145.587 95.4489C145.584 95.4342 145.582 95.4195 145.579 95.4049C145.554 95.2784 145.524 95.1543 145.494 95.0319C145.528 95.1684 145.559 95.3073 145.587 95.4489ZM145.376 94.5895C145.371 94.5718 145.365 94.5543 145.359 94.5367C145.4 94.6682 145.437 94.8024 145.472 94.9391C145.441 94.8207 145.41 94.704 145.376 94.5895ZM62.4883 79.8424C62.4579 79.9568 62.4291 80.073 62.4023 80.191C62.4291 80.073 62.4579 79.9568 62.4883 79.8424ZM168.969 78.1051C168.925 78.0284 168.881 77.9529 168.835 77.8785C168.881 77.9529 168.925 78.0284 168.969 78.1051ZM187.04 78.1051C186.997 78.0284 186.952 77.9529 186.906 77.8785C186.952 77.9529 186.997 78.0284 187.04 78.1051Z" fill="#1C1456"/>
<g filter="url(#filter0_ii_4007_24163)">
<path d="M41.9561 12.9811C42.6245 12.9811 43.2739 13.0649 43.8945 13.2194C44.5152 13.0648 45.1645 12.9811 45.833 12.9811H60.2334C61.2144 12.9811 62.154 13.1589 63.0225 13.4821C63.8911 13.1587 64.8312 12.9811 65.8125 12.9811L82.5166 12.9811C83.736 12.9811 84.8915 13.2548 85.9258 13.7428C86.9642 13.2533 88.1209 12.9812 89.333 12.9811H97.0615L97.4277 12.9889C98.5085 13.0379 99.5389 13.3043 100.474 13.7457C101.51 13.2555 102.668 12.9811 103.891 12.9811L118.291 12.9811C118.659 12.9811 119.021 13.0081 119.376 13.0563C119.731 13.0081 120.094 12.9811 120.462 12.9811H125.693C126.442 12.9811 127.166 13.0867 127.854 13.2789C128.541 13.0866 129.265 12.9811 130.014 12.9811L135.294 12.9811C136.034 12.9811 136.75 13.0841 137.43 13.2721C138.11 13.0841 138.826 12.9811 139.565 12.9811L144.894 12.9811C145.384 12.9811 145.864 13.0275 146.33 13.1119C146.796 13.0273 147.277 12.9811 147.768 12.9811L153.048 12.9811C157.466 12.9813 161.048 16.5629 161.048 20.9811L161.048 26.3834C163.298 27.0729 165.474 28.2849 167.299 30.2633L167.3 30.2633C167.305 30.2693 167.311 30.2758 167.316 30.2819C167.333 30.2998 167.351 30.3175 167.367 30.3356L167.365 30.3356C170.485 33.7294 171.415 38.0292 171.415 41.9088V46.277C171.415 50.1562 170.484 54.4546 167.365 57.8483L167.367 57.8502C167.35 57.8687 167.332 57.8865 167.315 57.9049C167.31 57.9105 167.305 57.9169 167.3 57.9225L167.299 57.9215C165.705 59.6503 163.842 60.7932 161.896 61.5143C162.998 61.8896 164.072 62.3937 165.092 63.0446C167.877 61.2674 171.066 60.5964 174.128 60.5963C178.239 60.5964 182.577 61.8051 185.862 65.278L185.863 65.278C185.869 65.2839 185.874 65.2906 185.88 65.2965C185.894 65.3117 185.91 65.3262 185.924 65.3414L185.923 65.3414C187.587 67.1042 188.661 69.1176 189.309 71.2047L189.703 71.2047C190.223 71.2047 190.732 71.2554 191.225 71.3502L193.545 65.8649L193.667 65.5905C194.978 62.7862 197.799 60.9813 200.913 60.9811H206.673C208.248 60.9811 209.716 61.4382 210.954 62.2242C213.362 61.0518 215.986 60.5964 218.505 60.5963C221.349 60.5964 224.35 61.1774 227.012 62.7477C229.674 61.177 232.676 60.5964 235.52 60.5963C239.57 60.5963 243.993 61.7792 247.24 65.4166H247.241C250.347 68.8256 251.296 73.1228 251.296 77.0446C251.296 79.0151 251.089 81.0347 250.533 82.9889C250.114 84.5267 249.534 86.0243 248.766 87.4469C248.136 88.6619 247.419 89.8237 246.609 90.9196C246.576 90.9653 246.541 91.0112 246.506 91.0563C246.09 91.5943 245.703 92.1261 245.342 92.65C245.243 92.8113 245.148 92.9844 245.06 93.1725C245.059 93.1993 245.056 93.2317 245.056 93.2692C245.056 93.3237 245.057 93.3658 245.059 93.3961C245.059 93.4108 245.06 93.4228 245.061 93.4313C245.234 94.224 245.282 95.0284 245.215 95.8199C245.33 96.3595 245.392 96.919 245.392 97.4928V102.581C245.392 106.999 241.81 110.581 237.392 110.581H232.304C231.164 110.581 230.081 110.34 229.1 109.911C228.119 110.34 227.036 110.581 225.896 110.581H213.343C214.584 111.266 215.759 112.153 216.823 113.278H216.824C216.844 113.299 216.865 113.32 216.885 113.341H216.884C220.088 116.735 221.104 121.056 221.104 125.045V137.512C225.274 137.787 228.571 141.254 228.571 145.493L228.571 150.052C228.571 151.145 228.348 152.226 227.914 153.228L225.61 158.556C224.344 161.485 221.457 163.38 218.267 163.38H216.107C213.592 163.38 211.222 162.197 209.711 160.185C209.342 159.694 209.035 159.167 208.792 158.617C207.558 158.857 206.312 158.964 205.089 158.964C202.838 158.964 200.507 158.607 198.315 157.708C197.785 157.978 197.222 158.193 196.632 158.34C196.66 158.614 196.675 158.892 196.675 159.172V159.178C198.211 160.636 199.171 162.696 199.171 164.981L199.171 198.581C199.171 202.999 195.589 206.581 191.171 206.581L186.419 206.581C185.246 206.581 184.133 206.326 183.13 205.873C182.12 206.328 181.005 206.581 179.843 206.581L174.419 206.581C173.112 206.581 171.879 206.265 170.79 205.71C168.601 206.606 166.273 206.964 164.024 206.964C160.966 206.964 157.762 206.305 154.958 204.524C152.26 206.061 149.241 206.581 146.474 206.581L138.698 206.581C137.392 206.581 136.159 206.265 135.07 205.71C132.881 206.607 130.553 206.964 128.304 206.964C125.225 206.964 121.999 206.297 119.183 204.489C117.76 205.787 115.869 206.581 113.791 206.581L108.511 206.581C104.768 206.581 101.626 204.01 100.753 200.539C100.365 201.11 99.9311 201.666 99.4443 202.199L99.4434 202.198C96.1597 205.798 91.7395 206.964 87.6797 206.964C84.1173 206.964 80.3182 206.069 77.2178 203.484C75.7542 205.367 73.4699 206.581 70.9004 206.581L65.6201 206.581C64.1478 206.581 62.7689 206.181 61.584 205.487C59.4614 206.286 57.2376 206.581 55.1562 206.581H47.3799C46.8881 206.581 46.4067 206.534 45.9395 206.449C45.4726 206.534 44.9914 206.581 44.5 206.581H39.5078C38.8809 206.581 38.2709 206.506 37.6855 206.37C37.0978 206.507 36.4865 206.581 35.8604 206.581H30.8682C30.1927 206.581 29.5346 206.494 28.9043 206.335C28.2736 206.494 27.613 206.581 26.9326 206.581L22.3242 206.581C17.9061 206.58 14.3242 202.999 14.3242 198.581L14.3242 164.981C14.3242 161.814 16.1652 159.076 18.835 157.78C16.1655 156.484 14.3242 153.748 14.3242 150.581L14.3242 116.981C14.3242 112.792 17.5452 109.356 21.6455 109.011C19.6793 107.554 18.4043 105.216 18.4043 102.581L18.4043 81.3873C15.2005 80.3433 12.8849 77.3331 12.8848 73.7809L12.8848 68.9811C12.8848 67.085 13.5452 65.3433 14.6475 63.9723C13.2597 62.5335 12.4043 60.5774 12.4043 58.4205V49.7809C12.4043 47.5054 13.3739 45.3375 15.0693 43.8199C15.7233 43.2346 16.462 42.7681 17.252 42.4293V20.9811C17.252 16.563 20.834 12.9815 25.252 12.9811H41.9561ZM85.4326 198.754L85.4336 198.754L85.4326 198.754ZM130.908 198.672L130.964 198.661C130.981 198.656 130.998 198.651 131.015 198.646C130.979 198.655 130.944 198.664 130.908 198.672ZM39.5078 174.491V198.581L39.5088 174.485L39.5078 174.491ZM131.368 198.547C131.397 198.538 131.425 198.527 131.454 198.518C131.425 198.527 131.397 198.538 131.368 198.547ZM131.756 198.414C131.781 198.404 131.807 198.396 131.832 198.386C131.807 198.396 131.781 198.404 131.756 198.414ZM132.155 198.254C132.189 198.239 132.222 198.224 132.255 198.209C132.222 198.224 132.189 198.239 132.155 198.254ZM133.308 197.612C133.328 197.598 133.347 197.583 133.367 197.569C133.347 197.583 133.328 197.598 133.308 197.612ZM133.623 197.377C133.643 197.361 133.662 197.346 133.682 197.331C133.662 197.346 133.643 197.361 133.623 197.377ZM133.921 197.127C133.939 197.11 133.958 197.094 133.976 197.078C133.958 197.094 133.939 197.11 133.921 197.127ZM134.739 196.223C134.664 196.325 134.586 196.424 134.506 196.521L134.74 196.223C134.815 196.122 134.887 196.017 134.957 195.911L134.739 196.223ZM135.344 195.242C135.285 195.358 135.224 195.472 135.159 195.584L135.345 195.242C135.404 195.125 135.46 195.007 135.514 194.885L135.344 195.242ZM80.1689 193.657C79.9993 192.995 79.8885 192.276 79.8389 191.5C79.8492 191.662 79.8613 191.822 79.877 191.98C79.9077 192.291 79.9487 192.592 80 192.883C80.0469 193.15 80.1043 193.407 80.1689 193.657ZM130.893 192.247L130.932 192.072C130.936 192.048 130.939 192.024 130.943 192C130.928 192.085 130.912 192.167 130.893 192.247ZM130.967 191.86C130.975 191.805 130.983 191.748 130.99 191.691C130.983 191.748 130.975 191.805 130.967 191.86ZM131.006 191.552C131.015 191.459 131.023 191.363 131.028 191.264C131.023 191.363 131.015 191.459 131.006 191.552ZM120.287 190.516C120.287 190.686 120.29 190.854 120.296 191.019L120.288 190.516V173.045H120.287V190.516ZM156.008 190.516C156.008 190.686 156.011 190.854 156.017 191.019L156.009 190.516V173.045H156.008L156.008 190.516ZM166.76 190.853C166.76 191.061 166.752 191.259 166.736 191.446L166.755 191.157C166.759 191.058 166.761 190.957 166.761 190.853L166.761 172.709L166.76 172.709L166.76 190.853ZM79.9014 171.358C79.8569 171.737 79.8282 172.132 79.8154 172.542C79.8103 172.707 79.8076 172.874 79.8076 173.045V190.516C79.8076 190.835 79.8179 191.145 79.8359 191.446C79.8178 191.145 79.8086 190.835 79.8086 190.516V173.045C79.8086 172.452 79.8393 171.89 79.9014 171.358ZM131.039 190.853C131.039 190.981 131.036 191.104 131.03 191.224C131.036 191.104 131.04 190.981 131.04 190.853V172.709H131.039V190.853ZM90.5596 190.853L90.5508 191.185C90.5561 191.078 90.5605 190.967 90.5605 190.853L90.5605 186.052H90.5596L90.5596 190.853ZM80.0029 170.671C79.9906 170.74 79.9789 170.81 79.9678 170.88C79.9789 170.81 79.9906 170.74 80.0029 170.671ZM80.0986 170.191C80.0733 170.303 80.0494 170.417 80.0273 170.532C80.0494 170.417 80.0733 170.303 80.0986 170.191ZM102.99 169.781H102.991V164.981H102.99L102.99 169.781ZM131.366 165.022C132.392 165.344 133.267 165.849 133.991 166.537C133.901 166.451 133.807 166.367 133.712 166.287C133.33 165.965 132.91 165.689 132.452 165.459C132.223 165.344 131.984 165.24 131.736 165.148C131.615 165.103 131.492 165.061 131.366 165.022ZM130.956 164.905C131.089 164.939 131.219 164.976 131.348 165.016C131.219 164.976 131.089 164.939 130.956 164.905ZM130.541 164.809C130.432 164.787 130.32 164.767 130.208 164.748C130.32 164.767 130.432 164.787 130.541 164.809ZM127.015 164.664C126.962 164.669 126.91 164.675 126.858 164.681C126.91 164.675 126.962 164.669 127.015 164.664ZM162.735 164.664C162.683 164.669 162.631 164.675 162.579 164.681C162.631 164.675 162.683 164.669 162.735 164.664ZM127.36 164.63C127.321 164.633 127.281 164.638 127.242 164.641C127.301 164.636 127.361 164.631 127.421 164.627L127.36 164.63ZM163.081 164.63C163.041 164.633 163.002 164.638 162.963 164.641C163.022 164.636 163.082 164.631 163.142 164.627L163.081 164.63ZM55.2832 156.535C54.9435 156.753 54.5978 156.954 54.2471 157.138C56.2507 157.542 57.9822 158.694 59.1396 160.291C59.6111 159.64 60.1775 159.063 60.8193 158.581L60.625 158.581C58.5718 158.581 56.6995 157.806 55.2832 156.535ZM75.7002 158.581C76.278 159.015 76.7939 159.526 77.2354 160.098C77.939 159.508 78.6802 159.006 79.4463 158.581L75.7002 158.581ZM97.7441 158.943C97.443 158.956 97.1426 158.964 96.8447 158.964C96.7409 158.964 96.6365 158.96 96.5322 158.959C96.7683 159.107 97.0016 159.264 97.2314 159.429C97.3949 159.26 97.5663 159.098 97.7441 158.943ZM105.841 156.535C105.595 156.692 105.347 156.841 105.096 156.981L106.382 156.981C106.195 156.841 106.015 156.691 105.841 156.535ZM44.04 150.754H44.041H44.04ZM94.5977 150.754H94.5986H94.5977ZM138.972 146.76H138.973H138.972ZM89.3359 145.669C89.0949 144.732 88.9736 143.682 88.9736 142.516V125.045C88.9736 124.431 89.0066 123.85 89.0732 123.301C89.0249 123.698 88.9939 124.111 88.9805 124.542C88.9753 124.707 88.9727 124.874 88.9727 125.045V142.516C88.9727 143.026 88.9958 143.514 89.042 143.98C89.0727 144.291 89.1138 144.592 89.165 144.883C89.2126 145.154 89.2701 145.415 89.3359 145.669ZM48.3994 145.397C48.3826 145.414 48.3639 145.429 48.3467 145.445C48.3641 145.429 48.3834 145.414 48.4004 145.397C48.4183 145.38 48.4349 145.362 48.4521 145.344C48.4348 145.362 48.4174 145.38 48.3994 145.397ZM197.072 142.516C197.072 142.686 197.075 142.854 197.081 143.019L197.073 142.516V125.045H197.072V142.516ZM207.824 142.853L207.812 143.292C207.82 143.151 207.825 143.005 207.825 142.853V124.709H207.824L207.824 142.853ZM99.7246 142.853L99.7148 143.216C99.7212 143.099 99.7256 142.978 99.7256 142.853L99.7256 138.052L99.7246 138.052L99.7246 142.853ZM139.425 136.939C139.433 136.97 139.44 137.001 139.447 137.032C139.44 137.001 139.433 136.97 139.425 136.939ZM133.511 136.171C133.565 136.219 133.615 136.271 133.663 136.325C133.697 136.361 133.731 136.399 133.763 136.439C133.826 136.519 133.885 136.606 133.94 136.701C133.968 136.748 133.995 136.798 134.021 136.849C133.919 136.644 133.8 136.469 133.664 136.325C133.616 136.271 133.565 136.219 133.511 136.171ZM139.301 136.5C139.256 136.356 139.208 136.216 139.157 136.079C139.208 136.216 139.256 136.356 139.301 136.5ZM169.783 131.38H169.784V116.981L169.783 116.981V131.38ZM189.308 131.38L189.309 131.38V116.981H189.308V131.38ZM132.557 130.273C132.58 130.261 132.602 130.247 132.624 130.234C132.602 130.247 132.58 130.261 132.557 130.273ZM132.728 130.172C132.751 130.157 132.773 130.141 132.796 130.126C132.773 130.141 132.751 130.157 132.728 130.172ZM132.886 130.06C132.912 130.041 132.937 130.02 132.962 130C132.937 130.02 132.912 130.041 132.886 130.06ZM133.241 129.737C133.192 129.792 133.141 129.844 133.087 129.892C133.075 129.903 133.062 129.913 133.05 129.924C133.062 129.913 133.076 129.904 133.088 129.892C133.142 129.844 133.192 129.792 133.241 129.737ZM133.941 124.797C133.948 124.938 133.951 125.085 133.951 125.237V127.109C133.951 127.277 133.947 127.438 133.938 127.593L133.952 127.109L133.952 125.237C133.952 125.085 133.949 124.938 133.941 124.797ZM89.168 122.671C89.1556 122.74 89.144 122.81 89.1328 122.88C89.144 122.81 89.1556 122.74 89.168 122.671ZM44.2471 122.362C44.1946 122.433 44.1456 122.51 44.1006 122.593L44.1016 122.593C44.1466 122.51 44.1955 122.433 44.248 122.362L44.2471 122.362ZM89.2637 122.191C89.2383 122.303 89.2144 122.417 89.1924 122.532C89.2144 122.417 89.2383 122.303 89.2637 122.191ZM55.1045 121.781L55.1055 121.781V116.981H55.1045L55.1045 121.781ZM105.662 121.781L105.663 121.781L105.663 116.981H105.662V121.781ZM46.4316 121.397C46.2237 121.397 46.0258 121.413 45.8379 121.445L46.1279 121.409C46.2267 121.401 46.3279 121.397 46.4316 121.397ZM205.089 121.397C204.881 121.397 204.683 121.413 204.495 121.445L204.785 121.409C204.884 121.401 204.985 121.397 205.089 121.397ZM201.339 117.276C201.253 117.313 201.168 117.352 201.084 117.392C201.168 117.352 201.253 117.313 201.339 117.276ZM201.657 117.148C201.557 117.185 201.458 117.225 201.361 117.266C201.464 117.222 201.569 117.181 201.676 117.141L201.657 117.148ZM203.706 116.673C203.585 116.688 203.466 116.704 203.348 116.722C203.466 116.704 203.585 116.688 203.706 116.673ZM204.146 116.63C204.012 116.641 203.879 116.653 203.749 116.668C204.028 116.636 204.315 116.616 204.61 116.605L204.146 116.63ZM143.513 106.155C143.491 106.177 143.469 106.199 143.447 106.221C141.628 108.041 139.507 109.168 137.323 109.819C137.537 109.886 137.75 109.958 137.963 110.035C139.133 109.365 140.488 108.981 141.933 108.981L147.763 108.981C146.538 108.306 145.375 107.436 144.32 106.332C144.3 106.311 144.28 106.289 144.26 106.268C144.117 106.115 143.979 105.958 143.845 105.801C143.737 105.92 143.626 106.039 143.513 106.155ZM165.092 108.543C164.836 108.704 164.576 108.856 164.314 109C165.183 109.057 166.013 109.252 166.783 109.564C166.824 109.548 166.865 109.531 166.906 109.515C166.287 109.238 165.681 108.915 165.092 108.543ZM195.548 108.04C195.227 108.383 194.879 108.699 194.503 108.981H194.684C195.554 108.981 196.392 109.121 197.177 109.379C196.576 109.005 196.028 108.554 195.548 108.04ZM37.0762 108.489C36.8868 108.662 36.6897 108.827 36.4844 108.981L36.7246 108.981C37.2068 108.981 37.679 109.025 38.1377 109.107C37.7785 108.918 37.424 108.712 37.0762 108.489ZM72.9795 108.535C72.7148 108.704 72.4463 108.864 72.1748 109.013C72.4077 108.993 72.6437 108.981 72.8818 108.981L73.5205 108.981C73.3334 108.841 73.1533 108.691 72.9795 108.535ZM55.1025 108.623C54.8825 108.758 54.6601 108.888 54.4355 109.01C54.656 108.992 54.8793 108.981 55.1045 108.981L55.7119 108.981C55.5068 108.868 55.3038 108.748 55.1025 108.623ZM61.7363 102.754L61.7373 102.754L61.7363 102.754ZM159.109 102.551C158.852 102.63 158.585 102.697 158.309 102.754L158.717 102.661C158.85 102.627 158.981 102.591 159.109 102.551ZM176.732 102.672L176.788 102.661C176.805 102.656 176.822 102.651 176.839 102.646C176.804 102.655 176.768 102.664 176.732 102.672ZM177.192 102.547C177.221 102.538 177.25 102.527 177.278 102.518C177.25 102.527 177.221 102.538 177.192 102.547ZM177.58 102.414C177.605 102.404 177.631 102.396 177.656 102.386C177.631 102.396 177.605 102.404 177.58 102.414ZM177.979 102.254C178.013 102.239 178.046 102.224 178.079 102.209C178.046 102.224 178.013 102.239 177.979 102.254ZM179.147 101.602C179.183 101.578 179.217 101.552 179.252 101.527C179.217 101.552 179.183 101.578 179.147 101.602ZM179.446 101.38C179.479 101.354 179.51 101.328 179.542 101.301C179.51 101.328 179.479 101.354 179.446 101.38ZM179.757 101.116C179.773 101.101 179.79 101.087 179.807 101.072C179.79 101.087 179.773 101.101 179.757 101.116ZM162.71 99.9108C162.57 100.124 162.42 100.327 162.259 100.521L162.493 100.223C162.644 100.02 162.783 99.8065 162.912 99.5836L162.71 99.9108ZM180.781 99.9108C180.642 100.124 180.491 100.327 180.33 100.521L180.564 100.223C180.715 100.02 180.854 99.8065 180.983 99.5836L180.781 99.9108ZM52.4404 100.468C52.5057 100.388 52.569 100.306 52.6309 100.223C52.5689 100.306 52.5057 100.388 52.4404 100.468ZM52.6973 100.13C52.7374 100.074 52.7768 100.017 52.8154 99.9596C52.7769 100.017 52.7375 100.074 52.6973 100.13ZM139.019 98.7604H139.02H139.019ZM148.693 98.5143C148.706 98.546 148.72 98.5767 148.732 98.608C148.705 98.5397 148.679 98.4706 148.653 98.401L148.693 98.5143ZM56.4746 97.6686C56.2335 96.7324 56.1123 95.6815 56.1123 94.5162V77.0446C56.1123 76.431 56.1453 75.8499 56.2119 75.3014C56.1636 75.6978 56.1325 76.1112 56.1191 76.5416C56.114 76.7068 56.1113 76.8744 56.1113 77.0446V94.5162C56.1113 95.0261 56.1345 95.5141 56.1807 95.9801C56.2114 96.291 56.2525 96.5921 56.3037 96.8834C56.3513 97.1537 56.4088 97.4153 56.4746 97.6686ZM48.165 97.4449C48.1051 97.5048 48.0429 97.5615 47.9775 97.6139C48.0431 97.5614 48.106 97.505 48.166 97.4449C48.1981 97.4129 48.2288 97.3792 48.2588 97.3444C48.2287 97.3793 48.1972 97.4128 48.165 97.4449ZM158.646 96.2467L158.685 96.0719C158.689 96.0482 158.692 96.0238 158.696 95.9996C158.681 96.0846 158.665 96.1672 158.646 96.2467ZM158.72 95.86C158.728 95.8047 158.736 95.7485 158.743 95.691C158.736 95.7485 158.728 95.8047 158.72 95.86ZM158.759 95.5524C158.768 95.459 158.776 95.363 158.781 95.2643C158.776 95.363 158.768 95.459 158.759 95.5524ZM148.113 75.5817C148.065 76.0468 148.04 76.5344 148.04 77.0446V94.5162C148.04 94.6863 148.043 94.854 148.049 95.0192C148.044 94.8539 148.041 94.6862 148.041 94.5162V77.0446C148.041 76.5348 148.065 76.0475 148.113 75.5826V75.5817ZM166.117 76.6656C166.114 76.7906 166.111 76.9168 166.111 77.0446V94.5162C166.111 94.6863 166.115 94.854 166.12 95.0192C166.115 94.8539 166.112 94.6862 166.112 94.5162V77.0446C166.112 76.9168 166.114 76.7905 166.117 76.6656ZM176.863 94.8531L176.854 95.2242C176.859 95.1044 176.864 94.9808 176.864 94.8531V76.7086H176.863V94.8531ZM158.792 94.8531C158.792 94.9807 158.789 95.1044 158.783 95.2242C158.789 95.1044 158.793 94.9807 158.793 94.8531L158.793 76.7086H158.792V94.8531ZM232.688 89.9088C232.665 89.9776 232.646 90.0481 232.626 90.1188C232.646 90.048 232.666 89.9777 232.688 89.9088C232.724 89.7969 232.761 89.6862 232.799 89.5768C232.761 89.6862 232.723 89.7969 232.688 89.9088ZM139.472 88.9391C139.48 88.9698 139.487 89.0009 139.494 89.0319C139.487 89.0009 139.48 88.9698 139.472 88.9391ZM134.067 88.8502V88.8492C134.031 88.775 133.99 88.7055 133.949 88.6393C133.991 88.7057 134.03 88.7757 134.067 88.8502ZM133.558 88.1705C133.612 88.2194 133.662 88.271 133.71 88.3248C133.744 88.361 133.778 88.399 133.81 88.4391C133.855 88.4962 133.898 88.5576 133.939 88.6227C133.869 88.5121 133.794 88.4125 133.711 88.3248C133.663 88.2709 133.612 88.2194 133.558 88.1705ZM139.348 88.4996C139.303 88.3563 139.255 88.2159 139.204 88.0787C139.255 88.2159 139.303 88.3563 139.348 88.4996ZM219.692 82.8356C219.615 82.9787 219.534 83.1202 219.452 83.2604L219.453 83.2604C219.535 83.1203 219.615 82.9787 219.692 82.8356ZM132.604 82.2731C132.626 82.2607 132.648 82.247 132.671 82.234C132.649 82.247 132.626 82.2607 132.604 82.2731ZM132.774 82.1715C132.798 82.1566 132.82 82.1412 132.843 82.1256C132.82 82.1412 132.798 82.1566 132.774 82.1715ZM132.933 82.0602C132.959 82.0405 132.984 82.0202 133.009 81.9996C132.984 82.0202 132.958 82.0405 132.933 82.0602ZM225.715 81.4283C225.652 81.6178 225.585 81.8049 225.513 81.9889C225.549 81.8968 225.584 81.8041 225.618 81.7106C225.652 81.6172 225.684 81.5231 225.716 81.4283L225.715 81.4283ZM133.288 81.7369C133.239 81.7923 133.188 81.8442 133.134 81.8922C133.122 81.9034 133.109 81.9135 133.097 81.9244C133.109 81.9133 133.123 81.9036 133.135 81.8922C133.189 81.8443 133.239 81.7922 133.288 81.7369ZM133.988 76.7965C133.995 76.9381 133.998 77.0849 133.998 77.2369L133.998 79.109C133.998 79.277 133.994 79.4384 133.985 79.5934L133.999 79.109V77.2369C133.999 77.0849 133.996 76.9381 133.988 76.7965ZM243.268 76.1022C243.286 76.4073 243.296 76.7214 243.296 77.0446C243.296 77.4126 243.286 77.7688 243.266 78.1129L243.267 78.1129C243.277 77.9408 243.284 77.7657 243.289 77.5875C243.294 77.4095 243.296 77.2285 243.296 77.0446C243.296 76.7214 243.286 76.4073 243.268 76.1022ZM166.144 76.0543C166.141 76.0942 166.14 76.1343 166.138 76.1744C166.142 76.1027 166.146 76.0314 166.151 75.9606C166.149 75.9918 166.146 76.0229 166.144 76.0543ZM243.261 75.9967C243.256 75.9269 243.251 75.8576 243.245 75.7887C243.251 75.8576 243.256 75.9269 243.261 75.9967ZM243.233 75.6608C243.231 75.6344 243.23 75.6079 243.228 75.5817C243.224 75.543 243.218 75.5047 243.214 75.4664C243.221 75.5308 243.227 75.5955 243.233 75.6608ZM243.147 74.9567C243.163 75.0609 243.177 75.1664 243.19 75.2731C243.177 75.1664 243.163 75.0609 243.147 74.9567ZM56.3066 74.6705C56.2943 74.7399 56.2827 74.8099 56.2715 74.8805C56.2826 74.8099 56.2943 74.7399 56.3066 74.6705ZM243.112 74.733C243.103 74.6796 243.093 74.6266 243.083 74.5739C243.093 74.6266 243.103 74.6796 243.112 74.733ZM44.0127 74.3619C43.9602 74.4334 43.9112 74.5104 43.8662 74.5934H43.8672C43.9122 74.5104 43.9612 74.4334 44.0137 74.3619H44.0127ZM216.176 74.3619C216.123 74.4334 216.074 74.5104 216.029 74.5934H216.03C216.075 74.5104 216.124 74.4334 216.177 74.3619H216.176ZM56.4023 74.191C56.377 74.303 56.3531 74.4166 56.3311 74.5319C56.3531 74.4166 56.377 74.303 56.4023 74.191ZM243.034 74.3287C243.026 74.2924 243.019 74.2563 243.011 74.2203C243.019 74.2563 243.026 74.2924 243.034 74.3287ZM242.929 73.8805C242.925 73.8679 242.923 73.855 242.92 73.8424C242.912 73.8116 242.902 73.7812 242.894 73.7506C242.905 73.7937 242.917 73.8369 242.929 73.8805ZM219.477 73.6012C219.6 73.6522 219.716 73.7127 219.827 73.7828L219.715 73.7155C219.562 73.6304 219.398 73.5623 219.223 73.5114C219.31 73.5368 219.395 73.5672 219.477 73.6012ZM72.8008 73.7809H72.8018L72.8018 68.9811L72.8008 68.9811L72.8008 73.7809ZM242.824 73.5114C242.817 73.4892 242.812 73.4669 242.805 73.4449C242.8 73.4288 242.793 73.4131 242.788 73.3971C242.8 73.435 242.812 73.473 242.824 73.5114ZM46.1973 73.3971C45.9893 73.3971 45.7915 73.413 45.6035 73.4449L45.8936 73.4088C45.9923 73.4009 46.0935 73.3971 46.1973 73.3971ZM242.556 72.7653C242.538 72.7217 242.52 72.6783 242.501 72.6354C242.52 72.6783 242.538 72.7217 242.556 72.7653ZM162.987 72.1373C163.087 72.3168 163.18 72.5026 163.267 72.6949V72.694C163.181 72.5019 163.087 72.3166 162.987 72.1373ZM181.059 72.1373C181.159 72.3168 181.252 72.5026 181.338 72.6949V72.694C181.252 72.5019 181.158 72.3166 181.059 72.1373ZM53.0781 72.0494C53.0617 72.0209 53.0451 71.9926 53.0283 71.9645C53.0451 71.9926 53.0617 72.0209 53.0781 72.0494ZM162.768 71.7731C162.734 71.7201 162.699 71.6675 162.664 71.6158C162.699 71.6675 162.734 71.7201 162.768 71.7731ZM180.839 71.7731C180.805 71.7201 180.771 71.6675 180.735 71.6158C180.771 71.6675 180.805 71.7201 180.839 71.7731ZM52.8721 71.7135C52.8517 71.6825 52.8304 71.6522 52.8096 71.6217C52.8304 71.6522 52.8517 71.6825 52.8721 71.7135ZM162.597 71.5182C162.556 71.4613 162.515 71.4055 162.473 71.3502C162.515 71.4055 162.556 71.4613 162.597 71.5182ZM180.668 71.5182C180.628 71.4613 180.586 71.4055 180.544 71.3502C180.586 71.4055 180.628 71.4613 180.668 71.5182ZM241.814 71.4117L241.79 71.3746C241.775 71.3533 241.758 71.3332 241.742 71.3121C241.766 71.3451 241.791 71.3782 241.814 71.4117ZM52.6592 71.4108C52.6442 71.3906 52.6295 71.3702 52.6143 71.3502C52.6295 71.3702 52.6442 71.3906 52.6592 71.4108ZM162.41 71.2682C162.371 71.2185 162.33 71.1701 162.29 71.1217C162.33 71.1701 162.371 71.2185 162.41 71.2682ZM180.481 71.2682C180.442 71.2185 180.402 71.1701 180.361 71.1217C180.402 71.1701 180.442 71.2185 180.481 71.2682ZM241.606 71.1334C241.585 71.1069 241.564 71.0804 241.543 71.0543C241.564 71.0805 241.585 71.1069 241.606 71.1334ZM52.4287 71.1188C52.4186 71.1067 52.4096 71.0937 52.3994 71.0817C52.3878 71.068 52.375 71.0552 52.3633 71.0416C52.3853 71.0671 52.4071 71.0929 52.4287 71.1188ZM162.205 71.0201C162.141 70.9468 162.076 70.8746 162.009 70.8043C162.076 70.8746 162.141 70.9468 162.205 71.0201ZM180.276 71.0201C180.212 70.9468 180.147 70.8746 180.08 70.8043C180.147 70.8746 180.212 70.9468 180.276 71.0201ZM161.764 70.5563C161.717 70.5114 161.668 70.4688 161.62 70.4254C161.668 70.4687 161.717 70.5114 161.764 70.5563ZM176.38 68.8121C177.762 69.0997 178.908 69.6742 179.815 70.5367C179.725 70.4505 179.632 70.3672 179.536 70.2867C179.154 69.9648 178.734 69.6886 178.276 69.4586C178.047 69.3436 177.809 69.2401 177.561 69.1481C177.437 69.1021 177.31 69.0584 177.182 69.0182C177.053 68.9779 176.922 68.9414 176.788 68.9069C176.521 68.8378 176.244 68.78 175.958 68.734L176.38 68.8121ZM161.514 70.3307C161.497 70.3164 161.482 70.3009 161.465 70.2867C161.433 70.2602 161.4 70.2355 161.368 70.2096C161.417 70.2493 161.466 70.2895 161.514 70.3307ZM161.221 70.0934C161.183 70.0647 161.145 70.0372 161.106 70.0094C161.145 70.0372 161.183 70.0648 161.221 70.0934ZM160.936 69.8893C160.887 69.8565 160.838 69.8241 160.789 69.7926C160.838 69.8241 160.887 69.8565 160.936 69.8893ZM160.659 69.7125C160.6 69.6767 160.541 69.6402 160.48 69.6061C160.541 69.6402 160.6 69.6767 160.659 69.7125ZM239.975 69.6647L239.937 69.6403C239.921 69.6307 239.905 69.6213 239.889 69.6119C239.918 69.629 239.946 69.6472 239.975 69.6647ZM239.812 69.568C239.765 69.5416 239.718 69.5162 239.67 69.4908C239.718 69.5162 239.765 69.5416 239.812 69.568ZM159.655 69.2145C159.904 69.3137 160.143 69.4252 160.372 69.5485C160.317 69.5186 160.262 69.4871 160.205 69.4586C160.028 69.3696 159.844 69.2897 159.655 69.2145ZM239.608 69.4586C239.569 69.438 239.529 69.417 239.488 69.3971C239.529 69.417 239.569 69.438 239.608 69.4586ZM239.37 69.3405C239.335 69.324 239.299 69.3085 239.264 69.2926C239.299 69.3085 239.335 69.3241 239.37 69.3405ZM214.724 69.2946C214.699 69.3052 214.675 69.3169 214.651 69.3278C214.705 69.3036 214.76 69.2804 214.814 69.2574C214.784 69.2701 214.754 69.2815 214.724 69.2946ZM239.182 69.2565C239.134 69.2358 239.085 69.2156 239.036 69.1959C239.085 69.2156 239.134 69.2358 239.182 69.2565ZM215.103 69.1432C215.046 69.164 214.99 69.1865 214.934 69.2086C214.989 69.1864 215.046 69.1642 215.103 69.1432ZM238.951 69.1627C238.9 69.1428 238.848 69.123 238.795 69.1041C238.848 69.123 238.9 69.1428 238.951 69.1627ZM159.519 69.1598C159.509 69.1561 159.499 69.1517 159.489 69.1481C159.422 69.1231 159.353 69.1011 159.284 69.0778C159.363 69.1045 159.442 69.1308 159.519 69.1598ZM49.25 69.0192C49.3789 69.0595 49.5057 69.102 49.6299 69.1481C49.3819 69.0561 49.1244 68.9759 48.8574 68.9069L49.25 69.0192ZM238.757 69.0905C238.695 69.0686 238.633 69.0474 238.569 69.027C238.632 69.0474 238.695 69.0686 238.757 69.0905ZM159.19 69.0455C159.114 69.0207 159.036 68.998 158.958 68.9752C159.036 68.998 159.114 69.0207 159.19 69.0455ZM158.8 68.9303C158.727 68.9107 158.653 68.8925 158.579 68.8746C158.653 68.8925 158.727 68.9107 158.8 68.9303ZM158.462 68.8463C158.368 68.8251 158.274 68.8052 158.178 68.7867C158.274 68.8052 158.368 68.8251 158.462 68.8463ZM158.095 68.7721C158.026 68.7595 157.957 68.7453 157.887 68.734C157.859 68.7295 157.83 68.7266 157.802 68.7223C157.901 68.7373 157.998 68.7544 158.095 68.7721ZM234.578 68.6305C234.274 68.6535 233.98 68.688 233.696 68.734V68.735C234.122 68.666 234.57 68.6226 235.041 68.6051C234.884 68.6108 234.73 68.619 234.578 68.6305ZM157 68.6315C157.239 68.6495 157.473 68.6755 157.7 68.7076C157.473 68.6754 157.239 68.6485 157 68.6305V68.6315ZM172.839 68.6637C172.787 68.6694 172.734 68.6749 172.683 68.6813C172.734 68.6749 172.786 68.6693 172.839 68.6637ZM217.562 68.6305C217.424 68.641 217.287 68.6553 217.152 68.6705C217.435 68.6386 217.726 68.6161 218.026 68.6051L217.562 68.6305ZM173.185 68.6305C173.145 68.6335 173.106 68.6378 173.066 68.6412C173.126 68.6361 173.185 68.6308 173.245 68.6266L173.185 68.6305ZM146.33 62.4498C145.864 62.5343 145.384 62.5807 144.894 62.5807L139.317 62.5807C140.674 63.2276 141.973 64.115 143.133 65.316H143.134C143.14 65.3225 143.146 65.33 143.152 65.3365C143.17 65.3547 143.189 65.372 143.206 65.3903L143.204 65.3912C143.381 65.5753 143.552 65.7611 143.715 65.9508C143.889 65.7445 144.071 65.5415 144.26 65.3414C145.34 64.186 146.537 63.2792 147.802 62.5807L147.768 62.5807C147.277 62.5807 146.796 62.5344 146.33 62.4498ZM103.153 62.5455C102.916 62.5668 102.678 62.5807 102.438 62.5807H100.658C101.3 63.0629 101.866 63.6403 102.338 64.2906C102.809 63.6403 103.376 63.063 104.018 62.5807L103.891 62.5807C103.642 62.5807 103.396 62.5677 103.153 62.5455ZM54.4512 62.5807C54.6703 62.7017 54.8878 62.8288 55.1025 62.9625C55.316 62.8288 55.5321 62.7016 55.75 62.5807H54.4512ZM71.915 60.5524C71.3261 60.8969 70.7159 61.1982 70.0869 61.4537C70.8286 61.1862 71.6213 61.0249 72.4463 60.9889C72.2627 60.8514 72.086 60.7048 71.915 60.5524ZM60.9639 54.5807C61.1879 54.6127 61.4041 54.637 61.6123 54.653L61.2949 54.6227C61.1869 54.6107 61.0769 54.5967 60.9648 54.5807L60.9648 49.7809H60.9639L60.9639 54.5807ZM83.957 54.5807L83.958 54.5807L89.334 20.9811L89.333 20.9811L83.957 54.5807ZM130.014 49.7809H130.015V20.9811H130.014V49.7809ZM139.565 49.7809H139.566V20.9811H139.565V49.7809ZM24.3398 49.2047C24.2679 49.2567 24.1941 49.3057 24.1182 49.3512C24.0424 49.3965 23.9645 49.4383 23.8848 49.4772V49.4781C24.0448 49.4001 24.1968 49.3087 24.3408 49.2047C24.3785 49.1789 24.4148 49.151 24.4502 49.1217C24.4147 49.1511 24.3777 49.1788 24.3398 49.2047ZM25.1904 47.5397C25.1721 47.6658 25.1507 47.7861 25.124 47.9L25.1641 47.7115C25.1744 47.6557 25.1819 47.5982 25.1904 47.5397ZM25.252 46.6129C25.2519 46.7768 25.2478 46.9337 25.2383 47.0836L25.2529 46.6129L25.2529 20.9811H25.252L25.252 46.6129ZM79.9482 171.006C79.9338 171.104 79.9204 171.203 79.9082 171.303C79.9203 171.203 79.9339 171.104 79.9482 171.006ZM80.1846 169.842C80.1542 169.957 80.1254 170.073 80.0986 170.191C80.1253 170.073 80.1542 169.957 80.1846 169.842ZM130.956 164.905C130.833 164.873 130.708 164.845 130.581 164.818C130.708 164.845 130.833 164.873 130.956 164.905ZM89.1113 123.02C89.0978 123.113 89.0848 123.207 89.0732 123.301C89.0847 123.207 89.0978 123.113 89.1113 123.02ZM139.632 137.982C139.608 137.817 139.579 137.656 139.549 137.498C139.579 137.656 139.608 137.817 139.632 137.982ZM139.54 137.449C139.537 137.434 139.535 137.419 139.532 137.405C139.507 137.278 139.477 137.154 139.447 137.032C139.481 137.168 139.512 137.307 139.54 137.449ZM139.329 136.589C139.324 136.572 139.318 136.554 139.312 136.537C139.353 136.668 139.39 136.802 139.425 136.939C139.395 136.821 139.363 136.704 139.329 136.589ZM89.3496 121.842C89.3192 121.957 89.2904 122.073 89.2637 122.191C89.2904 122.073 89.3192 121.957 89.3496 121.842ZM56.25 75.0201C56.2365 75.1129 56.2235 75.2066 56.2119 75.3014C56.2234 75.2066 56.2365 75.1129 56.25 75.0201ZM166.128 76.358C166.123 76.4596 166.12 76.5621 166.117 76.6656C166.12 76.5621 166.123 76.4596 166.128 76.358ZM139.679 89.9821C139.655 89.8174 139.626 89.6561 139.596 89.4977C139.626 89.6561 139.655 89.8174 139.679 89.9821ZM139.587 89.4489C139.584 89.4342 139.582 89.4195 139.579 89.4049C139.554 89.2784 139.524 89.1543 139.494 89.0319C139.528 89.1684 139.559 89.3073 139.587 89.4489ZM139.376 88.5895C139.371 88.5718 139.365 88.5543 139.359 88.5367C139.4 88.6682 139.437 88.8024 139.472 88.9391C139.441 88.8207 139.41 88.704 139.376 88.5895ZM56.4883 73.8424C56.4579 73.9568 56.4291 74.073 56.4023 74.191C56.4291 74.073 56.4579 73.9568 56.4883 73.8424ZM162.969 72.1051C162.925 72.0284 162.881 71.9529 162.835 71.8785C162.881 71.9529 162.925 72.0284 162.969 72.1051ZM181.04 72.1051C180.997 72.0284 180.952 71.9529 180.906 71.8785C180.952 71.9529 180.997 72.0284 181.04 72.1051Z" fill="#E54B39"/>
</g>
<path d="M20.4043 49.7807C20.6923 49.8127 20.9963 49.8287 21.3163 49.8287C21.6363 49.8287 21.9403 49.8287 22.2283 49.8287C23.0603 49.8287 23.7643 49.6207 24.3403 49.2047C24.9483 48.7887 25.2523 47.9247 25.2523 46.6127V20.9807H41.9563V49.7807H44.6443V58.4207H39.2683V54.5807H25.7803V58.4207H20.4043V49.7807ZM30.5323 46.2287C30.5323 47.6367 30.3883 48.8207 30.1003 49.7807H36.6763V25.7807H30.5323V46.2287ZM51.113 35.1407H58.361V39.9407H51.113V49.7807H60.233V54.5807H45.833V20.9807H60.233V25.7807H51.113V35.1407ZM77.2363 25.7807H71.0923V46.2287C71.0923 47.9247 70.8843 49.3167 70.4683 50.4047C70.0523 51.4927 69.4923 52.3567 68.7883 52.9967C68.0843 53.6047 67.2683 54.0367 66.3403 54.2927C65.4443 54.5487 64.5003 54.6767 63.5083 54.6767C63.0283 54.6767 62.5963 54.6767 62.2123 54.6767C61.8283 54.6767 61.4123 54.6447 60.9643 54.5807V49.7807C61.2523 49.8127 61.5563 49.8287 61.8763 49.8287C62.1963 49.8287 62.5003 49.8287 62.7883 49.8287C63.6203 49.8287 64.3243 49.6207 64.9003 49.2047C65.5083 48.7887 65.8123 47.9247 65.8123 46.6127V20.9807H82.5163V54.5807H77.2363V25.7807ZM102.437 54.5807H97.1094L96.1974 48.4847H89.7174L88.8054 54.5807H83.9574L89.3334 20.9807L97.0614 20.9807L102.437 54.5807ZM90.3894 43.9247H95.4774L92.9334 26.9327L90.3894 43.9247ZM109.171 35.1407H116.419V39.9407H109.171V49.7807H118.291V54.5807H103.891V20.9807H118.291V25.7807H109.171V35.1407ZM135.294 49.7807H139.566V20.9807H144.894V54.5807H120.462V20.9807H125.694V49.7807H130.014V20.9807H135.294V49.7807ZM155.543 49.7807C156.375 49.7807 157.015 49.5567 157.463 49.1087C157.911 48.6607 158.135 47.8287 158.135 46.6127V41.5727C158.135 40.3567 157.911 39.5247 157.463 39.0767C157.015 38.6287 156.375 38.4047 155.543 38.4047H153.047V49.7807H155.543ZM147.767 54.5807V20.9807H153.047V33.6047H155.543C158.199 33.6047 160.167 34.3087 161.447 35.7167C162.759 37.1247 163.415 39.1887 163.415 41.9087V46.2767C163.415 48.9967 162.759 51.0607 161.447 52.4687C160.167 53.8767 158.199 54.5807 155.543 54.5807L147.767 54.5807ZM20.8843 68.9807H37.2043V73.7807H31.6843V102.581H26.4043L26.4043 73.7807H20.8843V68.9807ZM43.4612 94.8527C43.4612 96.0687 43.7012 96.9327 44.1812 97.4447C44.6932 97.9247 45.3652 98.1647 46.1972 98.1647C47.0292 98.1647 47.6852 97.9247 48.1652 97.4447C48.6772 96.9327 48.9332 96.0687 48.9332 94.8527V76.7087C48.9332 75.4927 48.6772 74.6447 48.1652 74.1647C47.6852 73.6527 47.0292 73.3967 46.1972 73.3967C45.3652 73.3967 44.6932 73.6527 44.1812 74.1647C43.7012 74.6447 43.4612 75.4927 43.4612 76.7087V94.8527ZM38.1812 77.0447C38.1812 74.3247 38.8692 72.2447 40.2452 70.8047C41.6212 69.3327 43.6052 68.5967 46.1972 68.5967C48.7892 68.5967 50.7732 69.3327 52.1492 70.8047C53.5252 72.2447 54.2132 74.3247 54.2132 77.0447V94.5167C54.2132 97.2367 53.5252 99.3327 52.1492 100.805C50.7732 102.245 48.7892 102.965 46.1972 102.965C43.6052 102.965 41.6212 102.245 40.2452 100.805C38.8692 99.3327 38.1812 97.2367 38.1812 94.5167V77.0447ZM71.8558 90.0527V94.5167C71.8558 97.2367 71.1838 99.3327 69.8398 100.805C68.5278 102.245 66.5758 102.965 63.9838 102.965C61.3918 102.965 59.4238 102.245 58.0798 100.805C56.7678 99.3327 56.1118 97.2367 56.1118 94.5167V77.0447C56.1118 74.3247 56.7678 72.2447 58.0798 70.8047C59.4238 69.3327 61.3918 68.5967 63.9838 68.5967C66.5758 68.5967 68.5278 69.3327 69.8398 70.8047C71.1838 72.2447 71.8558 74.3247 71.8558 77.0447V80.3087H66.8638V76.7087C66.8638 75.4927 66.6078 74.6447 66.0958 74.1647C65.6158 73.6527 64.9598 73.3967 64.1278 73.3967C63.2958 73.3967 62.6238 73.6527 62.1118 74.1647C61.6318 74.6447 61.3918 75.4927 61.3918 76.7087V94.8527C61.3918 96.0687 61.6318 96.9167 62.1118 97.3967C62.6238 97.8767 63.2958 98.1167 64.1278 98.1167C64.9598 98.1167 65.6158 97.8767 66.0958 97.3967C66.6078 96.9167 66.8638 96.0687 66.8638 94.8527V90.0527H71.8558ZM72.8012 68.9807H89.1212V73.7807H83.6012V102.581H78.3212V73.7807H72.8012V68.9807ZM98.3541 97.7807C99.1861 97.7807 99.8261 97.5567 100.274 97.1087C100.722 96.6607 100.946 95.8287 100.946 94.6127V89.5727C100.946 88.3567 100.722 87.5247 100.274 87.0767C99.8261 86.6287 99.1861 86.4047 98.3541 86.4047H95.8581V97.7807H98.3541ZM90.5781 102.581V68.9807H95.8581V81.6047H98.3541C101.01 81.6047 102.978 82.3087 104.258 83.7167C105.57 85.1247 106.226 87.1887 106.226 89.9087V94.2767C106.226 96.9967 105.57 99.0607 104.258 100.469C102.978 101.877 101.01 102.581 98.3541 102.581H90.5781ZM108.818 68.9807H114.098V102.581H108.818V68.9807ZM131.454 68.9807C134.206 68.9807 136.19 69.6207 137.406 70.9007C138.654 72.1807 139.278 74.1167 139.278 76.7087V77.9087C139.278 79.6367 139.006 81.0607 138.462 82.1807C137.918 83.3007 137.054 84.1327 135.87 84.6767C137.31 85.2207 138.318 86.1167 138.894 87.3647C139.502 88.5807 139.806 90.0847 139.806 91.8767V94.6127C139.806 97.2047 139.134 99.1887 137.79 100.565C136.446 101.909 134.446 102.581 131.79 102.581H123.486V68.9807H131.454ZM128.766 87.4607V97.7807H131.79C132.686 97.7807 133.358 97.5407 133.806 97.0607C134.286 96.5807 134.526 95.7167 134.526 94.4687V91.5407C134.526 89.9727 134.254 88.9007 133.71 88.3247C133.198 87.7487 132.334 87.4607 131.118 87.4607H128.766ZM128.766 73.7807V82.6607H130.83C131.822 82.6607 132.59 82.4047 133.134 81.8927C133.71 81.3807 133.998 80.4527 133.998 79.1087V77.2367C133.998 76.0207 133.774 75.1407 133.326 74.5967C132.91 74.0527 132.238 73.7807 131.31 73.7807H128.766ZM153.32 94.8527C153.32 96.0687 153.56 96.9327 154.04 97.4447C154.552 97.9247 155.224 98.1647 156.056 98.1647C156.888 98.1647 157.544 97.9247 158.024 97.4447C158.536 96.9327 158.792 96.0687 158.792 94.8527V76.7087C158.792 75.4927 158.536 74.6447 158.024 74.1647C157.544 73.6527 156.888 73.3967 156.056 73.3967C155.224 73.3967 154.552 73.6527 154.04 74.1647C153.56 74.6447 153.32 75.4927 153.32 76.7087V94.8527ZM148.04 77.0447C148.04 74.3247 148.728 72.2447 150.104 70.8047C151.48 69.3327 153.464 68.5967 156.056 68.5967C158.648 68.5967 160.632 69.3327 162.008 70.8047C163.384 72.2447 164.072 74.3247 164.072 77.0447V94.5167C164.072 97.2367 163.384 99.3327 162.008 100.805C160.632 102.245 158.648 102.965 156.056 102.965C153.464 102.965 151.48 102.245 150.104 100.805C148.728 99.3327 148.04 97.2367 148.04 94.5167V77.0447ZM171.392 94.8527C171.392 96.0687 171.632 96.9327 172.112 97.4447C172.624 97.9247 173.296 98.1647 174.128 98.1647C174.96 98.1647 175.616 97.9247 176.096 97.4447C176.608 96.9327 176.864 96.0687 176.864 94.8527V76.7087C176.864 75.4927 176.608 74.6447 176.096 74.1647C175.616 73.6527 174.96 73.3967 174.128 73.3967C173.296 73.3967 172.624 73.6527 172.112 74.1647C171.632 74.6447 171.392 75.4927 171.392 76.7087V94.8527ZM166.112 77.0447C166.112 74.3247 166.8 72.2447 168.176 70.8047C169.552 69.3327 171.536 68.5967 174.128 68.5967C176.72 68.5967 178.704 69.3327 180.08 70.8047C181.456 72.2447 182.144 74.3247 182.144 77.0447V94.5167C182.144 97.2367 181.456 99.3327 180.08 100.805C178.704 102.245 176.72 102.965 174.128 102.965C171.536 102.965 169.552 102.245 168.176 100.805C166.8 99.3327 166.112 97.2367 166.112 94.5167V77.0447ZM189.703 97.4927V102.581H184.615V97.4927H189.703ZM189.703 79.2047V84.2927H184.615V79.2047H189.703ZM191.313 91.6847L200.913 68.9807H206.673V91.6847H209.169V96.4847H206.673V102.581H201.393V96.4847H191.313V91.6847ZM201.393 91.6847V79.2527L196.161 91.6847H201.393ZM221.096 77.2367C221.096 75.7327 220.84 74.7247 220.328 74.2127C219.848 73.6687 219.192 73.3967 218.36 73.3967C217.528 73.3967 216.856 73.6527 216.344 74.1647C215.864 74.6447 215.624 75.4927 215.624 76.7087V80.3087H210.632V77.0447C210.632 74.3247 211.288 72.2447 212.6 70.8047C213.944 69.3327 215.912 68.5967 218.504 68.5967C221.096 68.5967 223.048 69.3327 224.36 70.8047C225.704 72.2447 226.376 74.3247 226.376 77.0447C226.376 78.8687 226.088 80.5167 225.512 81.9887C224.968 83.4607 224.28 84.8047 223.448 86.0207C222.616 87.2367 221.72 88.3567 220.76 89.3807C219.8 90.3727 218.936 91.3327 218.168 92.2607C217.4 93.1567 216.792 94.0527 216.344 94.9487C215.896 95.8447 215.752 96.7887 215.912 97.7807H225.896V102.581H210.632V98.4527C210.632 96.8207 210.888 95.3807 211.4 94.1327C211.912 92.8847 212.552 91.7487 213.32 90.7247C214.12 89.6687 214.968 88.6927 215.864 87.7967C216.76 86.8687 217.592 85.8927 218.36 84.8687C219.16 83.8447 219.816 82.7247 220.328 81.5087C220.84 80.2927 221.096 78.8687 221.096 77.2367ZM232.544 95.1407C232.352 94.5647 232.256 93.8767 232.256 93.0767C232.256 91.8607 232.4 90.8047 232.688 89.9087C232.976 89.0127 233.328 88.1967 233.744 87.4607C234.16 86.6927 234.624 85.9727 235.136 85.3007C235.648 84.5967 236.112 83.8447 236.528 83.0447C236.944 82.2447 237.296 81.3487 237.584 80.3567C237.872 79.3327 238.016 78.1167 238.016 76.7087C238.016 75.4927 237.776 74.6447 237.296 74.1647C236.848 73.6527 236.208 73.3967 235.376 73.3967C234.544 73.3967 233.888 73.6527 233.408 74.1647C232.96 74.6447 232.736 75.4927 232.736 76.7087V80.3567H227.744V77.0447C227.744 74.3247 228.384 72.2447 229.664 70.8047C230.976 69.3327 232.928 68.5967 235.52 68.5967C238.112 68.5967 240.048 69.3327 241.328 70.8047C242.64 72.2447 243.296 74.3247 243.296 77.0447C243.296 78.5167 243.136 79.7967 242.816 80.8847C242.528 81.9407 242.144 82.9007 241.664 83.7647C241.216 84.6287 240.72 85.4287 240.176 86.1647C239.632 86.8687 239.12 87.5727 238.64 88.2767C238.192 88.9807 237.808 89.7327 237.488 90.5327C237.2 91.3327 237.056 92.2447 237.056 93.2687C237.056 93.9727 237.12 94.5967 237.248 95.1407H232.544ZM237.392 97.4927V102.581H232.304V97.4927H237.392ZM27.6043 131.141H34.8523V135.941H27.6043V145.781H36.7243V150.581H22.3243V116.981H36.7243V121.781H27.6043V131.141ZM54.1595 138.053V142.517C54.1595 145.237 53.4875 147.333 52.1435 148.805C50.8315 150.245 48.8795 150.965 46.2875 150.965C43.6955 150.965 41.7275 150.245 40.3835 148.805C39.0715 147.333 38.4155 145.237 38.4155 142.517V125.045C38.4155 122.325 39.0715 120.245 40.3835 118.805C41.7275 117.333 43.6955 116.597 46.2875 116.597C48.8795 116.597 50.8315 117.333 52.1435 118.805C53.4875 120.245 54.1595 122.325 54.1595 125.045V128.309H49.1675V124.709C49.1675 123.493 48.9115 122.645 48.3995 122.165C47.9195 121.653 47.2635 121.397 46.4315 121.397C45.5995 121.397 44.9275 121.653 44.4155 122.165C43.9355 122.645 43.6955 123.493 43.6955 124.709V142.853C43.6955 144.069 43.9355 144.917 44.4155 145.397C44.9275 145.877 45.5995 146.117 46.4315 146.117C47.2635 146.117 47.9195 145.877 48.3995 145.397C48.9115 144.917 49.1675 144.069 49.1675 142.853V138.053H54.1595ZM55.1049 116.981H71.4249V121.781H65.9049V150.581H60.6249L60.6249 121.781H55.1049V116.981ZM78.1618 131.141H85.4098V135.941H78.1618V145.781H87.2818V150.581H72.8818V116.981H87.2818V121.781H78.1618V131.141ZM104.717 138.053V142.517C104.717 145.237 104.045 147.333 102.701 148.805C101.389 150.245 99.4371 150.965 96.8451 150.965C94.2531 150.965 92.2851 150.245 90.9411 148.805C89.6291 147.333 88.9731 145.237 88.9731 142.517V125.045C88.9731 122.325 89.6291 120.245 90.9411 118.805C92.2851 117.333 94.2531 116.597 96.8451 116.597C99.4371 116.597 101.389 117.333 102.701 118.805C104.045 120.245 104.717 122.325 104.717 125.045V128.309H99.7251V124.709C99.7251 123.493 99.4691 122.645 98.9571 122.165C98.4771 121.653 97.8211 121.397 96.9891 121.397C96.1571 121.397 95.4851 121.653 94.9731 122.165C94.4931 122.645 94.2531 123.493 94.2531 124.709V142.853C94.2531 144.069 94.4931 144.917 94.9731 145.397C95.4851 145.877 96.1571 146.117 96.9891 146.117C97.8211 146.117 98.4771 145.877 98.9571 145.397C99.4691 144.917 99.7251 144.069 99.7251 142.853V138.053H104.717ZM105.662 116.981H121.982V121.781H116.462V150.581H111.182V121.781H105.662V116.981ZM131.407 116.981C134.159 116.981 136.143 117.621 137.359 118.901C138.607 120.181 139.231 122.117 139.231 124.709V125.909C139.231 127.637 138.959 129.061 138.415 130.181C137.871 131.301 137.007 132.133 135.823 132.677C137.263 133.221 138.271 134.117 138.847 135.365C139.455 136.581 139.759 138.085 139.759 139.877V142.613C139.759 145.205 139.087 147.189 137.743 148.565C136.399 149.909 134.399 150.581 131.743 150.581H123.439V116.981H131.407ZM128.719 135.461V145.781H131.743C132.639 145.781 133.311 145.541 133.759 145.061C134.239 144.581 134.479 143.717 134.479 142.469V139.541C134.479 137.973 134.207 136.901 133.663 136.325C133.151 135.749 132.287 135.461 131.071 135.461H128.719ZM128.719 121.781V130.661H130.783C131.775 130.661 132.543 130.405 133.087 129.893C133.663 129.381 133.951 128.453 133.951 127.109V125.237C133.951 124.021 133.727 123.141 133.279 122.597C132.863 122.053 132.191 121.781 131.263 121.781H128.719ZM147.212 131.141H154.46V135.941H147.212V145.781H156.332V150.581H141.932V116.981H156.332V121.781H147.212V131.141ZM163.784 150.581H158.504V116.981H163.784V131.381H169.784V116.981H175.16V150.581H169.784V136.181H163.784V150.581ZM183.308 150.581H178.028V116.981H183.308V131.381H189.308V116.981H194.684V150.581H189.308V136.181H183.308V150.581ZM202.352 142.853C202.352 144.069 202.592 144.933 203.072 145.445C203.584 145.925 204.256 146.165 205.088 146.165C205.92 146.165 206.576 145.925 207.056 145.445C207.568 144.933 207.824 144.069 207.824 142.853V124.709C207.824 123.493 207.568 122.645 207.056 122.165C206.576 121.653 205.92 121.397 205.088 121.397C204.256 121.397 203.584 121.653 203.072 122.165C202.592 122.645 202.352 123.493 202.352 124.709V142.853ZM197.072 125.045C197.072 122.325 197.76 120.245 199.136 118.805C200.512 117.333 202.496 116.597 205.088 116.597C207.68 116.597 209.664 117.333 211.04 118.805C212.416 120.245 213.104 122.325 213.104 125.045V142.517C213.104 145.237 212.416 147.333 211.04 148.805C209.664 150.245 207.68 150.965 205.088 150.965C202.496 150.965 200.512 150.245 199.136 148.805C197.76 147.333 197.072 145.237 197.072 142.517V125.045ZM215.483 150.581V145.493H220.571V150.053L218.267 155.381H216.107L217.499 150.581H215.483ZM33.5563 188.837L37.1563 164.981H44.5003V198.581H39.5083V174.485L35.8603 198.581H30.8683L26.9323 174.821L26.9323 198.581H22.3243V164.981H29.6683L33.5563 188.837ZM55.1559 193.781C55.9879 193.781 56.6279 193.557 57.0759 193.109C57.5239 192.661 57.7479 191.829 57.7479 190.613V185.573C57.7479 184.357 57.5239 183.525 57.0759 183.077C56.6279 182.629 55.9879 182.405 55.1559 182.405H52.6599V193.781H55.1559ZM47.3799 198.581V164.981H52.6599V177.605H55.1559C57.8119 177.605 59.7799 178.309 61.0599 179.717C62.3719 181.125 63.0279 183.189 63.0279 185.909V190.277C63.0279 192.997 62.3719 195.061 61.0599 196.469C59.7799 197.877 57.8119 198.581 55.1559 198.581H47.3799ZM65.6199 164.981H70.8999V198.581H65.6199V164.981ZM95.552 186.053V190.517C95.552 193.237 94.88 195.333 93.536 196.805C92.224 198.245 90.272 198.965 87.68 198.965C85.088 198.965 83.12 198.245 81.776 196.805C80.464 195.333 79.808 193.237 79.808 190.517V173.045C79.808 170.325 80.464 168.245 81.776 166.805C83.12 165.333 85.088 164.597 87.68 164.597C90.272 164.597 92.224 165.333 93.536 166.805C94.88 168.245 95.552 170.325 95.552 173.045V176.309H90.56V172.709C90.56 171.493 90.304 170.645 89.792 170.165C89.312 169.653 88.656 169.397 87.824 169.397C86.992 169.397 86.32 169.653 85.808 170.165C85.328 170.645 85.088 171.493 85.088 172.709V190.853C85.088 192.069 85.328 192.917 85.808 193.397C86.32 193.877 86.992 194.117 87.824 194.117C88.656 194.117 89.312 193.877 89.792 193.397C90.304 192.917 90.56 192.069 90.56 190.853V186.053H95.552ZM102.991 164.981H119.311V169.781H113.791V198.581H108.511V169.781H102.991V164.981ZM125.567 190.853C125.567 192.069 125.807 192.933 126.287 193.445C126.799 193.925 127.471 194.165 128.303 194.165C129.135 194.165 129.791 193.925 130.271 193.445C130.783 192.933 131.039 192.069 131.039 190.853V172.709C131.039 171.493 130.783 170.645 130.271 170.165C129.791 169.653 129.135 169.397 128.303 169.397C127.471 169.397 126.799 169.653 126.287 170.165C125.807 170.645 125.567 171.493 125.567 172.709V190.853ZM120.287 173.045C120.287 170.325 120.975 168.245 122.351 166.805C123.727 165.333 125.711 164.597 128.303 164.597C130.895 164.597 132.879 165.333 134.255 166.805C135.631 168.245 136.319 170.325 136.319 173.045V190.517C136.319 193.237 135.631 195.333 134.255 196.805C132.879 198.245 130.895 198.965 128.303 198.965C125.711 198.965 123.727 198.245 122.351 196.805C120.975 195.333 120.287 193.237 120.287 190.517V173.045ZM143.978 177.605H146.474C149.13 177.605 151.098 178.309 152.378 179.717C153.69 181.125 154.346 183.189 154.346 185.909V190.277C154.346 192.997 153.69 195.061 152.378 196.469C151.098 197.877 149.13 198.581 146.474 198.581H138.698V164.981H152.666V169.781H143.978V177.605ZM146.474 193.781C147.306 193.781 147.946 193.557 148.394 193.109C148.842 192.661 149.066 191.829 149.066 190.613V185.573C149.066 184.357 148.842 183.525 148.394 183.077C147.946 182.629 147.306 182.405 146.474 182.405H143.978V193.781H146.474ZM161.288 190.853C161.288 192.069 161.528 192.933 162.008 193.445C162.52 193.925 163.192 194.165 164.024 194.165C164.856 194.165 165.512 193.925 165.992 193.445C166.504 192.933 166.76 192.069 166.76 190.853V172.709C166.76 171.493 166.504 170.645 165.992 170.165C165.512 169.653 164.856 169.397 164.024 169.397C163.192 169.397 162.52 169.653 162.008 170.165C161.528 170.645 161.288 171.493 161.288 172.709V190.853ZM156.008 173.045C156.008 170.325 156.696 168.245 158.072 166.805C159.448 165.333 161.432 164.597 164.024 164.597C166.616 164.597 168.6 165.333 169.976 166.805C171.352 168.245 172.04 170.325 172.04 173.045V190.517C172.04 193.237 171.352 195.333 169.976 196.805C168.6 198.245 166.616 198.965 164.024 198.965C161.432 198.965 159.448 198.245 158.072 196.805C156.696 195.333 156.008 193.237 156.008 190.517V173.045ZM179.843 198.581H174.419V164.981H179.123V185.093L184.547 164.981H191.171V198.581H186.419V174.245L179.843 198.581ZM188.675 159.173V163.109H177.059V159.173H188.675Z" fill="white"/>
<defs>
<filter id="filter0_ii_4007_24163" x="10.4043" y="10.9811" width="242.892" height="197.983" filterUnits="userSpaceOnUse" color-interpolation-filters="sRGB">
<feFlood flood-opacity="0" result="BackgroundImageFix"/>
<feBlend mode="normal" in="SourceGraphic" in2="BackgroundImageFix" result="shape"/>
<feColorMatrix in="SourceAlpha" type="matrix" values="0 0 0 0 0 0 0 0 0 0 0 0 0 0 0 0 0 0 127 0" result="hardAlpha"/>
<feOffset dx="2" dy="2"/>
<feGaussianBlur stdDeviation="2"/>
<feComposite in2="hardAlpha" operator="arithmetic" k2="-1" k3="1"/>
<feColorMatrix type="matrix" values="0 0 0 0 0.944286 0 0 0 0 0.614286 0 0 0 0 0.575714 0 0 0 1 0"/>
<feBlend mode="normal" in2="shape" result="effect1_innerShadow_4007_24163"/>
<feColorMatrix in="SourceAlpha" type="matrix" values="0 0 0 0 0 0 0 0 0 0 0 0 0 0 0 0 0 0 127 0" result="hardAlpha"/>
<feOffset dx="-2" dy="-2"/>
<feGaussianBlur stdDeviation="2"/>
<feComposite in2="hardAlpha" operator="arithmetic" k2="-1" k3="1"/>
<feColorMatrix type="matrix" values="0 0 0 0 0.636429 0 0 0 0 0.141429 0 0 0 0 0.0835714 0 0 0 1 0"/>
<feBlend mode="normal" in2="effect1_innerShadow_4007_24163" result="effect2_innerShadow_4007_24163"/>
</filter>
</defs>
</svg>
