<svg width="269" height="224" viewBox="0 0 269 224" fill="none" xmlns="http://www.w3.org/2000/svg">
<path d="M47.5837 17.9995C48.2522 17.9995 48.9016 18.0833 49.5222 18.2378C50.1429 18.0833 50.7922 17.9995 51.4607 17.9995H65.8611C66.8421 17.9996 67.7817 18.1773 68.6501 18.5005C69.5188 18.1772 70.4589 17.9996 71.4402 17.9995H88.1443C89.3637 17.9996 90.5192 18.2732 91.5535 18.7612C92.5919 18.2717 93.7486 17.9996 94.9607 17.9995H102.689L103.055 18.0073C104.136 18.0563 105.167 18.3228 106.101 18.7642C107.137 18.2739 108.296 17.9996 109.518 17.9995H123.919C124.287 17.9995 124.649 18.0266 125.004 18.0747C125.359 18.0265 125.721 17.9995 126.09 17.9995H131.321C132.07 17.9995 132.794 18.1051 133.481 18.2974C134.168 18.105 134.893 17.9996 135.641 17.9995H140.922C141.661 17.9995 142.377 18.1026 143.057 18.2905C143.737 18.1025 144.453 17.9996 145.193 17.9995H150.521C151.012 17.9995 151.492 18.0459 151.958 18.1304C152.424 18.0457 152.905 17.9995 153.395 17.9995H158.676C163.094 17.9997 166.676 21.5814 166.676 25.9995V31.4019C168.925 32.0913 171.102 33.3033 172.927 35.2817H172.927C172.933 35.2877 172.939 35.2943 172.944 35.3003C172.961 35.3183 172.978 35.3359 172.995 35.354H172.993C176.113 38.7479 177.043 43.0476 177.043 46.9272V51.2954C177.043 55.1746 176.112 59.4731 172.993 62.8667L172.995 62.8687C172.978 62.8872 172.96 62.905 172.943 62.9233C172.938 62.929 172.933 62.9353 172.927 62.9409L172.927 62.9399C171.332 64.6688 169.469 65.8117 167.523 66.5327C168.626 66.908 169.699 67.4121 170.719 68.063C173.505 66.2859 176.693 65.6148 179.756 65.6147C183.867 65.6148 188.204 66.8235 191.49 70.2964H191.491C191.497 70.3023 191.502 70.309 191.508 70.3149C191.522 70.3301 191.537 70.3446 191.552 70.3599H191.551C193.215 72.1227 194.288 74.1361 194.936 76.2231H195.331C195.851 76.2232 196.36 76.2738 196.852 76.3687L199.173 70.8833L199.295 70.6089C200.606 67.8047 203.427 65.9997 206.541 65.9995H212.301C213.876 65.9995 215.344 66.4566 216.582 67.2427C218.99 66.0702 221.613 65.6148 224.133 65.6147C226.976 65.6148 229.977 66.1958 232.639 67.7661C235.302 66.1955 238.303 65.6148 241.147 65.6147C245.198 65.6147 249.62 66.7977 252.868 70.4351H252.869C255.975 73.8441 256.924 78.1412 256.924 82.063C256.924 84.0335 256.716 86.0531 256.161 88.0073C255.741 89.5452 255.162 91.0427 254.393 92.4653C253.763 93.6803 253.047 94.8422 252.237 95.938C252.203 95.9838 252.168 96.0296 252.134 96.0747C251.718 96.6128 251.33 97.1445 250.969 97.6685C250.871 97.8297 250.776 98.0028 250.687 98.1909C250.686 98.2177 250.683 98.2501 250.683 98.2876C250.683 98.3421 250.685 98.3842 250.686 98.4146C250.687 98.4292 250.688 98.4412 250.688 98.4497C250.862 99.2424 250.91 100.047 250.843 100.838C250.957 101.378 251.019 101.937 251.019 102.511V107.599C251.019 112.017 247.438 115.599 243.019 115.599H237.931C236.792 115.599 235.708 115.359 234.727 114.929C233.746 115.358 232.663 115.599 231.524 115.599H218.97C220.212 116.285 221.387 117.172 222.451 118.296H222.452C222.472 118.317 222.492 118.339 222.512 118.36H222.511C225.716 121.753 226.732 126.075 226.732 130.063V147.535C226.732 151.561 225.699 155.878 222.512 159.287C222.493 159.308 222.472 159.329 222.452 159.35C219.148 162.808 214.802 163.983 210.717 163.983C208.465 163.983 206.135 163.625 203.943 162.726C203.413 162.997 202.85 163.211 202.26 163.359C202.288 163.632 202.302 163.91 202.302 164.191V164.197C203.839 165.655 204.799 167.715 204.799 170V203.599C204.799 208.017 201.217 211.599 196.799 211.599H192.047C190.874 211.599 189.761 211.344 188.758 210.891C187.747 211.347 186.632 211.599 185.47 211.599H180.047C178.74 211.599 177.507 211.284 176.418 210.728C174.228 211.625 171.901 211.983 169.652 211.983C166.594 211.983 163.389 211.324 160.586 209.542C157.887 211.079 154.869 211.599 152.101 211.599H144.326C143.02 211.599 141.787 211.283 140.698 210.728C138.508 211.625 136.181 211.983 133.931 211.983C130.853 211.983 127.627 211.315 124.81 209.507C123.388 210.806 121.496 211.599 119.419 211.599H114.138C110.396 211.599 107.254 209.029 106.381 205.557C105.993 206.129 105.559 206.684 105.072 207.217L105.071 207.216C101.787 210.816 97.3672 211.983 93.3074 211.983C89.7449 211.983 85.9459 211.087 82.8455 208.502C81.3819 210.385 79.0976 211.599 76.5281 211.599H71.2478C69.7755 211.599 68.3966 211.199 67.2117 210.505C65.089 211.305 62.8653 211.599 60.7839 211.599H53.0076C52.5158 211.599 52.0344 211.552 51.5671 211.467C51.1002 211.552 50.6191 211.599 50.1277 211.599H45.1355C44.5086 211.599 43.8986 211.525 43.3132 211.388C42.7255 211.526 42.1142 211.599 41.488 211.599H36.4958C35.8204 211.599 35.1623 211.512 34.532 211.353C33.9013 211.513 33.2407 211.599 32.5603 211.599H27.9519C23.5338 211.599 19.9519 208.017 19.9519 203.599V170C19.9519 166.832 21.7928 164.095 24.4626 162.798C21.7932 161.502 19.9519 158.766 19.9519 155.599V122C19.9519 117.81 23.1729 114.375 27.2732 114.03C25.307 112.572 24.032 110.235 24.032 107.599V86.4058C20.8281 85.3617 18.5125 82.3516 18.5125 78.7993V73.9995C18.5125 72.1034 19.1728 70.3617 20.2751 68.9907C18.8874 67.5519 18.032 65.5958 18.032 63.439V54.7993C18.032 52.5239 19.0016 50.356 20.697 48.8384C21.351 48.253 22.0897 47.7865 22.8796 47.4478V25.9995C22.8796 21.5815 26.4617 17.9999 30.8796 17.9995H47.5837ZM91.0603 203.772H91.0613H91.0603ZM136.536 203.691L136.592 203.679C136.609 203.675 136.625 203.669 136.642 203.665C136.607 203.674 136.571 203.682 136.536 203.691ZM45.1355 179.509V203.599L45.1365 179.503L45.1355 179.509ZM136.996 203.565C137.025 203.556 137.053 203.546 137.082 203.537C137.053 203.546 137.025 203.556 136.996 203.565ZM137.384 203.432C137.409 203.423 137.435 203.414 137.46 203.405C137.435 203.414 137.409 203.423 137.384 203.432ZM137.783 203.272C137.816 203.257 137.849 203.242 137.883 203.227C137.849 203.242 137.816 203.257 137.783 203.272ZM138.935 202.63C138.955 202.616 138.975 202.602 138.995 202.587C138.975 202.602 138.955 202.616 138.935 202.63ZM139.251 202.395C139.27 202.38 139.29 202.365 139.309 202.349C139.29 202.365 139.27 202.38 139.251 202.395ZM139.549 202.145C139.567 202.129 139.585 202.113 139.603 202.096C139.585 202.113 139.567 202.129 139.549 202.145ZM140.367 201.242C140.292 201.343 140.214 201.443 140.134 201.54L140.368 201.242C140.443 201.14 140.515 201.036 140.585 200.929L140.367 201.242ZM140.971 200.26C140.912 200.376 140.851 200.491 140.787 200.602L140.972 200.26C141.032 200.144 141.088 200.025 141.141 199.904L140.971 200.26ZM85.7966 198.675C85.627 198.013 85.5162 197.294 85.4666 196.518C85.4769 196.681 85.489 196.841 85.5046 196.999C85.5354 197.309 85.5764 197.611 85.6277 197.902C85.6746 198.168 85.732 198.426 85.7966 198.675ZM136.52 197.265L136.559 197.09C136.564 197.067 136.567 197.042 136.571 197.018C136.555 197.103 136.54 197.186 136.52 197.265ZM136.594 196.878C136.603 196.823 136.611 196.767 136.618 196.709C136.611 196.767 136.603 196.823 136.594 196.878ZM136.634 196.571C136.643 196.477 136.651 196.381 136.656 196.283C136.651 196.381 136.643 196.477 136.634 196.571ZM125.915 195.535C125.915 195.705 125.918 195.872 125.924 196.038L125.916 195.535V178.063H125.915V195.535ZM161.635 195.535C161.635 195.705 161.639 195.872 161.644 196.038L161.636 195.535V178.063H161.635V195.535ZM172.387 195.872C172.387 196.08 172.38 196.277 172.364 196.464L172.383 196.175C172.387 196.077 172.388 195.975 172.388 195.872V177.727H172.387V195.872ZM85.5291 176.376C85.4846 176.756 85.4559 177.15 85.4431 177.56C85.438 177.725 85.4353 177.893 85.4353 178.063V195.535C85.4353 195.853 85.4456 196.163 85.4636 196.464C85.4455 196.163 85.4363 195.853 85.4363 195.535V178.063C85.4363 177.47 85.4669 176.908 85.5291 176.376ZM136.667 195.872C136.667 195.999 136.664 196.123 136.658 196.243C136.664 196.123 136.668 195.999 136.668 195.872V177.727H136.667V195.872ZM96.1873 195.872L96.1785 196.204C96.1838 196.096 96.1882 195.986 96.1882 195.872V191.071H96.1873V195.872ZM85.6306 175.689C85.6183 175.758 85.6066 175.828 85.5955 175.899C85.6066 175.828 85.6183 175.758 85.6306 175.689ZM85.7263 175.209C85.7009 175.321 85.6771 175.435 85.655 175.55C85.677 175.435 85.701 175.321 85.7263 175.209ZM108.618 174.799H108.619V170H108.618V174.799ZM136.994 170.041C138.02 170.363 138.895 170.867 139.619 171.555C139.528 171.469 139.435 171.386 139.34 171.305C138.958 170.983 138.538 170.707 138.08 170.477C137.851 170.362 137.612 170.259 137.364 170.167C137.243 170.122 137.119 170.08 136.994 170.041ZM136.584 169.923C136.717 169.958 136.847 169.995 136.975 170.035C136.847 169.995 136.717 169.957 136.584 169.923ZM136.169 169.828C136.059 169.805 135.948 169.785 135.836 169.766C135.948 169.785 136.059 169.805 136.169 169.828ZM132.642 169.682C132.59 169.688 132.538 169.693 132.486 169.7C132.538 169.693 132.59 169.688 132.642 169.682ZM168.363 169.682C168.311 169.688 168.259 169.693 168.207 169.7C168.259 169.693 168.311 169.688 168.363 169.682ZM132.988 169.649C132.948 169.652 132.909 169.656 132.87 169.66C132.929 169.655 132.989 169.649 133.049 169.645L132.988 169.649ZM168.709 169.649C168.669 169.652 168.63 169.656 168.591 169.66C168.65 169.655 168.709 169.649 168.769 169.645L168.709 169.649ZM60.9109 161.553C60.5712 161.771 60.2255 161.972 59.8748 162.157C61.8784 162.56 63.6099 163.713 64.7673 165.309C65.2388 164.659 65.8051 164.081 66.447 163.599H66.2527C64.1995 163.599 62.3272 162.825 60.9109 161.553ZM81.3279 163.599C81.9057 164.033 82.4216 164.545 82.863 165.117C83.5667 164.526 84.3079 164.024 85.074 163.599H81.3279ZM103.372 163.961C103.071 163.974 102.77 163.983 102.472 163.983C102.369 163.983 102.264 163.979 102.16 163.977C102.396 164.126 102.629 164.283 102.859 164.448C103.023 164.278 103.194 164.116 103.372 163.961ZM111.469 161.553C111.223 161.711 110.975 161.86 110.723 162H112.01C111.822 161.859 111.642 161.709 111.469 161.553ZM49.6677 155.772H49.6687H49.6677ZM100.225 155.772H100.226H100.225ZM144.599 151.779H144.6H144.599ZM94.9636 150.687C94.7225 149.751 94.6013 148.7 94.6013 147.535V130.063C94.6013 129.449 94.6343 128.868 94.7009 128.32C94.6526 128.716 94.6216 129.13 94.6082 129.56C94.603 129.725 94.6003 129.893 94.6003 130.063V147.535C94.6003 148.045 94.6235 148.533 94.6697 148.999C94.7004 149.309 94.7415 149.611 94.7927 149.902C94.8403 150.172 94.8978 150.434 94.9636 150.687ZM54.0271 150.416C54.0103 150.432 53.9916 150.447 53.9744 150.463C53.9918 150.447 54.0111 150.432 54.0281 150.416C54.046 150.399 54.0626 150.38 54.0798 150.363C54.0625 150.381 54.0451 150.399 54.0271 150.416ZM202.7 147.535C202.7 147.705 202.703 147.872 202.709 148.038L202.701 147.535V130.063H202.7V147.535ZM213.452 147.872L213.441 148.292C213.448 148.157 213.453 148.017 213.453 147.872V129.727H213.452V147.872ZM105.352 147.872L105.343 148.235C105.349 148.118 105.353 147.997 105.353 147.872V143.071H105.352V147.872ZM145.052 141.958C145.06 141.988 145.067 142.019 145.075 142.05C145.067 142.019 145.06 141.988 145.052 141.958ZM139.138 141.189C139.192 141.238 139.243 141.289 139.291 141.343C139.325 141.379 139.358 141.417 139.39 141.458C139.454 141.537 139.513 141.624 139.568 141.719C139.596 141.767 139.623 141.816 139.648 141.868C139.546 141.662 139.428 141.487 139.292 141.343C139.244 141.289 139.193 141.238 139.138 141.189ZM144.928 141.518C144.884 141.375 144.836 141.234 144.785 141.097C144.836 141.234 144.884 141.375 144.928 141.518ZM175.411 136.399H175.412V122H175.411V136.399ZM194.935 136.399H194.936V122H194.935V136.399ZM138.184 135.292C138.207 135.279 138.229 135.265 138.252 135.252C138.229 135.265 138.207 135.279 138.184 135.292ZM138.355 135.19C138.378 135.175 138.401 135.16 138.424 135.144C138.401 135.16 138.378 135.175 138.355 135.19ZM138.513 135.079C138.539 135.059 138.565 135.039 138.59 135.018C138.565 135.039 138.539 135.059 138.513 135.079ZM138.869 134.755C138.82 134.811 138.769 134.863 138.715 134.911C138.703 134.922 138.69 134.932 138.677 134.943C138.69 134.932 138.703 134.922 138.716 134.911C138.769 134.863 138.82 134.811 138.869 134.755ZM139.569 129.815C139.576 129.956 139.579 130.103 139.579 130.255V132.127C139.579 132.295 139.575 132.457 139.566 132.612L139.58 132.127V130.255C139.58 130.103 139.576 129.957 139.569 129.815ZM94.7957 127.689C94.7833 127.758 94.7717 127.828 94.7605 127.899C94.7716 127.828 94.7833 127.758 94.7957 127.689ZM49.8748 127.38C49.8223 127.452 49.7732 127.529 49.7283 127.612H49.7292C49.7743 127.529 49.8232 127.452 49.8757 127.38H49.8748ZM94.8914 127.209C94.866 127.321 94.8421 127.435 94.8201 127.55C94.8421 127.435 94.866 127.321 94.8914 127.209ZM60.7322 126.799H60.7332V122H60.7322V126.799ZM111.29 126.799H111.291V122H111.29V126.799ZM52.0593 126.416C51.8514 126.416 51.6535 126.431 51.4656 126.463L51.7556 126.427C51.8544 126.419 51.9556 126.416 52.0593 126.416ZM210.717 126.416C210.509 126.416 210.311 126.431 210.123 126.463L210.413 126.427C210.512 126.419 210.613 126.416 210.717 126.416ZM206.967 122.294C206.88 122.332 206.795 122.371 206.712 122.411C206.796 122.371 206.88 122.331 206.967 122.294ZM207.285 122.167C207.185 122.204 207.086 122.243 206.989 122.285C207.092 122.241 207.197 122.199 207.303 122.16L207.285 122.167ZM209.334 121.692C209.213 121.706 209.093 121.723 208.975 121.741C209.093 121.723 209.213 121.706 209.334 121.692ZM209.773 121.649C209.639 121.659 209.507 121.671 209.377 121.686C209.655 121.655 209.943 121.634 210.238 121.624L209.773 121.649ZM149.14 111.173C149.119 111.196 149.097 111.218 149.075 111.24C147.255 113.059 145.135 114.186 142.951 114.837C143.165 114.904 143.378 114.976 143.591 115.053C144.76 114.383 146.116 114 147.56 114H153.39C152.165 113.325 151.003 112.454 149.948 111.35C149.928 111.329 149.907 111.308 149.887 111.287C149.744 111.133 149.607 110.977 149.472 110.82C149.364 110.938 149.254 111.057 149.14 111.173ZM170.719 113.561C170.464 113.723 170.204 113.875 169.942 114.018C170.81 114.075 171.64 114.271 172.411 114.583C172.452 114.566 172.493 114.55 172.534 114.534C171.915 114.256 171.308 113.933 170.719 113.561ZM201.176 113.058C200.855 113.401 200.506 113.717 200.131 114H200.311C201.182 114 202.02 114.14 202.804 114.397C202.204 114.023 201.656 113.573 201.176 113.058ZM42.7039 113.507C42.5145 113.68 42.3174 113.845 42.1121 114H42.3523C42.8345 114 43.3067 114.044 43.7654 114.125C43.4061 113.936 43.0517 113.731 42.7039 113.507ZM78.6072 113.553C78.3425 113.723 78.074 113.882 77.8025 114.032C78.0354 114.011 78.2714 114 78.5095 114H79.1482C78.9611 113.859 78.781 113.709 78.6072 113.553ZM60.7302 113.641C60.5102 113.777 60.2878 113.906 60.0632 114.029C60.2837 114.011 60.507 114 60.7322 114H61.3396C61.1345 113.886 60.9315 113.766 60.7302 113.641ZM67.364 107.772H67.365H67.364ZM164.737 107.57C164.48 107.649 164.213 107.716 163.936 107.772L164.344 107.679C164.478 107.646 164.609 107.609 164.737 107.57ZM182.36 107.691L182.416 107.679C182.433 107.675 182.45 107.669 182.467 107.665C182.431 107.674 182.396 107.682 182.36 107.691ZM182.82 107.565C182.849 107.556 182.877 107.546 182.906 107.537C182.877 107.546 182.849 107.556 182.82 107.565ZM183.208 107.432C183.233 107.423 183.259 107.414 183.284 107.405C183.259 107.414 183.233 107.423 183.208 107.432ZM183.607 107.272C183.641 107.257 183.674 107.242 183.707 107.227C183.674 107.242 183.641 107.257 183.607 107.272ZM184.775 106.621C184.81 106.596 184.845 106.571 184.88 106.545C184.845 106.571 184.81 106.596 184.775 106.621ZM185.074 106.398C185.106 106.372 185.138 106.346 185.17 106.32C185.138 106.346 185.106 106.372 185.074 106.398ZM185.385 106.134C185.401 106.119 185.418 106.105 185.434 106.09C185.418 106.105 185.401 106.119 185.385 106.134ZM168.338 104.929C168.198 105.142 168.048 105.346 167.886 105.54L168.121 105.242C168.271 105.038 168.411 104.825 168.54 104.602L168.338 104.929ZM186.409 104.929C186.269 105.142 186.119 105.346 185.958 105.54L186.192 105.242C186.343 105.038 186.482 104.825 186.611 104.602L186.409 104.929ZM58.0681 105.487C58.1334 105.407 58.1967 105.325 58.2585 105.242C58.1966 105.325 58.1334 105.407 58.0681 105.487ZM58.325 105.148C58.3651 105.092 58.4045 105.035 58.4431 104.978C58.4046 105.035 58.3652 105.092 58.325 105.148ZM144.646 103.779H144.647H144.646ZM154.321 103.533C154.333 103.564 154.348 103.595 154.36 103.626C154.333 103.558 154.307 103.489 154.281 103.419L154.321 103.533ZM62.1023 102.687C61.8612 101.751 61.74 100.7 61.74 99.5347V82.063C61.74 81.4494 61.773 80.8683 61.8396 80.3198C61.7913 80.7162 61.7602 81.1296 61.7468 81.5601C61.7417 81.7252 61.739 81.8928 61.739 82.063V99.5347C61.739 100.045 61.7622 100.533 61.8083 100.999C61.8391 101.309 61.8801 101.611 61.9314 101.902C61.979 102.172 62.0365 102.434 62.1023 102.687ZM53.7927 102.463C53.7328 102.523 53.6706 102.58 53.6052 102.632C53.6707 102.58 53.7337 102.523 53.7937 102.463C53.8257 102.431 53.8564 102.398 53.8865 102.363C53.8563 102.398 53.8249 102.431 53.7927 102.463ZM164.273 101.265L164.312 101.09C164.317 101.067 164.32 101.042 164.324 101.018C164.308 101.103 164.293 101.186 164.273 101.265ZM164.347 100.878C164.356 100.823 164.364 100.767 164.371 100.709C164.364 100.767 164.356 100.823 164.347 100.878ZM164.386 100.571C164.396 100.477 164.404 100.381 164.409 100.283C164.404 100.381 164.396 100.477 164.386 100.571ZM153.741 80.6001C153.693 81.0652 153.668 81.5528 153.668 82.063V99.5347C153.668 99.7048 153.671 99.8724 153.677 100.038C153.671 99.8723 153.669 99.7047 153.669 99.5347V82.063C153.669 81.5532 153.693 81.0659 153.741 80.6011V80.6001ZM171.745 81.6841C171.742 81.809 171.739 81.9353 171.739 82.063V99.5347C171.739 99.7048 171.742 99.8724 171.748 100.038C171.743 99.8723 171.74 99.7047 171.74 99.5347V82.063C171.74 81.9353 171.742 81.809 171.745 81.6841ZM182.491 99.8716L182.481 100.243C182.487 100.123 182.492 99.9992 182.492 99.8716V81.7271H182.491V99.8716ZM164.42 99.8716C164.42 99.9992 164.416 100.123 164.411 100.243C164.417 100.123 164.421 99.9992 164.421 99.8716V81.7271H164.42V99.8716ZM238.315 94.9272C238.293 94.9961 238.274 95.0665 238.254 95.1372C238.274 95.0664 238.294 94.9962 238.316 94.9272C238.352 94.8154 238.389 94.7046 238.427 94.5952C238.389 94.7047 238.351 94.8153 238.315 94.9272ZM145.099 93.9575C145.107 93.9883 145.114 94.0193 145.122 94.0503C145.114 94.0193 145.107 93.9883 145.099 93.9575ZM139.695 93.8687V93.8677C139.658 93.7934 139.618 93.7239 139.577 93.6577C139.618 93.7242 139.658 93.7941 139.695 93.8687ZM139.185 93.189C139.239 93.2378 139.29 93.2895 139.338 93.3433C139.372 93.3794 139.405 93.4175 139.437 93.4575C139.483 93.5146 139.526 93.576 139.567 93.6411C139.497 93.5305 139.421 93.4309 139.339 93.3433C139.291 93.2893 139.24 93.2378 139.185 93.189ZM144.975 93.5181C144.931 93.3747 144.883 93.2344 144.832 93.0972C144.883 93.2344 144.931 93.3747 144.975 93.5181ZM225.32 87.854C225.242 87.9971 225.162 88.1386 225.08 88.2788H225.081C225.163 88.1387 225.243 87.9971 225.32 87.854ZM138.231 87.2915C138.254 87.2791 138.276 87.2654 138.299 87.2524C138.276 87.2654 138.254 87.2791 138.231 87.2915ZM138.402 87.1899C138.425 87.175 138.448 87.1596 138.47 87.144C138.448 87.1596 138.425 87.175 138.402 87.1899ZM138.56 87.0786C138.586 87.059 138.611 87.0387 138.636 87.0181C138.611 87.0387 138.586 87.059 138.56 87.0786ZM231.343 86.4468C231.28 86.6363 231.212 86.8233 231.14 87.0073C231.176 86.9152 231.212 86.8225 231.246 86.729C231.28 86.6356 231.312 86.5415 231.344 86.4468H231.343ZM138.916 86.7554C138.867 86.8107 138.815 86.8626 138.761 86.9106C138.75 86.9219 138.737 86.9319 138.724 86.9429C138.737 86.9317 138.75 86.922 138.762 86.9106C138.816 86.8627 138.867 86.8106 138.916 86.7554ZM139.616 81.8149C139.623 81.9565 139.626 82.1033 139.626 82.2554V84.1274C139.626 84.2954 139.622 84.4569 139.613 84.6118L139.627 84.1274V82.2554C139.627 82.1033 139.623 81.9565 139.616 81.8149ZM248.895 81.1206C248.914 81.4257 248.924 81.7398 248.924 82.063C248.924 82.4311 248.913 82.7873 248.893 83.1313H248.894C248.904 82.9592 248.912 82.7841 248.917 82.606C248.922 82.428 248.924 82.2469 248.924 82.063C248.924 81.7398 248.914 81.4257 248.895 81.1206ZM171.771 81.0728C171.769 81.1126 171.768 81.1527 171.765 81.1929C171.77 81.1211 171.774 81.0498 171.779 80.979C171.777 81.0102 171.773 81.0414 171.771 81.0728ZM248.888 81.0151C248.884 80.9453 248.879 80.876 248.873 80.8071C248.879 80.876 248.884 80.9453 248.888 81.0151ZM248.861 80.6792C248.859 80.6528 248.858 80.6263 248.855 80.6001C248.851 80.5615 248.846 80.5232 248.842 80.4849C248.849 80.5492 248.855 80.614 248.861 80.6792ZM248.775 79.9751C248.791 80.0793 248.805 80.1848 248.818 80.2915C248.805 80.1848 248.791 80.0793 248.775 79.9751ZM61.9343 79.689C61.922 79.7584 61.9103 79.8284 61.8992 79.8989C61.9103 79.8284 61.922 79.7584 61.9343 79.689ZM248.74 79.7515C248.731 79.698 248.721 79.6451 248.711 79.5923C248.721 79.6451 248.731 79.698 248.74 79.7515ZM49.6404 79.3804C49.5879 79.4518 49.5389 79.5289 49.4939 79.6118H49.4949C49.5399 79.5288 49.5888 79.4518 49.6414 79.3804H49.6404ZM221.803 79.3804C221.751 79.4518 221.702 79.5289 221.657 79.6118H221.658C221.703 79.5289 221.752 79.4518 221.804 79.3804H221.803ZM62.03 79.2095C62.0047 79.3215 61.9808 79.4351 61.9587 79.5503C61.9808 79.4351 62.0047 79.3215 62.03 79.2095ZM248.662 79.3472C248.654 79.3109 248.646 79.2747 248.638 79.2388C248.646 79.2747 248.654 79.3109 248.662 79.3472ZM248.556 78.8989C248.553 78.8863 248.551 78.8734 248.548 78.8608C248.539 78.83 248.53 78.7996 248.521 78.769C248.533 78.8121 248.545 78.8553 248.556 78.8989ZM225.104 78.6196C225.227 78.6706 225.344 78.7311 225.455 78.8013L225.343 78.7339C225.189 78.6488 225.025 78.5807 224.85 78.5298C224.938 78.5553 225.022 78.5856 225.104 78.6196ZM78.4285 78.7993H78.4294V73.9995H78.4285V78.7993ZM248.452 78.5298C248.445 78.5077 248.439 78.4853 248.432 78.4634C248.427 78.4473 248.421 78.4316 248.416 78.4155C248.428 78.4534 248.44 78.4915 248.452 78.5298ZM51.825 78.4155C51.617 78.4155 51.4191 78.4314 51.2312 78.4634L51.5212 78.4272C51.62 78.4193 51.7212 78.4155 51.825 78.4155ZM248.183 77.7837C248.165 77.7402 248.147 77.6967 248.129 77.6538C248.147 77.6967 248.165 77.7401 248.183 77.7837ZM168.615 77.1558C168.715 77.3353 168.808 77.5211 168.894 77.7134V77.7124C168.808 77.5203 168.715 77.335 168.615 77.1558ZM186.686 77.1558C186.786 77.3353 186.879 77.5211 186.966 77.7134V77.7124C186.88 77.5203 186.786 77.335 186.686 77.1558ZM58.7058 77.0679C58.6894 77.0394 58.6728 77.0111 58.656 76.9829C58.6728 77.0111 58.6894 77.0394 58.7058 77.0679ZM168.395 76.7915C168.361 76.7386 168.327 76.686 168.292 76.6343C168.327 76.686 168.361 76.7386 168.395 76.7915ZM186.467 76.7915C186.433 76.7386 186.398 76.686 186.363 76.6343C186.398 76.686 186.433 76.7386 186.467 76.7915ZM58.4998 76.7319C58.4794 76.701 58.4581 76.6707 58.4373 76.6401C58.4581 76.6707 58.4794 76.701 58.4998 76.7319ZM168.224 76.5366C168.184 76.4798 168.142 76.424 168.1 76.3687C168.142 76.424 168.184 76.4798 168.224 76.5366ZM186.296 76.5366C186.255 76.4798 186.214 76.424 186.172 76.3687C186.214 76.424 186.255 76.4798 186.296 76.5366ZM247.442 76.4302L247.418 76.3931C247.402 76.3717 247.385 76.3517 247.37 76.3306C247.394 76.3636 247.418 76.3966 247.442 76.4302ZM58.2869 76.4292C58.2719 76.409 58.2571 76.3886 58.2419 76.3687C58.2571 76.3886 58.2719 76.409 58.2869 76.4292ZM168.038 76.2866C167.999 76.2369 167.958 76.1886 167.918 76.1401C167.958 76.1886 167.999 76.2369 168.038 76.2866ZM186.109 76.2866C186.07 76.2369 186.029 76.1886 185.989 76.1401C186.029 76.1886 186.07 76.2369 186.109 76.2866ZM247.234 76.1519C247.213 76.1253 247.192 76.0989 247.171 76.0728C247.192 76.0989 247.213 76.1253 247.234 76.1519ZM58.0564 76.1372C58.0463 76.1251 58.0373 76.1121 58.0271 76.1001C58.0155 76.0864 58.0027 76.0737 57.991 76.0601C58.013 76.0856 58.0347 76.1113 58.0564 76.1372ZM167.833 76.0386C167.769 75.9652 167.704 75.8931 167.636 75.8228C167.704 75.8931 167.769 75.9652 167.833 76.0386ZM185.904 76.0386C185.84 75.9652 185.775 75.8931 185.708 75.8228C185.775 75.8931 185.84 75.9652 185.904 76.0386ZM167.391 75.5747C167.345 75.5298 167.296 75.4872 167.248 75.4438C167.296 75.4872 167.345 75.5298 167.391 75.5747ZM182.008 73.8306C183.39 74.1181 184.536 74.6927 185.443 75.5552C185.352 75.469 185.259 75.3856 185.164 75.3052C184.782 74.9832 184.362 74.707 183.904 74.4771C183.675 74.362 183.436 74.2585 183.188 74.1665C183.064 74.1205 182.938 74.0769 182.809 74.0366C182.681 73.9964 182.549 73.9598 182.416 73.9253C182.149 73.8562 181.872 73.7985 181.586 73.7524L182.008 73.8306ZM167.141 75.3491C167.125 75.3348 167.109 75.3193 167.093 75.3052C167.061 75.2786 167.028 75.254 166.996 75.228C167.045 75.2677 167.094 75.3079 167.141 75.3491ZM166.848 75.1118C166.811 75.0832 166.772 75.0556 166.734 75.0278C166.772 75.0556 166.811 75.0832 166.848 75.1118ZM166.563 74.9077C166.515 74.8749 166.466 74.8426 166.417 74.811C166.466 74.8425 166.515 74.875 166.563 74.9077ZM166.287 74.731C166.228 74.6951 166.169 74.6586 166.108 74.6245C166.169 74.6586 166.228 74.6952 166.287 74.731ZM245.602 74.6831L245.564 74.6587C245.548 74.6492 245.532 74.6398 245.516 74.6304C245.545 74.6474 245.574 74.6656 245.602 74.6831ZM245.439 74.5864C245.393 74.56 245.345 74.5346 245.298 74.5093C245.345 74.5346 245.393 74.56 245.439 74.5864ZM165.283 74.2329C165.532 74.3322 165.771 74.4436 166 74.5669C165.944 74.537 165.889 74.5055 165.833 74.4771C165.656 74.388 165.472 74.3081 165.283 74.2329ZM245.236 74.4771C245.196 74.4564 245.156 74.4354 245.116 74.4155C245.156 74.4354 245.196 74.4564 245.236 74.4771ZM244.998 74.3589C244.963 74.3425 244.927 74.3269 244.891 74.311C244.927 74.3269 244.963 74.3425 244.998 74.3589ZM220.351 74.313C220.327 74.3236 220.303 74.3353 220.279 74.3462C220.333 74.322 220.387 74.2988 220.442 74.2759C220.412 74.2885 220.381 74.2999 220.351 74.313ZM244.809 74.2749C244.761 74.2543 244.713 74.234 244.664 74.2144C244.713 74.234 244.761 74.2543 244.809 74.2749ZM220.73 74.1616C220.673 74.1825 220.617 74.205 220.561 74.2271C220.617 74.2048 220.673 74.1826 220.73 74.1616ZM244.579 74.1812C244.527 74.1612 244.475 74.1415 244.423 74.1226C244.475 74.1415 244.527 74.1612 244.579 74.1812ZM165.146 74.1782C165.136 74.1745 165.127 74.1702 165.117 74.1665C165.05 74.1415 164.981 74.1195 164.912 74.0962C164.991 74.1229 165.069 74.1493 165.146 74.1782ZM54.8777 74.0376C55.0066 74.0779 55.1334 74.1204 55.2576 74.1665C55.0096 74.0745 54.7521 73.9943 54.4851 73.9253L54.8777 74.0376ZM244.385 74.1089C244.323 74.087 244.26 74.0658 244.197 74.0454C244.26 74.0658 244.323 74.087 244.385 74.1089ZM164.818 74.064C164.742 74.0391 164.664 74.0164 164.586 73.9937C164.664 74.0164 164.742 74.0391 164.818 74.064ZM164.427 73.9487C164.355 73.9291 164.281 73.9109 164.207 73.8931C164.281 73.9109 164.355 73.9291 164.427 73.9487ZM164.09 73.8647C163.996 73.8436 163.901 73.8237 163.805 73.8052C163.901 73.8237 163.996 73.8436 164.09 73.8647ZM163.722 73.7905C163.654 73.7779 163.584 73.7637 163.514 73.7524C163.486 73.7479 163.458 73.745 163.429 73.7407C163.528 73.7557 163.626 73.7728 163.722 73.7905ZM240.206 73.6489C239.902 73.6719 239.608 73.7065 239.324 73.7524V73.7534C239.75 73.6845 240.198 73.641 240.669 73.6235C240.512 73.6292 240.358 73.6374 240.206 73.6489ZM162.628 73.6499C162.867 73.6679 163.1 73.6939 163.328 73.7261C163.1 73.6939 162.867 73.667 162.628 73.6489V73.6499ZM178.467 73.6821C178.414 73.6878 178.362 73.6933 178.31 73.6997C178.362 73.6934 178.414 73.6877 178.467 73.6821ZM223.19 73.6489C223.051 73.6594 222.915 73.6737 222.78 73.689C223.062 73.657 223.354 73.6345 223.654 73.6235L223.19 73.6489ZM178.812 73.6489C178.773 73.6519 178.733 73.6563 178.694 73.6597C178.753 73.6546 178.813 73.6493 178.873 73.645L178.812 73.6489ZM151.958 67.4683C151.492 67.5527 151.012 67.5991 150.521 67.5991H144.945C146.302 68.246 147.601 69.1334 148.76 70.3345H148.761C148.768 70.341 148.774 70.3485 148.78 70.355C148.797 70.3731 148.816 70.3904 148.834 70.4087L148.832 70.4097C149.009 70.5937 149.18 70.7796 149.343 70.9692C149.516 70.763 149.699 70.56 149.887 70.3599C150.967 69.2045 152.164 68.2976 153.429 67.5991H153.395C152.905 67.5991 152.424 67.5529 151.958 67.4683ZM108.781 67.564C108.544 67.5852 108.305 67.5991 108.065 67.5991H106.286C106.928 68.0814 107.494 68.6587 107.966 69.3091C108.437 68.6588 109.003 68.0814 109.645 67.5991H109.518C109.27 67.5991 109.024 67.5861 108.781 67.564ZM60.0789 67.5991C60.298 67.7201 60.5155 67.8472 60.7302 67.981C60.9437 67.8472 61.1598 67.72 61.3777 67.5991H60.0789ZM77.5427 65.5708C76.9538 65.9154 76.3436 66.2166 75.7146 66.4722C76.4563 66.2047 77.249 66.0434 78.074 66.0073C77.8903 65.8698 77.7137 65.7232 77.5427 65.5708ZM66.5916 59.5991C66.8156 59.6311 67.0318 59.6555 67.24 59.6714L66.9226 59.6411C66.8146 59.6291 66.7046 59.6151 66.5925 59.5991V54.7993H66.5916V59.5991ZM89.5847 59.5991H89.5857L94.9617 25.9995H94.9607L89.5847 59.5991ZM135.641 54.7993H135.642V25.9995H135.641V54.7993ZM145.193 54.7993H145.194V25.9995H145.193V54.7993ZM29.9675 54.2231C29.8956 54.2751 29.8218 54.3242 29.7458 54.3696C29.6701 54.415 29.5922 54.4567 29.5125 54.4956V54.4966C29.6725 54.4186 29.8245 54.3272 29.9685 54.2231C30.0062 54.1973 30.0425 54.1694 30.0779 54.1401C30.0424 54.1695 30.0054 54.1972 29.9675 54.2231ZM30.8181 52.5581C30.7998 52.6843 30.7783 52.8045 30.7517 52.9185L30.7917 52.73C30.802 52.6741 30.8096 52.6166 30.8181 52.5581ZM30.8796 51.6313C30.8796 51.7952 30.8755 51.9521 30.866 52.1021L30.8806 51.6313V25.9995H30.8796V51.6313ZM85.5759 176.025C85.5615 176.123 85.5481 176.222 85.5359 176.322C85.548 176.222 85.5616 176.123 85.5759 176.025ZM85.8123 174.861C85.7818 174.975 85.7531 175.091 85.7263 175.209C85.753 175.091 85.7819 174.975 85.8123 174.861ZM136.584 169.923C136.461 169.892 136.336 169.863 136.209 169.836C136.336 169.863 136.461 169.892 136.584 169.923ZM94.739 128.039C94.7255 128.131 94.7125 128.225 94.7009 128.32C94.7124 128.225 94.7255 128.131 94.739 128.039ZM145.26 143C145.236 142.836 145.207 142.675 145.177 142.516C145.207 142.675 145.236 142.836 145.26 143ZM145.168 142.467C145.165 142.453 145.163 142.438 145.16 142.423C145.134 142.297 145.105 142.173 145.075 142.05C145.108 142.187 145.14 142.326 145.168 142.467ZM144.957 141.608C144.951 141.59 144.946 141.573 144.94 141.555C144.981 141.687 145.018 141.821 145.052 141.958C145.022 141.839 144.991 141.722 144.957 141.608ZM94.9773 126.861C94.9469 126.975 94.9181 127.091 94.8914 127.209C94.9181 127.091 94.9469 126.975 94.9773 126.861ZM61.8777 80.0386C61.8641 80.1314 61.8511 80.2251 61.8396 80.3198C61.8511 80.2251 61.8642 80.1314 61.8777 80.0386ZM171.756 81.3765C171.751 81.478 171.747 81.5806 171.745 81.6841C171.747 81.5806 171.751 81.478 171.756 81.3765ZM145.306 95.0005C145.283 94.8358 145.254 94.6745 145.223 94.5161C145.254 94.6745 145.283 94.8358 145.306 95.0005ZM145.215 94.4673C145.212 94.4527 145.21 94.4379 145.207 94.4233C145.181 94.2968 145.152 94.1727 145.122 94.0503C145.155 94.1868 145.187 94.3257 145.215 94.4673ZM145.004 93.6079C144.998 93.5902 144.992 93.5728 144.987 93.5552C145.027 93.6867 145.064 93.8209 145.099 93.9575C145.069 93.8391 145.038 93.7224 145.004 93.6079ZM62.116 78.8608C62.0855 78.9753 62.0568 79.0914 62.03 79.2095C62.0567 79.0914 62.0856 78.9753 62.116 78.8608ZM168.596 77.1235C168.553 77.0468 168.508 76.9713 168.463 76.897C168.508 76.9714 168.553 77.0468 168.596 77.1235ZM186.668 77.1235C186.624 77.0468 186.58 76.9713 186.534 76.897C186.58 76.9714 186.624 77.0468 186.668 77.1235Z" fill="#1C1456"/>
<g filter="url(#filter0_ii_604_3840)">
<path d="M41.5837 11.9995C42.2522 11.9995 42.9016 12.0833 43.5222 12.2378C44.1429 12.0833 44.7922 11.9995 45.4607 11.9995H59.8611C60.8421 11.9996 61.7817 12.1773 62.6501 12.5005C63.5188 12.1772 64.4589 11.9996 65.4402 11.9995H82.1443C83.3637 11.9996 84.5192 12.2732 85.5535 12.7612C86.5919 12.2717 87.7486 11.9996 88.9607 11.9995H96.6892L97.0554 12.0073C98.1362 12.0563 99.1666 12.3228 100.101 12.7642C101.137 12.2739 102.296 11.9996 103.518 11.9995H117.919C118.287 11.9995 118.649 12.0266 119.004 12.0747C119.359 12.0265 119.721 11.9995 120.09 11.9995H125.321C126.07 11.9995 126.794 12.1051 127.481 12.2974C128.168 12.105 128.893 11.9996 129.641 11.9995H134.922C135.661 11.9995 136.377 12.1026 137.057 12.2905C137.737 12.1025 138.453 11.9996 139.193 11.9995H144.521C145.012 11.9995 145.492 12.0459 145.958 12.1304C146.424 12.0457 146.905 11.9995 147.395 11.9995H152.676C157.094 11.9997 160.676 15.5814 160.676 19.9995V25.4019C162.925 26.0913 165.102 27.3033 166.927 29.2817H166.927C166.933 29.2877 166.939 29.2943 166.944 29.3003C166.961 29.3183 166.978 29.3359 166.995 29.354H166.993C170.113 32.7479 171.043 37.0476 171.043 40.9272V45.2954C171.043 49.1746 170.112 53.4731 166.993 56.8667L166.995 56.8687C166.978 56.8872 166.96 56.905 166.943 56.9233C166.938 56.929 166.933 56.9353 166.927 56.9409L166.927 56.9399C165.332 58.6688 163.469 59.8117 161.523 60.5327C162.626 60.908 163.699 61.4121 164.719 62.063C167.505 60.2859 170.693 59.6148 173.756 59.6147C177.867 59.6148 182.204 60.8235 185.49 64.2964H185.491C185.497 64.3023 185.502 64.309 185.508 64.3149C185.522 64.3301 185.537 64.3446 185.552 64.3599H185.551C187.215 66.1227 188.288 68.1361 188.936 70.2231H189.331C189.851 70.2232 190.36 70.2738 190.852 70.3687L193.173 64.8833L193.295 64.6089C194.606 61.8047 197.427 59.9997 200.541 59.9995H206.301C207.876 59.9995 209.344 60.4566 210.582 61.2427C212.99 60.0702 215.613 59.6148 218.133 59.6147C220.976 59.6148 223.977 60.1958 226.639 61.7661C229.302 60.1955 232.303 59.6148 235.147 59.6147C239.198 59.6147 243.62 60.7977 246.868 64.4351H246.869C249.975 67.8441 250.924 72.1412 250.924 76.063C250.924 78.0335 250.716 80.0531 250.161 82.0073C249.741 83.5452 249.162 85.0427 248.393 86.4653C247.763 87.6803 247.047 88.8422 246.237 89.938C246.203 89.9838 246.168 90.0296 246.134 90.0747C245.718 90.6128 245.33 91.1445 244.969 91.6685C244.871 91.8297 244.776 92.0028 244.687 92.1909C244.686 92.2177 244.683 92.2501 244.683 92.2876C244.683 92.3421 244.685 92.3842 244.686 92.4146C244.687 92.4292 244.688 92.4412 244.688 92.4497C244.862 93.2424 244.91 94.0469 244.843 94.8384C244.957 95.378 245.019 95.9374 245.019 96.5112V101.599C245.019 106.017 241.438 109.599 237.019 109.599H231.931C230.792 109.599 229.708 109.359 228.727 108.929C227.746 109.358 226.663 109.599 225.524 109.599H212.97C214.212 110.285 215.387 111.172 216.451 112.296H216.452C216.472 112.317 216.492 112.339 216.512 112.36H216.511C219.716 115.753 220.732 120.075 220.732 124.063V141.535C220.732 145.561 219.699 149.878 216.512 153.287C216.493 153.308 216.472 153.329 216.452 153.35C213.148 156.808 208.802 157.983 204.717 157.983C202.465 157.983 200.135 157.625 197.943 156.726C197.413 156.997 196.85 157.211 196.26 157.359C196.288 157.632 196.302 157.91 196.302 158.191V158.197C197.839 159.655 198.799 161.715 198.799 164V197.599C198.799 202.017 195.217 205.599 190.799 205.599H186.047C184.874 205.599 183.761 205.344 182.758 204.891C181.747 205.347 180.632 205.599 179.47 205.599H174.047C172.74 205.599 171.507 205.284 170.418 204.728C168.228 205.625 165.901 205.983 163.652 205.983C160.594 205.983 157.389 205.324 154.586 203.542C151.887 205.079 148.869 205.599 146.101 205.599H138.326C137.02 205.599 135.787 205.283 134.698 204.728C132.508 205.625 130.181 205.983 127.931 205.983C124.853 205.983 121.627 205.315 118.81 203.507C117.388 204.806 115.496 205.599 113.419 205.599H108.138C104.396 205.599 101.254 203.029 100.381 199.557C99.9931 200.129 99.5588 200.684 99.072 201.217L99.071 201.216C95.7874 204.816 91.3672 205.983 87.3074 205.983C83.7449 205.983 79.9459 205.087 76.8455 202.502C75.3819 204.385 73.0976 205.599 70.5281 205.599H65.2478C63.7755 205.599 62.3966 205.199 61.2117 204.505C59.089 205.305 56.8653 205.599 54.7839 205.599H47.0076C46.5158 205.599 46.0344 205.552 45.5671 205.467C45.1002 205.552 44.6191 205.599 44.1277 205.599H39.1355C38.5086 205.599 37.8986 205.525 37.3132 205.388C36.7255 205.526 36.1142 205.599 35.488 205.599H30.4958C29.8204 205.599 29.1623 205.512 28.532 205.353C27.9013 205.513 27.2407 205.599 26.5603 205.599H21.9519C17.5338 205.599 13.9519 202.017 13.9519 197.599V164C13.9519 160.832 15.7928 158.095 18.4626 156.798C15.7932 155.502 13.9519 152.766 13.9519 149.599V116C13.9519 111.81 17.1729 108.375 21.2732 108.03C19.307 106.572 18.032 104.235 18.032 101.599V80.4058C14.8281 79.3617 12.5125 76.3516 12.5125 72.7993V67.9995C12.5125 66.1034 13.1728 64.3617 14.2751 62.9907C12.8874 61.5519 12.032 59.5958 12.032 57.439V48.7993C12.032 46.5239 13.0016 44.356 14.697 42.8384C15.351 42.253 16.0897 41.7865 16.8796 41.4478V19.9995C16.8796 15.5815 20.4617 11.9999 24.8796 11.9995H41.5837ZM85.0603 197.772H85.0613H85.0603ZM130.536 197.691L130.592 197.679C130.609 197.675 130.625 197.669 130.642 197.665C130.607 197.674 130.571 197.682 130.536 197.691ZM39.1355 173.509V197.599L39.1365 173.503L39.1355 173.509ZM130.996 197.565C131.025 197.556 131.053 197.546 131.082 197.537C131.053 197.546 131.025 197.556 130.996 197.565ZM131.384 197.432C131.409 197.423 131.435 197.414 131.46 197.405C131.435 197.414 131.409 197.423 131.384 197.432ZM131.783 197.272C131.816 197.257 131.849 197.242 131.883 197.227C131.849 197.242 131.816 197.257 131.783 197.272ZM132.935 196.63C132.955 196.616 132.975 196.602 132.995 196.587C132.975 196.602 132.955 196.616 132.935 196.63ZM133.251 196.395C133.27 196.38 133.29 196.365 133.309 196.349C133.29 196.365 133.27 196.38 133.251 196.395ZM133.549 196.145C133.567 196.129 133.585 196.113 133.603 196.096C133.585 196.113 133.567 196.129 133.549 196.145ZM134.367 195.242C134.292 195.343 134.214 195.443 134.134 195.54L134.368 195.242C134.443 195.14 134.515 195.036 134.585 194.929L134.367 195.242ZM134.971 194.26C134.912 194.376 134.851 194.491 134.787 194.602L134.972 194.26C135.032 194.144 135.088 194.025 135.141 193.904L134.971 194.26ZM79.7966 192.675C79.627 192.013 79.5162 191.294 79.4666 190.518C79.4769 190.681 79.489 190.841 79.5046 190.999C79.5354 191.309 79.5764 191.611 79.6277 191.902C79.6746 192.168 79.732 192.426 79.7966 192.675ZM130.52 191.265L130.559 191.09C130.564 191.067 130.567 191.042 130.571 191.018C130.555 191.103 130.54 191.186 130.52 191.265ZM130.594 190.878C130.603 190.823 130.611 190.767 130.618 190.709C130.611 190.767 130.603 190.823 130.594 190.878ZM130.634 190.571C130.643 190.477 130.651 190.381 130.656 190.283C130.651 190.381 130.643 190.477 130.634 190.571ZM119.915 189.535C119.915 189.705 119.918 189.872 119.924 190.038L119.916 189.535V172.063H119.915V189.535ZM155.635 189.535C155.635 189.705 155.639 189.872 155.644 190.038L155.636 189.535V172.063H155.635V189.535ZM166.387 189.872C166.387 190.08 166.38 190.277 166.364 190.464L166.383 190.175C166.387 190.077 166.388 189.975 166.388 189.872V171.727H166.387V189.872ZM79.5291 170.376C79.4846 170.756 79.4559 171.15 79.4431 171.56C79.438 171.725 79.4353 171.893 79.4353 172.063V189.535C79.4353 189.853 79.4456 190.163 79.4636 190.464C79.4455 190.163 79.4363 189.853 79.4363 189.535V172.063C79.4363 171.47 79.4669 170.908 79.5291 170.376ZM130.667 189.872C130.667 189.999 130.664 190.123 130.658 190.243C130.664 190.123 130.668 189.999 130.668 189.872V171.727H130.667V189.872ZM90.1873 189.872L90.1785 190.204C90.1838 190.096 90.1882 189.986 90.1882 189.872V185.071H90.1873V189.872ZM79.6306 169.689C79.6183 169.758 79.6066 169.828 79.5955 169.899C79.6066 169.828 79.6183 169.758 79.6306 169.689ZM79.7263 169.209C79.7009 169.321 79.6771 169.435 79.655 169.55C79.677 169.435 79.701 169.321 79.7263 169.209ZM102.618 168.799H102.619V164H102.618V168.799ZM130.994 164.041C132.02 164.363 132.895 164.867 133.619 165.555C133.528 165.469 133.435 165.386 133.34 165.305C132.958 164.983 132.538 164.707 132.08 164.477C131.851 164.362 131.612 164.259 131.364 164.167C131.243 164.122 131.119 164.08 130.994 164.041ZM130.584 163.923C130.717 163.958 130.847 163.995 130.975 164.035C130.847 163.995 130.717 163.957 130.584 163.923ZM130.169 163.828C130.059 163.805 129.948 163.785 129.836 163.766C129.948 163.785 130.059 163.805 130.169 163.828ZM126.642 163.682C126.59 163.688 126.538 163.693 126.486 163.7C126.538 163.693 126.59 163.688 126.642 163.682ZM162.363 163.682C162.311 163.688 162.259 163.693 162.207 163.7C162.259 163.693 162.311 163.688 162.363 163.682ZM126.988 163.649C126.948 163.652 126.909 163.656 126.87 163.66C126.929 163.655 126.989 163.649 127.049 163.645L126.988 163.649ZM162.709 163.649C162.669 163.652 162.63 163.656 162.591 163.66C162.65 163.655 162.709 163.649 162.769 163.645L162.709 163.649ZM54.9109 155.553C54.5712 155.771 54.2255 155.972 53.8748 156.157C55.8784 156.56 57.6099 157.713 58.7673 159.309C59.2388 158.659 59.8051 158.081 60.447 157.599H60.2527C58.1995 157.599 56.3272 156.825 54.9109 155.553ZM75.3279 157.599C75.9057 158.033 76.4216 158.545 76.863 159.117C77.5667 158.526 78.3079 158.024 79.074 157.599H75.3279ZM97.3718 157.961C97.0707 157.974 96.7703 157.983 96.4724 157.983C96.3685 157.983 96.2642 157.979 96.1599 157.977C96.3959 158.126 96.6293 158.283 96.8591 158.448C97.0226 158.278 97.194 158.116 97.3718 157.961ZM105.469 155.553C105.223 155.711 104.975 155.86 104.723 156H106.01C105.822 155.859 105.642 155.709 105.469 155.553ZM43.6677 149.772H43.6687H43.6677ZM94.2253 149.772H94.2263H94.2253ZM138.599 145.779H138.6H138.599ZM88.9636 144.687C88.7225 143.751 88.6013 142.7 88.6013 141.535V124.063C88.6013 123.449 88.6343 122.868 88.7009 122.32C88.6526 122.716 88.6216 123.13 88.6082 123.56C88.603 123.725 88.6003 123.893 88.6003 124.063V141.535C88.6003 142.045 88.6235 142.533 88.6697 142.999C88.7004 143.309 88.7415 143.611 88.7927 143.902C88.8403 144.172 88.8978 144.434 88.9636 144.687ZM48.0271 144.416C48.0103 144.432 47.9916 144.447 47.9744 144.463C47.9918 144.447 48.0111 144.432 48.0281 144.416C48.046 144.399 48.0626 144.38 48.0798 144.363C48.0625 144.381 48.0451 144.399 48.0271 144.416ZM196.7 141.535C196.7 141.705 196.703 141.872 196.709 142.038L196.701 141.535V124.063H196.7V141.535ZM207.452 141.872L207.441 142.292C207.448 142.157 207.453 142.017 207.453 141.872V123.727H207.452V141.872ZM99.3523 141.872L99.3425 142.235C99.3489 142.118 99.3533 141.997 99.3533 141.872V137.071H99.3523V141.872ZM139.052 135.958C139.06 135.988 139.067 136.019 139.075 136.05C139.067 136.019 139.06 135.988 139.052 135.958ZM133.138 135.189C133.192 135.238 133.243 135.289 133.291 135.343C133.325 135.379 133.358 135.417 133.39 135.458C133.454 135.537 133.513 135.624 133.568 135.719C133.596 135.767 133.623 135.816 133.648 135.868C133.546 135.662 133.428 135.487 133.292 135.343C133.244 135.289 133.193 135.238 133.138 135.189ZM138.928 135.518C138.884 135.375 138.836 135.234 138.785 135.097C138.836 135.234 138.884 135.375 138.928 135.518ZM169.411 130.399H169.412V116H169.411V130.399ZM188.935 130.399H188.936V116H188.935V130.399ZM132.184 129.292C132.207 129.279 132.229 129.265 132.252 129.252C132.229 129.265 132.207 129.279 132.184 129.292ZM132.355 129.19C132.378 129.175 132.401 129.16 132.424 129.144C132.401 129.16 132.378 129.175 132.355 129.19ZM132.513 129.079C132.539 129.059 132.565 129.039 132.59 129.018C132.565 129.039 132.539 129.059 132.513 129.079ZM132.869 128.755C132.82 128.811 132.769 128.863 132.715 128.911C132.703 128.922 132.69 128.932 132.677 128.943C132.69 128.932 132.703 128.922 132.716 128.911C132.769 128.863 132.82 128.811 132.869 128.755ZM133.569 123.815C133.576 123.956 133.579 124.103 133.579 124.255V126.127C133.579 126.295 133.575 126.457 133.566 126.612L133.58 126.127V124.255C133.58 124.103 133.576 123.957 133.569 123.815ZM88.7957 121.689C88.7833 121.758 88.7717 121.828 88.7605 121.899C88.7716 121.828 88.7833 121.758 88.7957 121.689ZM43.8748 121.38C43.8223 121.452 43.7732 121.529 43.7283 121.612H43.7292C43.7743 121.529 43.8232 121.452 43.8757 121.38H43.8748ZM88.8914 121.209C88.866 121.321 88.8421 121.435 88.8201 121.55C88.8421 121.435 88.866 121.321 88.8914 121.209ZM54.7322 120.799H54.7332V116H54.7322V120.799ZM105.29 120.799H105.291V116H105.29V120.799ZM46.0593 120.416C45.8514 120.416 45.6535 120.431 45.4656 120.463L45.7556 120.427C45.8544 120.419 45.9556 120.416 46.0593 120.416ZM204.717 120.416C204.509 120.416 204.311 120.431 204.123 120.463L204.413 120.427C204.512 120.419 204.613 120.416 204.717 120.416ZM200.967 116.294C200.88 116.332 200.795 116.371 200.712 116.411C200.796 116.371 200.88 116.331 200.967 116.294ZM201.285 116.167C201.185 116.204 201.086 116.243 200.989 116.285C201.092 116.241 201.197 116.199 201.303 116.16L201.285 116.167ZM203.334 115.692C203.213 115.706 203.093 115.723 202.975 115.741C203.093 115.723 203.213 115.706 203.334 115.692ZM203.773 115.649C203.639 115.659 203.507 115.671 203.377 115.686C203.655 115.655 203.943 115.634 204.238 115.624L203.773 115.649ZM143.14 105.173C143.119 105.196 143.097 105.218 143.075 105.24C141.255 107.059 139.135 108.186 136.951 108.837C137.165 108.904 137.378 108.976 137.591 109.053C138.76 108.383 140.116 108 141.56 108H147.39C146.165 107.325 145.003 106.454 143.948 105.35C143.928 105.329 143.907 105.308 143.887 105.287C143.744 105.133 143.607 104.977 143.472 104.82C143.364 104.938 143.254 105.057 143.14 105.173ZM164.719 107.561C164.464 107.723 164.204 107.875 163.942 108.018C164.81 108.075 165.64 108.271 166.411 108.583C166.452 108.566 166.493 108.55 166.534 108.534C165.915 108.256 165.308 107.933 164.719 107.561ZM195.176 107.058C194.855 107.401 194.506 107.717 194.131 108H194.311C195.182 108 196.02 108.14 196.804 108.397C196.204 108.023 195.656 107.573 195.176 107.058ZM36.7039 107.507C36.5145 107.68 36.3174 107.845 36.1121 108H36.3523C36.8345 108 37.3067 108.044 37.7654 108.125C37.4061 107.936 37.0517 107.731 36.7039 107.507ZM72.6072 107.553C72.3425 107.723 72.074 107.882 71.8025 108.032C72.0354 108.011 72.2714 108 72.5095 108H73.1482C72.9611 107.859 72.781 107.709 72.6072 107.553ZM54.7302 107.641C54.5102 107.777 54.2878 107.906 54.0632 108.029C54.2837 108.011 54.507 108 54.7322 108H55.3396C55.1345 107.886 54.9315 107.766 54.7302 107.641ZM61.364 101.772H61.365H61.364ZM158.737 101.57C158.48 101.649 158.213 101.716 157.936 101.772L158.344 101.679C158.478 101.646 158.609 101.609 158.737 101.57ZM176.36 101.691L176.416 101.679C176.433 101.675 176.45 101.669 176.467 101.665C176.431 101.674 176.396 101.682 176.36 101.691ZM176.82 101.565C176.849 101.556 176.877 101.546 176.906 101.537C176.877 101.546 176.849 101.556 176.82 101.565ZM177.208 101.432C177.233 101.423 177.259 101.414 177.284 101.405C177.259 101.414 177.233 101.423 177.208 101.432ZM177.607 101.272C177.641 101.257 177.674 101.242 177.707 101.227C177.674 101.242 177.641 101.257 177.607 101.272ZM178.775 100.621C178.81 100.596 178.845 100.571 178.88 100.545C178.845 100.571 178.81 100.596 178.775 100.621ZM179.074 100.398C179.106 100.372 179.138 100.346 179.17 100.32C179.138 100.346 179.106 100.372 179.074 100.398ZM179.385 100.134C179.401 100.119 179.418 100.105 179.434 100.09C179.418 100.105 179.401 100.119 179.385 100.134ZM162.338 98.9292C162.198 99.1424 162.048 99.3459 161.886 99.5396L162.121 99.2417C162.271 99.0383 162.411 98.825 162.54 98.6021L162.338 98.9292ZM180.409 98.9292C180.269 99.1424 180.119 99.3459 179.958 99.5396L180.192 99.2417C180.343 99.0383 180.482 98.825 180.611 98.6021L180.409 98.9292ZM52.0681 99.4868C52.1334 99.4067 52.1967 99.3249 52.2585 99.2417C52.1966 99.3248 52.1334 99.4067 52.0681 99.4868ZM52.325 99.1479C52.3651 99.092 52.4045 99.0354 52.4431 98.978C52.4046 99.0355 52.3652 99.092 52.325 99.1479ZM138.646 97.7788H138.647H138.646ZM148.321 97.5327C148.333 97.5644 148.348 97.5951 148.36 97.6265C148.333 97.5582 148.307 97.489 148.281 97.4194L148.321 97.5327ZM56.1023 96.687C55.8612 95.7508 55.74 94.7 55.74 93.5347V76.063C55.74 75.4494 55.773 74.8683 55.8396 74.3198C55.7913 74.7162 55.7602 75.1296 55.7468 75.5601C55.7417 75.7252 55.739 75.8928 55.739 76.063V93.5347C55.739 94.0445 55.7622 94.5325 55.8083 94.9985C55.8391 95.3094 55.8801 95.6105 55.9314 95.9019C55.979 96.1721 56.0365 96.4337 56.1023 96.687ZM47.7927 96.4634C47.7328 96.5233 47.6706 96.5799 47.6052 96.6323C47.6707 96.5798 47.7337 96.5234 47.7937 96.4634C47.8257 96.4313 47.8564 96.3976 47.8865 96.3628C47.8563 96.3977 47.8249 96.4312 47.7927 96.4634ZM158.273 95.2651L158.312 95.0903C158.317 95.0666 158.32 95.0422 158.324 95.0181C158.308 95.103 158.293 95.1856 158.273 95.2651ZM158.347 94.8784C158.356 94.8231 158.364 94.7669 158.371 94.7095C158.364 94.7669 158.356 94.8231 158.347 94.8784ZM158.386 94.5708C158.396 94.4774 158.404 94.3815 158.409 94.2827C158.404 94.3815 158.396 94.4774 158.386 94.5708ZM147.741 74.6001C147.693 75.0652 147.668 75.5528 147.668 76.063V93.5347C147.668 93.7048 147.671 93.8724 147.677 94.0376C147.671 93.8723 147.669 93.7047 147.669 93.5347V76.063C147.669 75.5532 147.693 75.0659 147.741 74.6011V74.6001ZM165.745 75.6841C165.742 75.809 165.739 75.9353 165.739 76.063V93.5347C165.739 93.7048 165.742 93.8724 165.748 94.0376C165.743 93.8723 165.74 93.7047 165.74 93.5347V76.063C165.74 75.9353 165.742 75.809 165.745 75.6841ZM176.491 93.8716L176.481 94.2427C176.487 94.1228 176.492 93.9992 176.492 93.8716V75.7271H176.491V93.8716ZM158.42 93.8716C158.42 93.9992 158.416 94.1228 158.411 94.2427C158.417 94.1228 158.421 93.9992 158.421 93.8716V75.7271H158.42V93.8716ZM232.315 88.9272C232.293 88.9961 232.274 89.0665 232.254 89.1372C232.274 89.0664 232.294 88.9962 232.316 88.9272C232.352 88.8154 232.389 88.7046 232.427 88.5952C232.389 88.7047 232.351 88.8153 232.315 88.9272ZM139.099 87.9575C139.107 87.9883 139.114 88.0193 139.122 88.0503C139.114 88.0193 139.107 87.9883 139.099 87.9575ZM133.695 87.8687V87.8677C133.658 87.7934 133.618 87.7239 133.577 87.6577C133.618 87.7242 133.658 87.7941 133.695 87.8687ZM133.185 87.189C133.239 87.2378 133.29 87.2895 133.338 87.3433C133.372 87.3794 133.405 87.4175 133.437 87.4575C133.483 87.5146 133.526 87.576 133.567 87.6411C133.497 87.5305 133.421 87.4309 133.339 87.3433C133.291 87.2893 133.24 87.2378 133.185 87.189ZM138.975 87.5181C138.931 87.3747 138.883 87.2344 138.832 87.0972C138.883 87.2344 138.931 87.3747 138.975 87.5181ZM219.32 81.854C219.242 81.9971 219.162 82.1386 219.08 82.2788H219.081C219.163 82.1387 219.243 81.9971 219.32 81.854ZM132.231 81.2915C132.254 81.2791 132.276 81.2654 132.299 81.2524C132.276 81.2654 132.254 81.2791 132.231 81.2915ZM132.402 81.1899C132.425 81.175 132.448 81.1596 132.47 81.144C132.448 81.1596 132.425 81.175 132.402 81.1899ZM132.56 81.0786C132.586 81.059 132.611 81.0387 132.636 81.0181C132.611 81.0387 132.586 81.059 132.56 81.0786ZM225.343 80.4468C225.28 80.6363 225.212 80.8233 225.14 81.0073C225.176 80.9152 225.212 80.8225 225.246 80.729C225.28 80.6356 225.312 80.5415 225.344 80.4468H225.343ZM132.916 80.7554C132.867 80.8107 132.815 80.8626 132.761 80.9106C132.75 80.9219 132.737 80.9319 132.724 80.9429C132.737 80.9317 132.75 80.922 132.762 80.9106C132.816 80.8627 132.867 80.8106 132.916 80.7554ZM133.616 75.8149C133.623 75.9565 133.626 76.1033 133.626 76.2554V78.1274C133.626 78.2954 133.622 78.4569 133.613 78.6118L133.627 78.1274V76.2554C133.627 76.1033 133.623 75.9565 133.616 75.8149ZM242.895 75.1206C242.914 75.4257 242.924 75.7398 242.924 76.063C242.924 76.4311 242.913 76.7873 242.893 77.1313H242.894C242.904 76.9592 242.912 76.7841 242.917 76.606C242.922 76.428 242.924 76.2469 242.924 76.063C242.924 75.7398 242.914 75.4257 242.895 75.1206ZM165.771 75.0728C165.769 75.1126 165.768 75.1527 165.765 75.1929C165.77 75.1211 165.774 75.0498 165.779 74.979C165.777 75.0102 165.773 75.0414 165.771 75.0728ZM242.888 75.0151C242.884 74.9453 242.879 74.876 242.873 74.8071C242.879 74.876 242.884 74.9453 242.888 75.0151ZM242.861 74.6792C242.859 74.6528 242.858 74.6263 242.855 74.6001C242.851 74.5615 242.846 74.5232 242.842 74.4849C242.849 74.5492 242.855 74.614 242.861 74.6792ZM242.775 73.9751C242.791 74.0793 242.805 74.1848 242.818 74.2915C242.805 74.1848 242.791 74.0793 242.775 73.9751ZM55.9343 73.689C55.922 73.7584 55.9103 73.8284 55.8992 73.8989C55.9103 73.8284 55.922 73.7584 55.9343 73.689ZM242.74 73.7515C242.731 73.698 242.721 73.6451 242.711 73.5923C242.721 73.6451 242.731 73.698 242.74 73.7515ZM43.6404 73.3804C43.5879 73.4518 43.5389 73.5289 43.4939 73.6118H43.4949C43.5399 73.5288 43.5888 73.4518 43.6414 73.3804H43.6404ZM215.803 73.3804C215.751 73.4518 215.702 73.5289 215.657 73.6118H215.658C215.703 73.5289 215.752 73.4518 215.804 73.3804H215.803ZM56.03 73.2095C56.0047 73.3215 55.9808 73.4351 55.9587 73.5503C55.9808 73.4351 56.0047 73.3215 56.03 73.2095ZM242.662 73.3472C242.654 73.3109 242.646 73.2747 242.638 73.2388C242.646 73.2747 242.654 73.3109 242.662 73.3472ZM242.556 72.8989C242.553 72.8863 242.551 72.8734 242.548 72.8608C242.539 72.83 242.53 72.7996 242.521 72.769C242.533 72.8121 242.545 72.8553 242.556 72.8989ZM219.104 72.6196C219.227 72.6706 219.344 72.7311 219.455 72.8013L219.343 72.7339C219.189 72.6488 219.025 72.5807 218.85 72.5298C218.938 72.5553 219.022 72.5856 219.104 72.6196ZM72.4285 72.7993H72.4294V67.9995H72.4285V72.7993ZM242.452 72.5298C242.445 72.5077 242.439 72.4853 242.432 72.4634C242.427 72.4473 242.421 72.4316 242.416 72.4155C242.428 72.4534 242.44 72.4915 242.452 72.5298ZM45.825 72.4155C45.617 72.4155 45.4191 72.4314 45.2312 72.4634L45.5212 72.4272C45.62 72.4193 45.7212 72.4155 45.825 72.4155ZM242.183 71.7837C242.165 71.7402 242.147 71.6967 242.129 71.6538C242.147 71.6967 242.165 71.7401 242.183 71.7837ZM162.615 71.1558C162.715 71.3353 162.808 71.5211 162.894 71.7134V71.7124C162.808 71.5203 162.715 71.335 162.615 71.1558ZM180.686 71.1558C180.786 71.3353 180.879 71.5211 180.966 71.7134V71.7124C180.88 71.5203 180.786 71.335 180.686 71.1558ZM52.7058 71.0679C52.6894 71.0394 52.6728 71.0111 52.656 70.9829C52.6728 71.0111 52.6894 71.0394 52.7058 71.0679ZM162.395 70.7915C162.361 70.7386 162.327 70.686 162.292 70.6343C162.327 70.686 162.361 70.7386 162.395 70.7915ZM180.467 70.7915C180.433 70.7386 180.398 70.686 180.363 70.6343C180.398 70.686 180.433 70.7386 180.467 70.7915ZM52.4998 70.7319C52.4794 70.701 52.4581 70.6707 52.4373 70.6401C52.4581 70.6707 52.4794 70.701 52.4998 70.7319ZM162.224 70.5366C162.184 70.4798 162.142 70.424 162.1 70.3687C162.142 70.424 162.184 70.4798 162.224 70.5366ZM180.296 70.5366C180.255 70.4798 180.214 70.424 180.172 70.3687C180.214 70.424 180.255 70.4798 180.296 70.5366ZM241.442 70.4302L241.418 70.3931C241.402 70.3717 241.385 70.3517 241.37 70.3306C241.394 70.3636 241.418 70.3966 241.442 70.4302ZM52.2869 70.4292C52.2719 70.409 52.2571 70.3886 52.2419 70.3687C52.2571 70.3886 52.2719 70.409 52.2869 70.4292ZM162.038 70.2866C161.999 70.2369 161.958 70.1886 161.918 70.1401C161.958 70.1886 161.999 70.2369 162.038 70.2866ZM180.109 70.2866C180.07 70.2369 180.029 70.1886 179.989 70.1401C180.029 70.1886 180.07 70.2369 180.109 70.2866ZM241.234 70.1519C241.213 70.1253 241.192 70.0989 241.171 70.0728C241.192 70.0989 241.213 70.1253 241.234 70.1519ZM52.0564 70.1372C52.0463 70.1251 52.0373 70.1121 52.0271 70.1001C52.0155 70.0864 52.0027 70.0737 51.991 70.0601C52.013 70.0856 52.0347 70.1113 52.0564 70.1372ZM161.833 70.0386C161.769 69.9652 161.704 69.8931 161.636 69.8228C161.704 69.8931 161.769 69.9652 161.833 70.0386ZM179.904 70.0386C179.84 69.9652 179.775 69.8931 179.708 69.8228C179.775 69.8931 179.84 69.9652 179.904 70.0386ZM161.391 69.5747C161.345 69.5298 161.296 69.4872 161.248 69.4438C161.296 69.4872 161.345 69.5298 161.391 69.5747ZM176.008 67.8306C177.39 68.1181 178.536 68.6927 179.443 69.5552C179.352 69.469 179.259 69.3856 179.164 69.3052C178.782 68.9832 178.362 68.707 177.904 68.4771C177.675 68.362 177.436 68.2585 177.188 68.1665C177.064 68.1205 176.938 68.0769 176.809 68.0366C176.681 67.9964 176.549 67.9598 176.416 67.9253C176.149 67.8562 175.872 67.7985 175.586 67.7524L176.008 67.8306ZM161.141 69.3491C161.125 69.3348 161.109 69.3193 161.093 69.3052C161.061 69.2786 161.028 69.254 160.996 69.228C161.045 69.2677 161.094 69.3079 161.141 69.3491ZM160.848 69.1118C160.811 69.0832 160.772 69.0556 160.734 69.0278C160.772 69.0556 160.811 69.0832 160.848 69.1118ZM160.563 68.9077C160.515 68.8749 160.466 68.8426 160.417 68.811C160.466 68.8425 160.515 68.875 160.563 68.9077ZM160.287 68.731C160.228 68.6951 160.169 68.6586 160.108 68.6245C160.169 68.6586 160.228 68.6952 160.287 68.731ZM239.602 68.6831L239.564 68.6587C239.548 68.6492 239.532 68.6398 239.516 68.6304C239.545 68.6474 239.574 68.6656 239.602 68.6831ZM239.439 68.5864C239.393 68.56 239.345 68.5346 239.298 68.5093C239.345 68.5346 239.393 68.56 239.439 68.5864ZM159.283 68.2329C159.532 68.3322 159.771 68.4436 160 68.5669C159.944 68.537 159.889 68.5055 159.833 68.4771C159.656 68.388 159.472 68.3081 159.283 68.2329ZM239.236 68.4771C239.196 68.4564 239.156 68.4354 239.116 68.4155C239.156 68.4354 239.196 68.4564 239.236 68.4771ZM238.998 68.3589C238.963 68.3425 238.927 68.3269 238.891 68.311C238.927 68.3269 238.963 68.3425 238.998 68.3589ZM214.351 68.313C214.327 68.3236 214.303 68.3353 214.279 68.3462C214.333 68.322 214.387 68.2988 214.442 68.2759C214.412 68.2885 214.381 68.2999 214.351 68.313ZM238.809 68.2749C238.761 68.2543 238.713 68.234 238.664 68.2144C238.713 68.234 238.761 68.2543 238.809 68.2749ZM214.73 68.1616C214.673 68.1825 214.617 68.205 214.561 68.2271C214.617 68.2048 214.673 68.1826 214.73 68.1616ZM238.579 68.1812C238.527 68.1612 238.475 68.1415 238.423 68.1226C238.475 68.1415 238.527 68.1612 238.579 68.1812ZM159.146 68.1782C159.136 68.1745 159.127 68.1702 159.117 68.1665C159.05 68.1415 158.981 68.1195 158.912 68.0962C158.991 68.1229 159.069 68.1493 159.146 68.1782ZM48.8777 68.0376C49.0066 68.0779 49.1334 68.1204 49.2576 68.1665C49.0096 68.0745 48.7521 67.9943 48.4851 67.9253L48.8777 68.0376ZM238.385 68.1089C238.323 68.087 238.26 68.0658 238.197 68.0454C238.26 68.0658 238.323 68.087 238.385 68.1089ZM158.818 68.064C158.742 68.0391 158.664 68.0164 158.586 67.9937C158.664 68.0164 158.742 68.0391 158.818 68.064ZM158.427 67.9487C158.355 67.9291 158.281 67.9109 158.207 67.8931C158.281 67.9109 158.355 67.9291 158.427 67.9487ZM158.09 67.8647C157.996 67.8436 157.901 67.8237 157.805 67.8052C157.901 67.8237 157.996 67.8436 158.09 67.8647ZM157.722 67.7905C157.654 67.7779 157.584 67.7637 157.514 67.7524C157.486 67.7479 157.458 67.745 157.429 67.7407C157.528 67.7557 157.626 67.7728 157.722 67.7905ZM234.206 67.6489C233.902 67.6719 233.608 67.7065 233.324 67.7524V67.7534C233.75 67.6845 234.198 67.641 234.669 67.6235C234.512 67.6292 234.358 67.6374 234.206 67.6489ZM156.628 67.6499C156.867 67.6679 157.1 67.6939 157.328 67.7261C157.1 67.6939 156.867 67.667 156.628 67.6489V67.6499ZM172.467 67.6821C172.414 67.6878 172.362 67.6933 172.31 67.6997C172.362 67.6934 172.414 67.6877 172.467 67.6821ZM217.19 67.6489C217.051 67.6594 216.915 67.6737 216.78 67.689C217.062 67.657 217.354 67.6345 217.654 67.6235L217.19 67.6489ZM172.812 67.6489C172.773 67.6519 172.733 67.6563 172.694 67.6597C172.753 67.6546 172.813 67.6493 172.873 67.645L172.812 67.6489ZM145.958 61.4683C145.492 61.5527 145.012 61.5991 144.521 61.5991H138.945C140.302 62.246 141.601 63.1334 142.76 64.3345H142.761C142.768 64.341 142.774 64.3485 142.78 64.355C142.797 64.3731 142.816 64.3904 142.834 64.4087L142.832 64.4097C143.009 64.5937 143.18 64.7796 143.343 64.9692C143.516 64.763 143.699 64.56 143.887 64.3599C144.967 63.2045 146.164 62.2976 147.429 61.5991H147.395C146.905 61.5991 146.424 61.5529 145.958 61.4683ZM102.781 61.564C102.544 61.5852 102.305 61.5991 102.065 61.5991H100.286C100.928 62.0814 101.494 62.6587 101.966 63.3091C102.437 62.6588 103.003 62.0814 103.645 61.5991H103.518C103.27 61.5991 103.024 61.5861 102.781 61.564ZM54.0789 61.5991C54.298 61.7201 54.5155 61.8472 54.7302 61.981C54.9437 61.8472 55.1598 61.72 55.3777 61.5991H54.0789ZM71.5427 59.5708C70.9538 59.9154 70.3436 60.2166 69.7146 60.4722C70.4563 60.2047 71.249 60.0434 72.074 60.0073C71.8903 59.8698 71.7137 59.7232 71.5427 59.5708ZM60.5916 53.5991C60.8156 53.6311 61.0318 53.6555 61.24 53.6714L60.9226 53.6411C60.8146 53.6291 60.7046 53.6151 60.5925 53.5991V48.7993H60.5916V53.5991ZM83.5847 53.5991H83.5857L88.9617 19.9995H88.9607L83.5847 53.5991ZM129.641 48.7993H129.642V19.9995H129.641V48.7993ZM139.193 48.7993H139.194V19.9995H139.193V48.7993ZM23.9675 48.2231C23.8956 48.2751 23.8218 48.3242 23.7458 48.3696C23.6701 48.415 23.5922 48.4567 23.5125 48.4956V48.4966C23.6725 48.4186 23.8245 48.3272 23.9685 48.2231C24.0062 48.1973 24.0425 48.1694 24.0779 48.1401C24.0424 48.1695 24.0054 48.1972 23.9675 48.2231ZM24.8181 46.5581C24.7998 46.6843 24.7783 46.8045 24.7517 46.9185L24.7917 46.73C24.802 46.6741 24.8096 46.6166 24.8181 46.5581ZM24.8796 45.6313C24.8796 45.7952 24.8755 45.9521 24.866 46.1021L24.8806 45.6313V19.9995H24.8796V45.6313ZM79.5759 170.025C79.5615 170.123 79.5481 170.222 79.5359 170.322C79.548 170.222 79.5616 170.123 79.5759 170.025ZM79.8123 168.861C79.7818 168.975 79.7531 169.091 79.7263 169.209C79.753 169.091 79.7819 168.975 79.8123 168.861ZM130.584 163.923C130.461 163.892 130.336 163.863 130.209 163.836C130.336 163.863 130.461 163.892 130.584 163.923ZM88.739 122.039C88.7255 122.131 88.7125 122.225 88.7009 122.32C88.7124 122.225 88.7255 122.131 88.739 122.039ZM139.26 137C139.236 136.836 139.207 136.675 139.177 136.516C139.207 136.675 139.236 136.836 139.26 137ZM139.168 136.467C139.165 136.453 139.163 136.438 139.16 136.423C139.134 136.297 139.105 136.173 139.075 136.05C139.108 136.187 139.14 136.326 139.168 136.467ZM138.957 135.608C138.951 135.59 138.946 135.573 138.94 135.555C138.981 135.687 139.018 135.821 139.052 135.958C139.022 135.839 138.991 135.722 138.957 135.608ZM88.9773 120.861C88.9469 120.975 88.9181 121.091 88.8914 121.209C88.9181 121.091 88.9469 120.975 88.9773 120.861ZM55.8777 74.0386C55.8641 74.1314 55.8511 74.2251 55.8396 74.3198C55.8511 74.2251 55.8642 74.1314 55.8777 74.0386ZM165.756 75.3765C165.751 75.478 165.747 75.5806 165.745 75.6841C165.747 75.5806 165.751 75.478 165.756 75.3765ZM139.306 89.0005C139.283 88.8358 139.254 88.6745 139.223 88.5161C139.254 88.6745 139.283 88.8358 139.306 89.0005ZM139.215 88.4673C139.212 88.4527 139.21 88.4379 139.207 88.4233C139.181 88.2968 139.152 88.1727 139.122 88.0503C139.155 88.1868 139.187 88.3257 139.215 88.4673ZM139.004 87.6079C138.998 87.5902 138.992 87.5728 138.987 87.5552C139.027 87.6867 139.064 87.8209 139.099 87.9575C139.069 87.8391 139.038 87.7224 139.004 87.6079ZM56.116 72.8608C56.0855 72.9753 56.0568 73.0914 56.03 73.2095C56.0567 73.0914 56.0856 72.9753 56.116 72.8608ZM162.596 71.1235C162.553 71.0468 162.508 70.9713 162.463 70.897C162.508 70.9714 162.553 71.0468 162.596 71.1235ZM180.668 71.1235C180.624 71.0468 180.58 70.9713 180.534 70.897C180.58 70.9714 180.624 71.0468 180.668 71.1235Z" fill="#F2426C"/>
</g>
<path d="M20.0322 48.7991C20.3202 48.8311 20.6242 48.8471 20.9442 48.8471C21.2642 48.8471 21.5682 48.8471 21.8562 48.8471C22.6882 48.8471 23.3922 48.6391 23.9682 48.2231C24.5762 47.8071 24.8802 46.9431 24.8802 45.6311V19.9991H41.5842V48.7991H44.2722V57.4391H38.8962V53.5991H25.4082V57.4391H20.0322V48.7991ZM30.1602 45.2471C30.1602 46.6551 30.0162 47.8391 29.7282 48.7991H36.3042V24.7991H30.1602V45.2471ZM50.741 34.1591H57.989V38.9591H50.741V48.7991H59.861V53.5991H45.461V19.9991H59.861V24.7991H50.741V34.1591ZM76.8642 24.7991H70.7202V45.2471C70.7202 46.9431 70.5122 48.3351 70.0962 49.4231C69.6802 50.5111 69.1202 51.3751 68.4162 52.0151C67.7122 52.6231 66.8962 53.0551 65.9682 53.3111C65.0722 53.5671 64.1282 53.6951 63.1362 53.6951C62.6562 53.6951 62.2242 53.6951 61.8402 53.6951C61.4562 53.6951 61.0402 53.6631 60.5922 53.5991V48.7991C60.8802 48.8311 61.1842 48.8471 61.5042 48.8471C61.8242 48.8471 62.1282 48.8471 62.4162 48.8471C63.2482 48.8471 63.9522 48.6391 64.5282 48.2231C65.1362 47.8071 65.4402 46.9431 65.4402 45.6311V19.9991H82.1442V53.5991H76.8642V24.7991ZM102.065 53.5991H96.7374L95.8254 47.5031H89.3454L88.4334 53.5991H83.5854L88.9614 19.9991H96.6894L102.065 53.5991ZM90.0174 42.9431H95.1054L92.5614 25.9511L90.0174 42.9431ZM108.798 34.1591H116.046V38.9591H108.798V48.7991H117.918V53.5991H103.518V19.9991H117.918V24.7991H108.798V34.1591ZM134.922 48.7991H139.194V19.9991H144.522V53.5991H120.09V19.9991H125.322V48.7991H129.642V19.9991H134.922V48.7991ZM155.171 48.7991C156.003 48.7991 156.643 48.5751 157.091 48.1271C157.539 47.6791 157.763 46.8471 157.763 45.6311V40.5911C157.763 39.3751 157.539 38.5431 157.091 38.0951C156.643 37.6471 156.003 37.4231 155.171 37.4231H152.675V48.7991H155.171ZM147.395 53.5991V19.9991H152.675V32.6231H155.171C157.827 32.6231 159.795 33.3271 161.075 34.7351C162.387 36.1431 163.043 38.2071 163.043 40.9271V45.2951C163.043 48.0151 162.387 50.0791 161.075 51.4871C159.795 52.8951 157.827 53.5991 155.171 53.5991H147.395ZM20.5122 67.9991H36.8322V72.7991H31.3122V101.599H26.0322V72.7991H20.5122V67.9991ZM43.0891 93.8711C43.0891 95.0871 43.3291 95.9511 43.8091 96.4631C44.3211 96.9431 44.9931 97.1831 45.8251 97.1831C46.6571 97.1831 47.3131 96.9431 47.7931 96.4631C48.3051 95.9511 48.5611 95.0871 48.5611 93.8711V75.7271C48.5611 74.5111 48.3051 73.6631 47.7931 73.1831C47.3131 72.6711 46.6571 72.4151 45.8251 72.4151C44.9931 72.4151 44.3211 72.6711 43.8091 73.1831C43.3291 73.6631 43.0891 74.5111 43.0891 75.7271V93.8711ZM37.8091 76.0631C37.8091 73.3431 38.4971 71.2631 39.8731 69.8231C41.2491 68.3511 43.2331 67.6151 45.8251 67.6151C48.4171 67.6151 50.4011 68.3511 51.7771 69.8231C53.1531 71.2631 53.8411 73.3431 53.8411 76.0631V93.5351C53.8411 96.2551 53.1531 98.3511 51.7771 99.8231C50.4011 101.263 48.4171 101.983 45.8251 101.983C43.2331 101.983 41.2491 101.263 39.8731 99.8231C38.4971 98.3511 37.8091 96.2551 37.8091 93.5351V76.0631ZM71.4837 89.0711V93.5351C71.4837 96.2551 70.8117 98.3511 69.4677 99.8231C68.1557 101.263 66.2037 101.983 63.6117 101.983C61.0197 101.983 59.0517 101.263 57.7077 99.8231C56.3957 98.3511 55.7397 96.2551 55.7397 93.5351V76.0631C55.7397 73.3431 56.3957 71.2631 57.7077 69.8231C59.0517 68.3511 61.0197 67.6151 63.6117 67.6151C66.2037 67.6151 68.1557 68.3511 69.4677 69.8231C70.8117 71.2631 71.4837 73.3431 71.4837 76.0631V79.3271H66.4917V75.7271C66.4917 74.5111 66.2357 73.6631 65.7237 73.1831C65.2437 72.6711 64.5877 72.4151 63.7557 72.4151C62.9237 72.4151 62.2517 72.6711 61.7397 73.1831C61.2597 73.6631 61.0197 74.5111 61.0197 75.7271V93.8711C61.0197 95.0871 61.2597 95.9351 61.7397 96.4151C62.2517 96.8951 62.9237 97.1351 63.7557 97.1351C64.5877 97.1351 65.2437 96.8951 65.7237 96.4151C66.2357 95.9351 66.4917 95.0871 66.4917 93.8711V89.0711H71.4837ZM72.4291 67.9991H88.7491V72.7991H83.2291V101.599H77.9491V72.7991H72.4291V67.9991ZM97.982 96.7991C98.814 96.7991 99.454 96.5751 99.902 96.1271C100.35 95.6791 100.574 94.8471 100.574 93.6311V88.5911C100.574 87.3751 100.35 86.5431 99.902 86.0951C99.454 85.6471 98.814 85.4231 97.982 85.4231H95.486V96.7991H97.982ZM90.206 101.599V67.9991H95.486V80.6231H97.982C100.638 80.6231 102.606 81.3271 103.886 82.7351C105.198 84.1431 105.854 86.2071 105.854 88.9271V93.2951C105.854 96.0151 105.198 98.0791 103.886 99.4871C102.606 100.895 100.638 101.599 97.982 101.599H90.206ZM108.446 67.9991H113.726V101.599H108.446V67.9991ZM131.082 67.9991C133.834 67.9991 135.818 68.6391 137.034 69.9191C138.282 71.1991 138.906 73.1351 138.906 75.7271V76.9271C138.906 78.6551 138.634 80.0791 138.09 81.1991C137.546 82.3191 136.682 83.1511 135.498 83.6951C136.938 84.2391 137.946 85.1351 138.522 86.3831C139.13 87.5991 139.434 89.1031 139.434 90.8951V93.6311C139.434 96.2231 138.762 98.2071 137.418 99.5831C136.074 100.927 134.074 101.599 131.418 101.599H123.114V67.9991H131.082ZM128.394 86.4791V96.7991H131.418C132.314 96.7991 132.986 96.5591 133.434 96.0791C133.914 95.5991 134.154 94.7351 134.154 93.4871V90.5591C134.154 88.9911 133.882 87.9191 133.338 87.3431C132.826 86.7671 131.962 86.4791 130.746 86.4791H128.394ZM128.394 72.7991V81.6791H130.458C131.45 81.6791 132.218 81.4231 132.762 80.9111C133.338 80.3991 133.626 79.4711 133.626 78.1271V76.2551C133.626 75.0391 133.402 74.1591 132.954 73.6151C132.538 73.0711 131.866 72.7991 130.938 72.7991H128.394ZM152.948 93.8711C152.948 95.0871 153.188 95.9511 153.668 96.4631C154.18 96.9431 154.852 97.1831 155.684 97.1831C156.516 97.1831 157.172 96.9431 157.652 96.4631C158.164 95.9511 158.42 95.0871 158.42 93.8711V75.7271C158.42 74.5111 158.164 73.6631 157.652 73.1831C157.172 72.6711 156.516 72.4151 155.684 72.4151C154.852 72.4151 154.18 72.6711 153.668 73.1831C153.188 73.6631 152.948 74.5111 152.948 75.7271V93.8711ZM147.668 76.0631C147.668 73.3431 148.356 71.2631 149.732 69.8231C151.108 68.3511 153.092 67.6151 155.684 67.6151C158.276 67.6151 160.26 68.3511 161.636 69.8231C163.012 71.2631 163.7 73.3431 163.7 76.0631V93.5351C163.7 96.2551 163.012 98.3511 161.636 99.8231C160.26 101.263 158.276 101.983 155.684 101.983C153.092 101.983 151.108 101.263 149.732 99.8231C148.356 98.3511 147.668 96.2551 147.668 93.5351V76.0631ZM171.02 93.8711C171.02 95.0871 171.26 95.9511 171.74 96.4631C172.252 96.9431 172.924 97.1831 173.756 97.1831C174.588 97.1831 175.244 96.9431 175.724 96.4631C176.236 95.9511 176.492 95.0871 176.492 93.8711V75.7271C176.492 74.5111 176.236 73.6631 175.724 73.1831C175.244 72.6711 174.588 72.4151 173.756 72.4151C172.924 72.4151 172.252 72.6711 171.74 73.1831C171.26 73.6631 171.02 74.5111 171.02 75.7271V93.8711ZM165.74 76.0631C165.74 73.3431 166.428 71.2631 167.804 69.8231C169.18 68.3511 171.164 67.6151 173.756 67.6151C176.348 67.6151 178.332 68.3511 179.708 69.8231C181.084 71.2631 181.772 73.3431 181.772 76.0631V93.5351C181.772 96.2551 181.084 98.3511 179.708 99.8231C178.332 101.263 176.348 101.983 173.756 101.983C171.164 101.983 169.18 101.263 167.804 99.8231C166.428 98.3511 165.74 96.2551 165.74 93.5351V76.0631ZM189.331 96.5111V101.599H184.243V96.5111H189.331ZM189.331 78.2231V83.3111H184.243V78.2231H189.331ZM190.941 90.7031L200.541 67.9991H206.301V90.7031H208.797V95.5031H206.301V101.599H201.021V95.5031H190.941V90.7031ZM201.021 90.7031V78.2711L195.789 90.7031H201.021ZM220.724 76.2551C220.724 74.7511 220.468 73.7431 219.956 73.2311C219.476 72.6871 218.82 72.4151 217.988 72.4151C217.156 72.4151 216.484 72.6711 215.972 73.1831C215.492 73.6631 215.252 74.5111 215.252 75.7271V79.3271H210.26V76.0631C210.26 73.3431 210.916 71.2631 212.228 69.8231C213.572 68.3511 215.54 67.6151 218.132 67.6151C220.724 67.6151 222.676 68.3511 223.988 69.8231C225.332 71.2631 226.004 73.3431 226.004 76.0631C226.004 77.8871 225.716 79.5351 225.14 81.0071C224.596 82.4791 223.908 83.8231 223.076 85.0391C222.244 86.2551 221.348 87.3751 220.388 88.3991C219.428 89.3911 218.564 90.3511 217.796 91.2791C217.028 92.1751 216.42 93.0711 215.972 93.9671C215.524 94.8631 215.38 95.8071 215.54 96.7991H225.524V101.599H210.26V97.4711C210.26 95.8391 210.516 94.3991 211.028 93.1511C211.54 91.9031 212.18 90.7671 212.948 89.7431C213.748 88.6871 214.596 87.7111 215.492 86.8151C216.388 85.8871 217.22 84.9111 217.988 83.8871C218.788 82.8631 219.444 81.7431 219.956 80.5271C220.468 79.3111 220.724 77.8871 220.724 76.2551ZM232.172 94.1591C231.98 93.5831 231.884 92.8951 231.884 92.0951C231.884 90.8791 232.028 89.8231 232.316 88.9271C232.604 88.0311 232.956 87.2151 233.372 86.4791C233.788 85.7111 234.252 84.9911 234.764 84.3191C235.276 83.6151 235.74 82.8631 236.156 82.0631C236.572 81.2631 236.924 80.3671 237.212 79.3751C237.5 78.3511 237.644 77.1351 237.644 75.7271C237.644 74.5111 237.404 73.6631 236.924 73.1831C236.476 72.6711 235.836 72.4151 235.004 72.4151C234.172 72.4151 233.516 72.6711 233.036 73.1831C232.588 73.6631 232.364 74.5111 232.364 75.7271V79.3751H227.372V76.0631C227.372 73.3431 228.012 71.2631 229.292 69.8231C230.604 68.3511 232.556 67.6151 235.148 67.6151C237.74 67.6151 239.676 68.3511 240.956 69.8231C242.268 71.2631 242.924 73.3431 242.924 76.0631C242.924 77.5351 242.764 78.8151 242.444 79.9031C242.156 80.9591 241.772 81.9191 241.292 82.7831C240.844 83.6471 240.348 84.4471 239.804 85.1831C239.26 85.8871 238.748 86.5911 238.268 87.2951C237.82 87.9991 237.436 88.7511 237.116 89.5511C236.828 90.3511 236.684 91.2631 236.684 92.2871C236.684 92.9911 236.748 93.6151 236.876 94.1591H232.172ZM237.02 96.5111V101.599H231.932V96.5111H237.02ZM27.2322 130.159H34.4802V134.959H27.2322V144.799H36.3522V149.599H21.9522V115.999H36.3522V120.799H27.2322V130.159ZM53.7875 137.071V141.535C53.7875 144.255 53.1155 146.351 51.7715 147.823C50.4595 149.263 48.5075 149.983 45.9155 149.983C43.3235 149.983 41.3555 149.263 40.0115 147.823C38.6995 146.351 38.0435 144.255 38.0435 141.535V124.063C38.0435 121.343 38.6995 119.263 40.0115 117.823C41.3555 116.351 43.3235 115.615 45.9155 115.615C48.5075 115.615 50.4595 116.351 51.7715 117.823C53.1155 119.263 53.7875 121.343 53.7875 124.063V127.327H48.7955V123.727C48.7955 122.511 48.5395 121.663 48.0275 121.183C47.5475 120.671 46.8915 120.415 46.0595 120.415C45.2275 120.415 44.5555 120.671 44.0435 121.183C43.5635 121.663 43.3235 122.511 43.3235 123.727V141.871C43.3235 143.087 43.5635 143.935 44.0435 144.415C44.5555 144.895 45.2275 145.135 46.0595 145.135C46.8915 145.135 47.5475 144.895 48.0275 144.415C48.5395 143.935 48.7955 143.087 48.7955 141.871V137.071H53.7875ZM54.7329 115.999H71.0529V120.799H65.5329V149.599H60.2529V120.799H54.7329V115.999ZM77.7897 130.159H85.0377V134.959H77.7897V144.799H86.9097V149.599H72.5097V115.999H86.9097V120.799H77.7897V130.159ZM104.345 137.071V141.535C104.345 144.255 103.673 146.351 102.329 147.823C101.017 149.263 99.065 149.983 96.473 149.983C93.881 149.983 91.913 149.263 90.569 147.823C89.257 146.351 88.601 144.255 88.601 141.535V124.063C88.601 121.343 89.257 119.263 90.569 117.823C91.913 116.351 93.881 115.615 96.473 115.615C99.065 115.615 101.017 116.351 102.329 117.823C103.673 119.263 104.345 121.343 104.345 124.063V127.327H99.353V123.727C99.353 122.511 99.097 121.663 98.585 121.183C98.105 120.671 97.449 120.415 96.617 120.415C95.785 120.415 95.113 120.671 94.601 121.183C94.121 121.663 93.881 122.511 93.881 123.727V141.871C93.881 143.087 94.121 143.935 94.601 144.415C95.113 144.895 95.785 145.135 96.617 145.135C97.449 145.135 98.105 144.895 98.585 144.415C99.097 143.935 99.353 143.087 99.353 141.871V137.071H104.345ZM105.29 115.999H121.61V120.799H116.09V149.599H110.81V120.799H105.29V115.999ZM131.035 115.999C133.787 115.999 135.771 116.639 136.987 117.919C138.235 119.199 138.859 121.135 138.859 123.727V124.927C138.859 126.655 138.587 128.079 138.043 129.199C137.499 130.319 136.635 131.151 135.451 131.695C136.891 132.239 137.899 133.135 138.475 134.383C139.083 135.599 139.387 137.103 139.387 138.895V141.631C139.387 144.223 138.715 146.207 137.371 147.583C136.027 148.927 134.027 149.599 131.371 149.599H123.067V115.999H131.035ZM128.347 134.479V144.799H131.371C132.267 144.799 132.939 144.559 133.387 144.079C133.867 143.599 134.107 142.735 134.107 141.487V138.559C134.107 136.991 133.835 135.919 133.291 135.343C132.779 134.767 131.915 134.479 130.699 134.479H128.347ZM128.347 120.799V129.679H130.411C131.403 129.679 132.171 129.423 132.715 128.911C133.291 128.399 133.579 127.471 133.579 126.127V124.255C133.579 123.039 133.355 122.159 132.907 121.615C132.491 121.071 131.819 120.799 130.891 120.799H128.347ZM146.84 130.159H154.088V134.959H146.84V144.799H155.96V149.599H141.56V115.999H155.96V120.799H146.84V130.159ZM163.412 149.599H158.132V115.999H163.412V130.399H169.412V115.999H174.788V149.599H169.412V135.199H163.412V149.599ZM182.936 149.599H177.656V115.999H182.936V130.399H188.936V115.999H194.312V149.599H188.936V135.199H182.936V149.599ZM201.98 141.871C201.98 143.087 202.22 143.951 202.7 144.463C203.212 144.943 203.884 145.183 204.716 145.183C205.548 145.183 206.204 144.943 206.684 144.463C207.196 143.951 207.452 143.087 207.452 141.871V123.727C207.452 122.511 207.196 121.663 206.684 121.183C206.204 120.671 205.548 120.415 204.716 120.415C203.884 120.415 203.212 120.671 202.7 121.183C202.22 121.663 201.98 122.511 201.98 123.727V141.871ZM196.7 124.063C196.7 121.343 197.388 119.263 198.764 117.823C200.14 116.351 202.124 115.615 204.716 115.615C207.308 115.615 209.292 116.351 210.668 117.823C212.044 119.263 212.732 121.343 212.732 124.063V141.535C212.732 144.255 212.044 146.351 210.668 147.823C209.292 149.263 207.308 149.983 204.716 149.983C202.124 149.983 200.14 149.263 198.764 147.823C197.388 146.351 196.7 144.255 196.7 141.535V124.063ZM33.1842 187.855L36.7842 163.999H44.1282V197.599H39.1362V173.503L35.4882 197.599H30.4962L26.5602 173.839V197.599H21.9522V163.999H29.2962L33.1842 187.855ZM54.7839 192.799C55.6159 192.799 56.2559 192.575 56.7039 192.127C57.1519 191.679 57.3759 190.847 57.3759 189.631V184.591C57.3759 183.375 57.1519 182.543 56.7039 182.095C56.2559 181.647 55.6159 181.423 54.7839 181.423H52.2879V192.799H54.7839ZM47.0079 197.599V163.999H52.2879V176.623H54.7839C57.4399 176.623 59.4079 177.327 60.6879 178.735C61.9999 180.143 62.6559 182.207 62.6559 184.927V189.295C62.6559 192.015 61.9999 194.079 60.6879 195.487C59.4079 196.895 57.4399 197.599 54.7839 197.599H47.0079ZM65.2479 163.999H70.5279V197.599H65.2479V163.999ZM95.18 185.071V189.535C95.18 192.255 94.508 194.351 93.164 195.823C91.852 197.263 89.9 197.983 87.308 197.983C84.716 197.983 82.748 197.263 81.404 195.823C80.092 194.351 79.436 192.255 79.436 189.535V172.063C79.436 169.343 80.092 167.263 81.404 165.823C82.748 164.351 84.716 163.615 87.308 163.615C89.9 163.615 91.852 164.351 93.164 165.823C94.508 167.263 95.18 169.343 95.18 172.063V175.327H90.188V171.727C90.188 170.511 89.932 169.663 89.42 169.183C88.94 168.671 88.284 168.415 87.452 168.415C86.62 168.415 85.948 168.671 85.436 169.183C84.956 169.663 84.716 170.511 84.716 171.727V189.871C84.716 191.087 84.956 191.935 85.436 192.415C85.948 192.895 86.62 193.135 87.452 193.135C88.284 193.135 88.94 192.895 89.42 192.415C89.932 191.935 90.188 191.087 90.188 189.871V185.071H95.18ZM102.618 163.999H118.938V168.799H113.418V197.599H108.138V168.799H102.618V163.999ZM125.195 189.871C125.195 191.087 125.435 191.951 125.915 192.463C126.427 192.943 127.099 193.183 127.931 193.183C128.763 193.183 129.419 192.943 129.899 192.463C130.411 191.951 130.667 191.087 130.667 189.871V171.727C130.667 170.511 130.411 169.663 129.899 169.183C129.419 168.671 128.763 168.415 127.931 168.415C127.099 168.415 126.427 168.671 125.915 169.183C125.435 169.663 125.195 170.511 125.195 171.727V189.871ZM119.915 172.063C119.915 169.343 120.603 167.263 121.979 165.823C123.355 164.351 125.339 163.615 127.931 163.615C130.523 163.615 132.507 164.351 133.883 165.823C135.259 167.263 135.947 169.343 135.947 172.063V189.535C135.947 192.255 135.259 194.351 133.883 195.823C132.507 197.263 130.523 197.983 127.931 197.983C125.339 197.983 123.355 197.263 121.979 195.823C120.603 194.351 119.915 192.255 119.915 189.535V172.063ZM143.606 176.623H146.102C148.758 176.623 150.726 177.327 152.006 178.735C153.318 180.143 153.974 182.207 153.974 184.927V189.295C153.974 192.015 153.318 194.079 152.006 195.487C150.726 196.895 148.758 197.599 146.102 197.599H138.326V163.999H152.294V168.799H143.606V176.623ZM146.102 192.799C146.934 192.799 147.574 192.575 148.022 192.127C148.47 191.679 148.694 190.847 148.694 189.631V184.591C148.694 183.375 148.47 182.543 148.022 182.095C147.574 181.647 146.934 181.423 146.102 181.423H143.606V192.799H146.102ZM160.916 189.871C160.916 191.087 161.156 191.951 161.636 192.463C162.148 192.943 162.82 193.183 163.652 193.183C164.484 193.183 165.14 192.943 165.62 192.463C166.132 191.951 166.388 191.087 166.388 189.871V171.727C166.388 170.511 166.132 169.663 165.62 169.183C165.14 168.671 164.484 168.415 163.652 168.415C162.82 168.415 162.148 168.671 161.636 169.183C161.156 169.663 160.916 170.511 160.916 171.727V189.871ZM155.636 172.063C155.636 169.343 156.324 167.263 157.7 165.823C159.076 164.351 161.06 163.615 163.652 163.615C166.244 163.615 168.228 164.351 169.604 165.823C170.98 167.263 171.668 169.343 171.668 172.063V189.535C171.668 192.255 170.98 194.351 169.604 195.823C168.228 197.263 166.244 197.983 163.652 197.983C161.06 197.983 159.076 197.263 157.7 195.823C156.324 194.351 155.636 192.255 155.636 189.535V172.063ZM179.471 197.599H174.047V163.999H178.751V184.111L184.175 163.999H190.799V197.599H186.047V173.263L179.471 197.599ZM188.303 158.191V162.127H176.687V158.191H188.303Z" fill="white"/>
<defs>
<filter id="filter0_ii_604_3840" x="10.032" y="9.99951" width="242.892" height="197.983" filterUnits="userSpaceOnUse" color-interpolation-filters="sRGB">
<feFlood flood-opacity="0" result="BackgroundImageFix"/>
<feBlend mode="normal" in="SourceGraphic" in2="BackgroundImageFix" result="shape"/>
<feColorMatrix in="SourceAlpha" type="matrix" values="0 0 0 0 0 0 0 0 0 0 0 0 0 0 0 0 0 0 127 0" result="hardAlpha"/>
<feOffset dx="2" dy="2"/>
<feGaussianBlur stdDeviation="2"/>
<feComposite in2="hardAlpha" operator="arithmetic" k2="-1" k3="1"/>
<feColorMatrix type="matrix" values="0 0 0 0 0.94902 0 0 0 0 0.540941 0 0 0 0 0.638324 0 0 0 1 0"/>
<feBlend mode="normal" in2="shape" result="effect1_innerShadow_604_3840"/>
<feColorMatrix in="SourceAlpha" type="matrix" values="0 0 0 0 0 0 0 0 0 0 0 0 0 0 0 0 0 0 127 0" result="hardAlpha"/>
<feOffset dx="-2" dy="-2"/>
<feGaussianBlur stdDeviation="2"/>
<feComposite in2="hardAlpha" operator="arithmetic" k2="-1" k3="1"/>
<feColorMatrix type="matrix" values="0 0 0 0 0.75 0 0 0 0 0.204545 0 0 0 0 0.334711 0 0 0 1 0"/>
<feBlend mode="normal" in2="effect1_innerShadow_604_3840" result="effect2_innerShadow_604_3840"/>
</filter>
</defs>
</svg>
