<svg width="333" height="136" viewBox="0 0 333 136" fill="none" xmlns="http://www.w3.org/2000/svg">
<path d="M173.956 18.636C174.431 18.636 174.896 18.6798 175.348 18.7591C175.8 18.6797 176.265 18.636 176.74 18.636L181.636 18.636C185.551 18.636 188.808 21.4492 189.499 25.1643L199.647 25.1643C201.095 25.1644 202.451 25.5509 203.622 26.2229C204.793 25.5507 206.15 25.1644 207.598 25.1643H214.941L215.308 25.1721C216.518 25.227 217.665 25.5539 218.686 26.095C219.808 25.4998 221.084 25.1644 222.43 25.1643H229.773C230.265 25.1643 230.746 25.2113 231.213 25.2962C231.68 25.2112 232.162 25.1644 232.653 25.1643L237.356 25.1643C238.309 25.1643 239.224 25.3323 240.071 25.638C240.923 25.3312 241.837 25.1644 242.781 25.1643L249.405 25.1643C249.894 25.1644 250.373 25.2111 250.838 25.2952C251.303 25.2111 251.782 25.1644 252.271 25.1643L260.047 25.1643C264.01 25.1643 268.488 26.2289 271.803 29.8235L271.804 29.8225C271.817 29.8368 271.83 29.8522 271.843 29.8665C271.852 29.8761 271.861 29.8852 271.87 29.8948L271.869 29.8958C274.988 33.2895 275.919 37.5887 275.919 41.468V45.8362C275.919 48.3933 275.515 51.1333 274.347 53.6761L274.446 53.6761C278.864 53.6763 282.446 57.2579 282.446 61.6761L282.446 66.7639C282.446 69.3812 281.189 71.7048 279.246 73.1643L280.905 73.1643C281.858 73.1643 282.773 73.3313 283.62 73.637C284.472 73.3303 285.386 73.1644 286.33 73.1643H292.954C293.443 73.1644 293.922 73.2102 294.387 73.2942C294.852 73.2101 295.33 73.1644 295.819 73.1643H301.1C302.161 73.1643 303.173 73.3723 304.1 73.7473C305.026 73.3722 306.039 73.1644 307.1 73.1643L312.476 73.1643C316.894 73.1643 320.476 76.7461 320.476 81.1643V114.764C320.476 119.182 316.894 122.764 312.476 122.764H307.1C306.039 122.764 305.026 122.555 304.1 122.18C303.173 122.555 302.161 122.764 301.1 122.764H295.819C295.33 122.764 294.852 122.717 294.387 122.633C293.922 122.717 293.443 122.764 292.954 122.764L288.202 122.764C287.03 122.764 285.916 122.509 284.913 122.056C283.903 122.512 282.788 122.764 281.626 122.764H276.202C275.964 122.764 275.728 122.751 275.495 122.731C275.257 122.752 275.017 122.764 274.775 122.764L269.352 122.764C268.166 122.764 267.024 122.501 265.992 122.023C264.97 122.497 263.832 122.764 262.631 122.764H257.303C256.102 122.764 254.964 122.497 253.941 122.023C252.91 122.5 251.769 122.764 250.583 122.764L245.159 122.764C242.924 122.764 240.814 121.828 239.313 120.22C239.31 120.223 239.306 120.227 239.302 120.23C239.24 120.277 239.178 120.324 239.115 120.369C237.273 121.709 235.108 122.551 232.743 122.738C232.739 122.738 232.735 122.738 232.73 122.739C232.727 122.739 232.723 122.74 232.72 122.741L232.719 122.74C231.672 122.822 230.566 122.86 229.418 122.86H228.122C227.3 122.86 226.501 122.792 225.743 122.684C224.09 122.448 222.615 121.715 221.46 120.652C220.035 121.962 218.134 122.764 216.046 122.764L210.766 122.764C209.294 122.764 207.915 122.364 206.73 121.67C204.608 122.47 202.383 122.764 200.302 122.764L192.526 122.764C191.126 122.764 189.811 122.403 188.666 121.771C186.627 122.494 184.504 122.764 182.512 122.764L174.736 122.764C172.982 122.764 171.36 122.197 170.041 121.24C168.722 122.197 167.101 122.764 165.347 122.764L160.066 122.764C159.051 122.764 158.08 122.572 157.186 122.227C156.286 122.574 155.314 122.764 154.307 122.764L148.931 122.764C147.885 122.764 146.867 122.557 145.926 122.175C144.996 122.553 143.979 122.764 142.913 122.764L137.634 122.764C135.564 122.764 133.677 121.977 132.257 120.687C129.446 122.483 126.229 123.148 123.159 123.148C121.131 123.148 119.037 122.858 117.04 122.143C116.076 122.545 115.031 122.764 113.958 122.764L108.39 122.764C106.809 122.764 105.31 122.298 104.046 121.48C102.781 122.298 101.283 122.764 99.7021 122.764H94.7578C93.3018 122.764 91.896 122.367 90.6777 121.645C89.4832 122.354 88.0889 122.764 86.5986 122.764L81.8467 122.764C80.6741 122.764 79.5611 122.509 78.5576 122.056C77.5475 122.512 76.4323 122.764 75.2705 122.764L69.8467 122.764C69.3546 122.764 68.8728 122.717 68.4053 122.632C67.9383 122.717 67.4573 122.764 66.9658 122.764L61.6855 122.764C59.6421 122.764 57.7782 121.996 56.3643 120.736C55.3021 121.357 54.1697 121.835 52.9863 122.167L52.9873 122.168C52.9752 122.172 52.9623 122.174 52.9502 122.177C52.9391 122.18 52.9281 122.185 52.917 122.188L52.916 122.187C51.2836 122.646 49.6211 122.86 47.958 122.86H46.6611C45.9776 122.86 45.3103 122.811 44.6689 122.733C44.4443 122.752 44.2168 122.764 43.9873 122.764L39.2354 122.764C38.0627 122.764 36.9497 122.509 35.9463 122.056C34.9362 122.512 33.821 122.764 32.6592 122.764L27.2354 122.764C22.8173 122.764 19.2354 119.182 19.2354 114.764L19.2354 81.1643C19.2354 77.0185 22.3895 73.609 26.4287 73.2044C25.1599 72.5115 23.9581 71.607 22.875 70.4466C22.8333 70.4019 22.7916 70.3564 22.751 70.3108C19.7093 66.8979 18.7559 62.6351 18.7559 58.6995V41.2278C18.7559 37.3061 19.7038 33.0089 22.8096 29.5999L22.8154 29.594C26.0974 25.9995 30.5013 24.7797 34.627 24.7796C36.8304 24.7796 39.1286 25.1294 41.29 26.0169C42.3709 25.4722 43.5918 25.1644 44.8848 25.1643L50.165 25.1643C52.8311 25.1644 55.1909 26.4697 56.6445 28.4749C58.0981 26.4695 60.4588 25.1645 63.125 25.1643H68.4053C68.8991 25.1644 69.3824 25.2115 69.8516 25.2971C70.3213 25.2112 70.8053 25.1644 71.2998 25.1643L79.0762 25.1643C82.9227 25.1644 87.2542 26.1674 90.5361 29.513C93.81 25.9816 98.1772 24.7797 102.271 24.7796C104.475 24.7796 106.773 25.1302 108.935 26.0179C110.015 25.4731 111.236 25.1644 112.529 25.1643H129.186C130.402 25.1644 131.555 25.438 132.588 25.9241C133.625 25.4362 134.779 25.1644 135.989 25.1643H143.718L144.084 25.1721C145.959 25.2572 147.682 25.9938 149.016 27.1731C151.776 25.4295 154.931 24.7797 157.938 24.7796C159.018 24.7796 160.12 24.8654 161.217 25.055C161.951 21.3941 165.184 18.6362 169.061 18.636L173.956 18.636ZM45.4131 114.764C45.8608 114.828 46.2774 114.86 46.6611 114.86H46.6621C46.2781 114.86 45.862 114.828 45.4141 114.764L45.4141 109.964H45.4131L45.4131 114.764ZM125.764 114.856L125.819 114.844C125.836 114.84 125.853 114.834 125.87 114.829C125.835 114.839 125.799 114.847 125.764 114.856ZM210.766 114.764H210.767L210.767 81.1643H210.766L210.766 114.764ZM226.874 114.764H226.875V109.964H226.874L226.874 114.764ZM255.719 101.373L257.303 104.348V114.764L257.304 104.348L255.72 101.372L255.719 101.373ZM295.819 114.764H295.82L295.82 81.1643H295.819V114.764ZM126.224 114.73C126.253 114.721 126.281 114.711 126.31 114.701C126.281 114.711 126.253 114.721 126.224 114.73ZM126.611 114.597C126.637 114.588 126.662 114.579 126.688 114.57C126.662 114.579 126.637 114.588 126.611 114.597ZM127.011 114.437C127.044 114.422 127.077 114.407 127.11 114.392C127.077 114.407 127.044 114.422 127.011 114.437ZM128.205 113.767C128.236 113.745 128.266 113.723 128.296 113.7C128.266 113.723 128.236 113.745 128.205 113.767ZM128.502 113.542C128.525 113.524 128.548 113.507 128.57 113.489C128.548 113.507 128.525 113.524 128.502 113.542ZM128.792 113.296C128.807 113.283 128.823 113.271 128.837 113.258L128.846 113.249C128.828 113.265 128.81 113.28 128.792 113.296ZM129.812 112.094C129.673 112.307 129.523 112.511 129.361 112.704L129.596 112.407C129.746 112.203 129.886 111.99 130.015 111.767L129.812 112.094ZM184.039 109.597C183.909 109.676 183.768 109.743 183.616 109.796L183.848 109.701C183.914 109.67 183.977 109.634 184.039 109.597ZM201.829 109.597C201.699 109.676 201.558 109.743 201.406 109.796L201.638 109.701C201.704 109.67 201.767 109.634 201.829 109.597ZM184.086 109.567C184.138 109.534 184.187 109.499 184.235 109.462C184.187 109.499 184.137 109.534 184.086 109.567ZM201.876 109.567C201.928 109.534 201.977 109.499 202.025 109.462C201.977 109.499 201.927 109.534 201.876 109.567ZM184.432 109.292C184.379 109.345 184.323 109.393 184.265 109.44C184.323 109.393 184.38 109.345 184.433 109.292C184.461 109.264 184.487 109.234 184.514 109.203L184.432 109.292ZM202.222 109.292C202.169 109.345 202.113 109.393 202.055 109.44C202.113 109.393 202.17 109.345 202.223 109.292C202.251 109.264 202.277 109.234 202.304 109.203L202.222 109.292ZM115.148 88.8489C115.145 88.9738 115.143 89.1001 115.143 89.2278V106.699C115.143 106.87 115.146 107.037 115.151 107.202C115.146 107.037 115.144 106.869 115.144 106.699V89.2278C115.144 89.1001 115.145 88.9738 115.148 88.8489ZM125.895 107.036L125.89 107.234C125.891 107.169 125.896 107.103 125.896 107.036L125.896 88.8919H125.895L125.895 107.036ZM231.674 106.412C231.674 106.504 231.673 106.594 231.671 106.682C231.673 106.594 231.675 106.504 231.675 106.412L223.994 81.1643L231.674 106.412ZM235.082 100.842L235.083 100.844L239.883 81.1643L239.882 81.1643L235.082 100.842ZM184.16 99.0315C184.258 99.0996 184.348 99.1762 184.432 99.26C184.46 99.2881 184.487 99.3178 184.514 99.3489L184.433 99.26C184.349 99.176 184.258 99.0997 184.16 99.0315ZM201.95 99.0315C202.048 99.0996 202.138 99.1762 202.222 99.26C202.25 99.2881 202.277 99.3178 202.304 99.3489L202.223 99.26C202.139 99.176 202.048 99.0997 201.95 99.0315ZM183.135 98.636L183.101 98.6302C183.084 98.6276 183.066 98.6267 183.049 98.6243C183.078 98.6283 183.106 98.6314 183.135 98.636ZM200.925 98.636L200.891 98.6302C200.874 98.6276 200.856 98.6267 200.839 98.6243C200.868 98.6283 200.896 98.6314 200.925 98.636ZM182.852 98.6028C182.831 98.6012 182.811 98.5993 182.791 98.5979C182.811 98.5993 182.831 98.6012 182.852 98.6028ZM200.642 98.6028C200.622 98.6012 200.601 98.5993 200.581 98.5979C200.601 98.5993 200.622 98.6012 200.642 98.6028ZM257.303 95.7054L257.304 95.7083V81.1643H257.303V95.7054ZM262.632 95.7054L262.632 95.7083L269.592 81.1643L269.591 81.1643L262.632 95.7054ZM307.1 95.5638H307.101V81.1643H307.1V95.5638ZM104.598 93.5462L104.599 93.5481L108.679 81.1643H108.678L104.598 93.5462ZM115.175 88.2376C115.172 88.2833 115.17 88.3292 115.167 88.3753C115.171 88.2975 115.177 88.2204 115.183 88.1438C115.18 88.175 115.177 88.2062 115.175 88.2376ZM132.113 85.9641H132.114L132.114 81.1643L132.113 81.1643L132.113 85.9641ZM130.09 84.3206C130.193 84.5052 130.288 84.6967 130.376 84.8948L130.369 84.8772C130.283 84.6852 130.19 84.4998 130.09 84.3206ZM129.87 83.9563C129.836 83.9034 129.802 83.8508 129.767 83.7991C129.802 83.8508 129.836 83.9034 129.87 83.9563ZM129.699 83.7014C129.66 83.6465 129.62 83.5928 129.579 83.5393C129.62 83.5928 129.66 83.6465 129.699 83.7014ZM129.513 83.4514C129.474 83.4017 129.433 83.3534 129.393 83.305C129.433 83.3534 129.474 83.4017 129.513 83.4514ZM129.308 83.2034C129.244 83.13 129.179 83.0579 129.111 82.9876C129.179 83.0579 129.244 83.13 129.308 83.2034ZM125.411 80.9954C126.794 81.2829 127.939 81.8575 128.847 82.72C128.756 82.6338 128.663 82.5505 128.567 82.47C128.185 82.1481 127.766 81.8719 127.308 81.6419C127.079 81.5268 126.84 81.4234 126.592 81.3313C126.468 81.2853 126.342 81.2417 126.213 81.2014C126.084 81.1612 125.953 81.1246 125.819 81.0901C125.552 81.0211 125.275 80.9633 124.989 80.9173L125.411 80.9954ZM121.87 80.847C121.818 80.8526 121.766 80.8581 121.714 80.8645C121.766 80.8582 121.818 80.8526 121.87 80.847ZM122.216 80.8138C122.176 80.8167 122.137 80.8211 122.098 80.8245C122.157 80.8194 122.216 80.8141 122.276 80.8098L122.216 80.8138ZM200.862 71.0774C200.325 71.9153 199.636 72.6465 198.833 73.2317C201.073 73.5188 203.021 74.7309 204.285 76.4739C204.801 75.762 205.432 75.1393 206.15 74.6311C203.933 74.2258 202.036 72.9065 200.862 71.0774ZM234.074 74.7639C234.248 74.8941 234.416 75.0322 234.578 75.1761C234.741 75.0317 234.911 74.8946 235.085 74.7639L234.074 74.7639ZM86.4824 60.636C85.8585 60.9236 85.2224 61.1638 84.5801 61.3606L84.5801 66.7639C84.5801 69.3812 83.3229 71.7048 81.3799 73.1643H86.5986C88.1705 73.1643 89.6356 73.6195 90.8721 74.4026C91.8507 73.7847 92.9576 73.3794 94.1211 73.2298C92.8347 72.5336 91.6162 71.6215 90.5195 70.4466C90.4779 70.4019 90.4362 70.3564 90.3955 70.3108C87.8472 67.4516 86.7667 63.9959 86.4824 60.636ZM263.454 72.1614C263.118 72.5283 262.75 72.8651 262.352 73.1643L262.631 73.1643C263.516 73.1643 264.367 73.3103 265.162 73.5755C264.529 73.1845 263.954 72.7078 263.454 72.1614ZM100.024 66.9368H100.025H100.024ZM130.613 66.7639H130.614L135.99 33.1643H135.989L130.613 66.7639ZM212.206 43.01L216.142 66.7639L212.206 43.0042V43.01ZM94.7666 61.8694C94.5226 60.9288 94.4004 59.872 94.4004 58.6995L94.4004 41.2278C94.4004 40.6142 94.4334 40.0331 94.5 39.4846C94.4517 39.8811 94.4206 40.2945 94.4072 40.7249C94.4021 40.89 94.3994 41.0577 94.3994 41.2278V58.6995C94.3994 59.2094 94.4226 59.6973 94.4688 60.1634C94.4995 60.4742 94.5405 60.7753 94.5918 61.0667C94.6405 61.3431 94.699 61.6106 94.7666 61.8694ZM36.3467 61.8948C36.2046 61.9848 36.0518 62.0604 35.8877 62.1204L36.126 62.0188C36.2024 61.9814 36.2758 61.9397 36.3467 61.8948ZM36.7393 61.5804C36.7134 61.6062 36.6851 61.6291 36.6582 61.6536C36.6852 61.629 36.7142 61.6064 36.7402 61.5804C36.7723 61.5503 36.803 61.5185 36.833 61.4856C36.8029 61.5187 36.7714 61.5502 36.7393 61.5804ZM150.1 59.7229C150.11 59.8719 150.121 60.0187 150.136 60.1634C150.151 60.3188 150.169 60.4718 150.189 60.6223L150.19 60.6233C150.151 60.3324 150.12 60.0322 150.1 59.7229ZM104.96 60.5843L105.005 60.4202C105.012 60.3913 105.019 60.362 105.025 60.3323C105.006 60.4196 104.984 60.5036 104.96 60.5843ZM160.627 60.5843L160.672 60.4202C160.679 60.3913 160.686 60.362 160.692 60.3323C160.673 60.4196 160.651 60.5036 160.627 60.5843ZM105.151 59.0364C105.151 59.2128 105.146 59.3814 105.135 59.5423C105.146 59.3814 105.152 59.2129 105.152 59.0364L105.152 54.2356H105.151L105.151 59.0364ZM160.818 59.0364C160.818 59.2128 160.813 59.3814 160.802 59.5423C160.813 59.3814 160.819 59.2128 160.819 59.0364L160.819 54.2356H160.818L160.818 59.0364ZM150.074 40.7249C150.069 40.89 150.066 41.0577 150.066 41.2278V58.6995C150.066 59.0197 150.076 59.3312 150.095 59.6341C150.077 59.3311 150.067 59.0196 150.067 58.6995V41.2278C150.067 41.0274 150.071 40.8305 150.078 40.637C150.077 40.6662 150.075 40.6955 150.074 40.7249ZM261.382 49.0774H261.383C261.449 49.0459 261.513 49.01 261.574 48.9729C261.512 49.0102 261.449 49.0458 261.382 49.0774ZM261.621 48.9427C261.673 48.9097 261.722 48.8752 261.771 48.8382C261.723 48.8752 261.673 48.9097 261.621 48.9427ZM261.967 48.6682C261.914 48.7209 261.858 48.7692 261.8 48.8157C261.858 48.7691 261.915 48.7211 261.968 48.6682C261.996 48.6402 262.023 48.6104 262.049 48.5794C262.022 48.6105 261.995 48.6401 261.967 48.6682ZM262.639 41.1321V46.1721C262.639 46.6281 262.608 47.0301 262.545 47.3782C262.608 47.0302 262.64 46.6282 262.64 46.1721V41.1321C262.64 40.995 262.635 40.8629 262.629 40.7356C262.635 40.8629 262.639 40.995 262.639 41.1321ZM262.627 40.6829C262.62 40.5526 262.61 40.4277 262.598 40.3079C262.61 40.4277 262.62 40.5527 262.627 40.6829ZM150.11 40.0755C150.1 40.2113 150.092 40.349 150.086 40.4886C150.092 40.349 150.1 40.2113 150.11 40.0755ZM262.471 39.596C262.526 39.8001 262.566 40.0274 262.594 40.2776C262.567 40.0353 262.529 39.8145 262.477 39.6155L262.471 39.596ZM150.165 39.512C150.149 39.648 150.135 39.786 150.123 39.9261C150.135 39.786 150.149 39.648 150.165 39.512ZM150.259 38.8655C150.229 39.034 150.204 39.2059 150.181 39.3811C150.203 39.2059 150.229 39.034 150.259 38.8655ZM94.5947 38.8538C94.5824 38.9232 94.5707 38.9932 94.5596 39.0638C94.5707 38.9932 94.5824 38.9232 94.5947 38.8538ZM261.967 38.636C261.995 38.6641 262.022 38.6938 262.049 38.7249C262.023 38.6939 261.996 38.664 261.968 38.636C261.912 38.58 261.852 38.5278 261.79 38.4788C261.852 38.5277 261.911 38.5801 261.967 38.636ZM94.6904 38.3743C94.6651 38.4863 94.6412 38.5999 94.6191 38.7151C94.6412 38.5999 94.6651 38.4863 94.6904 38.3743ZM183.327 37.9641L183.328 37.9641V33.1643H183.327L183.327 37.9641ZM33.0635 32.8811C32.9768 32.8928 32.8907 32.9036 32.8057 32.9173C32.8907 32.9036 32.9768 32.8928 33.0635 32.8811ZM33.5781 32.8245C33.4987 32.8313 33.4199 32.8386 33.3418 32.847C33.4199 32.8386 33.4987 32.8313 33.5781 32.8245ZM34.083 32.7913C34.0194 32.794 33.9563 32.7984 33.8936 32.802C33.9563 32.7984 34.0194 32.794 34.083 32.7913ZM115.157 88.5764C115.153 88.6665 115.151 88.7573 115.148 88.8489C115.151 88.7573 115.153 88.6665 115.157 88.5764ZM130.071 84.2884C130.028 84.2116 129.983 84.1362 129.938 84.0618C129.983 84.1362 130.028 84.2116 130.071 84.2884ZM94.5381 39.2034C94.5245 39.2962 94.5115 39.3899 94.5 39.4846C94.5115 39.3899 94.5246 39.2962 94.5381 39.2034ZM94.7764 38.0257C94.7459 38.1401 94.7172 38.2563 94.6904 38.3743C94.7171 38.2563 94.746 38.1401 94.7764 38.0257Z" fill="#1C1456"/>
<g filter="url(#filter0_ii_4007_24171)">
<path d="M167.956 12.636C168.431 12.636 168.896 12.6798 169.348 12.7591C169.8 12.6797 170.265 12.636 170.74 12.636L175.636 12.636C179.551 12.636 182.808 15.4492 183.499 19.1643L193.647 19.1643C195.095 19.1644 196.451 19.5509 197.622 20.2229C198.793 19.5507 200.15 19.1644 201.598 19.1643L208.941 19.1643L209.308 19.1721C210.518 19.227 211.665 19.5539 212.686 20.095C213.808 19.4998 215.084 19.1644 216.43 19.1643H223.773C224.265 19.1643 224.746 19.2113 225.213 19.2962C225.68 19.2112 226.162 19.1644 226.653 19.1643L231.356 19.1643C232.309 19.1643 233.224 19.3323 234.071 19.638C234.923 19.3312 235.837 19.1644 236.781 19.1643H243.405C243.894 19.1644 244.373 19.2111 244.838 19.2952C245.303 19.2111 245.782 19.1644 246.271 19.1643L254.047 19.1643C258.01 19.1643 262.488 20.2289 265.803 23.8235L265.804 23.8225C265.817 23.8368 265.83 23.8522 265.843 23.8665C265.852 23.8761 265.861 23.8852 265.87 23.8948L265.869 23.8958C268.988 27.2895 269.919 31.5887 269.919 35.468V39.8362C269.919 42.3933 269.515 45.1333 268.347 47.6761L268.446 47.6761C272.864 47.6763 276.446 51.2579 276.446 55.6761V60.7639C276.446 63.3812 275.189 65.7048 273.246 67.1643H274.905C275.858 67.1643 276.773 67.3313 277.62 67.637C278.472 67.3303 279.386 67.1644 280.33 67.1643H286.954C287.443 67.1644 287.922 67.2102 288.387 67.2942C288.852 67.2101 289.33 67.1644 289.819 67.1643L295.1 67.1643C296.161 67.1643 297.173 67.3723 298.1 67.7473C299.026 67.3722 300.039 67.1644 301.1 67.1643H306.476C310.894 67.1643 314.476 70.7461 314.476 75.1643V108.764C314.476 113.182 310.894 116.764 306.476 116.764L301.1 116.764C300.039 116.764 299.026 116.555 298.1 116.18C297.173 116.555 296.161 116.764 295.1 116.764L289.819 116.764C289.33 116.764 288.852 116.717 288.387 116.633C287.922 116.717 287.443 116.764 286.954 116.764H282.202C281.03 116.764 279.916 116.509 278.913 116.056C277.903 116.512 276.788 116.764 275.626 116.764L270.202 116.764C269.964 116.764 269.728 116.751 269.495 116.731C269.257 116.752 269.017 116.764 268.775 116.764L263.352 116.764C262.166 116.764 261.024 116.501 259.992 116.023C258.97 116.497 257.832 116.764 256.631 116.764L251.303 116.764C250.102 116.764 248.964 116.497 247.941 116.023C246.91 116.5 245.769 116.764 244.583 116.764L239.159 116.764C236.924 116.764 234.814 115.828 233.313 114.22C233.31 114.223 233.306 114.227 233.302 114.23C233.24 114.277 233.178 114.324 233.115 114.369C231.273 115.709 229.108 116.551 226.743 116.738C226.739 116.738 226.735 116.738 226.73 116.739C226.727 116.739 226.723 116.74 226.72 116.741L226.719 116.74C225.672 116.822 224.566 116.86 223.418 116.86H222.122C221.3 116.86 220.501 116.792 219.743 116.684C218.09 116.448 216.615 115.715 215.46 114.652C214.035 115.962 212.134 116.764 210.046 116.764L204.766 116.764C203.294 116.764 201.915 116.364 200.73 115.67C198.608 116.47 196.383 116.764 194.302 116.764H186.526C185.126 116.764 183.811 116.403 182.666 115.771C180.627 116.494 178.504 116.764 176.512 116.764H168.736C166.982 116.764 165.36 116.197 164.041 115.24C162.722 116.197 161.101 116.764 159.347 116.764H154.066C153.051 116.764 152.08 116.572 151.186 116.227C150.286 116.574 149.314 116.764 148.307 116.764H142.931C141.885 116.764 140.867 116.557 139.926 116.175C138.996 116.553 137.979 116.764 136.913 116.764H131.634C129.564 116.764 127.677 115.977 126.257 114.687C123.446 116.483 120.229 117.148 117.159 117.148C115.131 117.148 113.037 116.858 111.04 116.143C110.076 116.545 109.031 116.764 107.958 116.764L102.39 116.764C100.809 116.764 99.3103 116.298 98.0459 115.48C96.7813 116.298 95.283 116.764 93.7021 116.764H88.7578C87.3018 116.764 85.896 116.367 84.6777 115.645C83.4832 116.354 82.0889 116.764 80.5986 116.764H75.8467C74.6741 116.764 73.5611 116.509 72.5576 116.056C71.5475 116.512 70.4323 116.764 69.2705 116.764L63.8467 116.764C63.3546 116.764 62.8728 116.717 62.4053 116.632C61.9383 116.717 61.4573 116.764 60.9658 116.764L55.6855 116.764C53.6421 116.764 51.7782 115.996 50.3643 114.736C49.3021 115.357 48.1697 115.835 46.9863 116.167L46.9873 116.168C46.9752 116.172 46.9623 116.174 46.9502 116.177C46.9391 116.18 46.9281 116.185 46.917 116.188L46.916 116.187C45.2836 116.646 43.6211 116.86 41.958 116.86H40.6611C39.9776 116.86 39.3103 116.811 38.6689 116.733C38.4443 116.752 38.2168 116.764 37.9873 116.764H33.2354C32.0627 116.764 30.9497 116.509 29.9463 116.056C28.9362 116.512 27.821 116.764 26.6592 116.764L21.2354 116.764C16.8173 116.764 13.2354 113.182 13.2354 108.764L13.2354 75.1643C13.2354 71.0185 16.3895 67.609 20.4287 67.2044C19.1599 66.5115 17.9581 65.607 16.875 64.4466C16.8333 64.4019 16.7916 64.3564 16.751 64.3108C13.7093 60.8979 12.7559 56.6351 12.7559 52.6995L12.7559 35.2278C12.7559 31.3061 13.7038 27.0089 16.8096 23.5999L16.8154 23.594C20.0974 19.9995 24.5013 18.7797 28.627 18.7796C30.8304 18.7796 33.1286 19.1294 35.29 20.0169C36.3709 19.4722 37.5918 19.1644 38.8848 19.1643H44.165C46.8311 19.1644 49.1909 20.4697 50.6445 22.4749C52.0981 20.4695 54.4588 19.1645 57.125 19.1643L62.4053 19.1643C62.8991 19.1644 63.3824 19.2115 63.8516 19.2971C64.3213 19.2112 64.8053 19.1644 65.2998 19.1643H73.0762C76.9227 19.1644 81.2542 20.1674 84.5361 23.513C87.81 19.9816 92.1772 18.7797 96.2715 18.7796C98.4751 18.7796 100.773 19.1302 102.935 20.0179C104.015 19.4731 105.236 19.1644 106.529 19.1643H123.186C124.402 19.1644 125.555 19.438 126.588 19.9241C127.625 19.4362 128.779 19.1644 129.989 19.1643L137.718 19.1643L138.084 19.1721C139.959 19.2572 141.682 19.9938 143.016 21.1731C145.776 19.4295 148.931 18.7797 151.938 18.7796C153.018 18.7796 154.12 18.8654 155.217 19.055C155.951 15.3941 159.184 12.6362 163.061 12.636H167.956ZM39.4131 108.764C39.8608 108.828 40.2774 108.86 40.6611 108.86H40.6621C40.2781 108.86 39.862 108.828 39.4141 108.764V103.964H39.4131L39.4131 108.764ZM119.764 108.856L119.819 108.844C119.836 108.84 119.853 108.834 119.87 108.829C119.835 108.839 119.799 108.847 119.764 108.856ZM204.766 108.764L204.767 108.764L204.767 75.1643L204.766 75.1643V108.764ZM220.874 108.764L220.875 108.764V103.964L220.874 103.964V108.764ZM249.719 95.3733L251.303 98.3479L251.303 108.764L251.304 98.3479L249.72 95.3723L249.719 95.3733ZM289.819 108.764L289.82 108.764L289.82 75.1643L289.819 75.1643V108.764ZM120.224 108.73C120.253 108.721 120.281 108.711 120.31 108.701C120.281 108.711 120.253 108.721 120.224 108.73ZM120.611 108.597C120.637 108.588 120.662 108.579 120.688 108.57C120.662 108.579 120.637 108.588 120.611 108.597ZM121.011 108.437C121.044 108.422 121.077 108.407 121.11 108.392C121.077 108.407 121.044 108.422 121.011 108.437ZM122.205 107.767C122.236 107.745 122.266 107.723 122.296 107.7C122.266 107.723 122.236 107.745 122.205 107.767ZM122.502 107.542C122.525 107.524 122.548 107.507 122.57 107.489C122.548 107.507 122.525 107.524 122.502 107.542ZM122.792 107.296C122.807 107.283 122.823 107.271 122.837 107.258L122.846 107.249C122.828 107.265 122.81 107.28 122.792 107.296ZM123.812 106.094C123.673 106.307 123.523 106.511 123.361 106.704L123.596 106.407C123.746 106.203 123.886 105.99 124.015 105.767L123.812 106.094ZM178.039 103.597C177.909 103.676 177.768 103.743 177.616 103.796L177.848 103.701C177.914 103.67 177.977 103.634 178.039 103.597ZM195.829 103.597C195.699 103.676 195.558 103.743 195.406 103.796L195.638 103.701C195.704 103.67 195.767 103.634 195.829 103.597ZM178.086 103.567C178.138 103.534 178.187 103.499 178.235 103.462C178.187 103.499 178.137 103.534 178.086 103.567ZM195.876 103.567C195.928 103.534 195.977 103.499 196.025 103.462C195.977 103.499 195.927 103.534 195.876 103.567ZM178.432 103.292C178.379 103.345 178.323 103.393 178.265 103.44C178.323 103.393 178.38 103.345 178.433 103.292C178.461 103.264 178.487 103.234 178.514 103.203L178.432 103.292ZM196.222 103.292C196.169 103.345 196.113 103.393 196.055 103.44C196.113 103.393 196.17 103.345 196.223 103.292C196.251 103.264 196.277 103.234 196.304 103.203L196.222 103.292ZM109.148 82.8489C109.145 82.9738 109.143 83.1001 109.143 83.2278L109.143 100.699C109.143 100.87 109.146 101.037 109.151 101.202C109.146 101.037 109.144 100.869 109.144 100.699V83.2278C109.144 83.1001 109.145 82.9738 109.148 82.8489ZM119.895 101.036L119.89 101.234C119.891 101.169 119.896 101.103 119.896 101.036V82.8919H119.895L119.895 101.036ZM225.674 100.412C225.674 100.504 225.673 100.594 225.671 100.682C225.673 100.594 225.675 100.504 225.675 100.412L217.994 75.1643L225.674 100.412ZM229.082 94.8421L229.083 94.844L233.883 75.1643L233.882 75.1643L229.082 94.8421ZM178.16 93.0315C178.258 93.0996 178.348 93.1762 178.432 93.26C178.46 93.2881 178.487 93.3178 178.514 93.3489L178.433 93.26C178.349 93.176 178.258 93.0997 178.16 93.0315ZM195.95 93.0315C196.048 93.0996 196.138 93.1762 196.222 93.26C196.25 93.2881 196.277 93.3178 196.304 93.3489L196.223 93.26C196.139 93.176 196.048 93.0997 195.95 93.0315ZM177.135 92.636L177.101 92.6302C177.084 92.6276 177.066 92.6267 177.049 92.6243C177.078 92.6283 177.106 92.6314 177.135 92.636ZM194.925 92.636L194.891 92.6302C194.874 92.6276 194.856 92.6267 194.839 92.6243C194.868 92.6283 194.896 92.6314 194.925 92.636ZM176.852 92.6028C176.831 92.6012 176.811 92.5993 176.791 92.5979C176.811 92.5993 176.831 92.6012 176.852 92.6028ZM194.642 92.6028C194.622 92.6012 194.601 92.5993 194.581 92.5979C194.601 92.5993 194.622 92.6012 194.642 92.6028ZM251.303 89.7054L251.304 89.7083V75.1643H251.303L251.303 89.7054ZM256.632 89.7054V89.7083L263.592 75.1643L263.591 75.1643L256.632 89.7054ZM301.1 89.5638H301.101V75.1643H301.1V89.5638ZM98.5977 87.5462L98.5986 87.5481L102.679 75.1643H102.678L98.5977 87.5462ZM109.175 82.2376C109.172 82.2833 109.17 82.3292 109.167 82.3753C109.171 82.2975 109.177 82.2204 109.183 82.1438C109.18 82.175 109.177 82.2062 109.175 82.2376ZM126.113 79.9641H126.114L126.114 75.1643H126.113L126.113 79.9641ZM124.09 78.3206C124.193 78.5052 124.288 78.6967 124.376 78.8948L124.369 78.8772C124.283 78.6852 124.19 78.4998 124.09 78.3206ZM123.87 77.9563C123.836 77.9034 123.802 77.8508 123.767 77.7991C123.802 77.8508 123.836 77.9034 123.87 77.9563ZM123.699 77.7014C123.66 77.6465 123.62 77.5928 123.579 77.5393C123.62 77.5928 123.66 77.6465 123.699 77.7014ZM123.513 77.4514C123.474 77.4017 123.433 77.3534 123.393 77.305C123.433 77.3534 123.474 77.4017 123.513 77.4514ZM123.308 77.2034C123.244 77.13 123.179 77.0579 123.111 76.9876C123.179 77.0579 123.244 77.13 123.308 77.2034ZM119.411 74.9954C120.794 75.2829 121.939 75.8575 122.847 76.72C122.756 76.6338 122.663 76.5505 122.567 76.47C122.185 76.1481 121.766 75.8719 121.308 75.6419C121.079 75.5268 120.84 75.4234 120.592 75.3313C120.468 75.2853 120.342 75.2417 120.213 75.2014C120.084 75.1612 119.953 75.1246 119.819 75.0901C119.552 75.0211 119.275 74.9633 118.989 74.9173L119.411 74.9954ZM115.87 74.847C115.818 74.8526 115.766 74.8581 115.714 74.8645C115.766 74.8582 115.818 74.8526 115.87 74.847ZM116.216 74.8138C116.176 74.8167 116.137 74.8211 116.098 74.8245C116.157 74.8194 116.216 74.8141 116.276 74.8098L116.216 74.8138ZM194.862 65.0774C194.325 65.9153 193.636 66.6465 192.833 67.2317C195.073 67.5188 197.021 68.7309 198.285 70.4739C198.801 69.762 199.432 69.1393 200.15 68.6311C197.933 68.2258 196.036 66.9065 194.862 65.0774ZM228.074 68.7639C228.248 68.8941 228.416 69.0322 228.578 69.1761C228.741 69.0317 228.911 68.8946 229.085 68.7639H228.074ZM80.4824 54.636C79.8585 54.9236 79.2224 55.1638 78.5801 55.3606L78.5801 60.7639C78.5801 63.3812 77.3229 65.7048 75.3799 67.1643H80.5986C82.1705 67.1643 83.6356 67.6195 84.8721 68.4026C85.8507 67.7847 86.9576 67.3794 88.1211 67.2298C86.8347 66.5336 85.6162 65.6215 84.5195 64.4466C84.4779 64.4019 84.4362 64.3564 84.3955 64.3108C81.8472 61.4516 80.7667 57.9959 80.4824 54.636ZM257.454 66.1614C257.118 66.5283 256.75 66.8651 256.352 67.1643L256.631 67.1643C257.516 67.1643 258.367 67.3103 259.162 67.5755C258.529 67.1845 257.954 66.7078 257.454 66.1614ZM94.0244 60.9368H94.0254H94.0244ZM124.613 60.7639H124.614L129.99 27.1643H129.989L124.613 60.7639ZM206.206 37.01L210.142 60.7639L206.206 37.0042L206.206 37.01ZM88.7666 55.8694C88.5226 54.9288 88.4004 53.872 88.4004 52.6995V35.2278C88.4004 34.6142 88.4334 34.0331 88.5 33.4846C88.4517 33.8811 88.4206 34.2945 88.4072 34.7249C88.4021 34.89 88.3994 35.0577 88.3994 35.2278V52.6995C88.3994 53.2094 88.4226 53.6973 88.4688 54.1634C88.4995 54.4742 88.5405 54.7753 88.5918 55.0667C88.6405 55.3431 88.699 55.6106 88.7666 55.8694ZM30.3467 55.8948C30.2046 55.9848 30.0518 56.0604 29.8877 56.1204L30.126 56.0188C30.2024 55.9814 30.2758 55.9397 30.3467 55.8948ZM30.7393 55.5804C30.7134 55.6062 30.6851 55.6291 30.6582 55.6536C30.6852 55.629 30.7142 55.6064 30.7402 55.5804C30.7723 55.5503 30.803 55.5185 30.833 55.4856C30.8029 55.5187 30.7714 55.5502 30.7393 55.5804ZM144.1 53.7229C144.11 53.8719 144.121 54.0187 144.136 54.1634C144.151 54.3188 144.169 54.4718 144.189 54.6223L144.19 54.6233C144.151 54.3324 144.12 54.0322 144.1 53.7229ZM98.96 54.5843L99.0049 54.4202C99.0121 54.3913 99.0187 54.362 99.0254 54.3323C99.0057 54.4196 98.9843 54.5036 98.96 54.5843ZM154.627 54.5843L154.672 54.4202C154.679 54.3913 154.686 54.362 154.692 54.3323C154.673 54.4196 154.651 54.5036 154.627 54.5843ZM99.1514 53.0364C99.1514 53.2128 99.1462 53.3814 99.1348 53.5423C99.1464 53.3814 99.1523 53.2129 99.1523 53.0364L99.1523 48.2356L99.1514 48.2356V53.0364ZM154.818 53.0364C154.818 53.2128 154.813 53.3814 154.802 53.5423C154.813 53.3814 154.819 53.2128 154.819 53.0364V48.2356L154.818 48.2356L154.818 53.0364ZM144.074 34.7249C144.069 34.89 144.066 35.0577 144.066 35.2278V52.6995C144.066 53.0197 144.076 53.3312 144.095 53.6341C144.077 53.3311 144.067 53.0196 144.067 52.6995V35.2278C144.067 35.0274 144.071 34.8305 144.078 34.637C144.077 34.6662 144.075 34.6955 144.074 34.7249ZM255.382 43.0774H255.383C255.449 43.0459 255.513 43.01 255.574 42.9729C255.512 43.0102 255.449 43.0458 255.382 43.0774ZM255.621 42.9427C255.673 42.9097 255.722 42.8752 255.771 42.8382C255.723 42.8752 255.673 42.9097 255.621 42.9427ZM255.967 42.6682C255.914 42.7209 255.858 42.7692 255.8 42.8157C255.858 42.7691 255.915 42.7211 255.968 42.6682C255.996 42.6402 256.023 42.6104 256.049 42.5794C256.022 42.6105 255.995 42.6401 255.967 42.6682ZM256.639 35.1321V40.1721C256.639 40.6281 256.608 41.0301 256.545 41.3782C256.608 41.0302 256.64 40.6282 256.64 40.1721V35.1321C256.64 34.995 256.635 34.8629 256.629 34.7356C256.635 34.8629 256.639 34.995 256.639 35.1321ZM256.627 34.6829C256.62 34.5526 256.61 34.4277 256.598 34.3079C256.61 34.4277 256.62 34.5527 256.627 34.6829ZM144.11 34.0755C144.1 34.2113 144.092 34.349 144.086 34.4886C144.092 34.349 144.1 34.2113 144.11 34.0755ZM256.471 33.596C256.526 33.8001 256.566 34.0274 256.594 34.2776C256.567 34.0353 256.529 33.8145 256.477 33.6155L256.471 33.596ZM144.165 33.512C144.149 33.648 144.135 33.786 144.123 33.9261C144.135 33.786 144.149 33.648 144.165 33.512ZM144.259 32.8655C144.229 33.034 144.204 33.2059 144.181 33.3811C144.203 33.2059 144.229 33.034 144.259 32.8655ZM88.5947 32.8538C88.5824 32.9232 88.5707 32.9932 88.5596 33.0638C88.5707 32.9932 88.5824 32.9232 88.5947 32.8538ZM255.967 32.636C255.995 32.6641 256.022 32.6938 256.049 32.7249C256.023 32.6939 255.996 32.664 255.968 32.636C255.912 32.58 255.852 32.5278 255.79 32.4788C255.852 32.5277 255.911 32.5801 255.967 32.636ZM88.6904 32.3743C88.6651 32.4863 88.6412 32.5999 88.6191 32.7151C88.6412 32.5999 88.6651 32.4863 88.6904 32.3743ZM177.327 31.9641H177.328L177.328 27.1643H177.327V31.9641ZM27.0635 26.8811C26.9768 26.8928 26.8907 26.9036 26.8057 26.9173C26.8907 26.9036 26.9768 26.8928 27.0635 26.8811ZM27.5781 26.8245C27.4987 26.8313 27.4199 26.8386 27.3418 26.847C27.4199 26.8386 27.4987 26.8313 27.5781 26.8245ZM28.083 26.7913C28.0194 26.794 27.9563 26.7984 27.8936 26.802C27.9563 26.7984 28.0194 26.794 28.083 26.7913ZM109.157 82.5764C109.153 82.6665 109.151 82.7573 109.148 82.8489C109.151 82.7573 109.153 82.6665 109.157 82.5764ZM124.071 78.2884C124.028 78.2116 123.983 78.1362 123.938 78.0618C123.983 78.1362 124.028 78.2116 124.071 78.2884ZM88.5381 33.2034C88.5245 33.2962 88.5115 33.3899 88.5 33.4846C88.5115 33.3899 88.5246 33.2962 88.5381 33.2034ZM88.7764 32.0257C88.7459 32.1401 88.7172 32.2563 88.6904 32.3743C88.7171 32.2563 88.746 32.1401 88.7764 32.0257Z" fill="#FFCC66"/>
</g>
<path d="M36.4994 48.2359V52.6999C36.4994 55.4199 35.8274 57.5159 34.4834 58.9879C33.1714 60.4279 31.2194 61.1479 28.6274 61.1479C26.0354 61.1479 24.0674 60.4279 22.7234 58.9879C21.4114 57.5159 20.7554 55.4199 20.7554 52.6999V35.2279C20.7554 32.5079 21.4114 30.4279 22.7234 28.9879C24.0674 27.5159 26.0354 26.7799 28.6274 26.7799C31.2194 26.7799 33.1714 27.5159 34.4834 28.9879C35.8274 30.4279 36.4994 32.5079 36.4994 35.2279V38.4919H31.5074V34.8919C31.5074 33.6759 31.2514 32.8279 30.7394 32.3479C30.2594 31.8359 29.6034 31.5799 28.7714 31.5799C27.9394 31.5799 27.2674 31.8359 26.7554 32.3479C26.2754 32.8279 26.0354 33.6759 26.0354 34.8919V53.0359C26.0354 54.2519 26.2754 55.0999 26.7554 55.5799C27.2674 56.0599 27.9394 56.2999 28.7714 56.2999C29.6034 56.2999 30.2594 56.0599 30.7394 55.5799C31.2514 55.0999 31.5074 54.2519 31.5074 53.0359V48.2359H36.4994ZM46.6608 55.9639C47.4928 55.9639 48.1328 55.7399 48.5808 55.2919C49.0288 54.8439 49.2528 54.0119 49.2528 52.7959V47.7559C49.2528 46.5399 49.0288 45.7079 48.5808 45.2599C48.1328 44.8119 47.4928 44.5879 46.6608 44.5879H44.1648V55.9639H46.6608ZM38.8848 60.7639V27.1639H44.1648V39.7879H46.6608C49.3168 39.7879 51.2848 40.4919 52.5648 41.8999C53.8768 43.3079 54.5328 45.3719 54.5328 48.0919V52.4599C54.5328 55.1799 53.8768 57.2439 52.5648 58.6519C51.2848 60.0599 49.3168 60.7639 46.6608 60.7639H38.8848ZM57.1248 27.1639H62.4048V60.7639H57.1248V27.1639ZM73.0758 27.1639C75.7318 27.1639 77.6998 27.8679 78.9798 29.2759C80.2918 30.6839 80.9478 32.7479 80.9478 35.4679V39.8359C80.9478 42.5559 80.2918 44.6199 78.9798 46.0279C77.6998 47.4359 75.7318 48.1399 73.0758 48.1399H70.5798V60.7639H65.2998V27.1639H73.0758ZM70.5798 31.9639V43.3399H73.0758C73.9078 43.3399 74.5478 43.1159 74.9958 42.6679C75.4438 42.2199 75.6678 41.3879 75.6678 40.1719V35.1319C75.6678 33.9159 75.4438 33.0839 74.9958 32.6359C74.5478 32.1879 73.9078 31.9639 73.0758 31.9639H70.5798ZM104.144 48.2359V52.6999C104.144 55.4199 103.472 57.5159 102.128 58.9879C100.816 60.4279 98.8638 61.1479 96.2718 61.1479C93.6798 61.1479 91.7118 60.4279 90.3678 58.9879C89.0558 57.5159 88.3998 55.4199 88.3998 52.6999V35.2279C88.3998 32.5079 89.0558 30.4279 90.3678 28.9879C91.7118 27.5159 93.6798 26.7799 96.2718 26.7799C98.8638 26.7799 100.816 27.5159 102.128 28.9879C103.472 30.4279 104.144 32.5079 104.144 35.2279V38.4919H99.1518V34.8919C99.1518 33.6759 98.8958 32.8279 98.3838 32.3479C97.9038 31.8359 97.2478 31.5799 96.4158 31.5799C95.5838 31.5799 94.9118 31.8359 94.3998 32.3479C93.9198 32.8279 93.6798 33.6759 93.6798 34.8919V53.0359C93.6798 54.2519 93.9198 55.0999 94.3998 55.5799C94.9118 56.0599 95.5838 56.2999 96.4158 56.2999C97.2478 56.2999 97.9038 56.0599 98.3838 55.5799C98.8958 55.0999 99.1518 54.2519 99.1518 53.0359V48.2359H104.144ZM111.809 60.7639H106.529V27.1639H123.185V60.7639H117.809V31.9639H111.809V60.7639ZM143.094 60.7639H137.766L136.854 54.6679H130.374L129.462 60.7639H124.614L129.99 27.1639H137.718L143.094 60.7639ZM131.046 50.1079H136.134L133.59 33.1159L131.046 50.1079ZM159.811 48.2359V52.6999C159.811 55.4199 159.139 57.5159 157.795 58.9879C156.483 60.4279 154.531 61.1479 151.939 61.1479C149.347 61.1479 147.379 60.4279 146.035 58.9879C144.723 57.5159 144.067 55.4199 144.067 52.6999V35.2279C144.067 32.5079 144.723 30.4279 146.035 28.9879C147.379 27.5159 149.347 26.7799 151.939 26.7799C154.531 26.7799 156.483 27.5159 157.795 28.9879C159.139 30.4279 159.811 32.5079 159.811 35.2279V38.4919H154.819V34.8919C154.819 33.6759 154.563 32.8279 154.051 32.3479C153.571 31.8359 152.915 31.5799 152.083 31.5799C151.251 31.5799 150.579 31.8359 150.067 32.3479C149.587 32.8279 149.347 33.6759 149.347 34.8919V53.0359C149.347 54.2519 149.587 55.0999 150.067 55.5799C150.579 56.0599 151.251 56.2999 152.083 56.2999C152.915 56.2999 153.571 56.0599 154.051 55.5799C154.563 55.0999 154.819 54.2519 154.819 53.0359V48.2359H159.811ZM167.476 41.3239H174.724V46.1239H167.476V55.9639H176.596V60.7639H162.196V27.1639H176.596V31.9639H167.476V41.3239ZM167.956 20.6359V25.5319H163.06V20.6359H167.956ZM175.636 20.6359V25.5319H170.74V20.6359H175.636ZM177.327 27.1639H193.647V31.9639H188.127V60.7639H182.847V31.9639H177.327V27.1639ZM212.829 51.0199L216.429 27.1639H223.773V60.7639H218.781V36.6679L215.133 60.7639H210.141L206.205 37.0039V60.7639H201.597V27.1639L208.941 27.1639L212.829 51.0199ZM232.077 60.7639H226.653V27.1639H231.357V47.2759L236.781 27.1639H243.405V60.7639H238.653V36.4279L232.077 60.7639ZM254.047 27.1639C256.703 27.1639 258.671 27.8679 259.951 29.2759C261.263 30.6839 261.919 32.7479 261.919 35.4679V39.8359C261.919 42.5559 261.263 44.6199 259.951 46.0279C258.671 47.4359 256.703 48.1399 254.047 48.1399H251.551V60.7639H246.271V27.1639H254.047ZM251.551 31.9639V43.3399H254.047C254.879 43.3399 255.519 43.1159 255.967 42.6679C256.415 42.2199 256.639 41.3879 256.639 40.1719V35.1319C256.639 33.9159 256.415 33.0839 255.967 32.6359C255.519 32.1879 254.879 31.9639 254.047 31.9639H251.551ZM268.446 55.6759V60.7639H263.358V55.6759H268.446ZM26.6594 108.764H21.2354L21.2354 75.1639H25.9394V95.2759L31.3634 75.1639H37.9874V108.764H33.2354V84.4279L26.6594 108.764ZM55.6856 79.9639H49.5416V100.412C49.5416 102.108 49.3336 103.5 48.9176 104.588C48.5016 105.676 47.9416 106.54 47.2376 107.18C46.5336 107.788 45.7176 108.22 44.7896 108.476C43.8936 108.732 42.9496 108.86 41.9576 108.86C41.4776 108.86 41.0456 108.86 40.6616 108.86C40.2776 108.86 39.8616 108.828 39.4136 108.764V103.964C39.7016 103.996 40.0056 104.012 40.3256 104.012C40.6456 104.012 40.9496 104.012 41.2376 104.012C42.0696 104.012 42.7736 103.804 43.3496 103.388C43.9576 102.972 44.2616 102.108 44.2616 100.796V75.1639H60.9656V108.764H55.6856V79.9639ZM69.2707 108.764H63.8467V75.1639H68.5507V95.2759L73.9747 75.1639H80.5987V108.764H75.8467V84.4279L69.2707 108.764ZM107.574 75.1639L102.054 91.4839L107.958 108.764H102.39L98.0699 95.4679L93.7019 108.764H88.7579L94.6619 91.4839L89.1419 75.1639H94.6139L98.5979 87.5479L102.678 75.1639H107.574ZM114.423 101.036C114.423 102.252 114.663 103.116 115.143 103.628C115.655 104.108 116.327 104.348 117.159 104.348C117.991 104.348 118.647 104.108 119.127 103.628C119.639 103.116 119.895 102.252 119.895 101.036V82.8919C119.895 81.6759 119.639 80.8279 119.127 80.3479C118.647 79.8359 117.991 79.5799 117.159 79.5799C116.327 79.5799 115.655 79.8359 115.143 80.3479C114.663 80.8279 114.423 81.6759 114.423 82.8919V101.036ZM109.143 83.2279C109.143 80.5079 109.831 78.4279 111.207 76.9879C112.583 75.5159 114.567 74.7799 117.159 74.7799C119.751 74.7799 121.735 75.5159 123.111 76.9879C124.487 78.4279 125.175 80.5079 125.175 83.2279V100.7C125.175 103.42 124.487 105.516 123.111 106.988C121.735 108.428 119.751 109.148 117.159 109.148C114.567 109.148 112.583 108.428 111.207 106.988C109.831 105.516 109.143 103.42 109.143 100.7V83.2279ZM126.114 75.1639H142.434V79.9639H136.914V108.764H131.634V79.9639H126.114V75.1639ZM151.522 79.9639C150.594 79.9639 149.906 80.2359 149.458 80.7799C149.042 81.3239 148.834 82.2039 148.834 83.4199V86.7319C148.834 88.0759 149.106 89.0039 149.65 89.5159C150.226 90.0279 151.01 90.2839 152.002 90.2839H154.066V79.9639H151.522ZM142.93 108.764C143.186 108.124 143.346 107.5 143.41 106.892C143.474 106.252 143.506 105.516 143.506 104.684V99.4999C143.506 97.7399 143.746 96.2519 144.226 95.0359C144.738 93.7879 145.666 92.8919 147.01 92.3479C144.706 91.2599 143.554 88.9879 143.554 85.5319V82.8919C143.554 80.2999 144.162 78.3639 145.378 77.0839C146.626 75.8039 148.626 75.1639 151.378 75.1639H159.346V108.764H154.066V95.0839H152.242C151.026 95.0839 150.146 95.4039 149.602 96.0439C149.058 96.6839 148.786 97.7879 148.786 99.3559V104.636C148.786 105.308 148.77 105.868 148.738 106.316C148.738 106.764 148.706 107.132 148.642 107.42C148.61 107.708 148.562 107.948 148.498 108.14C148.434 108.332 148.37 108.54 148.306 108.764H142.93ZM174.016 87.7879H176.512C179.168 87.7879 181.136 88.4919 182.416 89.8999C183.728 91.3079 184.384 93.3719 184.384 96.0919V100.46C184.384 103.18 183.728 105.244 182.416 106.652C181.136 108.06 179.168 108.764 176.512 108.764H168.736V75.1639H182.704V79.9639H174.016V87.7879ZM176.512 103.964C177.344 103.964 177.984 103.74 178.432 103.292C178.88 102.844 179.104 102.012 179.104 100.796V95.7559C179.104 94.5399 178.88 93.7079 178.432 93.2599C177.984 92.8119 177.344 92.5879 176.512 92.5879H174.016V103.964H176.512ZM194.302 103.964C195.134 103.964 195.774 103.74 196.222 103.292C196.67 102.844 196.894 102.012 196.894 100.796V95.7559C196.894 94.5399 196.67 93.7079 196.222 93.2599C195.774 92.8119 195.134 92.5879 194.302 92.5879H191.806V103.964H194.302ZM186.526 108.764V75.1639H191.806V87.7879H194.302C196.958 87.7879 198.926 88.4919 200.206 89.8999C201.518 91.3079 202.174 93.3719 202.174 96.0919V100.46C202.174 103.18 201.518 105.244 200.206 106.652C198.926 108.06 196.958 108.764 194.302 108.764H186.526ZM204.766 75.1639H210.046V108.764H204.766V75.1639ZM220.874 103.964C221.162 103.996 221.466 104.012 221.786 104.012C222.106 104.012 222.41 104.012 222.698 104.012C223.114 104.012 223.498 103.964 223.85 103.868C224.234 103.772 224.554 103.596 224.81 103.34C225.098 103.084 225.306 102.716 225.434 102.236C225.594 101.756 225.674 101.148 225.674 100.412L217.994 75.1639H223.274L229.082 94.8439L233.882 75.1639H239.162L232.25 99.9319C231.642 102.236 231.018 104.012 230.378 105.26C229.77 106.476 229.114 107.356 228.41 107.9C227.706 108.412 226.938 108.7 226.106 108.764C225.306 108.828 224.41 108.86 223.418 108.86C222.938 108.86 222.506 108.86 222.122 108.86C221.738 108.86 221.322 108.828 220.874 108.764V103.964ZM244.583 108.764H239.159L246.503 90.1399L239.159 75.1639H244.343L251.303 89.7079V75.1639H256.631V89.7079L263.591 75.1639H268.775L261.431 90.1399L268.775 108.764H263.351L258.215 95.3719L256.631 98.3479V108.764H251.303V98.3479L249.719 95.3719L244.583 108.764ZM275.626 108.764L270.202 108.764V75.1639H274.906V95.2759L280.33 75.1639H286.954V108.764H282.202V84.4279L275.626 108.764ZM295.1 108.764H289.82V75.1639H295.1V89.5639H301.1V75.1639H306.476V108.764H301.1V94.3639H295.1V108.764Z" fill="#1C1456"/>
<defs>
<filter id="filter0_ii_4007_24171" x="8.75586" y="8.63602" width="309.72" height="112.512" filterUnits="userSpaceOnUse" color-interpolation-filters="sRGB">
<feFlood flood-opacity="0" result="BackgroundImageFix"/>
<feBlend mode="normal" in="SourceGraphic" in2="BackgroundImageFix" result="shape"/>
<feColorMatrix in="SourceAlpha" type="matrix" values="0 0 0 0 0 0 0 0 0 0 0 0 0 0 0 0 0 0 127 0" result="hardAlpha"/>
<feOffset dx="4" dy="4"/>
<feGaussianBlur stdDeviation="2"/>
<feComposite in2="hardAlpha" operator="arithmetic" k2="-1" k3="1"/>
<feColorMatrix type="matrix" values="0 0 0 0 1 0 0 0 0 0.952314 0 0 0 0 0.68 0 0 0 1 0"/>
<feBlend mode="normal" in2="shape" result="effect1_innerShadow_4007_24171"/>
<feColorMatrix in="SourceAlpha" type="matrix" values="0 0 0 0 0 0 0 0 0 0 0 0 0 0 0 0 0 0 127 0" result="hardAlpha"/>
<feOffset dx="-4" dy="-4"/>
<feGaussianBlur stdDeviation="2"/>
<feComposite in2="hardAlpha" operator="arithmetic" k2="-1" k3="1"/>
<feColorMatrix type="matrix" values="0 0 0 0 0.9 0 0 0 0 0.675 0 0 0 0 0 0 0 0 1 0"/>
<feBlend mode="normal" in2="effect1_innerShadow_4007_24171" result="effect2_innerShadow_4007_24171"/>
</filter>
</defs>
</svg>
