<svg width="332" height="136" viewBox="0 0 332 136" fill="none" xmlns="http://www.w3.org/2000/svg">
<path d="M173.2 18.9829C173.675 18.9829 174.14 19.0267 174.592 19.106C175.044 19.0266 175.509 18.9829 175.984 18.9829H180.88C184.795 18.9829 188.052 21.7961 188.743 25.5112H198.892C200.339 25.5113 201.695 25.8978 202.866 26.5698C204.037 25.8976 205.394 25.5113 206.842 25.5112H214.186L214.552 25.519C215.762 25.5739 216.909 25.9008 217.93 26.4419C219.052 25.8467 220.329 25.5113 221.674 25.5112H229.018C229.509 25.5112 229.99 25.5582 230.457 25.6431C230.924 25.5581 231.406 25.5113 231.897 25.5112H236.601C237.554 25.5112 238.468 25.6792 239.315 25.9849C240.167 25.6781 241.081 25.5113 242.025 25.5112H248.649C249.139 25.5113 249.617 25.558 250.082 25.6421C250.547 25.5579 251.026 25.5113 251.516 25.5112H259.291C263.254 25.5112 267.732 26.5758 271.047 30.1704L271.048 30.1694C271.061 30.1837 271.074 30.1991 271.087 30.2134C271.096 30.223 271.105 30.2321 271.114 30.2417L271.113 30.2427C274.232 33.6364 275.163 37.9356 275.163 41.8149V46.1831C275.163 48.7402 274.759 51.4802 273.591 54.0229H273.69C278.109 54.0231 281.69 57.6048 281.69 62.0229V67.1108C281.69 69.7281 280.433 72.0517 278.49 73.5112H280.149C281.102 73.5112 282.017 73.6782 282.864 73.9839C283.716 73.6772 284.63 73.5113 285.574 73.5112H292.198C292.687 73.5113 293.166 73.557 293.631 73.6411C294.096 73.557 294.574 73.5113 295.063 73.5112H300.344C301.405 73.5112 302.417 73.7192 303.344 74.0942C304.27 73.7191 305.283 73.5113 306.344 73.5112H311.72C316.138 73.5112 319.72 77.093 319.72 81.5112V115.111C319.72 119.529 316.138 123.111 311.72 123.111H306.344C305.283 123.111 304.27 122.902 303.344 122.527C302.417 122.902 301.405 123.111 300.344 123.111H295.063C294.574 123.111 294.096 123.064 293.631 122.98C293.166 123.064 292.687 123.111 292.198 123.111H287.446C286.274 123.111 285.161 122.856 284.157 122.403C283.147 122.859 282.032 123.111 280.87 123.111H275.446C275.208 123.111 274.972 123.098 274.739 123.078C274.501 123.099 274.261 123.111 274.02 123.111H268.596C267.41 123.111 266.268 122.847 265.236 122.37C264.214 122.844 263.076 123.111 261.875 123.111H256.547C255.346 123.111 254.208 122.844 253.186 122.37C252.154 122.847 251.013 123.111 249.827 123.111H244.403C242.168 123.111 240.058 122.175 238.558 120.567C238.554 120.57 238.55 120.574 238.546 120.577C238.485 120.624 238.422 120.671 238.359 120.716C236.518 122.056 234.353 122.898 231.987 123.084C231.983 123.085 231.979 123.085 231.975 123.085C231.971 123.086 231.967 123.087 231.964 123.087L231.963 123.086C230.916 123.169 229.81 123.207 228.662 123.207H227.366C226.544 123.207 225.746 123.139 224.987 123.031C223.334 122.794 221.859 122.062 220.704 120.999C219.279 122.309 217.379 123.111 215.29 123.111H210.01C208.538 123.111 207.159 122.711 205.975 122.017C203.852 122.816 201.627 123.111 199.546 123.111H191.771C190.371 123.111 189.055 122.75 187.91 122.118C185.871 122.841 183.748 123.111 181.756 123.111H173.98C172.226 123.111 170.604 122.544 169.285 121.586C167.966 122.544 166.345 123.111 164.591 123.111H159.311C158.295 123.111 157.324 122.919 156.43 122.574C155.53 122.921 154.558 123.111 153.551 123.111H148.175C147.129 123.111 146.112 122.904 145.17 122.522C144.24 122.9 143.223 123.111 142.157 123.111H136.878C134.808 123.111 132.921 122.324 131.501 121.034C128.69 122.83 125.473 123.495 122.403 123.495C120.375 123.495 118.282 123.205 116.284 122.49C115.32 122.892 114.276 123.111 113.202 123.111H107.634C106.053 123.111 104.554 122.645 103.29 121.827C102.025 122.645 100.527 123.111 98.9463 123.111H94.002C92.5459 123.111 91.1402 122.714 89.9219 121.992C88.7273 122.701 87.333 123.111 85.8428 123.111H81.0908C79.9182 123.111 78.8052 122.856 77.8018 122.403C76.7916 122.859 75.6765 123.111 74.5146 123.111H69.0908C68.5987 123.111 68.117 123.064 67.6494 122.979C67.1824 123.064 66.7014 123.111 66.21 123.111H60.9297C58.8862 123.111 57.0223 122.343 55.6084 121.083C54.5463 121.704 53.4138 122.182 52.2305 122.514L52.2314 122.515C52.2193 122.519 52.2064 122.52 52.1943 122.524C52.1833 122.527 52.1722 122.532 52.1611 122.535L52.1602 122.534C50.5278 122.993 48.8652 123.207 47.2021 123.207H45.9053C45.2217 123.207 44.5545 123.158 43.9131 123.08C43.6885 123.099 43.461 123.111 43.2314 123.111H38.4795C37.3069 123.111 36.1939 122.856 35.1904 122.403C34.1803 122.859 33.0651 123.111 31.9033 123.111H26.4795C22.0614 123.111 18.4795 119.529 18.4795 115.111V81.5112C18.4795 77.3654 21.6336 73.9559 25.6729 73.5513C24.404 72.8584 23.2023 71.9539 22.1191 70.7935C22.0775 70.7488 22.0358 70.7033 21.9951 70.6577C18.9534 67.2448 18 62.982 18 59.0464V41.5747C18 37.653 18.9479 33.3558 22.0537 29.9468L22.0596 29.9409C25.3416 26.3463 29.7455 25.1266 33.8711 25.1265C36.0746 25.1265 38.3728 25.4763 40.5342 26.3638C41.615 25.8191 42.836 25.5113 44.1289 25.5112H49.4092C52.0752 25.5113 54.435 26.8166 55.8887 28.8218C57.3423 26.8164 59.703 25.5114 62.3691 25.5112H67.6494C68.1433 25.5113 68.6266 25.5583 69.0957 25.644C69.5654 25.5581 70.0494 25.5113 70.5439 25.5112H78.3203C82.1668 25.5113 86.4983 26.5143 89.7803 29.8599C93.0542 26.3285 97.4214 25.1266 101.516 25.1265C103.719 25.1265 106.017 25.4771 108.179 26.3647C109.26 25.82 110.48 25.5113 111.773 25.5112H128.43C129.647 25.5113 130.799 25.7849 131.832 26.271C132.869 25.7831 134.023 25.5113 135.233 25.5112H142.962L143.328 25.519C145.203 25.6041 146.926 26.3407 148.26 27.52C151.021 25.7764 154.175 25.1265 157.183 25.1265C158.262 25.1265 159.364 25.2123 160.461 25.4019C161.195 21.741 164.428 18.9831 168.305 18.9829H173.2ZM44.6572 115.111C45.1049 115.175 45.5215 115.206 45.9053 115.207H45.9062C45.5223 115.207 45.1061 115.175 44.6582 115.111V110.311H44.6572V115.111ZM125.008 115.203L125.063 115.191C125.081 115.187 125.097 115.181 125.114 115.176C125.079 115.185 125.043 115.194 125.008 115.203ZM210.01 115.111H210.011V81.5112H210.01V115.111ZM226.118 115.111H226.119V110.311H226.118V115.111ZM254.963 101.72L256.547 104.695V115.111L256.548 104.695L254.964 101.719L254.963 101.72ZM295.063 115.111H295.064V81.5112H295.063V115.111ZM125.468 115.077C125.497 115.068 125.525 115.058 125.554 115.048C125.525 115.058 125.497 115.068 125.468 115.077ZM125.855 114.944C125.881 114.934 125.906 114.926 125.932 114.917C125.906 114.926 125.881 114.935 125.855 114.944ZM126.255 114.784C126.288 114.769 126.321 114.754 126.354 114.739C126.321 114.754 126.288 114.769 126.255 114.784ZM127.449 114.114C127.48 114.092 127.51 114.07 127.54 114.047C127.51 114.07 127.48 114.092 127.449 114.114ZM127.746 113.889C127.769 113.871 127.792 113.854 127.814 113.835C127.792 113.854 127.769 113.871 127.746 113.889ZM128.036 113.643C128.051 113.63 128.067 113.618 128.081 113.605L128.09 113.596C128.072 113.612 128.054 113.627 128.036 113.643ZM129.057 112.441C128.917 112.654 128.767 112.858 128.605 113.051L128.84 112.753C128.99 112.55 129.13 112.337 129.259 112.114L129.057 112.441ZM183.283 109.944C183.153 110.022 183.012 110.09 182.86 110.143L183.092 110.048C183.158 110.017 183.221 109.981 183.283 109.944ZM201.073 109.944C200.943 110.022 200.803 110.09 200.65 110.143L200.882 110.048C200.948 110.017 201.012 109.981 201.073 109.944ZM183.33 109.914C183.382 109.881 183.431 109.846 183.479 109.809C183.432 109.846 183.382 109.881 183.33 109.914ZM201.12 109.914C201.172 109.881 201.221 109.846 201.27 109.809C201.222 109.846 201.172 109.881 201.12 109.914ZM183.676 109.639C183.623 109.692 183.567 109.74 183.509 109.787C183.567 109.74 183.624 109.692 183.677 109.639C183.705 109.611 183.732 109.581 183.758 109.55L183.676 109.639ZM201.466 109.639C201.413 109.692 201.357 109.74 201.299 109.787C201.357 109.74 201.414 109.692 201.467 109.639C201.495 109.611 201.522 109.581 201.548 109.55L201.466 109.639ZM114.393 89.1958C114.39 89.3207 114.387 89.447 114.387 89.5747V107.046C114.387 107.216 114.39 107.384 114.396 107.549C114.39 107.384 114.388 107.216 114.388 107.046V89.5747C114.388 89.447 114.39 89.3207 114.393 89.1958ZM125.139 107.383L125.134 107.581C125.135 107.516 125.14 107.45 125.14 107.383V89.2388H125.139V107.383ZM230.918 106.759C230.918 106.851 230.918 106.941 230.915 107.029C230.918 106.941 230.919 106.851 230.919 106.759L223.238 81.5112L230.918 106.759ZM234.326 101.189L234.327 101.191L239.127 81.5112H239.126L234.326 101.189ZM183.404 99.3784C183.502 99.4465 183.592 99.5231 183.676 99.6069C183.704 99.635 183.731 99.6647 183.758 99.6958L183.677 99.6069C183.593 99.5229 183.502 99.4466 183.404 99.3784ZM201.194 99.3784C201.292 99.4465 201.382 99.5231 201.466 99.6069C201.494 99.635 201.521 99.6647 201.548 99.6958L201.467 99.6069C201.383 99.5229 201.292 99.4466 201.194 99.3784ZM182.379 98.9829L182.345 98.9771C182.328 98.9744 182.31 98.9735 182.293 98.9712C182.322 98.9751 182.351 98.9783 182.379 98.9829ZM200.169 98.9829L200.135 98.9771C200.118 98.9744 200.1 98.9735 200.083 98.9712C200.112 98.9751 200.141 98.9783 200.169 98.9829ZM182.096 98.9497C182.076 98.9481 182.055 98.9461 182.035 98.9448C182.055 98.9462 182.076 98.9481 182.096 98.9497ZM199.886 98.9497C199.866 98.9481 199.846 98.9461 199.825 98.9448C199.846 98.9462 199.866 98.9481 199.886 98.9497ZM256.547 96.0522L256.548 96.0552V81.5112H256.547V96.0522ZM261.876 96.0522V96.0552L268.836 81.5112H268.835L261.876 96.0522ZM306.344 95.9106H306.345V81.5112H306.344V95.9106ZM103.842 93.8931L103.843 93.895L107.923 81.5112H107.922L103.842 93.8931ZM114.419 88.5845C114.416 88.6301 114.414 88.6761 114.411 88.7222C114.416 88.6444 114.421 88.5673 114.427 88.4907C114.424 88.5219 114.421 88.5531 114.419 88.5845ZM131.357 86.311H131.358V81.5112H131.357V86.311ZM129.334 84.6675C129.437 84.8521 129.532 85.0435 129.62 85.2417L129.613 85.2241C129.527 85.0321 129.434 84.8467 129.334 84.6675ZM129.114 84.3032C129.08 84.2503 129.046 84.1977 129.011 84.146C129.046 84.1977 129.08 84.2503 129.114 84.3032ZM128.943 84.0483C128.904 83.9934 128.864 83.9397 128.823 83.8862C128.864 83.9397 128.904 83.9934 128.943 84.0483ZM128.757 83.7983C128.718 83.7486 128.677 83.7003 128.637 83.6519C128.677 83.7003 128.718 83.7486 128.757 83.7983ZM128.552 83.5503C128.488 83.4769 128.423 83.4048 128.355 83.3345C128.423 83.4048 128.488 83.4769 128.552 83.5503ZM124.655 81.3423C126.038 81.6298 127.183 82.2044 128.091 83.0669C128 82.9807 127.907 82.8974 127.812 82.8169C127.43 82.4949 127.01 82.2188 126.552 81.9888C126.323 81.8737 126.084 81.7703 125.836 81.6782C125.712 81.6322 125.586 81.5886 125.457 81.5483C125.328 81.5081 125.197 81.4715 125.063 81.437C124.796 81.368 124.52 81.3102 124.233 81.2642L124.655 81.3423ZM121.114 81.1938C121.062 81.1995 121.01 81.205 120.958 81.2114C121.01 81.2051 121.062 81.1995 121.114 81.1938ZM121.46 81.1606C121.42 81.1636 121.381 81.168 121.342 81.1714C121.401 81.1663 121.461 81.161 121.521 81.1567L121.46 81.1606ZM200.106 71.4243C199.569 72.2622 198.88 72.9934 198.077 73.5786C200.317 73.8657 202.265 75.0778 203.529 76.8208C204.045 76.1089 204.677 75.4862 205.395 74.978C203.177 74.5727 201.28 73.2534 200.106 71.4243ZM233.318 75.1108C233.492 75.241 233.66 75.3791 233.822 75.5229C233.985 75.3786 234.155 75.2414 234.329 75.1108H233.318ZM85.7266 60.9829C85.1026 61.2705 84.4665 61.5107 83.8242 61.7075V67.1108C83.8242 69.7281 82.5671 72.0517 80.624 73.5112H85.8428C87.4147 73.5112 88.8797 73.9664 90.1162 74.7495C91.0948 74.1316 92.2018 73.7263 93.3652 73.5767C92.0788 72.8805 90.8603 71.9684 89.7637 70.7935C89.722 70.7488 89.6803 70.7033 89.6396 70.6577C87.0914 67.7985 86.0109 64.3428 85.7266 60.9829ZM262.698 72.5083C262.363 72.8752 261.994 73.212 261.596 73.5112H261.875C262.76 73.5112 263.611 73.6572 264.406 73.9224C263.773 73.5314 263.198 73.0547 262.698 72.5083ZM99.2686 67.2837H99.2695H99.2686ZM129.857 67.1108H129.858L135.234 33.5112H135.233L129.857 67.1108ZM211.45 43.3569L215.386 67.1108L211.45 43.3511V43.3569ZM94.0107 62.2163C93.7667 61.2757 93.6445 60.2189 93.6445 59.0464V41.5747C93.6445 40.9611 93.6775 40.38 93.7441 39.8315C93.6958 40.228 93.6648 40.6414 93.6514 41.0718C93.6462 41.2369 93.6436 41.4046 93.6436 41.5747V59.0464C93.6436 59.5563 93.6667 60.0442 93.7129 60.5103C93.7436 60.8211 93.7847 61.1222 93.8359 61.4136C93.8846 61.69 93.9431 61.9575 94.0107 62.2163ZM35.5908 62.2417C35.4487 62.3317 35.2959 62.4073 35.1318 62.4673L35.3701 62.3657C35.4465 62.3283 35.5199 62.2866 35.5908 62.2417ZM35.9834 61.9272C35.9575 61.9531 35.9292 61.976 35.9023 62.0005C35.9294 61.9759 35.9584 61.9532 35.9844 61.9272C36.0164 61.8972 36.0471 61.8654 36.0771 61.8325C36.047 61.8655 36.0155 61.8971 35.9834 61.9272ZM149.344 60.0698C149.354 60.2187 149.366 60.3656 149.38 60.5103C149.395 60.6657 149.413 60.8187 149.434 60.9692L149.435 60.9702C149.395 60.6792 149.364 60.3791 149.344 60.0698ZM104.204 60.9312L104.249 60.7671C104.256 60.7382 104.263 60.7089 104.27 60.6792C104.25 60.7665 104.228 60.8505 104.204 60.9312ZM159.871 60.9312L159.916 60.7671C159.923 60.7382 159.93 60.7089 159.937 60.6792C159.917 60.7665 159.895 60.8505 159.871 60.9312ZM104.396 59.3833C104.396 59.5597 104.39 59.7283 104.379 59.8892C104.391 59.7283 104.396 59.5597 104.396 59.3833V54.5825H104.396V59.3833ZM160.062 59.3833C160.062 59.5597 160.057 59.7283 160.046 59.8892C160.058 59.7283 160.063 59.5597 160.063 59.3833V54.5825H160.062V59.3833ZM149.318 41.0718C149.313 41.2369 149.311 41.4046 149.311 41.5747V59.0464C149.311 59.3666 149.321 59.6781 149.339 59.981C149.321 59.678 149.312 59.3665 149.312 59.0464V41.5747C149.312 41.3743 149.315 41.1774 149.322 40.9839C149.321 41.0131 149.319 41.0424 149.318 41.0718ZM260.626 49.4243H260.627C260.693 49.3928 260.757 49.3569 260.818 49.3198C260.756 49.3571 260.693 49.3927 260.626 49.4243ZM260.865 49.2896C260.917 49.2566 260.967 49.2221 261.015 49.1851C260.967 49.2221 260.917 49.2566 260.865 49.2896ZM261.211 49.0151C261.158 49.0678 261.102 49.1161 261.044 49.1626C261.102 49.116 261.159 49.068 261.212 49.0151C261.24 48.9871 261.267 48.9573 261.293 48.9263C261.267 48.9574 261.239 48.987 261.211 49.0151ZM261.883 41.479V46.519C261.883 46.975 261.852 47.377 261.789 47.7251C261.852 47.3771 261.884 46.9751 261.884 46.519V41.479C261.884 41.3419 261.879 41.2098 261.873 41.0825C261.879 41.2098 261.883 41.3419 261.883 41.479ZM261.871 41.0298C261.864 40.8995 261.855 40.7746 261.842 40.6548C261.855 40.7746 261.864 40.8996 261.871 41.0298ZM149.354 40.4224C149.344 40.5582 149.337 40.6959 149.33 40.8354C149.337 40.6959 149.344 40.5582 149.354 40.4224ZM261.715 39.9429C261.77 40.1469 261.81 40.3743 261.838 40.6245C261.811 40.3822 261.773 40.1614 261.721 39.9624L261.715 39.9429ZM149.409 39.8589C149.393 39.9949 149.379 40.1329 149.367 40.2729C149.379 40.1329 149.393 39.9949 149.409 39.8589ZM149.503 39.2124C149.473 39.3809 149.448 39.5528 149.425 39.728C149.448 39.5528 149.473 39.3809 149.503 39.2124ZM93.8389 39.2007C93.8265 39.2701 93.8149 39.3401 93.8037 39.4106C93.8149 39.3401 93.8265 39.2701 93.8389 39.2007ZM261.211 38.9829C261.239 39.011 261.267 39.0406 261.293 39.0718C261.267 39.0408 261.24 39.0109 261.212 38.9829C261.156 38.9269 261.096 38.8747 261.034 38.8257C261.096 38.8746 261.155 38.927 261.211 38.9829ZM93.9346 38.7212C93.9092 38.8332 93.8853 38.9468 93.8633 39.062C93.8853 38.9468 93.9092 38.8332 93.9346 38.7212ZM182.571 38.311H182.572V33.5112H182.571V38.311ZM32.3076 33.228C32.2209 33.2397 32.1348 33.2505 32.0498 33.2642C32.1348 33.2505 32.2209 33.2397 32.3076 33.228ZM32.8223 33.1714C32.7428 33.1782 32.664 33.1855 32.5859 33.1938C32.664 33.1855 32.7428 33.1782 32.8223 33.1714ZM33.3271 33.1382C33.2636 33.1409 33.2005 33.1453 33.1377 33.1489C33.2005 33.1453 33.2636 33.1409 33.3271 33.1382ZM114.401 88.9233C114.398 89.0134 114.395 89.1042 114.393 89.1958C114.395 89.1042 114.398 89.0134 114.401 88.9233ZM129.315 84.6353C129.272 84.5585 129.227 84.4831 129.182 84.4087C129.227 84.4831 129.272 84.5585 129.315 84.6353ZM93.7822 39.5503C93.7687 39.6431 93.7557 39.7368 93.7441 39.8315C93.7556 39.7368 93.7687 39.6431 93.7822 39.5503ZM94.0205 38.3726C93.9901 38.487 93.9613 38.6032 93.9346 38.7212C93.9613 38.6032 93.9901 38.487 94.0205 38.3726Z" fill="#1C1456"/>
<g filter="url(#filter0_ii_604_4079)">
<path d="M167.2 12.9829C167.675 12.9829 168.14 13.0267 168.592 13.106C169.044 13.0266 169.509 12.9829 169.984 12.9829H174.88C178.795 12.9829 182.052 15.7961 182.743 19.5112H192.892C194.339 19.5113 195.695 19.8978 196.866 20.5698C198.037 19.8976 199.394 19.5113 200.842 19.5112H208.186L208.552 19.519C209.762 19.5739 210.909 19.9008 211.93 20.4419C213.052 19.8467 214.329 19.5113 215.674 19.5112H223.018C223.509 19.5112 223.99 19.5582 224.457 19.6431C224.924 19.5581 225.406 19.5113 225.897 19.5112H230.601C231.554 19.5112 232.468 19.6792 233.315 19.9849C234.167 19.6781 235.081 19.5113 236.025 19.5112H242.649C243.139 19.5113 243.617 19.558 244.082 19.6421C244.547 19.5579 245.026 19.5113 245.516 19.5112H253.291C257.254 19.5112 261.732 20.5758 265.047 24.1704L265.048 24.1694C265.061 24.1837 265.074 24.1991 265.087 24.2134C265.096 24.223 265.105 24.2321 265.114 24.2417L265.113 24.2427C268.232 27.6364 269.163 31.9356 269.163 35.8149V40.1831C269.163 42.7402 268.759 45.4802 267.591 48.0229H267.69C272.109 48.0231 275.69 51.6048 275.69 56.0229V61.1108C275.69 63.7281 274.433 66.0517 272.49 67.5112H274.149C275.102 67.5112 276.017 67.6782 276.864 67.9839C277.716 67.6772 278.63 67.5113 279.574 67.5112H286.198C286.687 67.5113 287.166 67.557 287.631 67.6411C288.096 67.557 288.574 67.5113 289.063 67.5112H294.344C295.405 67.5112 296.417 67.7192 297.344 68.0942C298.27 67.7191 299.283 67.5113 300.344 67.5112H305.72C310.138 67.5112 313.72 71.093 313.72 75.5112V109.111C313.72 113.529 310.138 117.111 305.72 117.111H300.344C299.283 117.111 298.27 116.902 297.344 116.527C296.417 116.902 295.405 117.111 294.344 117.111H289.063C288.574 117.111 288.096 117.064 287.631 116.98C287.166 117.064 286.687 117.111 286.198 117.111H281.446C280.274 117.111 279.161 116.856 278.157 116.403C277.147 116.859 276.032 117.111 274.87 117.111H269.446C269.208 117.111 268.972 117.098 268.739 117.078C268.501 117.099 268.261 117.111 268.02 117.111H262.596C261.41 117.111 260.268 116.847 259.236 116.37C258.214 116.844 257.076 117.111 255.875 117.111H250.547C249.346 117.111 248.208 116.844 247.186 116.37C246.154 116.847 245.013 117.111 243.827 117.111H238.403C236.168 117.111 234.058 116.175 232.558 114.567C232.554 114.57 232.55 114.574 232.546 114.577C232.485 114.624 232.422 114.671 232.359 114.716C230.518 116.056 228.353 116.898 225.987 117.084C225.983 117.085 225.979 117.085 225.975 117.085C225.971 117.086 225.967 117.087 225.964 117.087L225.963 117.086C224.916 117.169 223.81 117.207 222.662 117.207H221.366C220.544 117.207 219.746 117.139 218.987 117.031C217.334 116.794 215.859 116.062 214.704 114.999C213.279 116.309 211.379 117.111 209.29 117.111H204.01C202.538 117.111 201.159 116.711 199.975 116.017C197.852 116.816 195.627 117.111 193.546 117.111H185.771C184.371 117.111 183.055 116.75 181.91 116.118C179.871 116.841 177.748 117.111 175.756 117.111H167.98C166.226 117.111 164.604 116.544 163.285 115.586C161.966 116.544 160.345 117.111 158.591 117.111H153.311C152.295 117.111 151.324 116.919 150.43 116.574C149.53 116.921 148.558 117.111 147.551 117.111H142.175C141.129 117.111 140.112 116.904 139.17 116.522C138.24 116.9 137.223 117.111 136.157 117.111H130.878C128.808 117.111 126.921 116.324 125.501 115.034C122.69 116.83 119.473 117.495 116.403 117.495C114.375 117.495 112.282 117.205 110.284 116.49C109.32 116.892 108.276 117.111 107.202 117.111H101.634C100.053 117.111 98.5544 116.645 97.29 115.827C96.0255 116.645 94.5271 117.111 92.9463 117.111H88.002C86.5459 117.111 85.1402 116.714 83.9219 115.992C82.7273 116.701 81.333 117.111 79.8428 117.111H75.0908C73.9182 117.111 72.8052 116.856 71.8018 116.403C70.7916 116.859 69.6765 117.111 68.5146 117.111H63.0908C62.5987 117.111 62.117 117.064 61.6494 116.979C61.1824 117.064 60.7014 117.111 60.21 117.111H54.9297C52.8862 117.111 51.0223 116.343 49.6084 115.083C48.5463 115.704 47.4138 116.182 46.2305 116.514L46.2314 116.515C46.2193 116.519 46.2064 116.52 46.1943 116.524C46.1833 116.527 46.1722 116.532 46.1611 116.535L46.1602 116.534C44.5278 116.993 42.8652 117.207 41.2021 117.207H39.9053C39.2217 117.207 38.5545 117.158 37.9131 117.08C37.6885 117.099 37.461 117.111 37.2314 117.111H32.4795C31.3069 117.111 30.1939 116.856 29.1904 116.403C28.1803 116.859 27.0651 117.111 25.9033 117.111H20.4795C16.0614 117.111 12.4795 113.529 12.4795 109.111V75.5112C12.4795 71.3654 15.6336 67.9559 19.6729 67.5513C18.404 66.8584 17.2023 65.9539 16.1191 64.7935C16.0775 64.7488 16.0358 64.7033 15.9951 64.6577C12.9534 61.2448 12 56.982 12 53.0464V35.5747C12 31.653 12.9479 27.3558 16.0537 23.9468L16.0596 23.9409C19.3416 20.3463 23.7455 19.1266 27.8711 19.1265C30.0746 19.1265 32.3728 19.4763 34.5342 20.3638C35.615 19.8191 36.836 19.5113 38.1289 19.5112H43.4092C46.0752 19.5113 48.435 20.8166 49.8887 22.8218C51.3423 20.8164 53.703 19.5114 56.3691 19.5112H61.6494C62.1433 19.5113 62.6266 19.5583 63.0957 19.644C63.5654 19.5581 64.0494 19.5113 64.5439 19.5112H72.3203C76.1668 19.5113 80.4983 20.5143 83.7803 23.8599C87.0542 20.3285 91.4214 19.1266 95.5156 19.1265C97.7192 19.1265 100.017 19.4771 102.179 20.3647C103.26 19.82 104.48 19.5113 105.773 19.5112H122.43C123.647 19.5113 124.799 19.7849 125.832 20.271C126.869 19.7831 128.023 19.5113 129.233 19.5112H136.962L137.328 19.519C139.203 19.6041 140.926 20.3407 142.26 21.52C145.021 19.7764 148.175 19.1265 151.183 19.1265C152.262 19.1265 153.364 19.2123 154.461 19.4019C155.195 15.741 158.428 12.9831 162.305 12.9829H167.2ZM38.6572 109.111C39.1049 109.175 39.5215 109.206 39.9053 109.207H39.9062C39.5223 109.207 39.1061 109.175 38.6582 109.111V104.311H38.6572V109.111ZM119.008 109.203L119.063 109.191C119.081 109.187 119.097 109.181 119.114 109.176C119.079 109.185 119.043 109.194 119.008 109.203ZM204.01 109.111H204.011V75.5112H204.01V109.111ZM220.118 109.111H220.119V104.311H220.118V109.111ZM248.963 95.7202L250.547 98.6948V109.111L250.548 98.6948L248.964 95.7192L248.963 95.7202ZM289.063 109.111H289.064V75.5112H289.063V109.111ZM119.468 109.077C119.497 109.068 119.525 109.058 119.554 109.048C119.525 109.058 119.497 109.068 119.468 109.077ZM119.855 108.944C119.881 108.934 119.906 108.926 119.932 108.917C119.906 108.926 119.881 108.935 119.855 108.944ZM120.255 108.784C120.288 108.769 120.321 108.754 120.354 108.739C120.321 108.754 120.288 108.769 120.255 108.784ZM121.449 108.114C121.48 108.092 121.51 108.07 121.54 108.047C121.51 108.07 121.48 108.092 121.449 108.114ZM121.746 107.889C121.769 107.871 121.792 107.854 121.814 107.835C121.792 107.854 121.769 107.871 121.746 107.889ZM122.036 107.643C122.051 107.63 122.067 107.618 122.081 107.605L122.09 107.596C122.072 107.612 122.054 107.627 122.036 107.643ZM123.057 106.441C122.917 106.654 122.767 106.858 122.605 107.051L122.84 106.753C122.99 106.55 123.13 106.337 123.259 106.114L123.057 106.441ZM177.283 103.944C177.153 104.022 177.012 104.09 176.86 104.143L177.092 104.048C177.158 104.017 177.221 103.981 177.283 103.944ZM195.073 103.944C194.943 104.022 194.803 104.09 194.65 104.143L194.882 104.048C194.948 104.017 195.012 103.981 195.073 103.944ZM177.33 103.914C177.382 103.881 177.431 103.846 177.479 103.809C177.432 103.846 177.382 103.881 177.33 103.914ZM195.12 103.914C195.172 103.881 195.221 103.846 195.27 103.809C195.222 103.846 195.172 103.881 195.12 103.914ZM177.676 103.639C177.623 103.692 177.567 103.74 177.509 103.787C177.567 103.74 177.624 103.692 177.677 103.639C177.705 103.611 177.732 103.581 177.758 103.55L177.676 103.639ZM195.466 103.639C195.413 103.692 195.357 103.74 195.299 103.787C195.357 103.74 195.414 103.692 195.467 103.639C195.495 103.611 195.522 103.581 195.548 103.55L195.466 103.639ZM108.393 83.1958C108.39 83.3207 108.387 83.447 108.387 83.5747V101.046C108.387 101.216 108.39 101.384 108.396 101.549C108.39 101.384 108.388 101.216 108.388 101.046V83.5747C108.388 83.447 108.39 83.3207 108.393 83.1958ZM119.139 101.383L119.134 101.581C119.135 101.516 119.14 101.45 119.14 101.383V83.2388H119.139V101.383ZM224.918 100.759C224.918 100.851 224.918 100.941 224.915 101.029C224.918 100.941 224.919 100.851 224.919 100.759L217.238 75.5112L224.918 100.759ZM228.326 95.189L228.327 95.1909L233.127 75.5112H233.126L228.326 95.189ZM177.404 93.3784C177.502 93.4465 177.592 93.5231 177.676 93.6069C177.704 93.635 177.731 93.6647 177.758 93.6958L177.677 93.6069C177.593 93.5229 177.502 93.4466 177.404 93.3784ZM195.194 93.3784C195.292 93.4465 195.382 93.5231 195.466 93.6069C195.494 93.635 195.521 93.6647 195.548 93.6958L195.467 93.6069C195.383 93.5229 195.292 93.4466 195.194 93.3784ZM176.379 92.9829L176.345 92.9771C176.328 92.9744 176.31 92.9735 176.293 92.9712C176.322 92.9751 176.351 92.9783 176.379 92.9829ZM194.169 92.9829L194.135 92.9771C194.118 92.9744 194.1 92.9735 194.083 92.9712C194.112 92.9751 194.141 92.9783 194.169 92.9829ZM176.096 92.9497C176.076 92.9481 176.055 92.9461 176.035 92.9448C176.055 92.9462 176.076 92.9481 176.096 92.9497ZM193.886 92.9497C193.866 92.9481 193.846 92.9461 193.825 92.9448C193.846 92.9462 193.866 92.9481 193.886 92.9497ZM250.547 90.0522L250.548 90.0552V75.5112H250.547V90.0522ZM255.876 90.0522V90.0552L262.836 75.5112H262.835L255.876 90.0522ZM300.344 89.9106H300.345V75.5112H300.344V89.9106ZM97.8418 87.8931L97.8428 87.895L101.923 75.5112H101.922L97.8418 87.8931ZM108.419 82.5845C108.416 82.6301 108.414 82.6761 108.411 82.7222C108.416 82.6444 108.421 82.5673 108.427 82.4907C108.424 82.5219 108.421 82.5531 108.419 82.5845ZM125.357 80.311H125.358V75.5112H125.357V80.311ZM123.334 78.6675C123.437 78.8521 123.532 79.0435 123.62 79.2417L123.613 79.2241C123.527 79.0321 123.434 78.8467 123.334 78.6675ZM123.114 78.3032C123.08 78.2503 123.046 78.1977 123.011 78.146C123.046 78.1977 123.08 78.2503 123.114 78.3032ZM122.943 78.0483C122.904 77.9934 122.864 77.9397 122.823 77.8862C122.864 77.9397 122.904 77.9934 122.943 78.0483ZM122.757 77.7983C122.718 77.7486 122.677 77.7003 122.637 77.6519C122.677 77.7003 122.718 77.7486 122.757 77.7983ZM122.552 77.5503C122.488 77.4769 122.423 77.4048 122.355 77.3345C122.423 77.4048 122.488 77.4769 122.552 77.5503ZM118.655 75.3423C120.038 75.6298 121.183 76.2044 122.091 77.0669C122 76.9807 121.907 76.8974 121.812 76.8169C121.43 76.4949 121.01 76.2188 120.552 75.9888C120.323 75.8737 120.084 75.7703 119.836 75.6782C119.712 75.6322 119.586 75.5886 119.457 75.5483C119.328 75.5081 119.197 75.4715 119.063 75.437C118.796 75.368 118.52 75.3102 118.233 75.2642L118.655 75.3423ZM115.114 75.1938C115.062 75.1995 115.01 75.205 114.958 75.2114C115.01 75.2051 115.062 75.1995 115.114 75.1938ZM115.46 75.1606C115.42 75.1636 115.381 75.168 115.342 75.1714C115.401 75.1663 115.461 75.161 115.521 75.1567L115.46 75.1606ZM194.106 65.4243C193.569 66.2622 192.88 66.9934 192.077 67.5786C194.317 67.8657 196.265 69.0778 197.529 70.8208C198.045 70.1089 198.677 69.4862 199.395 68.978C197.177 68.5727 195.28 67.2534 194.106 65.4243ZM227.318 69.1108C227.492 69.241 227.66 69.3791 227.822 69.5229C227.985 69.3786 228.155 69.2414 228.329 69.1108H227.318ZM79.7266 54.9829C79.1026 55.2705 78.4665 55.5107 77.8242 55.7075V61.1108C77.8242 63.7281 76.5671 66.0517 74.624 67.5112H79.8428C81.4147 67.5112 82.8797 67.9664 84.1162 68.7495C85.0948 68.1316 86.2018 67.7263 87.3652 67.5767C86.0788 66.8805 84.8603 65.9684 83.7637 64.7935C83.722 64.7488 83.6803 64.7033 83.6396 64.6577C81.0914 61.7985 80.0109 58.3428 79.7266 54.9829ZM256.698 66.5083C256.363 66.8752 255.994 67.212 255.596 67.5112H255.875C256.76 67.5112 257.611 67.6572 258.406 67.9224C257.773 67.5314 257.198 67.0547 256.698 66.5083ZM93.2686 61.2837H93.2695H93.2686ZM123.857 61.1108H123.858L129.234 27.5112H129.233L123.857 61.1108ZM205.45 37.3569L209.386 61.1108L205.45 37.3511V37.3569ZM88.0107 56.2163C87.7667 55.2757 87.6445 54.2189 87.6445 53.0464V35.5747C87.6445 34.9611 87.6775 34.38 87.7441 33.8315C87.6958 34.228 87.6648 34.6414 87.6514 35.0718C87.6462 35.2369 87.6436 35.4046 87.6436 35.5747V53.0464C87.6436 53.5563 87.6667 54.0442 87.7129 54.5103C87.7436 54.8211 87.7847 55.1222 87.8359 55.4136C87.8846 55.69 87.9431 55.9575 88.0107 56.2163ZM29.5908 56.2417C29.4487 56.3317 29.2959 56.4073 29.1318 56.4673L29.3701 56.3657C29.4465 56.3283 29.5199 56.2866 29.5908 56.2417ZM29.9834 55.9272C29.9575 55.9531 29.9292 55.976 29.9023 56.0005C29.9294 55.9759 29.9584 55.9532 29.9844 55.9272C30.0164 55.8972 30.0471 55.8654 30.0771 55.8325C30.047 55.8655 30.0155 55.8971 29.9834 55.9272ZM143.344 54.0698C143.354 54.2187 143.366 54.3656 143.38 54.5103C143.395 54.6657 143.413 54.8187 143.434 54.9692L143.435 54.9702C143.395 54.6792 143.364 54.3791 143.344 54.0698ZM98.2041 54.9312L98.249 54.7671C98.2563 54.7382 98.2628 54.7089 98.2695 54.6792C98.2498 54.7665 98.2284 54.8505 98.2041 54.9312ZM153.871 54.9312L153.916 54.7671C153.923 54.7382 153.93 54.7089 153.937 54.6792C153.917 54.7665 153.895 54.8505 153.871 54.9312ZM98.3955 53.3833C98.3955 53.5597 98.3903 53.7283 98.3789 53.8892C98.3906 53.7283 98.3965 53.5597 98.3965 53.3833V48.5825H98.3955V53.3833ZM154.062 53.3833C154.062 53.5597 154.057 53.7283 154.046 53.8892C154.058 53.7283 154.063 53.5597 154.063 53.3833V48.5825H154.062V53.3833ZM143.318 35.0718C143.313 35.2369 143.311 35.4046 143.311 35.5747V53.0464C143.311 53.3666 143.321 53.6781 143.339 53.981C143.321 53.678 143.312 53.3665 143.312 53.0464V35.5747C143.312 35.3743 143.315 35.1774 143.322 34.9839C143.321 35.0131 143.319 35.0424 143.318 35.0718ZM254.626 43.4243H254.627C254.693 43.3928 254.757 43.3569 254.818 43.3198C254.756 43.3571 254.693 43.3927 254.626 43.4243ZM254.865 43.2896C254.917 43.2566 254.967 43.2221 255.015 43.1851C254.967 43.2221 254.917 43.2566 254.865 43.2896ZM255.211 43.0151C255.158 43.0678 255.102 43.1161 255.044 43.1626C255.102 43.116 255.159 43.068 255.212 43.0151C255.24 42.9871 255.267 42.9573 255.293 42.9263C255.267 42.9574 255.239 42.987 255.211 43.0151ZM255.883 35.479V40.519C255.883 40.975 255.852 41.377 255.789 41.7251C255.852 41.3771 255.884 40.9751 255.884 40.519V35.479C255.884 35.3419 255.879 35.2098 255.873 35.0825C255.879 35.2098 255.883 35.3419 255.883 35.479ZM255.871 35.0298C255.864 34.8995 255.855 34.7746 255.842 34.6548C255.855 34.7746 255.864 34.8996 255.871 35.0298ZM143.354 34.4224C143.344 34.5582 143.337 34.6959 143.33 34.8354C143.337 34.6959 143.344 34.5582 143.354 34.4224ZM255.715 33.9429C255.77 34.1469 255.81 34.3743 255.838 34.6245C255.811 34.3822 255.773 34.1614 255.721 33.9624L255.715 33.9429ZM143.409 33.8589C143.393 33.9949 143.379 34.1329 143.367 34.2729C143.379 34.1329 143.393 33.9949 143.409 33.8589ZM143.503 33.2124C143.473 33.3809 143.448 33.5528 143.425 33.728C143.448 33.5528 143.473 33.3809 143.503 33.2124ZM87.8389 33.2007C87.8265 33.2701 87.8149 33.3401 87.8037 33.4106C87.8149 33.3401 87.8265 33.2701 87.8389 33.2007ZM255.211 32.9829C255.239 33.011 255.267 33.0406 255.293 33.0718C255.267 33.0408 255.24 33.0109 255.212 32.9829C255.156 32.9269 255.096 32.8747 255.034 32.8257C255.096 32.8746 255.155 32.927 255.211 32.9829ZM87.9346 32.7212C87.9092 32.8332 87.8853 32.9468 87.8633 33.062C87.8853 32.9468 87.9092 32.8332 87.9346 32.7212ZM176.571 32.311H176.572V27.5112H176.571V32.311ZM26.3076 27.228C26.2209 27.2397 26.1348 27.2505 26.0498 27.2642C26.1348 27.2505 26.2209 27.2397 26.3076 27.228ZM26.8223 27.1714C26.7428 27.1782 26.664 27.1855 26.5859 27.1938C26.664 27.1855 26.7428 27.1782 26.8223 27.1714ZM27.3271 27.1382C27.2636 27.1409 27.2005 27.1453 27.1377 27.1489C27.2005 27.1453 27.2636 27.1409 27.3271 27.1382ZM108.401 82.9233C108.398 83.0134 108.395 83.1042 108.393 83.1958C108.395 83.1042 108.398 83.0134 108.401 82.9233ZM123.315 78.6353C123.272 78.5585 123.227 78.4831 123.182 78.4087C123.227 78.4831 123.272 78.5585 123.315 78.6353ZM87.7822 33.5503C87.7687 33.6431 87.7557 33.7368 87.7441 33.8315C87.7556 33.7368 87.7687 33.6431 87.7822 33.5503ZM88.0205 32.3726C87.9901 32.487 87.9613 32.6032 87.9346 32.7212C87.9613 32.6032 87.9901 32.487 88.0205 32.3726Z" fill="#FFD900"/>
</g>
<path d="M35.7441 48.5828V53.0468C35.7441 55.7668 35.0721 57.8628 33.7281 59.3348C32.4161 60.7748 30.4641 61.4948 27.8721 61.4948C25.2801 61.4948 23.3121 60.7748 21.9681 59.3348C20.6561 57.8628 20.0001 55.7668 20.0001 53.0468V35.5748C20.0001 32.8548 20.6561 30.7748 21.9681 29.3348C23.3121 27.8628 25.2801 27.1268 27.8721 27.1268C30.4641 27.1268 32.4161 27.8628 33.7281 29.3348C35.0721 30.7748 35.7441 32.8548 35.7441 35.5748V38.8388H30.7521V35.2388C30.7521 34.0228 30.4961 33.1748 29.9841 32.6948C29.5041 32.1828 28.8481 31.9268 28.0161 31.9268C27.1841 31.9268 26.5121 32.1828 26.0001 32.6948C25.5201 33.1748 25.2801 34.0228 25.2801 35.2388V53.3828C25.2801 54.5988 25.5201 55.4468 26.0001 55.9268C26.5121 56.4068 27.1841 56.6468 28.0161 56.6468C28.8481 56.6468 29.5041 56.4068 29.9841 55.9268C30.4961 55.4468 30.7521 54.5988 30.7521 53.3828V48.5828H35.7441ZM45.9054 56.3108C46.7374 56.3108 47.3774 56.0868 47.8254 55.6388C48.2734 55.1908 48.4974 54.3588 48.4974 53.1428V48.1028C48.4974 46.8868 48.2734 46.0548 47.8254 45.6068C47.3774 45.1588 46.7374 44.9348 45.9054 44.9348H43.4094V56.3108H45.9054ZM38.1294 61.1108V27.5108H43.4094V40.1348H45.9054C48.5614 40.1348 50.5294 40.8388 51.8094 42.2468C53.1214 43.6548 53.7774 45.7188 53.7774 48.4388V52.8068C53.7774 55.5268 53.1214 57.5908 51.8094 58.9988C50.5294 60.4068 48.5614 61.1108 45.9054 61.1108H38.1294ZM56.3694 27.5108H61.6494V61.1108H56.3694V27.5108ZM72.3204 27.5108C74.9764 27.5108 76.9444 28.2148 78.2244 29.6228C79.5364 31.0308 80.1924 33.0948 80.1924 35.8148V40.1828C80.1924 42.9028 79.5364 44.9668 78.2244 46.3748C76.9444 47.7828 74.9764 48.4868 72.3204 48.4868H69.8244V61.1108H64.5444V27.5108H72.3204ZM69.8244 32.3108V43.6868H72.3204C73.1524 43.6868 73.7924 43.4628 74.2404 43.0148C74.6884 42.5668 74.9124 41.7348 74.9124 40.5188V35.4788C74.9124 34.2628 74.6884 33.4308 74.2404 32.9828C73.7924 32.5348 73.1524 32.3108 72.3204 32.3108H69.8244ZM103.388 48.5828V53.0468C103.388 55.7668 102.716 57.8628 101.372 59.3348C100.06 60.7748 98.1084 61.4948 95.5164 61.4948C92.9244 61.4948 90.9564 60.7748 89.6124 59.3348C88.3004 57.8628 87.6444 55.7668 87.6444 53.0468V35.5748C87.6444 32.8548 88.3004 30.7748 89.6124 29.3348C90.9564 27.8628 92.9244 27.1268 95.5164 27.1268C98.1084 27.1268 100.06 27.8628 101.372 29.3348C102.716 30.7748 103.388 32.8548 103.388 35.5748V38.8388H98.3964V35.2388C98.3964 34.0228 98.1404 33.1748 97.6284 32.6948C97.1484 32.1828 96.4924 31.9268 95.6604 31.9268C94.8284 31.9268 94.1564 32.1828 93.6444 32.6948C93.1644 33.1748 92.9244 34.0228 92.9244 35.2388V53.3828C92.9244 54.5988 93.1644 55.4468 93.6444 55.9268C94.1564 56.4068 94.8284 56.6468 95.6604 56.6468C96.4924 56.6468 97.1484 56.4068 97.6284 55.9268C98.1404 55.4468 98.3964 54.5988 98.3964 53.3828V48.5828H103.388ZM111.054 61.1108H105.774V27.5108H122.43V61.1108H117.054V32.3108H111.054V61.1108ZM142.338 61.1108H137.01L136.098 55.0148H129.618L128.706 61.1108H123.858L129.234 27.5108H136.962L142.338 61.1108ZM130.29 50.4548H135.378L132.834 33.4628L130.29 50.4548ZM159.055 48.5828V53.0468C159.055 55.7668 158.383 57.8628 157.039 59.3348C155.727 60.7748 153.775 61.4948 151.183 61.4948C148.591 61.4948 146.623 60.7748 145.279 59.3348C143.967 57.8628 143.311 55.7668 143.311 53.0468V35.5748C143.311 32.8548 143.967 30.7748 145.279 29.3348C146.623 27.8628 148.591 27.1268 151.183 27.1268C153.775 27.1268 155.727 27.8628 157.039 29.3348C158.383 30.7748 159.055 32.8548 159.055 35.5748V38.8388H154.063V35.2388C154.063 34.0228 153.807 33.1748 153.295 32.6948C152.815 32.1828 152.159 31.9268 151.327 31.9268C150.495 31.9268 149.823 32.1828 149.311 32.6948C148.831 33.1748 148.591 34.0228 148.591 35.2388V53.3828C148.591 54.5988 148.831 55.4468 149.311 55.9268C149.823 56.4068 150.495 56.6468 151.327 56.6468C152.159 56.6468 152.815 56.4068 153.295 55.9268C153.807 55.4468 154.063 54.5988 154.063 53.3828V48.5828H159.055ZM166.721 41.6708H173.969V46.4708H166.721V56.3108H175.841V61.1108H161.441V27.5108H175.841V32.3108H166.721V41.6708ZM167.201 20.9828V25.8788H162.305V20.9828H167.201ZM174.881 20.9828V25.8788H169.985V20.9828H174.881ZM176.572 27.5108H192.892V32.3108H187.372V61.1108H182.092V32.3108H176.572V27.5108ZM212.074 51.3668L215.674 27.5108H223.018V61.1108H218.026V37.0148L214.378 61.1108H209.386L205.45 37.3508V61.1108H200.842V27.5108H208.186L212.074 51.3668ZM231.322 61.1108H225.898V27.5108H230.602V47.6228L236.026 27.5108H242.65V61.1108H237.898V36.7748L231.322 61.1108ZM253.292 27.5108C255.948 27.5108 257.916 28.2148 259.196 29.6228C260.508 31.0308 261.164 33.0948 261.164 35.8148V40.1828C261.164 42.9028 260.508 44.9668 259.196 46.3748C257.916 47.7828 255.948 48.4868 253.292 48.4868H250.796V61.1108H245.516V27.5108H253.292ZM250.796 32.3108V43.6868H253.292C254.124 43.6868 254.764 43.4628 255.212 43.0148C255.66 42.5668 255.884 41.7348 255.884 40.5188V35.4788C255.884 34.2628 255.66 33.4308 255.212 32.9828C254.764 32.5348 254.124 32.3108 253.292 32.3108H250.796ZM267.691 56.0228V61.1108H262.603V56.0228H267.691ZM25.9041 109.111H20.4801V75.5108H25.1841V95.6228L30.6081 75.5108H37.2321V109.111H32.4801V84.7748L25.9041 109.111ZM54.9302 80.3108H48.7862V100.759C48.7862 102.455 48.5782 103.847 48.1622 104.935C47.7462 106.023 47.1862 106.887 46.4822 107.527C45.7782 108.135 44.9622 108.567 44.0342 108.823C43.1382 109.079 42.1942 109.207 41.2022 109.207C40.7222 109.207 40.2902 109.207 39.9062 109.207C39.5222 109.207 39.1062 109.175 38.6582 109.111V104.311C38.9462 104.343 39.2502 104.359 39.5702 104.359C39.8902 104.359 40.1942 104.359 40.4822 104.359C41.3142 104.359 42.0182 104.151 42.5942 103.735C43.2022 103.319 43.5062 102.455 43.5062 101.143V75.5108H60.2102V109.111H54.9302V80.3108ZM68.5153 109.111H63.0913V75.5108H67.7953V95.6228L73.2193 75.5108H79.8433V109.111H75.0913V84.7748L68.5153 109.111ZM106.819 75.5108L101.299 91.8308L107.203 109.111H101.635L97.3146 95.8148L92.9466 109.111H88.0026L93.9066 91.8308L88.3866 75.5108H93.8586L97.8426 87.8948L101.923 75.5108H106.819ZM113.668 101.383C113.668 102.599 113.908 103.463 114.388 103.975C114.9 104.455 115.572 104.695 116.404 104.695C117.236 104.695 117.892 104.455 118.372 103.975C118.884 103.463 119.14 102.599 119.14 101.383V83.2388C119.14 82.0228 118.884 81.1748 118.372 80.6948C117.892 80.1828 117.236 79.9268 116.404 79.9268C115.572 79.9268 114.9 80.1828 114.388 80.6948C113.908 81.1748 113.668 82.0228 113.668 83.2388V101.383ZM108.388 83.5748C108.388 80.8548 109.076 78.7748 110.452 77.3348C111.828 75.8628 113.812 75.1268 116.404 75.1268C118.996 75.1268 120.98 75.8628 122.356 77.3348C123.732 78.7748 124.42 80.8548 124.42 83.5748V101.047C124.42 103.767 123.732 105.863 122.356 107.335C120.98 108.775 118.996 109.495 116.404 109.495C113.812 109.495 111.828 108.775 110.452 107.335C109.076 105.863 108.388 103.767 108.388 101.047V83.5748ZM125.358 75.5108H141.678V80.3108H136.158V109.111H130.878V80.3108H125.358V75.5108ZM150.767 80.3108C149.839 80.3108 149.151 80.5828 148.703 81.1268C148.287 81.6708 148.079 82.5508 148.079 83.7668V87.0788C148.079 88.4228 148.351 89.3508 148.895 89.8628C149.471 90.3748 150.255 90.6308 151.247 90.6308H153.311V80.3108H150.767ZM142.175 109.111C142.431 108.471 142.591 107.847 142.655 107.239C142.719 106.599 142.751 105.863 142.751 105.031V99.8468C142.751 98.0868 142.991 96.5988 143.471 95.3828C143.983 94.1348 144.911 93.2388 146.255 92.6948C143.951 91.6068 142.799 89.3348 142.799 85.8788V83.2388C142.799 80.6468 143.407 78.7108 144.623 77.4308C145.871 76.1508 147.871 75.5108 150.623 75.5108H158.591V109.111H153.311V95.4308H151.487C150.271 95.4308 149.391 95.7508 148.847 96.3908C148.303 97.0308 148.031 98.1348 148.031 99.7028V104.983C148.031 105.655 148.015 106.215 147.983 106.663C147.983 107.111 147.951 107.479 147.887 107.767C147.855 108.055 147.807 108.295 147.743 108.487C147.679 108.679 147.615 108.887 147.551 109.111H142.175ZM173.261 88.1348H175.757C178.413 88.1348 180.381 88.8388 181.661 90.2468C182.973 91.6548 183.629 93.7188 183.629 96.4388V100.807C183.629 103.527 182.973 105.591 181.661 106.999C180.381 108.407 178.413 109.111 175.757 109.111H167.981V75.5108H181.949V80.3108H173.261V88.1348ZM175.757 104.311C176.589 104.311 177.229 104.087 177.677 103.639C178.125 103.191 178.349 102.359 178.349 101.143V96.1028C178.349 94.8868 178.125 94.0548 177.677 93.6068C177.229 93.1588 176.589 92.9348 175.757 92.9348H173.261V104.311H175.757ZM193.547 104.311C194.379 104.311 195.019 104.087 195.467 103.639C195.915 103.191 196.139 102.359 196.139 101.143V96.1028C196.139 94.8868 195.915 94.0548 195.467 93.6068C195.019 93.1588 194.379 92.9348 193.547 92.9348H191.051V104.311H193.547ZM185.771 109.111V75.5108H191.051V88.1348H193.547C196.203 88.1348 198.171 88.8388 199.451 90.2468C200.763 91.6548 201.419 93.7188 201.419 96.4388V100.807C201.419 103.527 200.763 105.591 199.451 106.999C198.171 108.407 196.203 109.111 193.547 109.111H185.771ZM204.011 75.5108H209.291V109.111H204.011V75.5108ZM220.119 104.311C220.407 104.343 220.711 104.359 221.031 104.359C221.351 104.359 221.655 104.359 221.943 104.359C222.359 104.359 222.743 104.311 223.095 104.215C223.479 104.119 223.799 103.943 224.055 103.687C224.343 103.431 224.551 103.063 224.679 102.583C224.839 102.103 224.919 101.495 224.919 100.759L217.239 75.5108H222.519L228.327 95.1908L233.127 75.5108H238.407L231.495 100.279C230.887 102.583 230.263 104.359 229.623 105.607C229.015 106.823 228.359 107.703 227.655 108.247C226.951 108.759 226.183 109.047 225.351 109.111C224.551 109.175 223.655 109.207 222.663 109.207C222.183 109.207 221.751 109.207 221.367 109.207C220.983 109.207 220.567 109.175 220.119 109.111V104.311ZM243.828 109.111H238.404L245.748 90.4868L238.404 75.5108H243.588L250.548 90.0548V75.5108H255.876V90.0548L262.836 75.5108H268.02L260.676 90.4868L268.02 109.111H262.596L257.46 95.7188L255.876 98.6948V109.111H250.548V98.6948L248.964 95.7188L243.828 109.111ZM274.87 109.111H269.446V75.5108H274.15V95.6228L279.574 75.5108H286.198V109.111H281.446V84.7748L274.87 109.111ZM294.344 109.111H289.064V75.5108H294.344V89.9108H300.344V75.5108H305.72V109.111H300.344V94.7108H294.344V109.111Z" fill="#1C1456"/>
<defs>
<filter id="filter0_ii_604_4079" x="8" y="8.98291" width="309.72" height="112.512" filterUnits="userSpaceOnUse" color-interpolation-filters="sRGB">
<feFlood flood-opacity="0" result="BackgroundImageFix"/>
<feBlend mode="normal" in="SourceGraphic" in2="BackgroundImageFix" result="shape"/>
<feColorMatrix in="SourceAlpha" type="matrix" values="0 0 0 0 0 0 0 0 0 0 0 0 0 0 0 0 0 0 127 0" result="hardAlpha"/>
<feOffset dx="4" dy="4"/>
<feGaussianBlur stdDeviation="2"/>
<feComposite in2="hardAlpha" operator="arithmetic" k2="-1" k3="1"/>
<feColorMatrix type="matrix" values="0 0 0 0 1 0 0 0 0 0.952314 0 0 0 0 0.68 0 0 0 1 0"/>
<feBlend mode="normal" in2="shape" result="effect1_innerShadow_604_4079"/>
<feColorMatrix in="SourceAlpha" type="matrix" values="0 0 0 0 0 0 0 0 0 0 0 0 0 0 0 0 0 0 127 0" result="hardAlpha"/>
<feOffset dx="-4" dy="-4"/>
<feGaussianBlur stdDeviation="2"/>
<feComposite in2="hardAlpha" operator="arithmetic" k2="-1" k3="1"/>
<feColorMatrix type="matrix" values="0 0 0 0 0.9 0 0 0 0 0.675 0 0 0 0 0 0 0 0 1 0"/>
<feBlend mode="normal" in2="effect1_innerShadow_604_4079" result="effect2_innerShadow_604_4079"/>
</filter>
</defs>
</svg>
