<svg width="323" height="132" viewBox="0 0 323 132" fill="none" xmlns="http://www.w3.org/2000/svg">
<path d="M224.732 18C226.936 18 229.234 18.3506 231.396 19.2383C232.476 18.6935 233.697 18.3848 234.99 18.3848H240.27C241.331 18.3848 242.343 18.5936 243.27 18.9688C244.196 18.5935 245.208 18.3848 246.27 18.3848H251.646C252.135 18.3848 252.615 18.4314 253.08 18.5156C253.545 18.4314 254.025 18.3848 254.515 18.3848H259.794C262.46 18.3848 264.82 19.6902 266.273 21.6953C267.727 19.6898 270.088 18.3849 272.754 18.3848H278.034C278.528 18.3848 279.012 18.4318 279.481 18.5176C279.951 18.4317 280.435 18.3848 280.93 18.3848H295.329C299.747 18.3848 303.329 21.9665 303.329 26.3848V31.1846C303.329 33.5408 302.309 35.6581 300.688 37.1221C301.18 38.1597 301.457 39.3193 301.457 40.5439V45.3447C301.457 45.8757 301.404 46.3944 301.306 46.8965H302.589C307.007 46.8967 310.589 50.4783 310.589 54.8965V59.4561C310.589 60.5482 310.365 61.6294 309.932 62.6318L307.627 67.96C306.36 70.8884 303.475 72.7842 300.284 72.7842H298.124C295.608 72.784 293.239 71.6002 291.729 69.5889C291.351 69.0868 291.038 68.5482 290.792 67.9844H281.973C283.915 69.4439 285.172 71.7677 285.172 74.3848V107.984C285.172 112.403 281.59 115.984 277.172 115.984L271.796 115.984C270.735 115.984 269.722 115.776 268.796 115.4C267.869 115.776 266.857 115.984 265.796 115.984H260.517C260.027 115.984 259.548 115.938 259.083 115.854C258.618 115.938 258.14 115.984 257.65 115.984H252.898C251.726 115.984 250.613 115.73 249.609 115.276C248.664 115.703 247.627 115.949 246.546 115.979C245.142 118.285 242.605 119.824 239.709 119.824H234.333C231.498 119.824 229.01 118.349 227.589 116.125C226.168 118.348 223.68 119.824 220.846 119.824H215.47C212.704 119.824 210.266 118.42 208.829 116.286C208.215 116.342 207.602 116.368 206.995 116.368C203.383 116.368 199.568 115.449 196.449 112.847C194.987 114.753 192.688 115.984 190.1 115.984H185.348C184.175 115.984 183.062 115.73 182.059 115.276C181.048 115.732 179.933 115.984 178.771 115.984H173.348C172.041 115.984 170.808 115.669 169.719 115.113C167.529 116.01 165.202 116.368 162.953 116.368C160.965 116.368 158.915 116.088 156.954 115.404C156.019 115.78 155.01 115.984 153.974 115.984H148.55C147.355 115.984 146.205 115.717 145.167 115.232C144.139 115.713 142.992 115.984 141.782 115.984H136.502C136.253 115.984 136.007 115.971 135.765 115.949C135.528 115.971 135.289 115.984 135.049 115.984H129.721C128.209 115.984 126.785 115.56 125.568 114.82C124.352 115.56 122.928 115.984 121.417 115.984H116.568C115.614 115.984 114.681 115.812 113.806 115.489C112.942 115.809 112.007 115.984 111.032 115.984H105.752C102.924 115.984 100.44 114.515 99.0176 112.3C97.595 114.515 95.1115 115.984 92.2832 115.984H87.0039C85.5315 115.984 84.1527 115.585 82.9678 114.891C80.8451 115.69 78.6215 115.984 76.54 115.984H68.7637C67.5127 115.984 66.3289 115.697 65.2744 115.185C64.2203 115.696 63.0374 115.984 61.7871 115.984H56.5068C54.1089 115.984 51.9584 114.928 50.4922 113.257C48.9745 114.987 46.7858 115.984 44.4805 115.984H39.1523C37.6408 115.984 36.2166 115.561 35 114.821C33.7836 115.561 32.3599 115.984 30.8486 115.984H26.001C23.6585 115.984 21.433 114.957 19.9131 113.175C18.3934 111.392 17.7306 109.034 18.1006 106.721L23.4766 73.1201L23.543 72.7598C24.3076 69.0639 27.5695 66.3849 31.377 66.3848H31.8086C30.2089 65.1832 29.0766 63.3955 28.7256 61.3408C26.4163 60.6561 24.1818 59.4332 22.3076 57.4219C22.2853 57.398 22.2632 57.3738 22.2412 57.3496C19.1444 53.9431 18.2402 49.6379 18.2402 45.7764V36.6084C18.2402 32.7468 19.1444 28.4417 22.2412 25.0352L22.3076 24.9629C24.8412 22.2439 28.0333 20.9667 31.1787 20.5107C32.6051 19.1915 34.5123 18.3848 36.6084 18.3848H41.8887C43.9853 18.3848 45.8919 19.1929 47.3184 20.5127C48.561 20.6934 49.8137 21.0027 51.0303 21.4824C54.1179 18.9253 57.8885 18 61.4854 18C63.7375 18 66.0572 18.365 68.2354 19.2637C69.3286 18.703 70.5668 18.3848 71.8799 18.3848H79.6562C81.509 18.3848 83.4742 18.6186 85.3809 19.2334C86.4596 18.6914 87.6772 18.3848 88.9668 18.3848H96.3105C97.6552 18.3848 98.932 18.7192 100.055 19.3145C101.177 18.7193 102.454 18.3848 103.799 18.3848H111.143C112.362 18.3848 113.517 18.6585 114.552 19.1465C115.59 18.6572 116.746 18.3849 117.958 18.3848H125.687L126.053 18.3926C126.863 18.4293 127.644 18.59 128.378 18.8525C129.221 18.5506 130.129 18.3848 131.075 18.3848H147.396C147.641 18.3848 147.884 18.3973 148.124 18.4189C148.364 18.3973 148.607 18.3848 148.853 18.3848H154.133C156.799 18.3849 159.159 19.6901 160.612 21.6953C162.066 19.6899 164.427 18.3848 167.093 18.3848H172.372C174.126 18.3848 175.748 18.9508 177.066 19.9082C178.385 18.9508 180.007 18.3848 181.761 18.3848H189.536C192.181 18.3848 195.054 18.8601 197.659 20.2432C199.056 19.0777 200.849 18.3849 202.783 18.3848L210.512 18.3848L210.878 18.3926C212.753 18.4776 214.476 19.2142 215.81 20.3936C218.57 18.6499 221.725 18 224.732 18ZM50.9863 79.1846H50.9873V74.3848H50.9863V79.1846ZM100.231 79.1846H100.232V74.3848H100.231V79.1846ZM214.035 77.7461C214.094 77.8608 214.15 77.978 214.204 78.0977C214.097 77.8579 213.979 77.628 213.85 77.4082L214.035 77.7461ZM161.285 74.1152C161.086 74.1439 160.891 74.1763 160.701 74.2158L161.123 74.1387C161.177 74.13 161.231 74.1231 161.285 74.1152ZM161.657 74.0684C161.596 74.0749 161.535 74.0813 161.475 74.0889C161.535 74.0813 161.596 74.075 161.657 74.0684ZM162.057 74.0322C162.001 74.0362 161.945 74.0411 161.89 74.0459C161.945 74.0411 162.001 74.0362 162.057 74.0322ZM83.0625 65.3818C81.918 66.6328 80.3818 67.5175 78.6475 67.8438C79.3701 68.3533 80.0046 68.9788 80.5234 69.6943C81.5344 68.2999 82.9837 67.244 84.6699 66.7305C84.0767 66.3518 83.5355 65.8989 83.0625 65.3818ZM195.562 67.7656C195.589 68.0322 195.604 68.3026 195.604 68.5762V68.582C195.916 68.8783 196.205 69.199 196.466 69.542C197.189 68.9348 197.952 68.4197 198.74 67.9844H197.407C196.78 67.9843 196.162 67.9077 195.562 67.7656ZM49.2324 63.1582C48.2274 65.4804 46.1543 67.2302 43.6318 67.791C44.1492 68.1465 44.625 68.5601 45.0459 69.0264C46.5099 67.4042 48.6292 66.3849 50.9863 66.3848H53.1914C51.9663 65.71 50.8041 64.8395 49.749 63.7354C49.729 63.7144 49.7092 63.693 49.6895 63.6719C49.5318 63.5032 49.3797 63.3312 49.2324 63.1582ZM215.405 68.0713C215.442 68.0424 215.479 68.0126 215.517 67.9844H215.249C215.301 68.0131 215.353 68.0418 215.405 68.0713ZM268.657 66.9131C268.704 66.9309 268.75 66.9492 268.796 66.9678C268.807 66.9632 268.819 66.9586 268.83 66.9541C268.793 66.9331 268.756 66.9122 268.719 66.8906C268.698 66.8983 268.678 66.9055 268.657 66.9131ZM64.4834 59.9697C64.2428 60.0415 63.9944 60.1049 63.7373 60.1572L64.1455 60.0645C64.26 60.0355 64.3724 60.0029 64.4834 59.9697ZM106.15 35.8945V59.9844L106.151 35.8887L106.15 35.8945ZM112.582 59.9844H112.583L117.959 26.3848H117.958L112.582 59.9844ZM272.754 59.9844H272.755V26.3848H272.754V59.9844ZM64.6162 59.9277C64.6975 59.9019 64.778 59.8758 64.8574 59.8477C64.778 59.8757 64.6975 59.9019 64.6162 59.9277ZM64.9482 59.8154C65.0614 59.7737 65.173 59.7309 65.2822 59.6846C65.173 59.7309 65.0614 59.7738 64.9482 59.8154ZM219.953 59.1533C219.992 59.1789 220.033 59.2018 220.073 59.2266C220.01 59.1873 219.948 59.1473 219.886 59.1064L219.953 59.1533ZM229.606 59.0645C229.641 59.0404 229.675 59.0159 229.709 58.9912C229.675 59.0159 229.641 59.0405 229.606 59.0645ZM66.4893 59.0156C66.5094 59.0016 66.5289 58.9868 66.5488 58.9727C66.5289 58.9868 66.5094 59.0017 66.4893 59.0156ZM229.943 58.8115C229.972 58.7887 230 58.7665 230.028 58.7432C230 58.7665 229.972 58.7887 229.943 58.8115ZM66.8047 58.7803C66.8242 58.7649 66.844 58.75 66.8633 58.7344C66.844 58.75 66.8242 58.7649 66.8047 58.7803ZM230.126 58.6602C230.191 58.6034 230.254 58.545 230.316 58.4854C230.254 58.5451 230.191 58.6034 230.126 58.6602ZM67.1289 58.5078C67.1385 58.4991 67.1477 58.4902 67.1572 58.4814C67.1477 58.4902 67.1384 58.4991 67.1289 58.5078ZM218.605 57.9424C218.678 58.0328 218.751 58.1219 218.828 58.208H218.829C218.752 58.1217 218.678 58.0329 218.605 57.9424ZM218.383 57.6465C218.442 57.7302 218.503 57.8122 218.566 57.8926C218.503 57.8122 218.442 57.7301 218.383 57.6465ZM218.159 57.3145C218.223 57.4169 218.291 57.5163 218.359 57.6143C218.219 57.4146 218.088 57.2058 217.968 56.9873L218.159 57.3145ZM231.387 57.1289C231.421 57.0719 231.454 57.0143 231.486 56.9561C231.454 57.0143 231.421 57.0719 231.387 57.1289ZM231.534 56.8691C231.568 56.8074 231.6 56.7449 231.632 56.6816C231.6 56.7449 231.568 56.8074 231.534 56.8691ZM217.629 56.2891C217.68 56.4104 217.735 56.5291 217.791 56.6455L217.63 56.2891C217.579 56.1678 217.53 56.0442 217.483 55.918L217.629 56.2891ZM264.21 54.5127C264.154 54.5684 264.096 54.621 264.034 54.6699C264.096 54.621 264.155 54.5686 264.211 54.5127C264.239 54.4847 264.266 54.4548 264.292 54.4238C264.266 54.455 264.238 54.4846 264.21 54.5127ZM32.2461 53.9482C32.3278 53.9606 32.4107 53.9698 32.4941 53.9805C32.3853 53.9666 32.2779 53.9509 32.1719 53.9346L32.2461 53.9482ZM264.624 53.8301C264.632 53.8095 264.639 53.7887 264.646 53.7676C264.639 53.7887 264.632 53.8095 264.624 53.8301ZM264.727 53.4932C264.747 53.4125 264.766 53.3288 264.782 53.2412C264.766 53.3288 264.747 53.4125 264.727 53.4932ZM264.837 52.8594C264.844 52.7975 264.852 52.7346 264.857 52.6699C264.852 52.7346 264.844 52.7975 264.837 52.8594ZM264.84 46.1367C264.854 46.2645 264.864 46.3983 264.871 46.5381C264.878 46.6782 264.882 46.8244 264.882 46.9766V52.0166C264.882 52.2099 264.875 52.3935 264.863 52.5674C264.875 52.3935 264.883 52.21 264.883 52.0166V46.9766C264.883 46.5858 264.856 46.2353 264.81 45.9238C264.82 45.993 264.832 46.0637 264.84 46.1367ZM28.1602 51.9688C28.2421 52.0567 28.3268 52.1421 28.4141 52.2246C28.327 52.1422 28.243 52.0566 28.1611 51.9688C28.1476 51.9539 28.1344 51.9388 28.1211 51.9238C28.1343 51.9386 28.1468 51.9541 28.1602 51.9688ZM27.9277 51.6973C27.9377 51.7097 27.9489 51.7211 27.959 51.7334C27.9373 51.7069 27.9158 51.6802 27.8945 51.6533C27.9059 51.6677 27.9162 51.683 27.9277 51.6973ZM27.71 51.4102C27.7183 51.4219 27.7279 51.4327 27.7363 51.4443C27.7083 51.4056 27.6815 51.3658 27.6543 51.3262C27.6734 51.3539 27.6905 51.3828 27.71 51.4102ZM27.4873 51.0732C27.4698 51.045 27.4537 51.0159 27.4365 50.9873C27.4536 51.0159 27.4698 51.045 27.4873 51.0732ZM27.1533 50.4658C27.2069 50.5762 27.262 50.6846 27.3203 50.79C27.3294 50.8065 27.3394 50.8225 27.3486 50.8389C27.2803 50.7178 27.2153 50.5934 27.1533 50.4658ZM26.877 49.8193C26.9195 49.9328 26.9639 50.0442 27.0107 50.1533C26.9639 50.0442 26.9195 49.9328 26.877 49.8193ZM26.6406 49.0889C26.6807 49.235 26.7243 49.3777 26.7705 49.5176C26.7242 49.3778 26.6808 49.2349 26.6406 49.0889ZM26.5107 48.5596C26.5459 48.7226 26.5851 48.882 26.627 49.0381C26.585 48.882 26.5459 48.7226 26.5107 48.5596ZM264.793 45.8057C264.783 45.7484 264.77 45.6931 264.759 45.6387C264.77 45.6931 264.783 45.7484 264.793 45.8057ZM264.21 44.4805C264.238 44.5086 264.266 44.5382 264.292 44.5693C264.397 44.6932 264.488 44.841 264.564 45.0127C264.628 45.155 264.681 45.3141 264.726 45.4893C264.681 45.3142 264.629 45.1549 264.565 45.0127C264.527 44.9271 264.485 44.8472 264.439 44.7734C264.371 44.6622 264.295 44.5646 264.211 44.4805C264.155 44.4244 264.095 44.3722 264.033 44.3232L264.21 44.4805ZM190.871 42.2979H190.872C190.939 42.2664 191.002 42.2305 191.063 42.1934C191.002 42.2306 190.938 42.2663 190.871 42.2979ZM191.11 42.1631C191.162 42.1302 191.212 42.0956 191.26 42.0586C191.212 42.0957 191.162 42.1301 191.11 42.1631ZM191.456 41.8887C191.403 41.9413 191.347 41.9897 191.289 42.0361C191.347 41.9895 191.404 41.9415 191.457 41.8887C191.485 41.8607 191.512 41.8308 191.538 41.7998L191.456 41.8887ZM246.27 40.7842H246.271V26.3848H246.27V40.7842ZM225.93 39.6768C225.99 39.6441 226.048 39.6081 226.105 39.5713C226.048 39.608 225.99 39.6441 225.93 39.6768ZM226.178 39.5234C226.194 39.5118 226.211 39.5003 226.228 39.4883C226.211 39.5003 226.194 39.5118 226.178 39.5234ZM226.308 39.4268C226.321 39.4164 226.334 39.4062 226.347 39.3955C226.334 39.4062 226.321 39.4163 226.308 39.4268ZM59.1387 32.0293C59.1236 32.0581 59.1079 32.087 59.0938 32.1172C59.1081 32.0871 59.1236 32.0581 59.1387 32.0293ZM59.2119 31.8994C59.1959 31.9255 59.1802 31.9521 59.165 31.9795C59.1802 31.9521 59.1959 31.9255 59.2119 31.8994ZM191.185 31.6279C191.282 31.6961 191.372 31.7726 191.456 31.8564C191.484 31.8846 191.512 31.9142 191.538 31.9453L191.457 31.8564C191.373 31.7724 191.282 31.6961 191.185 31.6279ZM59.2891 31.7822C59.2781 31.7975 59.2675 31.8133 59.2568 31.8291C59.2675 31.8132 59.2781 31.7976 59.2891 31.7822ZM190.159 31.2324L190.125 31.2266C190.108 31.224 190.091 31.2231 190.073 31.2207C190.102 31.2247 190.131 31.2278 190.159 31.2324ZM189.876 31.1992C189.856 31.1976 189.836 31.1957 189.815 31.1943C189.836 31.1957 189.856 31.1976 189.876 31.1992ZM131.075 31.1846H131.076V26.3848H131.075V31.1846ZM28.4082 30.166C28.323 30.2468 28.2403 30.33 28.1602 30.416C28.0002 30.592 27.8499 30.7781 27.71 30.9746L27.7109 30.9756C27.851 30.779 28.0011 30.5921 28.1611 30.416C28.2411 30.3302 28.3233 30.2467 28.4082 30.166ZM231.389 29.2715C231.551 29.5409 231.698 29.8255 231.828 30.126L231.817 30.0977C231.69 29.8073 231.546 29.5325 231.389 29.2715ZM231.35 29.207C231.306 29.1373 231.262 29.0686 231.217 29.001C231.262 29.0686 231.306 29.1373 231.35 29.207ZM231.168 28.9287C231.13 28.8741 231.091 28.8207 231.052 28.7676C231.091 28.8208 231.13 28.8741 231.168 28.9287ZM218.419 28.709C218.393 28.7442 218.367 28.7795 218.342 28.8154C218.367 28.7796 218.393 28.7442 218.419 28.709ZM230.976 28.665C230.94 28.6191 230.904 28.5742 230.867 28.5293C230.904 28.5742 230.94 28.6191 230.976 28.665ZM218.59 28.4854C218.57 28.5097 218.552 28.5349 218.532 28.5596C218.563 28.5205 218.594 28.4816 218.625 28.4434C218.613 28.4574 218.601 28.4712 218.59 28.4854ZM230.066 27.6904C230.251 27.8514 230.425 28.0239 230.589 28.208C230.656 28.2796 230.721 28.353 230.784 28.4277C230.721 28.353 230.656 28.2796 230.589 28.208C230.507 28.1161 230.423 28.0266 230.336 27.9404C230.249 27.854 230.159 27.7709 230.066 27.6904ZM218.947 28.083C218.907 28.1244 218.867 28.1654 218.828 28.208C218.807 28.2315 218.787 28.2564 218.766 28.2803C218.787 28.2562 218.808 28.2317 218.829 28.208C218.868 28.1656 218.908 28.1242 218.947 28.083ZM66.3193 27.2617C66.5191 27.3945 66.7111 27.5366 66.8936 27.6904C66.798 27.6101 66.6998 27.5327 66.5996 27.458C66.5083 27.3899 66.4145 27.3251 66.3193 27.2617ZM219.278 27.7637C219.243 27.7948 219.209 27.8265 219.175 27.8584C219.209 27.8265 219.243 27.7948 219.278 27.7637ZM219.475 27.5967C219.443 27.6224 219.412 27.6484 219.381 27.6748C219.412 27.6484 219.443 27.6224 219.475 27.5967ZM219.662 27.4482C219.641 27.4642 219.62 27.4809 219.6 27.4971C219.62 27.4809 219.641 27.4642 219.662 27.4482ZM219.811 27.3408C219.832 27.3253 219.854 27.3092 219.876 27.2939C219.854 27.3092 219.832 27.3253 219.811 27.3408ZM66.2412 27.2109C66.1701 27.1651 66.0976 27.1213 66.0244 27.0781C66.0976 27.1213 66.1701 27.1652 66.2412 27.2109ZM228.141 26.5527C228.506 26.6907 228.85 26.8544 229.171 27.0439L228.843 26.8623C228.731 26.8047 228.616 26.75 228.499 26.6982C228.382 26.6465 228.263 26.5977 228.141 26.5518V26.5527ZM220.448 26.9443C220.393 26.9742 220.339 27.0049 220.285 27.0361C220.339 27.0049 220.393 26.9742 220.448 26.9443ZM65.9316 27.0234C65.8337 26.9678 65.7345 26.9134 65.6328 26.8623C65.7345 26.9134 65.8337 26.9678 65.9316 27.0234ZM220.604 26.8623C220.573 26.878 220.542 26.8941 220.512 26.9102C220.558 26.8857 220.605 26.8623 220.652 26.8389C220.636 26.8469 220.62 26.8541 220.604 26.8623ZM220.951 26.6982C220.945 26.7009 220.939 26.7033 220.933 26.7061C220.952 26.6973 220.972 26.6892 220.992 26.6807C220.979 26.6865 220.965 26.6923 220.951 26.6982ZM63.7373 26.2158C64.2902 26.3308 64.8053 26.4913 65.2822 26.6982C65.1632 26.6465 65.0418 26.5977 64.918 26.5518C64.794 26.5058 64.6678 26.4621 64.5391 26.4219C64.4103 26.3816 64.279 26.3451 64.1455 26.3105C63.8783 26.2415 63.6016 26.1837 63.3154 26.1377L63.7373 26.2158ZM221.346 26.54C221.314 26.5516 221.283 26.5642 221.252 26.5762C221.283 26.5642 221.314 26.5517 221.346 26.54ZM221.688 26.4229C221.678 26.426 221.668 26.4294 221.658 26.4326C221.683 26.4246 221.708 26.4169 221.733 26.4092L221.688 26.4229ZM60.0918 26.0771C60.0627 26.0805 60.0338 26.0852 60.0049 26.0889C60.0839 26.0789 60.1637 26.0708 60.2441 26.0625C60.1931 26.0677 60.1422 26.0713 60.0918 26.0771ZM60.542 26.0342C60.4955 26.0377 60.4494 26.0429 60.4033 26.0469C60.4693 26.0411 60.5357 26.035 60.6025 26.0303L60.542 26.0342ZM231.25 57.3496L231.274 57.3145C231.303 57.269 231.33 57.2221 231.358 57.1758C231.323 57.2344 231.287 57.2924 231.25 57.3496ZM264.699 53.6016C264.703 53.5877 264.707 53.5737 264.711 53.5596C264.707 53.5737 264.703 53.5877 264.699 53.6016ZM264.795 53.1689C264.807 53.0991 264.818 53.0272 264.827 52.9531C264.818 53.0272 264.807 53.0991 264.795 53.1689ZM27.4873 51.0732C27.5102 51.1102 27.5341 51.1463 27.5576 51.1826C27.5341 51.1463 27.5102 51.1102 27.4873 51.0732ZM27.0557 50.2568C27.0794 50.3099 27.1042 50.3621 27.1289 50.4141C27.1042 50.3621 27.0794 50.3099 27.0557 50.2568ZM26.8115 49.6406C26.8236 49.6753 26.8352 49.7099 26.8477 49.7441C26.8529 49.7586 26.8589 49.7727 26.8643 49.7871C26.8463 49.7387 26.8287 49.6899 26.8115 49.6406ZM219.107 27.9229C219.07 27.9586 219.033 27.9945 218.997 28.0313C219.033 27.9945 219.07 27.9586 219.107 27.9229ZM220.231 27.0684C220.179 27.0997 220.126 27.1304 220.074 27.1631C220.126 27.1304 220.179 27.0997 220.231 27.0684Z" fill="#1C1456"/>
<g filter="url(#filter0_ii_2133_23804)">
<path d="M218.732 12C220.936 12 223.234 12.3506 225.396 13.2383C226.476 12.6935 227.697 12.3848 228.99 12.3848H234.27C235.331 12.3848 236.343 12.5936 237.27 12.9688C238.196 12.5935 239.208 12.3848 240.27 12.3848H245.646C246.135 12.3848 246.615 12.4314 247.08 12.5156C247.545 12.4314 248.025 12.3848 248.515 12.3848H253.794C256.46 12.3848 258.82 13.6902 260.273 15.6953C261.727 13.6898 264.088 12.3849 266.754 12.3848H272.034C272.528 12.3848 273.012 12.4318 273.481 12.5176C273.951 12.4317 274.435 12.3848 274.93 12.3848H289.329C293.747 12.3848 297.329 15.9665 297.329 20.3848V25.1846C297.329 27.5408 296.309 29.6581 294.688 31.1221C295.18 32.1597 295.457 33.3193 295.457 34.5439V39.3447C295.457 39.8757 295.404 40.3944 295.306 40.8965H296.589C301.007 40.8967 304.589 44.4783 304.589 48.8965V53.4561C304.589 54.5482 304.365 55.6294 303.932 56.6318L301.627 61.96C300.36 64.8884 297.475 66.7842 294.284 66.7842H292.124C289.608 66.784 287.239 65.6002 285.729 63.5889C285.351 63.0868 285.038 62.5482 284.792 61.9844H275.973C277.915 63.4439 279.172 65.7677 279.172 68.3848V101.984C279.172 106.403 275.59 109.984 271.172 109.984L265.796 109.984C264.735 109.984 263.722 109.776 262.796 109.4C261.869 109.776 260.857 109.984 259.796 109.984H254.517C254.027 109.984 253.548 109.938 253.083 109.854C252.618 109.938 252.14 109.984 251.65 109.984H246.898C245.726 109.984 244.613 109.73 243.609 109.276C242.664 109.703 241.627 109.949 240.546 109.979C239.142 112.285 236.605 113.824 233.709 113.824H228.333C225.498 113.824 223.01 112.349 221.589 110.125C220.168 112.348 217.68 113.824 214.846 113.824H209.47C206.704 113.824 204.266 112.42 202.829 110.286C202.215 110.342 201.602 110.368 200.995 110.368C197.383 110.368 193.568 109.449 190.449 106.847C188.987 108.753 186.688 109.984 184.1 109.984H179.348C178.175 109.984 177.062 109.73 176.059 109.276C175.048 109.732 173.933 109.984 172.771 109.984H167.348C166.041 109.984 164.808 109.669 163.719 109.113C161.529 110.01 159.202 110.368 156.953 110.368C154.965 110.368 152.915 110.088 150.954 109.404C150.019 109.78 149.01 109.984 147.974 109.984H142.55C141.355 109.984 140.205 109.717 139.167 109.232C138.139 109.713 136.992 109.984 135.782 109.984H130.502C130.253 109.984 130.007 109.971 129.765 109.949C129.528 109.971 129.289 109.984 129.049 109.984H123.721C122.209 109.984 120.785 109.56 119.568 108.82C118.352 109.56 116.928 109.984 115.417 109.984H110.568C109.614 109.984 108.681 109.812 107.806 109.489C106.942 109.809 106.007 109.984 105.032 109.984H99.752C96.9237 109.984 94.4401 108.515 93.0176 106.3C91.595 108.515 89.1115 109.984 86.2832 109.984H81.0039C79.5315 109.984 78.1527 109.585 76.9678 108.891C74.8451 109.69 72.6215 109.984 70.54 109.984H62.7637C61.5127 109.984 60.3289 109.697 59.2744 109.185C58.2203 109.696 57.0374 109.984 55.7871 109.984H50.5068C48.1089 109.984 45.9584 108.928 44.4922 107.257C42.9745 108.987 40.7858 109.984 38.4805 109.984H33.1523C31.6408 109.984 30.2166 109.561 29 108.821C27.7836 109.561 26.3599 109.984 24.8486 109.984H20.001C17.6585 109.984 15.433 108.957 13.9131 107.175C12.3934 105.392 11.7306 103.034 12.1006 100.721L17.4766 67.1201L17.543 66.7598C18.3076 63.0639 21.5695 60.3849 25.377 60.3848H25.8086C24.2089 59.1832 23.0766 57.3955 22.7256 55.3408C20.4163 54.6561 18.1818 53.4332 16.3076 51.4219C16.2853 51.398 16.2632 51.3738 16.2412 51.3496C13.1444 47.9431 12.2402 43.6379 12.2402 39.7764V30.6084C12.2402 26.7468 13.1444 22.4417 16.2412 19.0352L16.3076 18.9629C18.8412 16.2439 22.0333 14.9667 25.1787 14.5107C26.6051 13.1915 28.5123 12.3848 30.6084 12.3848H35.8887C37.9853 12.3848 39.8919 13.1929 41.3184 14.5127C42.561 14.6934 43.8137 15.0027 45.0303 15.4824C48.1179 12.9253 51.8885 12 55.4854 12C57.7375 12 60.0572 12.365 62.2354 13.2637C63.3286 12.703 64.5668 12.3848 65.8799 12.3848H73.6562C75.509 12.3848 77.4742 12.6186 79.3809 13.2334C80.4596 12.6914 81.6772 12.3848 82.9668 12.3848H90.3105C91.6552 12.3848 92.932 12.7192 94.0547 13.3145C95.177 12.7193 96.4535 12.3848 97.7988 12.3848H105.143C106.362 12.3848 107.517 12.6585 108.552 13.1465C109.59 12.6572 110.746 12.3849 111.958 12.3848H119.687L120.053 12.3926C120.863 12.4293 121.644 12.59 122.378 12.8525C123.221 12.5506 124.129 12.3848 125.075 12.3848H141.396C141.641 12.3848 141.884 12.3973 142.124 12.4189C142.364 12.3973 142.607 12.3848 142.853 12.3848H148.133C150.799 12.3849 153.159 13.6901 154.612 15.6953C156.066 13.6899 158.427 12.3848 161.093 12.3848H166.372C168.126 12.3848 169.748 12.9508 171.066 13.9082C172.385 12.9508 174.007 12.3848 175.761 12.3848H183.536C186.181 12.3848 189.054 12.8601 191.659 14.2432C193.056 13.0777 194.849 12.3849 196.783 12.3848H204.512L204.878 12.3926C206.753 12.4776 208.476 13.2142 209.81 14.3936C212.57 12.6499 215.725 12 218.732 12ZM44.9863 73.1846H44.9873V68.3848H44.9863V73.1846ZM94.2314 73.1846H94.2324V68.3848H94.2314V73.1846ZM208.035 71.7461C208.094 71.8608 208.15 71.978 208.204 72.0977C208.097 71.8579 207.979 71.628 207.85 71.4082L208.035 71.7461ZM155.285 68.1152C155.086 68.1439 154.891 68.1763 154.701 68.2158L155.123 68.1387C155.177 68.13 155.231 68.1231 155.285 68.1152ZM155.657 68.0684C155.596 68.0749 155.535 68.0813 155.475 68.0889C155.535 68.0813 155.596 68.075 155.657 68.0684ZM156.057 68.0322C156.001 68.0362 155.945 68.0411 155.89 68.0459C155.945 68.0411 156.001 68.0362 156.057 68.0322ZM77.0625 59.3818C75.918 60.6328 74.3818 61.5175 72.6475 61.8438C73.3701 62.3533 74.0046 62.9788 74.5234 63.6943C75.5344 62.2999 76.9837 61.244 78.6699 60.7305C78.0767 60.3518 77.5355 59.8989 77.0625 59.3818ZM189.562 61.7656C189.589 62.0322 189.604 62.3026 189.604 62.5762V62.582C189.916 62.8783 190.205 63.199 190.466 63.542C191.189 62.9348 191.952 62.4197 192.74 61.9844H191.407C190.78 61.9843 190.162 61.9077 189.562 61.7656ZM43.2324 57.1582C42.2274 59.4804 40.1543 61.2302 37.6318 61.791C38.1492 62.1465 38.625 62.5601 39.0459 63.0264C40.5099 61.4042 42.6292 60.3849 44.9863 60.3848H47.1914C45.9663 59.71 44.8041 58.8395 43.749 57.7354C43.729 57.7144 43.7092 57.693 43.6895 57.6719C43.5318 57.5032 43.3797 57.3312 43.2324 57.1582ZM209.405 62.0713C209.442 62.0424 209.479 62.0126 209.517 61.9844H209.249C209.301 62.0131 209.353 62.0418 209.405 62.0713ZM262.657 60.9131C262.704 60.9309 262.75 60.9492 262.796 60.9678C262.807 60.9632 262.819 60.9586 262.83 60.9541C262.793 60.9331 262.756 60.9122 262.719 60.8906C262.698 60.8983 262.678 60.9055 262.657 60.9131ZM58.4834 53.9697C58.2428 54.0415 57.9944 54.1049 57.7373 54.1572L58.1455 54.0645C58.26 54.0355 58.3724 54.0029 58.4834 53.9697ZM100.15 29.8945V53.9844L100.151 29.8887L100.15 29.8945ZM106.582 53.9844H106.583L111.959 20.3848H111.958L106.582 53.9844ZM266.754 53.9844H266.755V20.3848H266.754V53.9844ZM58.6162 53.9277C58.6975 53.9019 58.778 53.8758 58.8574 53.8477C58.778 53.8757 58.6975 53.9019 58.6162 53.9277ZM58.9482 53.8154C59.0614 53.7737 59.173 53.7309 59.2822 53.6846C59.173 53.7309 59.0614 53.7738 58.9482 53.8154ZM213.953 53.1533C213.992 53.1789 214.033 53.2018 214.073 53.2266C214.01 53.1873 213.948 53.1473 213.886 53.1064L213.953 53.1533ZM223.606 53.0645C223.641 53.0404 223.675 53.0159 223.709 52.9912C223.675 53.0159 223.641 53.0405 223.606 53.0645ZM60.4893 53.0156C60.5094 53.0016 60.5289 52.9868 60.5488 52.9727C60.5289 52.9868 60.5094 53.0017 60.4893 53.0156ZM223.943 52.8115C223.972 52.7887 224 52.7665 224.028 52.7432C224 52.7665 223.972 52.7887 223.943 52.8115ZM60.8047 52.7803C60.8242 52.7649 60.844 52.75 60.8633 52.7344C60.844 52.75 60.8242 52.7649 60.8047 52.7803ZM224.126 52.6602C224.191 52.6034 224.254 52.545 224.316 52.4854C224.254 52.5451 224.191 52.6034 224.126 52.6602ZM61.1289 52.5078C61.1385 52.4991 61.1477 52.4902 61.1572 52.4814C61.1477 52.4902 61.1384 52.4991 61.1289 52.5078ZM212.605 51.9424C212.678 52.0328 212.751 52.1219 212.828 52.208H212.829C212.752 52.1217 212.678 52.0329 212.605 51.9424ZM212.383 51.6465C212.442 51.7302 212.503 51.8122 212.566 51.8926C212.503 51.8122 212.442 51.7301 212.383 51.6465ZM212.159 51.3145C212.223 51.4169 212.291 51.5163 212.359 51.6143C212.219 51.4146 212.088 51.2058 211.968 50.9873L212.159 51.3145ZM225.387 51.1289C225.421 51.0719 225.454 51.0143 225.486 50.9561C225.454 51.0143 225.421 51.0719 225.387 51.1289ZM225.534 50.8691C225.568 50.8074 225.6 50.7449 225.632 50.6816C225.6 50.7449 225.568 50.8074 225.534 50.8691ZM211.629 50.2891C211.68 50.4104 211.735 50.5291 211.791 50.6455L211.63 50.2891C211.579 50.1678 211.53 50.0442 211.483 49.918L211.629 50.2891ZM258.21 48.5127C258.154 48.5684 258.096 48.621 258.034 48.6699C258.096 48.621 258.155 48.5686 258.211 48.5127C258.239 48.4847 258.266 48.4548 258.292 48.4238C258.266 48.455 258.238 48.4846 258.21 48.5127ZM26.2461 47.9482C26.3278 47.9606 26.4107 47.9698 26.4941 47.9805C26.3853 47.9666 26.2779 47.9509 26.1719 47.9346L26.2461 47.9482ZM258.624 47.8301C258.632 47.8095 258.639 47.7887 258.646 47.7676C258.639 47.7887 258.632 47.8095 258.624 47.8301ZM258.727 47.4932C258.747 47.4125 258.766 47.3288 258.782 47.2412C258.766 47.3288 258.747 47.4125 258.727 47.4932ZM258.837 46.8594C258.844 46.7975 258.852 46.7346 258.857 46.6699C258.852 46.7346 258.844 46.7975 258.837 46.8594ZM258.84 40.1367C258.854 40.2645 258.864 40.3983 258.871 40.5381C258.878 40.6782 258.882 40.8244 258.882 40.9766V46.0166C258.882 46.2099 258.875 46.3935 258.863 46.5674C258.875 46.3935 258.883 46.21 258.883 46.0166V40.9766C258.883 40.5858 258.856 40.2353 258.81 39.9238C258.82 39.993 258.832 40.0637 258.84 40.1367ZM22.1602 45.9688C22.2421 46.0567 22.3268 46.1421 22.4141 46.2246C22.327 46.1422 22.243 46.0566 22.1611 45.9688C22.1476 45.9539 22.1344 45.9388 22.1211 45.9238C22.1343 45.9386 22.1468 45.9541 22.1602 45.9688ZM21.9277 45.6973C21.9377 45.7097 21.9489 45.7211 21.959 45.7334C21.9373 45.7069 21.9158 45.6802 21.8945 45.6533C21.9059 45.6677 21.9162 45.683 21.9277 45.6973ZM21.71 45.4102C21.7183 45.4219 21.7279 45.4327 21.7363 45.4443C21.7083 45.4056 21.6815 45.3658 21.6543 45.3262C21.6734 45.3539 21.6905 45.3828 21.71 45.4102ZM21.4873 45.0732C21.4698 45.045 21.4537 45.0159 21.4365 44.9873C21.4536 45.0159 21.4698 45.045 21.4873 45.0732ZM21.1533 44.4658C21.2069 44.5762 21.262 44.6846 21.3203 44.79C21.3294 44.8065 21.3394 44.8225 21.3486 44.8389C21.2803 44.7178 21.2153 44.5934 21.1533 44.4658ZM20.877 43.8193C20.9195 43.9328 20.9639 44.0442 21.0107 44.1533C20.9639 44.0442 20.9195 43.9328 20.877 43.8193ZM20.6406 43.0889C20.6807 43.235 20.7243 43.3777 20.7705 43.5176C20.7242 43.3778 20.6808 43.2349 20.6406 43.0889ZM20.5107 42.5596C20.5459 42.7226 20.5851 42.882 20.627 43.0381C20.585 42.882 20.5459 42.7226 20.5107 42.5596ZM258.793 39.8057C258.783 39.7484 258.77 39.6931 258.759 39.6387C258.77 39.6931 258.783 39.7484 258.793 39.8057ZM258.21 38.4805C258.238 38.5086 258.266 38.5382 258.292 38.5693C258.397 38.6932 258.488 38.841 258.564 39.0127C258.628 39.155 258.681 39.3141 258.726 39.4893C258.681 39.3142 258.629 39.1549 258.565 39.0127C258.527 38.9271 258.485 38.8472 258.439 38.7734C258.371 38.6622 258.295 38.5646 258.211 38.4805C258.155 38.4244 258.095 38.3722 258.033 38.3232L258.21 38.4805ZM184.871 36.2979H184.872C184.939 36.2664 185.002 36.2305 185.063 36.1934C185.002 36.2306 184.938 36.2663 184.871 36.2979ZM185.11 36.1631C185.162 36.1302 185.212 36.0956 185.26 36.0586C185.212 36.0957 185.162 36.1301 185.11 36.1631ZM185.456 35.8887C185.403 35.9413 185.347 35.9897 185.289 36.0361C185.347 35.9895 185.404 35.9415 185.457 35.8887C185.485 35.8607 185.512 35.8308 185.538 35.7998L185.456 35.8887ZM240.27 34.7842H240.271V20.3848H240.27V34.7842ZM219.93 33.6768C219.99 33.6441 220.048 33.6081 220.105 33.5713C220.048 33.608 219.99 33.6441 219.93 33.6768ZM220.178 33.5234C220.194 33.5118 220.211 33.5003 220.228 33.4883C220.211 33.5003 220.194 33.5118 220.178 33.5234ZM220.308 33.4268C220.321 33.4164 220.334 33.4062 220.347 33.3955C220.334 33.4062 220.321 33.4163 220.308 33.4268ZM53.1387 26.0293C53.1236 26.0581 53.1079 26.087 53.0938 26.1172C53.1081 26.0871 53.1236 26.0581 53.1387 26.0293ZM53.2119 25.8994C53.1959 25.9255 53.1802 25.9521 53.165 25.9795C53.1802 25.9521 53.1959 25.9255 53.2119 25.8994ZM185.185 25.6279C185.282 25.6961 185.372 25.7726 185.456 25.8564C185.484 25.8846 185.512 25.9142 185.538 25.9453L185.457 25.8564C185.373 25.7724 185.282 25.6961 185.185 25.6279ZM53.2891 25.7822C53.2781 25.7975 53.2675 25.8133 53.2568 25.8291C53.2675 25.8132 53.2781 25.7976 53.2891 25.7822ZM184.159 25.2324L184.125 25.2266C184.108 25.224 184.091 25.2231 184.073 25.2207C184.102 25.2247 184.131 25.2278 184.159 25.2324ZM183.876 25.1992C183.856 25.1976 183.836 25.1957 183.815 25.1943C183.836 25.1957 183.856 25.1976 183.876 25.1992ZM125.075 25.1846H125.076V20.3848H125.075V25.1846ZM22.4082 24.166C22.323 24.2468 22.2403 24.33 22.1602 24.416C22.0002 24.592 21.8499 24.7781 21.71 24.9746L21.7109 24.9756C21.851 24.779 22.0011 24.5921 22.1611 24.416C22.2411 24.3302 22.3233 24.2467 22.4082 24.166ZM225.389 23.2715C225.551 23.5409 225.698 23.8255 225.828 24.126L225.817 24.0977C225.69 23.8073 225.546 23.5325 225.389 23.2715ZM225.35 23.207C225.306 23.1373 225.262 23.0686 225.217 23.001C225.262 23.0686 225.306 23.1373 225.35 23.207ZM225.168 22.9287C225.13 22.8741 225.091 22.8207 225.052 22.7676C225.091 22.8208 225.13 22.8741 225.168 22.9287ZM212.419 22.709C212.393 22.7442 212.367 22.7795 212.342 22.8154C212.367 22.7796 212.393 22.7442 212.419 22.709ZM224.976 22.665C224.94 22.6191 224.904 22.5742 224.867 22.5293C224.904 22.5742 224.94 22.6191 224.976 22.665ZM212.59 22.4854C212.57 22.5097 212.552 22.5349 212.532 22.5596C212.563 22.5205 212.594 22.4816 212.625 22.4434C212.613 22.4574 212.601 22.4712 212.59 22.4854ZM224.066 21.6904C224.251 21.8514 224.425 22.0239 224.589 22.208C224.656 22.2796 224.721 22.353 224.784 22.4277C224.721 22.353 224.656 22.2796 224.589 22.208C224.507 22.1161 224.423 22.0266 224.336 21.9404C224.249 21.854 224.159 21.7709 224.066 21.6904ZM212.947 22.083C212.907 22.1244 212.867 22.1654 212.828 22.208C212.807 22.2315 212.787 22.2564 212.766 22.2803C212.787 22.2562 212.808 22.2317 212.829 22.208C212.868 22.1656 212.908 22.1242 212.947 22.083ZM60.3193 21.2617C60.5191 21.3945 60.7111 21.5366 60.8936 21.6904C60.798 21.6101 60.6998 21.5327 60.5996 21.458C60.5083 21.3899 60.4145 21.3251 60.3193 21.2617ZM213.278 21.7637C213.243 21.7948 213.209 21.8265 213.175 21.8584C213.209 21.8265 213.243 21.7948 213.278 21.7637ZM213.475 21.5967C213.443 21.6224 213.412 21.6484 213.381 21.6748C213.412 21.6484 213.443 21.6224 213.475 21.5967ZM213.662 21.4482C213.641 21.4642 213.62 21.4809 213.6 21.4971C213.62 21.4809 213.641 21.4642 213.662 21.4482ZM213.811 21.3408C213.832 21.3253 213.854 21.3092 213.876 21.2939C213.854 21.3092 213.832 21.3253 213.811 21.3408ZM60.2412 21.2109C60.1701 21.1651 60.0976 21.1213 60.0244 21.0781C60.0976 21.1213 60.1701 21.1652 60.2412 21.2109ZM222.141 20.5527C222.506 20.6907 222.85 20.8544 223.171 21.0439L222.843 20.8623C222.731 20.8047 222.616 20.75 222.499 20.6982C222.382 20.6465 222.263 20.5977 222.141 20.5518V20.5527ZM214.448 20.9443C214.393 20.9742 214.339 21.0049 214.285 21.0361C214.339 21.0049 214.393 20.9742 214.448 20.9443ZM59.9316 21.0234C59.8337 20.9678 59.7345 20.9134 59.6328 20.8623C59.7345 20.9134 59.8337 20.9678 59.9316 21.0234ZM214.604 20.8623C214.573 20.878 214.542 20.8941 214.512 20.9102C214.558 20.8857 214.605 20.8623 214.652 20.8389C214.636 20.8469 214.62 20.8541 214.604 20.8623ZM214.951 20.6982C214.945 20.7009 214.939 20.7033 214.933 20.7061C214.952 20.6973 214.972 20.6892 214.992 20.6807C214.979 20.6865 214.965 20.6923 214.951 20.6982ZM57.7373 20.2158C58.2902 20.3308 58.8053 20.4913 59.2822 20.6982C59.1632 20.6465 59.0418 20.5977 58.918 20.5518C58.794 20.5058 58.6678 20.4621 58.5391 20.4219C58.4103 20.3816 58.279 20.3451 58.1455 20.3105C57.8783 20.2415 57.6016 20.1837 57.3154 20.1377L57.7373 20.2158ZM215.346 20.54C215.314 20.5516 215.283 20.5642 215.252 20.5762C215.283 20.5642 215.314 20.5517 215.346 20.54ZM215.688 20.4229C215.678 20.426 215.668 20.4294 215.658 20.4326C215.683 20.4246 215.708 20.4169 215.733 20.4092L215.688 20.4229ZM54.0918 20.0771C54.0627 20.0805 54.0338 20.0852 54.0049 20.0889C54.0839 20.0789 54.1637 20.0708 54.2441 20.0625C54.1931 20.0677 54.1422 20.0713 54.0918 20.0771ZM54.542 20.0342C54.4955 20.0377 54.4494 20.0429 54.4033 20.0469C54.4693 20.0411 54.5357 20.035 54.6025 20.0303L54.542 20.0342ZM225.25 51.3496L225.274 51.3145C225.303 51.269 225.33 51.2221 225.358 51.1758C225.323 51.2344 225.287 51.2924 225.25 51.3496ZM258.699 47.6016C258.703 47.5877 258.707 47.5737 258.711 47.5596C258.707 47.5737 258.703 47.5877 258.699 47.6016ZM258.795 47.1689C258.807 47.0991 258.818 47.0272 258.827 46.9531C258.818 47.0272 258.807 47.0991 258.795 47.1689ZM21.4873 45.0732C21.5102 45.1102 21.5341 45.1463 21.5576 45.1826C21.5341 45.1463 21.5102 45.1102 21.4873 45.0732ZM21.0557 44.2568C21.0794 44.3099 21.1042 44.3621 21.1289 44.4141C21.1042 44.3621 21.0794 44.3099 21.0557 44.2568ZM20.8115 43.6406C20.8236 43.6753 20.8352 43.7099 20.8477 43.7441C20.8529 43.7586 20.8589 43.7727 20.8643 43.7871C20.8463 43.7387 20.8287 43.6899 20.8115 43.6406ZM213.107 21.9229C213.07 21.9586 213.033 21.9945 212.997 22.0313C213.033 21.9945 213.07 21.9586 213.107 21.9229ZM214.231 21.0684C214.179 21.0997 214.126 21.1304 214.074 21.1631C214.126 21.1304 214.179 21.0997 214.231 21.0684Z" fill="#C7B3FF"/>
</g>
<path d="M30.6085 48.0804H28.1125C25.4565 48.0804 23.4725 47.3764 22.1605 45.9684C20.8805 44.5604 20.2405 42.4964 20.2405 39.7764V30.6084C20.2405 27.8884 20.8805 25.8244 22.1605 24.4164C23.4725 23.0084 25.4565 22.3044 28.1125 22.3044H30.6085V20.3844H35.8885V22.3044H38.3845C41.0405 22.3044 43.0085 23.0084 44.2885 24.4164C45.6005 25.8244 46.2565 27.8884 46.2565 30.6084V39.7764C46.2565 42.4964 45.6005 44.5604 44.2885 45.9684C43.0085 47.3764 41.0405 48.0804 38.3845 48.0804H35.8885V53.9844H30.6085V48.0804ZM35.8885 27.1044V43.2804H38.3845C39.2165 43.2804 39.8565 43.0564 40.3045 42.6084C40.7525 42.1604 40.9765 41.3284 40.9765 40.1124V30.2724C40.9765 29.0564 40.7525 28.2244 40.3045 27.7764C39.8565 27.3284 39.2165 27.1044 38.3845 27.1044H35.8885ZM28.1125 27.1044C27.2805 27.1044 26.6405 27.3284 26.1925 27.7764C25.7445 28.2244 25.5205 29.0564 25.5205 30.2724V40.1124C25.5205 41.3284 25.7445 42.1604 26.1925 42.6084C26.6405 43.0564 27.2805 43.2804 28.1125 43.2804H30.6085V27.1044H28.1125ZM52.7493 46.2564C52.7493 47.4724 52.9893 48.3364 53.4693 48.8484C53.9813 49.3284 54.6533 49.5684 55.4853 49.5684C56.3173 49.5684 56.9733 49.3284 57.4533 48.8484C57.9653 48.3364 58.2213 47.4724 58.2213 46.2564V28.1124C58.2213 26.8964 57.9653 26.0484 57.4533 25.5684C56.9733 25.0564 56.3173 24.8004 55.4853 24.8004C54.6533 24.8004 53.9813 25.0564 53.4693 25.5684C52.9893 26.0484 52.7493 26.8964 52.7493 28.1124V46.2564ZM47.4693 28.4484C47.4693 25.7284 48.1573 23.6484 49.5333 22.2084C50.9093 20.7364 52.8933 20.0004 55.4853 20.0004C58.0773 20.0004 60.0613 20.7364 61.4373 22.2084C62.8133 23.6484 63.5013 25.7284 63.5013 28.4484V45.9204C63.5013 48.6404 62.8133 50.7364 61.4373 52.2084C60.0613 53.6484 58.0773 54.3684 55.4853 54.3684C52.8933 54.3684 50.9093 53.6484 49.5333 52.2084C48.1573 50.7364 47.4693 48.6404 47.4693 45.9204V28.4484ZM73.6559 20.3844C76.3119 20.3844 78.2799 21.0884 79.5599 22.4964C80.8719 23.9044 81.5279 25.9684 81.5279 28.6884V33.0564C81.5279 35.7764 80.8719 37.8404 79.5599 39.2484C78.2799 40.6564 76.3119 41.3604 73.6559 41.3604H71.1599V53.9844H65.8799V20.3844H73.6559ZM71.1599 25.1844V36.5604H73.6559C74.4879 36.5604 75.1279 36.3364 75.5759 35.8884C76.0239 35.4404 76.2479 34.6084 76.2479 33.3924V28.3524C76.2479 27.1364 76.0239 26.3044 75.5759 25.8564C75.1279 25.4084 74.4879 25.1844 73.6559 25.1844H71.1599ZM94.1988 44.2404L97.7988 20.3844H105.143V53.9844H100.151V29.8884L96.5028 53.9844H91.5108L87.5748 30.2244V53.9844H82.9668V20.3844H90.3108L94.1988 44.2404ZM125.062 53.9844H119.734L118.822 47.8884H112.342L111.43 53.9844H106.582L111.958 20.3844H119.686L125.062 53.9844ZM113.014 43.3284H118.102L115.558 26.3364L113.014 43.3284ZM125.076 20.3844H141.396V25.1844H135.876V53.9844H130.596V25.1844H125.076V20.3844ZM150.628 49.1844C151.46 49.1844 152.1 48.9604 152.548 48.5124C152.996 48.0644 153.22 47.2324 153.22 46.0164V40.9764C153.22 39.7604 152.996 38.9284 152.548 38.4804C152.1 38.0324 151.46 37.8084 150.628 37.8084H148.132V49.1844H150.628ZM142.852 53.9844V20.3844H148.132V33.0084H150.628C153.284 33.0084 155.252 33.7124 156.532 35.1204C157.844 36.5284 158.5 38.5924 158.5 41.3124V45.6804C158.5 48.4004 157.844 50.4644 156.532 51.8724C155.252 53.2804 153.284 53.9844 150.628 53.9844L142.852 53.9844ZM161.092 20.3844H166.372V53.9844H161.092V20.3844ZM183.537 20.3844C186.193 20.3844 188.161 21.0884 189.441 22.4964C190.753 23.9044 191.409 25.9684 191.409 28.6884V33.0564C191.409 35.7764 190.753 37.8404 189.441 39.2484C188.161 40.6564 186.193 41.3604 183.537 41.3604H181.041V53.9844H175.761V20.3844H183.537ZM181.041 25.1844V36.5604H183.537C184.369 36.5604 185.009 36.3364 185.457 35.8884C185.905 35.4404 186.129 34.6084 186.129 33.3924V28.3524C186.129 27.1364 185.905 26.3044 185.457 25.8564C185.009 25.4084 184.369 25.1844 183.537 25.1844H181.041ZM209.887 53.9844H204.559L203.647 47.8884H197.167L196.255 53.9844H191.407L196.783 20.3844L204.511 20.3844L209.887 53.9844ZM197.839 43.3284H202.927L200.383 26.3364L197.839 43.3284ZM221.325 28.6404C221.325 27.1364 221.069 26.1284 220.557 25.6164C220.077 25.0724 219.421 24.8004 218.589 24.8004C217.757 24.8004 217.085 25.0564 216.573 25.5684C216.093 26.0484 215.853 26.8964 215.853 28.1124V31.7124H210.861V28.4484C210.861 25.7284 211.517 23.6484 212.829 22.2084C214.173 20.7364 216.141 20.0004 218.733 20.0004C221.325 20.0004 223.277 20.7364 224.589 22.2084C225.933 23.6484 226.605 25.7284 226.605 28.4484V29.3124C226.605 32.8964 225.373 35.2004 222.909 36.2244C224.253 36.8004 225.197 37.6964 225.741 38.9124C226.317 40.0964 226.605 41.5524 226.605 43.2804V45.9204C226.605 48.6404 225.933 50.7364 224.589 52.2084C223.277 53.6484 221.325 54.3684 218.733 54.3684C216.141 54.3684 214.173 53.6484 212.829 52.2084C211.517 50.7364 210.861 48.6404 210.861 45.9204V41.6964L215.853 41.6964V46.2564C215.853 47.4724 216.093 48.3364 216.573 48.8484C217.085 49.3284 217.757 49.5684 218.589 49.5684C219.421 49.5684 220.077 49.3124 220.557 48.8004C221.069 48.2884 221.325 47.2804 221.325 45.7764V43.1364C221.325 41.5684 221.053 40.4644 220.509 39.8244C219.965 39.1844 219.085 38.8644 217.869 38.8644H217.053V34.0644H218.157C219.149 34.0644 219.917 33.8084 220.461 33.2964C221.037 32.7844 221.325 31.8564 221.325 30.5124V28.6404ZM234.27 53.9844H228.99V20.3844H234.27V34.7844H240.27V20.3844H245.646V53.9844H240.27V39.5844H234.27V53.9844ZM256.29 49.1844C257.122 49.1844 257.762 48.9604 258.21 48.5124C258.658 48.0644 258.882 47.2324 258.882 46.0164V40.9764C258.882 39.7604 258.658 38.9284 258.21 38.4804C257.762 38.0324 257.122 37.8084 256.29 37.8084H253.794V49.1844H256.29ZM248.514 53.9844V20.3844H253.794V33.0084H256.29C258.946 33.0084 260.914 33.7124 262.194 35.1204C263.506 36.5284 264.162 38.5924 264.162 41.3124V45.6804C264.162 48.4004 263.506 50.4644 262.194 51.8724C260.914 53.2804 258.946 53.9844 256.29 53.9844H248.514ZM266.754 20.3844H272.034V53.9844H266.754V20.3844ZM280.209 34.5444H287.457V39.3444H280.209V49.1844H289.329V53.9844H274.929V20.3844H289.329V25.1844H280.209V34.5444ZM291.501 53.9844V48.8964H296.589V53.4564L294.285 58.7844H292.125L293.517 53.9844H291.501ZM38.4805 101.984H33.1525L32.2405 95.8884H25.7605L24.8485 101.984H20.0005L25.3765 68.3844H33.1045L38.4805 101.984ZM26.4325 91.3284H31.5205L28.9765 74.3364L26.4325 91.3284ZM44.9868 68.3844H61.3068V73.1844H55.7868V101.984H50.5068V73.1844H44.9868V68.3844ZM70.5396 97.1844C71.3716 97.1844 72.0116 96.9604 72.4596 96.5124C72.9076 96.0644 73.1316 95.2324 73.1316 94.0164V88.9764C73.1316 87.7604 72.9076 86.9284 72.4596 86.4804C72.0116 86.0324 71.3716 85.8084 70.5396 85.8084H68.0436V97.1844H70.5396ZM62.7636 101.984V68.3844H68.0436V81.0084H70.5396C73.1956 81.0084 75.1636 81.7124 76.4436 83.1204C77.7556 84.5284 78.4116 86.5924 78.4116 89.3124V93.6804C78.4116 96.4004 77.7556 98.4644 76.4436 99.8724C75.1636 101.28 73.1956 101.984 70.5396 101.984H62.7636ZM81.0036 68.3844H86.2836V101.984H81.0036V68.3844ZM94.2318 68.3844H110.552V73.1844H105.032V101.984H99.7518V73.1844H94.2318V68.3844ZM129.049 101.984H123.721L122.809 95.8884H116.329L115.417 101.984H110.569L115.945 68.3844H123.673L129.049 101.984ZM117.001 91.3284H122.089L119.545 74.3364L117.001 91.3284ZM137.414 88.5924L135.782 91.6644V101.984H130.502V68.3844H135.782V83.0244L142.79 68.3844H147.974L140.63 83.3604L147.974 101.984H142.55L137.414 88.5924ZM154.217 94.2564C154.217 95.4724 154.457 96.3364 154.937 96.8484C155.449 97.3284 156.121 97.5684 156.953 97.5684C157.785 97.5684 158.441 97.3284 158.921 96.8484C159.433 96.3364 159.689 95.4724 159.689 94.2564V76.1124C159.689 74.8964 159.433 74.0484 158.921 73.5684C158.441 73.0564 157.785 72.8004 156.953 72.8004C156.121 72.8004 155.449 73.0564 154.937 73.5684C154.457 74.0484 154.217 74.8964 154.217 76.1124V94.2564ZM148.937 76.4484C148.937 73.7284 149.625 71.6484 151.001 70.2084C152.377 68.7364 154.361 68.0004 156.953 68.0004C159.545 68.0004 161.529 68.7364 162.905 70.2084C164.281 71.6484 164.969 73.7284 164.969 76.4484V93.9204C164.969 96.6404 164.281 98.7364 162.905 100.208C161.529 101.648 159.545 102.368 156.953 102.368C154.361 102.368 152.377 101.648 151.001 100.208C149.625 98.7364 148.937 96.6404 148.937 93.9204V76.4484ZM172.771 101.984H167.347V68.3844H172.051V88.4964L177.475 68.3844H184.099V101.984H179.347V77.6484L172.771 101.984ZM181.603 62.5764V66.5124H169.987V62.5764H181.603ZM198.259 94.2564C198.259 95.4724 198.499 96.3364 198.979 96.8484C199.491 97.3284 200.163 97.5684 200.995 97.5684C201.827 97.5684 202.483 97.3284 202.963 96.8484C203.475 96.3364 203.731 95.4724 203.731 94.2564V76.1124C203.731 74.8964 203.475 74.0484 202.963 73.5684C202.483 73.0564 201.827 72.8004 200.995 72.8004C200.163 72.8004 199.491 73.0564 198.979 73.5684C198.499 74.0484 198.259 74.8964 198.259 76.1124V94.2564ZM192.979 76.4484C192.979 73.7284 193.667 71.6484 195.043 70.2084C196.419 68.7364 198.403 68.0004 200.995 68.0004C203.587 68.0004 205.571 68.7364 206.947 70.2084C208.323 71.6484 209.011 73.7284 209.011 76.4484V93.9204C209.011 96.6404 208.323 98.7364 206.947 100.208C205.571 101.648 203.587 102.368 200.995 102.368C198.403 102.368 196.419 101.648 195.043 100.208C193.667 98.7364 192.979 96.6404 192.979 93.9204V76.4484ZM209.469 97.1844C209.757 97.2164 210.061 97.2324 210.381 97.2324C210.701 97.2324 211.005 97.2324 211.293 97.2324C212.125 97.2324 212.829 97.0244 213.405 96.6084C214.013 96.1924 214.317 95.3284 214.317 94.0164V68.3844H231.021V97.1844H233.709V105.824H228.333V101.984H214.845V105.824H209.469V97.1844ZM219.597 93.6324C219.597 95.0404 219.453 96.2244 219.165 97.1844H225.741V73.1844H219.597V93.6324ZM240.322 101.984H234.898V68.3844H239.602V88.4964L245.026 68.3844H251.65V101.984H246.898V77.6484L240.322 101.984ZM259.796 101.984H254.516V68.3844H259.796V82.7844H265.796V68.3844H271.172V101.984H265.796V87.5844H259.796V101.984Z" fill="#1C1456"/>
<defs>
<filter id="filter0_ii_2133_23804" x="8" y="8" width="300.589" height="109.824" filterUnits="userSpaceOnUse" color-interpolation-filters="sRGB">
<feFlood flood-opacity="0" result="BackgroundImageFix"/>
<feBlend mode="normal" in="SourceGraphic" in2="BackgroundImageFix" result="shape"/>
<feColorMatrix in="SourceAlpha" type="matrix" values="0 0 0 0 0 0 0 0 0 0 0 0 0 0 0 0 0 0 127 0" result="hardAlpha"/>
<feOffset dx="4" dy="4"/>
<feGaussianBlur stdDeviation="2"/>
<feComposite in2="hardAlpha" operator="arithmetic" k2="-1" k3="1"/>
<feColorMatrix type="matrix" values="0 0 0 0 0.926316 0 0 0 0 0.9 0 0 0 0 1 0 0 0 1 0"/>
<feBlend mode="normal" in2="shape" result="effect1_innerShadow_2133_23804"/>
<feColorMatrix in="SourceAlpha" type="matrix" values="0 0 0 0 0 0 0 0 0 0 0 0 0 0 0 0 0 0 127 0" result="hardAlpha"/>
<feOffset dx="-4" dy="-4"/>
<feGaussianBlur stdDeviation="2"/>
<feComposite in2="hardAlpha" operator="arithmetic" k2="-1" k3="1"/>
<feColorMatrix type="matrix" values="0 0 0 0 0.631579 0 0 0 0 0.5 0 0 0 0 1 0 0 0 1 0"/>
<feBlend mode="normal" in2="effect1_innerShadow_2133_23804" result="effect2_innerShadow_2133_23804"/>
</filter>
</defs>
</svg>
