<svg width="308" height="129" viewBox="0 0 308 129" fill="none" xmlns="http://www.w3.org/2000/svg">
<path d="M195.311 18.9829C197.563 18.983 199.882 19.3479 202.061 20.2466C203.154 19.686 204.392 19.3677 205.705 19.3677H213.48C216.125 19.3677 218.999 19.843 221.604 21.2261C223 20.0606 224.793 19.3678 226.728 19.3677H234.456L234.822 19.3755C235.903 19.4245 236.933 19.6909 237.868 20.1323C238.904 19.6422 240.063 19.3677 241.285 19.3677H255.685C256.053 19.3677 256.415 19.3947 256.771 19.4429C257.125 19.3947 257.488 19.3677 257.856 19.3677H265.2L265.565 19.3755C266.776 19.4302 267.924 19.7571 268.944 20.2983C270.067 19.7032 271.343 19.3677 272.688 19.3677H280.032C284.45 19.3678 288.032 22.9495 288.032 27.3677V47.8794C292.436 47.897 296 51.472 296 55.8794V60.9673C296 65.3854 292.418 68.9671 288 68.9673H282.912C282.42 68.9673 281.939 68.9204 281.472 68.8354C281.005 68.9203 280.524 68.9673 280.032 68.9673H275.04C274.413 68.9673 273.803 68.892 273.217 68.7554C272.629 68.8928 272.018 68.9673 271.392 68.9673H266.4C265.725 68.9673 265.066 68.8807 264.436 68.7212C263.805 68.881 263.144 68.9673 262.464 68.9673H257.856C257.488 68.9673 257.125 68.9403 256.771 68.8921C256.415 68.9403 256.053 68.9673 255.685 68.9673H241.285C241.037 68.9673 240.79 68.9543 240.548 68.9321C240.311 68.9534 240.072 68.9673 239.832 68.9673H234.504C232.992 68.9672 231.568 68.5439 230.352 67.8042C229.135 68.5438 227.711 68.9673 226.199 68.9673H221.352C219.438 68.9672 217.602 68.2819 216.166 67.0591C214.77 68.2476 212.962 68.9673 210.984 68.9673H205.705C204.398 68.9672 203.165 68.6517 202.076 68.0962C199.887 68.9931 197.559 69.351 195.311 69.3511C191.517 69.351 187.498 68.3369 184.298 65.4233C182.862 67.5602 180.423 68.9673 177.654 68.9673H172.375C171.881 68.9673 171.396 68.9204 170.927 68.8345C170.457 68.9202 169.974 68.9673 169.479 68.9673H164.2C163.847 68.9673 163.499 68.9423 163.158 68.8979C165.156 70.3525 166.455 72.7077 166.455 75.3677V108.967C166.455 113.386 162.873 116.967 158.455 116.967H153.463C152.836 116.967 152.225 116.892 151.64 116.755C151.052 116.893 150.441 116.967 149.815 116.967H144.823C144.148 116.967 143.49 116.881 142.859 116.721C142.229 116.881 141.567 116.967 140.887 116.967H136.279C135.911 116.967 135.548 116.94 135.193 116.892C134.838 116.94 134.476 116.967 134.107 116.967H119.708C119.46 116.967 119.213 116.954 118.971 116.932C118.734 116.953 118.495 116.967 118.255 116.967H112.927C111.415 116.967 109.991 116.543 108.774 115.803C107.558 116.543 106.134 116.967 104.623 116.967H99.7744C98.8206 116.967 97.8868 116.794 97.0117 116.472C96.1476 116.792 95.2134 116.967 94.2383 116.967H88.958C86.1298 116.967 83.6462 115.498 82.2236 113.283C80.8011 115.498 78.3182 116.967 75.4902 116.967H70.21C68.7376 116.967 67.3588 116.567 66.1738 115.874C64.0512 116.673 61.8275 116.967 59.7461 116.967H51.9697C51.4779 116.967 50.9966 116.92 50.5293 116.835C50.0624 116.92 49.5812 116.967 49.0898 116.967H44.0977C43.4707 116.967 42.8608 116.893 42.2754 116.756C41.6877 116.894 41.0763 116.967 40.4502 116.967H35.458C34.7826 116.967 34.1244 116.881 33.4941 116.721C32.8635 116.881 32.2029 116.967 31.5225 116.967H26.9141C22.496 116.967 18.9141 113.385 18.9141 108.967V75.3677C18.9141 72.2005 20.755 69.4628 23.4248 68.1665C20.7553 66.8701 18.9141 64.1342 18.9141 60.9673V27.3677C18.9141 22.9495 22.496 19.3679 26.9141 19.3677H34.2578C35.6029 19.3677 36.88 19.7027 38.0029 20.2983C39.1251 19.7033 40.401 19.3677 41.7461 19.3677H49.0898C49.5812 19.3677 50.0624 19.4147 50.5293 19.4995C50.9966 19.4145 51.4779 19.3677 51.9697 19.3677H57.25C59.916 19.3678 62.2758 20.673 63.7295 22.6782C65.1831 20.6728 67.5438 19.3678 70.21 19.3677H75.4902C77.2441 19.3678 78.8651 19.9339 80.1836 20.8911C81.5022 19.9337 83.1237 19.3678 84.8779 19.3677H90.1582C91.219 19.3677 92.2309 19.5767 93.1572 19.9517C94.084 19.5763 95.0968 19.3677 96.1582 19.3677H101.534C102.024 19.3677 102.503 19.4143 102.968 19.4985C103.433 19.4142 103.913 19.3677 104.402 19.3677H118.803C120.399 19.3678 121.885 19.8381 123.134 20.644C124.383 19.8376 125.87 19.3677 127.467 19.3677H135.435C137.474 19.3677 139.772 19.6184 141.99 20.4224C143.16 19.7522 144.515 19.3677 145.96 19.3677H151.24C153.906 19.3678 156.266 20.673 157.72 22.6782C159.173 20.6729 161.534 19.3678 164.2 19.3677H169.479C169.974 19.3677 170.457 19.4147 170.927 19.5005C171.396 19.4146 171.881 19.3677 172.375 19.3677H186.343C187.402 19.3677 188.412 19.576 189.337 19.9497C191.285 19.2667 193.324 18.9829 195.311 18.9829ZM44.0977 84.8774V108.967L44.0986 84.8716L44.0977 84.8774ZM99.7744 108.967H99.7754L105.151 75.3677H105.15L99.7744 108.967ZM140.888 85.2134L144.823 108.967L140.888 85.2075V85.2134ZM153.463 84.8774V108.967L153.464 84.8716L153.463 84.8774ZM83.4375 80.1675H83.4385V75.3677H83.4375V80.1675ZM66.1738 67.8735C64.7689 68.4026 63.3195 68.7095 61.8965 68.8569C62.6013 69.3609 63.221 69.9759 63.7295 70.6772C64.5007 69.6135 65.5266 68.7456 66.7188 68.1665C66.5328 68.0762 66.3514 67.9775 66.1738 67.8735ZM80.1836 67.4438C79.8057 67.7182 79.4032 67.9607 78.9795 68.1665C79.1445 68.2466 79.3054 68.3344 79.4639 68.4253C79.875 68.1894 80.3088 67.9884 80.7617 67.8276C80.5631 67.7082 80.3705 67.5795 80.1836 67.4438ZM44.0977 36.8774V60.9673L44.0986 36.8716L44.0977 36.8774ZM262.465 37.2134L266.4 60.9673L262.465 37.2075V37.2134ZM142.999 57.147H143H142.999ZM187.294 52.9028C187.294 53.0729 187.297 53.2406 187.303 53.4058L187.295 52.9028V35.4312H187.294V52.9028ZM198.046 53.2397C198.046 53.3306 198.042 53.4194 198.039 53.5063C198.042 53.4194 198.047 53.3306 198.047 53.2397V35.0952H198.046V53.2397ZM143.452 47.3257C143.46 47.3564 143.467 47.3875 143.475 47.4185C143.467 47.3875 143.46 47.3564 143.452 47.3257ZM138.048 47.2368V47.2358C138.011 47.1616 137.971 47.0921 137.93 47.0259C137.971 47.0923 138.011 47.1623 138.048 47.2368ZM137.538 46.5571C137.592 46.606 137.643 46.6576 137.69 46.7114C137.725 46.7476 137.758 46.7856 137.79 46.8257C137.836 46.8828 137.879 46.9442 137.92 47.0093C137.85 46.8987 137.774 46.7991 137.691 46.7114C137.643 46.6575 137.592 46.606 137.538 46.5571ZM143.328 46.8862C143.283 46.7429 143.236 46.6025 143.185 46.4653C143.236 46.6025 143.283 46.7429 143.328 46.8862ZM214.815 43.2808H214.816C214.883 43.2493 214.946 43.2134 215.008 43.1763C214.946 43.2135 214.882 43.2492 214.815 43.2808ZM215.055 43.146C215.106 43.1131 215.156 43.0785 215.204 43.0415C215.156 43.0786 215.106 43.1131 215.055 43.146ZM215.4 42.8716C215.348 42.9242 215.291 42.9726 215.233 43.019C215.292 42.9725 215.349 42.9244 215.401 42.8716C215.429 42.8436 215.456 42.8137 215.482 42.7827C215.456 42.8138 215.428 42.8435 215.4 42.8716ZM136.584 40.6597C136.607 40.6473 136.629 40.6336 136.651 40.6206C136.629 40.6336 136.607 40.6473 136.584 40.6597ZM136.755 40.5581C136.778 40.5432 136.801 40.5278 136.823 40.5122C136.801 40.5278 136.778 40.5432 136.755 40.5581ZM136.913 40.4468C136.939 40.4271 136.964 40.4068 136.989 40.3862C136.964 40.4068 136.939 40.4271 136.913 40.4468ZM137.269 40.1235C137.22 40.1789 137.168 40.2308 137.114 40.2788C137.102 40.29 137.089 40.3001 137.077 40.311C137.089 40.2999 137.103 40.2902 137.115 40.2788C137.169 40.2309 137.22 40.1788 137.269 40.1235ZM137.969 35.1831C137.976 35.3247 137.979 35.4715 137.979 35.6235V37.4956C137.979 37.6636 137.975 37.825 137.966 37.98L137.979 37.4956V35.6235C137.979 35.4715 137.976 35.3247 137.969 35.1831ZM215.129 32.6108C215.226 32.679 215.316 32.7555 215.4 32.8394C215.428 32.8675 215.456 32.8971 215.482 32.9282L215.401 32.8394C215.317 32.7553 215.227 32.679 215.129 32.6108ZM214.104 32.2153L214.069 32.2095C214.052 32.2069 214.035 32.206 214.018 32.2036C214.046 32.2076 214.075 32.2107 214.104 32.2153ZM213.82 32.1821C213.8 32.1805 213.78 32.1786 213.76 32.1772C213.78 32.1786 213.8 32.1805 213.82 32.1821ZM140.895 28.8374H140.896H140.895ZM199.484 27.8608C199.457 27.8467 199.429 27.8327 199.4 27.8188C199.429 27.8326 199.456 27.8467 199.484 27.8608ZM199.177 27.7144C199.154 27.704 199.131 27.6923 199.107 27.6821C199.093 27.6758 199.078 27.6698 199.063 27.6636C199.102 27.6798 199.139 27.6975 199.177 27.7144ZM194.007 27.0513C193.96 27.0564 193.913 27.0612 193.866 27.0669C193.913 27.0612 193.96 27.0563 194.007 27.0513ZM194.367 27.0171C194.336 27.0194 194.306 27.0224 194.275 27.0249C194.324 27.0209 194.373 27.0166 194.422 27.0132L194.367 27.0171ZM143.659 48.3687C143.635 48.204 143.607 48.0427 143.576 47.8843C143.607 48.0427 143.635 48.2039 143.659 48.3687ZM143.567 47.8354C143.564 47.8208 143.563 47.8061 143.56 47.7915C143.534 47.665 143.505 47.5409 143.475 47.4185C143.508 47.555 143.539 47.6938 143.567 47.8354ZM143.356 46.9761C143.351 46.9584 143.345 46.9409 143.34 46.9233C143.38 47.0548 143.417 47.189 143.452 47.3257C143.422 47.2073 143.391 47.0906 143.356 46.9761Z" fill="#1C1456"/>
<g filter="url(#filter0_ii_604_4124)">
<path d="M189.311 12.9829C191.563 12.983 193.882 13.3479 196.061 14.2466C197.154 13.686 198.392 13.3677 199.705 13.3677H207.48C210.125 13.3677 212.999 13.843 215.604 15.2261C217 14.0606 218.793 13.3678 220.728 13.3677H228.456L228.822 13.3755C229.903 13.4245 230.933 13.6909 231.868 14.1323C232.904 13.6422 234.063 13.3677 235.285 13.3677H249.685C250.053 13.3677 250.415 13.3947 250.771 13.4429C251.125 13.3947 251.488 13.3677 251.856 13.3677H259.2L259.565 13.3755C260.776 13.4302 261.924 13.7571 262.944 14.2983C264.067 13.7032 265.343 13.3677 266.688 13.3677H274.032C278.45 13.3678 282.032 16.9495 282.032 21.3677V41.8794C286.436 41.897 290 45.472 290 49.8794V54.9673C290 59.3854 286.418 62.9671 282 62.9673H276.912C276.42 62.9673 275.939 62.9204 275.472 62.8354C275.005 62.9203 274.524 62.9673 274.032 62.9673H269.04C268.413 62.9673 267.803 62.892 267.217 62.7554C266.629 62.8928 266.018 62.9673 265.392 62.9673H260.4C259.725 62.9673 259.066 62.8807 258.436 62.7212C257.805 62.881 257.144 62.9673 256.464 62.9673H251.856C251.488 62.9673 251.125 62.9403 250.771 62.8921C250.415 62.9403 250.053 62.9673 249.685 62.9673H235.285C235.037 62.9673 234.79 62.9543 234.548 62.9321C234.311 62.9534 234.072 62.9673 233.832 62.9673H228.504C226.992 62.9672 225.568 62.5439 224.352 61.8042C223.135 62.5438 221.711 62.9673 220.199 62.9673H215.352C213.438 62.9672 211.602 62.2819 210.166 61.0591C208.77 62.2476 206.962 62.9673 204.984 62.9673H199.705C198.398 62.9672 197.165 62.6517 196.076 62.0962C193.887 62.9931 191.559 63.351 189.311 63.3511C185.517 63.351 181.498 62.3369 178.298 59.4233C176.862 61.5602 174.423 62.9673 171.654 62.9673H166.375C165.881 62.9673 165.396 62.9204 164.927 62.8345C164.457 62.9202 163.974 62.9673 163.479 62.9673H158.2C157.847 62.9673 157.499 62.9423 157.158 62.8979C159.156 64.3525 160.455 66.7077 160.455 69.3677V102.967C160.455 107.386 156.873 110.967 152.455 110.967H147.463C146.836 110.967 146.225 110.892 145.64 110.755C145.052 110.893 144.441 110.967 143.815 110.967H138.823C138.148 110.967 137.49 110.881 136.859 110.721C136.229 110.881 135.567 110.967 134.887 110.967H130.279C129.911 110.967 129.548 110.94 129.193 110.892C128.838 110.94 128.476 110.967 128.107 110.967H113.708C113.46 110.967 113.213 110.954 112.971 110.932C112.734 110.953 112.495 110.967 112.255 110.967H106.927C105.415 110.967 103.991 110.543 102.774 109.803C101.558 110.543 100.134 110.967 98.623 110.967H93.7744C92.8206 110.967 91.8868 110.794 91.0117 110.472C90.1476 110.792 89.2134 110.967 88.2383 110.967H82.958C80.1298 110.967 77.6462 109.498 76.2236 107.283C74.8011 109.498 72.3182 110.967 69.4902 110.967H64.21C62.7376 110.967 61.3588 110.567 60.1738 109.874C58.0512 110.673 55.8275 110.967 53.7461 110.967H45.9697C45.4779 110.967 44.9966 110.92 44.5293 110.835C44.0624 110.92 43.5812 110.967 43.0898 110.967H38.0977C37.4707 110.967 36.8608 110.893 36.2754 110.756C35.6877 110.894 35.0763 110.967 34.4502 110.967H29.458C28.7826 110.967 28.1244 110.881 27.4941 110.721C26.8635 110.881 26.2029 110.967 25.5225 110.967H20.9141C16.496 110.967 12.9141 107.385 12.9141 102.967V69.3677C12.9141 66.2005 14.755 63.4628 17.4248 62.1665C14.7553 60.8701 12.9141 58.1342 12.9141 54.9673V21.3677C12.9141 16.9495 16.496 13.3679 20.9141 13.3677H28.2578C29.6029 13.3677 30.88 13.7027 32.0029 14.2983C33.1251 13.7033 34.401 13.3677 35.7461 13.3677H43.0898C43.5812 13.3677 44.0624 13.4147 44.5293 13.4995C44.9966 13.4145 45.4779 13.3677 45.9697 13.3677H51.25C53.916 13.3678 56.2758 14.673 57.7295 16.6782C59.1831 14.6728 61.5438 13.3678 64.21 13.3677H69.4902C71.2441 13.3678 72.8651 13.9339 74.1836 14.8911C75.5022 13.9337 77.1237 13.3678 78.8779 13.3677H84.1582C85.219 13.3677 86.2309 13.5767 87.1572 13.9517C88.084 13.5763 89.0968 13.3677 90.1582 13.3677H95.5342C96.0236 13.3677 96.5026 13.4143 96.9678 13.4985C97.4332 13.4142 97.9126 13.3677 98.4023 13.3677H112.803C114.399 13.3678 115.885 13.8381 117.134 14.644C118.383 13.8376 119.87 13.3677 121.467 13.3677H129.435C131.474 13.3677 133.772 13.6184 135.99 14.4224C137.16 13.7522 138.515 13.3677 139.96 13.3677H145.24C147.906 13.3678 150.266 14.673 151.72 16.6782C153.173 14.6729 155.534 13.3678 158.2 13.3677H163.479C163.974 13.3677 164.457 13.4147 164.927 13.5005C165.396 13.4146 165.881 13.3677 166.375 13.3677H180.343C181.402 13.3677 182.412 13.576 183.337 13.9497C185.285 13.2667 187.324 12.9829 189.311 12.9829ZM38.0977 78.8774V102.967L38.0986 78.8716L38.0977 78.8774ZM93.7744 102.967H93.7754L99.1514 69.3677H99.1504L93.7744 102.967ZM134.888 79.2134L138.823 102.967L134.888 79.2075V79.2134ZM147.463 78.8774V102.967L147.464 78.8716L147.463 78.8774ZM77.4375 74.1675H77.4385V69.3677H77.4375V74.1675ZM60.1738 61.8735C58.7689 62.4026 57.3195 62.7095 55.8965 62.8569C56.6013 63.3609 57.221 63.9759 57.7295 64.6772C58.5007 63.6135 59.5266 62.7456 60.7188 62.1665C60.5328 62.0762 60.3514 61.9775 60.1738 61.8735ZM74.1836 61.4438C73.8057 61.7182 73.4032 61.9607 72.9795 62.1665C73.1445 62.2466 73.3054 62.3344 73.4639 62.4253C73.875 62.1894 74.3088 61.9884 74.7617 61.8276C74.5631 61.7082 74.3705 61.5795 74.1836 61.4438ZM38.0977 30.8774V54.9673L38.0986 30.8716L38.0977 30.8774ZM256.465 31.2134L260.4 54.9673L256.465 31.2075V31.2134ZM136.999 51.147H137H136.999ZM181.294 46.9028C181.294 47.0729 181.297 47.2406 181.303 47.4058L181.295 46.9028V29.4312H181.294V46.9028ZM192.046 47.2397C192.046 47.3306 192.042 47.4194 192.039 47.5063C192.042 47.4194 192.047 47.3306 192.047 47.2397V29.0952H192.046V47.2397ZM137.452 41.3257C137.46 41.3564 137.467 41.3875 137.475 41.4185C137.467 41.3875 137.46 41.3564 137.452 41.3257ZM132.048 41.2368V41.2358C132.011 41.1616 131.971 41.0921 131.93 41.0259C131.971 41.0923 132.011 41.1623 132.048 41.2368ZM131.538 40.5571C131.592 40.606 131.643 40.6576 131.69 40.7114C131.725 40.7476 131.758 40.7856 131.79 40.8257C131.836 40.8828 131.879 40.9442 131.92 41.0093C131.85 40.8987 131.774 40.7991 131.691 40.7114C131.643 40.6575 131.592 40.606 131.538 40.5571ZM137.328 40.8862C137.283 40.7429 137.236 40.6025 137.185 40.4653C137.236 40.6025 137.283 40.7429 137.328 40.8862ZM208.815 37.2808H208.816C208.883 37.2493 208.946 37.2134 209.008 37.1763C208.946 37.2135 208.882 37.2492 208.815 37.2808ZM209.055 37.146C209.106 37.1131 209.156 37.0785 209.204 37.0415C209.156 37.0786 209.106 37.1131 209.055 37.146ZM209.4 36.8716C209.348 36.9242 209.291 36.9726 209.233 37.019C209.292 36.9725 209.349 36.9244 209.401 36.8716C209.429 36.8436 209.456 36.8137 209.482 36.7827C209.456 36.8138 209.428 36.8435 209.4 36.8716ZM130.584 34.6597C130.607 34.6473 130.629 34.6336 130.651 34.6206C130.629 34.6336 130.607 34.6473 130.584 34.6597ZM130.755 34.5581C130.778 34.5432 130.801 34.5278 130.823 34.5122C130.801 34.5278 130.778 34.5432 130.755 34.5581ZM130.913 34.4468C130.939 34.4271 130.964 34.4068 130.989 34.3862C130.964 34.4068 130.939 34.4271 130.913 34.4468ZM131.269 34.1235C131.22 34.1789 131.168 34.2308 131.114 34.2788C131.102 34.29 131.089 34.3001 131.077 34.311C131.089 34.2999 131.103 34.2902 131.115 34.2788C131.169 34.2309 131.22 34.1788 131.269 34.1235ZM131.969 29.1831C131.976 29.3247 131.979 29.4715 131.979 29.6235V31.4956C131.979 31.6636 131.975 31.825 131.966 31.98L131.979 31.4956V29.6235C131.979 29.4715 131.976 29.3247 131.969 29.1831ZM209.129 26.6108C209.226 26.679 209.316 26.7555 209.4 26.8394C209.428 26.8675 209.456 26.8971 209.482 26.9282L209.401 26.8394C209.317 26.7553 209.227 26.679 209.129 26.6108ZM208.104 26.2153L208.069 26.2095C208.052 26.2069 208.035 26.206 208.018 26.2036C208.046 26.2076 208.075 26.2107 208.104 26.2153ZM207.82 26.1821C207.8 26.1805 207.78 26.1786 207.76 26.1772C207.78 26.1786 207.8 26.1805 207.82 26.1821ZM134.895 22.8374H134.896H134.895ZM193.484 21.8608C193.457 21.8467 193.429 21.8327 193.4 21.8188C193.429 21.8326 193.456 21.8467 193.484 21.8608ZM193.177 21.7144C193.154 21.704 193.131 21.6923 193.107 21.6821C193.093 21.6758 193.078 21.6698 193.063 21.6636C193.102 21.6798 193.139 21.6975 193.177 21.7144ZM188.007 21.0513C187.96 21.0564 187.913 21.0612 187.866 21.0669C187.913 21.0612 187.96 21.0563 188.007 21.0513ZM188.367 21.0171C188.336 21.0194 188.306 21.0224 188.275 21.0249C188.324 21.0209 188.373 21.0166 188.422 21.0132L188.367 21.0171ZM137.659 42.3687C137.635 42.204 137.607 42.0427 137.576 41.8843C137.607 42.0427 137.635 42.2039 137.659 42.3687ZM137.567 41.8354C137.564 41.8208 137.563 41.8061 137.56 41.7915C137.534 41.665 137.505 41.5409 137.475 41.4185C137.508 41.555 137.539 41.6938 137.567 41.8354ZM137.356 40.9761C137.351 40.9584 137.345 40.9409 137.34 40.9233C137.38 41.0548 137.417 41.189 137.452 41.3257C137.422 41.2073 137.391 41.0906 137.356 40.9761Z" fill="#C7B3FF"/>
</g>
<path d="M32.1466 45.2233L35.7466 21.3673H43.0906V54.9673H38.0986V30.8713L34.4506 54.9673H29.4586L25.5226 31.2073V54.9673H20.9146V21.3673H28.2586L32.1466 45.2233ZM53.7463 50.1673C54.5783 50.1673 55.2183 49.9433 55.6663 49.4953C56.1143 49.0473 56.3383 48.2153 56.3383 46.9993V41.9593C56.3383 40.7433 56.1143 39.9113 55.6663 39.4633C55.2183 39.0153 54.5783 38.7913 53.7463 38.7913H51.2503V50.1673H53.7463ZM45.9703 54.9673V21.3673H51.2503V33.9913H53.7463C56.4023 33.9913 58.3703 34.6953 59.6503 36.1033C60.9623 37.5113 61.6183 39.5753 61.6183 42.2953V46.6633C61.6183 49.3833 60.9623 51.4473 59.6503 52.8553C58.3703 54.2633 56.4023 54.9673 53.7463 54.9673H45.9703ZM64.2103 21.3673H69.4903V54.9673H64.2103V21.3673ZM84.1584 54.9673H78.8784V21.3673H84.1584V35.7673H90.1584V21.3673H95.5344V54.9673H90.1584V40.5673H84.1584V54.9673ZM103.683 35.5273H110.931V40.3273H103.683V50.1673H112.803V54.9673H98.4028V21.3673H112.803V26.1673H103.683V35.5273ZM129.435 21.3673C132.187 21.3673 134.171 22.0073 135.387 23.2873C136.635 24.5673 137.259 26.5033 137.259 29.0953V30.2953C137.259 32.0233 136.987 33.4473 136.443 34.5673C135.899 35.6873 135.035 36.5193 133.851 37.0633C135.291 37.6073 136.299 38.5033 136.875 39.7513C137.483 40.9673 137.787 42.4713 137.787 44.2633V46.9993C137.787 49.5913 137.115 51.5753 135.771 52.9513C134.427 54.2953 132.427 54.9673 129.771 54.9673H121.467V21.3673H129.435ZM126.747 39.8473V50.1673H129.771C130.667 50.1673 131.339 49.9273 131.787 49.4473C132.267 48.9673 132.507 48.1033 132.507 46.8553V43.9273C132.507 42.3593 132.235 41.2873 131.691 40.7113C131.179 40.1353 130.315 39.8473 129.099 39.8473H126.747ZM126.747 26.1673V35.0473H128.811C129.803 35.0473 130.571 34.7913 131.115 34.2793C131.691 33.7673 131.979 32.8393 131.979 31.4953V29.6233C131.979 28.4073 131.755 27.5273 131.307 26.9833C130.891 26.4393 130.219 26.1673 129.291 26.1673H126.747ZM147.736 50.1673C148.568 50.1673 149.208 49.9433 149.656 49.4953C150.104 49.0473 150.328 48.2153 150.328 46.9993V41.9593C150.328 40.7433 150.104 39.9113 149.656 39.4633C149.208 39.0153 148.568 38.7913 147.736 38.7913H145.24V50.1673H147.736ZM139.96 54.9673V21.3673H145.24V33.9913H147.736C150.392 33.9913 152.36 34.6953 153.64 36.1033C154.952 37.5113 155.608 39.5753 155.608 42.2953V46.6633C155.608 49.3833 154.952 51.4473 153.64 52.8553C152.36 54.2633 150.392 54.9673 147.736 54.9673H139.96ZM158.2 21.3673H163.48V54.9673H158.2V21.3673ZM171.655 54.9673H166.375V21.3673H180.343V26.1673H171.655V54.9673ZM186.575 47.2393C186.575 48.4553 186.815 49.3193 187.295 49.8313C187.807 50.3113 188.479 50.5513 189.311 50.5513C190.143 50.5513 190.799 50.3113 191.279 49.8313C191.791 49.3193 192.047 48.4553 192.047 47.2393V29.0953C192.047 27.8793 191.791 27.0313 191.279 26.5513C190.799 26.0393 190.143 25.7833 189.311 25.7833C188.479 25.7833 187.807 26.0393 187.295 26.5513C186.815 27.0313 186.575 27.8793 186.575 29.0953V47.2393ZM181.295 29.4313C181.295 26.7113 181.983 24.6313 183.359 23.1913C184.735 21.7193 186.719 20.9833 189.311 20.9833C191.903 20.9833 193.887 21.7193 195.263 23.1913C196.639 24.6313 197.327 26.7113 197.327 29.4313V46.9033C197.327 49.6233 196.639 51.7193 195.263 53.1913C193.887 54.6313 191.903 55.3513 189.311 55.3513C186.719 55.3513 184.735 54.6313 183.359 53.1913C181.983 51.7193 181.295 49.6233 181.295 46.9033V29.4313ZM207.481 21.3673C210.137 21.3673 212.105 22.0713 213.385 23.4793C214.697 24.8873 215.353 26.9513 215.353 29.6713V34.0393C215.353 36.7593 214.697 38.8233 213.385 40.2313C212.105 41.6393 210.137 42.3433 207.481 42.3433H204.985V54.9673H199.705V21.3673H207.481ZM204.985 26.1673V37.5433H207.481C208.313 37.5433 208.953 37.3193 209.401 36.8713C209.849 36.4233 210.073 35.5913 210.073 34.3753V29.3353C210.073 28.1193 209.849 27.2873 209.401 26.8393C208.953 26.3913 208.313 26.1673 207.481 26.1673H204.985ZM233.832 54.9673H228.504L227.592 48.8713H221.112L220.2 54.9673H215.352L220.728 21.3673H228.456L233.832 54.9673ZM221.784 44.3113H226.872L224.328 27.3193L221.784 44.3113ZM240.565 35.5273H247.813V40.3273H240.565V50.1673H249.685V54.9673H235.285V21.3673H249.685V26.1673H240.565V35.5273ZM263.089 45.2233L266.689 21.3673H274.033V54.9673H269.041V30.8713L265.393 54.9673H260.401L256.465 31.2073V54.9673H251.857V21.3673H259.201L263.089 45.2233ZM282 49.8793V54.9673H276.912V49.8793H282ZM32.1466 93.2233L35.7466 69.3673H43.0906V102.967H38.0986V78.8713L34.4506 102.967H29.4586L25.5226 79.2073V102.967H20.9146V69.3673H28.2586L32.1466 93.2233ZM53.7463 98.1673C54.5783 98.1673 55.2183 97.9433 55.6663 97.4953C56.1143 97.0473 56.3383 96.2153 56.3383 94.9993V89.9593C56.3383 88.7433 56.1143 87.9113 55.6663 87.4633C55.2183 87.0153 54.5783 86.7913 53.7463 86.7913H51.2503V98.1673H53.7463ZM45.9703 102.967V69.3673H51.2503V81.9913H53.7463C56.4023 81.9913 58.3703 82.6953 59.6503 84.1033C60.9623 85.5113 61.6183 87.5753 61.6183 90.2953V94.6633C61.6183 97.3833 60.9623 99.4473 59.6503 100.855C58.3703 102.263 56.4023 102.967 53.7463 102.967H45.9703ZM64.2103 69.3673H69.4903V102.967H64.2103V69.3673ZM77.4384 69.3673H93.7584V74.1673H88.2384V102.967H82.9584V74.1673H77.4384V69.3673ZM112.255 102.967H106.927L106.015 96.8713H99.5353L98.6233 102.967H93.7753L99.1513 69.3673H106.879L112.255 102.967ZM100.207 92.3113H105.295L102.751 75.3193L100.207 92.3113ZM118.988 83.5273H126.236V88.3273H118.988V98.1673H128.108V102.967H113.708V69.3673H128.108V74.1673H118.988V83.5273ZM141.512 93.2233L145.112 69.3673H152.456V102.967H147.464V78.8713L143.816 102.967H138.824L134.888 79.2073V102.967H130.28V69.3673H137.624L141.512 93.2233Z" fill="#1C1456"/>
<defs>
<filter id="filter0_ii_604_4124" x="8.91406" y="8.98291" width="285.086" height="105.984" filterUnits="userSpaceOnUse" color-interpolation-filters="sRGB">
<feFlood flood-opacity="0" result="BackgroundImageFix"/>
<feBlend mode="normal" in="SourceGraphic" in2="BackgroundImageFix" result="shape"/>
<feColorMatrix in="SourceAlpha" type="matrix" values="0 0 0 0 0 0 0 0 0 0 0 0 0 0 0 0 0 0 127 0" result="hardAlpha"/>
<feOffset dx="4" dy="4"/>
<feGaussianBlur stdDeviation="2"/>
<feComposite in2="hardAlpha" operator="arithmetic" k2="-1" k3="1"/>
<feColorMatrix type="matrix" values="0 0 0 0 0.926316 0 0 0 0 0.9 0 0 0 0 1 0 0 0 1 0"/>
<feBlend mode="normal" in2="shape" result="effect1_innerShadow_604_4124"/>
<feColorMatrix in="SourceAlpha" type="matrix" values="0 0 0 0 0 0 0 0 0 0 0 0 0 0 0 0 0 0 127 0" result="hardAlpha"/>
<feOffset dx="-4" dy="-4"/>
<feGaussianBlur stdDeviation="2"/>
<feComposite in2="hardAlpha" operator="arithmetic" k2="-1" k3="1"/>
<feColorMatrix type="matrix" values="0 0 0 0 0.631579 0 0 0 0 0.5 0 0 0 0 1 0 0 0 1 0"/>
<feBlend mode="normal" in2="effect1_innerShadow_604_4124" result="effect2_innerShadow_604_4124"/>
</filter>
</defs>
</svg>
