<svg width="339" height="129" viewBox="0 0 339 129" fill="none" xmlns="http://www.w3.org/2000/svg">
<path d="M169.899 18.0854C172.103 18.0854 174.401 18.4359 176.562 19.3237C177.643 18.7789 178.864 18.4702 180.157 18.4702H185.437C188.103 18.4702 190.463 19.7753 191.917 21.7807C193.371 19.7754 195.73 18.4703 198.396 18.4702H203.677C204.171 18.4702 204.655 18.5172 205.124 18.603C205.594 18.5171 206.078 18.4702 206.572 18.4702L214.348 18.4702C216.992 18.4702 219.866 18.9454 222.471 20.3286C223.867 19.163 225.66 18.4702 227.595 18.4702H235.323L235.689 18.478C236.617 18.5201 237.507 18.7237 238.332 19.059C239.274 18.6771 240.291 18.4702 241.336 18.4702H246.808C248.261 18.4702 249.644 18.8635 250.84 19.562C252.036 18.8634 253.419 18.4702 254.872 18.4702H259.768C262.345 18.4702 264.766 19.7116 266.269 21.8061C267.771 23.9005 268.172 26.5909 267.347 29.0327L265.963 33.1215C266.104 33.1141 266.246 33.1098 266.39 33.1098H314.39C318.808 33.1098 322.39 36.6915 322.39 41.1098V45.4301C322.389 49.8482 318.808 53.4301 314.39 53.4301H266.39C266.372 53.4301 266.354 53.4283 266.337 53.4282L267.723 57.4828C268.557 59.9263 268.161 62.6227 266.659 64.7231C266.011 65.6296 265.19 66.3753 264.26 66.9321C264.571 67.0428 264.872 67.173 265.164 67.3198C267.323 66.4377 269.619 66.0854 271.834 66.0854C274.038 66.0854 276.335 66.435 278.497 67.3227C279.578 66.7781 280.799 66.4702 282.092 66.4702H287.371C288.432 66.4702 289.445 66.678 290.371 67.0532C291.298 66.678 292.31 66.4702 293.371 66.4702H298.747C299.237 66.4702 299.716 66.5158 300.182 66.6C300.647 66.5158 301.126 66.4702 301.615 66.4702H306.319C307.272 66.4702 308.187 66.6371 309.034 66.9428C309.886 66.6361 310.8 66.4702 311.744 66.4702H318.368C322.786 66.4704 326.368 70.052 326.368 74.4702L326.368 108.07C326.368 112.488 322.786 116.07 318.368 116.07H313.615C312.443 116.07 311.33 115.815 310.327 115.362C309.317 115.818 308.202 116.07 307.04 116.07H301.615C301.126 116.07 300.647 116.023 300.182 115.939C299.716 116.023 299.237 116.07 298.747 116.07H293.371C292.31 116.07 291.298 115.861 290.371 115.486C289.444 115.861 288.432 116.07 287.371 116.07H282.092C280.805 116.07 279.589 115.763 278.512 115.223C276.338 116.109 274.034 116.454 271.834 116.454C269.622 116.454 267.319 116.107 265.148 115.226C264.073 115.764 262.861 116.07 261.576 116.07H256.824C255.652 116.07 254.539 115.815 253.535 115.362C252.525 115.818 251.41 116.07 250.248 116.07H244.824C244.586 116.07 244.35 116.057 244.117 116.037C243.879 116.058 243.639 116.07 243.397 116.07H237.974C236.788 116.07 235.646 115.806 234.614 115.329C233.592 115.803 232.454 116.07 231.253 116.07H225.926C224.725 116.07 223.586 115.803 222.563 115.329C221.532 115.806 220.391 116.07 219.205 116.07H213.781C212.645 116.07 211.542 115.827 210.533 115.378C209.525 115.827 208.421 116.07 207.285 116.07H201.861C200.666 116.07 199.517 115.803 198.479 115.318C197.45 115.799 196.303 116.07 195.093 116.07H189.813C188.216 116.07 186.729 115.6 185.48 114.793C184.232 115.6 182.745 116.07 181.148 116.07H166.749C166.26 116.07 165.781 116.023 165.315 115.939C164.85 116.023 164.372 116.07 163.883 116.07H159.131C157.958 116.07 156.845 115.815 155.842 115.362C154.832 115.818 153.717 116.07 152.555 116.07H147.131C146.641 116.07 146.162 116.023 145.696 115.939C145.231 116.023 144.752 116.07 144.263 116.07H138.887C137.825 116.07 136.813 115.861 135.886 115.486C134.959 115.861 133.948 116.07 132.887 116.07H127.606C127.358 116.07 127.112 116.057 126.869 116.035C126.632 116.056 126.393 116.07 126.153 116.07H120.825C119.313 116.07 117.89 115.646 116.673 114.906C115.456 115.645 114.033 116.07 112.521 116.07H107.673C107.435 116.07 107.198 116.056 106.963 116.035C106.723 116.056 106.479 116.07 106.233 116.07H101.241C100.614 116.07 100.004 115.995 99.4189 115.859C98.8311 115.996 98.22 116.07 97.5938 116.07H92.6016C91.926 116.07 91.2681 115.983 90.6377 115.824C90.0069 115.984 89.3465 116.07 88.666 116.07H84.0576C83.5681 116.07 83.0893 116.023 82.624 115.939C82.1591 116.023 81.6806 116.07 81.1914 116.07H76.4395C75.2667 116.07 74.1539 115.815 73.1504 115.362C72.1402 115.818 71.0252 116.07 69.8633 116.07H64.4395C63.9496 116.07 63.4704 116.023 63.0049 115.939C62.5396 116.023 62.0608 116.07 61.5713 116.07H56.1953C55.1339 116.07 54.1212 115.861 53.1943 115.486C52.2679 115.861 51.2562 116.07 50.1953 116.07H44.915C43.5021 116.07 42.1755 115.702 41.0234 115.059C38.9396 115.796 36.7705 116.07 34.7256 116.07H26.4219C22.0037 116.07 18.4219 112.488 18.4219 108.07L18.4219 74.4702C18.4219 71.3029 20.2627 68.5652 22.9326 67.269C20.263 65.9727 18.4219 63.2368 18.4219 60.0698V26.4702C18.4219 22.0519 22.0037 18.4702 26.4219 18.4702H34.3896C37.7069 18.4702 41.709 19.1317 44.9375 21.7661C46.392 19.7686 48.7482 18.4702 51.4082 18.4702H56.6885C57.7494 18.4702 58.7611 18.6791 59.6875 19.0541C60.6144 18.6787 61.627 18.4702 62.6885 18.4702H68.0645C69.2815 18.4702 70.4341 18.7437 71.4668 19.2299C72.5039 18.742 73.6581 18.4702 74.8682 18.4702H82.5967L82.9629 18.478C84.0438 18.527 85.074 18.7933 86.0088 19.2348C87.045 18.7445 88.2033 18.4702 89.4258 18.4702H94.6572C95.4059 18.4702 96.1301 18.5757 96.8174 18.768C97.5048 18.5756 98.2287 18.4702 98.9775 18.4702H104.258C104.998 18.4702 105.713 18.5731 106.394 18.7612C107.074 18.5731 107.789 18.4702 108.529 18.4702H113.857C114.348 18.4702 114.828 18.5165 115.294 18.601C115.76 18.5164 116.241 18.4702 116.731 18.4702H121.436C122.389 18.4702 123.303 18.6379 124.15 18.9438C125.002 18.6371 125.915 18.4702 126.859 18.4702H133.483C133.83 18.4702 134.171 18.4948 134.506 18.5375C134.844 18.4937 135.187 18.4702 135.533 18.4702H141.006L141.33 18.476C142.664 18.5298 143.931 18.9158 145.037 19.562C146.233 18.8633 147.616 18.4702 149.069 18.4702H153.966C156.275 18.4703 158.454 19.469 159.964 21.1821C162.949 18.9062 166.517 18.0854 169.899 18.0854ZM301.615 108.07H301.616V74.4702H301.615V108.07ZM313.615 83.7368V108.07H313.616V83.7338L313.615 83.7368ZM264.892 104.731C264.948 104.847 265.008 104.961 265.069 105.073C264.946 104.85 264.833 104.617 264.73 104.374L264.892 104.731ZM37.1426 94.6713C37.1638 94.7306 37.184 94.7918 37.2031 94.8549H37.2041C37.1588 94.7055 37.1061 94.5676 37.0488 94.4399C37.0817 94.5136 37.1136 94.5905 37.1426 94.6713ZM208.679 89.7963L210.533 94.4975L212.387 89.7963L210.533 86.0151L208.679 89.7963ZM37.0293 94.3979C36.9953 94.3252 36.9608 94.2553 36.9229 94.1899C36.9608 94.2553 36.9954 94.3251 37.0293 94.3979ZM36.5459 93.7094C36.5805 93.7431 36.6136 93.778 36.6455 93.8139C36.6795 93.8499 36.7132 93.8873 36.7451 93.9272C36.7134 93.8875 36.6804 93.8498 36.6465 93.8139C36.5672 93.7248 36.479 93.6432 36.3828 93.5678C36.4401 93.6126 36.4946 93.6596 36.5459 93.7094ZM35.7715 93.2231C35.9251 93.2839 36.0664 93.355 36.1953 93.436C36.256 93.4741 36.3139 93.5146 36.3691 93.5571C36.1965 93.424 35.9975 93.3124 35.7715 93.2231ZM40.8438 88.5698C40.8925 88.506 40.9394 88.4408 40.9854 88.3745C40.9395 88.4408 40.8925 88.506 40.8438 88.5698ZM41.292 87.8764C41.2045 88.0387 41.1086 88.1937 41.0068 88.3432C41.0664 88.2558 41.1251 88.1674 41.1797 88.0756C41.2186 88.0103 41.2566 87.944 41.293 87.8764H41.292ZM274.21 86.3012C274.156 86.4753 274.092 86.6349 274.018 86.7797L274.089 86.6303C274.134 86.5275 274.174 86.418 274.21 86.3022L274.21 86.3012ZM36.8389 81.4995C36.8599 81.6202 36.8776 81.7461 36.8916 81.8774C36.9196 82.1393 36.9336 82.4222 36.9336 82.726L36.9238 82.2856C36.9028 81.861 36.8499 81.4838 36.7656 81.1537C36.7936 81.2637 36.8179 81.379 36.8389 81.4995ZM271.096 78.934C271.002 78.95 270.911 78.9697 270.822 78.9936C271 78.9457 271.188 78.9139 271.386 78.8979L271.096 78.934ZM264.892 77.8305C264.884 77.8454 264.877 77.8605 264.87 77.8754C264.89 77.8333 264.912 77.7919 264.933 77.7504C264.919 77.7771 264.905 77.8035 264.892 77.8305ZM265.091 77.4545C265.069 77.4922 265.049 77.5306 265.028 77.5688C265.049 77.5305 265.069 77.4922 265.091 77.4545ZM275.652 74.808C275.608 74.7879 275.563 74.7687 275.518 74.7495C275.563 74.7687 275.608 74.7879 275.652 74.808ZM275.326 74.6713C275.278 74.6525 275.23 74.6336 275.181 74.6157C275.23 74.6336 275.278 74.6525 275.326 74.6713ZM274.868 74.5082C274.889 74.515 274.91 74.5228 274.932 74.5297C274.784 74.4817 274.634 74.4362 274.48 74.3959L274.868 74.5082ZM45.0303 64.8979C43.5536 66.0352 41.9373 66.8042 40.2832 67.3002C40.5045 67.3694 40.7252 67.4441 40.9453 67.5239C42.1152 66.8538 43.4702 66.4702 44.915 66.4702H46.6084C46.012 66.0222 45.4809 65.4922 45.0303 64.8979ZM160.177 65.5463C159.858 65.885 159.514 66.1944 159.146 66.4702H161.628C161.133 66.1959 160.648 65.8885 160.177 65.5463ZM216.652 66.4702H217.421C217.289 66.3712 217.159 66.2688 217.033 66.1616C216.909 66.2674 216.783 66.3719 216.652 66.4702ZM198.396 60.0698H198.397V26.4702H198.396L198.396 60.0698ZM176.424 57.4223C176.447 57.3863 176.469 57.3495 176.492 57.3129C176.469 57.3495 176.447 57.3863 176.424 57.4223ZM163.191 57.1733C163.224 57.2301 163.258 57.2858 163.292 57.3412C163.258 57.2857 163.224 57.2301 163.191 57.1733ZM176.603 57.1274C176.625 57.0885 176.648 57.0497 176.67 57.0102C176.648 57.0497 176.625 57.0884 176.603 57.1274ZM163.055 56.9243C163.09 56.9921 163.128 57.0583 163.165 57.1245C163.128 57.0583 163.09 56.9921 163.055 56.9243ZM162.957 56.7309C162.977 56.7727 162.999 56.8138 163.02 56.8549C162.99 56.796 162.96 56.7364 162.932 56.6762L162.957 56.7309ZM188.235 55.2592H188.236C188.3 55.2547 188.363 55.2472 188.424 55.2397C188.362 55.2473 188.3 55.2546 188.235 55.2592ZM188.528 55.225C188.558 55.2205 188.587 55.2156 188.615 55.2104C188.587 55.2156 188.558 55.2205 188.528 55.225ZM162.304 54.8022C162.334 54.943 162.368 55.0813 162.404 55.2172L162.305 54.8022C162.274 54.6614 162.245 54.5182 162.22 54.3725L162.304 54.8022ZM188.7 55.1938C188.742 55.185 188.782 55.1748 188.822 55.1645C188.782 55.1748 188.742 55.185 188.7 55.1938ZM188.87 55.1518C188.914 55.1396 188.958 55.1269 189 55.1127C188.958 55.1269 188.914 55.1396 188.87 55.1518ZM189.045 55.0971C189.115 55.0724 189.182 55.0451 189.247 55.0151C189.182 55.0451 189.115 55.0724 189.045 55.0971ZM189.292 54.9936C189.357 54.9619 189.42 54.9292 189.48 54.892C189.42 54.9292 189.357 54.9619 189.292 54.9936ZM190.081 54.3051L190.147 54.1899C190.162 54.1627 190.173 54.1335 190.187 54.1049C190.153 54.1756 190.119 54.2429 190.081 54.3051ZM37.1426 46.6713C37.1638 46.7306 37.184 46.7918 37.2031 46.8549H37.2041C37.1588 46.7055 37.1061 46.5676 37.0488 46.4399C37.0817 46.5136 37.1136 46.5905 37.1426 46.6713ZM37.0293 46.3979C36.9953 46.3252 36.9608 46.2553 36.9229 46.1899C36.9608 46.2553 36.9954 46.3251 37.0293 46.3979ZM36.5459 45.7094C36.5805 45.7431 36.6136 45.778 36.6455 45.8139C36.6795 45.8499 36.7132 45.8873 36.7451 45.9272C36.7134 45.8875 36.6804 45.8498 36.6465 45.8139C36.5672 45.7248 36.479 45.6432 36.3828 45.5678C36.4401 45.6126 36.4946 45.6596 36.5459 45.7094ZM35.7715 45.2231C35.9251 45.2839 36.0664 45.355 36.1953 45.436C36.256 45.4741 36.3139 45.5146 36.3691 45.5571C36.1965 45.424 35.9975 45.3124 35.7715 45.2231ZM189.504 44.2875L189.481 44.2719C189.455 44.2554 189.427 44.2404 189.399 44.225C189.435 44.2449 189.47 44.2658 189.504 44.2875ZM189.043 44.0649C189.157 44.105 189.265 44.1521 189.366 44.2065C189.265 44.1521 189.157 44.105 189.043 44.0649ZM189.01 44.0532C188.964 44.0378 188.918 44.0243 188.87 44.0112C188.918 44.0243 188.964 44.0378 189.01 44.0532ZM188.822 43.9985C188.783 43.9883 188.743 43.9788 188.702 43.9702C188.743 43.9788 188.783 43.9883 188.822 43.9985ZM188.61 43.9516C188.585 43.9471 188.56 43.9429 188.534 43.9389C188.56 43.9429 188.585 43.947 188.61 43.9516ZM188.424 43.9233C188.362 43.9157 188.299 43.9093 188.235 43.9047C188.299 43.9093 188.362 43.9157 188.424 43.9233ZM40.6514 40.808C40.7083 40.7424 40.7628 40.6746 40.8164 40.6059C40.7629 40.6746 40.7083 40.7424 40.6514 40.808ZM40.8564 40.5532C40.8953 40.502 40.9327 40.4497 40.9697 40.3969C40.9328 40.4498 40.8952 40.502 40.8564 40.5532ZM41.0195 40.3246C41.0542 40.2733 41.0881 40.2213 41.1211 40.1684C41.0881 40.2213 41.0542 40.2733 41.0195 40.3246ZM41.1592 40.1078C41.1658 40.097 41.1732 40.0866 41.1797 40.0756C41.2186 40.0103 41.2566 39.944 41.293 39.8764H41.292C41.2496 39.9552 41.205 40.0321 41.1592 40.1078ZM36.8389 33.4995C36.8599 33.6202 36.8776 33.7461 36.8916 33.8774C36.9196 34.1393 36.9336 34.4222 36.9336 34.726L36.9238 34.2856C36.9028 33.861 36.8499 33.4838 36.7656 33.1537C36.7936 33.2637 36.8179 33.379 36.8389 33.4995ZM162.304 31.7436C162.273 31.8836 162.245 32.0263 162.22 32.1713L162.305 31.7436C162.335 31.6037 162.368 31.4663 162.404 31.3315L162.304 31.7436ZM162.957 29.8305C162.946 29.8522 162.936 29.8741 162.926 29.8959C162.952 29.8412 162.98 29.7874 163.007 29.7338C162.99 29.7661 162.973 29.7979 162.957 29.8305ZM163.163 29.4428C163.137 29.4892 163.111 29.5361 163.085 29.5834C163.111 29.5361 163.137 29.4892 163.163 29.4428ZM163.327 29.1713C163.302 29.2113 163.277 29.2517 163.252 29.2924C163.277 29.2517 163.302 29.2113 163.327 29.1713ZM163.599 28.7778C163.565 28.8233 163.531 28.8689 163.498 28.9155C163.531 28.8689 163.565 28.8233 163.599 28.7778ZM163.757 28.5707C163.738 28.5942 163.721 28.6192 163.702 28.643C163.732 28.6049 163.761 28.5661 163.792 28.5287C163.78 28.5428 163.768 28.5565 163.757 28.5707ZM164.267 28.0151C164.174 28.1049 164.083 28.1973 163.995 28.2934C163.974 28.3169 163.954 28.3418 163.933 28.3657C163.954 28.3416 163.975 28.3171 163.996 28.2934C164.084 28.1975 164.174 28.1047 164.267 28.0151ZM164.901 27.4819C164.694 27.6332 164.498 27.7961 164.312 27.9721C164.498 27.7962 164.695 27.6332 164.901 27.4819ZM165.627 27.0239C165.392 27.1507 165.167 27.2902 164.954 27.4428C165.167 27.2902 165.392 27.1507 165.627 27.0239ZM165.771 26.9477C165.735 26.9659 165.699 26.9855 165.664 27.0043C165.76 26.9535 165.858 26.9055 165.957 26.8588C165.894 26.8883 165.832 26.9166 165.771 26.9477ZM166.117 26.7836C166.097 26.7925 166.077 26.8019 166.057 26.811C166.156 26.7662 166.258 26.7247 166.361 26.684C166.279 26.7164 166.197 26.7486 166.117 26.7836ZM166.479 26.6371C166.47 26.6408 166.46 26.6442 166.45 26.6479C166.582 26.5978 166.718 26.5516 166.855 26.5082L166.479 26.6371ZM40.6582 88.8002C40.7171 88.732 40.7738 88.6618 40.8291 88.5903C40.7738 88.6618 40.7171 88.732 40.6582 88.8002Z" fill="#1C1456"/>
<g filter="url(#filter0_iii_4010_23443)">
<path d="M163.899 12.0854C166.103 12.0854 168.401 12.4359 170.562 13.3237C171.643 12.7789 172.864 12.4702 174.157 12.4702L179.437 12.4702C182.103 12.4702 184.463 13.7753 185.917 15.7807C187.371 13.7754 189.73 12.4703 192.396 12.4702H197.677C198.171 12.4702 198.655 12.5172 199.124 12.603C199.594 12.5171 200.078 12.4702 200.572 12.4702L208.348 12.4702C210.992 12.4702 213.866 12.9454 216.471 14.3286C217.867 13.163 219.66 12.4702 221.595 12.4702H229.323L229.689 12.478C230.617 12.5201 231.507 12.7237 232.332 13.059C233.274 12.6771 234.291 12.4702 235.336 12.4702L240.808 12.4702C242.261 12.4702 243.644 12.8635 244.84 13.562C246.036 12.8634 247.419 12.4702 248.872 12.4702H253.768C256.345 12.4702 258.766 13.7116 260.269 15.8061C261.771 17.9005 262.172 20.5909 261.347 23.0327L259.963 27.1215C260.104 27.1141 260.246 27.1098 260.39 27.1098H308.39C312.808 27.1098 316.39 30.6915 316.39 35.1098V39.4301C316.389 43.8482 312.808 47.4301 308.39 47.4301L260.39 47.4301C260.372 47.4301 260.354 47.4283 260.337 47.4282L261.723 51.4828C262.557 53.9263 262.161 56.6227 260.659 58.7231C260.011 59.6296 259.19 60.3753 258.26 60.9321C258.571 61.0428 258.872 61.173 259.164 61.3198C261.323 60.4377 263.619 60.0854 265.834 60.0854C268.038 60.0854 270.335 60.435 272.497 61.3227C273.578 60.7781 274.799 60.4702 276.092 60.4702H281.371C282.432 60.4702 283.445 60.678 284.371 61.0532C285.298 60.678 286.31 60.4702 287.371 60.4702H292.747C293.237 60.4702 293.716 60.5158 294.182 60.6C294.647 60.5158 295.126 60.4702 295.615 60.4702H300.319C301.272 60.4702 302.187 60.6371 303.034 60.9428C303.886 60.6361 304.8 60.4702 305.744 60.4702H312.368C316.786 60.4704 320.368 64.052 320.368 68.4702L320.368 102.07C320.368 106.488 316.786 110.07 312.368 110.07H307.615C306.443 110.07 305.33 109.815 304.327 109.362C303.317 109.818 302.202 110.07 301.04 110.07H295.615C295.126 110.07 294.647 110.023 294.182 109.939C293.716 110.023 293.237 110.07 292.747 110.07L287.371 110.07C286.31 110.07 285.298 109.861 284.371 109.486C283.444 109.861 282.432 110.07 281.371 110.07H276.092C274.805 110.07 273.589 109.763 272.512 109.223C270.338 110.109 268.034 110.454 265.834 110.454C263.622 110.454 261.319 110.107 259.148 109.226C258.073 109.764 256.861 110.07 255.576 110.07L250.824 110.07C249.652 110.07 248.539 109.815 247.535 109.362C246.525 109.818 245.41 110.07 244.248 110.07H238.824C238.586 110.07 238.35 110.057 238.117 110.037C237.879 110.058 237.639 110.07 237.397 110.07H231.974C230.788 110.07 229.646 109.806 228.614 109.329C227.592 109.803 226.454 110.07 225.253 110.07H219.926C218.725 110.07 217.586 109.803 216.563 109.329C215.532 109.806 214.391 110.07 213.205 110.07H207.781C206.645 110.07 205.542 109.827 204.533 109.378C203.525 109.827 202.421 110.07 201.285 110.07H195.861C194.666 110.07 193.517 109.803 192.479 109.318C191.45 109.799 190.303 110.07 189.093 110.07H183.813C182.216 110.07 180.729 109.6 179.48 108.793C178.232 109.6 176.745 110.07 175.148 110.07H160.749C160.26 110.07 159.781 110.023 159.315 109.939C158.85 110.023 158.372 110.07 157.883 110.07H153.131C151.958 110.07 150.845 109.815 149.842 109.362C148.832 109.818 147.717 110.07 146.555 110.07L141.131 110.07C140.641 110.07 140.162 110.023 139.696 109.939C139.231 110.023 138.752 110.07 138.263 110.07H132.887C131.825 110.07 130.813 109.861 129.886 109.486C128.959 109.861 127.948 110.07 126.887 110.07L121.606 110.07C121.358 110.07 121.112 110.057 120.869 110.035C120.632 110.056 120.393 110.07 120.153 110.07H114.825C113.313 110.07 111.89 109.646 110.673 108.906C109.456 109.645 108.033 110.07 106.521 110.07H101.673C101.435 110.07 101.198 110.056 100.963 110.035C100.723 110.056 100.479 110.07 100.233 110.07H95.2412C94.6142 110.07 94.0044 109.995 93.4189 109.859C92.8311 109.996 92.22 110.07 91.5937 110.07H86.6016C85.926 110.07 85.2681 109.983 84.6377 109.824C84.0069 109.984 83.3465 110.07 82.666 110.07L78.0576 110.07C77.5681 110.07 77.0893 110.023 76.624 109.939C76.1591 110.023 75.6806 110.07 75.1914 110.07H70.4395C69.2667 110.07 68.1539 109.815 67.1504 109.362C66.1402 109.818 65.0252 110.07 63.8633 110.07H58.4395C57.9496 110.07 57.4704 110.023 57.0049 109.939C56.5396 110.023 56.0608 110.07 55.5713 110.07L50.1953 110.07C49.1339 110.07 48.1212 109.861 47.1943 109.486C46.2679 109.861 45.2562 110.07 44.1953 110.07L38.915 110.07C37.5021 110.07 36.1755 109.702 35.0234 109.059C32.9396 109.796 30.7705 110.07 28.7256 110.07L20.4219 110.07C16.0037 110.07 12.4219 106.488 12.4219 102.07L12.4219 68.4702C12.4219 65.3029 14.2627 62.5652 16.9326 61.269C14.263 59.9727 12.4219 57.2368 12.4219 54.0698L12.4219 20.4702C12.4219 16.0519 16.0037 12.4702 20.4219 12.4702L28.3896 12.4702C31.7069 12.4702 35.709 13.1317 38.9375 15.7661C40.392 13.7686 42.7482 12.4702 45.4082 12.4702L50.6885 12.4702C51.7494 12.4702 52.7611 12.6791 53.6875 13.0541C54.6144 12.6787 55.627 12.4702 56.6885 12.4702H62.0645C63.2815 12.4702 64.4341 12.7437 65.4668 13.2299C66.5039 12.742 67.6581 12.4702 68.8682 12.4702L76.5967 12.4702L76.9629 12.478C78.0438 12.527 79.074 12.7933 80.0088 13.2348C81.045 12.7445 82.2033 12.4702 83.4258 12.4702H88.6572C89.4059 12.4702 90.1301 12.5757 90.8174 12.768C91.5048 12.5756 92.2287 12.4702 92.9775 12.4702L98.2578 12.4702C98.9977 12.4702 99.7134 12.5731 100.394 12.7612C101.074 12.5731 101.789 12.4702 102.529 12.4702L107.857 12.4702C108.348 12.4702 108.828 12.5165 109.294 12.601C109.76 12.5164 110.241 12.4702 110.731 12.4702H115.436C116.389 12.4702 117.303 12.6379 118.15 12.9438C119.002 12.6371 119.915 12.4702 120.859 12.4702L127.483 12.4702C127.83 12.4702 128.171 12.4948 128.506 12.5375C128.844 12.4937 129.187 12.4702 129.533 12.4702H135.006L135.33 12.476C136.664 12.5298 137.931 12.9158 139.037 13.562C140.233 12.8633 141.616 12.4702 143.069 12.4702H147.966C150.275 12.4703 152.454 13.469 153.964 15.1821C156.949 12.9062 160.517 12.0854 163.899 12.0854ZM295.615 102.07H295.616L295.616 68.4702H295.615L295.615 102.07ZM307.615 77.7368V102.07H307.616V77.7338L307.615 77.7368ZM258.892 98.7309C258.948 98.8474 259.008 98.9611 259.069 99.0727C258.946 98.8496 258.833 98.617 258.73 98.3745L258.892 98.7309ZM31.1426 88.6713C31.1638 88.7306 31.184 88.7918 31.2031 88.8549H31.2041C31.1588 88.7055 31.1061 88.5676 31.0488 88.4399C31.0817 88.5136 31.1136 88.5905 31.1426 88.6713ZM202.679 83.7963L204.533 88.4975L206.387 83.7963L204.533 80.0151L202.679 83.7963ZM31.0293 88.3979C30.9953 88.3252 30.9608 88.2553 30.9229 88.1899C30.9608 88.2553 30.9954 88.3251 31.0293 88.3979ZM30.5459 87.7094C30.5805 87.7431 30.6136 87.778 30.6455 87.8139C30.6795 87.8499 30.7132 87.8873 30.7451 87.9272C30.7134 87.8875 30.6804 87.8498 30.6465 87.8139C30.5672 87.7248 30.479 87.6432 30.3828 87.5678C30.4401 87.6126 30.4946 87.6596 30.5459 87.7094ZM29.7715 87.2231C29.9251 87.2839 30.0664 87.355 30.1953 87.436C30.256 87.4741 30.3139 87.5146 30.3691 87.5571C30.1965 87.424 29.9975 87.3124 29.7715 87.2231ZM34.8437 82.5698C34.8925 82.506 34.9394 82.4408 34.9854 82.3745C34.9395 82.4408 34.8925 82.506 34.8437 82.5698ZM35.292 81.8764C35.2045 82.0387 35.1086 82.1937 35.0068 82.3432C35.0664 82.2558 35.1251 82.1674 35.1797 82.0756C35.2186 82.0103 35.2566 81.944 35.293 81.8764L35.292 81.8764ZM268.21 80.3012C268.156 80.4753 268.092 80.6349 268.018 80.7797L268.089 80.6303C268.134 80.5275 268.174 80.418 268.21 80.3022L268.21 80.3012ZM30.8389 75.4995C30.8599 75.6202 30.8776 75.7461 30.8916 75.8774C30.9196 76.1393 30.9336 76.4222 30.9336 76.726L30.9238 76.2856C30.9028 75.861 30.8499 75.4838 30.7656 75.1537C30.7936 75.2637 30.8179 75.379 30.8389 75.4995ZM265.096 72.934C265.002 72.95 264.911 72.9697 264.822 72.9936C265 72.9457 265.188 72.9139 265.386 72.8979L265.096 72.934ZM258.892 71.8305C258.884 71.8454 258.877 71.8605 258.87 71.8754C258.89 71.8333 258.912 71.7919 258.933 71.7504C258.919 71.7771 258.905 71.8035 258.892 71.8305ZM259.091 71.4545C259.069 71.4922 259.049 71.5306 259.028 71.5688C259.049 71.5305 259.069 71.4922 259.091 71.4545ZM269.652 68.808C269.608 68.7879 269.563 68.7687 269.518 68.7495C269.563 68.7687 269.608 68.7879 269.652 68.808ZM269.326 68.6713C269.278 68.6525 269.23 68.6336 269.181 68.6157C269.23 68.6336 269.278 68.6525 269.326 68.6713ZM268.868 68.5082C268.889 68.515 268.91 68.5228 268.932 68.5297C268.784 68.4817 268.634 68.4362 268.48 68.3959L268.868 68.5082ZM39.0303 58.8979C37.5536 60.0352 35.9373 60.8042 34.2832 61.3002C34.5045 61.3694 34.7252 61.4441 34.9453 61.5239C36.1152 60.8538 37.4702 60.4702 38.915 60.4702H40.6084C40.012 60.0222 39.4809 59.4922 39.0303 58.8979ZM154.177 59.5463C153.858 59.885 153.514 60.1944 153.146 60.4702H155.628C155.133 60.1959 154.648 59.8885 154.177 59.5463ZM210.652 60.4702L211.421 60.4702C211.289 60.3712 211.159 60.2688 211.033 60.1616C210.909 60.2674 210.783 60.3719 210.652 60.4702ZM192.396 54.0698H192.397V20.4702H192.396L192.396 54.0698ZM170.424 51.4223C170.447 51.3863 170.469 51.3495 170.492 51.3129C170.469 51.3495 170.447 51.3863 170.424 51.4223ZM157.191 51.1733C157.224 51.2301 157.258 51.2858 157.292 51.3412C157.258 51.2857 157.224 51.2301 157.191 51.1733ZM170.603 51.1274C170.625 51.0885 170.648 51.0497 170.67 51.0102C170.648 51.0497 170.625 51.0884 170.603 51.1274ZM157.055 50.9243C157.09 50.9921 157.128 51.0583 157.165 51.1245C157.128 51.0583 157.09 50.9921 157.055 50.9243ZM156.957 50.7309C156.977 50.7727 156.999 50.8138 157.02 50.8549C156.99 50.796 156.96 50.7364 156.932 50.6762L156.957 50.7309ZM182.235 49.2592H182.236C182.3 49.2547 182.363 49.2472 182.424 49.2397C182.362 49.2473 182.3 49.2546 182.235 49.2592ZM182.528 49.225C182.558 49.2205 182.587 49.2156 182.615 49.2104C182.587 49.2156 182.558 49.2205 182.528 49.225ZM156.304 48.8022C156.334 48.943 156.368 49.0813 156.404 49.2172L156.305 48.8022C156.274 48.6614 156.245 48.5182 156.22 48.3725L156.304 48.8022ZM182.7 49.1938C182.742 49.185 182.782 49.1748 182.822 49.1645C182.782 49.1748 182.742 49.185 182.7 49.1938ZM182.87 49.1518C182.914 49.1396 182.958 49.1269 183 49.1127C182.958 49.1269 182.914 49.1396 182.87 49.1518ZM183.045 49.0971C183.115 49.0724 183.182 49.0451 183.247 49.0151C183.182 49.0451 183.115 49.0724 183.045 49.0971ZM183.292 48.9936C183.357 48.9619 183.42 48.9292 183.48 48.892C183.42 48.9292 183.357 48.9619 183.292 48.9936ZM184.081 48.3051L184.147 48.1899C184.162 48.1627 184.173 48.1335 184.187 48.1049C184.153 48.1756 184.119 48.2429 184.081 48.3051ZM31.1426 40.6713C31.1638 40.7306 31.184 40.7918 31.2031 40.8549L31.2041 40.8549C31.1588 40.7055 31.1061 40.5676 31.0488 40.4399C31.0817 40.5136 31.1136 40.5905 31.1426 40.6713ZM31.0293 40.3979C30.9953 40.3252 30.9608 40.2553 30.9229 40.1899C30.9608 40.2553 30.9954 40.3251 31.0293 40.3979ZM30.5459 39.7094C30.5805 39.7431 30.6136 39.778 30.6455 39.8139C30.6795 39.8499 30.7132 39.8873 30.7451 39.9272C30.7134 39.8875 30.6804 39.8498 30.6465 39.8139C30.5672 39.7248 30.479 39.6432 30.3828 39.5678C30.4401 39.6126 30.4946 39.6596 30.5459 39.7094ZM29.7715 39.2231C29.9251 39.2839 30.0664 39.355 30.1953 39.436C30.256 39.4741 30.3139 39.5146 30.3691 39.5571C30.1965 39.424 29.9975 39.3124 29.7715 39.2231ZM183.504 38.2875L183.481 38.2719C183.455 38.2554 183.427 38.2404 183.399 38.225C183.435 38.2449 183.47 38.2658 183.504 38.2875ZM183.043 38.0649C183.157 38.105 183.265 38.1521 183.366 38.2065C183.265 38.1521 183.157 38.105 183.043 38.0649ZM183.01 38.0532C182.964 38.0378 182.918 38.0243 182.87 38.0112C182.918 38.0243 182.964 38.0378 183.01 38.0532ZM182.822 37.9985C182.783 37.9883 182.743 37.9788 182.702 37.9702C182.743 37.9788 182.783 37.9883 182.822 37.9985ZM182.61 37.9516C182.585 37.9471 182.56 37.9429 182.534 37.9389C182.56 37.9429 182.585 37.947 182.61 37.9516ZM182.424 37.9233C182.362 37.9157 182.299 37.9093 182.235 37.9047C182.299 37.9093 182.362 37.9157 182.424 37.9233ZM34.6514 34.808C34.7083 34.7424 34.7628 34.6746 34.8164 34.6059C34.7629 34.6746 34.7083 34.7424 34.6514 34.808ZM34.8564 34.5532C34.8953 34.502 34.9327 34.4497 34.9697 34.3969C34.9328 34.4498 34.8952 34.502 34.8564 34.5532ZM35.0195 34.3246C35.0542 34.2733 35.0881 34.2213 35.1211 34.1684C35.0881 34.2213 35.0542 34.2733 35.0195 34.3246ZM35.1592 34.1078C35.1658 34.097 35.1732 34.0866 35.1797 34.0756C35.2186 34.0103 35.2566 33.944 35.293 33.8764H35.292C35.2496 33.9552 35.205 34.0321 35.1592 34.1078ZM30.8389 27.4995C30.8599 27.6202 30.8776 27.7461 30.8916 27.8774C30.9196 28.1393 30.9336 28.4222 30.9336 28.726L30.9238 28.2856C30.9028 27.861 30.8499 27.4838 30.7656 27.1537C30.7936 27.2637 30.8179 27.379 30.8389 27.4995ZM156.304 25.7436C156.273 25.8836 156.245 26.0263 156.22 26.1713L156.305 25.7436C156.335 25.6037 156.368 25.4663 156.404 25.3315L156.304 25.7436ZM156.957 23.8305C156.946 23.8522 156.936 23.8741 156.926 23.8959C156.952 23.8412 156.98 23.7874 157.007 23.7338C156.99 23.7661 156.973 23.7979 156.957 23.8305ZM157.163 23.4428C157.137 23.4892 157.111 23.5361 157.085 23.5834C157.111 23.5361 157.137 23.4892 157.163 23.4428ZM157.327 23.1713C157.302 23.2113 157.277 23.2517 157.252 23.2924C157.277 23.2517 157.302 23.2113 157.327 23.1713ZM157.599 22.7778C157.565 22.8233 157.531 22.8689 157.498 22.9155C157.531 22.8689 157.565 22.8233 157.599 22.7778ZM157.757 22.5707C157.738 22.5942 157.721 22.6192 157.702 22.643C157.732 22.6049 157.761 22.5661 157.792 22.5287C157.78 22.5428 157.768 22.5565 157.757 22.5707ZM158.267 22.0151C158.174 22.1049 158.083 22.1973 157.995 22.2934C157.974 22.3169 157.954 22.3418 157.933 22.3657C157.954 22.3416 157.975 22.3171 157.996 22.2934C158.084 22.1975 158.174 22.1047 158.267 22.0151ZM158.901 21.4819C158.694 21.6332 158.498 21.7961 158.312 21.9721C158.498 21.7962 158.695 21.6332 158.901 21.4819ZM159.627 21.0239C159.392 21.1507 159.167 21.2902 158.954 21.4428C159.167 21.2902 159.392 21.1507 159.627 21.0239ZM159.771 20.9477C159.735 20.9659 159.699 20.9855 159.664 21.0043C159.76 20.9535 159.858 20.9055 159.957 20.8588C159.894 20.8883 159.832 20.9166 159.771 20.9477ZM160.117 20.7836C160.097 20.7925 160.077 20.8019 160.057 20.811C160.156 20.7662 160.258 20.7247 160.361 20.684C160.279 20.7164 160.197 20.7486 160.117 20.7836ZM160.479 20.6371C160.47 20.6408 160.46 20.6442 160.45 20.6479C160.582 20.5978 160.718 20.5516 160.855 20.5082L160.479 20.6371ZM34.6582 82.8002C34.7171 82.732 34.7738 82.6618 34.8291 82.5903C34.7738 82.6618 34.7171 82.732 34.6582 82.8002Z" fill="#E54B39"/>
</g>
<path d="M28.39 20.4698C31.142 20.4698 33.126 21.1098 34.342 22.3898C35.59 23.6698 36.214 25.6058 36.214 28.1978V29.3978C36.214 31.1258 35.942 32.5498 35.398 33.6698C34.854 34.7898 33.99 35.6218 32.806 36.1658C34.246 36.7098 35.254 37.6058 35.83 38.8538C36.438 40.0698 36.742 41.5738 36.742 43.3658V46.1018C36.742 48.6938 36.07 50.6778 34.726 52.0538C33.382 53.3978 31.382 54.0698 28.726 54.0698H20.422V20.4698H28.39ZM25.702 38.9498V49.2698H28.726C29.622 49.2698 30.294 49.0298 30.742 48.5498C31.222 48.0698 31.462 47.2058 31.462 45.9578V43.0298C31.462 41.4618 31.19 40.3898 30.646 39.8138C30.134 39.2378 29.27 38.9498 28.054 38.9498H25.702ZM25.702 25.2698V34.1498H27.766C28.758 34.1498 29.526 33.8938 30.07 33.3818C30.646 32.8698 30.934 31.9418 30.934 30.5978V28.7258C30.934 27.5098 30.71 26.6298 30.262 26.0858C29.846 25.5418 29.174 25.2698 28.246 25.2698H25.702ZM50.6882 54.0698H45.4082V20.4698H50.6882V34.8698H56.6882V20.4698H62.0642V54.0698H56.6882V39.6698H50.6882V54.0698ZM81.9726 54.0698H76.6446L75.7326 47.9738H69.2526L68.3406 54.0698H63.4926L68.8686 20.4698H76.5966L81.9726 54.0698ZM69.9246 43.4138H75.0126L72.4686 26.4218L69.9246 43.4138ZM98.2577 49.2698H102.53V20.4698H107.858V54.0698H83.4257V20.4698H88.6577V49.2698H92.9777V20.4698H98.2577V49.2698ZM116.155 54.0698H110.731V20.4698H115.435V40.5818L120.859 20.4698H127.483V54.0698H122.731V29.7338L116.155 54.0698ZM147.965 20.4698L142.445 36.7898L148.349 54.0698L142.781 54.0698L138.461 40.7738L134.093 54.0698H129.149L135.053 36.7898L129.533 20.4698H135.005L138.989 32.8538L143.069 20.4698H147.965ZM171.772 41.5418V46.0058C171.772 48.7258 171.1 50.8218 169.756 52.2938C168.444 53.7338 166.492 54.4538 163.9 54.4538C161.308 54.4538 159.34 53.7338 157.996 52.2938C156.684 50.8218 156.028 48.7258 156.028 46.0058V28.5338C156.028 25.8138 156.684 23.7338 157.996 22.2938C159.34 20.8218 161.308 20.0858 163.9 20.0858C166.492 20.0858 168.444 20.8218 169.756 22.2938C171.1 23.7338 171.772 25.8138 171.772 28.5338V31.7978H166.78V28.1978C166.78 26.9818 166.524 26.1338 166.012 25.6538C165.532 25.1418 164.876 24.8858 164.044 24.8858C163.212 24.8858 162.54 25.1418 162.028 25.6538C161.548 26.1338 161.308 26.9818 161.308 28.1978V46.3418C161.308 47.5578 161.548 48.4058 162.028 48.8858C162.54 49.3658 163.212 49.6058 164.044 49.6058C164.876 49.6058 165.532 49.3658 166.012 48.8858C166.524 48.4058 166.78 47.5578 166.78 46.3418V41.5418H171.772ZM181.933 49.2698C182.765 49.2698 183.405 49.0458 183.853 48.5978C184.301 48.1498 184.525 47.3178 184.525 46.1018V41.0618C184.525 39.8458 184.301 39.0138 183.853 38.5658C183.405 38.1178 182.765 37.8938 181.933 37.8938H179.437V49.2698H181.933ZM174.157 54.0698V20.4698H179.437V33.0938H181.933C184.589 33.0938 186.557 33.7978 187.837 35.2058C189.149 36.6138 189.805 38.6778 189.805 41.3978V45.7658C189.805 48.4858 189.149 50.5498 187.837 51.9578C186.557 53.3658 184.589 54.0698 181.933 54.0698H174.157ZM192.397 20.4698H197.677V54.0698H192.397V20.4698ZM208.348 20.4698C211.004 20.4698 212.972 21.1738 214.252 22.5818C215.564 23.9898 216.22 26.0538 216.22 28.7738V33.1418C216.22 35.8618 215.564 37.9258 214.252 39.3338C212.972 40.7418 211.004 41.4458 208.348 41.4458H205.852V54.0698H200.572V20.4698L208.348 20.4698ZM205.852 25.2698V36.6458H208.348C209.18 36.6458 209.82 36.4218 210.268 35.9738C210.716 35.5258 210.94 34.6938 210.94 33.4778V28.4378C210.94 27.2218 210.716 26.3898 210.268 25.9418C209.82 25.4938 209.18 25.2698 208.348 25.2698H205.852ZM234.699 54.0698H229.371L228.459 47.9738H221.979L221.067 54.0698H216.219L221.595 20.4698H229.323L234.699 54.0698ZM222.651 43.4138H227.739L225.195 26.4218L222.651 43.4138ZM253.768 20.4698L248.248 36.7898L254.152 54.0698H248.584L244.264 40.7738L239.896 54.0698H234.952L240.856 36.7898L235.336 20.4698H240.808L244.792 32.8538L248.872 20.4698H253.768ZM260.39 35.1098H308.39V39.4298H260.39V35.1098ZM28.39 68.4698C31.142 68.4698 33.126 69.1098 34.342 70.3898C35.59 71.6698 36.214 73.6058 36.214 76.1978V77.3978C36.214 79.1258 35.942 80.5498 35.398 81.6698C34.854 82.7898 33.99 83.6218 32.806 84.1658C34.246 84.7098 35.254 85.6058 35.83 86.8538C36.438 88.0698 36.742 89.5738 36.742 91.3658V94.1018C36.742 96.6938 36.07 98.6778 34.726 100.054C33.382 101.398 31.382 102.07 28.726 102.07H20.422L20.422 68.4698H28.39ZM25.702 86.9498V97.2698H28.726C29.622 97.2698 30.294 97.0298 30.742 96.5498C31.222 96.0698 31.462 95.2058 31.462 93.9578V91.0298C31.462 89.4618 31.19 88.3898 30.646 87.8138C30.134 87.2378 29.27 86.9498 28.054 86.9498H25.702ZM25.702 73.2698V82.1498H27.766C28.758 82.1498 29.526 81.8938 30.07 81.3818C30.646 80.8698 30.934 79.9418 30.934 78.5978V76.7258C30.934 75.5098 30.71 74.6298 30.262 74.0858C29.846 73.5418 29.174 73.2698 28.246 73.2698H25.702ZM44.1951 102.07H38.9151V68.4698H44.1951V82.8698H50.1951V68.4698H55.5711V102.07H50.1951V87.6698H44.1951V102.07ZM63.8635 102.07H58.4395V68.4698H63.1435V88.5818L68.5675 68.4698H75.1915V102.07H70.4395V77.7338L63.8635 102.07ZM89.2896 92.3258L92.8896 68.4698H100.234V102.07H95.2416V77.9738L91.5936 102.07H86.6016L82.6656 78.3098V102.07H78.0576V68.4698H85.4016L89.2896 92.3258ZM120.153 102.07H114.825L113.913 95.9738H107.433L106.521 102.07H101.673L107.049 68.4698H114.777L120.153 102.07ZM108.105 91.4138H113.193L110.649 74.4218L108.105 91.4138ZM126.886 102.07H121.606V68.4698H126.886V82.8698H132.886V68.4698H138.262V102.07H132.886V87.6698H126.886V102.07ZM146.555 102.07H141.131V68.4698H145.835V88.5818L151.259 68.4698H157.883V102.07H153.131V77.7338L146.555 102.07ZM166.029 82.6298H173.277V87.4298H166.029V97.2698H175.149V102.07H160.749V68.4698H175.149V73.2698H166.029V82.6298ZM190.725 88.6778L189.093 91.7498V102.07H183.813V68.4698H189.093V83.1098L196.101 68.4698H201.285L193.941 83.4458L201.285 102.07H195.861L190.725 88.6778ZM213.205 102.07H207.781L215.125 83.4458L207.781 68.4698H212.965L219.925 83.0138V68.4698H225.253V83.0138L232.213 68.4698H237.397L230.053 83.4458L237.397 102.07H231.973L226.837 88.6778L225.253 91.6538V102.07H219.925V91.6538L218.341 88.6778L213.205 102.07ZM244.248 102.07H238.824V68.4698H243.528V88.5818L248.952 68.4698H255.576V102.07H250.824V77.7338L244.248 102.07ZM268.426 76.7258C268.426 75.2218 268.17 74.2138 267.658 73.7018C267.178 73.1578 266.522 72.8858 265.69 72.8858C264.858 72.8858 264.186 73.1418 263.674 73.6538C263.194 74.1338 262.954 74.9818 262.954 76.1978V79.7978H257.962V76.5338C257.962 73.8138 258.618 71.7338 259.93 70.2938C261.274 68.8218 263.242 68.0858 265.834 68.0858C268.426 68.0858 270.378 68.8218 271.69 70.2938C273.034 71.7338 273.706 73.8138 273.706 76.5338V77.3978C273.706 80.9818 272.474 83.2858 270.01 84.3098C271.354 84.8858 272.298 85.7818 272.842 86.9978C273.418 88.1818 273.706 89.6378 273.706 91.3658V94.0058C273.706 96.7258 273.034 98.8218 271.69 100.294C270.378 101.734 268.426 102.454 265.834 102.454C263.242 102.454 261.274 101.734 259.93 100.294C258.618 98.8218 257.962 96.7258 257.962 94.0058V89.7818H262.954V94.3418C262.954 95.5578 263.194 96.4218 263.674 96.9338C264.186 97.4138 264.858 97.6538 265.69 97.6538C266.522 97.6538 267.178 97.3978 267.658 96.8858C268.17 96.3738 268.426 95.3658 268.426 93.8618V91.2218C268.426 89.6538 268.154 88.5498 267.61 87.9098C267.066 87.2698 266.186 86.9498 264.97 86.9498H264.154V82.1498H265.258C266.25 82.1498 267.018 81.8938 267.562 81.3818C268.138 80.8698 268.426 79.9418 268.426 78.5978V76.7258ZM281.371 102.07H276.091V68.4698H281.371V82.8698H287.371V68.4698H292.747V102.07H287.371V87.6698H281.371V102.07ZM301.04 102.07H295.616V68.4698H300.32V88.5818L305.744 68.4698H312.368V102.07H307.616V77.7338L301.04 102.07Z" fill="white"/>
<defs>
<filter id="filter0_iii_4010_23443" x="10.4219" y="10.0854" width="311.945" height="102.368" filterUnits="userSpaceOnUse" color-interpolation-filters="sRGB">
<feFlood flood-opacity="0" result="BackgroundImageFix"/>
<feBlend mode="normal" in="SourceGraphic" in2="BackgroundImageFix" result="shape"/>
<feColorMatrix in="SourceAlpha" type="matrix" values="0 0 0 0 0 0 0 0 0 0 0 0 0 0 0 0 0 0 127 0" result="hardAlpha"/>
<feOffset dx="2" dy="2"/>
<feGaussianBlur stdDeviation="2"/>
<feComposite in2="hardAlpha" operator="arithmetic" k2="-1" k3="1"/>
<feColorMatrix type="matrix" values="0 0 0 0 0.94902 0 0 0 0 0.540941 0 0 0 0 0.638324 0 0 0 1 0"/>
<feBlend mode="normal" in2="shape" result="effect1_innerShadow_4010_23443"/>
<feColorMatrix in="SourceAlpha" type="matrix" values="0 0 0 0 0 0 0 0 0 0 0 0 0 0 0 0 0 0 127 0" result="hardAlpha"/>
<feOffset dx="-2" dy="-2"/>
<feGaussianBlur stdDeviation="2"/>
<feComposite in2="hardAlpha" operator="arithmetic" k2="-1" k3="1"/>
<feColorMatrix type="matrix" values="0 0 0 0 0.75 0 0 0 0 0.204545 0 0 0 0 0.334711 0 0 0 1 0"/>
<feBlend mode="normal" in2="effect1_innerShadow_4010_23443" result="effect2_innerShadow_4010_23443"/>
<feColorMatrix in="SourceAlpha" type="matrix" values="0 0 0 0 0 0 0 0 0 0 0 0 0 0 0 0 0 0 127 0" result="hardAlpha"/>
<feOffset dx="2" dy="2"/>
<feGaussianBlur stdDeviation="2"/>
<feComposite in2="hardAlpha" operator="arithmetic" k2="-1" k3="1"/>
<feColorMatrix type="matrix" values="0 0 0 0 0.944286 0 0 0 0 0.614286 0 0 0 0 0.575714 0 0 0 1 0"/>
<feBlend mode="normal" in2="effect2_innerShadow_4010_23443" result="effect3_innerShadow_4010_23443"/>
</filter>
</defs>
</svg>
