<svg width="331" height="183" viewBox="0 0 331 183" fill="none" xmlns="http://www.w3.org/2000/svg">
<path d="M154.361 46.5894C156.49 46.019 158.8 45.7629 161.118 46.061C162.021 45.2549 163.12 44.6408 164.369 44.3061L169.468 42.9398C172.044 42.2497 174.662 42.8994 176.585 44.4602C177.47 42.1471 179.411 40.2757 181.987 39.5855L187.087 38.2188C187.564 38.0909 188.044 38.0112 188.519 37.9725C188.951 37.768 189.406 37.5974 189.884 37.4694L197.394 35.457C199.949 34.7725 202.847 34.4878 205.722 35.1497C206.769 33.6624 208.321 32.5292 210.19 32.0284L217.655 30.0281L218.011 29.9409C218.918 29.7414 219.83 29.7078 220.714 29.8182C221.525 29.2054 222.454 28.7423 223.463 28.4719L228.748 27.0558C230.152 26.6797 231.59 26.7017 232.926 27.0667C233.9 26.0823 235.135 25.3445 236.538 24.9685L241.267 23.7015C243.756 23.0343 246.416 23.607 248.409 25.2412C250.403 26.8753 251.487 29.3702 251.321 31.9424L251.043 36.2501C251.177 36.2064 251.314 36.1654 251.452 36.1284L297.816 23.7051C302.084 22.5615 306.471 25.0942 307.614 29.3619L308.733 33.535C309.876 37.8026 307.343 42.1895 303.076 43.333L256.711 55.7563C256.694 55.7608 256.677 55.7636 256.66 55.768L259.048 59.3259C260.487 61.47 260.802 64.1772 259.894 66.5947C259.503 67.6381 258.903 68.5708 258.149 69.3494C258.478 69.3759 258.803 69.4236 259.122 69.4899C260.98 68.0791 263.106 67.1446 265.246 66.5712C267.374 66.0009 269.684 65.7439 272.002 66.0418C272.905 65.236 274.005 64.6226 275.253 64.288L280.353 62.9216C281.378 62.647 282.409 62.5857 283.401 62.7083C284.199 62.1061 285.123 61.6434 286.148 61.3687L291.341 59.9773C291.814 59.8505 292.289 59.7705 292.76 59.7314C293.188 59.5297 293.639 59.3617 294.112 59.2349L298.655 58.0174C299.576 57.7708 300.502 57.6954 301.4 57.7713C302.143 57.2547 302.983 56.8578 303.895 56.6134L310.294 54.899C314.561 53.7557 318.948 56.2882 320.092 60.5558L328.788 93.0105C329.931 97.2781 327.398 101.665 323.131 102.809L318.54 104.039C317.408 104.342 316.267 104.384 315.181 104.206C314.323 104.908 313.311 105.44 312.189 105.74L306.949 107.144C306.476 107.271 306.001 107.35 305.53 107.389C305.102 107.591 304.652 107.76 304.178 107.887L298.986 109.278C297.961 109.553 296.929 109.613 295.937 109.491C295.139 110.093 294.215 110.556 293.19 110.831L288.091 112.198C286.847 112.531 285.594 112.549 284.414 112.306C282.544 113.725 280.406 114.654 278.282 115.223C276.145 115.796 273.831 116.057 271.506 115.768C270.607 116.566 269.515 117.175 268.274 117.507L263.684 118.737C262.551 119.041 261.41 119.083 260.324 118.905C259.466 119.606 258.454 120.139 257.332 120.439L252.093 121.843C251.863 121.905 251.632 121.953 251.401 121.994C251.177 122.076 250.948 122.15 250.715 122.212L245.476 123.616C244.33 123.923 243.16 123.964 242.039 123.77C241.174 124.492 240.144 125.045 238.984 125.356L233.839 126.734C232.678 127.045 231.509 127.082 230.399 126.889C229.526 127.617 228.492 128.167 227.347 128.474L222.108 129.878C221.011 130.172 219.882 130.222 218.791 130.05C217.933 130.744 216.93 131.265 215.833 131.559L210.594 132.963C209.44 133.272 208.26 133.311 207.132 133.112C206.263 133.843 205.225 134.401 204.056 134.715L198.957 136.081C197.414 136.494 195.856 136.425 194.441 135.969C193.443 137.071 192.129 137.91 190.587 138.324L176.678 142.05C176.205 142.177 175.731 142.256 175.26 142.295C174.832 142.497 174.382 142.666 173.91 142.792L169.32 144.022C168.187 144.326 167.046 144.368 165.959 144.19C165.101 144.891 164.09 145.423 162.967 145.724L157.728 147.128C157.255 147.255 156.78 147.334 156.309 147.373C155.881 147.575 155.431 147.744 154.958 147.87L149.765 149.262C148.74 149.536 147.708 149.597 146.715 149.474C145.918 150.076 144.994 150.54 143.97 150.815L138.869 152.181C138.629 152.246 138.388 152.297 138.148 152.338C137.925 152.42 137.698 152.495 137.466 152.557L132.319 153.936C130.859 154.328 129.374 154.287 128.007 153.887C127.023 154.916 125.758 155.694 124.298 156.086L119.615 157.34C119.385 157.402 119.153 157.45 118.92 157.49C118.694 157.573 118.462 157.649 118.225 157.713L113.402 159.005C112.797 159.167 112.189 159.253 111.588 159.273C111.056 159.558 110.484 159.787 109.879 159.949L105.057 161.241C104.405 161.416 103.747 161.503 103.097 161.512C102.529 161.83 101.913 162.084 101.256 162.26L96.8044 163.453C96.3316 163.579 95.857 163.658 95.3858 163.697C94.9584 163.899 94.5084 164.068 94.0359 164.194L89.4458 165.424C88.313 165.728 87.1723 165.77 86.0856 165.592C85.2278 166.293 84.2161 166.826 83.0937 167.126L77.8547 168.53C77.3815 168.657 76.9067 168.736 76.4352 168.775C76.0076 168.977 75.5571 169.146 75.0843 169.272L69.8915 170.664C68.8662 170.939 67.834 170.999 66.8416 170.876C66.0438 171.478 65.1207 171.942 64.0959 172.217L58.9956 173.583C57.6308 173.949 56.2542 173.937 54.975 173.614C53.1529 174.865 51.1286 175.691 49.1533 176.221L41.1326 178.37C36.8649 179.513 32.4781 176.981 31.3346 172.713L22.6384 140.258C21.8186 137.199 22.8881 134.078 25.1316 132.135C22.2175 131.574 19.731 129.408 18.9113 126.348L10.2151 93.8937C9.07154 89.6261 11.6043 85.2394 15.8719 84.0958L23.5682 82.0336C26.7724 81.175 30.8094 80.7782 34.6097 82.4872C35.4976 80.1813 37.4375 78.3173 40.0069 77.6288L45.1072 76.2622C46.132 75.9877 47.1632 75.9276 48.1552 76.0501C48.9533 75.4476 49.8774 74.984 50.9028 74.7093L56.0956 73.3179C57.2711 73.0029 58.4553 72.9688 59.5786 73.1712C60.4541 72.4315 61.4986 71.8702 62.6674 71.557L70.1326 69.5567L70.4884 69.4694C71.5451 69.237 72.6091 69.2277 73.6264 69.4121C74.5004 68.6704 75.5482 68.1056 76.729 67.7892L81.7822 66.4352C82.5053 66.2414 83.2322 66.1559 83.9458 66.1638C84.56 65.8 85.232 65.5108 85.9553 65.317L91.0557 63.9504C91.7704 63.7589 92.4883 63.6731 93.1939 63.6787C93.8022 63.321 94.4669 63.0364 95.1816 62.8448L100.328 61.4658C100.802 61.3389 101.278 61.2594 101.75 61.2204C102.178 61.0179 102.63 60.849 103.104 60.7219L107.648 59.5044C108.569 59.2577 109.495 59.1832 110.393 59.2593C111.136 58.7427 111.975 58.3451 112.887 58.1006L119.285 56.3862C119.62 56.2965 119.956 56.2321 120.29 56.1867C120.606 56.0568 120.931 55.9452 121.265 55.8557L126.552 54.4393L126.866 54.361C128.169 54.0677 129.492 54.1128 130.728 54.4505C131.703 53.466 132.937 52.7283 134.34 52.3523L139.07 51.085C141.3 50.4875 143.664 50.8881 145.565 52.1521C147.86 49.1812 151.094 47.4649 154.361 46.5894ZM304.878 99.4171L304.879 99.4168L296.183 66.9621L296.182 66.9623L304.878 99.4171ZM310.172 72.8074L316.469 96.3112L316.47 96.311L310.172 72.8043L310.172 72.8074ZM268.542 105.697C268.627 105.795 268.714 105.889 268.802 105.981C268.625 105.797 268.456 105.602 268.294 105.394L268.542 105.697ZM45.9496 154.926C45.9855 154.977 46.0208 155.031 46.0556 155.087L46.0566 155.087C45.9742 154.955 45.8876 154.835 45.7992 154.726C45.85 154.789 45.9007 154.855 45.9496 154.926ZM210.379 105.82L213.387 109.881L213.961 104.86L211.192 101.688L210.379 105.82ZM45.7694 154.691C45.7177 154.629 45.6664 154.571 45.6128 154.518C45.6664 154.571 45.7179 154.629 45.7694 154.691ZM45.1243 154.151C45.1665 154.175 45.2075 154.2 45.2476 154.226C45.2898 154.252 45.332 154.28 45.3731 154.31C45.3322 154.28 45.2905 154.252 45.2485 154.226C45.1489 154.16 45.0425 154.104 44.9301 154.056C44.9971 154.085 45.0619 154.116 45.1243 154.151ZM44.2504 153.882C44.4146 153.901 44.5694 153.933 44.7149 153.978C44.7834 153.999 44.8498 154.023 44.9142 154.05C44.713 153.966 44.4919 153.909 44.2504 153.882ZM47.9455 148.074C47.9761 148 48.0045 147.925 48.0317 147.849C48.0046 147.925 47.9761 148 47.9455 148.074ZM48.199 147.288C48.1565 147.468 48.104 147.642 48.0444 147.813C48.0793 147.713 48.1131 147.613 48.1421 147.51C48.1627 147.437 48.1823 147.363 48.1999 147.288L48.199 147.288ZM272.773 85.4833C272.766 85.6654 272.745 85.8361 272.711 85.9953L272.741 85.8325C272.758 85.7215 272.768 85.6054 272.773 85.4842L272.773 85.4833ZM42.2471 142.281C42.2987 142.392 42.3484 142.51 42.3959 142.633C42.4907 142.878 42.5775 143.148 42.6561 143.442L42.5327 143.019C42.4025 142.614 42.2537 142.263 42.0869 141.966C42.1424 142.065 42.1957 142.17 42.2471 142.281ZM267.858 79.1731C267.772 79.2128 267.689 79.2554 267.609 79.3015C267.769 79.2092 267.942 79.1298 268.129 79.0632L267.858 79.1731ZM261.58 79.713C261.576 79.7292 261.574 79.7456 261.57 79.7619C261.579 79.716 261.589 79.6705 261.598 79.625C261.592 79.6543 261.585 79.6835 261.58 79.713ZM261.675 79.2982C261.664 79.3401 261.654 79.3825 261.644 79.4248C261.654 79.3825 261.664 79.3402 261.675 79.2982ZM271.191 74.0084C271.143 74.0005 271.095 73.9936 271.046 73.9867C271.095 73.9936 271.143 74.0005 271.191 74.0084ZM270.841 73.9608C270.79 73.955 270.738 73.9493 270.686 73.9447C270.738 73.9493 270.79 73.9551 270.841 73.9608ZM270.356 73.9218C270.379 73.9228 270.401 73.9249 270.423 73.9261C270.269 73.9178 270.112 73.9127 269.953 73.9136L270.356 73.9218ZM45.8626 124.125C44.7306 125.606 43.3684 126.767 41.8991 127.674C42.1308 127.684 42.3633 127.699 42.5965 127.719C43.5531 126.769 44.7626 126.048 46.1583 125.674L47.7939 125.236C47.1018 124.957 46.4517 124.583 45.8626 124.125ZM157.253 94.9496C157.034 95.3591 156.781 95.747 156.497 96.1086L158.894 95.4663C158.345 95.3296 157.797 95.1581 157.253 94.9496ZM212.044 81.225L212.786 81.026C212.633 80.9646 212.481 80.8993 212.332 80.8283C212.239 80.9628 212.145 81.0962 212.044 81.225ZM192.753 79.7676L192.754 79.7674L184.058 47.3126L184.057 47.3129L192.753 79.7676ZM170.844 82.8973C170.857 82.8565 170.869 82.8152 170.882 82.774C170.869 82.8152 170.857 82.8564 170.844 82.8973ZM157.998 86.0816C158.044 86.128 158.092 86.173 158.139 86.2178C158.092 86.173 158.044 86.128 157.998 86.0816ZM170.941 82.5662C170.952 82.5227 170.964 82.4794 170.975 82.4355C170.964 82.4794 170.952 82.5227 170.941 82.5662ZM157.802 85.8764C157.853 85.9328 157.907 85.987 157.96 86.0412C157.907 85.987 157.854 85.9328 157.802 85.8764ZM157.657 85.7149C157.688 85.75 157.719 85.7842 157.75 85.8185C157.706 85.7694 157.662 85.7194 157.619 85.6687L157.657 85.7149ZM181.693 77.7509L181.694 77.7506C181.755 77.7297 181.813 77.7064 181.87 77.6832C181.813 77.7065 181.754 77.7299 181.693 77.7509ZM181.968 77.642C181.995 77.6301 182.021 77.6179 182.048 77.6054C182.021 77.6179 181.995 77.6301 181.968 77.642ZM156.527 84.021C156.593 84.1491 156.662 84.2739 156.732 84.3959L156.528 84.0208C156.462 83.8927 156.397 83.7618 156.335 83.6277L156.527 84.021ZM182.126 77.5674C182.163 77.5482 182.2 77.5278 182.236 77.5075C182.2 77.5278 182.163 77.5482 182.126 77.5674ZM182.279 77.4828C182.318 77.4596 182.357 77.4361 182.394 77.4115C182.357 77.4361 182.318 77.4596 182.279 77.4828ZM182.433 77.3848C182.494 77.3429 182.552 77.2991 182.607 77.2532C182.552 77.2991 182.494 77.3429 182.433 77.3848ZM182.645 77.2208C182.7 77.1734 182.753 77.1254 182.801 77.0739C182.753 77.1254 182.7 77.1734 182.645 77.2208ZM183.229 76.3516L183.264 76.2231C183.27 76.1931 183.274 76.162 183.279 76.1309C183.265 76.2078 183.25 76.2816 183.229 76.3516ZM33.5263 108.561C33.5622 108.613 33.5975 108.667 33.6323 108.723L33.6333 108.723C33.5509 108.59 33.4642 108.471 33.3759 108.362C33.4267 108.425 33.4774 108.491 33.5263 108.561ZM33.3461 108.326C33.2944 108.265 33.2431 108.207 33.1895 108.153C33.2431 108.207 33.2946 108.265 33.3461 108.326ZM32.701 107.787C32.7432 107.81 32.7842 107.835 32.8243 107.862C32.8664 107.888 32.9087 107.915 32.9498 107.945C32.9088 107.915 32.8672 107.887 32.8252 107.861C32.7256 107.796 32.6192 107.74 32.5068 107.692C32.5738 107.72 32.6386 107.752 32.701 107.787ZM31.8271 107.517C31.9913 107.536 32.1461 107.568 32.2916 107.613C32.3601 107.634 32.4265 107.658 32.4908 107.685C32.2897 107.601 32.0685 107.545 31.8271 107.517ZM180.079 66.8247L180.053 66.8154C180.023 66.8064 179.993 66.7991 179.962 66.7914C180.002 66.8014 180.041 66.8126 180.079 66.8247ZM179.576 66.729C179.697 66.7383 179.813 66.7558 179.925 66.7821C179.813 66.7558 179.697 66.7382 179.576 66.729ZM179.541 66.7262C179.493 66.7232 179.445 66.7222 179.395 66.7218C179.445 66.7222 179.493 66.7232 179.541 66.7262ZM179.346 66.7219C179.305 66.7224 179.264 66.7235 179.223 66.7257C179.264 66.7235 179.305 66.7223 179.346 66.7219ZM179.129 66.7315C179.104 66.7336 179.078 66.7362 179.052 66.739C179.078 66.7362 179.104 66.7336 179.129 66.7315ZM178.942 66.7524C178.88 66.7611 178.818 66.7711 178.755 66.7833C178.818 66.7711 178.88 66.761 178.942 66.7524ZM35.398 101.99C35.436 101.911 35.4711 101.832 35.5051 101.752C35.4712 101.832 35.436 101.911 35.398 101.99ZM35.5301 101.69C35.5544 101.631 35.5771 101.571 35.5991 101.51C35.5771 101.571 35.5544 101.631 35.5301 101.69ZM35.6285 101.427C35.6487 101.369 35.668 101.31 35.6862 101.25C35.668 101.31 35.6487 101.369 35.6285 101.427ZM35.7073 101.182C35.7109 101.17 35.7153 101.158 35.7188 101.145C35.7394 101.072 35.759 100.998 35.7766 100.924L35.7757 100.924C35.7551 101.011 35.7319 101.097 35.7073 101.182ZM29.8238 95.9169C29.8754 96.028 29.9251 96.1451 29.9726 96.2683C30.0674 96.514 30.1541 96.7836 30.2328 97.0771L30.1094 96.6542C29.9792 96.2495 29.8304 95.8988 29.6636 95.6019C29.7191 95.7009 29.7724 95.8059 29.8238 95.9169ZM150.559 61.7481C150.566 61.8914 150.576 62.0363 150.589 62.183L150.56 61.7479C150.554 61.6048 150.55 61.4636 150.55 61.324L150.559 61.7481ZM150.695 59.7311C150.69 59.7548 150.686 59.7786 150.682 59.8024C150.693 59.7428 150.706 59.6837 150.718 59.6249C150.711 59.6602 150.702 59.6955 150.695 59.7311ZM150.794 59.3033C150.78 59.355 150.767 59.407 150.755 59.4594C150.767 59.407 150.78 59.355 150.794 59.3033ZM150.882 58.9986C150.868 59.0439 150.854 59.0893 150.841 59.1351C150.854 59.0893 150.868 59.0439 150.882 58.9986ZM151.042 58.5482C151.021 58.601 151 58.6538 150.981 58.7073C151 58.6538 151.021 58.601 151.042 58.5482ZM151.142 58.3073C151.129 58.3349 151.119 58.3635 151.107 58.3913C151.126 58.3467 151.145 58.3017 151.165 58.2576C151.157 58.2742 151.149 58.2906 151.142 58.3073ZM151.49 57.6386C151.423 57.7494 151.36 57.8623 151.3 57.9777C151.285 58.006 151.272 58.0352 151.258 58.0637C151.273 58.035 151.286 58.0059 151.301 57.9775C151.361 57.8622 151.424 57.7492 151.49 57.6386ZM151.965 56.9593C151.805 57.159 151.657 57.3674 151.522 57.5855C151.656 57.3674 151.805 57.159 151.965 56.9593ZM152.548 56.3291C152.353 56.5125 152.173 56.7053 152.006 56.9079C152.173 56.7053 152.353 56.5125 152.548 56.3291ZM152.667 56.2184C152.637 56.2453 152.608 56.2733 152.578 56.3006C152.658 56.2267 152.74 56.155 152.824 56.0843C152.771 56.1289 152.718 56.1725 152.667 56.2184ZM152.959 55.9702C152.942 55.984 152.925 55.9983 152.908 56.0123C152.992 55.9432 153.08 55.8767 153.169 55.8108C153.098 55.8633 153.027 55.9156 152.959 55.9702ZM153.271 55.7349C153.262 55.741 153.254 55.7468 153.245 55.7529C153.36 55.6703 153.479 55.5907 153.601 55.5131L153.271 55.7349ZM47.8259 148.345C47.8652 148.264 47.9017 148.181 47.9366 148.098C47.9018 148.181 47.8652 148.264 47.8259 148.345Z" fill="#1C1456"/>
<g filter="url(#filter0_iii_2420_20192)">
<path d="M147.013 42.3468C149.142 41.7764 151.452 41.5203 153.77 41.8183C154.673 41.0123 155.772 40.3982 157.021 40.0635L162.121 38.6971C164.696 38.0071 167.314 38.6568 169.237 40.2176C170.122 37.9044 172.064 36.0331 174.639 35.3429L179.739 33.9762C180.217 33.8483 180.696 33.7686 181.172 33.7299C181.603 33.5254 182.058 33.3548 182.536 33.2268L190.047 31.2144C192.601 30.5299 195.5 30.2452 198.374 30.9071C199.421 29.4198 200.974 28.2866 202.842 27.7858L210.307 25.7855L210.663 25.6983C211.57 25.4988 212.483 25.4652 213.366 25.5756C214.177 24.9628 215.106 24.4997 216.115 24.2293L221.401 22.8131C222.804 22.437 224.242 22.459 225.578 22.8241C226.553 21.8397 227.787 21.1019 229.19 20.7259L233.919 19.4589C236.409 18.7917 239.068 19.3643 241.062 20.9985C243.055 22.6327 244.139 25.1276 243.974 27.6998L243.695 32.0075C243.83 31.9638 243.966 31.9228 244.104 31.8858L290.469 19.4624C294.737 18.3189 299.123 20.8516 300.267 25.1193L301.385 29.2924C302.528 33.56 299.996 37.9468 295.728 39.0904L249.364 51.5137C249.347 51.5182 249.329 51.521 249.312 51.5254L251.7 55.0833C253.139 57.2274 253.454 59.9346 252.547 62.3521C252.155 63.3955 251.555 64.3282 250.801 65.1068C251.13 65.1333 251.455 65.181 251.775 65.2472C253.632 63.8364 255.758 62.902 257.898 62.3286C260.026 61.7583 262.336 61.5013 264.654 61.7992C265.557 60.9934 266.657 60.38 267.906 60.0454L273.005 58.679C274.03 58.4044 275.062 58.3431 276.054 58.4657C276.852 57.8634 277.776 57.4007 278.801 57.1261L283.994 55.7347C284.467 55.6079 284.941 55.5279 285.413 55.4888C285.84 55.2871 286.291 55.119 286.764 54.9923L291.308 53.7748C292.228 53.5282 293.155 53.4528 294.052 53.5287C294.796 53.012 295.635 52.6152 296.548 52.3708L302.946 50.6563C307.214 49.5131 311.6 52.0456 312.744 56.3132L321.44 88.7679C322.584 93.0355 320.051 97.4222 315.783 98.5659L311.192 99.796C310.06 100.099 308.919 100.141 307.833 99.9632C306.975 100.665 305.964 101.197 304.841 101.498L299.601 102.902C299.128 103.029 298.654 103.107 298.183 103.147C297.755 103.348 297.304 103.517 296.831 103.644L291.638 105.036C290.613 105.31 289.581 105.371 288.589 105.248C287.791 105.85 286.867 106.314 285.842 106.589L280.743 107.955C279.5 108.288 278.246 108.307 277.066 108.064C275.196 109.482 273.059 110.411 270.934 110.981C268.797 111.553 266.483 111.814 264.159 111.525C263.259 112.323 262.167 112.932 260.926 113.265L256.336 114.495C255.204 114.798 254.063 114.84 252.976 114.662C252.118 115.364 251.107 115.896 249.984 116.197L244.745 117.6C244.515 117.662 244.284 117.711 244.054 117.751C243.829 117.834 243.601 117.907 243.367 117.97L238.128 119.374C236.983 119.68 235.812 119.722 234.691 119.527C233.827 120.249 232.796 120.802 231.636 121.113L226.491 122.492C225.331 122.803 224.162 122.84 223.051 122.646C222.178 123.374 221.144 123.924 219.999 124.231L214.76 125.635C213.663 125.929 212.534 125.98 211.444 125.808C210.586 126.502 209.583 127.022 208.485 127.316L203.246 128.72C202.092 129.029 200.912 129.069 199.784 128.869C198.915 129.6 197.878 130.159 196.708 130.472L191.609 131.838C190.066 132.252 188.508 132.183 187.093 131.727C186.096 132.829 184.782 133.668 183.239 134.081L169.331 137.808C168.858 137.934 168.383 138.013 167.912 138.052C167.485 138.254 167.034 138.423 166.562 138.55L161.972 139.78C160.839 140.083 159.698 140.125 158.612 139.947C157.754 140.649 156.742 141.181 155.62 141.482L150.381 142.885C149.908 143.012 149.433 143.091 148.961 143.13C148.534 143.332 148.083 143.501 147.61 143.628L142.418 145.019C141.392 145.294 140.36 145.354 139.368 145.232C138.57 145.834 137.647 146.297 136.622 146.572L131.522 147.939C131.282 148.003 131.041 148.054 130.8 148.096C130.577 148.177 130.35 148.253 130.118 148.315L124.971 149.694C123.511 150.085 122.026 150.044 120.659 149.644C119.676 150.673 118.411 151.452 116.951 151.843L112.267 153.098C112.037 153.159 111.805 153.207 111.572 153.248C111.346 153.331 111.114 153.407 110.877 153.47L106.055 154.762C105.449 154.925 104.841 155.011 104.24 155.03C103.708 155.315 103.137 155.544 102.532 155.707L97.7096 156.999C97.057 157.173 96.3991 157.26 95.7489 157.269C95.181 157.587 94.5654 157.841 93.9081 158.017L89.4567 159.21C88.9839 159.337 88.5093 159.415 88.0381 159.455C87.6108 159.656 87.1607 159.825 86.6882 159.952L82.0982 161.182C80.9654 161.485 79.8246 161.527 78.7379 161.349C77.8801 162.051 76.8684 162.583 75.7461 162.884L70.5071 164.287C70.0339 164.414 69.559 164.493 69.0875 164.532C68.6599 164.734 68.2095 164.903 67.7366 165.03L62.5438 166.421C61.5185 166.696 60.4864 166.757 59.494 166.634C58.6962 167.236 57.773 167.7 56.7483 167.974L51.6479 169.341C50.2831 169.706 48.9065 169.694 47.6273 169.372C45.8052 170.623 43.7809 171.449 41.8057 171.978L33.7849 174.127C29.5172 175.271 25.1305 172.738 23.9869 168.47L15.2907 136.016C14.471 132.956 15.5405 129.835 17.784 127.892C14.8698 127.331 12.3833 125.165 11.5636 122.106L2.8674 89.6511C1.72388 85.3834 4.2566 80.9968 8.52426 79.8532L16.2205 77.791C19.4247 76.9324 23.4617 76.5355 27.262 78.2446C28.15 75.9387 30.0898 74.0747 32.6592 73.3862L37.7595 72.0196C38.7843 71.745 39.8156 71.685 40.8075 71.8075C41.6056 71.205 42.5298 70.7414 43.5551 70.4667L48.7479 69.0753C49.9235 68.7603 51.1076 68.7262 52.231 68.9286C53.1064 68.1888 54.151 67.6276 55.3198 67.3143L62.785 65.3141L63.1407 65.2268C64.1975 64.9944 65.2615 64.9851 66.2787 65.1695C67.1527 64.4278 68.2005 63.863 69.3814 63.5466L74.4345 62.1926C75.1577 61.9988 75.8846 61.9133 76.5982 61.9212C77.2123 61.5574 77.8844 61.2682 78.6076 61.0744L83.708 59.7077C84.4227 59.5162 85.1407 59.4305 85.8463 59.4361C86.4545 59.0784 87.1192 58.7937 87.8339 58.6022L92.9805 57.2232C93.4542 57.0962 93.9299 57.0168 94.402 56.9778C94.8306 56.7753 95.2825 56.6064 95.7566 56.4793L100.3 55.2618C101.221 55.0151 102.147 54.9406 103.045 55.0167C103.788 54.5001 104.627 54.1025 105.539 53.858L111.938 52.1436C112.272 52.0539 112.608 51.9895 112.943 51.9441C113.258 51.8141 113.584 51.7026 113.918 51.6131L119.204 50.1966L119.519 50.1184C120.821 49.825 122.144 49.8701 123.38 50.2079C124.355 49.2234 125.589 48.4857 126.993 48.1097L131.722 46.8424C133.952 46.2449 136.316 46.6455 138.218 47.9095C140.512 44.9386 143.746 43.2222 147.013 42.3468ZM297.531 95.1745L297.532 95.1742L288.835 62.7195L288.834 62.7197L297.531 95.1745ZM302.824 68.5648L309.122 92.0686L309.123 92.0684L302.824 68.5617L302.824 68.5648ZM261.194 101.454C261.279 101.552 261.366 101.646 261.454 101.738C261.278 101.555 261.108 101.359 260.946 101.152L261.194 101.454ZM38.602 150.683C38.6378 150.735 38.6732 150.789 38.708 150.845L38.7089 150.845C38.6265 150.712 38.5399 150.592 38.4515 150.484C38.5023 150.547 38.553 150.613 38.602 150.683ZM203.031 101.577L206.039 105.638L206.613 100.618L203.844 97.445L203.031 101.577ZM38.4218 150.448C38.3701 150.387 38.3187 150.328 38.2651 150.275C38.3188 150.328 38.3702 150.387 38.4218 150.448ZM37.7767 149.908C37.8188 149.932 37.8598 149.957 37.8999 149.984C37.9421 150.01 37.9843 150.037 38.0255 150.067C37.9845 150.037 37.9429 150.009 37.9009 149.983C37.8013 149.918 37.6949 149.862 37.5825 149.814C37.6494 149.842 37.7143 149.874 37.7767 149.908ZM36.9028 149.639C37.0669 149.658 37.2217 149.69 37.3673 149.735C37.4358 149.756 37.5021 149.78 37.5665 149.807C37.3653 149.723 37.1442 149.667 36.9028 149.639ZM40.5978 143.832C40.6285 143.757 40.6569 143.682 40.6841 143.606C40.6569 143.682 40.6284 143.757 40.5978 143.832ZM40.8513 143.046C40.8089 143.225 40.7563 143.4 40.6967 143.57C40.7316 143.471 40.7654 143.37 40.7944 143.267C40.8151 143.194 40.8346 143.12 40.8523 143.046L40.8513 143.046ZM265.425 81.2407C265.418 81.4228 265.398 81.5935 265.363 81.7527L265.393 81.5899C265.41 81.4789 265.421 81.3628 265.425 81.2416L265.425 81.2407ZM34.8995 138.039C34.9511 138.15 35.0007 138.267 35.0482 138.39C35.143 138.636 35.2298 138.905 35.3084 139.199L35.185 138.776C35.0548 138.371 34.9061 138.021 34.7393 137.724C34.7947 137.823 34.848 137.928 34.8995 138.039ZM260.51 74.9305C260.424 74.9702 260.341 75.0128 260.262 75.0588C260.421 74.9666 260.594 74.8872 260.781 74.8206L260.51 74.9305ZM254.232 75.4704C254.229 75.4866 254.226 75.503 254.223 75.5193C254.231 75.4734 254.241 75.4278 254.251 75.3824C254.245 75.4117 254.238 75.4409 254.232 75.4704ZM254.327 75.0556C254.316 75.0975 254.306 75.1399 254.296 75.1822C254.306 75.1398 254.316 75.0975 254.327 75.0556ZM263.844 69.7658C263.796 69.7579 263.747 69.751 263.698 69.7441C263.747 69.751 263.796 69.7579 263.844 69.7658ZM263.493 69.7182C263.442 69.7124 263.39 69.7067 263.338 69.702C263.39 69.7067 263.442 69.7124 263.493 69.7182ZM263.009 69.6792C263.031 69.6802 263.053 69.6823 263.076 69.6835C262.921 69.6752 262.764 69.6701 262.605 69.671L263.009 69.6792ZM38.515 119.883C37.383 121.363 36.0208 122.525 34.5514 123.432C34.7831 123.441 35.0156 123.456 35.2489 123.476C36.2055 122.526 37.415 121.805 38.8106 121.431L40.4463 120.993C39.7542 120.715 39.1041 120.34 38.515 119.883ZM149.906 90.7069C149.686 91.1165 149.434 91.5044 149.15 91.8659L151.547 91.2237C150.997 91.087 150.45 90.9155 149.906 90.7069ZM204.696 76.9823L205.438 76.7834C205.285 76.722 205.134 76.6567 204.984 76.5857C204.891 76.7202 204.797 76.8536 204.696 76.9823ZM185.406 75.525L185.407 75.5247L176.71 43.07L176.71 43.0703L185.406 75.525ZM163.497 78.6547C163.51 78.6138 163.522 78.5726 163.534 78.5313C163.522 78.5726 163.51 78.6138 163.497 78.6547ZM150.651 81.839C150.697 81.8854 150.744 81.9304 150.791 81.9752C150.744 81.9303 150.697 81.8854 150.651 81.839ZM163.593 78.3236C163.605 78.2801 163.617 78.2368 163.628 78.1929C163.617 78.2368 163.605 78.2801 163.593 78.3236ZM150.454 81.6338C150.506 81.6902 150.559 81.7444 150.612 81.7986C150.559 81.7444 150.506 81.6902 150.454 81.6338ZM150.31 81.4723C150.34 81.5074 150.371 81.5416 150.402 81.5759C150.358 81.5268 150.314 81.4768 150.271 81.4261L150.31 81.4723ZM174.346 73.5083L174.347 73.508C174.407 73.4871 174.466 73.4638 174.523 73.4406C174.465 73.4639 174.407 73.4872 174.346 73.5083ZM174.62 73.3994C174.647 73.3875 174.674 73.3753 174.7 73.3628C174.674 73.3753 174.647 73.3875 174.62 73.3994ZM149.179 79.7784C149.246 79.9065 149.314 80.0312 149.384 80.1533L149.18 79.7782C149.114 79.6501 149.05 79.5192 148.987 79.3851L149.179 79.7784ZM174.778 73.3248C174.816 73.3055 174.852 73.2852 174.888 73.2649C174.852 73.2852 174.816 73.3056 174.778 73.3248ZM174.931 73.2402C174.971 73.217 175.009 73.1935 175.046 73.1689C175.009 73.1935 174.971 73.217 174.931 73.2402ZM175.086 73.1421C175.147 73.1003 175.205 73.0565 175.26 73.0106C175.205 73.0564 175.147 73.1002 175.086 73.1421ZM175.298 72.9782C175.352 72.9308 175.405 72.8828 175.453 72.8313C175.405 72.8828 175.352 72.9308 175.298 72.9782ZM175.882 72.109L175.916 71.9805C175.923 71.9505 175.926 71.9194 175.932 71.8883C175.918 71.9652 175.903 72.039 175.882 72.109ZM26.1787 104.319C26.2145 104.37 26.2498 104.424 26.2847 104.48L26.2856 104.48C26.2032 104.347 26.1166 104.228 26.0282 104.119C26.079 104.182 26.1297 104.248 26.1787 104.319ZM25.9985 104.084C25.9468 104.022 25.8954 103.964 25.8418 103.911C25.8954 103.964 25.9469 104.022 25.9985 104.084ZM25.3534 103.544C25.3955 103.568 25.4365 103.593 25.4766 103.619C25.5188 103.645 25.561 103.672 25.6021 103.703C25.5612 103.673 25.5196 103.645 25.4776 103.619C25.3779 103.553 25.2716 103.497 25.1592 103.449C25.2261 103.478 25.2909 103.509 25.3534 103.544ZM24.4795 103.275C24.6436 103.294 24.7984 103.326 24.9439 103.371C25.0124 103.392 25.0788 103.416 25.1432 103.443C24.942 103.359 24.7209 103.302 24.4795 103.275ZM172.731 62.5821L172.706 62.5728C172.676 62.5638 172.645 62.5565 172.614 62.5488C172.654 62.5588 172.693 62.57 172.731 62.5821ZM172.229 62.4863C172.349 62.4957 172.465 62.5132 172.577 62.5395C172.465 62.5132 172.349 62.4956 172.229 62.4863ZM172.193 62.4836C172.146 62.4806 172.097 62.4796 172.048 62.4792C172.097 62.4796 172.146 62.4806 172.193 62.4836ZM171.998 62.4793C171.957 62.4797 171.916 62.4808 171.875 62.483C171.916 62.4809 171.958 62.4797 171.998 62.4793ZM171.781 62.4889C171.756 62.491 171.73 62.4936 171.705 62.4963C171.73 62.4936 171.756 62.491 171.781 62.4889ZM171.594 62.5098C171.532 62.5184 171.47 62.5285 171.407 62.5407C171.47 62.5285 171.532 62.5184 171.594 62.5098ZM28.0504 97.747C28.0884 97.6689 28.1235 97.5893 28.1575 97.5091C28.1235 97.5893 28.0884 97.6689 28.0504 97.747ZM28.1825 97.4478C28.2067 97.3883 28.2294 97.3281 28.2515 97.2675C28.2294 97.3281 28.2067 97.3883 28.1825 97.4478ZM28.2809 97.1848C28.3011 97.1262 28.3203 97.0672 28.3385 97.0076C28.3204 97.0672 28.301 97.1262 28.2809 97.1848ZM28.3596 96.9393C28.3632 96.9271 28.3677 96.9151 28.3711 96.9028C28.3918 96.8297 28.4113 96.7558 28.429 96.6811L28.428 96.6813C28.4074 96.7684 28.3843 96.8543 28.3596 96.9393ZM22.4762 91.6742C22.5277 91.7854 22.5774 91.9025 22.6249 92.0256C22.7197 92.2714 22.8065 92.541 22.8851 92.8345L22.7617 92.4116C22.6315 92.0069 22.4827 91.6562 22.3159 91.3593C22.3714 91.4583 22.4247 91.5633 22.4762 91.6742ZM143.211 57.5055C143.218 57.6487 143.228 57.7937 143.241 57.9404L143.212 57.5053C143.206 57.3622 143.202 57.221 143.202 57.0814L143.211 57.5055ZM143.347 55.4885C143.343 55.5122 143.339 55.536 143.334 55.5598C143.345 55.5002 143.358 55.4411 143.37 55.3822C143.363 55.4176 143.354 55.4529 143.347 55.4885ZM143.446 55.0607C143.432 55.1124 143.419 55.1644 143.407 55.2168C143.419 55.1644 143.432 55.1124 143.446 55.0607ZM143.534 54.756C143.52 54.8013 143.506 54.8467 143.493 54.8924C143.506 54.8467 143.52 54.8012 143.534 54.756ZM143.695 54.3056C143.674 54.3584 143.653 54.4111 143.633 54.4646C143.653 54.4111 143.674 54.3583 143.695 54.3056ZM143.794 54.0647C143.782 54.0923 143.772 54.1208 143.76 54.1486C143.779 54.104 143.797 54.0591 143.817 54.015C143.809 54.0316 143.801 54.048 143.794 54.0647ZM144.142 53.396C144.076 53.5068 144.012 53.6196 143.952 53.7351C143.938 53.7634 143.925 53.7926 143.911 53.8211C143.925 53.7924 143.938 53.7633 143.953 53.7349C144.013 53.6196 144.076 53.5066 144.142 53.396ZM144.618 52.7167C144.457 52.9164 144.309 53.1248 144.175 53.3429C144.309 53.1248 144.457 52.9164 144.618 52.7167ZM145.2 52.0865C145.006 52.2699 144.825 52.4627 144.658 52.6653C144.825 52.4627 145.006 52.2699 145.2 52.0865ZM145.319 51.9758C145.289 52.0027 145.26 52.0307 145.231 52.058C145.31 51.9841 145.392 51.9124 145.476 51.8416C145.423 51.8863 145.37 51.9299 145.319 51.9758ZM145.611 51.7276C145.594 51.7414 145.577 51.7557 145.56 51.7696C145.644 51.7006 145.732 51.6341 145.821 51.5682C145.75 51.6207 145.679 51.673 145.611 51.7276ZM145.923 51.4923C145.915 51.4983 145.906 51.5042 145.898 51.5103C146.012 51.4277 146.131 51.3481 146.253 51.2705L145.923 51.4923ZM40.4783 144.102C40.5175 144.021 40.5541 143.939 40.589 143.855C40.5541 143.939 40.5175 144.021 40.4783 144.102Z" fill="#E54B39"/>
</g>
<path d="M18.2914 85.5179C20.9496 84.8056 23.0317 84.9103 24.5375 85.832C26.0743 86.7453 27.1781 88.4539 27.8489 90.9575L28.1595 92.1167C28.6068 93.7858 28.7126 95.2317 28.477 96.4543C28.2414 97.6769 27.6222 98.7042 26.6193 99.5361C28.1511 99.6889 29.3566 100.293 30.236 101.35C31.138 102.367 31.8209 103.741 32.2847 105.472L32.9928 108.115C33.6637 110.619 33.5281 112.709 32.586 114.386C31.6357 116.032 29.8778 117.199 27.3123 117.886L19.2912 120.035L10.5949 87.5801L18.2914 85.5179ZM20.4779 104.064L23.149 114.032L26.0699 113.25C26.9354 113.018 27.5224 112.612 27.8309 112.032C28.1703 111.444 28.1785 110.548 27.8555 109.342L27.0977 106.514C26.6918 104.999 26.1516 104.034 25.4771 103.619C24.8335 103.195 23.9244 103.14 22.7498 103.455L20.4779 104.064ZM16.9373 90.85L19.2356 99.4274L21.2293 98.8932C22.1875 98.6365 22.8631 98.1904 23.256 97.5551C23.6799 96.9115 23.7179 95.9405 23.37 94.6423L22.8855 92.8341C22.5708 91.6596 22.1267 90.8675 21.5531 90.458C21.0105 90.0402 20.291 89.9514 19.3946 90.1916L16.9373 90.85ZM48.5262 112.202L43.4261 113.568L34.7297 81.1132L39.8298 79.7467L43.5568 93.656L49.3524 92.1031L45.6254 78.1937L50.8182 76.8023L59.5145 109.257L54.3217 110.649L50.5947 96.7395L44.7992 98.2924L48.5262 112.202ZM78.7445 104.105L73.5981 105.484L71.1394 99.8315L64.8802 101.509L65.577 107.633L60.8942 108.888L57.3907 75.0412L64.8554 73.0411L78.7445 104.105ZM64.3491 96.9301L69.2637 95.6132L62.4086 79.8587L64.3491 96.9301ZM93.2324 95.2534L97.3589 94.1478L89.9049 66.3291L95.0513 64.9501L103.748 97.4052L80.1482 103.729L71.4518 71.2736L76.5056 69.9194L83.9595 97.7381L88.1323 96.62L80.6784 68.8013L85.7784 67.4348L93.2324 95.2534ZM111.763 95.2576L106.523 96.6615L97.827 64.2064L102.371 62.9889L107.576 82.4156L107.61 61.585L114.008 59.8706L122.705 92.3257L118.114 93.5556L111.816 70.0489L111.763 95.2576ZM133.792 54.5695L132.684 71.762L142.86 86.9252L137.481 88.3663L129.867 76.6414L129.089 90.6149L124.314 91.8945L125.544 73.6752L115.988 59.34L121.274 57.9237L128.328 68.8546L129.063 55.8366L133.792 54.5695ZM162.241 68.762L163.397 73.0739C164.101 75.7012 163.994 77.8997 163.077 79.6694C162.182 81.3999 160.483 82.6006 157.979 83.2714C155.476 83.9423 153.388 83.7562 151.717 82.7131C150.069 81.6308 148.893 79.776 148.189 77.1487L143.667 60.272C142.963 57.6447 143.058 55.4658 143.953 53.7353C144.87 51.9656 146.581 50.7453 149.084 50.0745C151.588 49.4036 153.664 49.6093 155.312 50.6916C156.983 51.7347 158.171 53.5699 158.875 56.1972L159.719 59.35L154.897 60.642L153.966 57.1647C153.651 55.9901 153.184 55.2373 152.565 54.9061C151.969 54.5358 151.269 54.4583 150.466 54.6737C149.662 54.889 149.079 55.3102 148.717 55.9373C148.378 56.5251 148.365 57.4064 148.68 58.5809L153.376 76.1067C153.691 77.2813 154.142 78.0382 154.73 78.3777C155.349 78.7088 156.06 78.7667 156.864 78.5513C157.667 78.336 158.239 77.9344 158.578 77.3465C158.949 76.7504 158.976 75.865 158.662 74.6904L157.419 70.054L162.241 68.762ZM174.057 73.5967C174.86 73.3813 175.42 72.9993 175.737 72.4506C176.054 71.902 176.055 71.0403 175.74 69.8658L174.436 64.9975C174.121 63.8229 173.689 63.0773 173.141 62.7605C172.592 62.4437 171.916 62.393 171.112 62.6083L168.701 63.2543L171.646 74.2427L174.057 73.5967ZM167.788 80.2457L159.091 47.7906L164.192 46.424L167.459 58.6179L169.87 57.9719C172.435 57.2844 174.519 57.4551 176.119 58.4838C177.751 59.5043 178.919 61.3282 179.623 63.9555L180.753 68.1747C181.457 70.802 181.358 72.9654 180.455 74.665C179.583 76.3563 177.864 77.5457 175.299 78.2331L167.788 80.2457ZM176.71 43.0697L181.81 41.7032L190.506 74.1583L185.406 75.5248L176.71 43.0697ZM192.117 38.9413C194.683 38.2539 196.766 38.4245 198.367 39.4533C199.999 40.4737 201.166 42.2976 201.87 44.9249L203.001 49.1441C203.705 51.7714 203.606 53.9349 202.703 55.6345C201.831 57.3258 200.112 58.5151 197.546 59.2026L195.135 59.8486L198.403 72.0424L193.303 73.409L184.606 40.9539L192.117 38.9413ZM190.949 44.2238L193.893 55.2121L196.304 54.5661C197.108 54.3508 197.668 53.9688 197.985 53.4201C198.302 52.8714 198.303 52.0098 197.988 50.8352L196.683 45.9669C196.369 44.7924 195.937 44.0467 195.388 43.7299C194.84 43.4131 194.163 43.3624 193.36 43.5778L190.949 44.2238ZM226.267 64.5763L221.12 65.9553L218.662 60.3031L212.402 61.9802L213.099 68.1045L208.416 69.3593L204.913 35.5128L212.378 33.5126L226.267 64.5763ZM211.871 57.4017L216.786 56.0848L209.931 40.3302L211.871 57.4017ZM235.99 27.1857L234.882 44.3783L245.057 59.5415L239.679 60.9826L232.065 49.2577L231.287 63.2312L226.511 64.5108L227.742 46.2915L218.186 31.9563L223.471 30.54L230.525 41.4709L231.261 28.4529L235.99 27.1857ZM246.175 39.613L292.54 27.1897L293.658 31.3625L247.293 43.7858L246.175 39.613ZM30.7147 131.882C33.3729 131.17 35.455 131.275 36.9608 132.196C38.4976 133.11 39.6014 134.818 40.2723 137.322L40.5828 138.481C41.0301 140.15 41.1359 141.596 40.9003 142.819C40.6647 144.041 40.0455 145.069 39.0426 145.901C40.5744 146.053 41.7799 146.658 42.6593 147.714C43.5613 148.731 44.2442 150.106 44.708 151.836L45.4162 154.479C46.087 156.983 45.9514 159.073 45.0093 160.75C44.059 162.396 42.3011 163.563 39.7356 164.25L31.7145 166.4L23.0182 133.945L30.7147 131.882ZM32.9013 150.428L35.5723 160.397L38.4932 159.614C39.3587 159.382 39.9457 158.976 40.2542 158.397C40.5936 157.809 40.6018 156.912 40.2788 155.707L39.521 152.879C39.1151 151.364 38.575 150.399 37.9004 149.983C37.2568 149.559 36.3477 149.505 35.1731 149.82L32.9013 150.428ZM29.3606 137.214L31.6589 145.792L33.6526 145.258C34.6108 145.001 35.2864 144.555 35.6793 143.92C36.1032 143.276 36.1412 142.305 35.7933 141.007L35.3088 139.199C34.9941 138.024 34.55 137.232 33.9764 136.822C33.4338 136.405 32.7143 136.316 31.8179 136.556L29.3606 137.214ZM54.6776 160.247L49.5775 161.613L40.8812 129.158L45.9813 127.792L49.7083 141.701L55.5038 140.148L51.7768 126.239L56.9696 124.847L65.666 157.302L60.4731 158.694L56.7462 144.785L50.9506 146.337L54.6776 160.247ZM73.6758 155.156L68.4366 156.56L59.7403 124.105L64.284 122.887L69.4894 142.314L69.5232 121.484L75.9215 119.769L84.6178 152.224L80.0277 153.454L73.7291 129.947L73.6758 155.156ZM95.7136 139.163L93.0165 115.189L100.11 113.288L108.807 145.743L103.985 147.035L97.7482 123.76L100.461 147.979L95.6391 149.271L85.6877 127.339L91.8372 150.29L87.3863 151.482L78.6899 119.027L85.7837 117.127L95.7136 139.163ZM128.048 140.587L122.901 141.966L120.442 136.314L114.183 137.991L114.88 144.116L110.197 145.37L106.694 111.524L114.158 109.524L128.048 140.587ZM113.652 133.413L118.567 132.096L111.712 116.341L113.652 133.413ZM134.551 138.845L129.451 140.211L120.755 107.756L125.855 106.39L129.582 120.299L135.377 118.746L131.65 104.837L136.843 103.445L145.54 135.9L140.347 137.292L136.62 123.382L130.824 124.935L134.551 138.845ZM153.549 133.754L148.31 135.158L139.614 102.703L144.158 101.485L149.363 120.912L149.397 100.082L155.795 98.3671L164.491 130.822L159.901 132.052L153.603 108.545L153.549 133.754ZM167.329 109.936L174.33 108.06L175.572 112.697L168.571 114.573L171.118 124.077L179.927 121.717L181.169 126.353L167.26 130.08L158.564 97.6253L172.473 93.8983L173.715 98.5348L164.906 100.895L167.329 109.936ZM192.749 109.386L191.967 112.776L194.638 122.744L189.538 124.111L180.842 91.6558L185.942 90.2892L189.731 104.43L192.711 88.4754L197.719 87.1337L194.501 103.5L206.415 119.589L201.176 120.993L192.749 109.386ZM217.929 116.504L212.69 117.908L214.963 98.0173L203.993 85.4524L209.001 84.1107L219.488 96.3577L215.724 82.3093L220.87 80.9303L224.634 94.9787L227.593 79.1289L232.6 77.7872L229.383 94.1537L241.297 110.242L236.057 111.646L227.63 100.04L226.871 103.324L229.566 113.385L224.42 114.764L221.724 104.703L219.424 102.239L217.929 116.504ZM247.914 108.469L242.675 109.873L233.978 77.418L238.522 76.2005L243.727 95.6272L243.761 74.7967L250.159 73.0823L258.856 105.537L254.266 106.767L247.967 83.2605L247.914 108.469ZM264.708 77.7311C264.319 76.2783 263.811 75.371 263.184 75.0089C262.58 74.6077 261.875 74.5147 261.072 74.7301C260.268 74.9454 259.685 75.3666 259.323 75.9937C258.984 76.5816 258.972 77.4628 259.286 78.6374L260.218 82.1147L255.396 83.4067L254.551 80.2539C253.847 77.6266 253.943 75.4477 254.837 73.7172C255.754 71.9475 257.465 70.7272 259.969 70.0564C262.472 69.3855 264.548 69.5912 266.197 70.6735C267.867 71.7166 269.055 73.5518 269.759 76.1791L269.982 77.0136C270.91 80.4755 270.316 83.0199 268.201 84.6467C269.649 84.8552 270.792 85.4764 271.633 86.5101C272.495 87.5047 273.15 88.8366 273.598 90.5057L274.281 93.0557C274.985 95.6831 274.878 97.8816 273.961 99.6513C273.067 101.382 271.367 102.582 268.864 103.253C266.36 103.924 264.273 103.738 262.602 102.695C260.954 101.613 259.777 99.7579 259.073 97.1306L257.98 93.0505L262.802 91.7585L263.982 96.1631C264.297 97.3377 264.752 98.1101 265.349 98.4804C265.967 98.8116 266.679 98.8695 267.482 98.6541C268.286 98.4388 268.853 98.0217 269.184 97.4029C269.546 96.7759 269.533 95.736 269.144 94.2832L268.46 91.7332C268.054 90.2186 267.506 89.2226 266.815 88.7452C266.124 88.2678 265.191 88.1865 264.016 88.5012L263.228 88.7124L261.986 84.076L263.052 83.7902C264.01 83.5335 264.686 83.0874 265.079 82.4521C265.503 81.8084 265.541 80.8375 265.193 79.5393L264.708 77.7311ZM283.772 98.861L278.672 100.228L269.976 67.7725L275.076 66.4059L278.803 80.3152L284.598 78.7623L280.871 64.853L286.064 63.4616L294.761 95.9167L289.568 97.3081L285.841 83.3988L280.045 84.9517L283.772 98.861ZM302.77 93.7705L297.531 95.1743L288.835 62.7192L293.379 61.5017L298.584 80.9284L298.618 60.0979L305.016 58.3835L313.712 90.8386L309.122 92.0685L302.824 68.5617L302.77 93.7705Z" fill="white"/>
<defs>
<filter id="filter0_iii_2420_20192" x="0.59375" y="17.186" width="323.121" height="159.216" filterUnits="userSpaceOnUse" color-interpolation-filters="sRGB">
<feFlood flood-opacity="0" result="BackgroundImageFix"/>
<feBlend mode="normal" in="SourceGraphic" in2="BackgroundImageFix" result="shape"/>
<feColorMatrix in="SourceAlpha" type="matrix" values="0 0 0 0 0 0 0 0 0 0 0 0 0 0 0 0 0 0 127 0" result="hardAlpha"/>
<feOffset dx="2" dy="2"/>
<feGaussianBlur stdDeviation="2"/>
<feComposite in2="hardAlpha" operator="arithmetic" k2="-1" k3="1"/>
<feColorMatrix type="matrix" values="0 0 0 0 0.94902 0 0 0 0 0.540941 0 0 0 0 0.638324 0 0 0 1 0"/>
<feBlend mode="normal" in2="shape" result="effect1_innerShadow_2420_20192"/>
<feColorMatrix in="SourceAlpha" type="matrix" values="0 0 0 0 0 0 0 0 0 0 0 0 0 0 0 0 0 0 127 0" result="hardAlpha"/>
<feOffset dx="-2" dy="-2"/>
<feGaussianBlur stdDeviation="2"/>
<feComposite in2="hardAlpha" operator="arithmetic" k2="-1" k3="1"/>
<feColorMatrix type="matrix" values="0 0 0 0 0.75 0 0 0 0 0.204545 0 0 0 0 0.334711 0 0 0 1 0"/>
<feBlend mode="normal" in2="effect1_innerShadow_2420_20192" result="effect2_innerShadow_2420_20192"/>
<feColorMatrix in="SourceAlpha" type="matrix" values="0 0 0 0 0 0 0 0 0 0 0 0 0 0 0 0 0 0 127 0" result="hardAlpha"/>
<feOffset dx="2" dy="2"/>
<feGaussianBlur stdDeviation="2"/>
<feComposite in2="hardAlpha" operator="arithmetic" k2="-1" k3="1"/>
<feColorMatrix type="matrix" values="0 0 0 0 0.944286 0 0 0 0 0.614286 0 0 0 0 0.575714 0 0 0 1 0"/>
<feBlend mode="normal" in2="effect2_innerShadow_2420_20192" result="effect3_innerShadow_2420_20192"/>
</filter>
</defs>
</svg>
