<svg width="453" height="246" viewBox="0 0 453 246" fill="none" xmlns="http://www.w3.org/2000/svg">
<path d="M258.074 61.7277C258.533 61.6049 258.993 61.5268 259.45 61.4864C259.866 61.2927 260.305 61.13 260.763 61.0071L265.492 59.7401C269.274 58.7267 273.148 60.601 274.777 64.0108L277.717 63.2229C280.255 62.5431 283.131 62.2573 285.986 62.9019C288.169 60.6508 290.948 59.2795 293.752 58.5282C295.626 58.0259 297.642 57.767 299.679 57.9156C300.464 57.3343 301.368 56.8859 302.368 56.6177L318.133 52.3937C318.369 52.3303 318.607 52.2796 318.844 52.2384C319.07 52.1554 319.302 52.0805 319.539 52.0169L327.236 49.9544C329.206 49.4266 331.491 49.0748 333.842 49.2774C334.798 48.3273 336.006 47.6045 337.402 47.2305L351.312 43.5034C355.579 42.3599 359.966 44.8925 361.11 49.1603L362.352 53.7965C362.516 54.4083 362.602 55.0225 362.621 55.6293L407.98 43.4754C412.247 42.3319 416.634 44.8645 417.777 49.1322L418.896 53.3053C420.039 57.573 417.506 61.9598 413.239 63.1033L367.88 75.2572C368.167 75.7919 368.4 76.367 368.564 76.9787L369.806 81.615C370.949 85.8827 368.417 90.2694 364.149 91.4129L350.239 95.14C348.875 95.5055 347.499 95.4933 346.22 95.1707C344.398 96.4219 342.373 97.2477 340.398 97.777L332.376 99.9264C331.168 100.25 329.951 100.278 328.8 100.057C328.629 100.205 328.451 100.345 328.267 100.479C330.937 101.195 333.163 103.274 333.93 106.136L342.626 138.591C343.77 142.859 341.237 147.245 336.969 148.389L332.147 149.681C331.541 149.843 330.933 149.929 330.331 149.948C329.799 150.233 329.228 150.463 328.623 150.625L323.802 151.917C323.149 152.092 322.491 152.179 321.84 152.188C321.273 152.506 320.657 152.76 320 152.936L315.548 154.129C315.071 154.257 314.591 154.336 314.115 154.374C313.683 154.579 313.228 154.75 312.751 154.878L307.651 156.245C306.67 156.508 305.682 156.574 304.729 156.472C304.289 156.793 303.812 157.072 303.305 157.3C302.573 159.94 300.505 162.135 297.667 162.895L292.474 164.287C289.736 165.02 286.95 164.239 285.002 162.459C284.205 164.975 282.184 167.044 279.446 167.777L274.253 169.169C271.58 169.885 268.861 169.159 266.921 167.469C266.335 167.685 265.742 167.871 265.149 168.031C262.829 168.652 260.318 168.904 257.812 168.502C256.854 169.455 255.644 170.18 254.246 170.555L249.147 171.921C248.671 172.048 248.194 172.128 247.72 172.167C247.291 172.37 246.838 172.54 246.363 172.667L241.264 174.033C239.29 174.562 237.291 174.303 235.599 173.451C234.733 174.327 233.763 175.081 232.706 175.708C232.696 175.715 232.685 175.721 232.674 175.727C232.664 175.733 232.655 175.74 232.645 175.746L232.643 175.746C231.185 176.612 229.634 177.248 228.028 177.679L226.776 178.014C225.982 178.227 225.193 178.369 224.432 178.46C223.683 178.551 222.941 178.534 222.226 178.421C221.369 179.113 220.367 179.633 219.271 179.926L214.032 181.33C212.878 181.639 211.698 181.679 210.57 181.479C209.701 182.21 208.663 182.769 207.494 183.082L202.394 184.448C200.029 185.082 197.627 184.585 195.761 183.291C193.435 186.134 190.21 187.713 187.128 188.539L179.618 190.551C178.41 190.875 177.191 190.903 176.04 190.682C175.155 191.449 174.086 192.033 172.878 192.357L167.779 193.723C165.795 194.255 163.787 193.991 162.089 193.13C159.856 195.581 156.93 197.028 154.029 197.805C151.153 198.576 147.956 198.783 144.844 197.842C142.615 200.205 139.747 201.632 136.849 202.409C134.928 202.923 132.876 203.183 130.804 203.03C129.999 203.635 129.077 204.094 128.076 204.362L122.837 205.766C121.682 206.075 120.503 206.114 119.374 205.915C118.506 206.646 117.469 207.204 116.3 207.517L111.199 208.884C109.991 209.208 108.773 209.236 107.622 209.014C106.736 209.781 105.668 210.366 104.46 210.69L99.3601 212.056C95.5563 213.075 91.6593 211.173 90.0471 207.726C89.5983 209.308 88.8881 211.012 87.714 212.553C87.6671 212.615 87.6196 212.676 87.5709 212.736C86.1385 214.507 84.2647 215.881 82.028 216.673L82.0292 216.674C82.0249 216.675 82.0202 216.676 82.0159 216.677C82.0127 216.678 82.0093 216.681 82.0061 216.682L82.0049 216.681C81.0151 217.032 79.9574 217.354 78.8486 217.651L77.5969 217.987C76.8027 218.199 76.0133 218.341 75.2526 218.433C74.9032 218.475 74.5557 218.492 74.2119 218.488C73.5995 218.85 72.9293 219.138 72.2086 219.331L67.1082 220.698C62.8406 221.841 58.4537 219.309 57.3102 215.041L55.9603 210.003C53.4671 209.959 50.9156 209.341 48.5156 207.843C48.4638 207.81 48.4118 207.777 48.3607 207.744C44.5393 205.234 42.5144 201.365 41.4958 197.563L38.2284 185.369C37.3421 182.062 38.6655 178.683 41.2921 176.798C38.6362 176.074 36.4245 174 35.6606 171.149L26.9644 138.694C25.8209 134.427 28.3537 130.04 32.6213 128.896L40.3176 126.834C43.5217 125.975 47.5588 125.579 51.359 127.288C52.247 124.982 54.1869 123.118 56.7562 122.429L61.8566 121.063C62.8813 120.788 63.9126 120.728 64.9046 120.851C65.7026 120.248 66.6269 119.785 67.6521 119.51L72.8449 118.118C74.0205 117.803 75.2047 117.769 76.328 117.972C77.2034 117.232 78.248 116.671 79.4168 116.357L86.882 114.357L87.2377 114.27C88.2944 114.037 89.3586 114.028 90.3757 114.213C91.2497 113.471 92.2976 112.906 93.4784 112.59L98.5316 111.236C99.2546 111.042 99.9817 110.956 100.695 110.964C101.309 110.601 101.981 110.311 102.705 110.117L107.805 108.751C108.52 108.559 109.238 108.474 109.943 108.479C110.552 108.122 111.216 107.837 111.931 107.645L117.078 106.266C117.551 106.139 118.027 106.06 118.499 106.021C118.928 105.818 119.38 105.649 119.854 105.522L133.762 101.796C134.118 101.7 134.475 101.632 134.831 101.587C135.161 101.449 135.504 101.329 135.86 101.233L142.954 99.3327C144.253 98.9847 145.572 98.9772 146.811 99.2617C147.741 98.3964 148.888 97.7428 150.187 97.3946L157.28 95.4939C158.971 95.0408 160.68 95.1675 162.199 95.748C163.225 94.4851 164.643 93.5213 166.334 93.068L182.423 88.7571C183.598 88.4421 184.783 88.408 185.906 88.6103C186.781 87.8707 187.826 87.3094 188.995 86.9961L196.46 84.9958L196.816 84.9086C197.872 84.6762 198.936 84.6668 199.954 84.8513C200.828 84.1097 201.876 83.5447 203.056 83.2283L210.567 81.2159C212.083 80.8097 213.72 80.545 215.402 80.5341C216.204 79.9241 217.136 79.4558 218.17 79.1787L233.934 74.9547C234.171 74.8913 234.408 74.8406 234.645 74.7994C234.872 74.7163 235.104 74.6412 235.341 74.5776L240.441 73.2112C241.466 72.9366 242.497 72.8763 243.49 72.9989C244.287 72.3965 245.211 71.933 246.236 71.6583L247.44 71.3358C247.146 67.5686 249.563 64.0086 253.345 62.995L258.074 61.7277ZM272.182 161.442L272.183 161.441L269.947 153.096L269.946 153.096L272.182 161.442ZM137.216 193.727L137.269 193.699C137.304 193.68 137.337 193.658 137.371 193.639C137.32 193.668 137.268 193.698 137.216 193.727ZM265.516 159.349L265.569 159.321C265.604 159.302 265.637 159.28 265.671 159.261C265.62 159.29 265.568 159.32 265.516 159.349ZM137.491 193.568C137.531 193.544 137.571 193.52 137.61 193.496C137.571 193.52 137.531 193.544 137.491 193.568ZM265.792 159.19C265.831 159.166 265.871 159.142 265.91 159.118C265.871 159.142 265.831 159.166 265.792 159.19ZM313.478 146.401L313.479 146.401L304.782 113.946L304.782 113.947L313.478 146.401ZM137.745 193.41C137.79 193.381 137.833 193.352 137.877 193.322C137.833 193.352 137.79 193.381 137.745 193.41ZM266.046 159.032C266.09 159.003 266.133 158.974 266.177 158.944C266.133 158.974 266.09 159.003 266.046 159.032ZM139.295 192.041C139.319 192.012 139.342 191.983 139.365 191.954C139.342 191.983 139.319 192.012 139.295 192.041ZM267.595 157.663C267.619 157.634 267.642 157.605 267.665 157.576C267.642 157.605 267.619 157.634 267.595 157.663ZM139.523 191.748C139.54 191.724 139.558 191.702 139.575 191.678C139.558 191.702 139.54 191.724 139.523 191.748ZM267.823 157.37C267.841 157.346 267.859 157.324 267.876 157.3C267.859 157.324 267.841 157.346 267.823 157.37ZM139.74 191.435C139.75 191.418 139.763 191.403 139.773 191.386L139.779 191.376C139.767 191.396 139.752 191.415 139.74 191.435ZM268.04 157.057C268.05 157.04 268.063 157.025 268.073 157.008L268.08 156.998C268.067 157.018 268.053 157.037 268.04 157.057ZM268.915 154.885C268.861 155.141 268.794 155.389 268.714 155.632L268.825 155.263C268.892 155.014 268.946 154.759 268.987 154.497L268.915 154.885ZM140.615 189.263C140.588 189.391 140.558 189.517 140.525 189.641L140.616 189.263C140.643 189.135 140.666 189.006 140.687 188.875L140.615 189.263ZM292.698 141.065C292.774 141.465 292.868 141.878 292.982 142.303L294.324 147.31L294.325 147.309L292.983 142.302C292.869 141.878 292.774 141.465 292.698 141.065ZM120.063 170.553C120.132 170.932 120.219 171.32 120.326 171.719L124.848 188.596C124.892 188.76 124.938 188.921 124.987 189.079L124.849 188.595L120.327 171.719C120.22 171.32 120.132 170.932 120.063 170.553ZM130.625 168.612L135.321 186.138C135.375 186.339 135.418 186.532 135.452 186.717L135.395 186.433C135.373 186.337 135.349 186.238 135.322 186.138L130.626 168.612C130.586 168.465 130.544 168.325 130.5 168.191L130.625 168.612ZM226.095 161.567C226.127 161.685 226.156 161.801 226.18 161.914L226.096 161.566L219.462 136.808L219.461 136.808L226.095 161.567ZM152.64 181.497L152.731 181.877C152.705 181.754 152.676 181.627 152.641 181.497L151.399 176.86L151.398 176.86L152.64 181.497ZM263.621 151.76C263.641 151.836 263.658 151.911 263.675 151.984C263.658 151.911 263.642 151.836 263.622 151.76L258.926 134.234L258.925 134.234L263.621 151.76ZM142.168 183.955L142.169 183.955L137.647 167.078L137.646 167.078L142.168 183.955ZM298.291 136.897C298.278 136.913 298.264 136.93 298.251 136.947C298.264 136.93 298.278 136.913 298.291 136.897ZM298.421 136.753C298.405 136.769 298.39 136.786 298.375 136.802C298.39 136.786 298.405 136.769 298.421 136.753ZM213.817 154.187L216.98 158.458L214.671 149.842L213.817 154.187ZM294.283 134.44C294.359 134.457 294.437 134.473 294.516 134.487C294.443 134.542 294.373 134.597 294.304 134.654L294.305 134.654C294.374 134.597 294.444 134.541 294.517 134.487C294.36 134.458 294.206 134.425 294.055 134.385L294.283 134.44ZM200.516 157.037L200.517 157.04L203.497 141.086L200.516 157.037ZM248.363 136.175C248.432 136.554 248.519 136.943 248.626 137.341L250.266 143.461L250.267 143.461L248.627 137.341C248.52 136.942 248.432 136.554 248.363 136.175ZM59.7951 193.405C59.8126 193.491 59.8261 193.576 59.8398 193.659C59.8261 193.576 59.8136 193.491 59.796 193.405L56.3424 180.516L56.3414 180.516L59.7951 193.405ZM289.787 129.981C289.816 130.06 289.846 130.138 289.876 130.215C289.844 130.133 289.811 130.05 289.78 129.965C289.782 129.97 289.785 129.976 289.787 129.981ZM289.566 129.324C289.58 129.369 289.593 129.415 289.608 129.46C289.593 129.415 289.58 129.369 289.566 129.324ZM289.413 128.797C289.422 128.831 289.433 128.864 289.442 128.897C289.433 128.864 289.423 128.831 289.414 128.797L288.731 126.248L288.73 126.248L289.413 128.797ZM120.018 170.287C120.028 170.347 120.038 170.406 120.049 170.466C120.022 170.31 119.998 170.156 119.978 170.004C119.99 170.098 120.003 170.192 120.018 170.287ZM248.318 135.909C248.328 135.969 248.339 136.028 248.349 136.088C248.325 135.95 248.304 135.812 248.285 135.677C248.296 135.754 248.306 135.831 248.318 135.909ZM174.014 141.003C177.523 141.028 180.726 143.377 181.679 146.932L183.077 152.15C183.891 152.179 184.714 152.271 185.535 152.438L183.9 146.337C183.208 143.753 183.864 141.126 185.436 139.201C185.064 139.365 184.675 139.503 184.271 139.611L179.171 140.978C177.48 141.431 175.77 141.305 174.251 140.724C174.174 140.818 174.095 140.912 174.014 141.003ZM119.954 169.831C119.957 169.861 119.962 169.891 119.965 169.921C119.942 169.74 119.924 169.561 119.91 169.385L119.954 169.831ZM248.21 135.007C248.223 135.176 248.242 135.346 248.263 135.52C248.242 135.346 248.223 135.176 248.21 135.007ZM83.2642 173.315L84.5032 177.939L84.5042 177.939L83.2644 173.312L83.2642 173.315ZM261.444 128.396C261.562 128.501 261.676 128.61 261.788 128.725C261.676 128.61 261.562 128.501 261.444 128.396ZM130.873 161.45C131.102 161.527 131.327 161.615 131.544 161.717C131.431 161.664 131.316 161.615 131.2 161.569C131.093 161.526 130.983 161.487 130.873 161.45ZM259.173 127.072C259.403 127.149 259.627 127.237 259.845 127.339C259.731 127.286 259.617 127.237 259.5 127.191C259.393 127.148 259.284 127.109 259.173 127.072ZM130.823 161.433C130.72 161.399 130.616 161.367 130.511 161.339C130.616 161.368 130.72 161.399 130.823 161.433ZM259.123 127.055C259.02 127.022 258.916 126.99 258.811 126.961C258.916 126.99 259.02 127.022 259.123 127.055ZM130.435 161.32C130.348 161.297 130.259 161.276 130.17 161.257C130.259 161.276 130.348 161.297 130.435 161.32ZM258.735 126.942C258.648 126.919 258.56 126.898 258.471 126.879C258.56 126.898 258.648 126.919 258.735 126.942ZM130.04 161.23C129.951 161.212 129.861 161.196 129.77 161.182C129.861 161.196 129.951 161.212 130.04 161.23ZM258.34 126.852C258.251 126.834 258.161 126.818 258.07 126.805C258.161 126.818 258.251 126.834 258.34 126.852ZM122.37 163.163C122.291 163.227 122.214 163.293 122.139 163.359C122.214 163.293 122.291 163.227 122.37 163.163ZM122.711 162.905C122.608 162.978 122.509 163.053 122.412 163.13C122.509 163.053 122.608 162.978 122.711 162.905ZM129.681 161.169C129.583 161.155 129.485 161.144 129.386 161.134C129.485 161.144 129.583 161.155 129.681 161.169ZM257.981 126.791C257.884 126.777 257.785 126.766 257.686 126.756C257.785 126.766 257.884 126.777 257.981 126.791ZM129.287 161.125C129.19 161.117 129.092 161.11 128.993 161.105C129.092 161.11 129.19 161.117 129.287 161.125ZM257.587 126.747C257.49 126.739 257.392 126.732 257.294 126.728C257.392 126.732 257.49 126.739 257.587 126.747ZM128.898 161.102C128.787 161.098 128.675 161.095 128.561 161.096C128.675 161.095 128.787 161.098 128.898 161.102ZM257.199 126.724C257.087 126.72 256.975 126.717 256.861 126.718C256.975 126.717 257.087 126.72 257.199 126.724ZM128.46 161.098C128.361 161.1 128.263 161.102 128.163 161.108C128.263 161.103 128.361 161.1 128.46 161.098ZM256.76 126.72C256.662 126.722 256.563 126.725 256.463 126.73C256.563 126.725 256.662 126.722 256.76 126.72ZM128.095 161.111C127.985 161.117 127.874 161.127 127.761 161.137C127.874 161.127 127.985 161.117 128.095 161.111ZM256.395 126.733C256.285 126.739 256.174 126.749 256.062 126.759C256.174 126.749 256.285 126.739 256.395 126.733ZM124.557 161.92C124.54 161.927 124.522 161.934 124.505 161.941C124.555 161.921 124.605 161.902 124.655 161.883C124.622 161.895 124.589 161.907 124.557 161.92ZM141.739 157.316C141.722 157.323 141.706 157.33 141.689 157.337C141.737 157.317 141.785 157.299 141.833 157.28C141.802 157.292 141.77 157.304 141.739 157.316ZM252.857 127.542C252.84 127.549 252.823 127.556 252.805 127.563C252.855 127.543 252.905 127.524 252.955 127.505C252.923 127.517 252.89 127.529 252.857 127.542ZM143.982 156.671C144.132 156.642 144.28 156.617 144.426 156.595C144.133 156.638 143.834 156.695 143.527 156.765L143.982 156.671ZM124.98 161.761C124.943 161.774 124.906 161.789 124.869 161.802C124.925 161.782 124.981 161.761 125.038 161.742L124.98 161.761ZM142.161 157.158C142.125 157.17 142.09 157.184 142.054 157.197C142.108 157.178 142.162 157.158 142.217 157.139L142.161 157.158ZM253.281 127.383C253.243 127.396 253.206 127.411 253.169 127.424C253.225 127.404 253.281 127.383 253.338 127.364L253.281 127.383ZM211.483 132.32C211.84 132.463 212.187 132.632 212.522 132.827C212.714 132.492 212.93 132.172 213.168 131.868L211.483 132.32ZM70.8972 169.99C71.0985 170.07 71.2963 170.16 71.4906 170.257C71.6109 170.075 71.7397 169.899 71.8744 169.728L70.8972 169.99ZM132.275 153.53C132.526 153.592 132.776 153.661 133.027 153.737C133.198 153.553 133.374 153.374 133.553 153.201L132.691 153.432C132.552 153.469 132.413 153.501 132.275 153.53ZM260.788 119.206C260.819 119.165 260.85 119.124 260.882 119.083L260.599 119.159C260.662 119.175 260.725 119.19 260.788 119.206ZM314.848 102.505C314.298 103.108 313.707 103.651 313.084 104.137C313.279 104.167 313.472 104.203 313.663 104.247C314.256 103.695 314.938 103.228 315.691 102.873C315.403 102.766 315.121 102.644 314.848 102.505ZM62.612 168.926C61.9789 169.754 61.2737 170.482 60.5182 171.122C60.5941 171.099 60.6697 171.074 60.7465 171.053L64.5433 170.036C63.8513 169.758 63.2011 169.383 62.612 168.926ZM226.838 120.894C227.163 123.115 226.533 125.303 225.216 126.984L231.288 125.357C229.307 124.56 227.666 122.98 226.838 120.894ZM293.941 105.499C293.705 106.778 293.162 107.977 292.367 108.991L298.285 107.405C296.907 107.062 295.54 106.506 294.219 105.681C294.167 105.649 294.116 105.615 294.065 105.582C294.023 105.554 293.983 105.526 293.941 105.499ZM84.9908 157.931L84.9917 157.931L81.4883 124.085L81.4874 124.085L84.9908 157.931ZM144.93 117.278L154.88 139.204L144.929 117.273L144.93 117.278ZM187.996 130.331L187.997 130.331L180.543 102.512L180.542 102.512L187.996 130.331ZM330.306 92.199L330.307 92.1988L321.61 59.744L321.61 59.7443L330.306 92.199ZM348.169 87.4126L348.17 87.4124L339.473 54.9576L339.473 54.9579L348.169 87.4126ZM342.474 87.9519L342.474 87.9528L342.474 87.9519ZM343.749 86.2666L343.769 86.2309C343.78 86.2076 343.789 86.1833 343.8 86.1598C343.783 86.1955 343.766 86.2312 343.749 86.2666ZM343.885 85.9712C343.901 85.9353 343.916 85.8993 343.931 85.8629C343.916 85.8992 343.901 85.9353 343.885 85.9712ZM297.578 98.2043C297.61 98.2343 297.644 98.2618 297.677 98.291C297.619 98.2389 297.561 98.1862 297.504 98.1321L297.578 98.2043ZM121.455 143.191L121.456 143.191L114.002 115.372L114.002 115.373L121.455 143.191ZM338.87 81.5058L338.871 81.5055L338.113 78.6775L338.112 78.6778L338.87 81.5058ZM49.3856 152.553C49.4506 152.586 49.5133 152.622 49.5736 152.662C49.6158 152.688 49.6573 152.717 49.6985 152.747C49.7806 152.807 49.8609 152.876 49.9388 152.954C50.017 153.031 50.0931 153.118 50.1671 153.213L50.0546 153.076C49.9029 152.904 49.743 152.766 49.5746 152.662C49.5141 152.622 49.4509 152.586 49.3856 152.553ZM218.045 103.969L218.046 103.968C218.102 103.921 218.154 103.87 218.204 103.818C218.154 103.87 218.102 103.921 218.045 103.969ZM218.242 103.777C218.283 103.731 218.322 103.685 218.359 103.637C218.322 103.685 218.283 103.731 218.242 103.777ZM218.504 103.422C218.467 103.487 218.425 103.548 218.381 103.608C218.426 103.548 218.468 103.486 218.505 103.422C218.525 103.387 218.543 103.352 218.561 103.315C218.543 103.352 218.524 103.388 218.504 103.422ZM285.88 84.6469C285.882 84.6271 285.883 84.6072 285.885 84.5871C285.883 84.6072 285.882 84.6271 285.88 84.6469ZM285.891 84.4387C285.892 84.4256 285.892 84.4124 285.892 84.3991C285.892 84.4124 285.892 84.4256 285.891 84.4387ZM52.0168 147.038C52.0709 146.942 52.1203 146.842 52.1679 146.742C52.1204 146.842 52.0708 146.942 52.0168 147.038ZM285.891 84.3236C285.89 84.242 285.886 84.1578 285.88 84.0708C285.886 84.1578 285.89 84.242 285.891 84.3236ZM252.034 93.2945L252.034 93.2942L248.308 79.3855L248.307 79.3857L252.034 93.2945ZM52.1978 146.677C52.2342 146.597 52.2685 146.516 52.3008 146.435C52.2686 146.516 52.2342 146.597 52.1978 146.677ZM285.844 83.7385C285.806 83.4639 285.745 83.1654 285.659 82.8439L284.355 77.9756C284.243 77.5575 284.114 77.1944 283.972 76.885C284.015 76.9771 284.056 77.0737 284.096 77.1755C284.142 77.2953 284.187 77.4219 284.23 77.5551C284.273 77.6886 284.314 77.8288 284.354 77.9758L285.658 82.8441C285.744 83.1656 285.805 83.4639 285.844 83.7385ZM52.3317 146.354C52.3609 146.276 52.3884 146.197 52.4139 146.117C52.3884 146.197 52.3609 146.276 52.3317 146.354ZM52.4456 146.017C52.4527 145.993 52.4614 145.97 52.4681 145.946C52.4888 145.873 52.5083 145.799 52.526 145.724L52.5251 145.724C52.5017 145.823 52.4743 145.92 52.4456 146.017ZM52.6946 144.286C52.6919 144.456 52.6842 144.622 52.6708 144.786C52.6775 144.704 52.6835 144.622 52.6875 144.538C52.6916 144.455 52.6942 144.371 52.6956 144.286L52.6946 144.286ZM46.7245 141.078C46.8179 141.321 46.9045 141.588 46.9821 141.878L47.4667 143.686C47.5101 143.848 47.5474 144.005 47.5788 144.157C47.5474 144.005 47.5111 143.848 47.4676 143.686L46.9831 141.877C46.9054 141.587 46.8181 141.321 46.7245 141.078ZM46.5673 140.707C46.5211 140.608 46.4734 140.514 46.424 140.425C46.4734 140.514 46.5212 140.608 46.5673 140.707ZM283.951 76.8401C283.919 76.7722 283.886 76.7076 283.853 76.6451C283.886 76.7076 283.919 76.7722 283.951 76.8401ZM283.809 76.5649C283.779 76.5125 283.749 76.4625 283.718 76.4143C283.749 76.4625 283.779 76.5125 283.809 76.5649ZM283.676 76.3496C283.631 76.2828 283.586 76.2193 283.539 76.161C283.586 76.2193 283.631 76.2828 283.676 76.3496ZM215.587 93.5812C215.698 93.6218 215.805 93.6724 215.908 93.7316C215.942 93.7515 215.977 93.773 216.01 93.7963C215.977 93.7731 215.943 93.7512 215.909 93.7314C215.806 93.672 215.699 93.6217 215.587 93.5812ZM214.494 93.4645L214.459 93.4677C214.442 93.4696 214.425 93.4733 214.408 93.4755C214.437 93.4718 214.465 93.4674 214.494 93.4645ZM214.212 93.5058C214.192 93.5094 214.172 93.5127 214.152 93.5167C214.172 93.5127 214.192 93.5094 214.212 93.5058ZM297.204 70.8556C297.303 70.829 297.401 70.8068 297.497 70.7891C297.401 70.8067 297.304 70.8288 297.204 70.8554L297.204 70.8556ZM290.417 70.5278C290.404 70.5604 290.391 70.5929 290.379 70.6258C290.391 70.5929 290.404 70.5604 290.417 70.5278ZM290.532 70.2461C290.522 70.2686 290.514 70.2917 290.504 70.3143C290.521 70.2757 290.537 70.237 290.554 70.1988C290.547 70.2146 290.539 70.2302 290.532 70.2461ZM292.351 67.9087C292.337 67.9195 292.324 67.9308 292.311 67.9416C292.351 67.9089 292.392 67.8771 292.434 67.845C292.406 67.8664 292.378 67.887 292.351 67.9087ZM292.662 67.6737C292.631 67.6956 292.602 67.7191 292.572 67.7413C292.618 67.7071 292.664 67.6724 292.712 67.639L292.662 67.6737ZM256.682 75.4511L256.683 75.4509L255.416 70.7222L255.415 70.7224L256.682 75.4511ZM285.874 84.0015C285.867 83.9253 285.859 83.8471 285.848 83.7669C285.859 83.8471 285.867 83.9253 285.874 84.0015ZM46.7202 141.066C46.6761 140.952 46.6299 140.844 46.5823 140.74C46.6298 140.844 46.6762 140.952 46.7202 141.066Z" fill="#1C1456"/>
<g filter="url(#filter0_ii_2380_26502)">
<path d="M250.727 57.485C251.185 57.3622 251.645 57.2841 252.103 57.2437C252.519 57.05 252.957 56.8874 253.416 56.7644L258.145 55.4974C261.927 54.484 265.801 56.3583 267.43 59.7681L270.37 58.9803C272.907 58.3004 275.784 58.0146 278.639 58.6592C280.821 56.4081 283.6 55.0368 286.404 54.2855C288.279 53.7832 290.294 53.5243 292.331 53.673C293.116 53.0916 294.02 52.6432 295.021 52.3751L310.785 48.1511C311.022 48.0876 311.259 48.0369 311.496 47.9958C311.723 47.9127 311.954 47.8378 312.191 47.7742L319.889 45.7117C321.858 45.184 324.143 44.8321 326.494 45.0347C327.451 44.0846 328.659 43.3619 330.054 42.9878L343.964 39.2607C348.232 38.1172 352.618 40.6499 353.762 44.9176L355.004 49.5538C355.168 50.1656 355.254 50.7799 355.273 51.3866L400.632 39.2327C404.9 38.0892 409.286 40.6218 410.43 44.8896L411.548 49.0627C412.691 53.3303 410.159 57.7171 405.891 58.8606L360.532 71.0145C360.819 71.5492 361.052 72.1244 361.216 72.7361L362.458 77.3723C363.602 81.64 361.069 86.0267 356.801 87.1703L342.892 90.8974C341.527 91.2629 340.151 91.2506 338.872 90.928C337.05 92.1792 335.026 93.005 333.05 93.5343L325.029 95.6837C323.821 96.0074 322.603 96.0355 321.452 95.814C321.281 95.9619 321.103 96.1022 320.919 96.2359C323.589 96.9519 325.816 99.0316 326.582 101.894L335.279 134.348C336.422 138.616 333.889 143.003 329.622 144.146L324.8 145.438C324.194 145.601 323.585 145.686 322.984 145.706C322.452 145.99 321.88 146.221 321.276 146.383L316.454 147.674C315.802 147.849 315.143 147.936 314.493 147.945C313.925 148.263 313.309 148.517 312.652 148.693L308.201 149.886C307.723 150.014 307.243 150.093 306.767 150.132C306.336 150.336 305.88 150.508 305.403 150.636L300.303 152.002C299.322 152.265 298.335 152.331 297.382 152.229C296.941 152.55 296.465 152.829 295.958 153.057C295.225 155.697 293.157 157.892 290.319 158.653L285.126 160.044C282.388 160.778 279.603 159.997 277.655 158.216C276.858 160.732 274.837 162.801 272.099 163.535L266.905 164.926C264.233 165.642 261.514 164.917 259.573 163.226C258.987 163.442 258.395 163.629 257.801 163.788C255.482 164.409 252.97 164.661 250.464 164.26C249.507 165.212 248.297 165.937 246.898 166.312L241.799 167.678C241.324 167.806 240.846 167.885 240.372 167.924C239.943 168.127 239.49 168.297 239.015 168.424L233.916 169.791C231.942 170.319 229.943 170.06 228.251 169.209C227.386 170.084 226.416 170.838 225.359 171.466C225.348 171.472 225.337 171.478 225.326 171.485C225.316 171.49 225.307 171.498 225.297 171.504L225.296 171.503C223.838 172.369 222.287 173.006 220.68 173.436L219.428 173.772C218.634 173.984 217.845 174.126 217.085 174.218C216.335 174.308 215.593 174.291 214.878 174.178C214.021 174.87 213.019 175.39 211.923 175.684L206.684 177.087C205.53 177.397 204.35 177.436 203.222 177.237C202.353 177.967 201.315 178.526 200.146 178.839L195.047 180.206C192.681 180.839 190.28 180.342 188.414 179.048C186.088 181.891 182.862 183.47 179.781 184.296L172.27 186.309C171.062 186.632 169.844 186.661 168.693 186.439C167.807 187.206 166.738 187.791 165.53 188.114L160.431 189.481C158.448 190.012 156.439 189.749 154.742 188.887C152.508 191.339 149.582 192.785 146.681 193.562C143.805 194.333 140.608 194.54 137.497 193.599C135.267 195.963 132.399 197.389 129.501 198.166C127.58 198.68 125.528 198.941 123.457 198.787C122.651 199.392 121.729 199.851 120.728 200.119L115.489 201.523C114.335 201.832 113.155 201.872 112.027 201.672C111.158 202.403 110.121 202.961 108.952 203.275L103.852 204.641C102.643 204.965 101.425 204.993 100.274 204.772C99.3885 205.539 98.3205 206.123 97.1128 206.447L92.0125 207.813C88.2087 208.833 84.3117 206.931 82.6995 203.484C82.2506 205.065 81.5405 206.77 80.3663 208.31C80.3195 208.372 80.2719 208.433 80.2233 208.493C78.7908 210.264 76.917 211.638 74.6803 212.43L74.6815 212.431C74.6773 212.433 74.6725 212.433 74.6683 212.435C74.6651 212.436 74.6616 212.438 74.6584 212.439L74.6572 212.439C73.6674 212.79 72.6098 213.112 71.5009 213.409L70.2492 213.744C69.455 213.957 68.6656 214.099 67.9049 214.19C67.5556 214.232 67.208 214.249 66.8643 214.246C66.2518 214.608 65.5817 214.896 64.8609 215.089L59.7606 216.455C55.493 217.599 51.1061 215.066 49.9626 210.799L48.6126 205.76C46.1195 205.717 43.5679 205.098 41.168 203.6C41.1161 203.568 41.0641 203.534 41.013 203.501C37.1917 200.992 35.1668 197.122 34.1481 193.32L30.8808 181.127C29.9945 177.819 31.3179 174.441 33.9445 172.555C31.2886 171.831 29.0768 169.757 28.313 166.906L19.6168 134.452C18.4733 130.184 21.0061 125.797 25.2736 124.654L32.9699 122.591C36.1741 121.733 40.2111 121.336 44.0114 123.045C44.8993 120.739 46.8392 118.875 49.4086 118.187L54.5089 116.82C55.5337 116.545 56.565 116.485 57.5569 116.608C58.355 116.005 59.2792 115.542 60.3045 115.267L65.4973 113.876C66.6728 113.561 67.857 113.527 68.9803 113.729C69.8557 112.989 70.9004 112.428 72.0691 112.115L79.5343 110.114L79.8901 110.027C80.9468 109.795 82.0109 109.785 83.0281 109.97C83.9021 109.228 84.95 108.663 86.1307 108.347L91.1839 106.993C91.907 106.799 92.634 106.714 93.3476 106.722C93.9617 106.358 94.6338 106.069 95.357 105.875L100.457 104.508C101.172 104.317 101.89 104.231 102.596 104.236C103.204 103.879 103.869 103.594 104.583 103.403L109.73 102.024C110.204 101.897 110.679 101.817 111.151 101.778C111.58 101.576 112.032 101.407 112.506 101.28L126.415 97.5529C126.77 97.4576 127.128 97.3898 127.483 97.3445C127.814 97.206 128.157 97.0861 128.513 96.9908L135.606 95.0901C136.905 94.742 138.225 94.7346 139.463 95.019C140.393 94.1537 141.54 93.5002 142.839 93.152L149.933 91.2513C151.624 90.7981 153.332 90.9249 154.852 91.5054C155.877 90.2425 157.295 89.2786 158.986 88.8253L175.075 84.5144C176.251 84.1995 177.435 84.1653 178.558 84.3677C179.434 83.628 180.478 83.0667 181.647 82.7534L189.112 80.7532L189.468 80.6659C190.525 80.4335 191.589 80.4242 192.606 80.6086C193.48 79.867 194.528 79.302 195.709 78.9857L203.219 76.9732C204.735 76.5671 206.373 76.3023 208.054 76.2914C208.857 75.6815 209.788 75.2131 210.822 74.936L226.586 70.712C226.823 70.6486 227.061 70.5979 227.298 70.5568C227.524 70.4737 227.756 70.3985 227.994 70.3349L233.093 68.9686C234.118 68.6939 235.15 68.6336 236.142 68.7562C236.94 68.1539 237.863 67.6904 238.888 67.4156L240.092 67.0931C239.798 63.3259 242.215 59.7659 245.997 58.7523L250.727 57.485ZM264.834 157.199L264.835 157.199L262.599 148.854L262.598 148.854L264.834 157.199ZM129.868 189.484L129.921 189.457C129.956 189.437 129.989 189.416 130.023 189.396C129.972 189.425 129.92 189.455 129.868 189.484ZM258.168 155.106L258.221 155.079C258.256 155.059 258.289 155.038 258.323 155.018C258.272 155.048 258.221 155.077 258.168 155.106ZM130.144 189.325C130.184 189.301 130.223 189.277 130.262 189.253C130.223 189.277 130.184 189.301 130.144 189.325ZM258.444 154.947C258.484 154.923 258.523 154.899 258.562 154.875C258.523 154.899 258.484 154.923 258.444 154.947ZM306.13 142.159L306.131 142.158L297.435 109.704L297.434 109.704L306.13 142.159ZM130.398 189.167C130.442 189.138 130.486 189.109 130.529 189.079C130.486 189.109 130.442 189.138 130.398 189.167ZM258.698 154.789C258.742 154.76 258.786 154.731 258.829 154.701C258.786 154.731 258.742 154.76 258.698 154.789ZM131.947 187.799C131.971 187.77 131.994 187.74 132.017 187.711C131.994 187.74 131.971 187.77 131.947 187.799ZM260.247 153.421C260.271 153.392 260.294 153.362 260.318 153.333C260.294 153.362 260.271 153.392 260.247 153.421ZM132.176 187.505C132.193 187.481 132.211 187.459 132.228 187.435C132.211 187.459 132.193 187.481 132.176 187.505ZM260.476 153.127C260.493 153.104 260.511 153.081 260.528 153.057C260.511 153.081 260.493 153.104 260.476 153.127ZM132.392 187.192C132.403 187.176 132.415 187.16 132.426 187.144L132.432 187.133C132.419 187.153 132.405 187.172 132.392 187.192ZM260.692 152.814C260.703 152.798 260.715 152.782 260.726 152.766L260.732 152.755C260.719 152.775 260.705 152.794 260.692 152.814ZM261.567 150.643C261.513 150.898 261.447 151.147 261.367 151.389L261.477 151.021C261.544 150.772 261.598 150.516 261.639 150.254L261.567 150.643ZM133.267 185.021C133.24 185.148 133.211 185.274 133.177 185.398L133.268 185.02C133.295 184.893 133.318 184.763 133.339 184.632L133.267 185.021ZM285.351 136.823C285.426 137.223 285.521 137.635 285.635 138.06L286.976 143.067L286.977 143.067L285.636 138.06C285.522 137.635 285.427 137.223 285.351 136.823ZM112.715 166.311C112.784 166.689 112.871 167.078 112.978 167.477L117.5 184.353C117.544 184.517 117.591 184.678 117.639 184.836L117.501 184.353L112.979 167.476C112.872 167.078 112.784 166.689 112.715 166.311ZM123.277 164.369L127.973 181.896C128.027 182.096 128.07 182.289 128.104 182.474L128.047 182.19C128.025 182.094 128.001 181.996 127.974 181.895L123.278 164.369C123.239 164.222 123.196 164.082 123.152 163.949L123.277 164.369ZM218.748 157.324C218.779 157.443 218.808 157.558 218.833 157.671L218.749 157.324L212.115 132.565L212.114 132.565L218.748 157.324ZM145.293 177.255L145.383 177.634C145.357 177.511 145.329 177.384 145.294 177.254L144.051 172.617L144.05 172.618L145.293 177.255ZM256.273 147.518C256.294 147.593 256.31 147.668 256.327 147.742C256.31 147.668 256.295 147.593 256.274 147.517L251.578 129.991L251.577 129.991L256.273 147.518ZM134.82 179.712L134.821 179.712L130.299 162.836L130.298 162.836L134.82 179.712ZM290.944 132.654C290.93 132.67 290.917 132.687 290.904 132.704C290.917 132.687 290.93 132.671 290.944 132.654ZM291.073 132.51C291.057 132.526 291.043 132.543 291.028 132.56C291.043 132.543 291.057 132.526 291.073 132.51ZM206.469 149.945L209.633 154.216L207.324 145.599L206.469 149.945ZM286.935 130.198C287.012 130.215 287.09 130.23 287.168 130.244C287.096 130.299 287.025 130.355 286.957 130.411L286.958 130.411C287.026 130.355 287.097 130.299 287.169 130.244C287.012 130.216 286.858 130.182 286.708 130.142L286.935 130.198ZM193.169 152.795L193.169 152.798L196.149 136.843L193.169 152.795ZM241.016 131.933C241.084 132.311 241.172 132.7 241.279 133.099L242.918 139.219L242.919 139.218L241.279 133.098C241.173 132.7 241.084 132.311 241.016 131.933ZM52.4474 189.162C52.465 189.248 52.4785 189.333 52.4922 189.416C52.4785 189.333 52.4659 189.248 52.4483 189.162L48.9947 176.273L48.9938 176.273L52.4474 189.162ZM282.439 125.739C282.468 125.818 282.498 125.896 282.528 125.973C282.496 125.89 282.464 125.807 282.433 125.722C282.435 125.728 282.437 125.733 282.439 125.739ZM282.219 125.081C282.233 125.127 282.246 125.172 282.26 125.217C282.246 125.172 282.233 125.127 282.219 125.081ZM282.065 124.555C282.074 124.588 282.085 124.621 282.094 124.654C282.085 124.621 282.075 124.588 282.066 124.555L281.383 122.005L281.382 122.005L282.065 124.555ZM112.67 166.045C112.68 166.104 112.691 166.163 112.701 166.223C112.674 166.068 112.651 165.914 112.63 165.761C112.643 165.855 112.655 165.95 112.67 166.045ZM240.971 131.667C240.98 131.726 240.991 131.786 241.001 131.845C240.977 131.707 240.957 131.57 240.938 131.434C240.948 131.511 240.958 131.589 240.971 131.667ZM166.666 136.76C170.176 136.786 173.379 139.135 174.331 142.689L175.729 147.907C176.544 147.936 177.366 148.028 178.187 148.195L176.553 142.094C175.86 139.51 176.516 136.883 178.088 134.958C177.717 135.122 177.327 135.26 176.923 135.368L171.824 136.735C170.132 137.188 168.422 137.062 166.903 136.481C166.826 136.576 166.747 136.669 166.666 136.76ZM112.606 165.589C112.609 165.619 112.614 165.648 112.618 165.679C112.595 165.497 112.576 165.319 112.562 165.142L112.606 165.589ZM240.862 130.764C240.876 130.933 240.894 131.104 240.916 131.277C240.894 131.104 240.876 130.933 240.862 130.764ZM75.9166 169.072L77.1556 173.696L77.1565 173.696L75.9168 169.069L75.9166 169.072ZM254.096 124.153C254.214 124.258 254.329 124.368 254.44 124.482C254.329 124.368 254.214 124.258 254.096 124.153ZM123.526 157.207C123.755 157.284 123.979 157.372 124.197 157.474C124.083 157.422 123.969 157.372 123.853 157.326C123.745 157.283 123.636 157.244 123.526 157.207ZM251.826 122.829C252.055 122.906 252.279 122.994 252.497 123.096C252.384 123.044 252.269 122.994 252.153 122.948C252.045 122.905 251.936 122.866 251.826 122.829ZM123.476 157.19C123.372 157.157 123.268 157.125 123.163 157.096C123.268 157.125 123.372 157.157 123.476 157.19ZM251.776 122.813C251.673 122.779 251.569 122.747 251.463 122.718C251.569 122.747 251.673 122.779 251.776 122.813ZM123.087 157.077C123 157.055 122.912 157.034 122.823 157.015C122.912 157.034 123 157.054 123.087 157.077ZM251.387 122.699C251.3 122.677 251.212 122.656 251.123 122.637C251.212 122.656 251.3 122.677 251.387 122.699ZM122.692 156.987C122.603 156.97 122.513 156.954 122.423 156.94C122.513 156.954 122.603 156.97 122.692 156.987ZM250.992 122.609C250.903 122.592 250.813 122.576 250.723 122.562C250.813 122.576 250.903 122.592 250.992 122.609ZM115.022 158.921C114.943 158.984 114.867 159.05 114.791 159.116C114.867 159.05 114.943 158.984 115.022 158.921ZM115.363 158.662C115.261 158.735 115.162 158.81 115.065 158.887C115.161 158.81 115.261 158.735 115.363 158.662ZM122.333 156.926C122.236 156.913 122.138 156.901 122.039 156.891C122.138 156.901 122.236 156.913 122.333 156.926ZM250.633 122.548C250.536 122.535 250.438 122.523 250.339 122.513C250.438 122.523 250.536 122.535 250.633 122.548ZM121.939 156.882C121.842 156.874 121.744 156.868 121.646 156.863C121.744 156.868 121.842 156.874 121.939 156.882ZM250.239 122.504C250.142 122.496 250.045 122.49 249.946 122.485C250.045 122.49 250.142 122.496 250.239 122.504ZM121.551 156.859C121.439 156.855 121.327 156.853 121.214 156.853C121.327 156.853 121.439 156.855 121.551 156.859ZM249.851 122.481C249.74 122.477 249.627 122.475 249.514 122.475C249.627 122.475 249.74 122.477 249.851 122.481ZM121.112 156.855C121.014 156.857 120.915 156.86 120.815 156.865C120.915 156.86 121.014 156.857 121.112 156.855ZM249.412 122.477C249.314 122.479 249.215 122.482 249.115 122.487C249.215 122.482 249.314 122.479 249.412 122.477ZM120.747 156.868C120.637 156.874 120.526 156.884 120.414 156.895C120.526 156.884 120.637 156.874 120.747 156.868ZM249.048 122.49C248.937 122.497 248.826 122.506 248.714 122.517C248.826 122.506 248.937 122.497 249.048 122.49ZM117.209 157.677C117.192 157.684 117.175 157.692 117.157 157.698C117.207 157.678 117.257 157.66 117.307 157.64C117.275 157.653 117.242 157.665 117.209 157.677ZM134.391 153.074C134.375 153.08 134.358 153.087 134.341 153.094C134.389 153.075 134.437 153.056 134.486 153.037C134.454 153.049 134.423 153.061 134.391 153.074ZM245.51 123.3C245.492 123.306 245.475 123.314 245.458 123.321C245.507 123.301 245.557 123.282 245.608 123.262C245.575 123.275 245.542 123.287 245.51 123.3ZM136.635 152.428C136.784 152.4 136.932 152.374 137.078 152.353C136.786 152.395 136.486 152.452 136.18 152.523L136.635 152.428ZM117.633 157.519C117.595 157.532 117.558 157.546 117.521 157.559C117.577 157.539 117.633 157.519 117.69 157.499L117.633 157.519ZM134.814 152.915C134.778 152.928 134.742 152.942 134.706 152.955C134.76 152.935 134.814 152.915 134.869 152.896L134.814 152.915ZM245.933 123.141C245.896 123.154 245.859 123.168 245.822 123.182C245.878 123.161 245.934 123.141 245.991 123.121L245.933 123.141ZM204.135 128.077C204.492 128.22 204.84 128.389 205.175 128.584C205.367 128.25 205.583 127.929 205.821 127.625L204.135 128.077ZM63.5495 165.747C63.7509 165.828 63.9486 165.918 64.1429 166.015C64.2632 165.833 64.3921 165.656 64.5268 165.485L63.5495 165.747ZM124.927 149.288C125.178 149.349 125.429 149.419 125.679 149.495C125.85 149.31 126.026 149.131 126.205 148.958L125.343 149.189C125.205 149.226 125.066 149.258 124.927 149.288ZM253.441 114.964C253.472 114.923 253.502 114.881 253.534 114.841L253.251 114.916C253.314 114.932 253.378 114.947 253.441 114.964ZM307.5 98.2624C306.951 98.8656 306.359 99.4082 305.737 99.8946C305.931 99.9244 306.124 99.9607 306.315 100.005C306.909 99.4521 307.59 98.9852 308.344 98.6299C308.056 98.523 307.774 98.4012 307.5 98.2624ZM55.2643 164.683C54.6313 165.511 53.926 166.239 53.1705 166.879C53.2464 166.856 53.3221 166.831 53.3989 166.811L57.1956 165.793C56.5036 165.515 55.8534 165.141 55.2643 164.683ZM219.49 116.651C219.816 118.872 219.186 121.06 217.869 122.741L223.94 121.114C221.959 120.317 220.319 118.738 219.49 116.651ZM286.594 101.256C286.358 102.535 285.814 103.734 285.019 104.748L290.937 103.162C289.56 102.82 288.192 102.263 286.871 101.438C286.819 101.406 286.768 101.373 286.717 101.339C286.676 101.312 286.635 101.283 286.594 101.256ZM77.6431 153.688L77.6441 153.688L74.1406 119.842L74.1397 119.842L77.6431 153.688ZM137.583 113.036L147.532 134.962L137.581 113.03L137.583 113.036ZM180.648 126.088L180.649 126.088L173.195 98.2694L173.194 98.2697L180.648 126.088ZM322.958 87.9563L322.959 87.9561L314.263 55.5014L314.262 55.5016L322.958 87.9563ZM340.821 83.17L340.822 83.1697L332.126 50.715L332.125 50.7152L340.821 83.17ZM335.126 83.7092L335.126 83.7102L335.126 83.7092ZM336.401 82.0239L336.421 81.9883C336.432 81.9649 336.441 81.9406 336.452 81.9171C336.436 81.9528 336.419 81.9885 336.401 82.0239ZM336.537 81.7286C336.553 81.6926 336.568 81.6566 336.583 81.6202C336.568 81.6566 336.553 81.6926 336.537 81.7286ZM290.23 93.9616C290.262 93.9916 290.297 94.0191 290.329 94.0483C290.271 93.9962 290.213 93.9435 290.156 93.8895L290.23 93.9616ZM114.108 138.948L114.109 138.948L106.655 111.13L106.654 111.13L114.108 138.948ZM331.522 77.2631L331.523 77.2628L330.766 74.4349L330.765 74.4351L331.522 77.2631ZM42.0379 148.31C42.1029 148.343 42.1656 148.38 42.226 148.42C42.2682 148.446 42.3097 148.474 42.3508 148.504C42.4329 148.565 42.5133 148.633 42.5912 148.711C42.6694 148.789 42.7454 148.875 42.8194 148.97L42.707 148.834C42.5553 148.661 42.3953 148.523 42.2269 148.419C42.1664 148.379 42.1032 148.343 42.0379 148.31ZM210.698 99.726L210.699 99.7257C210.755 99.6781 210.806 99.6271 210.856 99.5753C210.806 99.6273 210.754 99.6782 210.698 99.726ZM210.894 99.5339C210.935 99.4888 210.974 99.4425 211.011 99.3943C210.974 99.4425 210.935 99.4887 210.894 99.5339ZM211.157 99.1794C211.12 99.2439 211.078 99.3051 211.034 99.365C211.078 99.3049 211.12 99.2438 211.158 99.1791C211.178 99.1448 211.196 99.109 211.213 99.0723C211.196 99.1092 211.177 99.1449 211.157 99.1794ZM278.533 80.4042C278.534 80.3845 278.535 80.3645 278.537 80.3444C278.535 80.3645 278.534 80.3845 278.533 80.4042ZM278.544 80.196C278.544 80.1829 278.544 80.1697 278.544 80.1564C278.544 80.1697 278.544 80.1829 278.544 80.196ZM44.6691 142.796C44.7232 142.699 44.7727 142.6 44.8202 142.499C44.7727 142.6 44.7232 142.699 44.6691 142.796ZM278.543 80.0809C278.542 79.9993 278.538 79.9152 278.532 79.8281C278.539 79.9151 278.542 79.9993 278.543 80.0809ZM244.686 89.0518L244.687 89.0516L240.96 75.1428L240.959 75.143L244.686 89.0518ZM44.8502 142.434C44.8866 142.354 44.9209 142.274 44.9532 142.192C44.9209 142.274 44.8865 142.354 44.8502 142.434ZM278.497 79.4959C278.458 79.2212 278.398 78.9228 278.311 78.6012L277.007 73.7329C276.895 73.3148 276.767 72.9517 276.625 72.6423C276.667 72.7344 276.709 72.831 276.748 72.9328C276.795 73.0526 276.839 73.1792 276.882 73.3124C276.925 73.4459 276.967 73.5861 277.006 73.7331L278.31 78.6014C278.397 78.923 278.458 79.2212 278.497 79.4959ZM44.984 142.111C45.0133 142.033 45.0407 141.954 45.0663 141.874C45.0407 141.954 45.0132 142.033 44.984 142.111ZM45.098 141.774C45.105 141.75 45.1138 141.727 45.1205 141.703C45.1411 141.63 45.1607 141.556 45.1783 141.481L45.1774 141.482C45.154 141.581 45.1267 141.678 45.098 141.774ZM45.347 140.043C45.3442 140.213 45.3366 140.38 45.3232 140.543C45.3299 140.461 45.3358 140.379 45.3399 140.296C45.3439 140.212 45.3465 140.128 45.3479 140.043L45.347 140.043ZM39.3768 136.835C39.4703 137.079 39.5568 137.345 39.6345 137.635L40.119 139.443C40.1625 139.605 40.1998 139.763 40.2312 139.915C40.1998 139.763 40.1634 139.605 40.12 139.443L39.6354 137.635C39.5578 137.345 39.4705 137.079 39.3768 136.835ZM39.2197 136.464C39.1735 136.365 39.1258 136.271 39.0763 136.182C39.1257 136.271 39.1735 136.365 39.2197 136.464ZM276.604 72.5974C276.572 72.5296 276.538 72.4649 276.505 72.4025C276.538 72.4649 276.572 72.5296 276.604 72.5974ZM276.461 72.3222C276.431 72.2699 276.401 72.2198 276.37 72.1716C276.401 72.2199 276.431 72.2698 276.461 72.3222ZM276.329 72.1069C276.284 72.0401 276.239 71.9766 276.191 71.9183C276.239 71.9767 276.284 72.0401 276.329 72.1069ZM208.239 89.3385C208.351 89.3791 208.458 89.4297 208.56 89.489C208.595 89.5089 208.629 89.5303 208.663 89.5536C208.629 89.5304 208.596 89.5085 208.561 89.4887C208.458 89.4293 208.351 89.379 208.239 89.3385ZM207.146 89.2219L207.112 89.2251C207.094 89.227 207.077 89.2306 207.06 89.2328C207.089 89.2291 207.118 89.2247 207.146 89.2219ZM206.864 89.2631C206.844 89.2667 206.824 89.2701 206.804 89.274C206.824 89.2701 206.844 89.2667 206.864 89.2631ZM289.856 66.613C289.955 66.5863 290.053 66.5641 290.149 66.5464C290.053 66.564 289.956 66.5862 289.857 66.6127L289.856 66.613ZM283.069 66.2851C283.056 66.3177 283.044 66.3502 283.032 66.3831C283.044 66.3502 283.056 66.3177 283.069 66.2851ZM283.185 66.0034C283.175 66.0259 283.166 66.049 283.156 66.0716C283.173 66.033 283.189 65.9943 283.206 65.9561C283.199 65.9719 283.192 65.9876 283.185 66.0034ZM285.003 63.666C284.99 63.6768 284.977 63.6881 284.963 63.6989C285.004 63.6662 285.045 63.6344 285.086 63.6023C285.058 63.6238 285.03 63.6443 285.003 63.666ZM285.314 63.431C285.283 63.4529 285.254 63.4764 285.224 63.4986C285.27 63.4644 285.317 63.4297 285.364 63.3963L285.314 63.431ZM249.334 71.2084L249.335 71.2082L248.068 66.4795L248.067 66.4797L249.334 71.2084ZM278.527 79.7588C278.52 79.6826 278.511 79.6045 278.5 79.5242C278.511 79.6045 278.52 79.6826 278.527 79.7588ZM39.3726 136.823C39.3285 136.71 39.2823 136.601 39.2347 136.497C39.2822 136.601 39.3286 136.71 39.3726 136.823Z" fill="#6AA338"/>
</g>
<path d="M35.0414 130.318C37.6996 129.606 39.7817 129.711 41.2875 130.632C42.8243 131.546 43.9281 133.254 44.5989 135.758L44.9095 136.917C45.3568 138.586 45.4626 140.032 45.227 141.255C44.9914 142.477 44.3722 143.505 43.3693 144.336C44.9011 144.489 46.1066 145.094 46.986 146.15C47.888 147.167 48.5709 148.541 49.0347 150.272L49.7428 152.915C50.4137 155.419 50.2781 157.509 49.336 159.186C48.3857 160.832 46.6278 161.999 44.0623 162.686L36.0412 164.836L27.3449 132.38L35.0414 130.318ZM37.2279 148.864L39.899 158.833L42.8199 158.05C43.6854 157.818 44.2724 157.412 44.5809 156.833C44.9203 156.245 44.9285 155.348 44.6055 154.143L43.8477 151.314C43.4418 149.8 42.9016 148.835 42.2271 148.419C41.5835 147.995 40.6744 147.941 39.4998 148.255L37.2279 148.864ZM33.6873 135.65L35.9856 144.228L37.9793 143.694C38.9375 143.437 39.6131 142.991 40.006 142.355C40.4299 141.712 40.4679 140.741 40.12 139.443L39.6355 137.634C39.3208 136.46 38.8767 135.668 38.3031 135.258C37.7605 134.841 37.041 134.752 36.1446 134.992L33.6873 135.65ZM65.2762 157.002L60.1761 158.369L51.4797 125.914L56.5798 124.547L60.3068 138.456L66.1024 136.903L62.3754 122.994L67.5682 121.603L76.2645 154.058L71.0717 155.449L67.3447 141.54L61.5492 143.093L65.2762 157.002ZM95.4945 148.905L90.3481 150.284L87.8894 144.632L81.6302 146.309L82.327 152.433L77.6442 153.688L74.1407 119.842L81.6054 117.841L95.4945 148.905ZM81.0991 141.73L86.0137 140.414L79.1586 124.659L81.0991 141.73ZM109.982 140.054L114.109 138.948L106.655 111.129L111.801 109.75L120.498 142.206L96.8982 148.529L88.2018 116.074L93.2556 114.72L100.71 142.538L104.882 141.42L97.4284 113.602L102.528 112.235L109.982 140.054ZM123.342 121.318L130.343 119.442L131.585 124.078L124.584 125.954L127.131 135.459L135.94 133.098L137.183 137.735L123.273 141.462L114.577 109.007L128.486 105.28L129.729 109.916L120.919 112.277L123.342 121.318ZM147.607 124.854L144.91 100.879L152.004 98.9782L160.7 131.433L155.878 132.725L149.642 109.45L152.355 133.669L147.533 134.962L137.581 113.03L143.731 135.98L139.28 137.173L130.584 104.718L137.677 102.817L147.607 124.854ZM174.854 127.641L169.754 129.007L161.057 96.5523L177.146 92.2414L185.842 124.697L180.649 126.088L173.195 98.2693L167.4 99.8222L174.854 127.641ZM205.072 119.544L199.926 120.923L197.467 115.271L191.208 116.948L191.905 123.072L187.222 124.327L183.718 90.4803L191.183 88.4802L205.072 119.544ZM190.677 112.369L195.591 111.052L188.736 95.2978L190.677 112.369ZM205.291 84.7001C207.856 84.0127 209.939 84.1833 211.54 85.2121C213.172 86.2325 214.34 88.0564 215.044 90.6837L216.174 94.9029C216.878 97.5302 216.779 99.6937 215.876 101.393C215.004 103.085 213.285 104.274 210.719 104.961L208.309 105.607L211.576 117.801L206.476 119.168L197.779 86.7127L205.291 84.7001ZM204.122 89.9826L207.066 100.971L209.477 100.325C210.281 100.11 210.841 99.7276 211.158 99.1789C211.475 98.6302 211.476 97.7686 211.161 96.594L209.856 91.7257C209.542 90.5512 209.11 89.8055 208.561 89.4887C208.013 89.1719 207.336 89.1212 206.533 89.3365L204.122 89.9826ZM212.893 82.663L228.657 78.439L229.899 83.0755L224.568 84.5042L232.022 112.323L226.921 113.689L219.467 85.8707L214.136 87.2994L212.893 82.663ZM243.861 109.151L238.761 110.517L230.064 78.062L235.164 76.6954L238.891 90.6047L244.687 89.0518L240.96 75.1425L246.153 73.7511L254.849 106.206L249.656 107.598L245.929 93.6883L240.134 95.2412L243.861 109.151ZM257.688 85.3196L264.689 83.4437L265.932 88.0802L258.931 89.9561L261.478 99.4608L270.287 97.1004L271.529 101.737L257.62 105.464L248.923 73.0087L262.833 69.2817L264.075 73.9181L255.266 76.2786L257.688 85.3196ZM252.798 65.2123L254.065 69.9415L249.336 71.2087L248.068 66.4795L252.798 65.2123ZM260.216 63.2246L261.483 67.9538L256.754 69.221L255.487 64.4918L260.216 63.2246ZM272.441 66.7072C275.007 66.0197 277.09 66.1904 278.691 67.2191C280.322 68.2396 281.49 70.0635 282.194 72.6908L283.325 76.91C284.029 79.5373 283.929 81.7007 283.026 83.4003C282.154 85.0916 280.436 86.281 277.87 86.9684L275.459 87.6144L278.726 99.8083L273.626 101.175L264.93 68.7197L272.441 66.7072ZM271.272 71.9896L274.217 82.978L276.628 82.332C277.431 82.1166 277.992 81.7346 278.308 81.1859C278.625 80.6373 278.626 79.7756 278.311 78.6011L277.007 73.7328C276.692 72.5582 276.261 71.8126 275.712 71.4958C275.163 71.179 274.487 71.1283 273.683 71.3436L271.272 71.9896ZM301.632 80.7007L302.788 85.0126C303.492 87.6399 303.385 89.8384 302.468 91.6081C301.573 93.3386 299.874 94.5393 297.371 95.2102C294.867 95.881 292.78 95.6949 291.109 94.6518C289.46 93.5696 288.284 91.7148 287.58 89.0874L283.058 72.2108C282.354 69.5835 282.449 67.4046 283.344 65.6741C284.261 63.9044 285.972 62.6841 288.475 62.0132C290.979 61.3424 293.055 61.5481 294.703 62.6303C296.374 63.6734 297.562 65.5086 298.266 68.1359L299.11 71.2887L294.289 72.5808L293.357 69.1034C293.042 67.9289 292.575 67.176 291.957 66.8449C291.36 66.4746 290.661 66.3971 289.857 66.6124C289.053 66.8277 288.47 67.2489 288.108 67.876C287.769 68.4639 287.757 69.3451 288.071 70.5197L292.767 88.0454C293.082 89.22 293.533 89.977 294.121 90.3164C294.74 90.6475 295.451 90.7054 296.255 90.4901C297.059 90.2748 297.63 89.8731 297.969 89.2853C298.34 88.6891 298.368 87.8037 298.053 86.6292L296.811 81.9927L301.632 80.7007ZM297.092 60.102L312.856 55.8781L314.098 60.5146L308.766 61.9432L316.22 89.7619L311.12 91.1285L303.666 63.3098L298.334 64.7385L297.092 60.102ZM321.959 53.4388C324.618 52.7265 326.7 52.8312 328.205 53.7529C329.742 54.6662 330.846 56.3748 331.517 58.8785L331.828 60.0376C332.275 61.7067 332.381 63.1526 332.145 64.3752C331.909 65.5978 331.29 66.6251 330.287 67.457C331.819 67.6098 333.025 68.2143 333.904 69.2707C334.806 70.2879 335.489 71.662 335.953 73.393L336.661 76.0357C337.332 78.5394 337.196 80.6297 336.254 82.3067C335.304 83.9528 333.546 85.1195 330.98 85.8069L322.959 87.9562L314.263 55.501L321.959 53.4388ZM324.146 71.9848L326.817 81.9531L329.738 81.1705C330.603 80.9386 331.19 80.5328 331.499 79.9532C331.838 79.3654 331.846 78.4687 331.523 77.2632L330.766 74.435C330.36 72.9204 329.82 71.9553 329.145 71.5398C328.501 71.1159 327.592 71.0613 326.418 71.376L324.146 71.9848ZM320.605 58.7709L322.904 67.3483L324.897 66.8141C325.855 66.5574 326.531 66.1113 326.924 65.476C327.348 64.8324 327.386 63.8614 327.038 62.5632L326.553 60.755C326.239 59.5805 325.795 58.7884 325.221 58.3789C324.678 57.9611 323.959 57.8723 323.063 58.1125L320.605 58.7709ZM340.891 63.0256L347.892 61.1497L349.134 65.7861L342.133 67.6621L344.68 77.1668L353.489 74.8063L354.732 79.4428L340.822 83.1698L332.126 50.7147L346.035 46.9877L347.278 51.6241L338.468 53.9846L340.891 63.0256ZM356.339 59.3833L402.703 46.9599L403.821 51.1327L357.457 63.5561L356.339 59.3833ZM43.7092 177.689L47.0635 190.207C47.3782 191.382 47.8295 192.139 48.4174 192.478C49.0362 192.809 49.7474 192.867 50.551 192.652C51.3238 192.445 51.8881 192.078 52.2441 191.552C52.5918 190.995 52.6599 190.199 52.4484 189.162L48.9947 176.273L54.0948 174.906L62.7911 207.361L57.691 208.728L54.3492 196.256C53.9578 196.526 53.5386 196.755 53.0916 196.941C52.6671 197.087 52.1922 197.231 51.6667 197.372C49.163 198.043 47.0757 197.857 45.4048 196.814C43.7565 195.731 42.5804 193.877 41.8764 191.249L38.6091 179.056L43.7092 177.689ZM65.7064 201.611C65.9929 201.567 66.2906 201.504 66.5997 201.421C66.9088 201.338 67.2025 201.26 67.4807 201.185C67.8825 201.077 68.241 200.932 68.5561 200.748C68.9022 200.556 69.1657 200.303 69.3468 199.989C69.5587 199.668 69.6644 199.258 69.6638 198.761C69.6941 198.256 69.614 197.648 69.4235 196.937L55.4705 174.538L60.5706 173.171L71.2743 190.677L70.8172 170.425L75.9172 169.059L75.6512 194.772C75.6602 197.155 75.5172 199.032 75.222 200.403C74.9494 201.735 74.5435 202.755 74.0043 203.462C73.4568 204.139 72.7895 204.616 72.0024 204.893C71.2463 205.162 70.3891 205.425 69.4309 205.682C68.9672 205.806 68.55 205.918 68.179 206.017C67.8081 206.116 67.398 206.193 66.9487 206.247L65.7064 201.611ZM75.9144 169.06L91.6783 164.836L92.9206 169.472L87.5887 170.901L95.0427 198.719L89.9426 200.086L82.4886 172.267L77.1567 173.696L75.9144 169.06ZM104.992 182.189L104.211 185.579L106.882 195.547L101.782 196.914L93.0855 164.459L98.1856 163.092L101.975 177.233L104.955 161.278L109.962 159.937L106.744 176.303L118.658 192.392L113.419 193.795L104.992 182.189ZM122.689 183.311C123.003 184.486 123.459 185.258 124.055 185.628C124.674 185.96 125.385 186.017 126.189 185.802C126.992 185.587 127.564 185.185 127.903 184.597C128.265 183.97 128.289 183.069 127.974 181.895L123.278 164.369C122.963 163.195 122.497 162.442 121.878 162.111C121.282 161.74 120.582 161.663 119.778 161.878C118.974 162.093 118.392 162.515 118.03 163.142C117.69 163.73 117.678 164.611 117.993 165.785L122.689 183.311ZM112.979 167.477C112.275 164.849 112.402 162.662 113.358 160.915C114.306 159.137 116.032 157.913 118.536 157.242C121.039 156.571 123.146 156.768 124.856 157.834C126.558 158.869 127.761 160.7 128.465 163.327L132.987 180.204C133.691 182.831 133.569 185.034 132.621 186.812C131.665 188.559 129.935 189.768 127.431 190.439C124.927 191.109 122.824 190.927 121.123 189.893C119.413 188.827 118.206 186.98 117.502 184.353L112.979 167.477ZM148.873 171.326L150.029 175.638C150.733 178.265 150.626 180.463 149.709 182.233C148.814 183.964 147.115 185.164 144.611 185.835C142.108 186.506 140.02 186.32 138.35 185.277C136.701 184.194 135.525 182.34 134.821 179.712L130.299 162.836C129.595 160.208 129.69 158.029 130.585 156.299C131.502 154.529 133.213 153.309 135.716 152.638C138.22 151.967 140.296 152.173 141.944 153.255C143.615 154.298 144.803 156.134 145.507 158.761L146.351 161.914L141.53 163.206L140.598 159.728C140.283 158.554 139.816 157.801 139.198 157.47C138.601 157.099 137.901 157.022 137.098 157.237C136.294 157.453 135.711 157.874 135.349 158.501C135.01 159.089 134.998 159.97 135.312 161.145L140.008 178.67C140.323 179.845 140.774 180.602 141.362 180.941C141.981 181.272 142.692 181.33 143.496 181.115C144.299 180.9 144.871 180.498 145.21 179.91C145.581 179.314 145.609 178.429 145.294 177.254L144.051 172.618L148.873 171.326ZM144.333 150.727L160.097 146.503L161.339 151.139L156.007 152.568L163.461 180.387L158.361 181.753L150.907 153.935L145.575 155.363L144.333 150.727ZM176.469 171.932C177.273 171.717 177.833 171.335 178.15 170.786C178.466 170.237 178.467 169.376 178.153 168.201L176.848 163.333C176.533 162.158 176.102 161.413 175.553 161.096C175.004 160.779 174.328 160.728 173.525 160.944L171.114 161.59L174.058 172.578L176.469 171.932ZM170.2 178.581L161.504 146.126L166.604 144.759L169.871 156.953L172.282 156.307C174.848 155.62 176.931 155.79 178.532 156.819C180.163 157.84 181.331 159.664 182.035 162.291L183.166 166.51C183.87 169.137 183.77 171.301 182.867 173C181.995 174.692 180.277 175.881 177.711 176.568L170.2 178.581ZM196.187 157.753L195.406 161.143L198.077 171.112L192.977 172.478L184.28 140.023L189.38 138.656L193.17 152.798L196.15 136.843L201.157 135.501L197.939 151.867L209.853 167.956L204.614 169.36L196.187 157.753ZM224.392 134.245L218.457 135.835L223.749 155.586C224.188 157.224 224.348 158.623 224.227 159.781C224.107 160.94 223.79 161.919 223.276 162.72C222.753 163.489 222.077 164.118 221.246 164.605C220.447 165.084 219.568 165.452 218.61 165.709C218.147 165.833 217.729 165.945 217.358 166.044C216.988 166.144 216.577 166.221 216.128 166.275L214.886 161.638C215.172 161.595 215.47 161.531 215.779 161.449C216.088 161.366 216.382 161.287 216.66 161.213C217.464 160.997 218.09 160.614 218.539 160.063C219.018 159.504 219.088 158.591 218.749 157.323L212.115 132.565L228.249 128.242L236.946 160.697L231.846 162.063L224.392 134.245ZM244.829 158.584L239.729 159.951L231.032 127.496L236.132 126.129L239.859 140.039L242.92 139.219L241.28 133.099C240.576 130.471 240.702 128.284 241.658 126.537C242.606 124.759 244.332 123.535 246.836 122.864C249.34 122.193 251.447 122.39 253.157 123.456C254.858 124.491 256.061 126.322 256.765 128.949L261.287 145.826C261.991 148.453 261.869 150.656 260.921 152.434C259.965 154.181 258.235 155.39 255.731 156.061C253.227 156.732 251.125 156.55 249.423 155.515C247.713 154.449 246.506 152.603 245.802 149.975L244.162 143.855L241.102 144.675L244.829 158.584ZM250.989 148.933C251.303 150.108 251.759 150.88 252.355 151.251C252.974 151.582 253.685 151.64 254.489 151.424C255.292 151.209 255.864 150.807 256.203 150.219C256.565 149.592 256.589 148.692 256.274 147.517L251.578 129.991C251.264 128.817 250.797 128.064 250.178 127.733C249.582 127.362 248.882 127.285 248.078 127.5C247.275 127.716 246.692 128.137 246.33 128.764C245.99 129.352 245.978 130.233 246.293 131.407L250.989 148.933ZM262.599 148.853C262.886 148.81 263.184 148.747 263.493 148.664C263.802 148.581 264.096 148.502 264.374 148.428C265.177 148.212 265.804 147.829 266.252 147.278C266.732 146.719 266.802 145.806 266.462 144.539L259.828 119.78L275.963 115.457L283.417 143.275L286.014 142.58L288.25 150.925L283.057 152.317L282.063 148.607L269.035 152.098L270.029 155.808L264.836 157.199L262.599 148.853ZM271.463 142.801C271.827 144.161 271.995 145.342 271.965 146.344L278.317 144.642L272.105 121.46L266.171 123.05L271.463 142.801ZM288.322 117.114C287.426 117.355 286.832 117.795 286.54 118.437C286.279 119.07 286.305 119.974 286.62 121.148L287.477 124.348C287.825 125.646 288.328 126.472 288.986 126.825C289.675 127.171 290.499 127.215 291.457 126.959L293.45 126.424L290.779 116.456L288.322 117.114ZM287.477 147.157C287.558 146.472 287.551 145.828 287.456 145.224C287.352 144.59 287.193 143.87 286.977 143.067L285.635 138.059C285.18 136.359 285.027 134.86 285.176 133.561C285.347 132.223 286.012 131.118 287.169 130.244C284.662 129.79 282.961 127.893 282.067 124.555L281.383 122.005C280.713 119.501 280.799 117.474 281.642 115.923C282.516 114.363 284.282 113.228 286.941 112.515L294.637 110.453L303.333 142.908L298.233 144.275L294.693 131.061L292.931 131.533C291.756 131.848 290.989 132.384 290.629 133.143C290.269 133.902 290.292 135.039 290.698 136.554L292.065 141.654C292.239 142.303 292.368 142.848 292.453 143.289C292.569 143.722 292.634 144.086 292.646 144.38C292.69 144.667 292.706 144.911 292.694 145.113C292.681 145.315 292.673 145.533 292.67 145.765L287.477 147.157ZM314.459 129.839L311.762 105.865L318.855 103.964L327.552 136.419L322.73 137.711L316.493 114.436L319.206 138.655L314.384 139.947L304.433 118.015L310.582 140.966L306.131 142.158L297.435 109.703L304.529 107.803L314.459 129.839Z" fill="white"/>
<defs>
<filter id="filter0_ii_2380_26502" x="15.3418" y="34.9581" width="400.48" height="185.772" filterUnits="userSpaceOnUse" color-interpolation-filters="sRGB">
<feFlood flood-opacity="0" result="BackgroundImageFix"/>
<feBlend mode="normal" in="SourceGraphic" in2="BackgroundImageFix" result="shape"/>
<feColorMatrix in="SourceAlpha" type="matrix" values="0 0 0 0 0 0 0 0 0 0 0 0 0 0 0 0 0 0 127 0" result="hardAlpha"/>
<feOffset dx="-4" dy="-4"/>
<feGaussianBlur stdDeviation="2"/>
<feComposite in2="hardAlpha" operator="arithmetic" k2="-1" k3="1"/>
<feColorMatrix type="matrix" values="0 0 0 0 0.317647 0 0 0 0 0.490196 0 0 0 0 0.168627 0 0 0 1 0"/>
<feBlend mode="normal" in2="shape" result="effect1_innerShadow_2380_26502"/>
<feColorMatrix in="SourceAlpha" type="matrix" values="0 0 0 0 0 0 0 0 0 0 0 0 0 0 0 0 0 0 127 0" result="hardAlpha"/>
<feOffset dx="4" dy="4"/>
<feGaussianBlur stdDeviation="2"/>
<feComposite in2="hardAlpha" operator="arithmetic" k2="-1" k3="1"/>
<feColorMatrix type="matrix" values="0 0 0 0 0.607843 0 0 0 0 0.803922 0 0 0 0 0.435294 0 0 0 1 0"/>
<feBlend mode="normal" in2="effect1_innerShadow_2380_26502" result="effect2_innerShadow_2380_26502"/>
</filter>
</defs>
</svg>
